<svg id="Layer_2" data-name="Layer 2" xmlns="http://www.w3.org/2000/svg" viewBox="0 0 12.96348607 14.16516457"><path d="M3.959 0.643 L 3.965 1.286 6.482 1.286 L 8.999 1.286 9.005 0.643 L 9.010 0.000 6.482 0.000 L 3.953 0.000 3.959 0.643 M8.750 0.648 L 8.750 1.037 6.482 1.037 L 4.213 1.037 4.213 0.648 L 4.213 0.259 6.482 0.259 L 8.750 0.259 8.750 0.648 M5.014 1.737 C 4.981 1.773,4.925 1.797,4.835 1.812 C 4.653 1.844,4.531 1.937,4.450 2.107 C 4.339 2.338,4.456 2.631,4.708 2.752 C 4.794 2.793,4.808 2.811,4.849 2.930 C 4.874 3.002,4.920 3.093,4.953 3.131 L 5.013 3.201 5.013 3.891 L 5.013 4.581 4.212 5.869 C 3.771 6.577,3.402 7.181,3.391 7.210 C 3.380 7.239,3.371 7.511,3.371 7.816 L 3.371 8.369 3.203 8.662 L 3.036 8.954 3.023 8.857 C 3.015 8.805,2.928 7.904,2.828 6.856 C 2.729 5.808,2.643 4.955,2.639 4.959 C 2.634 4.964,2.546 5.879,2.443 6.994 L 2.255 9.020 1.127 10.833 C -0.070 12.759,-0.050 12.722,0.042 12.839 C 0.127 12.947,0.183 12.952,0.478 12.879 C 1.213 12.697,1.682 12.693,2.274 12.865 C 2.372 12.894,3.336 13.195,4.415 13.535 C 5.844 13.984,6.406 14.152,6.482 14.152 C 6.557 14.152,7.119 13.984,8.548 13.535 C 9.628 13.195,10.592 12.894,10.690 12.865 C 11.281 12.693,11.750 12.697,12.485 12.879 C 12.714 12.935,12.762 12.941,12.815 12.919 C 12.902 12.883,12.963 12.799,12.963 12.716 C 12.963 12.662,12.633 12.115,11.476 10.250 L 9.989 7.853 9.559 5.122 C 9.225 3.007,9.125 2.410,9.113 2.476 C 9.104 2.522,9.024 3.518,8.934 4.688 C 8.845 5.859,8.769 6.841,8.766 6.871 C 8.762 6.914,8.741 6.888,8.659 6.739 L 8.556 6.553 8.556 6.050 L 8.556 5.548 8.253 5.064 L 7.951 4.581 7.951 3.882 L 7.951 3.184 8.005 3.133 C 8.035 3.105,8.080 3.017,8.106 2.936 C 8.150 2.799,8.158 2.788,8.245 2.755 C 8.295 2.736,8.375 2.678,8.423 2.626 C 8.691 2.335,8.530 1.886,8.132 1.813 C 8.051 1.798,7.985 1.771,7.950 1.738 L 7.895 1.685 6.479 1.685 L 5.063 1.685 5.014 1.737 M7.841 1.996 C 7.880 2.038,7.916 2.049,8.031 2.057 C 8.158 2.065,8.179 2.073,8.235 2.135 C 8.367 2.284,8.287 2.506,8.089 2.539 C 8.043 2.547,7.995 2.556,7.983 2.559 C 7.971 2.563,7.932 2.655,7.898 2.763 C 7.855 2.896,7.815 2.978,7.774 3.018 L 7.713 3.076 7.713 3.875 L 7.713 4.674 8.005 5.142 L 8.297 5.610 8.297 6.110 L 8.297 6.611 8.619 7.186 C 8.921 7.725,8.943 7.757,8.954 7.689 C 8.960 7.649,9.014 6.969,9.074 6.179 C 9.134 5.389,9.189 4.699,9.196 4.645 C 9.207 4.569,9.268 4.913,9.479 6.244 L 9.748 7.940 11.206 10.291 C 12.008 11.585,12.660 12.648,12.654 12.654 C 12.647 12.660,12.610 12.655,12.571 12.642 C 12.464 12.608,12.113 12.537,11.907 12.508 C 11.663 12.473,11.195 12.494,10.918 12.551 C 10.797 12.576,9.755 12.893,8.602 13.255 C 7.450 13.618,6.495 13.914,6.481 13.914 C 6.466 13.914,5.513 13.618,4.361 13.256 C 3.210 12.894,2.168 12.577,2.047 12.552 C 1.768 12.494,1.301 12.473,1.056 12.508 C 0.850 12.537,0.500 12.608,0.393 12.642 C 0.353 12.655,0.316 12.660,0.310 12.654 C 0.304 12.648,0.778 11.871,1.363 10.929 C 1.949 9.986,2.445 9.185,2.466 9.149 C 2.497 9.098,2.519 8.932,2.571 8.371 C 2.607 7.980,2.640 7.651,2.643 7.641 C 2.646 7.630,2.690 8.073,2.742 8.624 C 2.793 9.175,2.842 9.654,2.850 9.689 C 2.863 9.746,2.898 9.695,3.242 9.105 L 3.619 8.459 3.625 7.869 L 3.632 7.279 4.441 5.978 L 5.249 4.678 5.250 3.879 L 5.250 3.081 5.176 3.004 C 5.122 2.948,5.088 2.878,5.045 2.739 C 4.994 2.567,4.983 2.549,4.935 2.549 C 4.855 2.549,4.742 2.496,4.702 2.439 C 4.644 2.356,4.656 2.216,4.729 2.135 C 4.784 2.073,4.806 2.065,4.933 2.057 C 5.047 2.049,5.084 2.038,5.123 1.996 L 5.171 1.945 6.482 1.945 L 7.792 1.945 7.841 1.996 M5.704 4.270 L 5.704 5.645 4.393 7.754 C 3.673 8.914,2.851 10.237,2.567 10.695 L 2.052 11.527 2.684 11.533 C 3.276 11.538,3.319 11.536,3.349 11.499 C 3.367 11.477,3.945 10.563,4.634 9.468 L 5.888 7.477 6.482 7.482 L 7.075 7.486 8.344 9.496 C 9.042 10.601,9.616 11.513,9.620 11.522 C 9.623 11.531,9.915 11.536,10.268 11.532 L 10.911 11.527 10.174 10.338 C 9.768 9.685,8.947 8.361,8.348 7.398 L 7.260 5.645 7.260 4.270 L 7.260 2.895 6.482 2.895 L 5.704 2.895 5.704 4.270 M7.000 4.416 L 7.000 5.698 7.137 5.923 C 7.212 6.046,7.986 7.294,8.857 8.696 C 9.728 10.098,10.446 11.258,10.451 11.273 C 10.460 11.294,10.387 11.300,10.128 11.300 C 9.837 11.300,9.790 11.295,9.762 11.262 C 9.744 11.241,9.181 10.354,8.511 9.290 C 7.842 8.227,7.263 7.325,7.225 7.287 L 7.156 7.216 6.482 7.216 L 5.808 7.216 5.739 7.287 C 5.701 7.325,5.122 8.227,4.452 9.290 C 3.782 10.354,3.219 11.241,3.202 11.262 C 3.173 11.295,3.127 11.300,2.836 11.300 C 2.562 11.300,2.504 11.294,2.513 11.270 C 2.525 11.238,2.658 11.024,4.602 7.897 C 5.318 6.744,5.918 5.770,5.934 5.732 C 5.957 5.676,5.963 5.416,5.963 4.397 L 5.963 3.133 6.482 3.133 L 7.000 3.133 7.000 4.416 M6.334 8.961 C 6.283 9.009,4.977 11.055,4.886 11.228 C 4.848 11.300,4.856 11.396,4.906 11.459 C 4.931 11.491,5.271 11.793,5.662 12.132 L 6.374 12.747 6.481 12.747 L 6.589 12.747 7.301 12.132 C 7.692 11.793,8.033 11.490,8.057 11.459 C 8.140 11.354,8.120 11.291,7.879 10.909 C 7.757 10.714,7.440 10.209,7.175 9.787 C 6.909 9.366,6.664 8.994,6.630 8.961 C 6.583 8.917,6.546 8.902,6.482 8.902 C 6.418 8.902,6.380 8.917,6.334 8.961 M7.170 10.255 C 7.824 11.289,7.846 11.328,7.807 11.364 C 7.548 11.606,6.496 12.490,6.473 12.484 C 6.457 12.480,6.172 12.243,5.841 11.957 C 5.510 11.670,5.211 11.412,5.177 11.383 L 5.115 11.329 5.792 10.256 C 6.165 9.666,6.475 9.183,6.481 9.183 C 6.488 9.183,6.797 9.665,7.170 10.255 " stroke="none" fill-rule="evenodd" fill="black"></path></svg>