<svg id="Layer_2" data-name="Layer 2" xmlns="http://www.w3.org/2000/svg" viewBox="0 0 14.28239151 14.23874459"><path d="M10.010 0.506 C 9.855 0.771,9.319 1.700,8.819 2.571 C 8.318 3.441,7.838 4.276,7.751 4.425 C 7.665 4.574,7.593 4.705,7.593 4.717 C 7.593 4.728,7.942 4.735,8.396 4.731 L 9.198 4.725 9.751 3.766 C 10.124 3.116,10.309 2.816,10.323 2.837 C 10.334 2.854,10.682 3.458,11.096 4.178 L 11.850 5.487 9.135 5.493 C 7.641 5.496,6.415 5.494,6.409 5.488 C 6.403 5.482,6.555 5.204,6.746 4.870 C 6.937 4.535,7.094 4.257,7.094 4.251 C 7.094 4.245,6.480 4.623,5.731 5.090 C 4.981 5.558,4.024 6.154,3.603 6.416 L 2.837 6.891 5.690 6.897 C 7.258 6.901,9.832 6.901,11.409 6.897 L 14.277 6.891 12.300 3.458 C 11.212 1.569,10.315 0.024,10.306 0.024 C 10.298 0.024,10.164 0.241,10.010 0.506 M12.069 3.561 C 13.031 5.232,13.822 6.613,13.826 6.632 C 13.832 6.660,13.098 6.665,8.768 6.665 C 4.512 6.665,3.709 6.660,3.738 6.633 C 3.788 6.587,6.358 4.993,6.367 5.003 C 6.371 5.007,6.279 5.177,6.163 5.380 L 5.951 5.749 9.109 5.755 C 10.846 5.758,12.271 5.756,12.277 5.751 C 12.288 5.739,10.325 2.311,10.307 2.310 C 10.301 2.310,10.017 2.797,9.676 3.392 L 9.057 4.473 8.539 4.474 L 8.021 4.475 8.058 4.404 C 8.078 4.365,8.128 4.276,8.169 4.207 C 8.209 4.139,8.615 3.434,9.070 2.642 C 10.182 0.705,10.288 0.524,10.305 0.524 C 10.313 0.524,11.106 1.891,12.069 3.561 M0.028 7.385 C 0.047 7.415,0.939 8.962,2.011 10.825 C 3.083 12.687,3.967 14.211,3.976 14.211 C 3.995 14.211,4.306 13.677,5.511 11.581 C 5.985 10.756,6.444 9.959,6.531 9.810 C 6.618 9.661,6.689 9.535,6.689 9.530 C 6.689 9.526,6.326 9.522,5.883 9.522 L 5.077 9.522 4.528 10.475 C 4.156 11.123,3.973 11.419,3.960 11.398 C 3.949 11.380,3.601 10.777,3.186 10.057 L 2.432 8.748 5.148 8.742 C 6.641 8.739,7.868 8.741,7.874 8.747 C 7.880 8.752,7.728 9.031,7.537 9.365 C 7.345 9.700,7.189 9.978,7.189 9.983 C 7.189 9.992,11.419 7.367,11.448 7.341 C 11.453 7.336,8.878 7.332,5.726 7.332 L -0.005 7.332 0.028 7.385 M10.532 7.614 C 10.487 7.656,7.924 9.241,7.916 9.233 C 7.911 9.228,8.003 9.058,8.119 8.855 L 8.332 8.486 5.174 8.480 C 3.437 8.477,2.011 8.479,2.006 8.484 C 1.994 8.495,3.957 11.924,3.975 11.924 C 3.982 11.925,4.266 11.438,4.606 10.843 L 5.225 9.761 5.743 9.761 L 6.262 9.760 6.225 9.831 C 6.205 9.870,6.155 9.959,6.114 10.027 C 6.073 10.096,5.668 10.800,5.213 11.593 C 4.217 13.328,3.993 13.711,3.976 13.711 C 3.965 13.711,0.477 7.670,0.456 7.615 C 0.452 7.602,2.503 7.593,5.501 7.593 C 8.382 7.593,10.545 7.602,10.532 7.614 " stroke="none" fill="black" fill-rule="evenodd"></path></svg>