<svg id="Layer_2" data-name="Layer 2" xmlns="http://www.w3.org/2000/svg" viewBox="0 0 14.92230081 11.28997803"><path d="M3.679 0.073 C 3.561 0.191,3.577 0.253,3.824 0.615 C 4.853 2.127,6.511 4.510,6.546 4.529 C 6.570 4.542,6.938 4.549,7.410 4.545 L 8.231 4.539 7.150 2.972 L 6.069 1.405 7.926 1.399 C 8.947 1.395,9.786 1.397,9.791 1.402 C 9.796 1.407,9.532 1.800,9.203 2.276 C 8.874 2.753,8.605 3.149,8.605 3.157 C 8.605 3.180,9.597 4.165,9.608 4.152 C 9.676 4.073,12.246 0.326,12.263 0.282 C 12.294 0.201,12.232 0.067,12.147 0.028 C 12.101 0.008,10.981 0.000,7.918 0.000 L 3.752 0.000 3.679 0.073 M11.947 0.321 C 11.921 0.360,11.375 1.154,10.732 2.085 L 9.563 3.778 9.245 3.462 C 9.062 3.279,8.933 3.132,8.940 3.114 C 8.947 3.096,9.199 2.724,9.501 2.288 C 9.802 1.852,10.057 1.470,10.069 1.440 C 10.098 1.360,10.076 1.280,10.006 1.214 L 9.944 1.156 7.930 1.156 L 5.915 1.156 5.855 1.226 C 5.733 1.368,5.717 1.341,6.775 2.873 L 7.754 4.290 7.217 4.297 C 6.808 4.302,6.674 4.296,6.651 4.272 C 6.630 4.248,4.464 1.109,3.958 0.367 L 3.877 0.249 7.935 0.249 L 11.992 0.249 11.947 0.321 M8.524 4.371 L 8.083 4.812 4.059 4.825 L 0.035 4.837 1.139 5.633 C 1.745 6.071,2.272 6.443,2.308 6.459 C 2.359 6.482,3.060 6.489,5.235 6.490 L 8.095 6.491 8.537 6.932 L 8.978 7.374 9.326 7.026 L 9.675 6.678 9.159 6.162 L 8.643 5.646 9.159 5.129 L 9.675 4.613 9.332 4.271 C 9.144 4.083,8.985 3.930,8.978 3.930 C 8.971 3.930,8.767 4.128,8.524 4.371 M9.153 4.440 L 9.313 4.602 8.791 5.124 L 8.270 5.646 8.792 6.168 L 9.314 6.690 9.147 6.857 L 8.980 7.024 8.584 6.633 L 8.189 6.242 5.302 6.242 L 2.416 6.242 1.886 5.862 C 1.594 5.652,1.232 5.392,1.082 5.283 L 0.808 5.086 4.477 5.074 C 7.240 5.064,8.157 5.054,8.195 5.032 C 8.222 5.015,8.407 4.839,8.605 4.640 C 8.803 4.441,8.971 4.278,8.979 4.278 C 8.986 4.278,9.064 4.351,9.153 4.440 M9.401 5.235 L 8.991 5.646 9.413 6.068 L 9.836 6.491 11.533 6.491 C 12.467 6.491,13.231 6.485,13.231 6.476 C 13.231 6.468,13.060 6.282,12.852 6.063 C 12.643 5.845,12.473 5.656,12.473 5.646 C 12.473 5.635,12.644 5.446,12.854 5.225 L 13.236 4.825 11.523 4.825 L 9.811 4.825 9.401 5.235 M13.486 5.652 L 13.492 6.479 14.207 6.485 L 14.922 6.492 14.922 5.658 L 14.922 4.825 14.201 4.825 L 13.479 4.825 13.486 5.652 M12.546 5.179 C 12.492 5.237,12.371 5.365,12.276 5.463 L 12.104 5.642 12.369 5.923 C 12.515 6.078,12.634 6.213,12.634 6.224 C 12.634 6.234,12.027 6.242,11.285 6.242 L 9.935 6.242 9.637 5.944 L 9.340 5.646 9.625 5.360 L 9.910 5.074 11.277 5.074 L 12.644 5.074 12.546 5.179 M14.674 5.658 L 14.674 6.242 14.213 6.242 L 13.753 6.242 13.753 5.658 L 13.753 5.074 14.213 5.074 L 14.674 5.074 14.674 5.658 M6.521 6.783 C 6.493 6.807,5.826 7.763,5.038 8.908 C 3.942 10.501,3.606 11.006,3.606 11.062 C 3.606 11.102,3.629 11.165,3.658 11.201 L 3.709 11.266 7.936 11.266 C 12.147 11.266,12.162 11.266,12.205 11.216 C 12.262 11.150,12.283 11.068,12.259 11.001 C 12.245 10.962,9.672 7.213,9.608 7.139 C 9.603 7.133,9.459 7.267,9.288 7.437 L 8.979 7.746 8.473 7.243 L 7.968 6.740 7.270 6.740 C 6.640 6.740,6.566 6.744,6.521 6.783 M8.425 7.542 L 8.978 8.095 9.270 7.804 L 9.563 7.513 10.777 9.272 L 11.990 11.030 9.962 11.036 C 8.846 11.040,7.022 11.040,5.909 11.036 L 3.884 11.030 4.175 10.607 C 4.335 10.375,4.962 9.465,5.568 8.587 L 6.669 6.989 7.270 6.989 L 7.871 6.989 8.425 7.542 " stroke="none" fill-rule="evenodd" fill="black"></path></svg>