<svg id="Layer_2" data-name="Layer 2" xmlns="http://www.w3.org/2000/svg" viewBox="0 0 13.7978031 7.64225544"><path d="M2.460 0.123 C 1.353 0.748,0.093 1.485,0.049 1.534 C 0.007 1.582,-0.002 1.613,0.006 1.677 C 0.013 1.722,0.574 2.865,1.254 4.217 L 2.490 6.674 2.881 7.137 C 3.096 7.392,3.279 7.608,3.287 7.618 C 3.296 7.627,3.378 7.364,3.471 7.031 C 3.563 6.699,3.648 6.415,3.661 6.400 C 3.695 6.358,6.860 4.542,6.899 4.542 C 6.938 4.542,10.104 6.358,10.137 6.400 C 10.149 6.415,10.234 6.699,10.326 7.031 C 10.419 7.363,10.496 7.632,10.499 7.629 C 10.502 7.626,10.687 7.406,10.910 7.140 L 11.316 6.657 12.548 4.209 C 13.236 2.842,13.785 1.724,13.792 1.678 C 13.800 1.613,13.791 1.582,13.749 1.534 C 13.705 1.485,11.523 0.213,11.190 0.042 C 11.141 0.016,11.074 0.000,11.041 0.006 C 11.008 0.011,10.068 0.385,8.952 0.836 C 7.836 1.287,6.912 1.656,6.899 1.656 C 6.885 1.656,5.952 1.283,4.824 0.828 C 3.696 0.373,2.752 -0.000,2.726 -0.000 C 2.700 -0.000,2.581 0.055,2.460 0.123 M4.783 1.081 C 5.911 1.536,6.864 1.909,6.899 1.909 C 6.934 1.909,7.886 1.536,9.014 1.081 L 11.066 0.254 12.294 0.959 C 12.969 1.347,13.522 1.674,13.522 1.685 C 13.522 1.696,12.983 2.781,12.324 4.096 L 11.125 6.488 10.871 6.796 C 10.730 6.966,10.613 7.102,10.610 7.099 C 10.607 7.096,10.552 6.908,10.488 6.681 C 10.405 6.382,10.358 6.255,10.320 6.219 C 10.291 6.192,9.527 5.744,8.621 5.224 C 7.363 4.500,6.957 4.277,6.899 4.277 C 6.841 4.277,6.435 4.500,5.176 5.223 C 4.271 5.744,3.506 6.192,3.476 6.221 C 3.436 6.258,3.392 6.379,3.308 6.683 C 3.245 6.909,3.190 7.097,3.187 7.100 C 3.184 7.103,3.073 6.977,2.942 6.820 L 2.702 6.535 1.489 4.122 C 0.822 2.795,0.276 1.699,0.276 1.687 C 0.276 1.672,2.655 0.282,2.728 0.254 C 2.730 0.253,3.654 0.626,4.783 1.081 M2.724 0.941 C 2.601 0.992,1.179 1.825,1.144 1.866 C 1.122 1.892,1.104 1.946,1.104 1.985 C 1.104 2.033,1.339 2.526,1.820 3.483 C 2.856 5.549,2.914 5.657,3.007 5.695 C 3.075 5.724,3.094 5.723,3.180 5.684 C 3.233 5.660,4.118 5.158,5.147 4.568 C 6.176 3.978,7.027 3.495,7.040 3.495 C 7.053 3.495,7.085 3.507,7.112 3.522 C 7.161 3.548,7.161 3.548,7.099 3.597 L 7.038 3.646 8.814 4.662 C 9.791 5.221,10.619 5.689,10.654 5.702 C 10.702 5.720,10.738 5.718,10.793 5.694 C 10.859 5.667,10.898 5.606,11.112 5.194 C 11.763 3.938,12.694 2.052,12.693 1.988 C 12.693 1.951,12.675 1.898,12.653 1.870 C 12.587 1.786,11.084 0.934,11.004 0.935 C 10.966 0.935,9.988 1.318,8.831 1.786 C 6.996 2.528,6.718 2.635,6.663 2.616 C 6.585 2.589,6.582 2.562,6.657 2.543 C 6.689 2.535,6.715 2.521,6.715 2.511 C 6.715 2.493,2.925 0.955,2.828 0.934 C 2.797 0.927,2.750 0.931,2.724 0.941 M4.457 1.850 C 5.332 2.204,6.048 2.499,6.048 2.506 C 6.048 2.514,6.014 2.533,5.973 2.549 L 5.899 2.578 6.267 2.727 C 6.469 2.809,6.657 2.882,6.686 2.889 C 6.721 2.898,7.393 2.637,8.847 2.050 C 10.008 1.582,10.969 1.195,10.982 1.191 C 10.995 1.187,11.328 1.370,11.722 1.597 L 12.439 2.009 11.574 3.724 C 11.098 4.667,10.707 5.442,10.704 5.446 C 10.697 5.455,7.586 3.681,7.554 3.650 C 7.539 3.635,7.540 3.625,7.557 3.618 C 7.571 3.613,7.600 3.596,7.621 3.581 C 7.654 3.556,7.617 3.528,7.349 3.373 L 7.039 3.194 5.070 4.323 C 3.986 4.945,3.097 5.450,3.094 5.446 C 3.091 5.442,2.699 4.667,2.223 3.724 L 1.358 2.008 2.076 1.594 C 2.518 1.339,2.808 1.186,2.830 1.194 C 2.850 1.201,3.582 1.497,4.457 1.850 M3.137 2.018 C 3.073 2.053,2.771 2.225,2.466 2.400 L 1.911 2.720 2.239 3.090 C 2.419 3.294,2.734 3.652,2.939 3.886 C 3.323 4.325,3.420 4.415,3.506 4.415 C 3.552 4.415,5.346 3.393,5.432 3.317 C 5.492 3.265,5.507 3.146,5.463 3.062 C 5.431 3.000,5.290 2.922,4.392 2.472 C 3.824 2.188,3.335 1.955,3.306 1.955 C 3.278 1.955,3.201 1.983,3.137 2.018 M9.400 2.472 C 8.509 2.921,8.367 3.000,8.335 3.062 C 8.291 3.145,8.306 3.264,8.365 3.317 C 8.435 3.379,10.240 4.415,10.278 4.415 C 10.370 4.415,10.496 4.297,10.928 3.806 C 11.183 3.515,11.503 3.152,11.639 2.999 L 11.887 2.720 11.238 2.347 C 10.837 2.116,10.559 1.970,10.509 1.964 C 10.441 1.956,10.276 2.031,9.400 2.472 M4.256 2.685 C 4.772 2.947,5.187 3.170,5.177 3.179 C 5.151 3.206,3.537 4.139,3.517 4.139 C 3.495 4.139,2.323 2.814,2.323 2.789 C 2.323 2.774,3.281 2.209,3.309 2.208 C 3.314 2.208,3.740 2.422,4.256 2.685 M10.984 2.489 C 11.254 2.644,11.475 2.779,11.475 2.788 C 11.475 2.813,10.301 4.139,10.279 4.139 C 10.259 4.139,8.647 3.207,8.620 3.179 C 8.607 3.166,10.441 2.210,10.484 2.208 C 10.489 2.208,10.714 2.334,10.984 2.489 " stroke="none" fill-rule="evenodd" fill="black"></path></svg>