<svg id="Layer_2" data-name="Layer 2" xmlns="http://www.w3.org/2000/svg" viewBox="0 0 14.19000244 14.7738089"><path d="M2.940 0.053 C 2.877 0.099,0.337 2.743,0.089 3.022 L 0.000 3.122 -0.000 7.144 L -0.000 11.166 0.182 11.359 C 0.282 11.466,0.824 12.017,1.385 12.584 C 2.203 13.409,2.422 13.618,2.483 13.631 C 2.627 13.660,4.588 13.649,4.588 13.619 C 4.588 13.604,4.431 13.322,4.240 12.992 L 3.891 12.393 3.424 12.393 L 2.956 12.393 2.106 11.535 L 1.255 10.678 1.254 7.141 L 1.253 3.604 2.379 2.429 L 3.505 1.253 7.095 1.253 L 10.685 1.253 11.811 2.429 L 12.937 3.605 12.936 7.331 L 12.935 11.056 11.610 12.439 L 10.285 13.821 10.730 14.265 C 11.146 14.682,11.176 14.707,11.212 14.669 C 11.233 14.646,11.840 14.010,12.561 13.255 C 13.281 12.500,13.943 11.806,14.030 11.712 L 14.190 11.540 14.190 7.331 L 14.190 3.122 14.101 3.022 C 13.853 2.743,11.313 0.099,11.250 0.053 L 11.176 0.000 7.095 0.000 L 3.014 0.000 2.940 0.053 M12.529 1.729 L 13.930 3.195 13.930 7.328 L 13.930 11.460 12.734 12.713 C 12.076 13.402,11.453 14.050,11.350 14.154 L 11.163 14.343 10.903 14.084 C 10.759 13.941,10.645 13.817,10.648 13.809 C 10.652 13.801,11.213 13.212,11.896 12.501 C 12.579 11.790,13.150 11.179,13.166 11.144 C 13.207 11.051,13.207 3.612,13.166 3.518 C 13.122 3.416,10.857 1.063,10.767 1.025 C 10.654 0.978,3.536 0.978,3.423 1.025 C 3.333 1.063,1.068 3.416,1.024 3.518 C 0.986 3.605,0.980 10.652,1.018 10.753 C 1.032 10.789,1.444 11.223,1.935 11.718 L 2.826 12.617 3.284 12.629 L 3.743 12.641 3.943 12.984 C 4.054 13.172,4.149 13.340,4.156 13.356 C 4.165 13.380,3.994 13.386,3.343 13.384 L 2.519 13.383 1.389 12.237 L 0.260 11.091 0.260 7.143 L 0.260 3.196 1.661 1.729 L 3.063 0.262 7.095 0.262 L 11.127 0.263 12.529 1.729 M6.176 2.312 C 6.138 2.348,5.819 2.714,5.466 3.125 L 4.825 3.874 4.825 5.124 L 4.825 6.373 4.304 6.894 L 3.784 7.415 4.671 8.301 L 5.558 9.188 6.450 8.295 L 7.343 7.403 6.817 6.876 L 6.291 6.350 6.291 5.274 L 6.291 4.198 6.639 3.849 L 6.988 3.500 7.690 3.500 L 8.392 3.500 9.233 4.358 L 10.074 5.215 10.075 7.943 L 10.075 10.671 9.232 11.526 L 8.389 12.381 7.810 12.393 L 7.231 12.404 6.880 13.008 C 6.687 13.339,6.529 13.619,6.528 13.629 C 6.528 13.639,7.059 13.645,7.710 13.641 L 8.892 13.634 9.805 12.724 C 10.307 12.223,10.855 11.667,11.023 11.489 L 11.328 11.165 11.328 7.934 L 11.328 4.703 10.156 3.511 C 9.511 2.856,8.958 2.304,8.927 2.284 C 8.877 2.251,8.706 2.247,7.557 2.247 L 6.244 2.247 6.176 2.312 M9.926 3.635 L 11.067 4.789 11.067 7.944 L 11.068 11.099 9.927 12.243 L 8.786 13.387 7.873 13.381 L 6.960 13.374 7.175 13.002 L 7.391 12.630 7.941 12.629 L 8.491 12.629 9.384 11.729 C 9.874 11.233,10.289 10.800,10.304 10.765 C 10.326 10.717,10.333 10.040,10.334 7.935 C 10.335 5.249,10.334 5.165,10.290 5.097 C 10.265 5.058,9.851 4.627,9.371 4.139 L 8.498 3.252 7.733 3.245 C 7.216 3.240,6.947 3.247,6.905 3.264 C 6.870 3.278,6.666 3.468,6.450 3.685 C 6.134 4.004,6.055 4.096,6.043 4.162 C 6.035 4.208,6.032 4.743,6.035 5.351 L 6.043 6.456 6.515 6.929 L 6.988 7.403 6.273 8.118 L 5.558 8.833 4.848 8.124 L 4.139 7.415 4.612 6.941 L 5.085 6.468 5.085 5.213 L 5.085 3.958 5.716 3.221 L 6.348 2.483 7.567 2.482 L 8.786 2.481 9.926 3.635 M1.328 7.495 C 1.361 7.583,5.551 14.755,5.567 14.750 C 5.579 14.746,6.087 13.882,6.698 12.829 C 7.308 11.776,8.254 10.147,8.799 9.208 C 9.345 8.270,9.791 7.496,9.791 7.488 C 9.791 7.480,9.305 7.473,8.710 7.473 L 7.629 7.473 6.912 8.189 L 6.195 8.904 6.737 8.916 L 7.280 8.928 6.512 10.252 L 5.744 11.577 5.655 11.979 L 5.565 12.381 5.512 12.144 C 5.370 11.518,5.440 11.664,4.608 10.240 L 3.841 8.928 4.381 8.916 L 4.920 8.904 4.203 8.189 L 3.487 7.473 2.404 7.473 C 1.762 7.473,1.324 7.482,1.328 7.495 M3.843 8.183 L 4.316 8.656 3.861 8.656 C 3.610 8.656,3.406 8.662,3.406 8.668 C 3.406 8.675,3.798 9.354,4.277 10.176 L 5.148 11.671 5.342 12.546 C 5.449 13.028,5.544 13.441,5.554 13.465 C 5.565 13.494,5.644 13.187,5.778 12.588 L 5.984 11.666 6.836 10.196 C 7.305 9.387,7.694 8.710,7.702 8.691 C 7.713 8.661,7.652 8.656,7.257 8.656 L 6.800 8.656 7.272 8.183 L 7.745 7.710 8.555 7.710 C 9.001 7.710,9.365 7.715,9.365 7.721 C 9.365 7.727,8.989 8.379,8.530 9.170 C 8.071 9.960,7.218 11.430,6.635 12.436 C 5.779 13.912,5.569 14.258,5.545 14.233 C 5.521 14.207,1.861 7.924,1.776 7.763 L 1.748 7.710 2.560 7.710 L 3.371 7.710 3.843 8.183 " stroke="none" fill-rule="evenodd" fill="black"></path></svg>