<svg id="Layer_2" data-name="Layer 2" xmlns="http://www.w3.org/2000/svg" viewBox="0 0 14.19814177 13.67044482"><path d="M2.144 0.028 C 2.158 0.050,5.331 3.699,5.423 3.798 C 5.434 3.810,5.337 3.507,5.205 3.123 C 5.073 2.739,4.913 2.272,4.849 2.085 C 4.785 1.897,4.736 1.740,4.741 1.735 C 4.745 1.731,5.924 1.730,7.360 1.733 L 9.970 1.739 8.783 2.895 C 8.130 3.531,7.596 4.058,7.596 4.067 C 7.596 4.075,8.050 4.198,8.604 4.340 L 9.612 4.598 11.893 2.317 L 14.175 0.035 13.175 0.021 C 12.625 0.013,9.914 0.005,7.151 0.003 C 3.295 0.001,2.131 0.006,2.144 0.028 M11.565 2.289 L 9.536 4.319 8.844 4.143 C 8.463 4.047,8.133 3.961,8.110 3.953 C 8.077 3.942,8.346 3.668,9.334 2.709 L 10.600 1.479 7.497 1.473 C 5.790 1.470,4.390 1.471,4.385 1.475 C 4.381 1.480,4.468 1.748,4.579 2.070 C 4.690 2.393,4.778 2.660,4.775 2.662 C 4.771 2.665,4.383 2.224,3.911 1.683 C 3.440 1.141,2.968 0.600,2.863 0.479 L 2.671 0.260 8.133 0.260 L 13.595 0.260 11.565 2.289 M-0.000 5.888 C -0.000 9.706,0.008 11.475,0.024 11.465 C 0.050 11.449,3.011 8.258,3.000 8.259 C 2.996 8.259,2.706 8.375,2.355 8.517 L 1.716 8.776 1.709 7.630 C 1.706 7.000,1.706 5.967,1.709 5.336 L 1.716 4.188 3.601 5.981 L 5.486 7.773 5.115 7.791 C 4.911 7.801,4.529 7.817,4.265 7.826 L 3.786 7.844 6.691 8.730 C 8.288 9.218,9.675 9.641,9.773 9.671 L 9.950 9.725 9.832 9.611 C 9.767 9.547,7.611 7.507,5.040 5.076 C 2.470 2.645,0.284 0.575,0.183 0.476 L -0.000 0.297 -0.000 5.888 M4.810 5.203 C 7.098 7.369,8.966 9.145,8.961 9.150 C 8.956 9.155,8.139 8.911,7.146 8.608 C 5.388 8.072,5.344 8.057,5.468 8.042 C 5.539 8.034,5.706 8.026,5.841 8.024 C 5.975 8.023,6.082 8.013,6.078 8.003 C 6.073 7.992,5.031 6.996,3.763 5.789 L 1.455 3.595 1.449 4.994 C 1.446 5.763,1.446 7.014,1.449 7.773 L 1.455 9.152 1.737 9.036 C 1.892 8.973,2.023 8.924,2.027 8.929 C 2.034 8.936,0.552 10.550,0.329 10.778 L 0.260 10.849 0.260 5.871 L 0.260 0.893 0.456 1.079 C 0.563 1.182,2.523 3.038,4.810 5.203 M13.453 2.980 C 13.049 3.415,12.377 4.139,11.959 4.589 C 11.541 5.039,11.201 5.410,11.204 5.413 C 11.206 5.416,11.495 5.302,11.845 5.160 L 12.483 4.902 12.489 6.048 C 12.492 6.678,12.492 7.710,12.489 8.342 L 12.483 9.490 10.597 7.697 L 8.711 5.904 9.260 5.886 C 9.562 5.876,9.944 5.860,10.110 5.851 L 10.412 5.833 7.519 4.951 C 5.928 4.466,4.542 4.043,4.438 4.011 C 4.306 3.970,4.260 3.963,4.284 3.987 C 4.303 4.005,6.539 6.123,9.252 8.692 L 14.186 13.363 14.192 10.574 C 14.196 9.040,14.196 6.526,14.192 4.987 L 14.186 2.189 13.453 2.980 M13.932 10.291 L 13.926 12.772 9.577 8.655 C 7.185 6.390,5.232 4.533,5.237 4.528 C 5.242 4.523,6.056 4.767,7.047 5.069 C 8.081 5.384,8.836 5.626,8.820 5.637 C 8.804 5.647,8.638 5.655,8.452 5.655 C 8.265 5.655,8.116 5.664,8.121 5.675 C 8.125 5.686,9.129 6.646,10.353 7.808 C 11.576 8.971,12.617 9.960,12.666 10.006 L 12.755 10.090 12.755 7.307 L 12.755 4.523 12.467 4.640 C 12.308 4.704,12.175 4.753,12.171 4.748 C 12.166 4.744,12.560 4.312,13.044 3.788 L 13.926 2.836 13.932 5.322 C 13.935 6.690,13.935 8.926,13.932 10.291 M2.295 11.370 L 0.012 13.654 6.028 13.654 C 9.337 13.654,12.045 13.649,12.045 13.643 C 12.045 13.634,8.888 10.001,8.775 9.880 C 8.763 9.867,8.867 10.186,9.005 10.590 C 9.402 11.745,9.465 11.934,9.457 11.943 C 9.453 11.947,8.275 11.948,6.839 11.944 L 4.228 11.938 5.416 10.781 C 6.070 10.145,6.596 9.616,6.586 9.606 C 6.569 9.591,4.638 9.087,4.595 9.087 C 4.586 9.087,3.551 10.114,2.295 11.370 M5.415 9.551 C 5.801 9.650,6.120 9.734,6.123 9.736 C 6.126 9.739,5.559 10.294,4.863 10.970 L 3.597 12.199 6.701 12.205 C 8.408 12.208,9.808 12.207,9.812 12.203 C 9.817 12.198,9.730 11.930,9.619 11.608 C 9.508 11.285,9.420 11.018,9.423 11.015 C 9.427 11.013,9.902 11.553,10.479 12.215 C 11.057 12.878,11.525 13.422,11.521 13.425 C 11.516 13.427,9.059 13.426,6.060 13.422 L 0.607 13.414 2.628 11.392 C 3.740 10.280,4.664 9.371,4.681 9.371 C 4.698 9.371,5.029 9.452,5.415 9.551 " stroke="none" fill="black" fill-rule="evenodd"></path></svg>