<svg id="Layer_2" data-name="Layer 2" xmlns="http://www.w3.org/2000/svg" viewBox="0 0 14.40334594 12.9988796"><path d="M6.562 0.028 C 6.534 0.042,6.499 0.076,6.484 0.104 C 6.444 0.182,3.601 9.795,3.601 9.853 C 3.602 9.914,3.665 9.995,3.743 10.035 C 3.793 10.060,4.079 10.014,5.812 9.696 C 6.918 9.493,7.819 9.323,7.814 9.318 C 7.809 9.314,7.237 9.205,6.542 9.078 C 5.847 8.950,5.278 8.837,5.276 8.827 C 5.270 8.788,7.141 3.169,7.160 3.169 C 7.171 3.169,7.854 3.840,8.679 4.661 C 9.504 5.481,10.178 6.146,10.178 6.138 C 10.178 6.089,6.872 0.120,6.815 0.066 C 6.741 -0.003,6.654 -0.016,6.562 0.028 M7.861 2.437 C 8.492 3.585,9.036 4.574,9.069 4.633 C 9.137 4.755,9.027 4.651,7.861 3.499 C 7.278 2.923,7.230 2.881,7.150 2.881 C 6.964 2.881,7.028 2.716,5.967 5.917 C 5.288 7.966,4.996 8.875,5.007 8.915 C 5.040 9.047,5.089 9.065,5.769 9.190 C 6.123 9.256,6.417 9.313,6.422 9.318 C 6.427 9.324,5.858 9.433,5.157 9.562 C 4.456 9.691,3.879 9.793,3.876 9.789 C 3.870 9.784,6.342 1.413,6.627 0.471 C 6.654 0.380,6.685 0.315,6.696 0.327 C 6.706 0.339,7.231 1.288,7.861 2.437 M7.185 4.585 C 7.156 4.597,7.116 4.631,7.097 4.662 C 7.077 4.692,6.769 5.538,6.413 6.542 C 6.057 7.545,5.753 8.398,5.738 8.438 L 5.711 8.510 5.769 8.450 C 5.801 8.417,6.182 7.974,6.614 7.466 C 7.047 6.957,7.408 6.542,7.418 6.542 C 7.448 6.542,11.397 10.982,11.382 10.998 C 11.373 11.006,10.451 11.265,9.333 11.572 C 8.214 11.880,7.302 12.135,7.306 12.139 C 7.327 12.160,14.217 12.287,14.270 12.268 C 14.302 12.255,14.346 12.213,14.366 12.173 C 14.435 12.041,14.416 11.990,14.229 11.791 C 12.114 9.543,7.383 4.588,7.341 4.577 C 7.271 4.558,7.250 4.559,7.185 4.585 M10.698 8.432 L 14.101 12.015 13.922 12.022 C 13.742 12.030,10.469 11.969,9.507 11.940 L 8.991 11.925 10.203 11.592 C 10.869 11.409,11.462 11.242,11.519 11.220 C 11.656 11.169,11.709 11.060,11.658 10.941 C 11.628 10.872,7.637 6.371,7.540 6.296 C 7.476 6.247,7.335 6.259,7.271 6.319 C 7.239 6.349,7.036 6.581,6.820 6.836 C 6.604 7.090,6.424 7.298,6.420 7.298 C 6.410 7.298,6.452 7.178,6.899 5.921 C 7.105 5.342,7.274 4.864,7.274 4.858 C 7.274 4.853,7.279 4.849,7.285 4.849 C 7.291 4.849,8.827 6.461,10.698 8.432 M1.802 9.728 C 0.555 11.780,0.015 12.690,0.007 12.752 C -0.004 12.828,0.005 12.851,0.067 12.914 C 0.108 12.955,0.166 12.987,0.198 12.987 C 0.264 12.987,9.964 10.670,10.067 10.630 C 10.149 10.597,10.215 10.472,10.194 10.387 C 10.185 10.353,10.149 10.290,10.112 10.246 C 9.877 9.963,7.617 7.298,7.570 7.250 L 7.512 7.190 7.570 7.346 C 7.758 7.851,8.405 9.679,8.398 9.684 C 8.394 9.688,7.077 9.961,5.473 10.290 C 3.624 10.670,2.554 10.880,2.550 10.863 C 2.546 10.849,2.782 9.932,3.074 8.825 C 3.366 7.719,3.600 6.809,3.595 6.803 C 3.589 6.798,2.783 8.114,1.802 9.728 M2.593 9.661 C 2.273 10.876,2.260 10.933,2.293 11.011 C 2.315 11.064,2.355 11.104,2.406 11.126 C 2.481 11.157,2.669 11.121,5.498 10.539 C 7.155 10.198,8.529 9.911,8.553 9.902 C 8.602 9.882,8.666 9.770,8.666 9.703 C 8.666 9.677,8.568 9.384,8.448 9.051 C 8.328 8.718,8.234 8.442,8.238 8.438 C 8.242 8.434,8.622 8.873,9.081 9.415 C 9.541 9.957,9.912 10.405,9.906 10.411 C 9.892 10.424,0.303 12.722,0.295 12.713 C 0.291 12.710,0.880 11.734,1.602 10.544 C 2.325 9.354,2.918 8.384,2.922 8.387 C 2.925 8.390,2.777 8.964,2.593 9.661 " stroke="none" fill-rule="evenodd" fill="black"></path></svg>