<svg id="Layer_2" data-name="Layer 2" xmlns="http://www.w3.org/2000/svg" viewBox="0 0 14.06847306 14.48261515"><path d="M2.513 0.444 C 2.749 0.688,3.381 1.340,3.916 1.894 C 4.451 2.447,4.891 2.899,4.893 2.897 C 4.896 2.896,4.723 2.412,4.508 1.823 C 4.294 1.233,4.123 0.746,4.129 0.741 C 4.134 0.736,5.357 0.572,6.847 0.377 C 8.336 0.182,9.571 0.018,9.590 0.014 C 9.609 0.009,7.928 0.004,5.854 0.003 L 2.083 -0.000 2.513 0.444 M0.708 0.609 C 0.421 0.905,0.171 1.176,0.152 1.212 C 0.099 1.313,0.101 3.347,0.153 3.455 C 0.173 3.496,0.497 3.843,0.874 4.227 L 1.559 4.925 2.773 4.925 L 3.986 4.924 3.986 4.525 L 3.986 4.127 2.960 4.126 L 1.934 4.126 1.460 3.636 L 0.985 3.146 0.985 2.262 L 0.985 1.377 1.363 0.995 L 1.742 0.612 1.600 0.452 C 1.521 0.365,1.407 0.243,1.344 0.183 L 1.231 0.072 0.708 0.609 M4.772 0.393 C 4.230 0.465,3.784 0.526,3.780 0.529 C 3.776 0.531,3.884 0.838,4.018 1.210 L 4.264 1.888 3.737 1.348 C 3.448 1.052,3.094 0.685,2.951 0.533 L 2.691 0.258 4.224 0.260 L 5.756 0.263 4.772 0.393 M1.305 0.498 C 1.400 0.603,1.401 0.600,1.058 0.949 L 0.727 1.284 0.728 2.243 C 0.728 2.950,0.736 3.214,0.757 3.251 C 0.773 3.278,1.018 3.540,1.302 3.831 L 1.819 4.361 2.774 4.361 L 3.728 4.361 3.728 4.525 L 3.728 4.689 2.700 4.689 L 1.673 4.689 1.024 4.023 L 0.375 3.357 0.375 2.332 L 0.375 1.308 0.791 0.880 C 1.020 0.644,1.219 0.450,1.233 0.449 C 1.247 0.447,1.279 0.469,1.305 0.498 M1.290 2.140 L 1.290 2.943 1.667 3.335 L 2.044 3.728 2.826 3.728 C 3.256 3.728,3.614 3.719,3.620 3.708 C 3.627 3.698,3.626 3.330,3.618 2.891 L 3.604 2.094 3.242 1.715 L 2.880 1.337 2.085 1.337 L 1.290 1.337 1.290 2.140 M3.080 1.909 L 3.376 2.223 3.376 2.847 L 3.376 3.470 2.757 3.470 L 2.138 3.470 1.843 3.160 L 1.548 2.849 1.548 2.222 L 1.548 1.594 2.165 1.594 L 2.783 1.594 3.080 1.909 M4.056 3.790 C 4.057 4.772,4.058 4.797,4.106 4.876 C 4.133 4.921,4.944 5.749,5.908 6.717 L 7.661 8.476 7.617 8.547 C 7.593 8.585,7.574 8.651,7.574 8.694 C 7.574 8.761,7.627 8.826,8.028 9.245 C 8.777 10.025,8.751 10.005,8.962 9.961 L 9.086 9.934 9.382 10.237 C 9.545 10.403,10.364 11.250,11.202 12.119 L 12.726 13.697 12.714 13.802 L 12.702 13.907 12.982 14.187 L 13.262 14.467 13.379 14.467 L 13.497 14.467 13.769 14.191 C 14.045 13.912,14.088 13.843,14.058 13.723 C 14.040 13.652,13.600 13.192,13.499 13.139 C 13.463 13.121,13.399 13.108,13.355 13.112 C 13.281 13.118,13.251 13.092,12.800 12.626 C 12.538 12.356,11.718 11.509,10.978 10.744 L 9.633 9.354 9.660 9.239 C 9.709 9.034,9.703 9.024,9.105 8.404 C 8.489 7.766,8.461 7.747,8.295 7.829 L 8.197 7.877 8.141 7.825 C 8.110 7.796,7.410 7.091,6.586 6.257 L 5.088 4.741 5.088 4.179 L 5.088 3.617 4.602 3.223 C 4.334 3.007,4.102 2.819,4.086 2.807 C 4.062 2.789,4.056 2.989,4.056 3.790 M4.605 3.547 L 4.854 3.752 4.854 4.278 C 4.854 4.567,4.864 4.828,4.876 4.858 C 4.888 4.888,5.629 5.649,6.523 6.550 L 8.148 8.188 8.279 8.118 L 8.411 8.048 8.922 8.575 L 9.433 9.101 9.403 9.226 C 9.386 9.294,9.380 9.379,9.389 9.414 C 9.399 9.454,9.667 9.749,10.101 10.197 C 10.484 10.592,11.356 11.493,12.039 12.199 L 13.280 13.483 13.330 13.436 C 13.357 13.410,13.390 13.388,13.402 13.388 C 13.415 13.388,13.513 13.478,13.622 13.587 L 13.819 13.785 13.599 14.009 L 13.379 14.234 13.173 14.029 L 12.967 13.824 13.031 13.772 L 13.095 13.720 12.917 13.537 C 12.818 13.436,11.949 12.536,10.986 11.536 C 9.422 9.915,9.223 9.716,9.136 9.693 C 9.059 9.672,9.021 9.674,8.950 9.702 C 8.842 9.744,8.908 9.798,8.298 9.165 L 7.832 8.681 7.877 8.578 C 7.906 8.514,7.918 8.452,7.909 8.416 C 7.900 8.383,7.144 7.604,6.104 6.556 L 4.314 4.753 4.314 4.039 C 4.314 3.634,4.323 3.329,4.335 3.333 C 4.347 3.338,4.468 3.434,4.605 3.547 M0.002 7.227 L 0.004 10.798 0.057 10.516 C 0.087 10.361,0.283 9.267,0.494 8.084 C 0.704 6.900,0.885 5.932,0.896 5.932 C 0.907 5.932,1.392 6.128,1.973 6.367 C 2.554 6.607,3.033 6.799,3.036 6.795 C 3.042 6.789,2.023 5.735,0.349 4.014 L 0.000 3.656 0.002 7.227 M1.407 5.465 C 1.761 5.830,2.036 6.122,2.016 6.115 C 1.997 6.107,1.694 5.983,1.342 5.838 C 0.990 5.692,0.697 5.579,0.691 5.585 C 0.685 5.591,0.590 6.102,0.480 6.720 C 0.371 7.338,0.277 7.859,0.272 7.878 C 0.267 7.898,0.263 7.096,0.262 6.096 L 0.260 4.279 0.511 4.540 C 0.649 4.684,1.052 5.100,1.407 5.465 " stroke="none" fill-rule="evenodd" fill="black"></path></svg>