<svg id="Layer_2" xmlns="http://www.w3.org/2000/svg" viewBox="0 0 11.79 14.7008"><path d="M5.590 0.038 C 5.538 0.062,5.242 0.345,4.703 0.887 C 3.902 1.691,3.893 1.701,3.880 1.795 C 3.856 1.958,3.886 2.010,4.145 2.269 L 4.381 2.504 4.220 2.672 C 4.131 2.764,3.874 3.028,3.648 3.259 L 3.237 3.678 2.911 3.354 C 2.731 3.176,2.556 3.017,2.521 2.999 C 2.419 2.948,2.282 2.958,2.180 3.024 C 2.040 3.115,0.066 5.106,0.030 5.192 C -0.010 5.288,-0.007 5.376,0.038 5.473 C 0.090 5.583,2.143 7.631,2.244 7.673 C 2.429 7.749,2.509 7.703,2.918 7.292 C 3.101 7.107,3.259 6.956,3.268 6.956 C 3.277 6.956,4.151 7.816,5.209 8.866 L 7.134 10.776 6.682 11.229 C 6.392 11.521,6.220 11.708,6.201 11.755 C 6.160 11.851,6.163 11.939,6.208 12.036 C 6.260 12.147,8.745 14.626,8.847 14.668 C 8.943 14.708,9.031 14.706,9.127 14.660 C 9.239 14.608,11.718 12.123,11.760 12.022 C 11.800 11.923,11.798 11.838,11.751 11.742 C 11.725 11.689,11.290 11.240,10.440 10.392 C 9.288 9.242,9.158 9.119,9.080 9.098 C 8.980 9.071,8.877 9.086,8.793 9.138 C 8.761 9.158,8.553 9.356,8.332 9.578 L 7.929 9.982 7.467 9.525 C 7.213 9.274,6.344 8.410,5.535 7.606 L 4.065 6.145 4.379 5.828 C 4.552 5.654,4.703 5.487,4.715 5.457 C 4.744 5.378,4.741 5.277,4.705 5.192 C 4.687 5.148,4.551 4.995,4.359 4.801 L 4.042 4.483 4.609 3.902 C 4.921 3.582,5.181 3.321,5.187 3.321 C 5.193 3.321,5.273 3.397,5.365 3.490 C 5.457 3.583,5.560 3.671,5.595 3.686 C 5.677 3.722,5.780 3.721,5.871 3.684 C 5.970 3.642,7.492 2.125,7.546 2.013 C 7.592 1.919,7.596 1.812,7.557 1.724 C 7.522 1.642,5.924 0.048,5.850 0.021 C 5.768 -0.010,5.679 -0.004,5.590 0.038 M6.548 1.036 C 7.156 1.644,7.329 1.828,7.329 1.866 C 7.329 1.904,7.158 2.086,6.560 2.685 C 6.137 3.109,5.773 3.460,5.751 3.466 C 5.720 3.474,5.657 3.423,5.472 3.241 C 5.294 3.067,5.219 3.006,5.183 3.006 C 5.144 3.006,4.986 3.157,4.433 3.724 C 3.948 4.223,3.733 4.456,3.733 4.485 C 3.733 4.515,3.851 4.646,4.107 4.903 C 4.384 5.182,4.480 5.290,4.480 5.326 C 4.480 5.361,4.386 5.467,4.117 5.738 C 3.870 5.986,3.753 6.117,3.753 6.146 C 3.753 6.176,4.203 6.636,5.301 7.726 C 7.851 10.260,7.888 10.297,7.929 10.297 C 7.953 10.297,8.150 10.114,8.450 9.815 C 8.817 9.449,8.944 9.334,8.981 9.334 C 9.051 9.334,11.535 11.818,11.535 11.888 C 11.535 11.960,9.052 14.443,8.980 14.443 C 8.909 14.443,6.426 11.960,6.426 11.889 C 6.426 11.852,6.548 11.718,6.936 11.329 C 7.269 10.995,7.447 10.802,7.447 10.776 C 7.447 10.749,6.775 10.068,5.386 8.689 C 3.622 6.938,3.316 6.642,3.268 6.642 C 3.222 6.642,3.144 6.710,2.810 7.045 C 2.554 7.301,2.393 7.447,2.368 7.447 C 2.342 7.447,1.972 7.091,1.292 6.411 C 0.479 5.598,0.255 5.364,0.255 5.326 C 0.255 5.287,0.478 5.054,1.284 4.247 C 2.144 3.387,2.322 3.218,2.367 3.218 C 2.411 3.218,2.493 3.289,2.807 3.603 C 3.104 3.899,3.205 3.989,3.242 3.989 C 3.281 3.988,3.440 3.836,3.979 3.280 C 4.357 2.890,4.674 2.559,4.682 2.543 C 4.709 2.496,4.647 2.414,4.383 2.152 C 4.224 1.993,4.126 1.882,4.126 1.857 C 4.126 1.803,5.674 0.255,5.728 0.255 C 5.753 0.255,6.041 0.529,6.548 1.036 M5.372 1.470 C 5.198 1.640,5.046 1.796,5.035 1.817 C 5.020 1.845,5.021 1.869,5.040 1.905 C 5.083 1.987,5.688 2.574,5.729 2.574 C 5.779 2.574,6.445 1.907,6.445 1.858 C 6.445 1.836,6.311 1.685,6.117 1.490 C 5.860 1.231,5.778 1.160,5.739 1.160 C 5.701 1.161,5.608 1.240,5.372 1.470 M5.929 1.655 C 6.029 1.755,6.111 1.845,6.111 1.856 C 6.111 1.867,6.025 1.962,5.920 2.068 L 5.729 2.260 5.537 2.069 C 5.431 1.963,5.345 1.868,5.345 1.858 C 5.345 1.832,5.702 1.474,5.727 1.474 C 5.738 1.474,5.829 1.555,5.929 1.655 M1.881 4.830 C 1.539 5.173,1.434 5.289,1.434 5.327 C 1.434 5.400,2.331 6.291,2.390 6.276 C 2.450 6.260,3.321 5.380,3.321 5.335 C 3.321 5.282,2.421 4.382,2.368 4.382 C 2.341 4.382,2.174 4.536,1.881 4.830 M2.692 5.649 L 2.378 5.964 2.058 5.644 L 1.739 5.325 2.053 5.011 L 2.367 4.696 2.687 5.016 L 3.007 5.335 2.692 5.649 M8.393 11.306 C 7.908 11.791,7.837 11.870,7.847 11.911 C 7.861 11.965,8.939 13.048,8.980 13.048 C 8.995 13.048,9.258 12.798,9.564 12.493 C 10.001 12.056,10.120 11.928,10.120 11.888 C 10.120 11.849,10.003 11.722,9.574 11.293 C 9.230 10.950,9.013 10.749,8.989 10.749 C 8.965 10.749,8.745 10.954,8.393 11.306 M9.398 12.306 L 8.980 12.723 8.567 12.311 L 8.155 11.898 8.572 11.481 L 8.990 11.063 9.402 11.476 L 9.815 11.888 9.398 12.306 " stroke="none" fill-rule="evenodd" fill="black"></path></svg>