<svg id="Layer_2" xmlns="http://www.w3.org/2000/svg" viewBox="0 0 14.5672 14.5672"><path d="M3.730 3.736 C 0.855 6.610,0.119 7.359,0.131 7.396 C 0.151 7.460,7.143 14.446,7.187 14.446 C 7.207 14.446,8.849 12.819,10.837 10.832 C 13.712 7.957,14.448 7.208,14.437 7.172 C 14.416 7.107,7.425 0.121,7.380 0.121 C 7.361 0.121,5.718 1.748,3.730 3.736 M10.664 10.664 L 7.199 14.130 3.818 10.749 L 0.437 7.369 3.903 3.903 L 7.369 0.437 10.749 3.818 L 14.130 7.199 10.664 10.664 M7.199 3.178 C 7.159 3.203,6.233 4.118,5.142 5.211 C 3.769 6.588,3.154 7.220,3.143 7.267 C 3.133 7.304,3.132 7.380,3.139 7.435 C 3.152 7.530,3.252 7.635,5.066 9.450 C 6.119 10.504,7.012 11.382,7.051 11.403 C 7.099 11.428,7.161 11.437,7.242 11.429 L 7.362 11.418 9.388 9.391 C 11.311 7.469,11.415 7.360,11.428 7.265 C 11.435 7.210,11.434 7.134,11.425 7.097 C 11.413 7.050,10.820 6.440,9.498 5.115 C 8.447 4.063,7.558 3.186,7.522 3.167 C 7.430 3.118,7.285 3.123,7.199 3.178 M9.305 5.263 C 10.533 6.491,11.192 7.167,11.192 7.198 C 11.192 7.265,7.266 11.192,7.199 11.192 C 7.145 11.192,3.409 7.474,3.384 7.396 C 3.372 7.359,3.781 6.938,5.357 5.362 C 6.450 4.269,7.361 3.375,7.380 3.375 C 7.400 3.375,8.266 4.224,9.305 5.263 " stroke="none" fill-rule="evenodd" fill="black"></path></svg>