<svg id="Layer_2" xmlns="http://www.w3.org/2000/svg" viewBox="0 0 14.2931 14.2934"><path d="M3.499 3.499 C 1.581 5.410,0.017 6.979,0.024 6.985 C 0.035 6.995,2.976 6.713,3.185 6.682 C 3.279 6.668,3.368 6.583,4.970 4.955 C 5.897 4.013,6.663 3.227,6.673 3.209 C 6.683 3.191,6.756 2.497,6.836 1.666 C 6.915 0.835,6.983 0.125,6.987 0.089 C 6.992 0.053,6.993 0.024,6.991 0.024 C 6.989 0.024,5.418 1.588,3.499 3.499 M7.474 0.113 C 7.478 0.162,7.529 0.846,7.588 1.632 L 7.694 3.061 8.037 3.404 L 8.380 3.746 8.701 3.667 L 9.022 3.589 9.203 2.809 C 9.354 2.159,9.380 2.017,9.361 1.950 C 9.344 1.891,9.103 1.636,8.415 0.947 C 7.908 0.439,7.487 0.024,7.480 0.024 C 7.473 0.024,7.470 0.064,7.474 0.113 M7.221 0.113 C 7.212 0.288,6.597 6.585,6.588 6.593 C 6.582 6.599,5.117 6.745,3.331 6.917 C 0.951 7.146,0.117 7.234,0.203 7.247 C 0.268 7.256,1.721 7.362,3.430 7.483 C 5.352 7.618,6.549 7.712,6.565 7.728 C 6.581 7.744,6.676 8.965,6.810 10.863 C 7.009 13.671,7.063 14.356,7.072 14.174 C 7.080 14.024,7.694 7.710,7.702 7.703 C 7.712 7.693,14.088 7.075,14.176 7.075 C 14.424 7.075,13.782 7.025,10.970 6.823 C 9.188 6.696,7.725 6.583,7.718 6.572 C 7.711 6.562,7.606 5.151,7.484 3.438 C 7.286 0.643,7.230 -0.059,7.221 0.113 M8.972 2.693 C 8.885 3.064,8.810 3.371,8.804 3.377 C 8.799 3.382,8.720 3.406,8.628 3.429 L 8.462 3.472 8.200 3.207 L 7.937 2.942 7.863 1.918 C 7.823 1.354,7.783 0.840,7.776 0.774 L 7.762 0.655 8.446 1.337 L 9.129 2.019 8.972 2.693 M6.559 1.906 L 6.445 3.101 4.805 4.766 C 3.454 6.138,3.152 6.433,3.089 6.443 C 2.991 6.459,0.801 6.670,0.732 6.670 C 0.693 6.670,1.471 5.878,3.668 3.681 C 5.311 2.038,6.660 0.697,6.665 0.702 C 6.670 0.706,6.622 1.248,6.559 1.906 M9.337 3.065 C 9.266 3.427,9.196 3.739,9.182 3.758 C 9.165 3.781,8.916 3.841,8.479 3.929 C 8.036 4.018,7.822 4.070,7.861 4.079 C 7.894 4.087,8.199 4.149,8.540 4.217 C 8.881 4.284,9.169 4.349,9.181 4.360 C 9.192 4.371,9.263 4.684,9.338 5.055 C 9.413 5.426,9.481 5.713,9.489 5.693 C 9.496 5.674,9.558 5.379,9.625 5.038 C 9.693 4.698,9.757 4.402,9.768 4.381 C 9.783 4.353,9.945 4.312,10.355 4.230 C 10.667 4.168,10.976 4.106,11.041 4.091 C 11.160 4.066,11.157 4.065,10.486 3.930 C 10.104 3.853,9.797 3.780,9.780 3.761 C 9.763 3.743,9.693 3.439,9.624 3.085 C 9.555 2.731,9.491 2.434,9.483 2.424 C 9.474 2.415,9.409 2.703,9.337 3.065 M7.469 6.735 C 7.475 6.764,7.499 6.797,7.522 6.809 C 7.545 6.821,8.370 6.888,9.356 6.958 C 10.342 7.029,11.149 7.092,11.149 7.099 C 11.149 7.106,10.331 7.190,9.332 7.286 C 8.182 7.396,7.505 7.470,7.486 7.488 C 7.467 7.507,7.400 8.111,7.289 9.279 C 7.197 10.248,7.114 11.072,7.104 11.110 C 7.094 11.151,7.034 10.436,6.959 9.371 C 6.888 8.377,6.821 7.545,6.809 7.522 C 6.798 7.499,6.764 7.476,6.735 7.470 C 6.706 7.464,5.871 7.402,4.879 7.333 C 3.887 7.264,3.079 7.204,3.084 7.200 C 3.088 7.195,3.921 7.112,4.934 7.014 C 6.135 6.897,6.787 6.825,6.806 6.806 C 6.825 6.787,6.894 6.157,7.005 4.991 C 7.099 4.008,7.181 3.188,7.188 3.168 C 7.196 3.149,7.259 3.931,7.329 4.907 C 7.399 5.883,7.462 6.706,7.469 6.735 M9.512 3.784 C 9.534 3.893,9.639 3.998,9.763 4.035 L 9.874 4.068 9.769 4.096 C 9.644 4.131,9.534 4.233,9.513 4.335 C 9.493 4.439,9.465 4.444,9.447 4.348 C 9.426 4.236,9.311 4.127,9.177 4.093 L 9.068 4.066 9.179 4.038 C 9.340 3.997,9.457 3.871,9.457 3.740 C 9.457 3.670,9.496 3.701,9.512 3.784 M10.701 4.346 C 10.291 4.442,9.952 4.524,9.947 4.529 C 9.943 4.534,9.905 4.677,9.864 4.847 L 9.789 5.156 10.499 5.866 C 10.889 6.257,11.232 6.583,11.262 6.590 C 11.331 6.608,14.254 6.831,14.268 6.819 C 14.274 6.815,13.685 6.216,12.958 5.490 C 11.645 4.178,11.635 4.169,11.541 4.171 C 11.489 4.172,11.111 4.251,10.701 4.346 M13.617 6.520 C 13.613 6.524,13.097 6.489,12.469 6.441 L 11.327 6.356 10.700 5.733 L 10.073 5.110 10.086 5.014 C 10.092 4.962,10.112 4.876,10.129 4.824 L 10.160 4.729 10.839 4.571 L 11.518 4.413 12.571 5.463 C 13.150 6.041,13.621 6.516,13.617 6.520 M12.614 7.458 C 11.828 7.535,11.158 7.604,11.125 7.612 C 11.053 7.629,7.662 11.008,7.623 11.101 C 7.603 11.150,7.287 14.242,7.300 14.262 C 7.302 14.265,8.868 12.703,10.780 10.790 L 14.257 7.313 14.150 7.316 C 14.091 7.317,13.400 7.381,12.614 7.458 M0.965 8.433 C 1.861 9.328,1.924 9.386,2.003 9.386 C 2.090 9.386,2.994 9.191,3.106 9.148 C 3.141 9.135,3.179 9.100,3.192 9.071 C 3.232 8.978,3.407 8.198,3.405 8.117 C 3.405 8.056,3.372 8.005,3.245 7.868 L 3.085 7.697 1.618 7.588 C 0.811 7.529,0.120 7.480,0.081 7.480 C 0.019 7.480,0.114 7.582,0.965 8.433 M10.626 10.612 C 8.982 12.255,7.633 13.596,7.628 13.591 C 7.623 13.586,7.670 13.046,7.734 12.390 L 7.848 11.197 9.522 9.523 L 11.196 7.849 12.310 7.739 C 12.922 7.679,13.466 7.628,13.519 7.626 C 13.614 7.623,13.597 7.640,10.626 10.612 M1.930 7.863 L 2.966 7.936 3.055 8.036 C 3.104 8.090,3.144 8.153,3.144 8.176 C 3.144 8.198,3.106 8.377,3.059 8.573 L 2.974 8.930 2.744 8.982 C 2.617 9.010,2.406 9.058,2.275 9.089 L 2.037 9.145 1.346 8.453 L 0.655 7.762 0.774 7.776 C 0.840 7.783,1.360 7.822,1.930 7.863 M3.638 7.968 C 3.630 7.995,3.568 8.298,3.499 8.644 C 3.431 8.989,3.362 9.284,3.345 9.301 C 3.329 9.317,3.033 9.386,2.688 9.454 C 2.343 9.523,2.045 9.585,2.025 9.593 C 2.005 9.600,2.293 9.668,2.665 9.743 C 3.036 9.819,3.349 9.893,3.359 9.909 C 3.369 9.926,3.432 10.219,3.500 10.562 C 3.568 10.904,3.630 11.206,3.638 11.232 C 3.647 11.260,3.710 10.996,3.789 10.605 C 3.865 10.223,3.939 9.916,3.957 9.899 C 3.975 9.882,4.282 9.811,4.639 9.741 C 4.996 9.671,5.288 9.607,5.288 9.600 C 5.288 9.593,4.996 9.530,4.639 9.459 C 4.282 9.389,3.975 9.318,3.957 9.301 C 3.939 9.284,3.865 8.977,3.789 8.596 C 3.710 8.204,3.647 7.941,3.638 7.968 M3.791 9.492 C 3.832 9.527,3.897 9.561,3.934 9.569 C 4.018 9.585,4.048 9.624,3.978 9.624 C 3.852 9.624,3.728 9.735,3.681 9.890 L 3.651 9.993 3.622 9.888 C 3.587 9.761,3.482 9.655,3.369 9.634 C 3.264 9.614,3.265 9.586,3.370 9.566 C 3.478 9.546,3.589 9.432,3.623 9.307 L 3.651 9.207 3.684 9.318 C 3.704 9.387,3.745 9.454,3.791 9.492 M4.621 9.942 L 4.109 10.066 3.969 10.681 L 3.829 11.297 5.315 12.783 C 6.132 13.600,6.807 14.269,6.814 14.269 C 6.821 14.269,6.776 13.602,6.713 12.786 C 6.651 11.971,6.600 11.288,6.600 11.269 C 6.598 11.228,5.194 9.814,5.158 9.816 C 5.145 9.817,4.903 9.874,4.621 9.942 M6.428 12.394 C 6.471 12.986,6.512 13.509,6.519 13.555 C 6.531 13.630,6.414 13.520,5.319 12.427 L 4.105 11.216 4.211 10.748 C 4.270 10.490,4.320 10.277,4.322 10.274 C 4.324 10.271,4.502 10.227,4.718 10.176 L 5.110 10.083 5.730 10.700 L 6.350 11.317 6.428 12.394 " stroke="none" fill-rule="evenodd" fill="black"></path></svg>