<svg id="Layer_2" xmlns="http://www.w3.org/2000/svg" viewBox="0 0 14.65 14.65"><path d="M7.243 0.031 C 7.212 0.053,7.065 0.590,6.713 1.960 C 6.445 3.004,6.226 3.891,6.226 3.931 C 6.226 4.005,6.280 4.053,6.365 4.053 C 6.389 4.053,6.611 3.852,6.867 3.596 L 7.324 3.139 7.796 3.608 C 8.056 3.866,8.275 4.078,8.284 4.078 C 8.335 4.078,8.427 4.013,8.437 3.970 C 8.456 3.887,7.457 0.068,7.407 0.031 C 7.353 -0.008,7.297 -0.008,7.243 0.031 M7.702 2.045 C 7.902 2.820,8.071 3.477,8.077 3.504 C 8.083 3.531,7.931 3.397,7.737 3.205 C 7.475 2.945,7.370 2.857,7.325 2.857 C 7.280 2.857,7.175 2.945,6.913 3.205 C 6.720 3.396,6.567 3.536,6.573 3.516 C 6.579 3.496,6.748 2.839,6.949 2.057 C 7.149 1.275,7.318 0.635,7.325 0.635 C 7.332 0.635,7.502 1.269,7.702 2.045 M5.769 5.769 L 4.322 7.216 4.322 7.325 L 4.322 7.433 5.744 8.859 C 6.573 9.690,7.199 10.299,7.246 10.319 C 7.314 10.349,7.336 10.349,7.404 10.319 C 7.451 10.299,8.077 9.690,8.906 8.859 L 10.328 7.433 10.328 7.325 L 10.328 7.216 8.881 5.769 L 7.434 4.322 7.325 4.322 L 7.216 4.322 5.769 5.769 M8.703 5.956 L 10.069 7.322 8.704 8.697 C 7.953 9.453,7.332 10.072,7.324 10.072 C 7.316 10.072,6.696 9.453,5.946 8.697 L 4.581 7.322 5.947 5.956 C 6.698 5.205,7.318 4.590,7.325 4.590 C 7.332 4.590,7.952 5.205,8.703 5.956 M6.355 6.355 L 5.494 7.217 5.494 7.325 L 5.494 7.433 6.355 8.295 L 7.217 9.156 7.325 9.156 L 7.433 9.156 8.295 8.295 L 9.156 7.433 9.156 7.325 L 9.156 7.217 8.295 6.355 L 7.433 5.494 7.325 5.494 L 7.217 5.494 6.355 6.355 M8.119 6.544 L 8.900 7.325 8.112 8.112 L 7.325 8.900 6.538 8.112 L 5.750 7.325 6.531 6.544 C 6.961 6.114,7.318 5.762,7.325 5.762 C 7.332 5.762,7.689 6.114,8.119 6.544 M6.734 6.732 C 6.324 7.141,6.202 7.276,6.202 7.324 C 6.202 7.411,7.238 8.448,7.325 8.448 C 7.370 8.448,7.513 8.320,7.916 7.916 C 8.320 7.513,8.448 7.370,8.448 7.325 C 8.448 7.239,7.411 6.202,7.326 6.202 C 7.281 6.202,7.134 6.334,6.734 6.732 M1.946 6.716 C 0.914 6.982,0.055 7.212,0.035 7.228 C -0.020 7.274,-0.009 7.392,0.055 7.431 C 0.085 7.450,0.977 7.688,2.036 7.961 L 3.962 8.458 4.020 8.391 C 4.052 8.354,4.078 8.311,4.078 8.296 C 4.078 8.280,3.866 8.056,3.608 7.796 L 3.139 7.324 3.596 6.867 C 3.852 6.611,4.053 6.389,4.053 6.365 C 4.053 6.271,4.006 6.226,3.912 6.229 C 3.862 6.231,2.977 6.449,1.946 6.716 M10.622 6.273 C 10.608 6.299,10.597 6.341,10.597 6.365 C 10.597 6.389,10.798 6.611,11.054 6.867 L 11.511 7.324 11.042 7.796 C 10.784 8.056,10.572 8.280,10.572 8.296 C 10.572 8.311,10.598 8.354,10.630 8.390 L 10.688 8.457 12.614 7.961 C 13.673 7.688,14.565 7.450,14.595 7.431 C 14.659 7.392,14.670 7.274,14.615 7.229 C 14.572 7.193,10.812 6.226,10.716 6.226 C 10.673 6.226,10.638 6.244,10.622 6.273 M7.740 6.922 L 8.143 7.325 7.734 7.734 L 7.325 8.143 6.916 7.734 L 6.507 7.325 6.910 6.922 C 7.131 6.701,7.318 6.519,7.325 6.519 C 7.332 6.519,7.519 6.701,7.740 6.922 M3.204 6.916 C 2.943 7.179,2.857 7.280,2.857 7.326 C 2.857 7.372,2.941 7.471,3.198 7.727 C 3.385 7.914,3.535 8.071,3.530 8.076 C 3.517 8.089,0.635 7.343,0.635 7.327 C 0.635 7.315,3.460 6.576,3.528 6.570 C 3.541 6.569,3.396 6.725,3.204 6.916 M12.593 6.949 C 13.375 7.149,14.015 7.319,14.015 7.327 C 14.015 7.343,11.133 8.089,11.120 8.076 C 11.115 8.071,11.265 7.914,11.452 7.727 C 11.709 7.471,11.793 7.372,11.793 7.326 C 11.793 7.280,11.706 7.177,11.445 6.913 C 11.254 6.720,11.114 6.567,11.134 6.573 C 11.154 6.579,11.811 6.748,12.593 6.949 M7.796 11.042 L 7.324 11.511 6.867 11.054 C 6.611 10.798,6.389 10.597,6.365 10.597 C 6.280 10.597,6.226 10.645,6.226 10.719 C 6.226 10.819,7.191 14.569,7.228 14.614 C 7.266 14.660,7.384 14.660,7.422 14.614 C 7.465 14.562,8.451 10.741,8.437 10.680 C 8.427 10.637,8.335 10.572,8.284 10.572 C 8.275 10.572,8.056 10.784,7.796 11.042 M7.325 11.793 C 7.370 11.793,7.475 11.705,7.737 11.445 C 7.931 11.253,8.083 11.119,8.077 11.146 C 8.021 11.399,7.335 14.015,7.325 14.015 C 7.318 14.015,7.149 13.375,6.949 12.593 C 6.748 11.811,6.579 11.154,6.573 11.134 C 6.567 11.114,6.720 11.254,6.913 11.445 C 7.175 11.705,7.280 11.793,7.325 11.793 " stroke="none" fill-rule="evenodd" fill="black"></path></svg>