<svg id="Layer_2" xmlns="http://www.w3.org/2000/svg" viewBox="0 0 14.1795 14.1795"><path d="M7.019 0.035 C 7.001 0.058,6.883 1.167,6.688 3.162 C 6.522 4.863,6.374 6.277,6.360 6.305 C 6.345 6.333,6.293 6.366,6.245 6.380 C 6.196 6.393,4.786 6.537,3.110 6.700 C 1.317 6.873,0.051 7.006,0.032 7.022 C -0.010 7.057,-0.009 7.124,0.035 7.160 C 0.058 7.179,1.167 7.297,3.160 7.492 C 4.860 7.658,6.270 7.802,6.293 7.811 C 6.316 7.820,6.346 7.850,6.361 7.876 C 6.375 7.903,6.522 9.316,6.688 11.017 C 6.883 13.013,7.001 14.122,7.019 14.145 C 7.056 14.189,7.123 14.189,7.160 14.144 C 7.179 14.122,7.296 13.017,7.491 11.017 C 7.657 9.317,7.804 7.903,7.819 7.877 C 7.833 7.850,7.864 7.820,7.887 7.811 C 7.910 7.802,9.319 7.658,11.019 7.492 C 13.012 7.297,14.122 7.179,14.145 7.160 C 14.188 7.124,14.190 7.057,14.147 7.022 C 14.128 7.006,12.860 6.873,11.069 6.700 C 9.394 6.537,7.984 6.393,7.935 6.380 C 7.886 6.366,7.835 6.333,7.820 6.305 C 7.805 6.277,7.657 4.862,7.491 3.162 C 7.296 1.161,7.179 0.058,7.160 0.035 C 7.123 -0.010,7.056 -0.010,7.019 0.035 M5.707 0.156 C 4.772 0.300,3.855 0.656,3.068 1.180 C 2.638 1.467,2.406 1.657,2.042 2.019 C 1.014 3.045,0.379 4.308,0.168 5.747 C 0.134 5.983,0.127 6.092,0.144 6.152 C 0.172 6.256,0.294 6.376,0.388 6.394 C 0.428 6.401,0.809 6.404,1.234 6.400 L 2.006 6.393 2.089 6.312 C 2.159 6.244,2.179 6.199,2.221 6.017 C 2.320 5.581,2.525 5.220,2.868 4.877 C 3.492 4.253,4.541 3.835,5.790 3.712 C 5.939 3.697,6.107 3.679,6.162 3.672 L 6.263 3.660 6.263 3.094 L 6.263 2.529 6.209 2.529 C 6.070 2.530,5.492 2.606,5.237 2.658 C 4.886 2.729,4.604 2.810,4.280 2.932 C 4.144 2.983,4.028 3.025,4.022 3.025 C 4.003 3.025,4.188 2.897,4.337 2.807 C 4.842 2.502,5.434 2.286,6.007 2.196 C 6.215 2.164,6.314 2.113,6.381 2.003 C 6.425 1.930,6.428 1.883,6.428 1.158 C 6.428 0.301,6.424 0.278,6.265 0.172 C 6.170 0.109,6.037 0.105,5.707 0.156 M7.952 0.160 C 7.779 0.272,7.788 0.224,7.780 1.114 C 7.773 2.002,7.775 2.021,7.923 2.118 C 7.965 2.146,8.077 2.186,8.171 2.206 C 8.615 2.303,9.038 2.553,9.374 2.916 C 9.952 3.541,10.351 4.579,10.468 5.766 C 10.483 5.916,10.500 6.083,10.507 6.139 L 10.519 6.239 11.085 6.239 L 11.651 6.239 11.651 6.162 C 11.650 6.054,11.609 5.700,11.566 5.435 C 11.504 5.054,11.352 4.509,11.205 4.142 C 11.178 4.073,11.161 4.018,11.167 4.018 C 11.192 4.018,11.439 4.423,11.552 4.647 C 11.760 5.062,11.915 5.544,11.980 5.971 C 12.012 6.189,12.031 6.235,12.123 6.322 L 12.197 6.393 12.992 6.399 C 13.536 6.404,13.807 6.398,13.851 6.380 C 13.885 6.366,13.944 6.322,13.981 6.284 C 14.075 6.186,14.081 6.014,14.005 5.577 C 13.889 4.908,13.722 4.399,13.412 3.769 C 12.695 2.311,11.476 1.177,9.961 0.559 C 9.441 0.346,8.681 0.157,8.233 0.128 C 8.052 0.117,8.014 0.121,7.952 0.160 M6.140 0.383 C 6.161 0.404,6.168 0.607,6.168 1.150 C 6.168 1.985,6.185 1.920,5.967 1.949 C 5.753 1.979,5.262 2.106,5.034 2.191 C 4.008 2.573,3.089 3.345,2.563 4.266 L 2.496 4.384 2.699 4.190 C 3.371 3.552,4.271 3.107,5.317 2.897 C 5.480 2.865,5.701 2.829,5.808 2.818 L 6.004 2.798 5.997 3.118 L 5.991 3.438 5.707 3.467 C 4.693 3.572,3.731 3.901,3.072 4.368 C 2.735 4.607,2.395 4.983,2.214 5.317 C 2.119 5.493,1.999 5.823,1.974 5.979 C 1.942 6.176,1.977 6.168,1.168 6.168 C 0.334 6.168,0.365 6.177,0.391 5.958 C 0.522 4.839,0.945 3.785,1.632 2.860 C 1.878 2.529,2.445 1.947,2.759 1.703 C 3.655 1.006,4.667 0.567,5.755 0.402 C 6.107 0.348,6.105 0.348,6.140 0.383 M8.638 0.440 C 9.908 0.664,11.045 1.262,11.982 2.198 C 12.995 3.209,13.626 4.497,13.800 5.908 C 13.834 6.184,13.882 6.168,13.033 6.168 C 12.213 6.168,12.259 6.181,12.231 5.944 C 12.183 5.541,11.972 4.903,11.737 4.455 C 11.334 3.685,10.656 2.971,9.930 2.554 L 9.799 2.479 9.975 2.663 C 10.530 3.245,10.967 4.048,11.189 4.896 C 11.271 5.210,11.358 5.682,11.371 5.884 L 11.378 5.991 11.067 5.997 L 10.756 6.004 10.743 5.903 C 10.628 4.966,10.503 4.442,10.255 3.856 C 9.829 2.846,9.135 2.185,8.281 1.973 C 8.156 1.942,8.047 1.910,8.038 1.902 C 8.030 1.894,8.020 1.567,8.016 1.177 C 8.008 0.344,8.008 0.347,8.195 0.369 C 8.256 0.376,8.456 0.408,8.638 0.440 M7.322 4.044 C 7.449 5.354,7.554 6.323,7.572 6.366 C 7.612 6.460,7.719 6.568,7.813 6.607 C 7.855 6.625,8.830 6.729,10.117 6.854 C 11.344 6.972,12.367 7.077,12.391 7.086 C 12.414 7.095,11.409 7.202,10.157 7.323 C 8.906 7.445,7.850 7.558,7.811 7.574 C 7.719 7.612,7.611 7.720,7.572 7.814 C 7.553 7.857,7.450 8.819,7.322 10.136 C 7.201 11.372,7.097 12.383,7.090 12.383 C 7.083 12.383,6.978 11.372,6.858 10.135 C 6.731 8.837,6.625 7.855,6.607 7.813 C 6.568 7.720,6.460 7.611,6.369 7.574 C 6.330 7.558,5.274 7.445,4.022 7.323 C 2.771 7.202,1.766 7.095,1.789 7.086 C 1.812 7.077,2.836 6.972,4.063 6.854 C 5.349 6.729,6.325 6.625,6.367 6.607 C 6.460 6.568,6.568 6.460,6.607 6.367 C 6.625 6.324,6.731 5.343,6.858 4.045 C 6.978 2.808,7.083 1.796,7.090 1.796 C 7.097 1.796,7.201 2.808,7.322 4.044 M0.308 7.804 C 0.171 7.897,0.131 7.972,0.136 8.126 C 0.140 8.295,0.216 8.746,0.293 9.063 C 0.509 9.949,0.964 10.868,1.551 11.604 C 1.757 11.862,2.318 12.423,2.576 12.629 C 3.463 13.337,4.518 13.806,5.636 13.991 C 6.125 14.071,6.271 14.047,6.381 13.867 C 6.425 13.794,6.428 13.746,6.428 13.010 C 6.428 12.027,6.442 12.061,5.999 11.949 C 5.268 11.764,4.692 11.254,4.283 10.434 C 3.960 9.784,3.796 9.126,3.698 8.076 L 3.683 7.917 3.114 7.917 L 2.546 7.917 2.562 8.159 C 2.601 8.722,2.756 9.403,2.966 9.940 C 3.011 10.054,3.044 10.150,3.040 10.154 C 3.022 10.173,2.748 9.719,2.624 9.465 C 2.445 9.099,2.329 8.747,2.254 8.345 C 2.188 7.990,2.148 7.886,2.048 7.812 C 1.984 7.765,1.949 7.763,1.185 7.756 C 0.388 7.750,0.388 7.750,0.308 7.804 M12.183 7.795 C 12.065 7.868,12.032 7.923,11.981 8.128 C 11.854 8.635,11.650 8.988,11.279 9.337 C 10.639 9.942,9.622 10.330,8.337 10.461 L 7.941 10.502 7.941 11.065 L 7.941 11.627 8.046 11.627 C 8.193 11.627,8.661 11.565,8.957 11.506 C 9.241 11.449,9.709 11.312,9.983 11.206 C 10.087 11.165,10.174 11.135,10.178 11.139 C 10.193 11.154,9.785 11.407,9.560 11.521 C 9.135 11.737,8.747 11.865,8.240 11.956 C 7.961 12.007,7.891 12.040,7.821 12.154 C 7.778 12.225,7.775 12.278,7.775 13.006 C 7.775 13.872,7.779 13.898,7.932 13.993 C 8.035 14.056,8.173 14.056,8.547 13.992 C 9.289 13.864,9.902 13.659,10.558 13.317 C 12.142 12.491,13.345 11.021,13.838 9.308 C 13.970 8.850,14.043 8.456,14.046 8.185 C 14.049 7.960,14.046 7.941,13.990 7.881 C 13.876 7.756,13.842 7.751,13.016 7.752 C 12.315 7.752,12.248 7.755,12.183 7.795 M1.942 8.082 C 1.951 8.115,1.981 8.264,2.008 8.413 C 2.139 9.128,2.508 9.919,2.977 10.493 C 3.340 10.936,3.827 11.353,4.289 11.616 L 4.407 11.683 4.217 11.484 C 3.872 11.122,3.623 10.756,3.380 10.250 C 3.076 9.620,2.936 9.118,2.823 8.265 L 2.812 8.177 3.131 8.177 C 3.307 8.177,3.450 8.185,3.450 8.195 C 3.450 8.292,3.537 8.874,3.593 9.151 C 3.728 9.825,4.014 10.552,4.329 11.024 C 4.480 11.250,4.816 11.607,5.031 11.771 C 5.233 11.924,5.607 12.104,5.861 12.171 C 5.971 12.200,6.086 12.233,6.115 12.244 L 6.168 12.264 6.168 13.006 C 6.168 13.637,6.163 13.753,6.133 13.778 C 6.104 13.801,6.040 13.799,5.808 13.766 C 3.411 13.425,1.398 11.725,0.653 9.412 C 0.494 8.918,0.347 8.113,0.403 8.045 C 0.427 8.016,0.545 8.012,1.178 8.017 L 1.925 8.023 1.942 8.082 M13.799 8.044 C 13.828 8.079,13.793 8.380,13.716 8.768 C 13.587 9.418,13.300 10.150,12.944 10.741 C 11.952 12.384,10.296 13.487,8.402 13.766 C 8.110 13.809,8.047 13.802,8.026 13.725 C 8.019 13.695,8.012 13.366,8.012 12.992 C 8.011 12.344,8.014 12.310,8.059 12.265 C 8.085 12.239,8.135 12.218,8.171 12.218 C 8.382 12.216,9.054 12.026,9.442 11.858 C 10.324 11.474,11.164 10.722,11.638 9.890 L 11.706 9.772 11.507 9.961 C 10.714 10.717,9.600 11.205,8.325 11.354 L 8.200 11.369 8.200 11.049 C 8.200 10.873,8.209 10.729,8.219 10.729 C 8.319 10.729,8.900 10.642,9.181 10.585 C 10.849 10.245,11.971 9.368,12.219 8.212 C 12.236 8.134,12.260 8.057,12.272 8.041 C 12.307 7.995,13.761 7.999,13.799 8.044 " stroke="none" fill-rule="evenodd" fill="black"></path></svg>