<svg id="Layer_2" xmlns="http://www.w3.org/2000/svg" viewBox="0 0 14.7768 13.4171"><path d="M7.228 0.047 C 7.188 0.073,6.085 1.164,4.778 2.473 L 2.401 4.852 3.744 4.852 C 4.566 4.852,5.119 4.842,5.172 4.827 C 5.238 4.808,5.503 4.557,6.323 3.737 L 7.388 2.672 8.454 3.737 C 9.274 4.557,9.539 4.808,9.605 4.827 C 9.657 4.842,10.211 4.852,11.033 4.852 L 12.375 4.852 9.987 2.461 C 8.673 1.146,7.568 0.055,7.531 0.035 C 7.439 -0.013,7.316 -0.009,7.228 0.047 M9.586 2.407 C 10.775 3.596,11.748 4.577,11.748 4.588 C 11.748 4.598,11.277 4.604,10.701 4.600 L 9.655 4.593 8.539 3.479 C 7.926 2.866,7.408 2.364,7.388 2.364 C 7.369 2.364,6.851 2.866,6.237 3.479 L 5.122 4.593 4.076 4.600 C 3.500 4.604,3.029 4.598,3.029 4.588 C 3.029 4.551,7.352 0.246,7.388 0.246 C 7.408 0.246,8.397 1.219,9.586 2.407 M7.204 4.061 C 7.163 4.087,6.642 4.597,6.046 5.194 L 4.963 6.280 3.891 6.280 L 2.819 6.280 2.290 5.748 C 1.992 5.449,1.725 5.200,1.678 5.180 C 1.622 5.156,1.561 5.149,1.493 5.161 C 1.401 5.176,1.331 5.237,0.720 5.846 C 0.002 6.559,-0.025 6.594,0.011 6.789 C 0.026 6.871,0.114 6.969,0.697 7.555 C 1.159 8.019,1.391 8.234,1.448 8.253 C 1.633 8.314,1.669 8.289,2.254 7.707 L 2.797 7.167 3.892 7.167 L 4.986 7.167 6.095 8.273 C 7.293 9.468,7.280 9.458,7.481 9.404 C 7.557 9.384,7.771 9.181,8.682 8.273 L 9.790 7.167 10.886 7.167 L 11.982 7.167 12.511 7.696 C 12.867 8.053,13.067 8.235,13.122 8.253 C 13.311 8.315,13.332 8.300,14.057 7.577 C 14.775 6.863,14.801 6.827,14.766 6.633 C 14.751 6.551,14.664 6.454,14.104 5.889 C 13.413 5.194,13.327 5.128,13.155 5.159 C 13.079 5.173,12.977 5.264,12.510 5.728 L 11.956 6.280 10.885 6.280 L 9.814 6.280 8.718 5.183 C 8.115 4.579,7.592 4.069,7.556 4.050 C 7.462 4.000,7.292 4.005,7.204 4.061 M8.583 5.394 L 9.716 6.526 10.884 6.526 L 12.052 6.526 12.624 5.958 L 13.196 5.390 13.266 5.427 C 13.377 5.486,14.531 6.657,14.531 6.712 C 14.531 6.767,13.281 8.029,13.226 8.029 C 13.207 8.029,12.941 7.779,12.635 7.475 L 12.079 6.920 10.885 6.920 L 9.692 6.920 8.570 8.041 C 7.702 8.908,7.435 9.162,7.388 9.162 C 7.342 9.162,7.075 8.908,6.207 8.041 L 5.085 6.920 3.892 6.920 L 2.698 6.920 2.142 7.475 C 1.836 7.779,1.570 8.029,1.551 8.029 C 1.496 8.029,0.246 6.767,0.246 6.712 C 0.246 6.657,1.399 5.486,1.511 5.427 L 1.581 5.390 2.153 5.958 L 2.725 6.526 3.893 6.526 L 5.060 6.526 6.194 5.394 C 7.072 4.516,7.342 4.261,7.388 4.261 C 7.435 4.261,7.705 4.516,8.583 5.394 M6.643 5.979 C 6.224 6.399,5.960 6.682,5.960 6.711 C 5.960 6.768,7.332 8.152,7.388 8.152 C 7.446 8.152,8.817 6.770,8.817 6.711 C 8.817 6.679,8.576 6.420,8.133 5.978 C 7.600 5.446,7.436 5.295,7.388 5.295 C 7.339 5.295,7.176 5.445,6.643 5.979 M7.955 6.153 C 8.253 6.442,8.497 6.691,8.497 6.707 C 8.497 6.723,8.246 6.985,7.940 7.290 L 7.384 7.844 6.833 7.278 L 6.281 6.711 6.828 6.163 C 7.129 5.862,7.384 5.618,7.394 5.621 C 7.404 5.625,7.656 5.864,7.955 6.153 M4.827 10.996 L 7.229 13.398 7.388 13.398 L 7.548 13.398 9.949 10.996 L 12.351 8.595 10.976 8.595 C 10.022 8.595,9.585 8.603,9.548 8.622 C 9.518 8.637,9.020 9.122,8.441 9.700 L 7.388 10.750 6.336 9.700 C 5.756 9.122,5.258 8.637,5.229 8.622 C 5.192 8.603,4.755 8.595,3.800 8.595 L 2.426 8.595 4.827 10.996 M6.243 9.950 C 6.854 10.559,7.369 11.058,7.388 11.058 C 7.408 11.058,7.923 10.559,8.533 9.950 L 9.643 8.841 10.701 8.841 L 11.760 8.841 9.593 11.009 C 8.401 12.201,7.409 13.176,7.388 13.176 C 7.368 13.176,6.376 12.201,5.184 11.009 L 3.017 8.841 4.076 8.841 L 5.134 8.841 6.243 9.950 " stroke="none" fill-rule="evenodd" fill="black"></path></svg>