<svg id="Layer_2" data-name="Layer 2" xmlns="http://www.w3.org/2000/svg" viewBox="0 0 10.7483 14.3374"><path d="M5.302 0.012 C 5.288 0.018,4.835 0.272,4.296 0.576 L 3.316 1.129 2.482 1.129 L 1.648 1.129 1.648 1.601 L 1.648 2.074 0.990 2.445 C 0.091 2.953,0.064 2.969,0.028 3.030 C -0.002 3.081,-0.001 3.246,0.044 6.553 C 0.070 8.461,0.095 10.058,0.101 10.101 C 0.108 10.160,0.127 10.197,0.176 10.247 C 0.227 10.299,4.913 14.036,5.220 14.269 C 5.275 14.310,5.309 14.322,5.374 14.322 C 5.439 14.322,5.473 14.310,5.528 14.269 C 5.835 14.036,10.521 10.299,10.572 10.247 C 10.621 10.197,10.640 10.160,10.648 10.101 C 10.653 10.058,10.678 8.461,10.704 6.553 C 10.749 3.245,10.750 3.081,10.720 3.030 C 10.684 2.969,10.658 2.953,9.759 2.445 L 9.100 2.074 9.100 1.601 L 9.100 1.129 8.266 1.129 L 7.431 1.129 6.444 0.571 C 5.481 0.027,5.382 -0.021,5.302 0.012 M6.307 0.781 C 6.824 1.073,7.278 1.327,7.318 1.345 C 7.384 1.376,7.446 1.379,8.110 1.379 L 8.831 1.379 8.836 1.822 L 8.840 2.266 8.904 2.276 C 8.956 2.284,10.365 3.063,10.467 3.140 C 10.494 3.160,10.493 3.415,10.451 6.530 C 10.426 8.382,10.402 9.940,10.397 9.991 L 10.388 10.085 7.899 12.065 C 6.531 13.154,5.400 14.049,5.386 14.055 C 5.371 14.061,4.393 13.295,2.891 12.100 C 1.533 11.019,0.405 10.120,0.385 10.101 C 0.351 10.068,0.349 10.001,0.301 6.615 C 0.274 4.716,0.258 3.156,0.265 3.149 C 0.272 3.142,0.628 2.938,1.057 2.696 C 1.486 2.453,1.854 2.243,1.876 2.229 C 1.916 2.203,1.917 2.198,1.917 1.791 L 1.917 1.379 2.642 1.379 L 3.366 1.379 3.515 1.300 C 3.633 1.237,5.361 0.260,5.367 0.253 C 5.367 0.252,5.791 0.490,6.307 0.781 M5.276 0.657 C 5.246 0.672,4.822 0.910,4.334 1.184 L 3.446 1.684 2.825 1.684 L 2.203 1.684 2.203 2.038 L 2.203 2.391 1.412 2.839 C 0.907 3.125,0.608 3.305,0.585 3.337 L 0.548 3.386 0.589 6.158 C 0.612 7.683,0.636 9.150,0.642 9.418 L 0.654 9.906 0.726 9.976 C 0.878 10.126,5.273 13.613,5.323 13.624 C 5.351 13.630,5.397 13.630,5.425 13.624 C 5.456 13.617,6.441 12.844,7.874 11.701 L 10.271 9.790 10.184 9.784 L 10.098 9.779 10.109 9.283 C 10.115 9.010,10.138 7.572,10.160 6.087 L 10.200 3.386 10.164 3.337 C 10.140 3.305,9.842 3.126,9.336 2.839 L 8.545 2.391 8.545 2.038 L 8.545 1.684 7.924 1.684 L 7.302 1.684 6.414 1.184 C 5.926 0.910,5.501 0.672,5.469 0.656 C 5.398 0.620,5.345 0.620,5.276 0.657 M6.275 1.392 C 6.759 1.664,7.183 1.898,7.218 1.910 C 7.264 1.927,7.426 1.933,7.788 1.934 L 8.294 1.935 8.294 2.235 L 8.294 2.536 9.114 2.999 C 9.564 3.254,9.936 3.465,9.940 3.468 C 9.945 3.472,9.852 9.805,9.846 9.810 C 9.681 9.955,5.392 13.353,5.374 13.353 C 5.356 13.353,1.154 10.024,0.902 9.810 C 0.896 9.805,0.803 3.473,0.809 3.468 C 0.812 3.465,1.184 3.254,1.635 2.999 L 2.454 2.536 2.454 2.235 L 2.454 1.935 2.951 1.935 C 3.225 1.935,3.477 1.927,3.511 1.917 C 3.546 1.907,3.973 1.674,4.461 1.398 C 4.948 1.123,5.358 0.897,5.371 0.896 C 5.384 0.896,5.791 1.119,6.275 1.392 M5.208 2.486 L 5.051 3.162 3.690 4.523 L 2.329 5.885 1.656 6.037 C 1.221 6.135,0.995 6.194,1.016 6.202 C 1.033 6.210,1.314 6.285,1.639 6.369 L 2.230 6.521 3.640 7.932 L 5.050 9.342 5.208 9.938 C 5.294 10.265,5.369 10.533,5.374 10.533 C 5.379 10.533,5.454 10.265,5.541 9.938 L 5.698 9.342 7.108 7.932 L 8.518 6.521 9.109 6.369 C 9.434 6.285,9.715 6.210,9.733 6.202 C 9.754 6.194,9.528 6.135,9.092 6.037 L 8.419 5.885 7.059 4.523 L 5.698 3.162 5.540 2.486 C 5.454 2.114,5.379 1.810,5.374 1.810 C 5.369 1.809,5.294 2.114,5.208 2.486 M3.090 3.145 C 2.155 3.662,1.447 4.064,1.431 4.088 C 1.404 4.125,1.402 4.199,1.411 4.832 C 1.416 5.219,1.425 5.535,1.431 5.535 C 1.437 5.535,2.184 4.794,3.090 3.887 C 3.997 2.981,4.734 2.240,4.729 2.241 C 4.724 2.242,3.987 2.649,3.090 3.145 M7.658 3.887 C 8.565 4.793,9.311 5.535,9.317 5.535 C 9.323 5.535,9.333 5.219,9.338 4.832 C 9.346 4.199,9.344 4.125,9.318 4.088 C 9.301 4.064,8.764 3.757,8.070 3.374 C 7.400 3.005,6.663 2.598,6.431 2.470 L 6.010 2.238 7.658 3.887 M5.426 3.104 L 5.467 3.287 6.876 4.698 L 8.285 6.108 8.495 6.157 C 8.611 6.183,8.702 6.208,8.698 6.212 C 8.695 6.216,8.628 6.235,8.551 6.254 L 8.411 6.290 6.939 7.761 L 5.467 9.231 5.426 9.390 C 5.404 9.477,5.380 9.548,5.374 9.548 C 5.368 9.548,5.345 9.477,5.322 9.390 L 5.281 9.231 3.810 7.761 L 2.338 6.290 2.197 6.254 C 2.120 6.235,2.054 6.216,2.050 6.212 C 2.046 6.208,2.137 6.183,2.253 6.157 L 2.464 6.108 3.873 4.698 L 5.282 3.287 5.322 3.104 C 5.344 3.003,5.368 2.920,5.374 2.920 C 5.381 2.920,5.404 3.003,5.426 3.104 M3.278 3.337 C 3.278 3.339,2.915 3.704,2.472 4.147 L 1.666 4.953 1.666 4.586 L 1.666 4.219 2.468 3.776 C 3.267 3.334,3.278 3.328,3.278 3.337 M8.434 3.860 L 9.082 4.219 9.082 4.581 C 9.082 4.781,9.080 4.944,9.078 4.944 C 9.075 4.944,8.710 4.581,8.267 4.136 L 7.461 3.328 7.623 3.415 C 7.712 3.463,8.077 3.663,8.434 3.860 M4.372 5.256 L 3.380 6.249 4.371 7.254 C 4.916 7.806,5.367 8.258,5.373 8.258 C 5.378 8.258,5.833 7.809,6.382 7.260 L 7.380 6.261 6.382 5.262 C 5.832 4.713,5.379 4.263,5.374 4.263 C 5.369 4.263,4.918 4.710,4.372 5.256 M6.208 5.443 L 7.028 6.255 6.201 7.082 L 5.374 7.909 4.737 7.273 C 4.387 6.923,4.018 6.550,3.919 6.443 L 3.738 6.249 4.551 5.436 C 4.999 4.988,5.370 4.624,5.377 4.626 C 5.383 4.629,5.757 4.996,6.208 5.443 M1.452 7.448 C 1.452 7.692,1.459 8.273,1.468 8.739 L 1.482 9.588 1.534 9.637 C 1.562 9.664,2.355 10.282,3.296 11.009 C 4.237 11.736,5.041 12.359,5.083 12.393 L 5.160 12.455 5.155 11.669 L 5.150 10.884 3.798 9.879 L 2.445 8.874 2.436 8.414 L 2.427 7.954 1.953 7.479 C 1.692 7.218,1.472 7.004,1.465 7.004 C 1.457 7.004,1.451 7.204,1.452 7.448 M8.805 7.488 L 8.321 7.972 8.312 8.423 L 8.303 8.874 6.951 9.879 L 5.598 10.884 5.593 11.669 L 5.589 12.455 5.665 12.393 C 5.707 12.359,6.511 11.736,7.452 11.009 C 8.393 10.282,9.186 9.664,9.214 9.637 L 9.266 9.588 9.282 8.614 C 9.291 8.078,9.296 7.497,9.293 7.322 L 9.288 7.004 8.805 7.488 M2.181 8.526 L 2.194 8.999 3.529 9.990 C 4.263 10.536,4.873 10.992,4.886 11.005 C 4.904 11.023,4.908 11.131,4.904 11.480 L 4.899 11.933 3.323 10.713 L 1.747 9.492 1.735 9.229 C 1.729 9.084,1.720 8.656,1.714 8.278 L 1.705 7.590 1.936 7.821 L 2.167 8.052 2.181 8.526 M9.028 8.553 L 9.012 9.484 8.962 9.523 C 8.935 9.544,8.223 10.095,7.380 10.747 L 5.849 11.932 5.844 11.480 C 5.840 11.131,5.845 11.023,5.862 11.005 C 5.875 10.992,6.486 10.536,7.220 9.990 L 8.554 8.998 8.567 8.535 L 8.581 8.071 8.808 7.843 C 8.933 7.717,9.038 7.617,9.040 7.619 C 9.042 7.621,9.037 8.042,9.028 8.553 " stroke="none" fill-rule="evenodd" fill="black"></path></svg>