<svg id="Layer_2" data-name="Layer 2" xmlns="http://www.w3.org/2000/svg" viewBox="0 0 15.50828313 15.80358226"><path d="M0.055 0.065 C 0.078 0.093,0.693 0.843,1.422 1.732 C 2.151 2.620,2.752 3.352,2.758 3.359 C 2.771 3.375,3.362 2.784,3.354 2.763 C 3.350 2.754,2.655 2.179,1.809 1.486 C -0.106 -0.084,0.005 0.005,0.055 0.065 M13.815 1.387 C 12.905 2.135,12.158 2.754,12.155 2.763 C 12.146 2.784,12.737 3.375,12.751 3.359 C 12.756 3.352,13.328 2.655,14.022 1.809 C 14.716 0.963,15.330 0.216,15.386 0.149 C 15.442 0.081,15.483 0.026,15.478 0.027 C 15.474 0.028,14.725 0.640,13.815 1.387 M6.707 1.874 L 5.725 2.429 4.917 2.429 L 4.110 2.430 4.110 2.883 L 4.110 3.337 3.199 3.783 C 2.697 4.029,2.271 4.250,2.251 4.275 C 2.203 4.333,2.194 4.108,2.393 7.935 C 2.537 10.718,2.570 11.244,2.607 11.315 C 2.636 11.374,3.403 11.998,5.154 13.389 C 7.442 15.206,7.668 15.379,7.754 15.379 C 7.841 15.379,8.066 15.206,10.354 13.389 C 12.110 11.994,12.872 11.374,12.902 11.315 C 12.938 11.244,12.971 10.711,13.116 7.935 C 13.314 4.111,13.306 4.334,13.258 4.275 C 13.237 4.250,12.811 4.029,12.310 3.783 L 11.399 3.337 11.399 2.883 L 11.399 2.430 10.591 2.429 L 9.783 2.429 8.801 1.874 C 8.250 1.563,7.790 1.319,7.754 1.319 C 7.718 1.319,7.263 1.560,6.707 1.874 M8.750 2.133 L 9.688 2.662 10.414 2.662 L 11.139 2.662 11.146 3.081 L 11.153 3.499 12.096 3.957 L 13.040 4.415 13.033 4.553 C 12.880 7.700,12.682 11.210,12.657 11.234 C 12.509 11.374,7.784 15.105,7.754 15.105 C 7.725 15.105,3.003 11.377,2.851 11.234 C 2.826 11.210,2.642 7.952,2.475 4.553 L 2.468 4.415 3.412 3.957 L 4.355 3.498 4.362 3.080 L 4.369 2.662 5.095 2.662 L 5.820 2.662 6.780 2.120 C 7.309 1.821,7.757 1.583,7.777 1.590 C 7.796 1.597,8.234 1.842,8.750 2.133 M2.490 2.365 L 2.994 2.779 2.889 2.886 L 2.785 2.994 2.358 2.473 C 2.123 2.186,1.912 1.929,1.889 1.901 C 1.848 1.851,1.849 1.851,1.917 1.901 C 1.955 1.929,2.213 2.138,2.490 2.365 M13.616 1.906 C 13.595 1.931,13.385 2.186,13.150 2.473 L 12.723 2.994 12.618 2.886 L 12.514 2.779 13.074 2.320 C 13.382 2.068,13.639 1.861,13.645 1.861 C 13.651 1.861,13.638 1.881,13.616 1.906 M6.772 2.456 L 5.854 2.972 5.254 2.972 L 4.654 2.972 4.647 3.314 L 4.640 3.655 3.748 4.098 C 3.257 4.342,2.840 4.561,2.819 4.586 C 2.771 4.644,2.765 4.478,2.948 7.974 C 3.071 10.307,3.114 10.989,3.144 11.050 C 3.184 11.132,7.571 14.647,7.690 14.693 C 7.730 14.708,7.778 14.708,7.818 14.693 C 7.938 14.647,12.324 11.132,12.364 11.050 C 12.394 10.990,12.438 10.297,12.560 7.974 C 12.744 4.483,12.737 4.644,12.689 4.585 C 12.669 4.561,12.251 4.342,11.760 4.098 L 10.869 3.656 10.862 3.314 L 10.854 2.972 10.254 2.972 L 9.653 2.972 8.736 2.456 C 8.222 2.166,7.790 1.939,7.754 1.939 C 7.718 1.939,7.286 2.166,6.772 2.456 M8.688 2.716 L 9.557 3.205 10.090 3.205 L 10.623 3.205 10.623 3.510 L 10.623 3.815 11.551 4.275 L 12.479 4.735 12.468 4.881 C 12.462 4.961,12.387 6.359,12.302 7.986 C 12.216 9.614,12.138 10.953,12.128 10.962 C 12.118 10.971,11.129 11.759,9.932 12.713 L 7.754 14.448 5.577 12.713 C 4.379 11.759,3.390 10.971,3.380 10.962 C 3.370 10.953,3.292 9.613,3.207 7.986 C 3.121 6.359,3.047 4.961,3.041 4.881 L 3.029 4.735 3.957 4.275 L 4.885 3.815 4.885 3.510 L 4.885 3.205 5.421 3.204 L 5.958 3.203 6.849 2.700 C 7.369 2.407,7.757 2.203,7.780 2.211 C 7.801 2.219,8.210 2.446,8.688 2.716 M6.852 3.476 L 6.147 3.825 5.547 3.825 L 4.946 3.825 4.957 4.258 C 4.963 4.496,4.993 5.761,5.024 7.069 C 5.064 8.720,5.090 9.464,5.111 9.501 C 5.141 9.555,7.539 11.295,7.681 11.366 C 7.744 11.397,7.764 11.397,7.827 11.366 C 7.967 11.296,10.368 9.554,10.397 9.501 C 10.424 9.453,10.457 8.332,10.551 4.245 L 10.560 3.825 9.961 3.825 L 9.361 3.825 8.644 3.476 C 8.250 3.285,7.924 3.128,7.919 3.128 C 7.913 3.128,7.909 4.116,7.909 5.325 L 7.909 7.522 7.754 7.522 L 7.599 7.522 7.599 5.325 C 7.599 4.116,7.590 3.128,7.578 3.128 C 7.567 3.128,7.240 3.285,6.852 3.476 M7.754 7.754 L 8.168 7.754 8.168 5.635 L 8.168 3.516 8.738 3.800 L 9.309 4.084 9.798 4.084 L 10.287 4.084 10.287 4.400 C 10.287 4.575,10.264 5.642,10.235 6.772 C 10.207 7.902,10.184 8.951,10.184 9.103 L 10.184 9.379 8.989 10.239 C 8.331 10.712,7.776 11.099,7.754 11.099 C 7.732 11.099,7.177 10.712,6.520 10.239 L 5.325 9.379 5.324 9.116 C 5.324 8.971,5.301 7.928,5.273 6.798 C 5.245 5.668,5.222 4.595,5.221 4.413 L 5.221 4.084 5.710 4.084 L 6.199 4.084 6.763 3.803 L 7.328 3.523 7.334 5.638 L 7.341 7.754 7.754 7.754 M4.213 4.818 L 3.735 5.083 3.727 5.197 C 3.717 5.348,3.976 10.514,3.998 10.594 C 4.009 10.636,4.592 11.117,5.813 12.092 C 6.802 12.881,7.642 13.539,7.679 13.553 C 7.715 13.566,7.773 13.570,7.808 13.562 C 7.900 13.539,11.475 10.680,11.503 10.608 C 11.528 10.541,11.793 5.384,11.781 5.198 L 11.773 5.083 11.285 4.816 C 11.016 4.669,10.791 4.554,10.785 4.560 C 10.779 4.566,10.716 5.726,10.645 7.138 C 10.574 8.550,10.507 9.711,10.496 9.718 C 10.485 9.725,9.868 10.214,9.127 10.804 C 8.385 11.394,7.767 11.877,7.754 11.877 C 7.740 11.877,7.123 11.394,6.381 10.804 C 5.640 10.214,5.024 9.726,5.013 9.718 C 5.002 9.711,4.939 8.635,4.874 7.327 C 4.749 4.790,4.734 4.548,4.708 4.552 C 4.699 4.553,4.476 4.673,4.213 4.818 M4.507 5.189 C 4.516 5.313,4.570 6.369,4.627 7.534 C 4.684 8.700,4.736 9.690,4.743 9.733 C 4.751 9.777,4.788 9.843,4.827 9.880 C 5.004 10.046,7.644 12.125,7.696 12.139 C 7.728 12.147,7.780 12.147,7.812 12.139 C 7.867 12.125,10.528 10.027,10.684 9.874 C 10.737 9.823,10.761 9.770,10.769 9.689 C 10.776 9.627,10.832 8.543,10.895 7.279 C 10.958 6.015,11.014 4.977,11.020 4.971 C 11.026 4.965,11.142 5.022,11.279 5.097 L 11.528 5.234 11.527 5.337 C 11.527 5.394,11.470 6.580,11.400 7.971 C 11.303 9.883,11.264 10.510,11.239 10.535 C 11.180 10.592,7.768 13.311,7.754 13.311 C 7.740 13.311,4.327 10.592,4.269 10.535 C 4.242 10.508,4.205 9.915,4.108 7.971 C 4.038 6.579,3.981 5.394,3.981 5.337 L 3.980 5.233 4.220 5.100 C 4.351 5.026,4.466 4.965,4.475 4.964 C 4.484 4.963,4.498 5.064,4.507 5.189 M1.460 14.010 C -0.131 15.950,-0.004 15.792,0.078 15.728 C 0.158 15.665,3.311 13.080,3.346 13.049 C 3.362 13.035,3.256 12.910,3.075 12.729 C 2.913 12.566,2.773 12.433,2.766 12.434 C 2.759 12.434,2.171 13.144,1.460 14.010 M12.433 12.729 C 12.252 12.910,12.147 13.035,12.162 13.049 C 12.176 13.061,12.908 13.662,13.789 14.383 C 14.671 15.105,15.415 15.715,15.442 15.738 C 15.502 15.788,15.348 15.597,13.880 13.807 C 13.262 13.052,12.750 12.435,12.742 12.434 C 12.735 12.433,12.596 12.566,12.433 12.729 M2.991 13.016 C 2.988 13.018,2.747 13.216,2.455 13.454 C 2.164 13.692,1.908 13.900,1.888 13.916 C 1.839 13.952,1.890 13.888,2.378 13.290 L 2.779 12.800 2.888 12.905 C 2.948 12.963,2.995 13.013,2.991 13.016 M13.619 13.892 C 13.660 13.942,13.660 13.942,13.591 13.892 C 13.553 13.864,13.295 13.655,13.017 13.428 L 12.513 13.014 12.618 12.906 L 12.723 12.799 13.150 13.320 C 13.385 13.607,13.596 13.864,13.619 13.892 " stroke="none" fill-rule="evenodd" fill="black"></path></svg>