<svg id="Layer_2" data-name="Layer 2" xmlns="http://www.w3.org/2000/svg" viewBox="0 0 10.7485 14.3375"><path d="M5.303 0.012 C 5.288 0.018,4.835 0.272,4.296 0.576 L 3.316 1.129 2.482 1.129 L 1.648 1.129 1.648 1.601 L 1.648 2.074 0.990 2.446 C 0.085 2.957,0.064 2.969,0.027 3.032 C -0.004 3.084,-0.005 3.132,0.006 3.814 C 0.012 4.214,0.034 5.775,0.054 7.282 C 0.075 8.790,0.095 10.058,0.101 10.101 C 0.108 10.160,0.127 10.197,0.176 10.247 C 0.232 10.304,1.929 11.660,4.594 13.776 C 4.959 14.065,5.283 14.309,5.315 14.319 C 5.355 14.331,5.394 14.331,5.433 14.319 C 5.465 14.309,5.790 14.065,6.154 13.776 C 8.820 11.660,10.516 10.304,10.572 10.247 C 10.622 10.197,10.641 10.160,10.648 10.101 C 10.653 10.058,10.674 8.786,10.694 7.273 C 10.715 5.761,10.736 4.200,10.743 3.805 C 10.753 3.132,10.752 3.084,10.722 3.032 C 10.684 2.969,10.664 2.957,9.759 2.446 L 9.100 2.074 9.100 1.601 L 9.100 1.129 8.266 1.129 L 7.432 1.129 6.443 0.571 C 5.482 0.028,5.382 -0.021,5.303 0.012 M6.307 0.781 C 6.824 1.073,7.279 1.327,7.318 1.345 C 7.384 1.376,7.447 1.379,8.110 1.379 L 8.831 1.379 8.836 1.796 L 8.841 2.212 9.020 2.315 C 9.118 2.371,9.217 2.428,9.239 2.441 C 9.279 2.464,9.275 2.468,9.141 2.545 C 9.064 2.588,8.994 2.624,8.984 2.624 C 8.974 2.624,8.871 2.572,8.756 2.508 L 8.545 2.392 8.545 2.038 L 8.545 1.684 7.924 1.684 L 7.303 1.684 6.395 1.173 C 5.896 0.892,5.462 0.652,5.431 0.641 C 5.387 0.624,5.362 0.624,5.317 0.641 C 5.285 0.653,4.851 0.892,4.352 1.173 L 3.446 1.684 2.825 1.684 L 2.203 1.684 2.203 2.038 L 2.203 2.392 1.993 2.508 C 1.877 2.572,1.774 2.624,1.765 2.624 C 1.755 2.624,1.684 2.589,1.608 2.545 C 1.517 2.492,1.476 2.460,1.491 2.451 C 1.504 2.444,1.602 2.387,1.711 2.325 L 1.908 2.212 1.913 1.796 L 1.917 1.379 2.642 1.379 L 3.366 1.379 3.515 1.300 C 3.633 1.237,5.361 0.260,5.367 0.253 C 5.367 0.252,5.791 0.490,6.307 0.781 M6.275 1.392 C 6.759 1.664,7.184 1.898,7.219 1.910 C 7.264 1.927,7.426 1.933,7.788 1.934 L 8.294 1.935 8.294 2.236 L 8.294 2.537 8.612 2.714 C 8.787 2.811,8.943 2.899,8.958 2.908 C 8.979 2.920,9.035 2.896,9.173 2.815 C 9.338 2.718,9.363 2.709,9.381 2.734 C 9.444 2.818,10.426 4.571,10.418 4.584 C 10.413 4.593,10.316 4.658,10.202 4.728 C 10.089 4.799,9.996 4.863,9.996 4.870 C 9.996 4.877,10.009 4.901,10.024 4.922 C 10.051 4.961,10.050 4.962,9.988 4.962 C 9.930 4.962,9.924 4.967,9.925 5.011 C 9.926 5.100,9.848 9.808,9.846 9.810 C 9.845 9.811,9.187 10.334,8.384 10.973 C 7.581 11.612,6.581 12.409,6.162 12.744 C 5.744 13.079,5.389 13.354,5.374 13.353 C 5.359 13.353,4.702 12.838,3.913 12.208 C 3.123 11.578,2.122 10.780,1.688 10.435 L 0.897 9.808 0.896 9.602 C 0.896 9.489,0.879 8.469,0.860 7.336 C 0.840 6.203,0.824 5.191,0.824 5.088 L 0.824 4.900 0.582 4.750 C 0.449 4.668,0.336 4.593,0.330 4.584 C 0.322 4.571,1.303 2.821,1.367 2.734 C 1.386 2.709,1.411 2.719,1.575 2.815 C 1.714 2.896,1.769 2.920,1.790 2.908 C 1.806 2.899,1.961 2.811,2.136 2.714 L 2.454 2.537 2.454 2.236 L 2.454 1.935 2.951 1.935 C 3.225 1.935,3.477 1.927,3.511 1.917 C 3.546 1.907,3.973 1.674,4.461 1.398 C 4.948 1.123,5.358 0.897,5.371 0.896 C 5.384 0.896,5.791 1.119,6.275 1.392 M5.240 1.323 C 5.200 1.342,4.818 1.587,4.389 1.869 L 3.610 2.383 3.086 2.383 L 2.562 2.383 2.562 2.703 L 2.562 3.024 2.318 3.127 C 2.097 3.221,2.077 3.233,2.107 3.255 C 2.176 3.306,3.392 4.001,3.411 4.000 C 3.422 4.000,3.499 3.957,3.583 3.905 C 3.774 3.785,4.044 3.656,4.259 3.582 L 4.425 3.525 4.425 3.366 L 4.425 3.207 5.374 3.207 L 6.324 3.207 6.324 3.366 L 6.324 3.525 6.489 3.582 C 6.705 3.656,6.975 3.785,7.166 3.905 C 7.249 3.957,7.327 4.000,7.338 4.000 C 7.356 4.001,8.572 3.306,8.642 3.255 C 8.672 3.233,8.651 3.221,8.431 3.127 L 8.187 3.024 8.187 2.703 L 8.187 2.383 7.663 2.383 L 7.139 2.383 6.360 1.869 C 5.931 1.587,5.548 1.342,5.509 1.323 C 5.469 1.305,5.409 1.291,5.374 1.291 C 5.340 1.291,5.279 1.305,5.240 1.323 M6.235 2.087 L 7.064 2.633 7.500 2.633 L 7.936 2.633 7.936 2.911 L 7.936 3.189 8.029 3.230 L 8.122 3.271 7.743 3.490 C 7.535 3.610,7.356 3.708,7.345 3.708 C 7.335 3.708,7.295 3.689,7.258 3.665 C 7.154 3.600,6.830 3.440,6.709 3.394 L 6.601 3.354 6.596 3.155 L 6.591 2.956 5.374 2.956 L 4.157 2.956 4.152 3.155 L 4.147 3.354 4.040 3.394 C 3.918 3.440,3.594 3.600,3.491 3.665 C 3.453 3.689,3.414 3.708,3.403 3.708 C 3.393 3.708,3.214 3.610,3.005 3.490 L 2.627 3.271 2.720 3.230 L 2.813 3.189 2.813 2.911 L 2.813 2.633 3.248 2.633 L 3.684 2.633 4.513 2.087 C 4.970 1.786,5.357 1.541,5.374 1.541 C 5.392 1.541,5.779 1.786,6.235 2.087 M1.068 2.745 C 1.043 2.787,0.854 3.119,0.648 3.482 L 0.273 4.142 0.260 3.723 C 0.253 3.493,0.250 3.270,0.254 3.226 L 0.260 3.147 0.681 2.908 C 0.912 2.777,1.104 2.669,1.107 2.669 C 1.110 2.669,1.092 2.703,1.068 2.745 M10.175 2.969 C 10.477 3.141,10.489 3.150,10.495 3.208 C 10.498 3.242,10.495 3.466,10.488 3.705 L 10.476 4.142 10.100 3.482 C 9.894 3.119,9.704 2.786,9.679 2.742 L 9.633 2.663 9.747 2.727 C 9.810 2.763,10.003 2.872,10.175 2.969 M7.624 4.328 C 6.699 4.854,5.939 5.285,5.936 5.285 C 5.932 5.285,5.930 4.906,5.930 4.443 L 5.930 3.601 5.374 3.601 L 4.819 3.601 4.819 4.444 C 4.819 4.908,4.812 5.285,4.804 5.282 C 4.796 5.278,4.042 4.850,3.129 4.329 C 2.216 3.809,1.460 3.386,1.449 3.389 C 1.429 3.396,0.897 4.286,0.884 4.335 C 0.879 4.355,1.339 4.623,2.560 5.312 C 3.513 5.849,4.236 6.268,4.228 6.277 C 4.219 6.285,3.843 6.504,3.392 6.764 C 2.940 7.023,2.573 7.241,2.575 7.249 C 2.581 7.269,3.120 8.205,3.125 8.205 C 3.128 8.205,3.507 7.988,3.970 7.723 L 4.810 7.240 4.819 9.732 L 4.828 12.224 5.101 12.446 L 5.374 12.667 5.647 12.447 L 5.921 12.226 5.930 9.733 L 5.939 7.240 6.779 7.722 C 7.241 7.988,7.621 8.205,7.623 8.205 C 7.631 8.205,8.173 7.258,8.173 7.244 C 8.172 7.237,7.804 7.020,7.354 6.762 C 6.905 6.504,6.529 6.286,6.521 6.277 C 6.512 6.268,7.220 5.859,8.189 5.314 C 9.114 4.793,9.875 4.361,9.879 4.354 C 9.885 4.345,9.340 3.404,9.315 3.380 C 9.310 3.376,8.549 3.802,7.624 4.328 M3.339 4.737 C 4.283 5.275,5.059 5.715,5.063 5.715 C 5.067 5.715,5.070 5.295,5.070 4.783 L 5.070 3.852 5.374 3.852 L 5.679 3.852 5.679 4.783 C 5.679 5.295,5.682 5.715,5.685 5.715 C 5.688 5.715,6.479 5.267,7.441 4.720 C 8.404 4.173,9.199 3.724,9.208 3.721 C 9.230 3.716,9.548 4.250,9.532 4.266 C 9.526 4.273,8.730 4.723,7.762 5.268 C 6.795 5.813,6.007 6.264,6.011 6.271 C 6.016 6.279,6.429 6.520,6.931 6.807 L 7.842 7.330 7.690 7.592 C 7.606 7.737,7.535 7.858,7.533 7.860 C 7.531 7.863,7.115 7.627,6.609 7.337 L 5.688 6.809 5.679 9.457 L 5.670 12.106 5.522 12.225 L 5.374 12.344 5.226 12.225 L 5.079 12.106 5.070 9.457 L 5.061 6.809 4.140 7.337 C 3.634 7.627,3.217 7.863,3.215 7.860 C 3.212 7.858,3.142 7.737,3.058 7.592 L 2.907 7.329 3.818 6.807 C 4.319 6.520,4.733 6.279,4.737 6.272 C 4.742 6.265,3.955 5.813,2.990 5.268 C 2.025 4.722,1.231 4.270,1.227 4.263 C 1.222 4.255,1.279 4.146,1.354 4.019 C 1.555 3.679,1.535 3.704,1.581 3.733 C 1.603 3.747,2.394 4.199,3.339 4.737 M0.461 4.971 L 0.573 5.039 0.573 5.220 C 0.573 5.642,0.646 9.813,0.654 9.863 C 0.659 9.894,0.691 9.945,0.730 9.982 C 0.767 10.017,1.632 10.710,2.651 11.522 C 3.671 12.333,4.678 13.136,4.890 13.306 C 5.101 13.475,5.297 13.618,5.324 13.625 C 5.352 13.631,5.397 13.631,5.424 13.625 C 5.452 13.618,5.647 13.475,5.859 13.306 C 6.070 13.136,7.077 12.333,8.097 11.522 C 9.117 10.710,9.981 10.017,10.018 9.982 C 10.057 9.944,10.089 9.894,10.094 9.863 C 10.103 9.813,10.176 5.618,10.175 5.211 L 10.175 5.039 10.323 4.948 C 10.404 4.898,10.471 4.859,10.472 4.860 C 10.473 4.862,10.457 6.034,10.437 7.465 C 10.400 10.017,10.398 10.067,10.363 10.101 C 10.330 10.133,7.803 12.147,6.130 13.475 C 5.723 13.798,5.382 14.063,5.373 14.063 C 5.355 14.063,5.372 14.076,2.460 11.757 L 0.360 10.085 0.351 10.009 C 0.346 9.968,0.330 8.898,0.314 7.631 C 0.299 6.365,0.282 5.221,0.276 5.089 L 0.265 4.849 0.307 4.875 C 0.330 4.890,0.400 4.933,0.461 4.971 M1.128 5.065 C 1.128 5.678,1.206 9.536,1.220 9.590 C 1.230 9.628,1.264 9.686,1.295 9.718 C 1.360 9.786,4.363 12.180,4.401 12.194 C 4.422 12.202,4.425 12.014,4.421 10.961 L 4.416 9.718 4.368 9.638 C 4.332 9.576,4.287 9.537,4.175 9.471 C 3.846 9.275,3.580 9.041,3.352 8.747 L 3.239 8.600 3.147 8.654 C 3.027 8.725,2.975 8.750,2.968 8.741 C 2.952 8.720,2.041 7.131,2.034 7.110 C 2.027 7.093,2.240 6.962,2.732 6.682 C 3.121 6.460,3.439 6.275,3.439 6.269 C 3.440 6.258,3.453 6.266,2.137 5.511 C 1.593 5.200,1.143 4.944,1.138 4.944 C 1.133 4.944,1.129 4.999,1.128 5.065 M9.002 5.286 C 7.716 6.023,7.309 6.260,7.309 6.269 C 7.309 6.274,7.628 6.460,8.017 6.682 C 8.508 6.962,8.721 7.093,8.715 7.110 C 8.707 7.131,7.797 8.720,7.781 8.741 C 7.774 8.750,7.722 8.725,7.602 8.655 L 7.510 8.601 7.387 8.756 C 7.150 9.057,6.902 9.275,6.573 9.471 C 6.461 9.537,6.417 9.576,6.380 9.638 L 6.333 9.718 6.327 10.959 C 6.325 11.641,6.329 12.200,6.338 12.200 C 6.359 12.200,9.403 9.774,9.462 9.710 C 9.489 9.681,9.519 9.627,9.529 9.589 C 9.539 9.550,9.562 8.605,9.583 7.354 C 9.625 4.901,9.625 4.944,9.606 4.945 C 9.599 4.946,9.327 5.099,9.002 5.286 M2.125 5.792 C 2.926 6.249,2.938 6.257,2.938 6.270 C 2.938 6.275,2.656 6.439,2.311 6.636 C 1.966 6.832,1.684 6.997,1.684 7.004 C 1.684 7.012,2.537 8.501,2.841 9.024 L 2.885 9.099 3.017 9.019 C 3.089 8.975,3.154 8.939,3.161 8.939 C 3.168 8.939,3.259 9.029,3.364 9.138 C 3.579 9.362,3.768 9.516,3.999 9.655 L 4.156 9.748 4.156 10.715 C 4.156 11.513,4.152 11.679,4.132 11.667 C 4.061 11.624,1.483 9.557,1.471 9.533 C 1.462 9.517,1.442 8.665,1.426 7.640 C 1.411 6.616,1.394 5.687,1.389 5.576 C 1.385 5.465,1.384 5.374,1.387 5.374 C 1.391 5.374,1.723 5.562,2.125 5.792 M9.359 5.567 C 9.354 5.673,9.339 6.598,9.323 7.622 C 9.308 8.647,9.289 9.502,9.281 9.522 C 9.269 9.551,6.712 11.610,6.616 11.667 C 6.597 11.679,6.592 11.514,6.592 10.715 L 6.592 9.748 6.749 9.655 C 6.980 9.516,7.170 9.362,7.384 9.138 C 7.489 9.029,7.580 8.939,7.585 8.939 C 7.590 8.939,7.655 8.975,7.729 9.018 L 7.862 9.098 7.901 9.032 C 8.172 8.573,9.051 7.033,9.053 7.014 C 9.055 6.999,8.808 6.848,8.438 6.636 C 8.098 6.442,7.816 6.280,7.811 6.275 C 7.806 6.271,7.814 6.260,7.829 6.250 C 7.911 6.199,9.344 5.377,9.354 5.376 C 9.361 5.375,9.363 5.461,9.359 5.567 " stroke="none" fill-rule="evenodd" fill="black"></path></svg>