<svg id="Layer_2" xmlns="http://www.w3.org/2000/svg" viewBox="0 0 15.3028 15.042"><path d="M6.083 0.952 L 4.527 1.900 2.310 1.913 L 0.092 1.926 2.468 2.509 L 4.844 3.092 5.961 2.391 L 7.078 1.690 7.358 1.280 C 7.512 1.054,7.644 0.869,7.651 0.869 C 7.658 0.869,7.790 1.054,7.945 1.280 L 8.225 1.690 9.342 2.391 L 10.459 3.092 12.835 2.509 L 15.210 1.926 13.029 1.919 L 10.847 1.913 9.246 0.956 C 8.366 0.430,7.644 0.001,7.642 0.002 C 7.640 0.003,6.939 0.430,6.083 0.952 M9.206 1.224 L 10.741 2.142 11.983 2.145 L 13.224 2.148 11.864 2.486 L 10.503 2.825 9.448 2.161 L 8.393 1.497 8.030 0.965 C 7.830 0.673,7.660 0.434,7.651 0.434 C 7.643 0.434,7.473 0.673,7.273 0.965 L 6.910 1.497 5.855 2.161 L 4.800 2.825 3.439 2.486 L 2.079 2.148 3.341 2.144 L 4.604 2.140 6.108 1.225 C 6.936 0.722,7.626 0.309,7.642 0.308 C 7.657 0.307,8.361 0.719,9.206 1.224 M6.487 2.753 L 5.802 3.390 4.980 3.391 L 4.157 3.392 4.157 3.488 C 4.157 3.540,4.197 4.513,4.245 5.649 C 4.294 6.786,4.339 7.899,4.347 8.123 C 4.390 9.407,4.416 9.806,4.459 9.848 C 4.483 9.871,5.196 10.426,6.045 11.082 C 6.893 11.738,7.600 12.284,7.616 12.297 C 7.634 12.311,8.207 11.884,9.248 11.078 C 10.130 10.395,10.855 9.834,10.859 9.832 C 10.868 9.825,10.908 8.917,11.034 5.843 L 11.130 3.538 11.048 3.465 L 10.966 3.392 10.269 3.392 L 9.573 3.392 8.899 2.770 C 8.528 2.427,8.222 2.151,8.217 2.155 C 8.207 2.165,9.764 6.906,9.799 6.973 C 9.813 6.999,10.054 7.285,10.335 7.608 L 10.844 8.194 10.733 8.303 C 10.673 8.363,9.952 9.050,9.132 9.831 L 7.642 11.249 7.474 11.086 C 7.346 10.961,4.711 8.454,4.481 8.238 C 4.436 8.197,4.456 8.170,4.944 7.607 C 5.224 7.284,5.465 6.998,5.479 6.972 C 5.493 6.946,5.822 6.018,6.210 4.910 C 6.599 3.801,6.978 2.720,7.054 2.506 C 7.129 2.292,7.186 2.117,7.181 2.117 C 7.177 2.117,6.864 2.403,6.487 2.753 M0.638 2.557 C 0.638 2.564,1.096 3.335,1.655 4.269 L 2.673 5.969 2.688 6.256 C 2.696 6.413,2.721 7.592,2.744 8.874 C 2.786 11.198,2.787 11.207,2.841 11.250 C 2.870 11.274,3.888 12.092,5.101 13.069 C 7.166 14.730,7.313 14.844,7.405 14.844 C 7.495 14.844,7.503 14.838,7.490 14.786 C 7.467 14.694,7.039 12.614,7.039 12.594 C 7.039 12.552,6.644 12.109,6.460 11.944 C 6.202 11.712,5.853 11.451,5.541 11.257 C 5.263 11.084,4.432 10.636,4.268 10.572 L 4.162 10.530 4.147 10.245 C 4.139 10.088,4.115 8.898,4.093 7.600 C 4.071 6.303,4.047 5.184,4.040 5.114 L 4.027 4.986 3.793 4.818 C 2.789 4.098,0.788 2.658,0.721 2.607 C 0.675 2.573,0.638 2.550,0.638 2.557 M13.450 3.412 C 12.525 4.079,11.307 4.952,11.254 4.986 C 11.247 4.991,11.146 9.883,11.146 10.246 L 11.146 10.507 10.859 10.651 C 9.797 11.183,9.042 11.733,8.525 12.352 L 8.353 12.558 8.043 13.791 C 7.873 14.470,7.743 15.021,7.755 15.017 C 7.768 15.013,8.834 14.143,10.125 13.084 L 12.472 11.158 12.473 10.827 C 12.474 10.644,12.501 9.485,12.533 8.251 L 12.592 6.006 13.627 4.278 C 14.196 3.328,14.658 2.550,14.654 2.550 C 14.649 2.550,14.108 2.938,13.450 3.412 M6.875 5.059 L 6.112 7.333 5.766 7.684 L 5.421 8.035 6.530 9.144 L 7.639 10.253 8.748 9.144 L 9.857 8.034 9.520 7.696 L 9.183 7.358 8.416 5.076 C 7.994 3.822,7.647 2.793,7.644 2.790 C 7.641 2.787,7.295 3.808,6.875 5.059 M5.941 4.923 C 5.575 5.968,5.260 6.845,5.241 6.874 C 5.222 6.902,5.069 7.082,4.901 7.275 L 4.595 7.625 4.580 7.415 C 4.572 7.300,4.536 6.499,4.502 5.637 C 4.467 4.774,4.432 3.973,4.423 3.858 L 4.408 3.647 5.149 3.647 L 5.889 3.647 6.241 3.318 C 6.435 3.138,6.596 2.997,6.600 3.007 C 6.603 3.016,6.307 3.879,5.941 4.923 M9.240 3.424 L 9.481 3.647 10.177 3.647 L 10.873 3.647 10.858 3.947 C 10.849 4.112,10.811 5.004,10.773 5.930 C 10.735 6.856,10.700 7.617,10.697 7.622 C 10.689 7.632,10.615 7.549,10.265 7.146 L 10.016 6.858 9.382 4.930 C 9.033 3.870,8.748 2.998,8.748 2.991 C 8.748 2.976,8.930 3.137,9.240 3.424 M2.701 4.341 C 3.377 4.827,3.768 5.123,3.780 5.159 C 3.789 5.190,3.815 6.283,3.837 7.588 C 3.859 8.892,3.884 10.120,3.893 10.317 L 3.909 10.674 4.416 10.925 C 5.475 11.451,6.178 11.944,6.626 12.473 L 6.795 12.673 6.968 13.510 C 7.063 13.970,7.138 14.354,7.134 14.363 C 7.131 14.372,6.210 13.641,5.088 12.739 L 3.048 11.098 3.041 10.899 C 3.037 10.789,3.012 9.625,2.987 8.312 L 2.940 5.925 2.210 4.708 C 1.808 4.038,1.479 3.485,1.479 3.478 C 1.479 3.471,1.515 3.491,1.559 3.522 C 1.604 3.554,2.117 3.922,2.701 4.341 M13.070 4.719 L 12.336 5.946 12.273 8.488 C 12.211 11.006,12.210 11.031,12.156 11.086 C 12.083 11.160,8.179 14.359,8.171 14.352 C 8.168 14.348,8.258 13.973,8.371 13.517 L 8.577 12.689 8.711 12.523 C 9.193 11.928,9.927 11.398,11.037 10.842 L 11.401 10.661 11.401 10.323 C 11.401 9.877,11.500 5.120,11.508 5.114 C 11.512 5.111,11.923 4.816,12.421 4.459 C 12.919 4.102,13.429 3.735,13.556 3.643 C 13.682 3.551,13.790 3.479,13.795 3.484 C 13.801 3.489,13.474 4.045,13.070 4.719 M8.302 5.528 L 8.959 7.486 9.230 7.760 L 9.500 8.034 8.569 8.965 L 7.639 9.896 6.708 8.965 L 5.777 8.034 6.049 7.760 L 6.321 7.486 6.980 5.528 C 7.342 4.452,7.640 3.571,7.642 3.571 C 7.644 3.571,7.941 4.452,8.302 5.528 M6.232 10.251 C 7.001 10.983,7.640 11.578,7.651 11.574 C 7.669 11.568,9.638 9.699,10.426 8.941 L 10.663 8.713 10.646 9.132 C 10.637 9.363,10.622 9.588,10.613 9.633 C 10.599 9.706,10.426 9.848,9.143 10.842 C 8.344 11.461,7.676 11.973,7.659 11.980 C 7.642 11.986,6.963 11.477,6.151 10.848 L 4.673 9.705 4.657 9.360 C 4.648 9.171,4.637 8.948,4.631 8.866 L 4.621 8.716 4.727 8.818 C 4.785 8.874,5.462 9.518,6.232 10.251 " stroke="none" fill-rule="evenodd" fill="black"></path></svg>