<svg id="Layer_2" data-name="Layer 2" xmlns="http://www.w3.org/2000/svg" viewBox="0 0 10.82577801 14.20827577"><path d="M5.341 0.012 C 5.326 0.019,4.873 0.266,4.333 0.562 L 3.353 1.101 2.525 1.101 L 1.697 1.101 1.692 1.564 L 1.687 2.028 1.480 2.106 C 0.831 2.350,0.738 2.388,0.746 2.408 C 0.751 2.420,0.879 2.604,1.032 2.818 L 1.310 3.207 1.850 3.001 C 2.148 2.888,2.409 2.791,2.432 2.785 L 2.473 2.775 2.468 3.149 L 2.463 3.523 2.039 3.719 C 1.319 4.053,1.357 4.028,1.336 4.174 C 1.326 4.244,1.323 4.240,0.668 3.287 C 0.307 2.760,0.008 2.332,0.004 2.335 C -0.007 2.347,0.370 10.772,0.384 10.814 C 0.389 10.829,1.534 9.432,1.534 9.411 C 1.534 9.405,1.436 9.400,1.317 9.400 C 1.156 9.400,1.101 9.395,1.101 9.378 C 1.101 9.347,0.833 4.524,0.825 4.407 L 0.818 4.312 1.077 4.312 L 1.335 4.312 1.337 4.416 C 1.338 4.473,1.348 4.751,1.360 5.034 L 1.380 5.548 2.075 5.554 C 2.508 5.557,2.793 5.552,2.833 5.541 C 2.868 5.530,3.457 5.114,4.150 4.611 C 4.840 4.110,5.408 3.700,5.413 3.700 C 5.418 3.700,5.986 4.110,6.676 4.611 C 7.369 5.115,7.958 5.531,7.993 5.541 C 8.032 5.552,8.318 5.557,8.751 5.554 L 9.445 5.548 9.466 5.034 C 9.478 4.751,9.488 4.473,9.489 4.416 L 9.491 4.312 9.749 4.312 L 10.008 4.312 10.001 4.407 C 9.993 4.524,9.725 9.344,9.725 9.377 C 9.725 9.395,9.675 9.400,9.507 9.400 C 9.374 9.400,9.291 9.407,9.295 9.418 C 9.302 9.438,10.404 10.780,10.435 10.806 C 10.451 10.819,10.491 10.033,10.598 7.626 C 10.778 3.557,10.828 2.378,10.822 2.349 C 10.819 2.336,10.520 2.757,10.158 3.285 C 9.502 4.241,9.500 4.244,9.490 4.175 C 9.469 4.028,9.507 4.053,8.787 3.719 L 8.363 3.523 8.358 3.151 C 8.355 2.933,8.360 2.779,8.370 2.779 C 8.379 2.779,8.640 2.875,8.951 2.993 L 9.516 3.207 9.794 2.818 C 9.946 2.604,10.075 2.420,10.080 2.408 C 10.087 2.388,9.995 2.350,9.346 2.106 L 9.139 2.028 9.134 1.564 L 9.129 1.101 8.301 1.101 L 7.472 1.101 6.483 0.557 C 5.526 0.031,5.418 -0.020,5.341 0.012 M6.374 0.782 C 6.904 1.073,7.365 1.321,7.397 1.332 C 7.439 1.347,7.677 1.353,8.167 1.353 L 8.877 1.353 8.877 1.775 L 8.877 2.197 9.107 2.283 C 9.234 2.330,9.420 2.400,9.521 2.439 L 9.706 2.510 9.568 2.703 C 9.492 2.809,9.429 2.898,9.427 2.900 C 9.426 2.903,9.236 2.834,9.006 2.747 L 8.589 2.589 8.589 2.107 L 8.588 1.624 7.955 1.624 L 7.321 1.624 6.408 1.123 C 5.594 0.677,5.485 0.622,5.413 0.622 C 5.341 0.622,5.232 0.677,4.418 1.123 L 3.505 1.624 2.871 1.624 L 2.237 1.624 2.237 2.107 L 2.237 2.589 1.819 2.747 C 1.590 2.834,1.400 2.903,1.399 2.901 C 1.397 2.898,1.334 2.809,1.258 2.703 L 1.120 2.510 1.304 2.439 C 1.406 2.400,1.592 2.330,1.719 2.283 L 1.949 2.197 1.949 1.775 L 1.949 1.353 2.659 1.353 C 3.148 1.353,3.387 1.347,3.428 1.332 C 3.461 1.321,3.919 1.074,4.446 0.784 C 4.973 0.493,5.405 0.255,5.407 0.254 C 5.409 0.253,5.844 0.491,6.374 0.782 M6.331 1.367 L 7.244 1.867 7.781 1.873 L 8.318 1.878 8.318 2.256 L 8.318 2.634 7.724 2.634 L 7.130 2.634 6.390 2.138 C 5.983 1.865,5.645 1.642,5.640 1.642 C 5.634 1.642,5.629 1.967,5.629 2.364 L 5.629 3.085 5.413 3.085 L 5.196 3.085 5.196 2.364 C 5.196 1.967,5.192 1.642,5.186 1.642 C 5.180 1.642,4.843 1.865,4.436 2.138 L 3.696 2.634 3.102 2.634 L 2.508 2.634 2.508 2.256 L 2.508 1.878 3.045 1.873 L 3.582 1.867 4.493 1.367 C 4.994 1.092,5.407 0.867,5.410 0.867 C 5.414 0.866,5.828 1.091,6.331 1.367 M4.944 2.715 L 4.944 3.320 5.413 3.320 L 5.882 3.320 5.882 2.715 C 5.882 2.383,5.887 2.111,5.892 2.111 C 5.898 2.111,6.159 2.284,6.473 2.494 L 7.044 2.878 7.573 2.883 L 8.101 2.888 8.101 3.282 L 8.101 3.676 8.665 3.938 L 9.229 4.200 9.226 4.477 C 9.224 4.630,9.217 4.878,9.210 5.029 L 9.198 5.305 8.626 5.305 L 8.055 5.305 6.910 4.472 C 5.464 3.420,5.502 3.446,5.411 3.446 C 5.321 3.446,5.414 3.383,3.952 4.446 L 2.770 5.305 2.199 5.305 L 1.628 5.305 1.615 5.029 C 1.609 4.878,1.602 4.630,1.600 4.477 L 1.597 4.200 2.161 3.938 L 2.724 3.676 2.724 3.282 L 2.724 2.888 3.253 2.883 L 3.782 2.878 4.349 2.495 C 4.661 2.285,4.923 2.112,4.930 2.112 C 4.938 2.111,4.944 2.383,4.944 2.715 M0.602 3.631 C 0.757 3.857,0.884 4.046,0.884 4.051 C 0.884 4.056,0.811 4.060,0.722 4.060 L 0.559 4.060 0.559 4.136 C 0.559 4.238,0.844 9.395,0.858 9.539 L 0.869 9.651 0.942 9.657 L 1.016 9.662 0.810 9.915 L 0.604 10.167 0.599 10.068 C 0.575 9.598,0.289 3.277,0.289 3.213 C 0.289 3.175,0.289 3.176,0.602 3.631 M10.510 3.854 C 10.384 6.737,10.230 10.146,10.225 10.151 C 10.222 10.155,10.128 10.046,10.016 9.910 L 9.812 9.662 9.884 9.657 L 9.957 9.651 9.968 9.539 C 9.981 9.397,10.266 4.238,10.266 4.136 L 10.266 4.060 10.103 4.060 C 10.012 4.060,9.941 4.053,9.945 4.044 C 9.958 4.011,10.526 3.194,10.532 3.200 C 10.535 3.204,10.525 3.498,10.510 3.854 M5.332 4.564 C 5.312 4.572,4.792 4.945,4.177 5.393 L 3.058 6.206 2.467 6.206 L 1.876 6.207 1.876 6.829 L 1.876 7.452 2.470 7.452 L 3.063 7.452 4.170 8.258 C 4.779 8.701,5.308 9.076,5.345 9.090 C 5.405 9.114,5.421 9.114,5.481 9.090 C 5.518 9.076,6.047 8.701,6.656 8.258 L 7.763 7.452 8.356 7.452 L 8.949 7.452 8.949 6.829 L 8.949 6.207 8.358 6.207 L 7.767 6.206 6.649 5.393 C 6.034 4.945,5.511 4.572,5.488 4.563 C 5.438 4.543,5.380 4.544,5.332 4.564 M6.528 5.615 C 7.130 6.053,7.652 6.422,7.686 6.435 C 7.731 6.451,7.886 6.458,8.223 6.459 L 8.697 6.459 8.697 6.829 L 8.697 7.199 8.213 7.199 C 7.743 7.199,7.726 7.200,7.649 7.241 C 7.605 7.263,7.087 7.633,6.498 8.062 C 5.909 8.490,5.421 8.841,5.413 8.841 C 5.404 8.841,4.916 8.490,4.327 8.061 C 3.738 7.633,3.221 7.263,3.177 7.241 C 3.100 7.200,3.083 7.199,2.613 7.199 L 2.129 7.199 2.129 6.829 L 2.129 6.459 2.594 6.459 C 2.849 6.459,3.087 6.451,3.121 6.442 C 3.157 6.431,3.659 6.078,4.285 5.622 C 4.891 5.180,5.397 4.819,5.410 4.818 C 5.423 4.818,5.926 5.176,6.528 5.615 M5.289 5.432 C 5.242 5.460,3.414 6.782,3.374 6.817 C 3.369 6.821,3.389 6.844,3.419 6.867 C 3.492 6.925,5.147 8.129,5.257 8.204 C 5.377 8.286,5.451 8.284,5.580 8.196 C 5.827 8.027,7.452 6.835,7.451 6.824 C 7.450 6.817,7.319 6.718,7.159 6.604 C 7.000 6.490,6.592 6.194,6.254 5.947 C 5.915 5.699,5.602 5.474,5.558 5.446 C 5.462 5.385,5.374 5.380,5.289 5.432 M6.189 6.208 C 6.610 6.515,6.974 6.781,6.997 6.798 C 7.038 6.829,7.035 6.831,6.226 7.420 L 5.413 8.011 4.614 7.431 C 4.175 7.112,3.810 6.845,3.802 6.839 C 3.794 6.832,4.110 6.592,4.504 6.305 C 4.899 6.018,5.262 5.753,5.312 5.716 C 5.363 5.679,5.408 5.649,5.413 5.648 C 5.418 5.648,5.767 5.900,6.189 6.208 M1.486 8.268 C 1.492 8.360,1.502 8.622,1.508 8.850 C 1.515 9.078,1.525 9.295,1.531 9.332 C 1.542 9.397,1.609 9.449,3.419 10.816 C 4.461 11.603,5.322 12.241,5.354 12.250 C 5.390 12.260,5.436 12.260,5.472 12.250 C 5.504 12.241,6.366 11.602,7.407 10.816 C 9.217 9.450,9.284 9.397,9.294 9.332 C 9.301 9.295,9.311 9.078,9.317 8.850 C 9.324 8.622,9.334 8.360,9.340 8.268 L 9.351 8.101 8.682 8.101 C 8.314 8.101,7.994 8.109,7.971 8.118 C 7.947 8.126,7.362 8.545,6.670 9.047 L 5.413 9.961 4.155 9.047 C 3.464 8.545,2.878 8.126,2.855 8.118 C 2.832 8.109,2.511 8.101,2.143 8.101 L 1.475 8.101 1.486 8.268 M4.009 9.250 C 4.687 9.743,5.266 10.161,5.296 10.179 C 5.325 10.197,5.378 10.212,5.413 10.212 C 5.448 10.212,5.500 10.197,5.530 10.179 C 5.560 10.161,6.139 9.743,6.817 9.250 L 8.050 8.354 8.564 8.354 L 9.079 8.354 9.066 8.800 C 9.056 9.180,9.049 9.251,9.024 9.277 C 8.951 9.350,5.437 11.988,5.413 11.988 C 5.389 11.988,1.876 9.350,1.802 9.277 C 1.777 9.251,1.770 9.180,1.760 8.800 L 1.747 8.354 2.261 8.354 L 2.776 8.354 4.009 9.250 M1.193 10.313 C 1.030 10.517,0.904 10.690,0.913 10.698 C 0.939 10.721,5.180 14.078,5.258 14.137 C 5.313 14.179,5.348 14.191,5.413 14.191 C 5.478 14.191,5.513 14.179,5.568 14.137 C 5.646 14.078,9.887 10.721,9.913 10.698 C 9.928 10.684,9.356 9.951,9.330 9.951 C 9.324 9.951,8.443 10.653,7.374 11.511 C 6.305 12.370,5.422 13.072,5.413 13.072 C 5.404 13.072,4.521 12.370,3.452 11.511 C 2.383 10.653,1.504 9.949,1.499 9.946 C 1.493 9.944,1.355 10.109,1.193 10.313 M3.305 11.714 C 4.261 12.482,5.106 13.160,5.184 13.222 C 5.313 13.324,5.332 13.334,5.413 13.334 C 5.493 13.334,5.513 13.324,5.642 13.222 C 5.719 13.160,6.565 12.482,7.521 11.714 C 8.477 10.946,9.269 10.314,9.281 10.310 C 9.314 10.297,9.572 10.627,9.552 10.656 C 9.526 10.692,5.433 13.929,5.413 13.929 C 5.393 13.929,1.299 10.692,1.274 10.656 C 1.254 10.627,1.512 10.297,1.545 10.310 C 1.557 10.314,2.349 10.946,3.305 11.714 " stroke="none" fill-rule="evenodd" fill="black"></path></svg>