<svg id="Layer_2" data-name="Layer 2" xmlns="http://www.w3.org/2000/svg" viewBox="0 0 10.7483 14.3374"><path d="M5.302 0.012 C 5.288 0.018,4.835 0.272,4.296 0.576 L 3.316 1.129 2.482 1.129 L 1.648 1.129 1.648 1.601 L 1.648 2.074 0.990 2.445 C 0.091 2.953,0.064 2.969,0.028 3.030 C -0.002 3.081,-0.001 3.246,0.044 6.553 C 0.070 8.461,0.095 10.058,0.101 10.101 C 0.108 10.160,0.127 10.197,0.176 10.247 C 0.227 10.299,4.913 14.036,5.220 14.269 C 5.275 14.310,5.309 14.322,5.374 14.322 C 5.439 14.322,5.473 14.310,5.528 14.269 C 5.835 14.036,10.521 10.299,10.572 10.247 C 10.621 10.197,10.640 10.160,10.648 10.101 C 10.653 10.058,10.678 8.461,10.704 6.553 C 10.749 3.245,10.750 3.081,10.720 3.030 C 10.684 2.969,10.658 2.953,9.759 2.445 L 9.100 2.074 9.100 1.601 L 9.100 1.129 8.266 1.129 L 7.431 1.129 6.444 0.571 C 5.481 0.027,5.382 -0.021,5.302 0.012 M6.307 0.781 C 6.824 1.073,7.278 1.327,7.318 1.345 C 7.384 1.376,7.446 1.379,8.110 1.379 L 8.831 1.379 8.836 1.822 L 8.840 2.266 8.904 2.276 C 8.956 2.284,10.365 3.063,10.467 3.140 C 10.494 3.160,10.493 3.415,10.451 6.530 C 10.426 8.382,10.402 9.940,10.397 9.991 L 10.388 10.085 7.899 12.065 C 6.531 13.154,5.400 14.049,5.386 14.055 C 5.371 14.061,4.393 13.295,2.891 12.100 C 1.533 11.019,0.405 10.120,0.385 10.101 C 0.351 10.068,0.349 10.001,0.301 6.615 C 0.274 4.716,0.258 3.156,0.265 3.149 C 0.272 3.142,0.628 2.938,1.057 2.696 C 1.486 2.453,1.854 2.243,1.876 2.229 C 1.916 2.203,1.917 2.198,1.917 1.791 L 1.917 1.379 2.642 1.379 L 3.366 1.379 3.515 1.300 C 3.633 1.237,5.361 0.260,5.367 0.253 C 5.367 0.252,5.791 0.490,6.307 0.781 M5.276 0.657 C 5.246 0.672,4.822 0.910,4.334 1.184 L 3.446 1.684 2.825 1.684 L 2.203 1.684 2.203 2.038 L 2.203 2.391 1.412 2.839 C 0.907 3.125,0.608 3.305,0.585 3.337 L 0.548 3.386 0.589 6.158 C 0.612 7.683,0.636 9.150,0.642 9.418 L 0.654 9.906 0.726 9.976 C 0.878 10.126,5.273 13.613,5.323 13.624 C 5.351 13.630,5.397 13.630,5.425 13.624 C 5.456 13.617,6.441 12.844,7.874 11.701 L 10.271 9.790 10.184 9.784 L 10.098 9.779 10.109 9.283 C 10.115 9.010,10.138 7.572,10.160 6.087 L 10.200 3.386 10.164 3.337 C 10.140 3.305,9.842 3.126,9.336 2.839 L 8.545 2.391 8.545 2.038 L 8.545 1.684 7.924 1.684 L 7.302 1.684 6.414 1.184 C 5.926 0.910,5.501 0.672,5.469 0.656 C 5.398 0.620,5.345 0.620,5.276 0.657 M6.275 1.392 C 6.759 1.664,7.183 1.898,7.218 1.910 C 7.264 1.927,7.426 1.933,7.788 1.934 L 8.294 1.935 8.294 2.235 L 8.294 2.536 9.114 2.999 C 9.564 3.254,9.936 3.465,9.940 3.468 C 9.945 3.472,9.852 9.805,9.846 9.810 C 9.681 9.955,5.392 13.353,5.374 13.353 C 5.356 13.353,1.154 10.024,0.902 9.810 C 0.896 9.805,0.803 3.473,0.809 3.468 C 0.812 3.465,1.184 3.254,1.635 2.999 L 2.454 2.536 2.454 2.235 L 2.454 1.935 2.951 1.935 C 3.225 1.935,3.477 1.927,3.511 1.917 C 3.546 1.907,3.973 1.674,4.461 1.398 C 4.948 1.123,5.358 0.897,5.371 0.896 C 5.384 0.896,5.791 1.119,6.275 1.392 M4.497 2.088 L 3.898 2.454 3.400 2.454 L 2.902 2.454 2.902 5.343 C 2.903 7.605,2.907 8.241,2.925 8.276 C 2.946 8.319,5.066 10.034,5.230 10.141 C 5.280 10.174,5.333 10.193,5.374 10.193 C 5.415 10.193,5.468 10.174,5.518 10.141 C 5.682 10.034,7.802 8.319,7.824 8.276 C 7.841 8.241,7.846 7.605,7.846 5.343 L 7.846 2.454 7.349 2.454 L 6.851 2.454 6.243 2.087 L 5.634 1.719 5.629 3.986 L 5.625 6.253 5.379 6.248 L 5.132 6.243 5.128 3.981 C 5.125 2.737,5.117 1.720,5.110 1.721 C 5.103 1.721,4.827 1.886,4.497 2.088 M4.877 4.331 L 4.882 6.494 5.379 6.499 L 5.876 6.503 5.876 4.335 C 5.876 3.143,5.879 2.168,5.883 2.168 C 5.888 2.168,6.093 2.288,6.339 2.436 L 6.786 2.705 7.191 2.705 L 7.595 2.705 7.595 5.435 L 7.595 8.165 6.485 9.054 L 5.374 9.942 4.263 9.054 L 3.153 8.165 3.153 5.435 L 3.153 2.705 3.560 2.705 L 3.968 2.704 4.407 2.436 C 4.648 2.289,4.852 2.168,4.859 2.168 C 4.866 2.168,4.874 3.141,4.877 4.331 M1.962 3.559 C 1.696 3.712,1.473 3.842,1.466 3.848 C 1.448 3.868,1.535 9.408,1.555 9.459 C 1.565 9.483,1.596 9.524,1.624 9.550 C 1.796 9.708,5.252 12.443,5.307 12.465 C 5.366 12.488,5.382 12.488,5.441 12.465 C 5.496 12.443,8.953 9.708,9.124 9.550 C 9.153 9.524,9.183 9.483,9.193 9.459 C 9.213 9.408,9.300 3.868,9.282 3.848 C 9.262 3.828,8.303 3.281,8.297 3.287 C 8.294 3.290,8.268 4.472,8.239 5.913 C 8.199 7.957,8.182 8.539,8.165 8.555 C 8.052 8.660,5.395 10.756,5.374 10.756 C 5.354 10.756,2.692 8.657,2.584 8.555 C 2.566 8.539,2.549 7.956,2.509 5.913 C 2.480 4.472,2.454 3.290,2.451 3.287 C 2.448 3.284,2.228 3.406,1.962 3.559 M2.260 6.161 C 2.300 8.247,2.311 8.601,2.334 8.646 C 2.361 8.698,5.153 10.937,5.274 11.003 C 5.344 11.042,5.404 11.042,5.475 11.003 C 5.595 10.937,8.387 8.698,8.414 8.646 C 8.437 8.601,8.448 8.247,8.489 6.161 C 8.515 4.823,8.540 3.725,8.545 3.721 C 8.550 3.716,8.661 3.773,8.791 3.848 L 9.029 3.985 9.028 4.290 C 9.028 4.458,9.012 5.667,8.993 6.977 C 8.959 9.194,8.955 9.361,8.926 9.389 C 8.875 9.438,5.385 12.217,5.374 12.217 C 5.363 12.217,1.873 9.438,1.823 9.389 C 1.794 9.361,1.789 9.195,1.756 6.995 C 1.736 5.695,1.720 4.485,1.720 4.308 L 1.720 3.985 1.957 3.848 C 2.088 3.773,2.198 3.716,2.203 3.721 C 2.208 3.725,2.234 4.823,2.260 6.161 " stroke="none" fill-rule="evenodd" fill="black"></path></svg>