<svg id="Layer_2" data-name="Layer 2" xmlns="http://www.w3.org/2000/svg" viewBox="0 0 18.67594127 18.65631715"><path d="M9.156 3.074 C 9.065 4.644,8.985 5.961,8.977 6.000 C 8.966 6.056,8.942 6.070,8.854 6.070 C 8.760 6.070,8.503 6.244,6.983 7.337 C 5.306 8.544,5.226 8.606,5.311 8.632 C 5.360 8.647,5.976 8.667,6.679 8.676 C 8.236 8.696,8.870 8.661,9.976 8.494 L 10.412 8.428 11.897 6.947 C 12.714 6.132,13.379 5.462,13.375 5.458 C 13.370 5.454,13.164 5.506,12.917 5.574 C 12.669 5.643,12.298 5.732,12.093 5.773 C 11.353 5.920,9.756 6.080,9.714 6.011 C 9.703 5.993,9.617 4.682,9.524 3.098 C 9.431 1.514,9.347 0.218,9.337 0.218 C 9.328 0.218,9.246 1.503,9.156 3.074 M9.396 5.284 C 9.417 5.690,9.442 6.085,9.452 6.160 L 9.471 6.297 9.926 6.275 C 10.718 6.238,11.578 6.131,12.466 5.957 C 12.542 5.942,12.346 6.153,11.439 7.062 L 10.318 8.185 9.924 8.248 C 9.106 8.381,8.675 8.410,7.291 8.426 C 6.541 8.435,5.945 8.431,5.946 8.416 C 5.946 8.401,6.589 7.926,7.376 7.361 L 8.805 6.334 9.005 6.325 L 9.206 6.316 9.223 6.170 C 9.233 6.089,9.258 5.690,9.280 5.284 C 9.301 4.877,9.327 4.544,9.338 4.544 C 9.349 4.544,9.375 4.877,9.396 5.284 M11.869 7.165 L 9.903 9.131 9.725 9.091 L 9.548 9.052 9.229 9.369 L 8.910 9.687 8.407 9.676 L 7.905 9.665 7.913 10.101 L 7.922 10.536 8.428 10.545 L 8.933 10.553 8.933 11.048 L 8.933 11.542 9.283 11.563 C 9.476 11.575,9.676 11.580,9.727 11.574 L 9.820 11.564 9.809 11.132 L 9.797 10.701 10.148 10.349 L 10.499 9.997 10.445 9.803 L 10.390 9.609 12.355 7.644 L 14.319 5.680 14.077 5.439 L 13.835 5.199 11.869 7.165 M13.899 5.635 C 13.957 5.699,13.940 5.716,12.037 7.620 L 10.117 9.540 10.166 9.724 L 10.214 9.908 9.885 10.238 L 9.556 10.568 9.556 10.949 C 9.556 11.377,9.572 11.355,9.299 11.310 L 9.182 11.291 9.182 10.797 L 9.182 10.303 8.687 10.303 L 8.192 10.303 8.181 10.116 L 8.171 9.929 8.590 9.929 L 9.010 9.929 9.312 9.628 L 9.614 9.327 9.792 9.367 L 9.970 9.407 11.887 7.489 C 12.942 6.435,13.813 5.572,13.823 5.572 C 13.833 5.572,13.868 5.600,13.899 5.635 M3.284 9.122 C 1.640 9.221,0.254 9.305,0.202 9.309 C 0.151 9.312,1.559 9.402,3.331 9.508 C 5.102 9.615,6.563 9.692,6.577 9.680 C 6.591 9.668,6.592 9.495,6.580 9.296 L 6.559 8.933 6.415 8.937 C 6.336 8.939,4.927 9.022,3.284 9.122 M12.094 9.295 C 12.082 9.494,12.084 9.667,12.098 9.679 C 12.112 9.692,13.574 9.615,15.345 9.508 C 17.117 9.402,18.553 9.313,18.536 9.311 C 18.502 9.307,12.177 8.933,12.139 8.933 C 12.127 8.933,12.107 9.096,12.094 9.295 M6.309 9.420 C 6.301 9.428,5.863 9.409,5.334 9.378 C 4.806 9.348,4.405 9.318,4.444 9.312 C 4.483 9.307,4.917 9.279,5.409 9.250 L 6.303 9.198 6.313 9.302 C 6.318 9.360,6.317 9.413,6.309 9.420 M14.209 9.309 C 14.297 9.315,12.724 9.423,12.474 9.429 C 12.359 9.431,12.357 9.429,12.357 9.314 L 12.357 9.197 13.237 9.250 C 13.720 9.279,14.158 9.306,14.209 9.309 M6.646 11.921 L 5.525 13.042 5.984 13.501 L 6.443 13.960 7.564 12.840 L 8.684 11.719 8.684 11.260 L 8.684 10.801 8.225 10.801 L 7.766 10.801 6.646 11.921 M8.414 11.353 L 8.397 11.657 7.420 12.637 L 6.443 13.618 6.156 13.330 L 5.868 13.042 6.863 12.046 L 7.859 11.050 8.145 11.050 L 8.430 11.050 8.414 11.353 M8.963 12.163 C 8.960 12.363,9.323 18.427,9.338 18.427 C 9.353 18.427,9.716 12.363,9.713 12.163 L 9.711 12.077 9.338 12.077 L 8.964 12.077 8.963 12.163 M9.451 12.443 C 9.441 12.507,9.416 12.892,9.396 13.299 C 9.375 13.705,9.349 14.038,9.338 14.038 C 9.327 14.038,9.301 13.705,9.280 13.299 C 9.260 12.892,9.235 12.507,9.225 12.443 L 9.208 12.326 9.338 12.326 L 9.468 12.326 9.451 12.443 " stroke="none" fill-rule="evenodd" fill="black"></path></svg>