<svg id="Layer_2" data-name="Layer 2" xmlns="http://www.w3.org/2000/svg" viewBox="0 0 14.8809225 13.69000244"><path d="M6.672 1.176 L 6.672 2.352 5.928 2.782 C 5.519 3.018,5.184 3.220,5.184 3.229 C 5.184 3.244,5.770 4.264,5.791 4.286 C 5.796 4.291,6.131 4.103,6.537 3.869 C 6.943 3.636,7.283 3.442,7.291 3.440 C 7.300 3.437,8.018 3.846,8.888 4.348 L 10.469 5.260 10.778 5.082 L 11.088 4.904 11.081 4.533 L 11.074 4.161 9.505 3.256 L 7.936 2.351 7.936 1.175 L 7.936 0.000 7.304 0.000 L 6.672 0.000 6.672 1.176 M7.664 1.308 C 7.664 2.270,7.668 2.376,7.707 2.451 C 7.744 2.523,7.966 2.659,9.288 3.421 L 10.826 4.307 10.833 4.531 L 10.840 4.755 10.667 4.858 C 10.572 4.914,10.485 4.960,10.472 4.960 C 10.460 4.960,9.753 4.558,8.902 4.066 C 7.590 3.308,7.342 3.173,7.279 3.183 C 7.238 3.190,6.911 3.365,6.552 3.572 C 6.192 3.779,5.889 3.939,5.878 3.928 C 5.826 3.873,5.530 3.336,5.540 3.313 C 5.545 3.298,5.833 3.124,6.178 2.927 C 6.523 2.729,6.834 2.543,6.869 2.513 L 6.932 2.460 6.939 1.354 L 6.946 0.248 7.305 0.248 L 7.664 0.248 7.664 1.308 M4.916 0.985 C 4.508 1.679,4.460 1.765,4.468 1.773 C 4.486 1.790,5.908 2.604,5.921 2.604 C 5.928 2.604,6.072 2.525,6.241 2.428 L 6.549 2.252 6.542 1.893 L 6.535 1.534 5.841 1.132 C 5.459 0.911,5.133 0.722,5.117 0.712 C 5.097 0.699,5.031 0.789,4.916 0.985 M8.761 1.133 L 8.060 1.542 8.060 1.897 L 8.060 2.251 8.370 2.428 C 8.541 2.525,8.685 2.604,8.691 2.604 C 8.711 2.604,10.057 1.828,10.091 1.797 C 10.118 1.772,10.072 1.676,9.821 1.243 C 9.654 0.955,9.505 0.720,9.489 0.722 C 9.474 0.723,9.146 0.908,8.761 1.133 M5.730 1.357 L 6.275 1.673 6.275 1.897 L 6.274 2.121 6.111 2.214 C 6.021 2.265,5.936 2.307,5.922 2.307 C 5.898 2.307,4.931 1.762,4.849 1.702 C 4.812 1.675,4.826 1.641,4.989 1.357 C 5.089 1.184,5.174 1.042,5.178 1.042 C 5.182 1.042,5.431 1.184,5.730 1.357 M9.596 1.357 C 9.693 1.524,9.772 1.670,9.772 1.681 C 9.772 1.705,8.731 2.307,8.689 2.307 C 8.674 2.307,8.587 2.265,8.497 2.214 L 8.334 2.121 8.334 1.897 L 8.333 1.674 8.873 1.360 C 9.169 1.188,9.414 1.048,9.416 1.050 C 9.418 1.052,9.499 1.191,9.596 1.357 M11.247 2.114 C 11.240 2.131,11.232 2.787,11.229 3.571 L 11.223 4.998 7.893 6.919 L 4.563 8.841 4.563 9.192 L 4.563 9.543 4.870 9.719 C 5.038 9.816,5.188 9.896,5.202 9.896 C 5.216 9.896,6.714 9.036,8.530 7.986 C 10.347 6.936,11.846 6.076,11.861 6.076 C 11.875 6.076,12.314 6.322,12.835 6.622 C 13.356 6.922,13.793 7.168,13.805 7.168 C 13.818 7.168,13.945 6.964,14.087 6.715 C 14.229 6.466,14.365 6.228,14.389 6.187 L 14.433 6.111 13.468 5.554 L 12.502 4.998 12.495 3.547 L 12.488 2.096 11.873 2.089 C 11.395 2.084,11.256 2.089,11.247 2.114 M12.227 3.695 L 12.227 5.059 12.295 5.132 C 12.333 5.173,12.743 5.425,13.207 5.693 C 13.671 5.960,14.058 6.187,14.067 6.196 C 14.077 6.205,14.007 6.347,13.913 6.510 C 13.819 6.674,13.738 6.817,13.734 6.827 C 13.730 6.838,13.320 6.612,12.822 6.324 C 12.071 5.891,11.904 5.804,11.843 5.813 C 11.802 5.819,10.290 6.679,8.484 7.723 L 5.199 9.623 5.086 9.556 C 5.024 9.520,4.942 9.472,4.905 9.451 C 4.838 9.413,4.837 9.407,4.838 9.189 L 4.839 8.966 8.091 7.093 C 9.880 6.063,11.377 5.191,11.419 5.155 L 11.496 5.088 11.503 3.710 L 11.510 2.331 11.868 2.331 L 12.227 2.331 12.227 3.695 M13.457 3.696 C 13.036 3.941,12.676 4.154,12.658 4.170 C 12.632 4.191,12.624 4.282,12.624 4.541 L 12.624 4.885 12.717 4.943 C 12.768 4.975,12.912 5.059,13.036 5.131 L 13.262 5.260 14.065 4.796 C 14.507 4.541,14.871 4.330,14.875 4.328 C 14.891 4.317,14.271 3.251,14.248 3.251 C 14.235 3.251,13.879 3.452,13.457 3.696 M6.993 3.778 L 6.684 3.956 6.677 4.595 L 6.671 5.233 7.304 5.233 L 7.937 5.233 7.931 4.598 L 7.924 3.963 7.688 3.827 C 7.559 3.752,7.419 3.670,7.378 3.645 L 7.303 3.599 6.993 3.778 M14.349 3.898 C 14.444 4.064,14.524 4.208,14.528 4.217 C 14.535 4.232,13.378 4.914,13.287 4.949 C 13.263 4.958,13.176 4.923,13.071 4.862 L 12.895 4.759 12.902 4.532 L 12.909 4.306 13.517 3.952 C 13.851 3.757,14.136 3.597,14.151 3.597 C 14.165 3.597,14.255 3.732,14.349 3.898 M7.483 3.997 L 7.664 4.101 7.664 4.543 L 7.664 4.985 7.304 4.985 L 6.944 4.985 6.944 4.540 L 6.944 4.095 7.112 3.995 C 7.204 3.941,7.284 3.895,7.290 3.895 C 7.296 3.894,7.383 3.940,7.483 3.997 M3.175 7.806 L 3.175 9.635 1.631 10.527 C 0.782 11.017,0.068 11.430,0.044 11.446 C 0.006 11.472,0.031 11.526,0.300 11.993 C 0.464 12.279,0.607 12.521,0.617 12.532 C 0.628 12.542,1.347 12.137,2.217 11.632 C 3.086 11.126,3.805 10.717,3.814 10.723 C 3.824 10.728,4.538 11.142,5.402 11.644 C 6.265 12.145,6.976 12.551,6.981 12.546 C 6.996 12.531,7.567 11.531,7.580 11.497 C 7.588 11.476,7.040 11.146,6.016 10.554 L 4.439 9.643 4.439 7.810 L 4.439 5.977 3.807 5.977 L 3.175 5.977 3.175 7.806 M4.172 7.988 L 4.179 9.751 4.243 9.805 C 4.278 9.834,4.967 10.238,5.774 10.702 C 6.580 11.166,7.240 11.555,7.241 11.567 C 7.242 11.579,7.163 11.728,7.066 11.897 C 6.948 12.103,6.878 12.201,6.856 12.193 C 6.838 12.186,6.160 11.794,5.350 11.323 C 4.281 10.702,3.856 10.466,3.801 10.466 C 3.745 10.466,3.315 10.705,2.232 11.334 C 1.411 11.812,0.732 12.202,0.723 12.202 C 0.695 12.202,0.348 11.571,0.367 11.554 C 0.376 11.544,1.043 11.156,1.848 10.691 C 2.653 10.227,3.336 9.818,3.367 9.783 L 3.423 9.719 3.423 7.972 L 3.423 6.225 3.794 6.225 L 4.166 6.225 4.172 7.988 M11.554 6.408 L 11.247 6.585 11.247 7.329 L 11.247 8.073 11.868 8.073 L 12.488 8.073 12.488 7.334 L 12.488 6.596 12.174 6.413 L 11.861 6.231 11.554 6.408 M12.044 6.627 L 12.227 6.731 12.227 7.284 L 12.227 7.837 11.868 7.837 L 11.508 7.837 11.508 7.280 L 11.508 6.724 11.675 6.624 C 11.767 6.570,11.847 6.524,11.852 6.524 C 11.857 6.523,11.943 6.570,12.044 6.627 M0.812 8.258 C 0.652 8.542,0.521 8.786,0.521 8.800 C 0.521 8.826,2.355 9.896,2.401 9.896 C 2.415 9.896,2.559 9.819,2.721 9.725 L 3.013 9.553 3.020 9.194 L 3.027 8.835 2.072 8.286 C 1.547 7.985,1.115 7.739,1.111 7.739 C 1.107 7.740,0.973 7.973,0.812 8.258 M1.997 8.530 L 2.765 8.974 2.765 9.191 L 2.765 9.408 2.584 9.515 L 2.402 9.623 1.622 9.173 L 0.843 8.723 0.921 8.584 C 1.139 8.195,1.204 8.086,1.215 8.086 C 1.222 8.087,1.574 8.286,1.997 8.530 M3.478 11.067 L 3.175 11.245 3.175 12.455 L 3.175 13.666 3.807 13.666 L 4.440 13.666 4.434 12.457 L 4.427 11.248 4.118 11.068 C 3.948 10.969,3.803 10.888,3.796 10.889 C 3.788 10.890,3.646 10.970,3.478 11.067 M3.998 11.286 L 4.167 11.386 4.167 12.414 L 4.167 13.442 3.795 13.442 L 3.423 13.442 3.423 12.415 L 3.423 11.388 3.590 11.289 C 3.682 11.234,3.774 11.189,3.793 11.188 C 3.813 11.186,3.905 11.231,3.998 11.286 " stroke="none" fill-rule="evenodd" fill="black"></path></svg>