<svg id="Layer_2" data-name="Layer 2" xmlns="http://www.w3.org/2000/svg" viewBox="0 0 13.71620117 14.65002441"><path d="M5.818 0.021 C 5.793 0.032,5.752 0.063,5.727 0.091 C 5.681 0.141,5.681 0.178,5.675 2.563 C 5.671 3.894,5.677 4.984,5.686 4.984 C 5.696 4.984,5.963 4.724,6.281 4.406 L 6.858 3.829 7.435 4.406 C 7.753 4.724,8.021 4.984,8.030 4.984 C 8.040 4.984,8.045 3.893,8.041 2.561 L 8.035 0.138 7.972 0.075 L 7.909 0.011 6.886 0.007 C 6.324 0.004,5.843 0.011,5.818 0.021 M7.795 2.325 L 7.795 4.399 7.390 3.996 C 7.137 3.745,6.960 3.587,6.921 3.577 C 6.796 3.546,6.739 3.586,6.327 3.996 L 5.921 4.399 5.921 2.325 L 5.921 0.251 6.858 0.251 L 7.795 0.251 7.795 2.325 M3.989 2.288 C 3.574 2.528,3.212 2.750,3.183 2.781 C 3.115 2.855,3.115 2.974,3.183 3.050 C 3.226 3.098,4.386 3.788,4.668 3.934 C 4.793 3.998,4.862 3.990,4.952 3.899 L 5.031 3.821 5.024 2.903 L 5.018 1.985 4.943 1.918 C 4.899 1.879,4.843 1.852,4.806 1.852 C 4.766 1.852,4.468 2.011,3.989 2.288 M8.773 1.918 L 8.698 1.985 8.692 2.903 L 8.685 3.821 8.764 3.899 C 8.855 3.990,8.923 3.998,9.048 3.934 C 9.331 3.788,10.490 3.098,10.533 3.050 C 10.565 3.014,10.584 2.963,10.584 2.915 C 10.584 2.866,10.565 2.816,10.533 2.781 C 10.453 2.693,8.984 1.852,8.910 1.852 C 8.873 1.852,8.817 1.879,8.773 1.918 M4.770 3.696 C 4.766 3.700,4.457 3.527,4.084 3.310 C 3.674 3.072,3.417 2.910,3.435 2.901 C 3.450 2.892,3.757 2.714,4.115 2.506 L 4.766 2.128 4.772 2.908 C 4.776 3.337,4.775 3.691,4.770 3.696 M9.636 2.526 C 10.000 2.737,10.301 2.911,10.304 2.914 C 10.309 2.918,8.995 3.684,8.957 3.700 C 8.947 3.704,8.938 3.351,8.938 2.915 C 8.938 2.480,8.946 2.128,8.956 2.133 C 8.965 2.138,9.271 2.315,9.636 2.526 M1.053 2.783 C 0.956 2.874,0.020 4.495,0.006 4.597 C -0.003 4.666,0.006 4.692,0.060 4.749 C 0.143 4.836,3.654 6.858,3.723 6.858 C 3.751 6.858,3.802 6.843,3.836 6.825 C 3.870 6.807,4.153 6.537,4.464 6.224 L 5.030 5.656 5.024 5.270 L 5.018 4.883 4.481 4.576 C 4.185 4.407,3.339 3.921,2.601 3.495 C 1.653 2.948,1.238 2.720,1.189 2.720 C 1.146 2.720,1.096 2.744,1.053 2.783 M11.693 3.161 C 11.278 3.402,10.435 3.888,9.819 4.241 L 8.698 4.883 8.692 5.270 L 8.686 5.656 9.252 6.224 C 9.564 6.537,9.846 6.807,9.880 6.825 C 9.914 6.843,9.965 6.858,9.993 6.858 C 10.062 6.858,13.573 4.836,13.656 4.749 C 13.710 4.692,13.719 4.666,13.710 4.597 C 13.696 4.495,12.760 2.874,12.663 2.783 C 12.544 2.672,12.516 2.683,11.693 3.161 M2.474 3.710 C 3.156 4.104,3.954 4.563,4.246 4.729 L 4.778 5.033 4.778 5.288 L 4.778 5.544 4.253 6.068 C 3.766 6.555,3.725 6.591,3.676 6.568 C 3.555 6.511,0.285 4.615,0.279 4.598 C 0.270 4.572,1.189 2.995,1.213 2.995 C 1.224 2.995,1.791 3.317,2.474 3.710 M12.977 3.776 C 13.226 4.206,13.430 4.571,13.430 4.587 C 13.430 4.611,10.237 6.476,10.040 6.568 C 9.991 6.591,9.950 6.555,9.463 6.068 L 8.938 5.544 8.938 5.289 L 8.938 5.033 9.996 4.427 C 10.577 4.094,11.372 3.636,11.762 3.409 C 12.151 3.183,12.482 2.997,12.496 2.996 C 12.511 2.995,12.727 3.346,12.977 3.776 M5.525 5.938 C 4.786 6.675,4.280 7.197,4.260 7.243 C 4.235 7.301,4.233 7.336,4.251 7.392 C 4.267 7.442,4.665 7.855,5.516 8.705 L 6.757 9.944 6.858 9.944 L 6.959 9.944 8.200 8.705 C 9.051 7.855,9.449 7.442,9.465 7.392 C 9.484 7.336,9.482 7.301,9.456 7.243 C 9.436 7.197,8.930 6.675,8.191 5.938 L 6.959 4.709 6.858 4.709 L 6.757 4.709 5.525 5.938 M8.041 6.155 L 9.213 7.327 8.035 8.504 L 6.858 9.681 5.681 8.504 L 4.503 7.327 5.675 6.155 C 6.319 5.511,6.852 4.984,6.858 4.984 C 6.864 4.984,7.397 5.511,8.041 6.155 M1.097 7.330 L 1.097 8.531 1.172 8.486 C 1.212 8.461,1.652 8.207,2.149 7.921 C 2.646 7.636,3.080 7.385,3.114 7.364 L 3.175 7.326 2.782 7.099 C 2.566 6.975,2.098 6.705,1.743 6.501 L 1.097 6.129 1.097 7.330 M6.201 6.681 C 5.665 7.218,5.647 7.239,5.647 7.326 C 5.647 7.413,5.666 7.435,6.178 7.951 C 6.470 8.245,6.743 8.501,6.784 8.518 C 6.848 8.546,6.869 8.546,6.932 8.518 C 6.973 8.501,7.246 8.245,7.538 7.951 C 8.051 7.435,8.070 7.413,8.070 7.326 C 8.070 7.239,8.051 7.218,7.515 6.681 L 6.960 6.127 6.858 6.127 L 6.756 6.127 6.201 6.681 M11.624 6.703 C 11.084 7.015,10.618 7.284,10.590 7.300 C 10.542 7.326,10.613 7.371,11.573 7.925 L 12.607 8.521 12.614 7.917 C 12.617 7.584,12.617 7.047,12.614 6.723 L 12.607 6.134 11.624 6.703 M7.332 6.841 C 7.587 7.095,7.795 7.314,7.795 7.327 C 7.795 7.340,7.584 7.561,7.327 7.818 L 6.858 8.286 6.389 7.818 C 6.132 7.561,5.921 7.340,5.921 7.327 C 5.921 7.305,6.835 6.378,6.858 6.378 C 6.864 6.378,7.078 6.586,7.332 6.841 M2.025 6.952 C 2.376 7.154,2.666 7.322,2.669 7.325 C 2.677 7.333,1.417 8.057,1.380 8.066 C 1.354 8.072,1.349 7.948,1.349 7.328 C 1.349 6.919,1.357 6.584,1.368 6.584 C 1.379 6.584,1.674 6.749,2.025 6.952 M12.367 7.328 C 12.367 7.948,12.362 8.072,12.336 8.066 C 12.319 8.062,12.020 7.894,11.672 7.694 C 11.268 7.460,11.051 7.323,11.069 7.312 C 11.513 7.048,12.318 6.588,12.339 6.586 C 12.361 6.584,12.367 6.747,12.367 7.328 M1.886 8.825 C 0.905 9.391,0.079 9.881,0.049 9.915 C 0.007 9.962,-0.002 9.993,0.006 10.057 C 0.020 10.158,0.957 11.780,1.053 11.870 C 1.097 11.911,1.146 11.933,1.192 11.933 C 1.244 11.933,1.796 11.626,3.255 10.788 C 4.350 10.158,5.275 9.612,5.309 9.576 C 5.376 9.505,5.389 9.425,5.347 9.343 C 5.311 9.272,3.910 7.868,3.836 7.828 C 3.802 7.810,3.751 7.796,3.722 7.796 C 3.693 7.797,2.867 8.260,1.886 8.825 M9.887 7.822 C 9.816 7.860,8.414 9.262,8.377 9.332 C 8.328 9.424,8.337 9.502,8.407 9.576 C 8.441 9.613,9.366 10.158,10.462 10.788 C 11.919 11.626,12.472 11.933,12.524 11.933 C 12.570 11.933,12.619 11.911,12.663 11.870 C 12.762 11.778,13.696 10.158,13.710 10.054 C 13.720 9.983,13.712 9.959,13.656 9.905 C 13.562 9.813,10.051 7.795,9.986 7.796 C 9.957 7.796,9.912 7.808,9.887 7.822 M4.420 8.752 L 5.101 9.434 3.169 10.546 C 2.107 11.158,1.228 11.659,1.215 11.659 C 1.195 11.659,0.274 10.096,0.274 10.061 C 0.274 10.043,3.680 8.072,3.715 8.071 C 3.728 8.070,4.045 8.377,4.420 8.752 M11.729 9.057 C 12.671 9.601,13.442 10.052,13.442 10.061 C 13.442 10.095,12.521 11.659,12.501 11.659 C 12.489 11.659,11.609 11.158,10.547 10.546 L 8.615 9.434 9.297 8.752 C 9.672 8.377,9.987 8.070,9.997 8.070 C 10.007 8.070,10.786 8.514,11.729 9.057 M5.675 12.091 L 5.681 14.513 5.736 14.572 L 5.792 14.631 6.858 14.631 L 7.925 14.631 7.980 14.572 L 8.035 14.513 8.041 12.091 C 8.045 10.760,8.040 9.670,8.030 9.670 C 8.021 9.670,7.753 9.930,7.435 10.247 L 6.858 10.824 6.281 10.247 C 5.963 9.930,5.696 9.670,5.686 9.670 C 5.677 9.670,5.671 10.760,5.675 12.091 M6.858 11.087 C 6.954 11.087,6.963 11.080,7.376 10.671 L 7.795 10.256 7.795 12.329 L 7.795 14.402 6.858 14.402 L 5.921 14.402 5.921 12.329 L 5.921 10.256 6.341 10.671 C 6.753 11.080,6.762 11.087,6.858 11.087 M3.988 11.111 C 3.574 11.351,3.212 11.572,3.183 11.604 C 3.115 11.680,3.115 11.798,3.183 11.874 C 3.263 11.962,4.730 12.802,4.805 12.802 C 4.843 12.802,4.899 12.775,4.943 12.735 L 5.018 12.668 5.024 11.751 L 5.031 10.833 4.952 10.754 C 4.899 10.701,4.853 10.676,4.808 10.676 C 4.763 10.676,4.493 10.820,3.988 11.111 M8.764 10.754 L 8.685 10.833 8.692 11.751 L 8.698 12.668 8.773 12.735 C 8.818 12.775,8.873 12.802,8.911 12.802 C 8.987 12.802,10.454 11.962,10.533 11.874 C 10.565 11.838,10.584 11.787,10.584 11.739 C 10.584 11.691,10.565 11.640,10.533 11.604 C 10.451 11.513,8.986 10.676,8.909 10.676 C 8.864 10.676,8.817 10.701,8.764 10.754 M4.773 12.126 L 4.766 12.528 4.092 12.137 C 3.721 11.922,3.416 11.744,3.413 11.741 C 3.410 11.739,3.714 11.560,4.087 11.344 L 4.766 10.950 4.773 11.337 C 4.776 11.550,4.776 11.905,4.773 12.126 M9.670 11.367 C 10.016 11.568,10.301 11.734,10.303 11.736 C 10.308 11.741,9.151 12.416,9.015 12.488 L 8.938 12.529 8.938 11.739 L 8.938 10.948 8.990 10.976 C 9.018 10.991,9.324 11.167,9.670 11.367 " stroke="none" fill-rule="evenodd" fill="black"></path></svg>