<svg id="Layer_2" data-name="Layer 2" xmlns="http://www.w3.org/2000/svg" viewBox="0 0 13.16247021 14.51000977"><path d="M8.994 1.699 L 8.994 3.397 8.942 3.437 C 8.913 3.459,7.916 4.035,6.727 4.717 L 4.565 5.956 4.564 6.319 L 4.563 6.682 4.853 6.852 C 5.090 6.992,5.150 7.019,5.187 7.002 C 5.212 6.990,6.209 6.417,7.402 5.728 C 8.595 5.039,9.585 4.475,9.601 4.475 C 9.623 4.475,12.126 5.911,12.475 6.123 L 12.544 6.165 12.851 5.639 C 13.069 5.267,13.151 5.108,13.133 5.094 C 13.119 5.083,12.459 4.701,11.665 4.246 L 10.223 3.418 10.223 1.709 L 10.223 0.000 9.609 0.000 L 8.994 0.000 8.994 1.699 M9.960 1.856 C 9.960 3.428,9.960 3.450,10.005 3.529 C 10.045 3.599,10.216 3.703,11.426 4.397 C 12.182 4.830,12.804 5.188,12.808 5.191 C 12.817 5.197,12.525 5.710,12.474 5.780 C 12.450 5.814,12.311 5.739,11.060 5.015 C 9.997 4.399,9.656 4.212,9.601 4.212 C 9.544 4.212,9.030 4.499,7.340 5.474 L 5.152 6.737 4.989 6.643 L 4.826 6.548 4.831 6.320 L 4.837 6.092 6.998 4.850 C 8.999 3.699,9.162 3.601,9.207 3.520 L 9.257 3.433 9.257 1.848 L 9.258 0.263 9.609 0.263 L 9.960 0.263 9.960 1.856 M6.353 1.870 C 6.187 2.159,6.055 2.399,6.059 2.402 C 6.063 2.406,6.503 2.661,7.038 2.969 L 8.011 3.528 8.256 3.386 C 8.391 3.307,8.523 3.229,8.550 3.212 C 8.598 3.181,8.599 3.169,8.599 2.821 L 8.599 2.462 8.254 2.265 C 8.064 2.156,7.626 1.905,7.281 1.706 L 6.653 1.344 6.353 1.870 M11.567 1.911 L 10.618 2.461 10.619 2.827 L 10.619 3.192 10.897 3.353 C 11.073 3.454,11.192 3.510,11.221 3.505 C 11.254 3.498,13.096 2.450,13.157 2.402 C 13.171 2.392,12.557 1.361,12.537 1.361 C 12.525 1.361,12.088 1.609,11.567 1.911 M7.555 2.150 L 8.336 2.600 8.336 2.823 L 8.336 3.047 8.187 3.136 C 8.105 3.185,8.025 3.225,8.011 3.225 C 7.972 3.225,6.406 2.321,6.406 2.299 C 6.406 2.267,6.744 1.688,6.759 1.694 C 6.767 1.698,7.125 1.903,7.555 2.150 M12.637 1.997 C 12.736 2.167,12.813 2.309,12.809 2.313 C 12.804 2.317,12.442 2.528,12.003 2.782 L 11.206 3.243 11.032 3.141 L 10.858 3.039 10.864 2.822 L 10.870 2.604 11.660 2.147 C 12.094 1.895,12.451 1.689,12.453 1.689 C 12.455 1.689,12.537 1.828,12.637 1.997 M2.961 5.194 C 2.961 6.120,2.954 6.888,2.945 6.902 C 2.936 6.915,2.269 7.304,1.464 7.766 L -0.001 8.605 0.039 8.673 C 0.061 8.711,0.196 8.947,0.339 9.198 C 0.482 9.449,0.610 9.650,0.623 9.645 C 0.637 9.640,1.293 9.264,2.082 8.809 C 2.871 8.354,3.528 7.977,3.543 7.971 C 3.557 7.966,4.560 8.531,5.772 9.228 C 6.983 9.924,7.989 10.495,8.008 10.495 C 8.027 10.495,8.167 10.422,8.321 10.333 L 8.599 10.170 8.599 9.815 L 8.599 9.460 6.389 8.189 L 4.179 6.919 4.173 5.214 L 4.168 3.510 3.565 3.510 L 2.962 3.510 2.961 5.194 M3.910 5.370 C 3.915 6.817,3.920 6.995,3.951 7.043 C 3.974 7.077,4.797 7.562,6.161 8.347 L 8.336 9.597 8.336 9.817 L 8.336 10.036 8.173 10.131 L 8.010 10.225 5.832 8.974 C 3.882 7.853,3.644 7.722,3.560 7.722 C 3.476 7.722,3.315 7.809,2.097 8.512 C 1.344 8.946,0.719 9.301,0.709 9.301 C 0.682 9.301,0.345 8.708,0.362 8.691 C 0.369 8.683,0.990 8.326,1.740 7.896 C 2.803 7.286,3.115 7.098,3.154 7.042 L 3.203 6.970 3.203 5.360 L 3.203 3.751 3.553 3.751 L 3.904 3.751 3.910 5.370 M0.339 5.303 C 0.196 5.554,0.061 5.790,0.038 5.828 L -0.002 5.898 0.970 6.451 C 1.504 6.756,1.951 7.005,1.963 7.004 C 1.975 7.004,2.114 6.930,2.271 6.839 L 2.556 6.674 2.556 6.318 L 2.556 5.961 1.590 5.406 C 1.060 5.100,0.619 4.850,0.611 4.849 C 0.604 4.849,0.481 5.053,0.339 5.303 M9.312 5.083 C 9.156 5.173,9.019 5.254,9.009 5.264 C 8.998 5.274,8.989 6.435,8.987 7.844 L 8.983 10.405 7.536 11.245 C 6.739 11.707,6.079 12.088,6.068 12.092 C 6.058 12.097,6.186 12.339,6.352 12.631 L 6.655 13.161 6.723 13.120 C 7.110 12.885,9.576 11.473,9.601 11.473 C 9.626 11.473,11.435 12.508,12.366 13.055 L 12.546 13.160 12.855 12.630 C 13.026 12.338,13.157 12.096,13.147 12.093 C 13.138 12.089,12.478 11.709,11.682 11.248 L 10.234 10.409 10.221 8.588 C 10.213 7.587,10.206 6.431,10.204 6.019 L 10.201 5.269 9.910 5.100 C 9.750 5.006,9.615 4.927,9.609 4.924 C 9.603 4.921,9.469 4.992,9.312 5.083 M1.514 5.651 L 2.303 6.102 2.303 6.318 L 2.303 6.534 2.142 6.624 C 2.053 6.673,1.969 6.713,1.957 6.713 C 1.934 6.713,0.400 5.847,0.366 5.814 C 0.346 5.796,0.677 5.199,0.707 5.199 C 0.717 5.199,1.080 5.402,1.514 5.651 M9.839 5.347 L 9.949 5.411 9.960 7.932 C 9.970 10.241,9.974 10.459,10.008 10.521 C 10.037 10.575,10.309 10.741,11.422 11.385 C 12.180 11.823,12.804 12.185,12.809 12.188 C 12.822 12.200,12.456 12.814,12.440 12.807 C 12.431 12.803,11.806 12.443,11.050 12.005 C 9.962 11.376,9.661 11.210,9.600 11.210 C 9.540 11.210,9.235 11.377,8.138 12.012 C 7.375 12.453,6.749 12.811,6.745 12.807 C 6.726 12.787,6.406 12.218,6.406 12.203 C 6.406 12.193,7.029 11.825,7.790 11.385 C 8.638 10.895,9.189 10.564,9.211 10.531 C 9.243 10.482,9.247 10.249,9.247 7.943 L 9.247 5.410 9.422 5.308 L 9.598 5.205 9.663 5.244 C 9.700 5.265,9.779 5.312,9.839 5.347 M11.583 8.896 L 10.629 9.450 10.623 9.812 L 10.617 10.174 10.904 10.341 C 11.062 10.433,11.196 10.508,11.201 10.508 C 11.229 10.508,13.161 9.383,13.155 9.371 C 13.101 9.273,12.561 8.366,12.551 8.356 C 12.543 8.349,12.108 8.592,11.583 8.896 M3.247 8.596 L 2.951 8.766 2.951 9.884 L 2.951 11.002 3.554 11.002 L 4.157 11.002 4.163 9.891 C 4.167 9.020,4.163 8.776,4.141 8.758 C 4.095 8.721,3.578 8.424,3.560 8.425 C 3.551 8.425,3.410 8.502,3.247 8.596 M12.636 8.987 C 12.734 9.151,12.806 9.293,12.796 9.302 C 12.786 9.311,12.424 9.522,11.991 9.772 L 11.203 10.225 11.036 10.128 L 10.870 10.031 10.870 9.815 L 10.870 9.600 11.649 9.146 C 12.077 8.896,12.435 8.691,12.443 8.689 C 12.452 8.688,12.539 8.822,12.636 8.987 M3.733 8.804 L 3.894 8.899 3.900 9.824 L 3.905 10.749 3.554 10.749 L 3.203 10.749 3.203 9.830 L 3.203 8.911 3.373 8.811 C 3.466 8.756,3.549 8.711,3.557 8.710 C 3.566 8.710,3.644 8.752,3.733 8.804 M9.284 12.094 L 8.972 12.272 8.972 13.386 L 8.972 14.501 9.587 14.501 L 10.201 14.501 10.201 13.383 L 10.201 12.265 9.943 12.113 C 9.801 12.030,9.665 11.952,9.641 11.939 C 9.603 11.919,9.546 11.944,9.284 12.094 M9.878 12.366 L 9.960 12.417 9.954 13.333 L 9.949 14.248 9.592 14.254 L 9.236 14.260 9.236 13.333 L 9.237 12.406 9.417 12.304 L 9.598 12.203 9.696 12.259 C 9.751 12.290,9.832 12.338,9.878 12.366 " stroke="none" fill-rule="evenodd" fill="black"></path></svg>