<svg id="Layer_2" data-name="Layer 2" xmlns="http://www.w3.org/2000/svg" viewBox="0 0 13.61780665 14.65002441"><path d="M5.844 0.021 C 5.819 0.032,5.778 0.063,5.754 0.090 C 5.709 0.140,5.708 0.177,5.702 3.413 L 5.696 6.684 2.893 8.304 C 1.259 9.248,0.070 9.948,0.043 9.983 C 0.008 10.027,-0.001 10.064,0.007 10.123 C 0.021 10.224,0.862 11.700,0.954 11.785 C 0.999 11.826,1.047 11.847,1.096 11.847 C 1.152 11.847,1.837 11.463,3.982 10.225 C 5.530 9.332,6.802 8.602,6.809 8.602 C 6.816 8.602,8.088 9.332,9.635 10.225 C 11.781 11.463,12.466 11.847,12.522 11.847 C 12.571 11.847,12.619 11.826,12.664 11.785 C 12.756 11.700,13.597 10.224,13.611 10.123 C 13.619 10.065,13.609 10.027,13.575 9.984 C 13.548 9.949,12.350 9.243,10.725 8.304 L 7.922 6.684 7.916 3.411 L 7.910 0.137 7.847 0.074 L 7.784 0.011 6.837 0.007 C 6.316 0.004,5.869 0.011,5.844 0.021 M7.671 3.515 C 7.671 6.593,7.674 6.784,7.711 6.828 C 7.733 6.854,9.005 7.600,10.539 8.486 C 12.072 9.372,13.332 10.102,13.339 10.109 C 13.346 10.116,13.165 10.449,12.936 10.850 C 12.623 11.399,12.512 11.576,12.484 11.569 C 12.464 11.564,11.212 10.846,9.702 9.975 C 8.192 9.104,6.923 8.377,6.883 8.360 C 6.820 8.334,6.797 8.334,6.735 8.360 C 6.695 8.377,5.426 9.104,3.916 9.975 C 2.406 10.846,1.154 11.564,1.133 11.569 C 1.106 11.576,0.995 11.399,0.681 10.850 C 0.453 10.449,0.272 10.116,0.279 10.109 C 0.286 10.102,1.546 9.371,3.079 8.486 C 4.613 7.600,5.885 6.854,5.907 6.828 C 5.944 6.784,5.946 6.593,5.946 3.515 L 5.946 0.250 6.809 0.250 L 7.671 0.250 7.671 3.515 M0.954 2.854 C 0.860 2.940,0.021 4.415,0.006 4.519 C -0.003 4.587,0.006 4.613,0.060 4.671 C 0.128 4.744,3.773 6.862,3.835 6.864 C 3.854 6.865,4.112 6.728,4.408 6.559 L 4.946 6.253 4.947 5.615 L 4.948 4.976 3.057 3.884 C 1.649 3.071,1.147 2.792,1.094 2.792 C 1.047 2.792,0.998 2.813,0.954 2.854 M10.559 3.884 L 8.670 4.976 8.671 5.615 L 8.672 6.253 9.210 6.559 C 9.506 6.728,9.764 6.865,9.783 6.864 C 9.844 6.862,13.490 4.744,13.558 4.671 C 13.612 4.613,13.621 4.587,13.611 4.519 C 13.597 4.415,12.757 2.940,12.664 2.854 C 12.618 2.813,12.571 2.792,12.522 2.792 C 12.467 2.792,11.980 3.064,10.559 3.884 M2.927 4.097 L 4.697 5.118 4.698 5.610 L 4.698 6.102 4.282 6.342 C 4.053 6.474,3.854 6.582,3.839 6.582 C 3.814 6.582,0.329 4.577,0.286 4.537 C 0.257 4.511,1.088 3.060,1.127 3.069 C 1.144 3.072,1.954 3.535,2.927 4.097 M12.938 3.791 C 13.175 4.207,13.344 4.527,13.332 4.537 C 13.286 4.580,9.803 6.582,9.777 6.582 C 9.761 6.581,9.564 6.475,9.340 6.345 L 8.931 6.109 8.926 5.614 L 8.920 5.118 10.696 4.092 C 11.673 3.528,12.483 3.066,12.497 3.065 C 12.511 3.064,12.709 3.391,12.938 3.791 M6.241 9.782 L 5.708 10.095 5.708 12.301 L 5.708 14.507 5.782 14.573 L 5.856 14.639 6.809 14.639 L 7.761 14.639 7.836 14.573 L 7.910 14.507 7.910 12.301 L 7.910 10.095 7.368 9.780 C 7.070 9.606,6.815 9.465,6.801 9.466 C 6.786 9.468,6.535 9.609,6.241 9.782 M7.255 10.002 L 7.671 10.246 7.671 12.318 L 7.671 14.389 6.809 14.389 L 5.946 14.389 5.946 12.318 L 5.946 10.246 6.361 10.003 C 6.588 9.870,6.789 9.760,6.807 9.760 C 6.824 9.760,7.026 9.869,7.255 10.002 " stroke="none" fill-rule="evenodd" fill="black"></path></svg>