<svg id="Layer_2" data-name="Layer 2" xmlns="http://www.w3.org/2000/svg" viewBox="0 0 14.41712245 14.61004639"><path d="M6.620 0.026 C 5.930 0.083,5.249 0.242,4.601 0.498 C 3.664 0.868,2.915 1.355,2.157 2.087 C 1.917 2.319,1.898 2.343,1.938 2.372 C 1.961 2.390,2.163 2.507,2.385 2.633 L 2.790 2.862 2.990 2.673 C 3.885 1.826,5.048 1.264,6.320 1.065 C 6.711 1.004,7.706 1.004,8.098 1.065 C 9.369 1.264,10.532 1.826,11.427 2.673 L 11.627 2.862 12.032 2.633 C 12.254 2.507,12.456 2.389,12.480 2.372 C 12.520 2.343,12.500 2.318,12.251 2.079 C 11.912 1.754,11.632 1.520,11.332 1.311 C 9.939 0.339,8.289 -0.110,6.620 0.026 M8.218 0.324 C 9.583 0.540,10.807 1.113,11.803 2.004 C 12.158 2.321,12.149 2.279,11.894 2.424 L 11.676 2.548 11.479 2.377 C 10.590 1.606,9.562 1.095,8.469 0.880 C 8.002 0.788,7.726 0.762,7.209 0.762 C 6.691 0.762,6.415 0.788,5.948 0.880 C 4.855 1.095,3.827 1.606,2.938 2.377 L 2.741 2.548 2.520 2.423 L 2.299 2.297 2.489 2.117 C 3.581 1.085,5.018 0.438,6.572 0.279 C 6.819 0.254,7.975 0.285,8.218 0.324 M6.764 1.768 C 6.724 1.773,6.595 1.789,6.476 1.804 C 5.603 1.908,4.651 2.311,3.900 2.893 C 3.608 3.119,3.563 3.222,3.694 3.361 C 3.731 3.400,4.166 3.666,4.661 3.953 C 5.553 4.468,5.563 4.473,5.623 4.433 C 5.656 4.411,5.777 4.349,5.893 4.293 L 6.103 4.193 6.103 3.409 L 6.103 2.624 6.157 2.612 C 6.605 2.506,7.812 2.506,8.260 2.612 L 8.314 2.624 8.314 3.417 C 8.314 4.195,8.315 4.210,8.363 4.222 C 8.423 4.238,8.711 4.379,8.795 4.434 C 8.854 4.473,8.866 4.467,9.756 3.953 C 10.251 3.666,10.686 3.400,10.723 3.361 C 10.854 3.222,10.809 3.119,10.517 2.893 C 9.788 2.328,8.934 1.957,8.029 1.813 C 7.810 1.778,6.922 1.746,6.764 1.768 M7.908 2.056 C 8.692 2.159,9.421 2.438,10.080 2.887 C 10.341 3.065,10.520 3.209,10.500 3.226 C 10.494 3.232,10.123 3.449,9.676 3.708 L 8.864 4.179 8.721 4.106 L 8.578 4.034 8.578 3.245 L 8.578 2.456 8.481 2.417 C 8.241 2.321,7.972 2.295,7.209 2.295 C 6.445 2.295,6.177 2.321,5.936 2.417 L 5.839 2.456 5.839 3.245 L 5.839 4.034 5.696 4.106 L 5.553 4.179 5.209 3.979 C 5.020 3.870,4.647 3.653,4.379 3.498 L 3.893 3.216 4.055 3.090 C 5.156 2.234,6.505 1.871,7.908 2.056 M0.711 2.145 C 0.633 2.215,-0.000 3.320,0.000 3.387 C 0.000 3.530,-0.011 3.523,2.774 5.130 C 5.354 6.618,5.479 6.694,5.428 6.727 C 5.399 6.747,4.991 6.986,4.521 7.258 C 4.051 7.531,3.663 7.764,3.659 7.776 C 3.655 7.789,3.753 7.972,3.876 8.183 C 4.000 8.394,4.184 8.714,4.286 8.896 C 4.387 9.077,4.479 9.230,4.489 9.236 C 4.499 9.242,4.918 9.011,5.419 8.722 L 6.332 8.196 6.344 11.324 C 6.357 14.709,6.349 14.523,6.482 14.584 C 6.558 14.619,7.859 14.619,7.936 14.584 C 8.068 14.523,8.061 14.709,8.074 11.324 L 8.086 8.195 8.998 8.722 C 9.499 9.011,9.917 9.243,9.926 9.237 C 9.936 9.232,10.027 9.078,10.130 8.897 C 10.233 8.715,10.414 8.400,10.532 8.197 C 10.650 7.994,10.748 7.812,10.750 7.792 C 10.752 7.769,10.446 7.578,9.897 7.260 C 9.427 6.986,9.018 6.747,8.989 6.727 C 8.938 6.694,9.064 6.618,11.643 5.130 C 14.428 3.523,14.417 3.530,14.417 3.387 C 14.417 3.320,13.785 2.215,13.706 2.145 C 13.573 2.026,13.674 1.974,10.777 3.650 L 8.086 5.207 8.074 4.310 L 8.062 3.413 7.995 3.346 L 7.928 3.280 7.209 3.280 L 6.489 3.280 6.422 3.346 L 6.356 3.413 6.344 4.310 L 6.332 5.207 3.640 3.650 C 0.743 1.974,0.844 2.026,0.711 2.145 M3.547 3.886 C 4.989 4.720,6.202 5.419,6.243 5.440 C 6.349 5.495,6.450 5.488,6.528 5.421 L 6.596 5.363 6.603 4.447 L 6.610 3.532 7.209 3.532 L 7.809 3.532 7.809 4.435 L 7.809 5.338 7.880 5.408 C 7.960 5.489,8.059 5.500,8.171 5.442 C 8.210 5.422,9.423 4.723,10.867 3.888 C 12.311 3.054,13.508 2.367,13.528 2.363 C 13.582 2.349,14.162 3.366,14.122 3.403 C 14.106 3.418,12.925 4.103,11.498 4.926 C 10.070 5.748,8.857 6.449,8.801 6.484 C 8.745 6.519,8.687 6.576,8.673 6.612 C 8.640 6.690,8.662 6.806,8.718 6.854 C 8.740 6.874,9.121 7.098,9.563 7.353 C 10.006 7.608,10.382 7.829,10.399 7.845 C 10.424 7.867,10.397 7.930,10.264 8.160 C 10.172 8.317,10.039 8.548,9.968 8.672 C 9.898 8.796,9.834 8.899,9.826 8.900 C 9.819 8.901,9.435 8.685,8.973 8.419 C 8.511 8.153,8.110 7.928,8.080 7.919 C 8.008 7.897,7.871 7.965,7.837 8.040 C 7.817 8.084,7.809 8.942,7.809 11.234 L 7.809 14.369 7.209 14.369 L 6.608 14.369 6.608 11.234 C 6.608 8.942,6.601 8.084,6.580 8.040 C 6.546 7.965,6.409 7.897,6.337 7.919 C 6.308 7.928,5.908 8.152,5.450 8.416 C 4.992 8.680,4.608 8.896,4.597 8.897 C 4.586 8.898,4.519 8.796,4.449 8.672 C 4.378 8.548,4.245 8.317,4.153 8.160 C 4.020 7.930,3.993 7.867,4.018 7.845 C 4.035 7.829,4.411 7.608,4.854 7.353 C 5.296 7.098,5.677 6.874,5.699 6.854 C 5.756 6.806,5.777 6.690,5.744 6.610 C 5.710 6.529,5.959 6.678,2.835 4.878 C 1.428 4.067,0.272 3.401,0.268 3.397 C 0.263 3.393,0.392 3.157,0.556 2.872 C 0.764 2.509,0.864 2.356,0.889 2.363 C 0.909 2.367,2.105 3.053,3.547 3.886 M0.616 4.319 C 0.302 5.137,0.172 5.626,0.082 6.332 C 0.027 6.754,0.027 7.591,0.082 8.014 C 0.289 9.629,0.980 11.059,2.102 12.196 C 2.972 13.077,3.978 13.682,5.172 14.043 C 5.360 14.100,6.017 14.249,6.079 14.249 C 6.095 14.249,6.103 14.068,6.103 13.749 L 6.103 13.249 5.737 13.158 C 4.155 12.766,2.819 11.791,1.956 10.400 C 1.767 10.095,1.491 9.513,1.375 9.179 C 1.141 8.500,1.048 7.926,1.048 7.161 C 1.048 6.316,1.163 5.678,1.446 4.954 C 1.499 4.818,1.539 4.703,1.534 4.698 C 1.520 4.684,0.720 4.227,0.688 4.215 C 0.671 4.209,0.642 4.251,0.616 4.319 M13.312 4.448 C 13.081 4.581,12.888 4.693,12.883 4.698 C 12.878 4.703,12.919 4.821,12.974 4.960 C 13.097 5.276,13.226 5.744,13.288 6.096 C 13.722 8.599,12.586 11.105,10.410 12.441 C 9.885 12.763,9.309 13.002,8.680 13.158 L 8.314 13.249 8.314 13.752 L 8.314 14.254 8.404 14.238 C 10.963 13.780,13.038 12.061,13.932 9.659 C 14.239 8.837,14.376 8.065,14.376 7.173 C 14.375 6.154,14.226 5.417,13.802 4.319 C 13.778 4.256,13.752 4.205,13.745 4.206 C 13.738 4.206,13.543 4.315,13.312 4.448 M1.178 4.782 C 1.226 4.818,1.226 4.819,1.154 5.015 C 0.766 6.079,0.683 7.355,0.926 8.508 C 1.316 10.354,2.559 11.981,4.254 12.865 C 4.720 13.108,5.371 13.349,5.750 13.421 L 5.839 13.437 5.839 13.690 L 5.839 13.942 5.728 13.925 C 5.563 13.901,5.155 13.782,4.811 13.658 C 4.181 13.432,3.388 12.982,2.847 12.544 C 2.564 12.315,2.029 11.774,1.801 11.486 C 0.355 9.658,-0.078 7.330,0.609 5.070 C 0.656 4.918,0.716 4.742,0.743 4.678 L 0.793 4.562 0.961 4.654 C 1.053 4.704,1.151 4.762,1.178 4.782 M13.756 4.917 C 14.288 6.498,14.244 8.250,13.636 9.735 C 12.791 11.798,11.067 13.316,8.943 13.866 C 8.549 13.968,8.578 13.983,8.578 13.687 L 8.578 13.437 8.667 13.421 C 8.851 13.386,9.322 13.238,9.588 13.132 C 11.761 12.259,13.299 10.258,13.588 7.927 C 13.634 7.547,13.635 6.808,13.589 6.411 C 13.533 5.938,13.401 5.381,13.249 4.976 C 13.217 4.891,13.199 4.813,13.209 4.803 C 13.266 4.748,13.614 4.570,13.632 4.588 C 13.643 4.599,13.699 4.747,13.756 4.917 M2.178 5.244 C 2.076 5.336,1.893 5.993,1.824 6.512 C 1.785 6.804,1.785 7.539,1.825 7.833 C 1.861 8.107,1.946 8.495,2.026 8.758 C 2.418 10.039,3.289 11.137,4.469 11.839 C 4.839 12.059,5.098 12.173,5.578 12.327 C 5.891 12.428,5.955 12.427,6.043 12.322 L 6.103 12.251 6.103 11.237 C 6.103 10.352,6.098 10.216,6.065 10.169 C 6.044 10.139,5.923 10.062,5.795 9.998 C 5.513 9.856,5.229 9.657,5.030 9.462 L 4.882 9.316 4.465 9.557 C 4.236 9.689,4.025 9.809,3.997 9.824 C 3.947 9.850,3.921 9.810,3.435 8.968 C 3.155 8.483,2.906 8.053,2.882 8.013 L 2.839 7.941 3.434 7.596 L 4.030 7.250 4.045 6.980 C 4.054 6.821,4.085 6.614,4.121 6.473 C 4.174 6.263,4.177 6.232,4.145 6.209 C 4.125 6.194,3.721 5.959,3.248 5.686 C 2.331 5.158,2.291 5.142,2.178 5.244 M11.149 5.697 C 10.667 5.975,10.264 6.211,10.254 6.220 C 10.244 6.230,10.263 6.344,10.296 6.474 C 10.332 6.614,10.363 6.821,10.372 6.980 L 10.387 7.250 10.983 7.596 L 11.578 7.941 11.535 8.013 C 11.511 8.053,11.262 8.483,10.982 8.968 C 10.496 9.810,10.470 9.850,10.420 9.824 C 10.392 9.809,10.181 9.689,9.952 9.557 L 9.535 9.316 9.387 9.462 C 9.188 9.657,8.904 9.856,8.622 9.998 C 8.494 10.062,8.373 10.139,8.352 10.169 C 8.319 10.216,8.314 10.352,8.314 11.237 L 8.314 12.251 8.374 12.322 C 8.462 12.427,8.527 12.428,8.839 12.327 C 9.319 12.173,9.578 12.059,9.948 11.839 C 10.737 11.370,11.384 10.729,11.859 9.947 C 12.237 9.323,12.485 8.608,12.593 7.833 C 12.631 7.562,12.631 6.798,12.593 6.512 C 12.526 6.003,12.339 5.335,12.240 5.244 C 12.125 5.140,12.085 5.157,11.149 5.697 M3.267 5.986 C 3.611 6.185,3.879 6.355,3.876 6.372 C 3.874 6.390,3.855 6.496,3.834 6.608 C 3.814 6.720,3.797 6.867,3.797 6.934 C 3.797 7.001,3.783 7.073,3.766 7.094 C 3.750 7.116,3.489 7.276,3.187 7.451 C 2.700 7.733,2.633 7.779,2.602 7.854 C 2.569 7.932,2.570 7.947,2.614 8.038 C 2.671 8.154,3.817 10.143,3.844 10.172 C 3.855 10.183,4.080 10.066,4.346 9.913 L 4.829 9.634 5.040 9.805 C 5.258 9.982,5.625 10.215,5.761 10.262 L 5.839 10.289 5.839 11.212 C 5.839 11.988,5.834 12.134,5.805 12.134 C 5.728 12.134,5.252 11.953,4.955 11.810 C 3.176 10.952,2.042 9.151,2.042 7.181 C 2.042 6.652,2.128 6.083,2.274 5.640 L 2.335 5.453 2.495 5.542 C 2.582 5.591,2.930 5.791,3.267 5.986 M12.144 5.641 C 12.403 6.428,12.445 7.439,12.255 8.288 C 11.908 9.830,10.880 11.126,9.462 11.810 C 9.165 11.953,8.689 12.134,8.612 12.134 C 8.584 12.134,8.578 11.988,8.578 11.212 L 8.578 10.289 8.655 10.262 C 8.829 10.201,9.181 9.970,9.475 9.724 L 9.584 9.632 10.069 9.912 C 10.336 10.067,10.562 10.184,10.573 10.172 C 10.607 10.135,11.757 8.136,11.802 8.032 C 11.843 7.942,11.844 7.923,11.814 7.850 C 11.784 7.780,11.707 7.727,11.230 7.451 C 10.928 7.276,10.667 7.116,10.651 7.094 C 10.634 7.073,10.621 7.001,10.621 6.934 C 10.621 6.867,10.604 6.720,10.583 6.608 C 10.562 6.496,10.543 6.389,10.541 6.372 C 10.538 6.354,10.863 6.152,11.304 5.897 C 11.727 5.654,12.075 5.454,12.077 5.454 C 12.080 5.454,12.110 5.538,12.144 5.641 " stroke="none" fill-rule="evenodd" fill="black"></path></svg>