<svg id="Layer_2" data-name="Layer 2" xmlns="http://www.w3.org/2000/svg" viewBox="0 0 18.67594127 18.67594127"><path d="M9.141 3.323 C 9.042 5.030,8.962 6.467,8.963 6.515 L 8.964 6.603 9.330 6.582 C 9.531 6.570,9.702 6.554,9.709 6.548 C 9.729 6.530,9.359 0.218,9.338 0.218 C 9.329 0.218,9.240 1.615,9.141 3.323 M14.707 3.848 C 12.275 5.901,10.649 7.049,9.302 7.665 L 8.877 7.859 9.839 7.868 L 10.801 7.876 10.803 8.848 C 10.805 9.770,10.808 9.815,10.855 9.711 C 11.418 8.498,11.894 7.714,12.838 6.449 C 13.423 5.664,14.623 4.182,15.370 3.323 C 15.396 3.293,15.412 3.269,15.405 3.270 C 15.398 3.270,15.084 3.531,14.707 3.848 M9.396 5.346 C 9.416 5.753,9.441 6.138,9.451 6.202 L 9.468 6.319 9.338 6.319 L 9.208 6.319 9.225 6.202 C 9.235 6.138,9.260 5.753,9.280 5.346 C 9.301 4.939,9.327 4.607,9.338 4.607 C 9.349 4.607,9.375 4.939,9.396 5.346 M13.339 5.377 C 12.593 6.303,11.686 7.593,11.278 8.310 L 11.065 8.682 11.050 8.214 C 11.030 7.601,11.057 7.627,10.432 7.625 L 9.976 7.623 10.095 7.555 C 10.581 7.275,11.100 6.953,11.470 6.700 C 11.885 6.416,12.926 5.639,13.291 5.341 C 13.385 5.264,13.467 5.200,13.473 5.199 C 13.478 5.199,13.418 5.279,13.339 5.377 M7.361 8.433 L 7.890 8.964 7.353 8.964 L 6.817 8.964 6.817 9.338 L 6.817 9.711 7.299 9.711 L 7.782 9.711 7.782 9.875 L 7.782 10.038 6.723 11.097 L 5.665 12.156 6.093 12.583 L 6.522 13.011 7.579 11.952 L 8.637 10.894 8.801 10.894 L 8.964 10.894 8.964 11.377 L 8.964 11.859 9.338 11.859 L 9.711 11.859 9.711 11.323 L 9.711 10.786 10.244 11.315 L 10.777 11.844 10.757 11.268 C 10.747 10.951,10.730 10.475,10.719 10.210 L 10.700 9.727 9.834 8.857 L 8.968 7.986 8.460 7.965 C 8.181 7.953,7.701 7.934,7.393 7.923 L 6.832 7.902 7.361 8.433 M9.654 9.022 L 10.453 9.820 10.474 10.505 L 10.495 11.190 10.002 10.700 C 9.730 10.430,9.498 10.210,9.485 10.210 C 9.473 10.210,9.462 10.525,9.462 10.910 L 9.462 11.610 9.338 11.610 L 9.213 11.610 9.213 11.128 L 9.213 10.645 8.879 10.645 L 8.545 10.645 7.541 11.649 L 6.537 12.653 6.280 12.396 L 6.023 12.139 7.027 11.135 L 8.031 10.131 8.031 9.797 L 8.031 9.462 7.548 9.462 L 7.066 9.462 7.066 9.338 L 7.066 9.213 7.766 9.213 C 8.151 9.213,8.466 9.203,8.466 9.190 C 8.466 9.178,8.246 8.946,7.976 8.674 L 7.486 8.181 8.171 8.202 L 8.856 8.223 9.654 9.022 M3.215 9.149 C 1.585 9.246,0.244 9.332,0.236 9.341 C 0.228 9.349,1.648 9.439,3.393 9.540 C 5.138 9.641,6.574 9.716,6.584 9.706 C 6.594 9.696,6.592 9.525,6.580 9.326 L 6.559 8.964 6.369 8.968 C 6.264 8.971,4.845 9.052,3.215 9.149 M12.094 9.325 C 12.082 9.524,12.081 9.694,12.091 9.705 C 12.102 9.716,13.541 9.641,15.290 9.539 C 17.043 9.438,18.429 9.345,18.378 9.333 C 18.308 9.316,12.308 8.960,12.151 8.964 C 12.129 8.964,12.109 9.095,12.094 9.325 M6.319 9.342 L 6.319 9.471 6.124 9.453 C 6.017 9.442,5.604 9.417,5.206 9.396 C 4.809 9.375,4.490 9.351,4.499 9.342 C 4.507 9.334,4.896 9.303,5.362 9.274 C 5.828 9.246,6.234 9.220,6.264 9.218 C 6.308 9.214,6.319 9.239,6.319 9.342 M13.307 9.278 C 13.700 9.297,14.064 9.323,14.115 9.335 C 14.169 9.348,13.906 9.373,13.477 9.396 C 13.075 9.417,12.659 9.442,12.552 9.453 L 12.357 9.471 12.357 9.340 L 12.357 9.208 12.474 9.225 C 12.538 9.234,12.913 9.258,13.307 9.278 M8.963 12.178 C 8.959 12.362,9.323 18.458,9.338 18.458 C 9.353 18.458,9.717 12.359,9.713 12.178 C 9.712 12.110,9.704 12.108,9.338 12.108 C 8.972 12.108,8.964 12.110,8.963 12.178 M9.451 12.474 C 9.441 12.538,9.416 12.923,9.396 13.330 C 9.375 13.737,9.349 14.069,9.338 14.069 C 9.327 14.069,9.301 13.737,9.280 13.330 C 9.260 12.923,9.235 12.538,9.225 12.474 L 9.208 12.357 9.338 12.357 L 9.468 12.357 9.451 12.474 " stroke="none" fill-rule="evenodd" fill="black"></path></svg>