<svg id="Layer_2" data-name="Layer 2" xmlns="http://www.w3.org/2000/svg" viewBox="0 0 18.73213942 18.67594127"><path d="M9.355 0.312 C 9.334 0.545,8.991 6.383,8.991 6.517 C 8.991 6.586,8.998 6.587,9.364 6.587 C 9.569 6.587,9.742 6.577,9.749 6.564 C 9.756 6.551,9.675 5.087,9.569 3.309 C 9.424 0.874,9.372 0.136,9.355 0.312 M9.473 6.033 L 9.494 6.338 9.383 6.338 L 9.272 6.338 9.273 6.143 C 9.274 5.974,9.355 4.599,9.369 4.511 C 9.372 4.494,9.392 4.761,9.414 5.105 C 9.435 5.448,9.462 5.866,9.473 6.033 M10.599 7.341 C 8.470 8.509,6.704 9.486,6.675 9.512 C 6.637 9.547,6.004 10.622,5.689 11.188 C 5.681 11.202,5.708 11.197,5.749 11.175 C 6.207 10.935,13.762 6.789,13.790 6.763 C 13.811 6.744,13.977 6.405,14.160 6.010 C 14.558 5.148,14.530 5.213,14.497 5.216 C 14.483 5.217,12.728 6.173,10.599 7.341 M13.890 5.986 C 13.838 6.102,13.751 6.288,13.696 6.398 L 13.596 6.599 10.006 8.564 C 8.031 9.644,6.399 10.535,6.378 10.543 C 6.358 10.551,6.452 10.364,6.588 10.126 L 6.836 9.694 10.403 7.736 C 12.366 6.659,13.974 5.778,13.977 5.777 C 13.980 5.776,13.941 5.871,13.890 5.986 M9.163 9.681 C 7.189 10.764,5.563 11.666,5.550 11.686 C 5.430 11.879,4.591 13.343,4.597 13.349 C 4.614 13.366,12.089 9.248,12.145 9.192 C 12.177 9.159,12.326 8.823,12.474 8.445 C 12.623 8.067,12.751 7.748,12.759 7.735 C 12.766 7.722,12.768 7.712,12.763 7.712 C 12.758 7.713,11.138 8.599,9.163 9.681 M12.193 8.468 C 12.153 8.576,12.087 8.746,12.046 8.846 L 11.973 9.028 8.648 10.855 C 6.819 11.859,5.305 12.688,5.283 12.697 C 5.261 12.706,5.360 12.515,5.502 12.271 L 5.760 11.828 9.007 10.051 C 10.793 9.074,12.257 8.274,12.260 8.274 C 12.264 8.274,12.234 8.361,12.193 8.468 M3.536 9.130 C 1.729 9.237,0.244 9.330,0.236 9.338 C 0.228 9.346,1.538 9.426,3.147 9.516 C 4.756 9.606,6.111 9.686,6.157 9.694 C 6.234 9.706,6.255 9.688,6.358 9.512 C 6.470 9.324,6.488 9.309,6.835 9.124 L 7.196 8.931 7.009 8.934 C 6.906 8.935,5.343 9.024,3.536 9.130 M12.498 9.046 C 12.378 9.381,12.391 9.366,12.057 9.549 C 11.884 9.645,11.746 9.727,11.751 9.732 C 11.756 9.737,13.283 9.654,15.145 9.546 C 17.237 9.425,18.482 9.342,18.404 9.328 C 18.287 9.307,12.842 8.989,12.620 8.991 C 12.551 8.991,12.511 9.009,12.498 9.046 M6.212 9.265 C 6.212 9.277,6.186 9.321,6.155 9.362 L 6.098 9.436 5.329 9.395 C 4.906 9.373,4.567 9.347,4.576 9.337 C 4.594 9.319,5.604 9.254,5.986 9.246 C 6.111 9.243,6.213 9.252,6.212 9.265 M13.362 9.273 C 14.269 9.324,14.307 9.341,13.612 9.385 C 13.277 9.406,12.917 9.424,12.811 9.426 L 12.618 9.429 12.654 9.335 C 12.673 9.283,12.711 9.241,12.737 9.241 C 12.763 9.241,13.045 9.256,13.362 9.273 M8.991 12.148 C 8.991 12.288,9.333 18.123,9.355 18.357 C 9.372 18.535,9.424 17.805,9.569 15.360 C 9.674 13.583,9.759 12.126,9.756 12.121 C 9.753 12.117,9.580 12.104,9.371 12.093 L 8.991 12.073 8.991 12.148 M9.481 12.527 C 9.471 12.634,9.445 13.049,9.424 13.448 C 9.403 13.847,9.381 14.168,9.375 14.162 C 9.361 14.148,9.273 12.737,9.273 12.512 L 9.272 12.332 9.386 12.332 L 9.500 12.332 9.481 12.527 " stroke="none" fill-rule="evenodd" fill="black"></path></svg>