<svg id="Layer_2" data-name="Layer 2" xmlns="http://www.w3.org/2000/svg" viewBox="0 0 14.55002441 14.55002441"><path d="M7.117 0.033 C 7.015 0.081,6.936 0.162,6.894 0.263 C 6.863 0.337,6.860 0.558,6.873 1.890 C 6.882 2.738,6.895 3.490,6.902 3.562 L 6.916 3.693 7.095 3.514 L 7.275 3.336 7.455 3.514 L 7.634 3.692 7.648 3.538 C 7.656 3.453,7.669 2.698,7.677 1.862 C 7.692 0.353,7.692 0.340,7.642 0.237 C 7.614 0.180,7.552 0.107,7.505 0.075 C 7.401 0.005,7.220 -0.015,7.117 0.033 M7.396 0.307 C 7.428 0.336,7.432 0.465,7.426 1.219 C 7.423 1.702,7.413 2.319,7.405 2.590 L 7.390 3.082 7.332 3.028 L 7.275 2.974 7.214 3.031 L 7.154 3.088 7.152 3.029 C 7.130 2.083,7.117 0.386,7.132 0.345 C 7.170 0.246,7.311 0.225,7.396 0.307 M4.694 3.401 C 4.577 3.978,4.474 4.457,4.466 4.466 C 4.457 4.475,3.978 4.578,3.401 4.696 C 2.824 4.814,2.352 4.916,2.352 4.923 C 2.352 4.944,6.182 6.218,6.198 6.202 C 6.215 6.185,4.943 2.352,4.921 2.352 C 4.913 2.352,4.811 2.824,4.694 3.401 M8.976 4.270 C 8.625 5.324,8.344 6.194,8.352 6.202 C 8.368 6.218,12.198 4.944,12.198 4.923 C 12.198 4.916,11.726 4.814,11.149 4.696 C 10.572 4.578,10.093 4.475,10.084 4.466 C 10.076 4.457,9.973 3.978,9.856 3.401 C 9.739 2.824,9.637 2.352,9.629 2.352 C 9.621 2.352,9.327 3.215,8.976 4.270 M5.809 5.815 C 5.803 5.820,5.231 5.636,4.538 5.405 C 3.844 5.174,3.279 4.982,3.281 4.980 C 3.284 4.977,3.559 4.919,3.892 4.851 C 4.226 4.783,4.535 4.716,4.580 4.701 C 4.687 4.666,4.705 4.618,4.814 4.074 C 4.863 3.827,4.920 3.549,4.941 3.456 L 4.979 3.286 5.399 4.545 C 5.630 5.238,5.815 5.809,5.809 5.815 M9.710 3.946 C 9.782 4.293,9.852 4.599,9.867 4.626 C 9.903 4.693,9.953 4.708,10.658 4.851 C 10.991 4.919,11.266 4.977,11.269 4.980 C 11.271 4.982,10.706 5.174,10.012 5.405 C 9.319 5.636,8.747 5.820,8.741 5.815 C 8.736 5.809,8.919 5.241,9.148 4.553 C 9.378 3.864,9.569 3.304,9.573 3.308 C 9.577 3.313,9.639 3.600,9.710 3.946 M7.190 3.672 C 7.150 3.691,6.869 3.955,6.566 4.260 L 6.014 4.814 6.188 5.323 C 6.284 5.603,6.366 5.837,6.371 5.843 C 6.376 5.849,6.581 5.653,6.827 5.407 L 7.275 4.960 7.723 5.407 C 7.969 5.653,8.175 5.849,8.180 5.843 C 8.199 5.822,8.512 4.862,8.512 4.825 C 8.512 4.783,7.396 3.662,7.355 3.662 C 7.340 3.662,7.313 3.657,7.295 3.651 C 7.277 3.644,7.230 3.654,7.190 3.672 M7.767 4.384 L 8.246 4.863 8.161 5.115 C 8.114 5.253,8.070 5.373,8.063 5.380 C 8.055 5.387,7.875 5.219,7.662 5.007 L 7.275 4.620 6.878 5.017 L 6.481 5.413 6.390 5.141 L 6.299 4.869 6.781 4.386 C 7.046 4.121,7.268 3.904,7.275 3.904 C 7.282 3.904,7.503 4.120,7.767 4.384 M9.215 6.190 C 8.942 6.285,8.713 6.366,8.707 6.371 C 8.701 6.376,8.897 6.581,9.143 6.827 L 9.590 7.275 9.143 7.723 C 8.897 7.969,8.701 8.174,8.707 8.179 C 8.713 8.184,8.947 8.266,9.227 8.362 L 9.736 8.536 10.318 7.955 C 10.885 7.387,10.899 7.371,10.899 7.275 C 10.899 7.180,10.885 7.163,10.318 6.596 C 9.998 6.276,9.731 6.015,9.724 6.016 C 9.718 6.017,9.488 6.095,9.215 6.190 M4.220 6.608 C 3.666 7.162,3.651 7.180,3.651 7.275 C 3.651 7.370,3.666 7.388,4.220 7.942 C 4.533 8.255,4.805 8.512,4.826 8.512 C 4.862 8.512,5.822 8.199,5.843 8.180 C 5.849 8.175,5.653 7.969,5.407 7.723 L 4.960 7.275 5.407 6.827 C 5.653 6.581,5.849 6.375,5.843 6.370 C 5.822 6.351,4.862 6.038,4.826 6.038 C 4.805 6.038,4.533 6.295,4.220 6.608 M5.147 6.400 C 5.277 6.444,5.384 6.486,5.384 6.495 C 5.384 6.503,5.212 6.683,5.002 6.893 L 4.620 7.275 5.007 7.662 C 5.219 7.875,5.387 8.055,5.380 8.063 C 5.373 8.070,5.253 8.114,5.115 8.161 L 4.863 8.246 4.378 7.760 L 3.892 7.275 4.377 6.790 C 4.644 6.523,4.873 6.308,4.886 6.313 C 4.900 6.318,5.017 6.357,5.147 6.400 M10.173 6.790 L 10.658 7.275 10.170 7.763 L 9.682 8.251 9.442 8.172 C 9.311 8.129,9.192 8.084,9.179 8.072 C 9.165 8.058,9.303 7.903,9.543 7.663 L 9.930 7.275 9.543 6.888 C 9.331 6.675,9.165 6.492,9.175 6.482 C 9.194 6.462,9.619 6.310,9.664 6.307 C 9.677 6.306,9.906 6.523,10.173 6.790 M0.255 6.896 C -0.063 7.044,-0.084 7.471,0.220 7.633 L 0.327 7.691 1.855 7.676 C 2.695 7.668,3.453 7.656,3.538 7.648 L 3.692 7.634 3.514 7.455 L 3.336 7.275 3.513 7.096 L 3.691 6.917 3.125 6.902 C 2.813 6.894,2.056 6.882,1.443 6.875 C 0.521 6.865,0.315 6.868,0.255 6.896 M12.222 6.888 C 11.655 6.897,11.115 6.906,11.022 6.908 L 10.853 6.911 11.034 7.093 L 11.214 7.275 11.036 7.455 L 10.858 7.634 11.012 7.648 C 11.098 7.656,11.855 7.668,12.695 7.676 L 14.223 7.691 14.330 7.633 C 14.455 7.566,14.550 7.414,14.550 7.279 C 14.550 7.157,14.468 7.006,14.364 6.936 C 14.276 6.876,14.267 6.875,13.764 6.873 C 13.483 6.872,12.789 6.878,12.222 6.888 M2.566 7.145 L 3.083 7.159 3.029 7.217 L 2.974 7.275 3.030 7.334 L 3.085 7.393 2.979 7.405 C 2.756 7.433,0.384 7.445,0.336 7.419 C 0.227 7.360,0.233 7.174,0.345 7.132 C 0.401 7.111,1.623 7.118,2.566 7.145 M14.250 7.159 C 14.310 7.219,14.303 7.346,14.236 7.400 C 14.184 7.442,14.119 7.444,12.929 7.431 C 12.240 7.424,11.629 7.412,11.571 7.405 L 11.465 7.393 11.521 7.334 L 11.576 7.275 11.519 7.214 L 11.462 7.154 11.605 7.150 C 12.095 7.139,13.844 7.113,14.010 7.115 C 14.163 7.117,14.218 7.127,14.250 7.159 M8.548 9.006 C 8.921 10.152,9.614 12.197,9.629 12.197 C 9.637 12.198,9.740 11.720,9.859 11.137 L 10.076 10.076 11.137 9.859 C 11.720 9.740,12.198 9.637,12.198 9.629 C 12.198 9.621,11.326 9.325,10.262 8.970 L 8.325 8.324 8.548 9.006 M4.250 8.980 C 3.206 9.329,2.352 9.621,2.352 9.629 C 2.352 9.637,2.830 9.740,3.413 9.859 L 4.474 10.076 4.691 11.137 C 4.810 11.720,4.914 12.198,4.921 12.198 C 4.935 12.198,6.212 8.395,6.209 8.360 C 6.209 8.350,6.194 8.343,6.178 8.344 C 6.161 8.345,5.293 8.631,4.250 8.980 M6.190 9.221 L 6.014 9.736 6.596 10.318 C 7.163 10.885,7.179 10.899,7.275 10.899 C 7.370 10.899,7.387 10.885,7.942 10.330 C 8.255 10.017,8.512 9.745,8.512 9.724 C 8.512 9.688,8.199 8.728,8.180 8.707 C 8.175 8.701,7.969 8.897,7.723 9.143 L 7.275 9.590 6.832 9.148 C 6.589 8.905,6.384 8.706,6.378 8.706 C 6.371 8.706,6.287 8.938,6.190 9.221 M5.820 8.748 C 5.820 8.788,4.990 11.254,4.980 11.244 C 4.974 11.238,4.915 10.968,4.848 10.643 C 4.708 9.957,4.697 9.916,4.631 9.875 C 4.605 9.858,4.318 9.790,3.995 9.724 C 3.672 9.658,3.380 9.596,3.347 9.588 C 3.301 9.577,3.607 9.465,4.535 9.153 C 5.222 8.923,5.792 8.733,5.802 8.732 C 5.812 8.731,5.820 8.738,5.820 8.748 M10.040 9.163 C 10.946 9.467,11.248 9.577,11.204 9.588 C 11.170 9.596,10.879 9.657,10.556 9.723 C 10.233 9.790,9.947 9.858,9.919 9.875 C 9.853 9.916,9.842 9.956,9.702 10.643 C 9.635 10.968,9.576 11.238,9.570 11.244 C 9.560 11.255,8.730 8.788,8.730 8.747 C 8.730 8.736,8.749 8.733,8.772 8.740 C 8.796 8.748,9.366 8.938,10.040 9.163 M6.893 9.548 L 7.275 9.930 7.662 9.543 C 7.875 9.331,8.055 9.163,8.063 9.170 C 8.070 9.177,8.114 9.297,8.161 9.435 L 8.246 9.687 7.760 10.172 L 7.275 10.658 6.787 10.170 L 6.299 9.682 6.378 9.442 C 6.465 9.179,6.470 9.167,6.494 9.167 C 6.503 9.167,6.683 9.338,6.893 9.548 M6.902 10.988 C 6.895 11.060,6.882 11.817,6.874 12.671 L 6.859 14.223 6.917 14.330 C 7.074 14.624,7.495 14.614,7.642 14.313 C 7.692 14.210,7.692 14.197,7.677 12.688 C 7.669 11.852,7.656 11.098,7.648 11.012 L 7.634 10.858 7.455 11.036 L 7.275 11.214 7.095 11.036 L 6.916 10.857 6.902 10.988 M7.332 11.522 L 7.390 11.468 7.405 11.960 C 7.413 12.231,7.423 12.848,7.426 13.331 C 7.433 14.305,7.436 14.291,7.275 14.291 C 7.114 14.291,7.117 14.306,7.124 13.318 C 7.127 12.829,7.137 12.212,7.145 11.948 L 7.160 11.468 7.218 11.522 L 7.275 11.576 7.332 11.522 " stroke="none" fill-rule="evenodd" fill="black"></path></svg>