<svg id="Layer_2" data-name="Layer 2" xmlns="http://www.w3.org/2000/svg" viewBox="0 0 17.10338768 16.3567899"><path d="M8.371 0.228 C 8.350 0.391,7.982 5.501,7.982 5.621 C 7.982 5.683,7.782 5.794,6.022 6.720 L 4.062 7.750 2.223 7.880 C 1.212 7.952,0.327 8.019,0.257 8.029 C 0.176 8.041,0.796 8.093,1.933 8.168 C 2.925 8.235,3.744 8.296,3.752 8.304 C 3.760 8.312,3.663 8.559,3.536 8.852 C 3.409 9.146,3.308 9.389,3.313 9.393 C 3.319 9.399,6.982 7.474,9.369 6.210 L 9.802 5.981 10.050 5.421 C 10.367 4.705,10.371 4.691,10.305 4.618 C 10.277 4.587,10.223 4.561,10.186 4.561 C 10.150 4.561,9.829 4.715,9.473 4.903 C 9.117 5.090,8.819 5.237,8.810 5.228 C 8.801 5.219,8.703 4.055,8.592 2.642 C 8.446 0.780,8.385 0.114,8.371 0.228 M8.482 4.490 C 8.559 5.480,8.575 5.559,8.702 5.558 C 8.737 5.558,9.033 5.417,9.361 5.244 C 9.689 5.071,9.962 4.935,9.968 4.941 C 9.974 4.948,9.896 5.143,9.794 5.377 L 9.610 5.801 6.727 7.321 C 5.141 8.157,3.839 8.837,3.833 8.831 C 3.828 8.826,3.881 8.689,3.952 8.526 C 4.122 8.136,4.097 8.048,3.811 8.034 C 3.761 8.032,3.816 8.021,3.934 8.011 C 4.148 7.992,4.148 7.992,6.117 6.953 C 7.200 6.382,8.116 5.895,8.152 5.870 C 8.218 5.827,8.220 5.804,8.299 4.730 C 8.342 4.128,8.380 3.596,8.383 3.549 C 8.391 3.389,8.408 3.549,8.482 4.490 M14.250 4.488 C 14.056 4.589,11.254 6.063,8.025 7.764 L 2.153 10.856 2.072 11.037 C 2.027 11.136,1.901 11.426,1.791 11.681 C 1.598 12.129,1.593 12.148,1.637 12.216 C 1.666 12.260,1.710 12.286,1.755 12.286 C 1.811 12.286,13.911 5.944,14.184 5.772 C 14.221 5.748,14.339 5.515,14.501 5.141 C 14.643 4.814,14.767 4.523,14.776 4.495 C 14.794 4.445,14.685 4.304,14.629 4.304 C 14.615 4.304,14.445 4.387,14.250 4.488 M14.231 5.132 L 14.038 5.570 8.013 8.744 C 4.700 10.490,1.984 11.914,1.978 11.908 C 1.973 11.902,2.053 11.704,2.157 11.468 L 2.345 11.038 8.377 7.861 C 11.695 6.113,14.413 4.686,14.417 4.689 C 14.421 4.692,14.337 4.891,14.231 5.132 M9.920 8.666 L 6.685 10.372 6.421 10.978 C 6.276 11.311,6.157 11.612,6.157 11.648 C 6.157 11.730,6.229 11.802,6.309 11.800 C 6.343 11.799,6.730 11.608,7.169 11.375 C 7.841 11.018,7.970 10.958,7.987 10.998 C 7.997 11.025,8.084 12.168,8.180 13.540 C 8.275 14.912,8.363 16.091,8.374 16.161 C 8.388 16.247,8.465 15.368,8.617 13.396 C 8.739 11.806,8.848 10.497,8.859 10.487 C 8.870 10.477,9.692 10.041,10.684 9.519 L 12.489 8.569 12.546 8.436 L 12.603 8.303 12.836 8.287 C 12.965 8.277,13.926 8.221,14.972 8.162 C 16.018 8.103,16.865 8.047,16.853 8.037 C 16.842 8.028,16.018 7.972,15.022 7.913 C 14.027 7.855,13.127 7.800,13.024 7.791 L 12.835 7.775 13.015 7.365 C 13.114 7.140,13.186 6.956,13.175 6.957 C 13.164 6.958,11.699 7.727,9.920 8.666 M12.613 7.657 C 12.574 7.745,12.542 7.837,12.542 7.862 C 12.542 7.920,12.625 8.009,12.682 8.013 C 12.707 8.014,12.659 8.030,12.575 8.048 C 12.427 8.080,12.421 8.085,12.358 8.235 L 12.293 8.389 10.476 9.347 C 9.476 9.874,8.642 10.331,8.622 10.362 C 8.599 10.398,8.554 10.852,8.496 11.630 C 8.411 12.768,8.388 13.008,8.383 12.821 C 8.373 12.492,8.232 10.776,8.210 10.726 C 8.150 10.587,8.086 10.608,7.284 11.031 C 6.865 11.253,6.518 11.430,6.513 11.425 C 6.508 11.420,6.589 11.221,6.693 10.983 L 6.882 10.550 9.776 9.025 C 11.368 8.186,12.674 7.499,12.678 7.498 C 12.681 7.498,12.652 7.569,12.613 7.657 " stroke="none" fill-rule="evenodd" fill="black"></path></svg>