<svg id="Layer_2" data-name="Layer 2" xmlns="http://www.w3.org/2000/svg" viewBox="0 0 14.65002441 10.38995361"><path d="M5.612 0.037 C 5.577 0.056,5.536 0.107,5.521 0.150 C 5.502 0.205,5.494 1.231,5.494 3.721 L 5.494 7.215 6.348 6.361 L 7.203 5.506 7.203 6.977 L 7.203 8.448 3.840 8.447 L 0.476 8.446 0.541 8.392 C 0.576 8.363,1.518 7.576,2.634 6.643 C 3.750 5.711,4.660 4.945,4.656 4.941 C 4.652 4.936,3.630 5.224,2.385 5.580 C 1.141 5.935,0.095 6.226,0.061 6.226 L 0.000 6.226 0.000 8.237 C 0.000 10.235,0.000 10.249,0.051 10.313 L 0.101 10.377 4.557 10.377 C 7.417 10.377,9.029 10.369,9.058 10.353 C 9.082 10.340,9.114 10.294,9.129 10.252 C 9.148 10.197,9.156 9.169,9.156 6.681 L 9.156 3.187 8.302 4.041 L 7.447 4.895 7.447 3.424 L 7.447 1.953 10.810 1.954 L 14.174 1.955 14.112 2.009 C 14.078 2.039,13.136 2.826,12.018 3.758 C 10.901 4.691,9.990 5.457,9.994 5.461 C 9.998 5.465,11.020 5.178,12.265 4.822 C 13.509 4.466,14.555 4.175,14.589 4.175 L 14.650 4.175 14.650 2.171 C 14.650 0.844,14.642 0.152,14.625 0.121 C 14.557 -0.007,14.804 -0.000,10.067 0.001 C 6.299 0.002,5.668 0.007,5.612 0.037 M14.406 0.977 L 14.406 1.709 10.868 1.709 L 7.329 1.709 7.266 1.784 L 7.203 1.859 7.203 3.500 L 7.203 5.140 6.483 5.860 L 5.762 6.580 5.762 3.412 L 5.762 0.244 10.084 0.244 L 14.406 0.244 14.406 0.977 M14.397 3.948 C 14.383 3.962,11.055 4.911,11.049 4.903 C 11.046 4.899,11.797 4.267,12.718 3.498 L 14.394 2.101 14.400 3.020 C 14.404 3.525,14.402 3.943,14.397 3.948 M8.888 6.995 L 8.888 10.157 4.566 10.157 L 0.244 10.157 0.244 9.425 L 0.244 8.692 3.782 8.692 L 7.321 8.692 7.384 8.617 L 7.447 8.542 7.447 6.902 L 7.447 5.262 8.161 4.548 C 8.554 4.155,8.878 3.833,8.881 3.833 C 8.885 3.833,8.888 5.256,8.888 6.995 M3.229 5.819 C 2.379 6.532,0.329 8.243,0.288 8.273 C 0.246 8.303,0.244 8.265,0.244 7.379 L 0.244 6.453 1.911 5.975 C 2.827 5.712,3.586 5.496,3.597 5.495 C 3.608 5.495,3.442 5.640,3.229 5.819 " stroke="none" fill-rule="evenodd" fill="black"></path></svg>