<svg id="Layer_2" data-name="Layer 2" xmlns="http://www.w3.org/2000/svg" viewBox="0 0 9.5673207 14.26713341"><path d="M4.680 0.030 C 4.654 0.047,3.594 1.100,2.325 2.370 C 0.241 4.456,0.017 4.686,0.007 4.741 C 0.001 4.775,0.004 4.829,0.013 4.861 C 0.028 4.908,0.489 5.377,2.348 7.234 C 4.415 9.300,4.671 9.550,4.724 9.560 C 4.867 9.586,4.848 9.602,5.546 8.896 C 5.901 8.538,6.199 8.244,6.209 8.244 C 6.219 8.244,6.507 8.524,6.849 8.866 L 7.470 9.488 6.127 10.831 L 4.784 12.174 3.444 10.835 L 2.104 9.495 2.462 9.127 L 2.820 8.759 2.275 8.215 L 1.730 7.670 0.874 8.527 C -0.048 9.450,-0.020 9.417,0.008 9.554 C 0.020 9.614,0.802 10.404,3.287 12.869 L 4.684 14.255 4.786 14.255 L 4.887 14.255 7.204 11.939 C 8.479 10.665,9.532 9.604,9.544 9.580 C 9.574 9.525,9.574 9.450,9.544 9.395 C 9.532 9.371,9.026 8.857,8.420 8.252 C 7.815 7.647,7.319 7.144,7.319 7.136 C 7.319 7.127,7.815 6.625,8.420 6.019 C 9.026 5.414,9.532 4.900,9.544 4.876 C 9.574 4.821,9.574 4.746,9.544 4.691 C 9.517 4.639,4.918 0.043,4.868 0.018 C 4.816 -0.009,4.734 -0.003,4.680 0.030 M7.048 2.527 L 9.304 4.783 8.185 5.904 C 6.991 7.100,7.031 7.055,7.055 7.189 C 7.065 7.240,7.206 7.387,8.185 8.368 L 9.304 9.488 7.045 11.747 L 4.786 14.005 2.529 11.759 C 1.287 10.524,0.271 9.505,0.271 9.496 C 0.271 9.487,0.598 9.153,0.997 8.754 L 1.722 8.029 2.092 8.398 L 2.461 8.768 2.107 9.131 L 1.752 9.494 3.216 10.956 C 4.773 12.510,4.707 12.451,4.835 12.427 C 4.910 12.413,7.674 9.656,7.711 9.558 C 7.762 9.425,7.772 9.438,7.012 8.680 C 6.277 7.946,6.289 7.956,6.158 7.980 C 6.107 7.990,6.010 8.080,5.441 8.647 L 4.783 9.304 4.062 8.586 C 2.001 6.537,0.271 4.806,0.271 4.793 C 0.271 4.778,4.768 0.271,4.783 0.271 C 4.788 0.271,5.807 1.286,7.048 2.527 M4.664 1.879 C 4.638 1.895,3.999 2.530,3.245 3.290 C 2.197 4.346,1.869 4.686,1.853 4.732 C 1.808 4.858,1.807 4.856,2.546 5.588 C 3.265 6.301,3.282 6.314,3.405 6.292 C 3.462 6.281,3.537 6.212,4.126 5.624 L 4.784 4.968 5.441 5.624 C 6.149 6.329,6.135 6.318,6.269 6.291 C 6.348 6.274,7.695 4.930,7.718 4.846 C 7.754 4.713,7.821 4.788,6.324 3.288 C 5.560 2.522,4.916 1.885,4.892 1.873 C 4.832 1.841,4.721 1.844,4.664 1.879 M6.131 3.444 L 7.470 4.784 6.841 5.415 L 6.211 6.046 5.581 5.408 C 5.235 5.057,4.926 4.755,4.895 4.737 C 4.821 4.694,4.745 4.695,4.665 4.742 C 4.630 4.763,4.321 5.065,3.980 5.413 L 3.359 6.046 2.733 5.420 L 2.107 4.794 3.441 3.450 C 4.175 2.710,4.779 2.105,4.783 2.105 C 4.788 2.105,5.394 2.708,6.131 3.444 M4.437 6.797 L 4.098 7.136 4.441 7.478 L 4.784 7.821 5.126 7.478 L 5.469 7.136 5.131 6.797 C 4.944 6.610,4.788 6.458,4.784 6.458 C 4.779 6.458,4.623 6.610,4.437 6.797 M4.955 6.972 L 5.119 7.136 4.951 7.303 L 4.784 7.470 4.616 7.303 L 4.449 7.136 4.612 6.972 C 4.702 6.882,4.779 6.809,4.784 6.809 C 4.788 6.809,4.866 6.882,4.955 6.972 " stroke="none" fill-rule="evenodd" fill="black"></path></svg>