<svg id="Layer_2" data-name="Layer 2" xmlns="http://www.w3.org/2000/svg" viewBox="0 0 14.39819923 14.39832867"><path d="M4.884 0.156 C 4.730 1.210,4.418 2.374,4.077 3.175 C 3.857 3.691,3.558 4.218,3.289 4.562 L 3.241 4.624 3.555 4.965 C 3.727 5.153,3.873 5.302,3.878 5.297 C 3.884 5.291,3.850 5.164,3.804 5.013 C 3.758 4.863,3.720 4.726,3.720 4.710 C 3.720 4.667,4.516 3.810,4.535 3.832 C 4.544 3.843,4.575 3.933,4.604 4.031 C 4.655 4.210,4.656 4.231,4.655 6.287 L 4.655 8.362 4.907 8.111 L 5.159 7.860 5.159 6.027 C 5.159 4.227,5.160 4.192,5.210 4.023 C 5.239 3.929,5.270 3.843,5.279 3.832 C 5.289 3.821,5.478 4.008,5.699 4.247 L 6.102 4.682 6.039 4.891 C 6.004 5.006,5.960 5.153,5.940 5.219 L 5.905 5.339 6.018 5.216 C 6.080 5.149,6.230 4.986,6.351 4.856 L 6.570 4.619 6.421 4.415 C 5.765 3.523,5.277 2.205,5.004 0.588 C 4.957 0.311,4.915 0.073,4.910 0.060 C 4.905 0.047,4.894 0.090,4.884 0.156 M13.642 0.710 C 13.378 0.911,12.543 1.457,12.195 1.657 C 11.332 2.153,10.279 2.550,9.578 2.643 L 9.363 2.672 9.349 3.022 C 9.341 3.214,9.330 3.428,9.324 3.498 C 9.319 3.567,9.322 3.623,9.331 3.623 C 9.342 3.623,9.627 3.102,9.634 3.070 C 9.635 3.065,10.836 3.008,10.842 3.013 C 10.846 3.016,10.807 3.103,10.754 3.207 C 10.668 3.376,10.604 3.449,10.144 3.908 L 9.629 4.421 9.411 4.404 L 9.193 4.387 9.206 4.143 L 9.220 3.900 8.725 4.393 L 8.231 4.886 8.231 5.009 L 8.231 5.132 7.841 5.497 C 6.798 6.475,6.176 6.889,5.465 7.077 L 5.291 7.123 5.675 7.306 C 5.886 7.408,6.064 7.495,6.070 7.502 C 6.076 7.508,5.590 8.004,4.990 8.604 L 3.900 9.695 4.302 9.695 L 4.703 9.695 4.703 10.097 L 4.703 10.498 5.794 9.408 C 6.394 8.808,6.890 8.322,6.897 8.328 C 6.903 8.335,6.991 8.512,7.092 8.723 L 7.276 9.107 7.332 8.903 C 7.522 8.208,7.946 7.574,8.900 6.557 L 9.267 6.167 9.389 6.167 L 9.512 6.167 10.006 5.674 L 10.499 5.181 10.256 5.197 L 10.014 5.213 9.997 4.990 L 9.980 4.766 10.491 4.253 C 10.949 3.794,11.022 3.730,11.191 3.644 C 11.295 3.592,11.382 3.552,11.385 3.556 C 11.395 3.571,11.348 4.527,11.332 4.641 L 11.315 4.758 11.039 4.905 C 10.711 5.079,10.706 5.076,11.317 5.051 L 11.726 5.035 11.767 4.767 C 11.863 4.123,12.093 3.457,12.491 2.664 C 12.786 2.075,13.275 1.300,13.745 0.678 C 13.777 0.635,13.800 0.600,13.795 0.601 C 13.790 0.601,13.721 0.650,13.642 0.710 M9.658 7.939 C 9.593 8.001,9.431 8.151,9.299 8.273 L 9.059 8.495 9.179 8.459 C 9.245 8.439,9.393 8.394,9.507 8.359 L 9.716 8.295 10.143 8.691 C 10.378 8.909,10.568 9.097,10.564 9.109 C 10.561 9.121,10.480 9.155,10.384 9.184 C 10.211 9.238,10.206 9.238,8.375 9.238 L 6.538 9.239 6.287 9.491 L 6.036 9.743 8.110 9.743 C 10.142 9.743,10.187 9.744,10.365 9.793 C 10.465 9.821,10.555 9.851,10.566 9.861 C 10.588 9.882,9.732 10.679,9.688 10.679 C 9.672 10.679,9.536 10.641,9.385 10.594 C 9.234 10.548,9.107 10.515,9.102 10.520 C 9.096 10.525,9.245 10.671,9.433 10.844 L 9.774 11.158 9.836 11.109 C 9.871 11.082,10.010 10.985,10.146 10.894 C 11.000 10.321,12.219 9.881,13.702 9.611 C 13.960 9.564,14.213 9.518,14.266 9.507 C 14.354 9.491,14.338 9.485,14.086 9.447 C 12.985 9.278,11.849 8.959,11.025 8.586 C 10.614 8.401,10.136 8.111,9.802 7.846 C 9.788 7.835,9.728 7.874,9.658 7.939 M0.000 9.491 L 0.000 9.887 1.566 9.887 L 3.132 9.887 3.528 9.491 L 3.923 9.095 1.961 9.095 L 0.000 9.095 0.000 9.491 M3.437 10.553 L 3.444 10.955 3.846 10.961 L 4.247 10.968 4.247 10.559 L 4.247 10.151 3.839 10.151 L 3.430 10.151 3.437 10.553 M4.901 10.877 L 4.511 11.267 4.511 12.833 L 4.511 14.398 4.907 14.398 L 5.303 14.398 5.303 12.442 C 5.303 11.367,5.301 10.487,5.297 10.487 C 5.294 10.487,5.115 10.662,4.901 10.877 M1.543 12.053 L 0.101 13.498 0.050 13.940 C 0.022 14.182,0.003 14.385,0.008 14.390 C 0.013 14.395,0.216 14.376,0.458 14.348 L 0.900 14.298 2.345 12.855 C 3.139 12.062,3.787 11.410,3.785 11.408 C 3.782 11.405,3.588 11.425,3.353 11.452 C 3.119 11.480,2.921 11.496,2.913 11.488 C 2.905 11.480,2.921 11.282,2.949 11.048 C 2.976 10.813,2.996 10.619,2.992 10.615 C 2.988 10.612,2.336 11.259,1.543 12.053 " stroke="none" fill-rule="evenodd" fill="black"></path></svg>