<svg id="Layer_2" data-name="Layer 2" xmlns="http://www.w3.org/2000/svg" viewBox="0 0 14.40002441 14.39996338"><path d="M6.942 2.994 L 6.948 5.988 7.200 5.988 L 7.452 5.988 7.458 2.994 L 7.464 0.000 7.200 -0.000 L 6.936 -0.000 6.942 2.994 M1.993 1.835 L 1.719 2.110 1.777 2.157 C 1.810 2.183,2.317 2.602,2.904 3.089 C 3.647 3.705,3.974 3.990,3.980 4.028 C 3.985 4.065,3.950 4.122,3.862 4.219 C 3.337 4.790,2.958 5.548,2.795 6.351 C 2.705 6.795,2.633 6.744,3.344 6.744 L 3.952 6.744 3.981 6.582 C 4.091 5.982,4.422 5.367,4.882 4.907 C 5.350 4.442,5.908 4.141,6.534 4.018 L 6.744 3.977 6.744 3.367 L 6.744 2.757 6.630 2.773 C 5.831 2.883,5.100 3.187,4.469 3.669 C 4.346 3.763,4.230 3.840,4.211 3.840 C 4.192 3.840,3.749 3.327,3.228 2.700 C 2.707 2.073,2.277 1.560,2.274 1.560 C 2.270 1.560,2.144 1.684,1.993 1.835 M11.174 2.697 C 10.651 3.325,10.207 3.840,10.187 3.840 C 10.167 3.840,10.051 3.763,9.929 3.669 C 9.310 3.191,8.570 2.884,7.770 2.773 L 7.656 2.757 7.656 3.367 L 7.656 3.977 7.866 4.018 C 8.638 4.169,9.341 4.613,9.824 5.254 C 10.098 5.618,10.339 6.131,10.415 6.516 C 10.430 6.595,10.449 6.679,10.455 6.702 C 10.466 6.741,10.516 6.744,11.066 6.744 C 11.643 6.744,11.664 6.742,11.664 6.697 C 11.664 6.588,11.558 6.112,11.479 5.868 C 11.275 5.235,10.952 4.670,10.538 4.219 C 10.450 4.122,10.415 4.065,10.420 4.028 C 10.426 3.990,10.753 3.705,11.496 3.089 C 12.083 2.602,12.590 2.183,12.623 2.157 L 12.681 2.110 12.403 1.831 L 12.125 1.553 11.174 2.697 M7.064 6.622 C 6.773 6.695,6.577 6.970,6.607 7.260 C 6.639 7.574,6.887 7.799,7.200 7.799 C 7.698 7.799,7.974 7.231,7.670 6.832 C 7.548 6.673,7.259 6.572,7.064 6.622 M0.000 7.200 L 0.000 7.464 2.976 7.464 L 5.952 7.464 5.952 7.200 L 5.952 6.936 2.976 6.936 L 0.000 6.936 0.000 7.200 M8.448 7.200 L 8.448 7.464 11.424 7.464 L 14.400 7.464 14.400 7.200 L 14.400 6.936 11.424 6.936 L 8.448 6.936 8.448 7.200 M2.729 7.782 C 2.833 8.663,3.245 9.565,3.852 10.246 C 3.948 10.353,3.985 10.413,3.979 10.452 C 3.974 10.492,3.661 10.765,2.850 11.436 L 1.728 12.364 1.996 12.650 C 2.143 12.807,2.266 12.933,2.269 12.930 C 2.272 12.927,2.698 12.416,3.214 11.796 C 3.917 10.952,4.168 10.666,4.211 10.661 C 4.252 10.655,4.311 10.688,4.409 10.767 C 4.568 10.897,4.860 11.089,5.088 11.215 C 5.475 11.428,6.187 11.659,6.582 11.701 L 6.745 11.718 6.738 11.111 L 6.732 10.505 6.540 10.465 C 5.880 10.328,5.299 10.006,4.830 9.518 C 4.378 9.048,4.090 8.504,3.970 7.890 L 3.929 7.680 3.323 7.680 L 2.717 7.680 2.729 7.782 M10.430 7.890 C 10.310 8.504,10.022 9.048,9.570 9.518 C 9.101 10.006,8.520 10.328,7.860 10.465 L 7.668 10.505 7.662 11.111 L 7.655 11.718 7.818 11.701 C 8.213 11.659,8.925 11.428,9.312 11.215 C 9.540 11.089,9.832 10.897,9.991 10.767 C 10.089 10.688,10.148 10.655,10.189 10.661 C 10.232 10.666,10.483 10.952,11.186 11.796 C 11.702 12.416,12.127 12.927,12.130 12.930 C 12.133 12.933,12.256 12.807,12.404 12.650 L 12.672 12.364 11.550 11.436 C 10.717 10.747,10.426 10.493,10.420 10.451 C 10.415 10.410,10.444 10.359,10.518 10.279 C 10.946 9.809,11.267 9.261,11.470 8.652 C 11.559 8.384,11.643 8.021,11.671 7.782 L 11.683 7.680 11.077 7.680 L 10.472 7.680 10.430 7.890 M6.936 11.436 L 6.936 14.376 7.200 14.376 L 7.464 14.376 7.464 11.436 L 7.464 8.496 7.200 8.496 L 6.936 8.496 6.936 11.436 " stroke="none" fill-rule="evenodd" fill="black"></path></svg>