<svg id="Layer_2" data-name="Layer 2" xmlns="http://www.w3.org/2000/svg" viewBox="0 0 14.30025281 14.30025281"><path d="M9.038 0.399 C 9.443 2.696,9.404 2.504,9.434 2.360 C 9.468 2.195,9.843 0.052,9.843 0.022 C 9.843 0.009,9.657 0.000,9.406 0.000 L 8.968 0.000 9.038 0.399 M9.414 4.008 C 8.608 4.402,7.940 4.732,7.930 4.741 C 7.920 4.750,8.116 4.794,8.365 4.838 C 8.615 4.882,8.818 4.924,8.818 4.932 C 8.818 4.939,7.655 6.109,6.233 7.531 C 4.810 8.954,3.647 10.125,3.647 10.135 C 3.647 10.145,3.759 10.153,3.897 10.153 L 4.147 10.153 4.147 10.403 C 4.147 10.541,4.155 10.654,4.165 10.654 C 4.175 10.654,5.347 9.490,6.769 8.068 C 8.191 6.645,9.361 5.482,9.368 5.482 C 9.376 5.482,9.418 5.686,9.462 5.935 C 9.506 6.184,9.550 6.380,9.560 6.370 C 9.594 6.335,11.011 3.417,11.011 3.382 C 11.011 3.335,10.963 3.289,10.917 3.290 C 10.897 3.291,10.221 3.614,9.414 4.008 M3.400 3.533 C 3.450 3.602,3.661 3.889,3.869 4.170 L 4.247 4.682 3.715 4.768 C 3.422 4.816,2.490 4.966,1.645 5.103 C 0.800 5.239,0.140 5.354,0.179 5.357 C 0.218 5.361,1.820 5.310,3.739 5.244 C 5.658 5.178,7.288 5.124,7.362 5.124 C 7.456 5.123,7.485 5.116,7.458 5.101 C 7.428 5.083,3.598 3.519,3.364 3.429 C 3.314 3.410,3.318 3.421,3.400 3.533 M13.037 4.673 C 12.388 4.789,11.847 4.885,11.833 4.887 C 11.813 4.890,12.577 5.028,13.901 5.262 L 14.300 5.332 14.300 4.894 C 14.300 4.493,14.297 4.457,14.259 4.459 C 14.236 4.461,13.686 4.557,13.037 4.673 M5.541 5.435 C 4.978 5.459,4.421 5.479,4.304 5.480 C 4.187 5.481,4.096 5.486,4.102 5.492 C 4.108 5.498,4.461 5.579,4.886 5.673 C 5.312 5.767,5.674 5.855,5.690 5.868 C 5.707 5.882,5.720 5.913,5.720 5.937 C 5.720 5.961,5.343 6.553,4.883 7.251 C 4.422 7.949,4.029 8.547,4.009 8.580 C 3.989 8.613,4.671 7.943,5.526 7.091 C 6.380 6.238,7.085 5.522,7.093 5.498 C 7.100 5.475,7.093 5.440,7.078 5.421 C 7.042 5.378,6.906 5.379,5.541 5.435 M9.176 6.935 C 9.176 7.006,9.122 8.641,9.056 10.569 C 8.990 12.496,8.939 14.104,8.943 14.142 C 8.946 14.179,9.100 13.281,9.283 12.146 C 9.466 11.010,9.625 10.082,9.637 10.082 C 9.653 10.082,10.637 10.796,10.865 10.972 C 10.891 10.992,10.890 10.982,10.863 10.915 C 10.844 10.869,10.466 9.937,10.022 8.842 C 9.578 7.748,9.206 6.842,9.196 6.830 C 9.185 6.817,9.176 6.865,9.176 6.935 M7.222 8.763 C 6.363 9.623,5.687 10.311,5.720 10.291 C 5.753 10.271,6.351 9.878,7.049 9.417 C 7.748 8.957,8.339 8.580,8.363 8.580 C 8.388 8.580,8.419 8.594,8.432 8.610 C 8.445 8.626,8.533 8.988,8.627 9.413 C 8.720 9.839,8.800 10.190,8.804 10.194 C 8.814 10.204,8.832 9.783,8.881 8.433 C 8.926 7.210,8.925 7.198,8.822 7.198 C 8.801 7.198,8.081 7.902,7.222 8.763 M2.955 10.999 L 2.955 11.345 3.313 11.345 L 3.670 11.345 3.670 10.999 L 3.670 10.654 3.313 10.654 L 2.955 10.654 2.955 10.999 M1.817 11.947 L 1.191 12.573 1.460 12.841 L 1.728 13.108 2.360 12.477 L 2.991 11.845 2.724 11.845 L 2.456 11.845 2.450 11.583 L 2.443 11.321 1.817 11.947 " stroke="none" fill-rule="evenodd" fill="black"></path></svg>