<svg id="Layer_2" data-name="Layer 2" xmlns="http://www.w3.org/2000/svg" viewBox="0 0 13.91603561 14.50786176"><path d="M12.065 0.853 C 10.822 1.467,10.353 1.708,10.383 1.720 C 10.406 1.730,10.650 1.776,10.924 1.823 C 11.198 1.871,11.427 1.913,11.431 1.916 C 11.436 1.920,10.374 2.996,9.071 4.307 L 6.702 6.691 6.957 6.698 L 7.213 6.704 7.213 6.976 L 7.213 7.248 9.601 4.860 C 10.915 3.547,11.993 2.477,11.998 2.483 C 12.002 2.489,12.046 2.718,12.095 2.992 C 12.144 3.266,12.190 3.510,12.198 3.533 C 12.209 3.562,12.471 3.053,13.065 1.851 C 13.533 0.903,13.916 0.111,13.916 0.092 C 13.916 0.045,13.870 -0.000,13.824 0.001 C 13.805 0.002,13.013 0.385,12.065 0.853 M7.120 2.460 C 6.310 2.803,5.628 3.092,5.604 3.102 C 5.573 3.116,5.706 3.160,6.080 3.258 C 6.365 3.333,6.603 3.398,6.609 3.403 C 6.615 3.407,5.724 4.308,4.628 5.403 L 2.637 7.394 2.774 7.409 C 2.849 7.417,2.959 7.430,3.019 7.436 L 3.126 7.449 3.143 7.679 C 3.152 7.805,3.166 7.909,3.174 7.909 C 3.182 7.909,4.082 7.016,5.174 5.924 L 7.158 3.940 7.296 4.462 C 7.372 4.749,7.440 4.977,7.448 4.968 C 7.479 4.935,8.721 1.962,8.721 1.922 C 8.721 1.883,8.655 1.830,8.612 1.834 C 8.602 1.835,7.930 2.117,7.120 2.460 M9.117 7.002 L 7.739 7.510 8.224 7.665 C 8.491 7.751,8.717 7.828,8.726 7.836 C 8.735 7.845,7.960 8.635,7.004 9.591 C 6.047 10.547,5.265 11.336,5.265 11.343 C 5.265 11.351,5.364 11.370,5.485 11.387 C 5.733 11.421,5.713 11.398,5.754 11.686 L 5.781 11.880 7.528 10.133 C 8.489 9.173,9.282 8.393,9.290 8.401 C 9.299 8.410,9.376 8.632,9.462 8.896 C 9.548 9.161,9.624 9.367,9.631 9.356 C 9.638 9.345,9.871 8.716,10.149 7.958 C 10.677 6.515,10.678 6.513,10.551 6.500 C 10.520 6.498,9.875 6.723,9.117 7.002 M6.053 7.504 L 6.053 7.887 6.430 7.881 L 6.807 7.874 6.814 7.497 L 6.820 7.120 6.437 7.120 L 6.053 7.120 6.053 7.504 M4.836 8.558 L 4.047 9.347 4.314 9.614 L 4.581 9.880 5.381 9.080 L 6.181 8.280 5.909 8.280 L 5.638 8.280 5.631 8.025 L 5.624 7.769 4.836 8.558 M1.995 8.176 L 1.995 8.558 2.377 8.558 L 2.760 8.558 2.760 8.176 L 2.760 7.793 2.377 7.793 L 1.995 7.793 1.995 8.176 M0.794 9.237 L -0.000 10.032 0.267 10.298 L 0.534 10.564 1.328 9.770 L 2.122 8.976 1.862 8.976 L 1.602 8.976 1.595 8.709 L 1.589 8.442 0.794 9.237 M4.615 12.142 L 4.615 12.524 4.998 12.524 L 5.381 12.524 5.381 12.142 L 5.381 11.759 4.998 11.759 L 4.615 11.759 4.615 12.142 M3.415 13.180 L 2.621 13.975 2.882 14.235 C 3.026 14.379,3.155 14.496,3.170 14.496 C 3.185 14.496,3.543 14.144,3.966 13.713 L 4.736 12.930 4.479 12.924 L 4.223 12.917 4.216 12.651 L 4.210 12.385 3.415 13.180 " stroke="none" fill-rule="evenodd" fill="black"></path></svg>