<svg id="Layer_2" data-name="Layer 2" xmlns="http://www.w3.org/2000/svg" viewBox="0 0 15.43646193 15.43674392"><path d="M5.043 0.075 C 5.043 0.134,4.860 1.295,4.795 1.647 C 4.517 3.159,3.995 4.508,3.371 5.327 L 3.219 5.526 3.764 6.119 C 4.063 6.445,4.311 6.709,4.313 6.706 C 4.316 6.704,4.245 6.459,4.154 6.163 L 3.989 5.626 4.214 5.382 C 4.337 5.248,4.475 5.096,4.521 5.045 C 4.583 4.975,4.609 4.961,4.626 4.986 C 4.663 5.042,4.682 6.008,4.682 7.831 L 4.682 9.557 5.055 9.185 L 5.428 8.813 5.434 6.903 C 5.439 5.672,5.450 4.985,5.467 4.970 C 5.484 4.955,5.603 5.066,5.799 5.279 L 6.106 5.612 5.936 6.156 C 5.842 6.456,5.768 6.703,5.772 6.707 C 5.779 6.714,6.823 5.586,6.850 5.541 C 6.863 5.521,6.813 5.432,6.713 5.299 C 6.076 4.453,5.611 3.266,5.315 1.735 C 5.279 1.549,5.209 1.099,5.159 0.733 C 5.108 0.367,5.061 0.062,5.055 0.055 C 5.048 0.048,5.043 0.057,5.043 0.075 M14.266 1.096 C 12.714 2.269,11.537 2.928,10.409 3.257 C 10.117 3.342,9.588 3.447,9.454 3.447 C 9.401 3.447,9.393 3.462,9.380 3.583 C 9.363 3.747,9.309 5.073,9.319 5.082 C 9.323 5.086,9.443 4.868,9.587 4.597 C 9.791 4.213,9.861 4.102,9.908 4.089 C 9.942 4.080,10.152 4.065,10.375 4.056 L 10.782 4.038 10.740 4.122 C 10.716 4.169,10.412 4.493,10.064 4.843 C 9.475 5.435,9.423 5.480,9.339 5.480 C 9.181 5.479,9.178 5.472,9.198 5.104 L 9.216 4.772 8.737 5.248 L 8.259 5.724 8.259 5.841 L 8.259 5.958 7.390 6.821 C 6.371 7.834,6.201 7.968,5.686 8.157 L 5.493 8.228 5.617 8.282 C 5.686 8.312,5.745 8.336,5.749 8.336 C 5.753 8.336,5.812 8.360,5.879 8.390 L 6.002 8.444 4.879 9.567 C 4.261 10.185,3.756 10.699,3.756 10.709 C 3.756 10.720,3.970 10.728,4.232 10.728 L 4.708 10.728 4.708 11.204 C 4.708 11.466,4.717 11.680,4.727 11.680 C 4.738 11.680,5.252 11.175,5.869 10.558 L 6.992 9.435 7.047 9.557 C 7.076 9.625,7.101 9.683,7.101 9.688 C 7.101 9.692,7.124 9.750,7.153 9.818 L 7.206 9.941 7.318 9.663 C 7.507 9.193,7.628 9.042,8.603 8.059 L 9.478 7.178 9.595 7.178 L 9.713 7.178 10.188 6.700 L 10.664 6.222 10.368 6.239 C 10.205 6.248,10.054 6.261,10.031 6.267 C 9.998 6.276,9.986 6.251,9.973 6.143 L 9.957 6.007 10.581 5.382 C 10.924 5.038,11.248 4.733,11.301 4.706 L 11.398 4.655 11.384 4.984 C 11.376 5.165,11.364 5.371,11.356 5.443 L 11.343 5.573 10.899 5.810 C 10.654 5.940,10.434 6.061,10.411 6.079 C 10.376 6.104,10.531 6.105,11.164 6.084 C 11.602 6.069,11.965 6.052,11.971 6.045 C 11.977 6.038,12.001 5.900,12.026 5.737 C 12.110 5.169,12.251 4.709,12.542 4.052 C 12.907 3.227,13.354 2.497,14.117 1.476 C 14.497 0.969,14.546 0.900,14.531 0.901 C 14.527 0.901,14.407 0.989,14.266 1.096 M5.260 2.650 C 5.532 3.714,5.951 4.679,6.436 5.356 L 6.541 5.503 6.444 5.621 C 6.391 5.685,6.343 5.734,6.338 5.729 C 6.333 5.724,6.342 5.683,6.357 5.638 C 6.390 5.544,6.437 5.605,5.794 4.908 C 5.576 4.670,5.388 4.477,5.378 4.477 C 5.368 4.477,5.317 4.614,5.266 4.782 L 5.171 5.087 5.171 6.899 L 5.171 8.711 5.060 8.820 L 4.948 8.930 4.932 6.992 L 4.915 5.055 4.835 4.785 C 4.790 4.637,4.747 4.502,4.738 4.487 C 4.728 4.470,4.505 4.693,4.215 5.008 C 3.720 5.547,3.709 5.561,3.732 5.640 C 3.745 5.684,3.753 5.724,3.749 5.727 C 3.746 5.730,3.700 5.682,3.646 5.620 L 3.549 5.508 3.664 5.352 C 4.177 4.655,4.650 3.484,4.937 2.200 C 4.982 2.002,5.025 1.811,5.034 1.775 C 5.045 1.729,5.070 1.808,5.120 2.045 C 5.159 2.229,5.222 2.501,5.260 2.650 M13.361 2.090 C 13.351 2.108,13.276 2.221,13.196 2.341 C 12.833 2.888,12.551 3.406,12.290 4.001 C 12.036 4.582,11.854 5.155,11.797 5.557 C 11.758 5.833,11.772 5.814,11.595 5.814 L 11.436 5.814 11.517 5.765 L 11.598 5.715 11.613 5.424 C 11.656 4.626,11.673 4.257,11.667 4.250 C 11.663 4.245,11.523 4.311,11.355 4.396 L 11.050 4.550 10.376 5.227 L 9.702 5.904 9.718 6.223 L 9.733 6.541 9.875 6.526 L 10.018 6.512 9.813 6.716 C 9.626 6.904,9.599 6.921,9.481 6.936 C 9.352 6.952,9.351 6.953,8.572 7.728 C 7.759 8.536,7.523 8.795,7.324 9.093 L 7.206 9.271 7.152 9.145 C 7.122 9.075,7.092 9.013,7.085 9.006 C 7.079 9.000,6.599 9.468,6.019 10.048 L 4.965 11.101 4.965 10.786 L 4.965 10.471 4.650 10.471 L 4.335 10.471 5.384 9.423 C 5.960 8.846,6.432 8.367,6.432 8.357 C 6.432 8.348,6.374 8.320,6.303 8.295 C 6.232 8.269,6.175 8.241,6.175 8.231 C 6.175 8.222,6.246 8.170,6.333 8.117 C 6.597 7.953,6.899 7.680,7.715 6.861 L 8.497 6.077 8.509 5.949 C 8.521 5.828,8.535 5.807,8.723 5.620 L 8.925 5.420 8.910 5.562 L 8.895 5.704 9.214 5.719 L 9.532 5.734 10.208 5.060 C 10.881 4.390,10.885 4.385,11.038 4.099 C 11.122 3.941,11.191 3.803,11.191 3.793 C 11.191 3.775,10.727 3.788,10.013 3.825 C 9.706 3.841,9.696 3.843,9.660 3.908 C 9.625 3.972,9.624 3.969,9.623 3.831 L 9.622 3.687 9.809 3.655 C 10.797 3.484,11.922 2.996,13.121 2.218 C 13.255 2.131,13.369 2.059,13.373 2.059 C 13.378 2.058,13.372 2.073,13.361 2.090 M9.316 9.113 C 8.990 9.413,8.726 9.661,8.729 9.664 C 8.732 9.667,8.980 9.594,9.280 9.500 L 9.824 9.331 10.157 9.637 C 10.370 9.833,10.482 9.953,10.467 9.969 C 10.451 9.986,9.764 9.998,8.533 10.002 L 6.623 10.009 6.251 10.381 L 5.879 10.754 7.644 10.754 C 9.484 10.754,10.393 10.772,10.450 10.810 C 10.475 10.827,10.453 10.860,10.364 10.941 C 10.297 11.001,10.146 11.139,10.027 11.249 L 9.811 11.447 9.273 11.282 C 8.977 11.192,8.733 11.120,8.730 11.123 C 8.727 11.126,8.992 11.373,9.317 11.673 L 9.910 12.218 10.107 12.069 C 10.949 11.431,12.263 10.923,13.803 10.638 C 14.147 10.575,15.303 10.394,15.364 10.394 C 15.476 10.394,15.292 10.362,14.780 10.292 C 13.996 10.186,13.564 10.107,13.005 9.969 C 11.776 9.665,10.853 9.264,10.129 8.719 C 10.018 8.635,9.923 8.567,9.918 8.567 C 9.913 8.567,9.642 8.813,9.316 9.113 M10.011 8.950 C 10.295 9.171,10.794 9.457,11.224 9.644 C 11.833 9.909,12.905 10.235,13.527 10.344 C 13.630 10.362,13.705 10.385,13.694 10.395 C 13.683 10.405,13.599 10.426,13.507 10.443 C 13.190 10.501,12.508 10.677,12.140 10.796 C 11.334 11.055,10.573 11.420,10.065 11.790 L 9.930 11.889 9.817 11.791 C 9.755 11.737,9.707 11.690,9.710 11.687 C 9.713 11.684,9.752 11.692,9.797 11.704 C 9.876 11.727,9.890 11.717,10.428 11.222 C 10.743 10.932,10.966 10.708,10.950 10.699 C 10.934 10.690,10.801 10.646,10.653 10.602 L 10.385 10.523 8.429 10.523 L 6.472 10.523 6.599 10.394 L 6.726 10.265 8.538 10.265 L 10.350 10.265 10.655 10.171 C 10.823 10.119,10.960 10.068,10.960 10.057 C 10.960 10.018,9.901 9.069,9.859 9.071 C 9.835 9.072,9.786 9.081,9.751 9.092 C 9.698 9.107,9.708 9.091,9.802 9.007 C 9.866 8.950,9.925 8.903,9.934 8.902 C 9.942 8.902,9.977 8.923,10.011 8.950 M0.367 9.873 L 0.026 9.881 0.026 10.395 L 0.026 10.908 1.677 10.908 L 3.329 10.908 3.858 10.381 L 4.387 9.854 2.547 9.859 C 1.535 9.862,0.554 9.868,0.367 9.873 M3.486 10.394 L 3.203 10.677 1.743 10.660 L 0.283 10.643 0.283 10.377 L 0.283 10.111 2.026 10.111 L 3.769 10.111 3.486 10.394 M3.459 10.941 C 3.452 10.959,3.449 11.200,3.453 11.475 L 3.460 11.976 3.988 11.976 L 4.515 11.976 4.522 11.442 L 4.529 10.908 4.000 10.908 C 3.595 10.908,3.469 10.916,3.459 10.941 M5.048 11.585 L 4.528 12.108 4.528 13.759 L 4.528 15.411 5.055 15.411 L 5.583 15.411 5.583 13.237 C 5.583 12.041,5.580 11.063,5.576 11.063 C 5.572 11.063,5.334 11.298,5.048 11.585 M1.705 12.741 L 0.130 14.317 0.064 14.867 C 0.028 15.170,0.003 15.422,0.009 15.428 C 0.014 15.434,0.266 15.409,0.569 15.373 L 1.119 15.307 2.694 13.733 C 3.560 12.867,4.264 12.154,4.258 12.148 C 4.252 12.142,4.015 12.163,3.731 12.195 C 3.447 12.228,3.208 12.247,3.200 12.239 C 3.191 12.230,3.210 12.004,3.241 11.736 C 3.272 11.468,3.294 11.230,3.289 11.207 C 3.283 11.179,2.748 11.697,1.705 12.741 M4.271 11.449 L 4.271 11.732 3.988 11.732 L 3.705 11.732 3.705 11.449 L 3.705 11.166 3.988 11.166 L 4.271 11.166 4.271 11.449 M5.314 15.147 C 5.305 15.170,5.226 15.179,5.043 15.179 L 4.785 15.179 4.785 13.694 L 4.785 12.209 5.049 11.944 L 5.313 11.679 5.319 13.397 C 5.323 14.342,5.321 15.129,5.314 15.147 M2.932 12.194 C 2.914 12.365,2.907 12.512,2.916 12.521 C 2.925 12.530,3.072 12.522,3.243 12.504 C 3.413 12.487,3.558 12.477,3.564 12.482 C 3.569 12.488,2.993 13.073,2.282 13.783 L 0.991 15.073 0.645 15.113 C 0.454 15.134,0.296 15.149,0.293 15.146 C 0.290 15.143,0.305 14.984,0.327 14.793 L 0.366 14.446 1.655 13.154 C 2.364 12.444,2.948 11.867,2.954 11.873 C 2.960 11.879,2.950 12.023,2.932 12.194 " stroke="none" fill-rule="evenodd" fill="black"></path></svg>