<svg id="Layer_2" data-name="Layer 2" xmlns="http://www.w3.org/2000/svg" viewBox="0 0 14.86331021 13.03859573"><path d="M6.090 0.038 C 6.054 0.057,6.013 0.109,5.997 0.152 C 5.966 0.242,5.957 3.592,5.989 3.592 C 5.999 3.592,6.328 3.272,6.719 2.880 L 7.432 2.168 8.144 2.880 C 8.536 3.272,8.865 3.592,8.875 3.592 C 8.906 3.592,8.897 0.242,8.866 0.152 C 8.812 -0.002,8.828 -0.000,7.427 0.001 C 6.370 0.002,6.145 0.008,6.090 0.038 M8.645 1.628 L 8.645 3.007 8.092 2.457 C 7.542 1.911,7.538 1.907,7.432 1.907 C 7.325 1.907,7.321 1.911,6.771 2.457 L 6.218 3.007 6.218 1.628 L 6.218 0.248 7.432 0.248 L 8.645 0.248 8.645 1.628 M0.660 2.475 C 0.375 2.676,0.145 2.851,0.149 2.863 C 0.154 2.883,5.282 9.136,5.408 9.276 C 5.471 9.346,5.579 9.533,3.282 5.615 C 2.151 3.686,1.215 2.108,1.201 2.109 C 1.188 2.109,0.944 2.274,0.660 2.475 M11.506 5.605 C 9.329 9.505,9.421 9.338,9.470 9.290 C 9.597 9.163,14.441 3.012,14.425 2.998 C 14.414 2.988,14.188 2.821,13.922 2.626 C 13.656 2.431,13.428 2.262,13.414 2.252 C 13.398 2.241,12.655 3.547,11.506 5.605 M2.354 4.533 C 3.795 6.993,3.633 6.713,3.576 6.650 C 3.465 6.528,0.508 2.919,0.508 2.906 C 0.508 2.878,1.127 2.455,1.142 2.473 C 1.150 2.482,1.696 3.409,2.354 4.533 M13.786 2.836 C 13.943 2.952,14.071 3.055,14.070 3.065 C 14.070 3.076,13.417 3.909,12.617 4.917 C 11.818 5.926,11.169 6.738,11.175 6.723 C 11.209 6.632,13.463 2.626,13.480 2.626 C 13.492 2.626,13.630 2.721,13.786 2.836 M5.970 6.998 L 5.970 9.946 5.543 10.373 L 5.115 10.801 6.231 11.916 C 7.271 12.955,7.352 13.030,7.432 13.030 C 7.511 13.030,7.593 12.955,8.633 11.916 L 9.748 10.801 9.321 10.373 L 8.893 9.946 8.893 6.998 L 8.893 4.051 8.162 4.781 L 7.432 5.511 6.701 4.781 L 5.970 4.051 5.970 6.998 M7.364 5.745 C 7.410 5.763,7.453 5.763,7.500 5.745 C 7.537 5.731,7.810 5.478,8.107 5.183 L 8.645 4.645 8.645 7.354 L 8.645 10.063 9.016 10.439 L 9.387 10.815 8.409 11.792 L 7.432 12.770 6.454 11.792 L 5.476 10.815 5.847 10.439 L 6.218 10.063 6.218 7.354 L 6.218 4.645 6.757 5.183 C 7.053 5.478,7.326 5.731,7.364 5.745 M0.066 6.317 C 0.093 6.365,0.815 7.517,1.670 8.878 C 2.525 10.239,3.229 11.365,3.235 11.380 C 3.241 11.396,2.885 11.560,2.364 11.779 C 1.525 12.133,1.487 12.152,1.577 12.169 C 1.629 12.178,2.578 12.238,3.686 12.302 C 5.245 12.391,5.714 12.411,5.762 12.389 C 5.796 12.374,5.841 12.322,5.861 12.274 C 5.893 12.196,5.893 12.177,5.859 12.106 C 5.839 12.063,4.516 10.723,2.920 9.129 C 1.323 7.534,0.039 6.269,0.066 6.317 M11.923 9.147 C 10.293 10.777,9.008 12.082,8.994 12.121 C 8.960 12.212,9.015 12.350,9.101 12.389 C 9.149 12.411,9.618 12.391,11.177 12.302 C 12.285 12.238,13.234 12.178,13.286 12.169 C 13.376 12.152,13.338 12.133,12.500 11.779 C 11.974 11.558,11.622 11.396,11.629 11.380 C 11.634 11.364,12.338 10.238,13.193 8.878 C 14.825 6.280,14.849 6.243,14.835 6.243 C 14.830 6.243,13.519 7.550,11.923 9.147 M5.566 12.154 C 5.562 12.159,2.851 12.002,2.626 11.984 C 2.551 11.978,2.599 11.952,2.973 11.795 C 3.423 11.605,3.518 11.541,3.517 11.425 C 3.517 11.339,3.561 11.412,2.453 9.649 C 1.931 8.818,1.487 8.110,1.466 8.076 C 1.446 8.042,2.361 8.944,3.500 10.081 C 4.640 11.218,5.569 12.151,5.566 12.154 M13.396 8.082 C 13.280 8.261,11.451 11.177,11.404 11.259 C 11.331 11.384,11.330 11.475,11.401 11.552 C 11.434 11.587,11.639 11.689,11.891 11.795 C 12.129 11.895,12.302 11.980,12.275 11.983 C 12.247 11.986,11.640 12.022,10.925 12.063 C 10.209 12.104,9.546 12.143,9.451 12.151 L 9.277 12.166 11.346 10.096 C 12.483 8.958,13.418 8.026,13.423 8.026 C 13.428 8.026,13.416 8.051,13.396 8.082 " stroke="none" fill-rule="evenodd" fill="black"></path></svg>