<svg id="Layer_2" data-name="Layer 2" xmlns="http://www.w3.org/2000/svg" viewBox="0 0 13.88476031 14.89628492"><path d="M11.413 1.692 L 8.976 3.361 8.671 3.737 L 8.366 4.114 7.460 4.536 L 6.554 4.959 5.898 5.615 L 5.242 6.271 6.428 6.271 L 7.613 6.271 7.613 7.457 L 7.613 8.643 8.263 7.995 C 8.620 7.639,8.929 7.316,8.950 7.278 C 8.970 7.240,9.161 6.834,9.373 6.375 L 9.760 5.542 10.141 5.230 L 10.522 4.918 12.174 2.502 C 13.810 0.112,13.871 0.023,13.857 0.023 C 13.853 0.023,12.753 0.774,11.413 1.692 M4.125 1.140 L 3.610 1.655 3.968 2.012 C 4.165 2.209,4.320 2.375,4.313 2.382 C 4.306 2.389,3.563 2.417,2.661 2.443 C 0.838 2.497,0.927 2.486,0.880 2.655 C 0.867 2.705,0.817 4.161,0.764 6.063 C 0.713 7.889,0.666 9.566,0.658 9.789 L 0.643 10.194 1.258 9.581 C 1.596 9.245,1.884 8.942,1.897 8.910 C 1.913 8.873,1.951 7.870,1.998 6.288 C 2.040 4.880,2.080 3.721,2.088 3.713 C 2.095 3.706,3.222 3.665,4.593 3.622 C 6.706 3.556,7.092 3.539,7.138 3.508 C 7.214 3.459,7.256 3.326,7.222 3.243 C 7.207 3.209,6.620 2.605,5.917 1.902 L 4.640 0.625 4.125 1.140 M12.746 1.221 C 12.653 1.358,12.073 2.206,11.457 3.107 L 10.338 4.744 9.950 5.059 L 9.562 5.375 9.140 6.283 L 8.719 7.191 8.294 7.616 L 7.868 8.041 7.868 7.148 C 7.868 6.571,7.859 6.230,7.843 6.184 C 7.793 6.038,7.803 6.040,6.775 6.040 L 5.843 6.040 6.287 5.597 L 6.730 5.153 7.617 4.742 L 8.504 4.330 8.828 3.936 L 9.152 3.541 11.027 2.258 C 12.058 1.552,12.904 0.973,12.908 0.973 C 12.912 0.972,12.839 1.084,12.746 1.221 M5.808 2.140 C 6.437 2.769,6.947 3.288,6.941 3.293 C 6.936 3.298,5.822 3.335,4.467 3.377 C 1.849 3.456,1.911 3.452,1.849 3.568 C 1.831 3.602,1.798 4.439,1.745 6.222 L 1.667 8.827 1.302 9.193 C 1.065 9.431,0.935 9.546,0.930 9.522 C 0.923 9.490,1.111 2.746,1.119 2.740 C 1.121 2.738,1.976 2.713,3.020 2.684 C 4.064 2.654,4.922 2.627,4.928 2.622 C 4.934 2.617,4.720 2.395,4.454 2.128 L 3.969 1.643 4.293 1.319 C 4.471 1.141,4.627 0.995,4.640 0.995 C 4.653 0.995,5.178 1.510,5.808 2.140 M10.988 5.988 C 10.393 6.585,10.371 6.611,10.359 6.711 C 10.352 6.768,10.314 7.945,10.274 9.326 C 10.235 10.706,10.200 11.837,10.198 11.838 C 10.196 11.839,9.236 11.869,8.065 11.904 C 4.896 11.998,5.184 11.983,5.109 12.059 C 5.061 12.106,5.045 12.145,5.045 12.211 C 5.045 12.296,5.082 12.336,6.335 13.589 C 7.044 14.299,7.635 14.880,7.648 14.880 C 7.661 14.880,7.895 14.656,8.169 14.382 L 8.666 13.885 8.299 13.517 L 7.932 13.150 8.241 13.136 C 8.412 13.128,9.149 13.104,9.881 13.084 C 11.289 13.045,11.314 13.042,11.383 12.931 C 11.411 12.886,11.501 10.123,11.621 5.641 C 11.625 5.491,11.623 5.369,11.616 5.369 C 11.610 5.369,11.327 5.647,10.988 5.988 M11.260 9.377 C 11.207 11.245,11.158 12.778,11.151 12.784 C 11.145 12.791,10.417 12.817,9.533 12.843 C 8.649 12.868,7.797 12.896,7.639 12.904 L 7.353 12.918 7.830 13.396 L 8.308 13.874 7.972 14.209 L 7.636 14.544 6.492 13.400 C 5.862 12.770,5.352 12.251,5.357 12.246 C 5.362 12.241,6.475 12.202,7.830 12.160 C 10.530 12.076,10.382 12.089,10.434 11.940 C 10.447 11.902,10.489 10.763,10.531 9.298 L 10.606 6.723 10.977 6.347 C 11.181 6.141,11.351 5.974,11.353 5.977 C 11.356 5.980,11.314 7.510,11.260 9.377 M5.037 7.061 C 4.939 7.118,4.929 7.201,4.929 8.005 C 4.929 8.527,4.937 8.787,4.955 8.826 C 5.011 8.949,5.064 8.956,5.919 8.956 C 6.676 8.956,6.707 8.954,6.765 8.908 C 6.798 8.882,6.836 8.822,6.849 8.775 C 6.882 8.658,6.881 7.273,6.848 7.179 C 6.798 7.035,6.796 7.035,5.896 7.036 C 5.358 7.036,5.065 7.045,5.037 7.061 M6.356 7.289 L 6.618 7.289 6.618 7.923 C 6.618 8.271,6.612 8.589,6.604 8.629 L 6.589 8.701 5.887 8.701 L 5.184 8.701 5.184 7.980 L 5.184 7.259 5.639 7.274 C 5.889 7.283,6.212 7.289,6.356 7.289 M2.090 9.424 C 0.685 10.830,0.021 11.510,0.010 11.553 C 0.002 11.588,0.001 11.640,0.008 11.669 C 0.016 11.698,0.509 12.208,1.105 12.803 C 2.169 13.866,2.190 13.885,2.280 13.885 C 2.370 13.885,2.393 13.863,4.454 11.802 L 6.537 9.719 5.363 9.719 L 4.189 9.719 4.189 8.539 C 4.189 7.890,4.181 7.359,4.171 7.359 C 4.161 7.359,3.225 8.288,2.090 9.424 M4.011 9.895 L 4.075 9.951 5.017 9.951 L 5.959 9.951 4.119 11.790 L 2.280 13.630 1.273 12.624 L 0.266 11.617 2.094 9.789 L 3.922 7.960 3.934 8.900 L 3.946 9.839 4.011 9.895 " stroke="none" fill-rule="evenodd" fill="black"></path></svg>