<svg id="Layer_2" data-name="Layer 2" xmlns="http://www.w3.org/2000/svg" viewBox="0 0 15.25103016 15.19225204"><path d="M3.557 0.074 L 3.482 0.149 3.482 1.038 L 3.482 1.928 3.362 1.964 C 3.295 1.984,2.537 2.216,1.678 2.480 C 0.525 2.834,0.099 2.975,0.057 3.017 C -0.021 3.095,-0.019 3.228,0.062 3.307 C 0.129 3.373,9.532 9.541,9.545 9.527 C 9.560 9.512,3.943 0.164,3.869 0.083 C 3.770 -0.027,3.661 -0.030,3.557 0.074 M8.937 3.507 C 8.418 3.831,8.363 3.885,8.406 4.027 C 8.442 4.141,11.372 10.226,11.380 10.201 C 11.383 10.190,11.010 8.631,10.551 6.737 C 9.636 2.969,9.704 3.201,9.510 3.204 C 9.437 3.205,9.315 3.270,8.937 3.507 M11.632 6.179 L 11.565 6.231 11.569 7.468 C 11.571 8.149,11.579 9.035,11.588 9.438 L 11.603 10.170 11.992 8.269 C 12.205 7.223,12.380 6.339,12.379 6.304 C 12.377 6.161,12.295 6.126,11.964 6.126 C 11.735 6.126,11.690 6.133,11.632 6.179 M3.900 8.410 C 3.858 8.436,3.782 8.525,3.733 8.607 C 3.683 8.689,3.549 8.910,3.435 9.097 C 3.321 9.284,3.228 9.464,3.228 9.497 C 3.228 9.530,3.260 9.590,3.298 9.631 C 3.365 9.703,3.507 9.739,6.824 10.533 C 8.725 10.987,10.282 11.357,10.285 11.354 C 10.295 11.344,4.102 8.391,4.040 8.376 C 4.001 8.367,3.949 8.380,3.900 8.410 M12.544 10.019 C 12.516 10.034,12.299 10.238,12.061 10.472 L 11.629 10.898 10.855 10.458 C 10.429 10.216,10.076 10.022,10.071 10.027 C 10.066 10.032,10.256 10.389,10.494 10.820 L 10.927 11.603 10.498 12.036 C 10.054 12.483,10.010 12.549,10.064 12.679 C 10.080 12.718,10.639 13.296,11.306 13.962 L 12.520 15.175 12.646 15.175 L 12.772 15.175 13.985 13.962 C 14.652 13.296,15.211 12.718,15.227 12.679 C 15.244 12.640,15.249 12.577,15.240 12.538 C 15.221 12.461,12.876 10.090,12.755 10.026 C 12.674 9.983,12.614 9.981,12.544 10.019 M6.228 11.591 C 6.182 11.636,6.177 11.676,6.177 11.947 C 6.177 12.218,6.182 12.257,6.228 12.302 C 6.255 12.330,6.304 12.354,6.336 12.355 C 6.367 12.355,7.238 12.181,8.271 11.967 L 10.150 11.578 9.860 11.562 C 9.701 11.554,8.829 11.545,7.924 11.543 C 6.310 11.540,6.277 11.541,6.228 11.591 M13.034 12.957 C 12.835 13.156,12.660 13.319,12.646 13.319 C 12.613 13.319,11.921 12.629,11.921 12.595 C 11.921 12.581,12.084 12.407,12.283 12.207 L 12.645 11.845 13.020 12.220 L 13.395 12.594 13.034 12.957 " stroke="none" fill-rule="evenodd" fill="black"></path></svg>