<svg id="Layer_2" data-name="Layer 2" xmlns="http://www.w3.org/2000/svg" viewBox="0 0 14.48583017 14.48406216"><path d="M3.391 0.820 C 3.842 1.271,4.215 1.636,4.220 1.630 C 4.225 1.625,4.119 1.326,3.984 0.966 C 3.848 0.605,3.744 0.304,3.751 0.297 C 3.759 0.289,4.865 0.221,6.210 0.144 L 8.655 0.006 5.613 0.003 L 2.572 0.000 3.391 0.820 M0.513 0.537 L -0.000 1.051 0.000 2.148 L 0.000 3.246 0.712 3.959 L 1.424 4.672 2.619 4.678 L 3.815 4.685 3.815 4.395 L 3.815 4.106 2.764 4.099 L 1.713 4.092 1.170 3.548 L 0.628 3.004 0.628 2.063 L 0.628 1.122 1.014 0.737 L 1.400 0.351 1.238 0.188 C 1.149 0.098,1.064 0.024,1.051 0.024 C 1.037 0.024,0.795 0.255,0.513 0.537 M1.469 1.304 C 1.264 1.413,1.232 1.534,1.231 2.195 L 1.231 2.712 1.586 3.070 L 1.941 3.428 2.656 3.428 C 3.179 3.428,3.378 3.421,3.399 3.399 C 3.421 3.378,3.428 3.180,3.428 2.657 L 3.428 1.943 3.084 1.599 L 2.740 1.255 2.148 1.257 C 1.611 1.257,1.549 1.262,1.469 1.304 M4.154 3.760 C 4.155 4.235,4.163 4.640,4.172 4.661 C 4.181 4.681,5.036 5.523,6.072 6.532 C 7.367 7.793,7.958 8.384,7.963 8.423 C 7.968 8.455,7.948 8.512,7.921 8.549 C 7.893 8.587,7.871 8.631,7.871 8.648 C 7.871 8.666,8.134 8.943,8.456 9.265 C 9.094 9.902,9.075 9.890,9.273 9.811 L 9.372 9.771 9.734 10.131 C 9.932 10.328,10.834 11.236,11.737 12.149 L 13.378 13.807 13.339 13.867 C 13.285 13.949,13.303 13.976,13.588 14.239 C 13.775 14.412,13.845 14.462,13.898 14.462 C 13.954 14.462,14.018 14.411,14.227 14.202 C 14.387 14.041,14.486 13.923,14.486 13.893 C 14.486 13.827,13.980 13.327,13.913 13.327 C 13.886 13.327,13.850 13.344,13.833 13.365 C 13.805 13.398,13.542 13.143,11.812 11.415 C 10.718 10.322,9.813 9.410,9.801 9.388 C 9.787 9.362,9.791 9.307,9.814 9.231 C 9.834 9.167,9.850 9.098,9.850 9.079 C 9.850 9.026,8.689 7.871,8.636 7.871 C 8.611 7.871,8.561 7.891,8.526 7.915 C 8.491 7.939,8.444 7.966,8.421 7.974 C 8.390 7.985,7.958 7.576,6.689 6.334 L 4.998 4.678 4.992 4.097 L 4.986 3.515 4.599 3.208 C 4.387 3.039,4.199 2.900,4.183 2.899 C 4.159 2.898,4.153 3.084,4.154 3.760 M0.029 4.302 C 0.007 4.325,0.000 4.995,0.002 7.181 C 0.003 8.766,0.012 10.010,0.024 9.983 C 0.035 9.957,0.139 8.930,0.254 7.702 C 0.369 6.473,0.465 5.467,0.467 5.465 C 0.469 5.463,0.780 5.585,1.157 5.736 C 1.535 5.887,1.850 6.005,1.857 5.998 C 1.864 5.991,1.484 5.600,1.012 5.129 C 0.452 4.569,0.139 4.273,0.107 4.273 C 0.080 4.273,0.045 4.286,0.029 4.302 " stroke="none" fill-rule="evenodd" fill="black"></path></svg>