<svg id="Layer_2" xmlns="http://www.w3.org/2000/svg" viewBox="0 0 11.54 14.4508"><path d="M5.491 0.037 C 5.459 0.057,5.086 0.422,4.661 0.849 C 3.995 1.517,3.886 1.635,3.875 1.695 C 3.867 1.737,3.872 1.784,3.885 1.811 C 3.898 1.836,4.026 1.975,4.170 2.120 L 4.432 2.384 4.144 2.678 C 3.986 2.840,3.688 3.143,3.482 3.352 L 3.108 3.733 2.742 3.369 C 2.540 3.168,2.356 2.995,2.333 2.983 C 2.280 2.956,2.202 2.956,2.148 2.983 C 2.088 3.013,0.061 5.038,0.028 5.101 C -0.007 5.167,-0.008 5.238,0.028 5.305 C 0.077 5.397,2.120 7.420,2.179 7.435 C 2.304 7.465,2.339 7.441,2.750 7.030 L 3.145 6.637 5.164 8.645 L 7.184 10.652 6.684 11.154 L 6.184 11.656 6.184 11.761 L 6.184 11.867 7.443 13.128 C 8.136 13.822,8.726 14.401,8.755 14.417 C 8.817 14.450,8.892 14.452,8.950 14.423 C 9.009 14.393,11.479 11.926,11.512 11.863 C 11.545 11.801,11.548 11.726,11.519 11.669 C 11.490 11.611,9.023 9.140,8.962 9.108 C 8.936 9.093,8.882 9.079,8.842 9.076 C 8.771 9.070,8.762 9.077,8.291 9.548 L 7.811 10.027 7.728 9.953 C 7.683 9.912,6.771 9.010,5.703 7.950 L 3.761 6.021 4.121 5.659 L 4.481 5.296 4.481 5.203 L 4.481 5.109 4.113 4.738 L 3.744 4.368 3.838 4.266 C 3.890 4.210,4.185 3.904,4.494 3.587 L 5.057 3.010 5.285 3.236 L 5.514 3.462 5.608 3.462 L 5.702 3.462 6.498 2.669 C 6.970 2.197,7.305 1.849,7.321 1.811 C 7.378 1.679,7.380 1.681,6.542 0.840 C 6.112 0.408,5.737 0.043,5.708 0.028 C 5.637 -0.010,5.560 -0.007,5.491 0.037 M5.905 1.452 L 6.183 1.731 5.895 2.020 L 5.607 2.308 5.318 2.020 L 5.030 1.731 5.308 1.452 C 5.461 1.299,5.596 1.173,5.607 1.173 C 5.617 1.173,5.752 1.299,5.905 1.452 M2.659 4.803 L 3.058 5.202 2.652 5.608 L 2.246 6.015 1.846 5.609 L 1.446 5.203 1.834 4.805 C 2.047 4.587,2.230 4.407,2.241 4.406 C 2.251 4.405,2.439 4.584,2.659 4.803 M9.371 11.266 L 9.867 11.761 9.362 12.266 L 8.857 12.771 8.362 12.276 C 8.089 12.003,7.866 11.772,7.866 11.761 C 7.866 11.736,8.832 10.771,8.857 10.771 C 8.867 10.771,9.099 10.993,9.371 11.266 " stroke="none" fill-rule="evenodd" fill="black"></path></svg>