<svg id="Layer_2" xmlns="http://www.w3.org/2000/svg" viewBox="0 0 14.3172 14.3172"><path d="M3.609 3.609 C 1.624 5.594,-0.000 7.234,0.000 7.254 C 0.000 7.301,7.016 14.317,7.063 14.317 C 7.110 14.317,14.317 7.110,14.317 7.063 C 14.317 7.016,7.301 0.000,7.254 0.000 C 7.234 0.000,5.594 1.624,3.609 3.609 M9.181 5.145 C 10.221 6.191,11.072 7.064,11.072 7.085 C 11.072 7.134,7.134 11.072,7.086 11.072 C 7.037 11.072,3.243 7.301,3.244 7.254 C 3.246 7.208,7.208 3.246,7.254 3.244 C 7.274 3.243,8.141 4.099,9.181 5.145 " stroke="none" fill-rule="evenodd" fill="black"></path></svg>