<svg id="Layer_2" xmlns="http://www.w3.org/2000/svg" viewBox="0 0 14.3172 14.3172"><path d="M3.609 3.609 C 1.624 5.594,-0.000 7.234,-0.000 7.254 C -0.000 7.274,0.454 7.742,1.008 8.295 L 2.016 9.300 2.545 9.178 C 2.836 9.111,3.081 9.049,3.089 9.041 C 3.097 9.033,3.150 8.822,3.206 8.572 L 3.309 8.117 2.912 7.720 L 2.514 7.323 1.420 7.289 C 0.819 7.270,0.324 7.252,0.320 7.248 C 0.316 7.244,0.830 7.212,1.463 7.176 L 2.613 7.111 4.862 4.862 L 7.111 2.613 7.180 1.456 C 7.217 0.819,7.250 0.379,7.253 0.477 C 7.255 0.576,7.270 1.072,7.286 1.581 L 7.315 2.506 7.877 3.068 L 8.438 3.630 8.672 3.571 C 8.801 3.538,8.914 3.502,8.923 3.492 C 8.945 3.467,9.260 2.081,9.259 2.016 C 9.258 1.960,7.309 0.000,7.254 0.000 C 7.234 0.000,5.594 1.624,3.609 3.609 M7.206 2.247 C 7.206 2.266,7.110 3.279,6.992 4.498 C 6.829 6.190,6.770 6.722,6.744 6.748 C 6.717 6.775,6.177 6.835,4.458 7.001 C 2.689 7.171,2.238 7.221,2.350 7.234 C 2.429 7.243,3.439 7.317,4.593 7.398 C 6.369 7.523,6.699 7.552,6.732 7.585 C 6.764 7.618,6.794 7.955,6.918 9.712 C 7.070 11.865,7.091 12.135,7.104 12.074 C 7.108 12.054,7.207 11.041,7.325 9.821 C 7.479 8.223,7.548 7.594,7.571 7.571 C 7.594 7.548,8.223 7.479,9.821 7.325 C 11.041 7.207,12.054 7.107,12.074 7.102 C 12.094 7.097,12.085 7.091,12.054 7.090 C 11.784 7.076,7.659 6.774,7.618 6.765 C 7.588 6.758,7.560 6.729,7.553 6.699 C 7.547 6.670,7.471 5.653,7.385 4.440 C 7.299 3.227,7.224 2.229,7.218 2.223 C 7.211 2.216,7.206 2.227,7.206 2.247 M9.353 3.072 C 9.269 3.499,9.209 3.748,9.185 3.772 C 9.161 3.796,8.917 3.856,8.499 3.939 C 8.142 4.009,7.851 4.073,7.851 4.080 C 7.851 4.088,8.146 4.151,8.508 4.221 C 9.077 4.331,9.170 4.355,9.197 4.399 C 9.214 4.427,9.286 4.743,9.356 5.100 C 9.426 5.457,9.491 5.737,9.499 5.720 C 9.507 5.704,9.571 5.403,9.641 5.051 C 9.710 4.698,9.781 4.397,9.797 4.381 C 9.813 4.364,10.110 4.295,10.455 4.226 C 10.801 4.158,11.100 4.096,11.120 4.088 C 11.139 4.080,10.851 4.012,10.479 3.937 C 10.104 3.861,9.794 3.787,9.784 3.770 C 9.773 3.754,9.709 3.455,9.640 3.105 C 9.570 2.756,9.507 2.456,9.499 2.440 C 9.490 2.424,9.425 2.708,9.353 3.072 M10.786 4.470 L 10.059 4.641 10.000 4.887 L 9.940 5.132 10.875 6.067 L 11.810 7.002 12.795 7.031 C 13.337 7.048,13.850 7.064,13.935 7.068 C 14.021 7.072,13.555 7.103,12.900 7.138 L 11.710 7.201 9.453 9.458 L 7.196 11.715 7.133 12.855 C 7.098 13.482,7.067 13.920,7.065 13.828 C 7.062 13.736,7.047 13.245,7.031 12.736 L 7.003 11.811 6.084 10.893 C 5.579 10.388,5.150 9.974,5.130 9.974 C 5.111 9.974,4.903 10.020,4.668 10.075 C 4.317 10.159,4.238 10.185,4.222 10.225 C 4.211 10.251,4.152 10.496,4.090 10.770 L 3.978 11.268 5.503 12.792 C 6.341 13.631,7.043 14.317,7.063 14.317 C 7.110 14.317,14.317 7.110,14.317 7.063 C 14.317 7.015,11.594 4.295,11.549 4.297 C 11.529 4.299,11.186 4.376,10.786 4.470 M3.651 7.948 C 3.651 8.014,3.384 9.296,3.367 9.313 C 3.354 9.326,3.040 9.398,2.668 9.473 C 2.297 9.548,2.009 9.616,2.028 9.624 C 2.048 9.632,2.349 9.694,2.696 9.761 C 3.044 9.828,3.342 9.896,3.359 9.912 C 3.375 9.927,3.450 10.245,3.524 10.618 C 3.599 10.991,3.663 11.286,3.667 11.273 C 3.671 11.261,3.734 10.956,3.806 10.595 C 3.878 10.235,3.951 9.928,3.967 9.913 C 3.984 9.898,4.281 9.830,4.629 9.762 C 4.977 9.694,5.278 9.632,5.297 9.624 C 5.317 9.616,5.029 9.548,4.658 9.473 C 4.286 9.398,3.973 9.327,3.962 9.315 C 3.951 9.304,3.882 8.995,3.808 8.628 C 3.735 8.262,3.670 7.957,3.663 7.950 C 3.656 7.944,3.651 7.943,3.651 7.948 " stroke="none" fill-rule="evenodd" fill="black"></path></svg>