<svg id="Layer_2" xmlns="http://www.w3.org/2000/svg" viewBox="0 0 14.4 14.4"><path d="M6.703 1.889 C 6.437 2.928,6.224 3.784,6.230 3.790 C 6.237 3.797,6.457 3.586,6.721 3.323 L 7.200 2.844 7.692 3.336 C 7.963 3.606,8.184 3.817,8.185 3.804 C 8.187 3.762,7.213 0.000,7.200 0.000 C 7.193 0.000,6.970 0.850,6.703 1.889 M5.738 5.746 L 4.289 7.196 4.363 7.288 C 4.404 7.339,5.059 8.001,5.818 8.760 L 7.200 10.140 8.534 8.808 C 9.267 8.075,9.922 7.413,9.990 7.336 L 10.112 7.196 8.662 5.746 C 7.865 4.949,7.207 4.296,7.200 4.296 C 7.193 4.296,6.535 4.948,5.738 5.746 M8.100 6.312 L 8.988 7.200 8.094 8.094 L 7.200 8.988 6.306 8.094 L 5.412 7.200 6.300 6.312 C 6.788 5.824,7.193 5.424,7.200 5.424 C 7.207 5.424,7.612 5.824,8.100 6.312 M1.878 6.704 C 0.845 6.970,0.000 7.193,0.000 7.200 C -0.000 7.213,3.762 8.187,3.804 8.185 C 3.817 8.184,3.606 7.963,3.336 7.692 L 2.844 7.200 3.318 6.726 C 3.755 6.289,3.824 6.212,3.774 6.218 C 3.764 6.220,2.911 6.438,1.878 6.704 M10.608 6.231 C 10.608 6.242,10.821 6.465,11.082 6.726 L 11.556 7.200 11.064 7.692 C 10.794 7.963,10.583 8.185,10.596 8.185 C 10.638 8.187,14.400 7.213,14.400 7.200 C 14.400 7.193,13.560 6.973,12.534 6.711 C 11.508 6.448,10.655 6.228,10.638 6.222 C 10.622 6.216,10.608 6.220,10.608 6.231 M6.708 6.720 L 6.228 7.200 6.714 7.686 L 7.200 8.172 7.686 7.686 L 8.172 7.200 7.692 6.720 C 7.428 6.456,7.207 6.240,7.200 6.240 C 7.193 6.240,6.972 6.456,6.708 6.720 M7.685 11.071 L 7.200 11.556 6.721 11.077 C 6.457 10.814,6.237 10.603,6.230 10.610 C 6.216 10.624,7.182 14.400,7.200 14.400 C 7.217 14.400,8.194 10.610,8.181 10.597 C 8.175 10.591,7.952 10.804,7.685 11.071 " stroke="none" fill-rule="evenodd" fill="black"></path></svg>