<svg id="Layer_2" xmlns="http://www.w3.org/2000/svg" viewBox="0 0 14.5271 13.1672"><path d="M7.179 0.023 C 7.152 0.035,6.106 1.070,4.855 2.322 L 2.579 4.600 3.769 4.600 C 4.539 4.600,4.984 4.591,5.028 4.575 C 5.066 4.561,5.584 4.063,6.180 3.467 L 7.264 2.385 8.347 3.467 C 8.943 4.063,9.461 4.561,9.499 4.575 C 9.543 4.591,9.988 4.600,10.758 4.600 L 11.949 4.600 9.661 2.313 C 7.280 -0.068,7.313 -0.037,7.179 0.023 M7.179 4.030 C 7.139 4.048,6.610 4.560,6.005 5.167 L 4.903 6.271 3.778 6.271 L 2.653 6.271 2.093 5.714 C 1.555 5.179,1.529 5.157,1.439 5.157 C 1.348 5.157,1.322 5.180,0.672 5.829 C 0.051 6.451,0.000 6.508,0.000 6.586 C 0.000 6.663,0.051 6.721,0.672 7.342 C 1.322 7.992,1.348 8.014,1.439 8.014 C 1.529 8.014,1.555 7.992,2.081 7.469 L 2.629 6.925 3.778 6.925 L 4.926 6.925 6.041 8.037 C 6.755 8.750,7.178 9.155,7.219 9.165 C 7.257 9.174,7.310 9.166,7.352 9.144 C 7.390 9.123,7.911 8.616,8.510 8.016 L 9.600 6.925 10.749 6.925 L 11.898 6.925 12.446 7.469 C 12.972 7.992,12.998 8.014,13.088 8.014 C 13.179 8.014,13.205 7.992,13.855 7.342 C 14.476 6.721,14.527 6.663,14.527 6.586 C 14.527 6.508,14.476 6.451,13.855 5.829 C 13.205 5.180,13.179 5.157,13.088 5.157 C 12.998 5.157,12.972 5.179,12.434 5.714 L 11.874 6.271 10.749 6.271 L 9.624 6.271 8.522 5.167 C 7.594 4.236,7.325 3.987,7.258 3.996 C 7.255 3.996,7.219 4.012,7.179 4.030 M7.917 5.944 L 8.559 6.586 7.911 7.233 L 7.264 7.881 6.616 7.233 L 5.968 6.586 6.610 5.944 C 6.963 5.591,7.257 5.302,7.264 5.302 C 7.270 5.302,7.565 5.591,7.917 5.944 M4.879 10.871 L 7.155 13.147 7.264 13.147 L 7.373 13.147 9.648 10.871 L 11.924 8.595 10.691 8.595 L 9.457 8.595 8.360 9.690 L 7.264 10.785 6.167 9.690 L 5.070 8.595 3.836 8.595 L 2.603 8.595 4.879 10.871 " stroke="none" fill-rule="evenodd" fill="black"></path></svg>