<svg id="Layer_2" xmlns="http://www.w3.org/2000/svg" viewBox="0 0 14.4 11.52"><path d="M2.760 2.772 C 4.550 4.562,5.549 5.544,5.579 5.544 C 5.609 5.544,5.911 5.260,6.396 4.776 C 6.819 4.354,7.181 4.008,7.200 4.008 C 7.219 4.008,7.581 4.354,8.004 4.776 C 8.510 5.281,8.790 5.544,8.823 5.544 C 8.856 5.544,9.770 4.643,11.630 2.778 L 14.388 0.012 13.488 0.006 L 12.589 -0.001 10.614 1.974 L 8.640 3.948 8.379 3.684 L 8.117 3.420 9.596 1.956 L 11.076 0.492 10.501 0.486 L 9.925 0.479 8.580 1.824 C 7.840 2.563,7.219 3.168,7.200 3.168 C 7.181 3.168,6.560 2.563,5.820 1.824 L 4.475 0.480 3.896 0.480 L 3.317 0.480 4.593 1.747 C 5.294 2.443,5.965 3.107,6.084 3.222 L 6.300 3.431 6.029 3.701 L 5.758 3.972 3.778 1.986 L 1.799 0.000 0.893 0.000 L -0.012 0.000 2.760 2.772 M6.756 5.328 L 6.324 5.760 6.762 6.198 L 7.200 6.636 7.638 6.198 L 8.076 5.760 7.644 5.328 C 7.407 5.090,7.207 4.896,7.200 4.896 C 7.193 4.896,6.993 5.090,6.756 5.328 M2.772 8.736 L 0.012 11.496 0.912 11.496 L 1.812 11.496 3.780 9.528 L 5.748 7.560 6.018 7.830 L 6.288 8.100 4.824 9.564 C 4.019 10.369,3.360 11.036,3.360 11.046 C 3.360 11.056,3.605 11.064,3.906 11.064 L 4.451 11.064 5.796 9.720 C 6.849 8.668,7.153 8.376,7.200 8.376 C 7.247 8.376,7.551 8.668,8.604 9.720 L 9.949 11.064 10.494 11.064 C 10.795 11.064,11.040 11.056,11.040 11.046 C 11.040 11.036,10.379 10.367,9.571 9.559 L 8.103 8.090 8.363 7.826 L 8.624 7.561 10.599 9.528 L 12.574 11.496 13.480 11.496 L 14.387 11.496 11.628 8.736 C 9.830 6.937,8.852 5.976,8.821 5.976 C 8.791 5.976,8.494 6.256,8.004 6.744 C 7.581 7.166,7.219 7.512,7.200 7.512 C 7.181 7.512,6.819 7.166,6.395 6.744 C 5.921 6.271,5.607 5.976,5.579 5.976 C 5.550 5.976,4.517 6.991,2.772 8.736 " stroke="none" fill-rule="evenodd" fill="black"></path></svg>