<svg id="Layer_2" data-name="Layer 2" xmlns="http://www.w3.org/2000/svg" viewBox="0 0 10.83599616 13.83501044"><path d="M4.416 0.551 L 3.441 1.102 2.669 1.102 L 1.896 1.102 1.896 1.540 L 1.896 1.979 1.305 2.266 C 0.115 2.843,0.018 2.893,0.008 2.934 C -0.001 2.968,0.330 9.470,0.354 9.728 L 0.364 9.839 2.821 11.796 C 4.173 12.872,5.307 13.772,5.340 13.797 C 5.389 13.832,5.410 13.837,5.445 13.824 C 5.469 13.814,6.610 12.914,7.981 11.823 L 10.472 9.839 10.483 9.710 C 10.509 9.394,10.837 2.968,10.828 2.934 C 10.818 2.893,10.721 2.843,9.531 2.266 L 8.940 1.979 8.940 1.540 L 8.940 1.102 8.167 1.102 L 7.395 1.102 6.420 0.551 C 5.884 0.248,5.433 0.001,5.418 0.001 C 5.403 0.001,4.952 0.248,4.416 0.551 M6.365 1.139 L 7.260 1.643 7.829 1.643 L 8.398 1.643 8.398 1.967 L 8.398 2.291 9.328 2.751 L 10.258 3.212 10.258 3.326 C 10.258 3.389,10.185 4.817,10.096 6.501 L 9.934 9.561 9.893 9.600 C 9.761 9.728,5.446 13.148,5.418 13.148 C 5.399 13.148,4.841 12.715,4.177 12.185 C 3.514 11.656,2.507 10.852,1.939 10.399 L 0.907 9.576 0.895 9.416 C 0.875 9.139,0.578 3.437,0.578 3.322 L 0.578 3.212 1.508 2.751 L 2.438 2.291 2.438 1.967 L 2.438 1.643 3.007 1.643 L 3.576 1.643 4.421 1.167 C 5.458 0.582,5.402 0.612,5.439 0.624 C 5.456 0.629,5.872 0.861,6.365 1.139 M4.480 2.194 L 3.844 2.510 3.295 2.510 L 2.745 2.510 2.745 2.686 C 2.746 3.086,2.870 7.976,2.880 8.001 C 2.886 8.016,3.449 8.430,4.132 8.922 C 4.982 9.534,5.387 9.815,5.418 9.815 C 5.449 9.815,5.859 9.530,6.704 8.921 C 7.387 8.430,7.950 8.016,7.956 8.001 C 7.965 7.977,8.090 3.043,8.091 2.668 L 8.091 2.510 7.541 2.510 L 6.992 2.510 6.349 2.196 L 5.707 1.881 5.707 4.038 L 5.707 6.195 5.427 6.195 L 5.147 6.195 5.147 4.036 C 5.147 2.849,5.140 1.878,5.132 1.878 C 5.123 1.878,4.830 2.020,4.480 2.194 M1.896 3.514 C 1.693 3.627,1.521 3.721,1.514 3.724 C 1.491 3.734,1.766 9.089,1.792 9.134 C 1.805 9.156,2.616 9.812,3.594 10.592 C 4.882 11.619,5.385 12.010,5.418 12.010 C 5.451 12.010,5.956 11.617,7.242 10.592 C 8.220 9.812,9.031 9.156,9.044 9.134 C 9.070 9.089,9.345 3.734,9.322 3.724 C 9.315 3.721,9.143 3.627,8.940 3.514 L 8.569 3.310 8.557 3.375 C 8.550 3.411,8.490 4.534,8.425 5.869 C 8.343 7.531,8.298 8.308,8.284 8.329 C 8.260 8.363,5.512 10.552,5.455 10.583 C 5.428 10.597,5.408 10.597,5.382 10.583 C 5.324 10.552,2.576 8.363,2.552 8.329 C 2.537 8.308,2.494 7.546,2.411 5.869 C 2.346 4.534,2.286 3.411,2.279 3.375 L 2.267 3.310 1.896 3.514 " stroke="none" fill-rule="evenodd" fill="black"></path></svg>