<svg id="Layer_2" xmlns="http://www.w3.org/2000/svg" viewBox="0 0 11.8302 14.0874"><path d="M5.550 0.191 C 5.366 0.295,4.918 0.548,4.556 0.752 L 3.896 1.124 3.112 1.124 L 2.327 1.124 2.322 1.572 L 2.317 2.019 1.514 2.474 C 1.073 2.724,0.702 2.937,0.691 2.949 C 0.677 2.963,0.672 3.704,0.675 5.349 L 0.680 7.728 0.940 7.268 L 1.200 6.807 1.216 5.035 L 1.232 3.264 1.972 2.846 C 2.378 2.616,2.749 2.405,2.795 2.378 L 2.879 2.328 2.879 2.002 L 2.879 1.676 3.456 1.676 L 4.033 1.676 4.959 1.154 C 5.469 0.867,5.899 0.632,5.915 0.632 C 5.931 0.632,6.362 0.867,6.871 1.154 L 7.797 1.676 8.374 1.676 L 8.952 1.676 8.952 2.002 L 8.952 2.328 9.025 2.372 C 9.065 2.396,9.436 2.606,9.848 2.840 L 10.598 3.264 10.603 5.192 L 10.608 7.120 10.869 7.587 L 11.130 8.053 11.142 7.502 C 11.149 7.198,11.156 6.052,11.157 4.953 L 11.160 2.956 11.086 2.913 C 11.046 2.888,10.676 2.678,10.263 2.444 L 9.513 2.020 9.508 1.572 L 9.503 1.124 8.723 1.124 C 8.040 1.124,7.936 1.120,7.881 1.092 C 7.846 1.074,7.395 0.821,6.879 0.530 C 6.362 0.238,5.927 0.000,5.912 0.001 C 5.898 0.001,5.735 0.087,5.550 0.191 M5.225 2.603 L 5.225 3.214 4.860 3.214 L 4.495 3.214 4.495 2.889 L 4.495 2.563 4.062 2.563 L 3.628 2.563 3.633 3.702 L 3.638 4.841 3.924 4.846 L 4.210 4.852 4.345 5.438 C 4.477 6.012,4.480 6.027,4.456 6.142 C 4.443 6.207,4.158 7.076,3.823 8.074 C 3.488 9.072,3.214 9.902,3.214 9.920 C 3.214 9.964,5.842 12.233,5.900 12.240 C 5.934 12.244,6.254 11.979,7.266 11.111 C 7.992 10.487,8.594 9.960,8.603 9.940 C 8.615 9.915,8.444 9.381,8.009 8.082 C 7.673 7.080,7.388 6.207,7.374 6.143 C 7.351 6.029,7.354 6.007,7.475 5.438 L 7.601 4.852 7.887 4.846 L 8.173 4.841 8.178 3.702 L 8.183 2.563 7.749 2.563 L 7.315 2.563 7.315 2.889 L 7.315 3.214 6.950 3.214 L 6.585 3.214 6.585 2.603 L 6.585 1.991 5.905 1.991 L 5.225 1.991 5.225 2.603 M1.913 5.363 L 1.913 6.388 2.051 6.388 C 2.126 6.388,2.189 6.397,2.189 6.407 C 2.189 6.447,1.120 8.628,1.078 8.672 C 1.055 8.698,0.935 8.790,0.813 8.878 C 0.566 9.055,0.377 9.241,0.152 9.534 L 0.000 9.730 1.056 9.735 C 1.682 9.738,2.126 9.733,2.146 9.722 C 2.171 9.709,2.308 9.281,2.643 8.167 L 3.105 6.630 3.218 6.556 L 3.332 6.483 3.332 5.972 L 3.332 5.462 2.997 5.462 L 2.662 5.462 2.662 4.900 L 2.662 4.338 2.287 4.338 L 1.913 4.338 1.913 5.363 M9.168 4.900 L 9.168 5.462 8.833 5.462 L 8.498 5.462 8.498 5.972 L 8.498 6.483 8.612 6.556 L 8.725 6.630 9.187 8.167 C 9.523 9.283,9.659 9.709,9.684 9.722 C 9.705 9.733,10.146 9.738,10.774 9.735 L 11.830 9.730 11.679 9.534 C 11.453 9.241,11.265 9.055,11.017 8.878 C 10.895 8.790,10.775 8.698,10.751 8.672 C 10.710 8.627,9.642 6.447,9.642 6.407 C 9.642 6.397,9.704 6.388,9.780 6.388 L 9.918 6.388 9.918 5.363 L 9.918 4.338 9.543 4.338 L 9.168 4.338 9.168 4.900 M5.959 7.320 C 5.989 7.343,7.010 8.936,7.072 9.057 C 7.097 9.106,7.097 9.118,7.069 9.160 L 7.038 9.208 5.905 9.208 L 4.772 9.208 4.741 9.160 C 4.715 9.121,4.714 9.103,4.733 9.066 C 4.799 8.939,5.840 7.317,5.861 7.308 C 5.903 7.292,5.926 7.294,5.959 7.320 M1.282 10.418 C 1.309 10.444,2.355 11.279,3.607 12.273 C 5.321 13.635,5.893 14.079,5.925 14.073 C 5.961 14.066,10.423 10.539,10.548 10.418 L 10.597 10.371 10.160 10.371 L 9.724 10.371 7.844 11.869 C 6.487 12.952,5.951 13.368,5.915 13.368 C 5.879 13.368,5.347 12.955,3.985 11.869 L 2.105 10.371 1.669 10.371 L 1.233 10.371 1.282 10.418 " stroke="none" fill-rule="evenodd" fill="black"></path></svg>