<svg id="Layer_2" xmlns="http://www.w3.org/2000/svg" viewBox="0 0 10.4985 14.0875"><path d="M4.231 0.560 L 3.240 1.120 2.451 1.120 L 1.663 1.120 1.658 1.569 L 1.654 2.019 0.841 2.479 C 0.394 2.733,0.021 2.950,0.013 2.962 C 0.004 2.974,0.002 3.283,0.007 3.666 C 0.012 4.041,0.033 5.592,0.053 7.113 C 0.073 8.633,0.093 9.909,0.098 9.949 L 0.106 10.020 1.674 11.270 C 4.645 13.637,5.171 14.054,5.210 14.072 C 5.277 14.104,4.913 14.387,8.824 11.270 L 10.392 10.020 10.401 9.949 C 10.405 9.909,10.425 8.625,10.446 7.095 C 10.466 5.565,10.487 4.014,10.492 3.648 C 10.497 3.276,10.494 2.974,10.486 2.962 C 10.477 2.950,10.105 2.733,9.658 2.479 L 8.845 2.019 8.840 1.569 L 8.836 1.120 8.047 1.120 L 7.258 1.120 6.266 0.560 C 5.720 0.252,5.262 0.000,5.248 0.000 C 5.234 0.000,4.777 0.252,4.231 0.560 M6.205 1.155 L 7.136 1.680 7.715 1.680 L 8.294 1.680 8.294 2.009 L 8.294 2.338 8.569 2.493 C 8.720 2.578,8.852 2.648,8.862 2.647 C 8.872 2.647,8.969 2.594,9.079 2.529 C 9.244 2.431,9.281 2.415,9.299 2.435 C 9.331 2.469,10.464 4.471,10.464 4.492 C 10.464 4.502,10.341 4.587,10.192 4.680 L 9.921 4.849 9.921 5.010 C 9.922 5.098,9.905 6.194,9.885 7.445 C 9.858 9.089,9.842 9.728,9.828 9.750 C 9.816 9.766,9.048 10.384,8.119 11.124 C 7.190 11.863,6.172 12.674,5.857 12.927 C 5.542 13.179,5.268 13.386,5.250 13.386 C 5.231 13.386,4.532 12.840,3.697 12.173 C 2.862 11.507,1.838 10.690,1.421 10.359 C 0.966 9.996,0.661 9.742,0.656 9.720 C 0.649 9.686,0.577 5.412,0.577 5.037 L 0.577 4.851 0.305 4.680 C 0.101 4.552,0.034 4.501,0.040 4.479 C 0.050 4.442,1.170 2.467,1.199 2.435 C 1.217 2.415,1.255 2.431,1.420 2.529 C 1.529 2.594,1.627 2.647,1.637 2.647 C 1.647 2.648,1.779 2.578,1.930 2.493 L 2.205 2.338 2.205 2.009 L 2.205 1.680 2.783 1.680 L 3.362 1.680 4.293 1.155 C 4.804 0.866,5.234 0.630,5.248 0.630 C 5.262 0.630,5.693 0.866,6.205 1.155 M4.643 1.796 C 4.327 2.004,3.949 2.252,3.804 2.347 L 3.540 2.520 3.118 2.520 L 2.696 2.520 2.691 2.794 L 2.686 3.069 2.592 3.107 L 2.498 3.144 2.749 3.290 C 2.888 3.370,3.063 3.471,3.138 3.515 L 3.276 3.594 3.331 3.562 C 3.478 3.475,3.734 3.345,3.876 3.287 L 4.033 3.222 4.038 3.028 L 4.043 2.835 5.249 2.835 L 6.455 2.835 6.460 3.029 L 6.465 3.223 6.605 3.280 C 6.771 3.347,6.969 3.445,7.109 3.529 C 7.165 3.563,7.222 3.586,7.236 3.580 C 7.250 3.575,7.428 3.474,7.631 3.357 L 8.001 3.144 7.907 3.106 L 7.813 3.069 7.808 2.794 L 7.803 2.520 7.381 2.520 L 6.959 2.520 6.694 2.347 C 6.549 2.252,6.172 2.004,5.856 1.796 C 5.540 1.588,5.267 1.417,5.249 1.417 C 5.232 1.417,4.959 1.588,4.643 1.796 M1.166 3.790 C 0.989 4.101,0.896 4.279,0.909 4.286 C 0.919 4.293,1.644 4.711,2.520 5.216 C 3.395 5.720,4.111 6.138,4.112 6.144 C 4.112 6.150,3.738 6.370,3.281 6.632 C 2.824 6.894,2.450 7.115,2.450 7.122 C 2.450 7.157,2.997 8.074,3.015 8.069 C 3.026 8.066,3.401 7.854,3.848 7.597 C 4.295 7.340,4.667 7.128,4.675 7.124 C 4.683 7.121,4.690 8.239,4.690 9.609 L 4.691 12.100 4.956 12.309 C 5.101 12.425,5.230 12.522,5.242 12.525 C 5.255 12.528,5.387 12.433,5.536 12.315 L 5.807 12.100 5.808 9.609 C 5.809 8.239,5.816 7.121,5.823 7.124 C 5.831 7.128,6.203 7.340,6.650 7.597 C 7.097 7.854,7.472 8.066,7.484 8.069 C 7.502 8.074,8.049 7.156,8.049 7.121 C 8.049 7.114,7.675 6.894,7.218 6.632 C 6.761 6.370,6.387 6.151,6.387 6.144 C 6.387 6.138,7.103 5.720,7.979 5.216 C 8.854 4.711,9.579 4.293,9.590 4.286 C 9.619 4.268,9.063 3.303,9.029 3.313 C 9.014 3.317,8.286 3.735,7.410 4.240 L 5.818 5.160 5.813 4.321 L 5.809 3.482 5.249 3.482 L 4.690 3.482 4.685 4.321 L 4.681 5.160 3.088 4.240 C 2.213 3.735,1.484 3.317,1.470 3.313 C 1.451 3.307,1.367 3.439,1.166 3.790 M1.260 5.410 C 1.261 5.500,1.276 6.434,1.294 7.487 L 1.327 9.402 1.368 9.441 C 1.390 9.462,1.999 9.950,2.721 10.524 L 4.033 11.569 4.038 10.611 C 4.041 9.982,4.036 9.646,4.024 9.632 C 4.015 9.621,3.944 9.574,3.867 9.528 C 3.608 9.375,3.334 9.143,3.133 8.904 L 3.049 8.805 2.920 8.881 C 2.849 8.923,2.782 8.958,2.771 8.958 C 2.754 8.959,1.595 6.970,1.568 6.894 C 1.561 6.874,1.720 6.776,2.188 6.510 C 2.687 6.226,2.813 6.147,2.795 6.131 C 2.783 6.119,2.474 5.939,2.108 5.730 C 1.743 5.522,1.402 5.328,1.352 5.299 L 1.260 5.247 1.260 5.410 M8.478 5.680 C 8.064 5.916,7.715 6.119,7.703 6.130 C 7.686 6.147,7.811 6.226,8.311 6.510 C 8.779 6.776,8.938 6.874,8.931 6.894 C 8.904 6.969,7.745 8.959,7.728 8.959 C 7.717 8.958,7.650 8.924,7.579 8.882 L 7.450 8.805 7.366 8.904 C 7.164 9.143,6.891 9.375,6.632 9.528 C 6.555 9.574,6.484 9.621,6.474 9.632 C 6.462 9.646,6.458 9.982,6.461 10.611 L 6.465 11.569 7.778 10.524 C 8.499 9.950,9.108 9.462,9.130 9.441 L 9.171 9.402 9.205 7.409 C 9.224 6.312,9.238 5.378,9.235 5.333 L 9.230 5.251 8.478 5.680 " stroke="none" fill-rule="evenodd" fill="black"></path></svg>