<svg id="Layer_2" xmlns="http://www.w3.org/2000/svg" viewBox="0 0 13.5 14.3433"><path d="M5.175 0.934 L 3.634 1.867 1.845 1.873 L 0.057 1.879 0.417 1.962 C 0.614 2.009,1.483 2.214,2.348 2.419 L 3.919 2.792 4.485 2.437 C 4.797 2.241,5.287 1.934,5.575 1.753 L 6.098 1.425 6.413 0.966 C 6.586 0.713,6.738 0.506,6.750 0.506 C 6.762 0.506,6.914 0.713,7.087 0.966 L 7.402 1.425 7.925 1.753 C 8.213 1.934,8.703 2.241,9.014 2.437 L 9.579 2.792 10.465 2.579 C 10.953 2.463,11.819 2.257,12.391 2.123 L 13.432 1.879 11.665 1.873 L 9.898 1.867 8.336 0.934 C 7.478 0.420,6.762 0.000,6.746 0.001 C 6.729 0.001,6.023 0.421,5.175 0.934 M5.473 2.668 L 4.950 3.150 4.212 3.150 C 3.627 3.150,3.465 3.156,3.432 3.180 C 3.392 3.210,3.393 3.269,3.474 5.211 C 3.520 6.311,3.565 7.294,3.573 7.395 L 3.589 7.578 3.825 7.305 C 3.955 7.155,4.155 6.924,4.270 6.791 L 4.479 6.550 5.244 4.374 C 5.664 3.177,6.005 2.195,6.002 2.192 C 5.998 2.188,5.760 2.403,5.473 2.668 M7.590 2.237 C 7.596 2.254,7.919 3.231,8.306 4.408 L 9.009 6.548 9.460 7.068 L 9.911 7.588 9.927 7.400 C 9.935 7.296,9.980 6.311,10.026 5.211 C 10.107 3.269,10.108 3.210,10.068 3.180 C 10.035 3.156,9.879 3.150,9.327 3.150 L 8.629 3.150 8.118 2.677 C 7.837 2.418,7.600 2.205,7.592 2.205 C 7.584 2.205,7.583 2.219,7.590 2.237 M0.158 2.643 C 0.158 2.647,0.553 3.311,1.037 4.118 L 1.917 5.584 1.967 8.165 C 1.994 9.584,2.024 10.758,2.033 10.772 C 2.050 10.800,6.491 14.293,6.524 14.305 C 6.534 14.309,6.357 13.845,6.130 13.274 L 5.717 12.236 5.549 12.030 C 5.339 11.771,4.863 11.305,4.612 11.112 C 4.254 10.835,3.810 10.557,3.400 10.351 C 3.280 10.291,3.170 10.228,3.157 10.211 C 3.140 10.191,3.117 9.389,3.084 7.639 C 3.058 6.240,3.031 5.004,3.024 4.890 L 3.011 4.685 2.006 3.963 C 1.453 3.567,0.811 3.105,0.579 2.938 C 0.347 2.771,0.158 2.638,0.158 2.643 M13.196 2.738 C 13.122 2.793,12.482 3.253,11.775 3.761 L 10.489 4.685 10.476 4.868 C 10.470 4.969,10.442 6.205,10.416 7.616 C 10.383 9.380,10.360 10.191,10.343 10.211 C 10.330 10.228,10.220 10.291,10.100 10.351 C 9.294 10.756,8.623 11.264,8.068 11.891 C 7.798 12.197,7.799 12.195,7.369 13.277 C 7.142 13.846,6.965 14.309,6.975 14.305 C 6.985 14.302,7.992 13.499,9.212 12.521 C 10.566 11.437,11.435 10.726,11.441 10.699 C 11.446 10.674,11.477 9.520,11.510 8.134 L 11.571 5.614 12.457 4.131 C 12.944 3.315,13.340 2.646,13.337 2.643 C 13.334 2.641,13.270 2.683,13.196 2.738 M6.674 3.066 C 6.656 3.093,6.342 4.007,5.975 5.096 L 5.308 7.076 5.011 7.375 L 4.714 7.673 5.716 8.674 C 6.267 9.225,6.732 9.675,6.750 9.675 C 6.768 9.675,7.233 9.225,7.784 8.674 L 8.785 7.674 8.480 7.364 L 8.175 7.054 7.516 5.085 C 7.154 4.002,6.843 3.093,6.826 3.066 C 6.808 3.038,6.774 3.015,6.750 3.015 C 6.726 3.015,6.692 3.038,6.674 3.066 M3.611 8.516 C 3.620 8.776,3.634 9.079,3.642 9.190 L 3.656 9.392 5.119 10.525 C 5.923 11.148,6.619 11.684,6.665 11.716 C 6.744 11.770,6.753 11.771,6.803 11.738 C 6.883 11.685,9.770 9.452,9.814 9.409 C 9.846 9.377,9.856 9.283,9.878 8.797 C 9.893 8.482,9.901 8.186,9.897 8.140 L 9.889 8.057 8.342 9.530 C 7.343 10.480,6.779 11.002,6.750 11.002 C 6.712 11.002,5.267 9.649,3.738 8.181 L 3.595 8.044 3.611 8.516 " stroke="none" fill-rule="evenodd" fill="black"></path></svg>