<svg id="Layer_2" data-name="Layer 2" xmlns="http://www.w3.org/2000/svg" viewBox="0 0 10.4983 14.0874"><path d="M4.231 0.560 L 3.240 1.120 2.451 1.120 L 1.663 1.120 1.658 1.569 L 1.653 2.019 0.836 2.482 C 0.387 2.736,0.014 2.957,0.008 2.973 C -0.003 3.003,0.084 9.831,0.098 9.949 L 0.106 10.020 2.610 12.013 C 3.987 13.110,5.141 14.026,5.173 14.049 C 5.221 14.083,5.241 14.088,5.276 14.075 C 5.300 14.066,6.460 13.150,7.856 12.039 L 10.392 10.020 10.400 9.948 C 10.414 9.831,10.502 3.003,10.490 2.973 C 10.484 2.957,10.111 2.736,9.662 2.482 L 8.845 2.019 8.840 1.569 L 8.835 1.120 8.047 1.120 L 7.258 1.120 6.266 0.560 C 5.720 0.252,5.262 0.000,5.248 0.000 C 5.234 0.000,4.777 0.252,4.231 0.560 M6.205 1.155 L 7.136 1.680 7.715 1.680 L 8.294 1.680 8.294 2.009 L 8.294 2.338 9.109 2.800 C 9.558 3.054,9.929 3.273,9.935 3.288 C 9.941 3.303,9.924 4.757,9.897 6.518 C 9.861 8.870,9.843 9.728,9.828 9.750 C 9.809 9.777,5.396 13.304,5.305 13.364 C 5.275 13.384,5.252 13.387,5.222 13.375 C 5.171 13.356,0.670 9.768,0.659 9.738 C 0.646 9.704,0.551 3.319,0.563 3.288 C 0.569 3.273,0.941 3.054,1.389 2.800 L 2.205 2.338 2.205 2.009 L 2.205 1.680 2.783 1.680 L 3.362 1.680 4.293 1.155 C 4.804 0.866,5.234 0.630,5.248 0.630 C 5.262 0.630,5.692 0.866,6.205 1.155 M4.331 2.136 L 3.788 2.467 3.346 2.467 L 2.904 2.467 2.909 5.289 L 2.913 8.110 4.058 9.027 C 4.914 9.712,5.215 9.944,5.249 9.944 C 5.283 9.944,5.584 9.712,6.440 9.027 L 7.585 8.110 7.589 5.289 L 7.594 2.467 7.152 2.467 L 6.710 2.467 6.176 2.144 L 5.643 1.822 5.638 4.034 L 5.634 6.246 5.258 6.246 L 4.882 6.246 4.877 4.026 L 4.873 1.806 4.331 2.136 M1.816 3.589 L 1.454 3.799 1.463 4.249 C 1.468 4.496,1.487 5.728,1.505 6.987 C 1.531 8.808,1.542 9.283,1.561 9.309 C 1.573 9.327,2.398 9.992,3.394 10.786 C 4.706 11.832,5.217 12.230,5.249 12.230 C 5.281 12.230,5.793 11.832,7.104 10.786 C 8.100 9.991,8.925 9.327,8.938 9.309 C 8.956 9.284,8.967 8.802,8.993 6.987 C 9.011 5.728,9.030 4.496,9.035 4.248 L 9.044 3.799 8.675 3.587 C 8.472 3.471,8.301 3.381,8.296 3.386 C 8.290 3.392,8.264 4.536,8.237 5.928 L 8.187 8.460 8.140 8.506 C 8.114 8.532,7.463 9.054,6.693 9.666 C 5.669 10.480,5.282 10.778,5.249 10.778 C 5.216 10.778,4.829 10.480,3.805 9.666 C 3.036 9.054,2.385 8.532,2.358 8.506 L 2.311 8.460 2.266 6.028 C 2.221 3.642,2.214 3.376,2.190 3.378 C 2.184 3.379,2.015 3.474,1.816 3.589 " stroke="none" fill-rule="evenodd" fill="black"></path></svg>