<svg id="Layer_2" data-name="Layer 2" xmlns="http://www.w3.org/2000/svg" viewBox="0 0 13.87706323 7.37669792"><path d="M1.251 0.700 C 0.585 1.084,0.028 1.417,0.015 1.439 C -0.005 1.471,0.226 1.952,1.248 4.006 C 2.437 6.394,2.521 6.554,2.760 6.904 C 2.900 7.107,3.030 7.293,3.051 7.317 C 3.085 7.356,3.089 7.316,3.099 6.799 L 3.111 6.238 4.984 5.150 C 6.485 4.278,6.874 4.061,6.939 4.061 C 7.003 4.061,7.392 4.277,8.893 5.150 L 10.766 6.239 10.778 6.799 C 10.789 7.316,10.792 7.356,10.826 7.317 C 10.847 7.293,10.977 7.107,11.117 6.904 C 11.355 6.555,11.443 6.387,12.629 4.006 C 13.656 1.943,13.883 1.472,13.862 1.439 C 13.840 1.403,11.512 0.041,11.420 0.011 C 11.396 0.003,10.495 0.356,9.183 0.889 C 7.974 1.380,6.964 1.781,6.938 1.781 C 6.912 1.781,5.904 1.380,4.698 0.890 C 3.492 0.401,2.495 0.000,2.483 0.000 C 2.472 0.000,1.917 0.315,1.251 0.700 M4.134 1.634 C 5.002 1.987,5.713 2.282,5.713 2.291 C 5.713 2.299,5.675 2.321,5.628 2.339 L 5.544 2.371 6.145 2.611 L 6.746 2.850 8.698 2.057 C 9.772 1.621,10.803 1.203,10.990 1.128 L 11.329 0.991 12.002 1.380 C 12.372 1.594,12.680 1.786,12.687 1.808 C 12.700 1.848,11.026 5.224,10.977 5.256 C 10.963 5.265,10.940 5.273,10.927 5.273 C 10.905 5.273,10.550 5.071,8.481 3.880 L 7.838 3.510 7.911 3.465 C 7.951 3.441,7.981 3.417,7.976 3.413 C 7.972 3.409,7.773 3.294,7.534 3.158 C 7.237 2.987,7.088 2.914,7.060 2.925 C 7.038 2.933,6.117 3.461,5.013 4.097 C 3.909 4.734,2.988 5.259,2.966 5.264 C 2.944 5.270,2.914 5.266,2.900 5.256 C 2.851 5.223,1.177 1.848,1.190 1.808 C 1.199 1.778,2.493 1.002,2.544 0.995 C 2.550 0.994,3.266 1.282,4.134 1.634 M2.644 2.355 C 2.412 2.491,2.217 2.608,2.210 2.616 C 2.185 2.641,3.285 3.874,3.338 3.881 C 3.369 3.885,3.658 3.730,4.105 3.468 C 4.500 3.238,4.837 3.041,4.854 3.031 C 4.875 3.019,4.584 2.859,3.995 2.559 C 3.504 2.309,3.095 2.106,3.084 2.107 C 3.073 2.108,2.875 2.220,2.644 2.355 M9.879 2.560 C 9.292 2.859,9.002 3.019,9.023 3.031 C 9.040 3.041,9.377 3.238,9.772 3.468 C 10.218 3.729,10.508 3.885,10.539 3.881 C 10.597 3.873,11.691 2.638,11.663 2.612 C 11.635 2.585,10.798 2.105,10.781 2.106 C 10.773 2.106,10.367 2.310,9.879 2.560 " stroke="none" fill-rule="evenodd" fill="black"></path></svg>