<svg id="Layer_2" data-name="Layer 2" xmlns="http://www.w3.org/2000/svg" viewBox="0 0 13.94000244 14.40002441"><path d="M2.640 0.273 C 2.495 0.423,1.841 1.105,1.188 1.789 L 0.000 3.032 -0.000 7.017 L -0.000 11.003 1.175 12.193 L 2.351 13.382 3.304 13.382 C 4.141 13.382,4.255 13.378,4.243 13.348 C 4.236 13.328,4.109 13.104,3.960 12.848 L 3.690 12.383 3.231 12.383 L 2.773 12.383 1.886 11.491 L 0.999 10.598 0.999 7.017 L 0.999 3.437 1.235 3.188 C 1.366 3.051,1.890 2.503,2.401 1.969 L 3.331 0.999 6.970 0.999 L 10.609 0.999 11.539 1.969 C 12.050 2.503,12.574 3.051,12.705 3.188 L 12.941 3.437 12.941 7.204 L 12.941 10.972 12.759 11.161 C 12.659 11.265,12.072 11.876,11.455 12.520 L 10.334 13.690 10.679 14.036 C 10.869 14.227,11.035 14.380,11.049 14.376 C 11.063 14.373,11.719 13.696,12.507 12.872 L 13.940 11.374 13.940 7.202 L 13.940 3.031 12.752 1.789 C 12.099 1.105,11.445 0.423,11.299 0.273 L 11.034 0.000 6.970 0.000 L 2.906 0.000 2.640 0.273 M5.489 3.020 L 4.833 3.787 4.833 5.035 L 4.833 6.284 4.333 6.784 L 3.834 7.284 4.635 8.085 L 5.437 8.886 6.238 8.085 L 7.040 7.284 6.540 6.784 L 6.041 6.284 6.041 5.157 L 6.041 4.030 6.430 3.642 L 6.819 3.253 7.574 3.254 L 8.329 3.255 9.206 4.150 L 10.083 5.045 10.083 7.817 L 10.083 10.590 9.198 11.486 L 8.313 12.383 7.750 12.383 L 7.188 12.383 6.910 12.863 C 6.758 13.126,6.630 13.351,6.625 13.362 C 6.621 13.373,7.083 13.382,7.673 13.382 L 8.729 13.382 9.905 12.188 L 11.082 10.994 11.082 7.804 L 11.082 4.614 9.904 3.434 L 8.725 2.254 7.435 2.254 L 6.145 2.254 5.489 3.020 M1.428 7.498 C 1.457 7.574,5.425 14.381,5.440 14.381 C 5.455 14.381,9.456 7.500,9.456 7.473 C 9.456 7.465,9.030 7.458,8.509 7.458 L 7.563 7.458 6.970 8.056 L 6.378 8.654 6.871 8.661 C 7.143 8.664,7.365 8.671,7.365 8.677 C 7.365 8.682,6.999 9.318,6.552 10.090 L 5.738 11.494 5.594 12.681 C 5.515 13.334,5.445 13.863,5.439 13.857 C 5.432 13.851,5.363 13.315,5.284 12.667 L 5.141 11.489 4.333 10.107 C 3.889 9.346,3.521 8.711,3.515 8.695 C 3.506 8.672,3.614 8.666,4.011 8.666 L 4.519 8.666 3.914 8.062 L 3.309 7.458 2.361 7.458 C 1.468 7.458,1.413 7.460,1.428 7.498 " stroke="none" fill-rule="evenodd" fill="black"></path></svg>