<svg id="Layer_2" data-name="Layer 2" xmlns="http://www.w3.org/2000/svg" viewBox="0 0 14.40002441 10.91715776"><path d="M4.566 2.598 C 3.137 4.027,1.968 5.204,1.968 5.214 C 1.968 5.224,2.149 5.232,2.370 5.232 L 2.772 5.232 4.956 3.048 C 6.689 1.315,7.152 0.864,7.200 0.864 C 7.248 0.864,7.709 1.312,9.432 3.036 C 11.206 4.810,11.615 5.208,11.667 5.208 C 11.701 5.208,12.303 5.138,13.004 5.052 C 13.705 4.966,14.298 4.895,14.322 4.894 C 14.429 4.889,14.229 4.860,13.044 4.706 L 11.777 4.541 9.506 2.270 C 8.258 1.022,7.220 -0.000,7.200 -0.000 C 7.180 -0.000,5.995 1.169,4.566 2.598 M5.502 3.558 C 4.601 4.459,3.864 5.204,3.864 5.214 C 3.864 5.224,4.191 5.232,4.591 5.232 C 5.136 5.232,5.329 5.224,5.359 5.202 C 5.381 5.186,5.421 5.088,5.447 4.985 C 5.503 4.764,5.645 4.482,5.796 4.290 C 6.003 4.027,6.368 3.795,6.733 3.694 C 6.992 3.622,7.397 3.621,7.659 3.692 C 7.997 3.782,8.367 4.008,8.564 4.243 C 8.659 4.358,8.808 4.580,8.808 4.609 C 8.808 4.618,8.620 4.644,8.390 4.667 L 7.972 4.710 7.866 4.624 C 7.808 4.576,7.697 4.507,7.618 4.471 C 7.489 4.410,7.452 4.404,7.200 4.404 C 6.939 4.404,6.915 4.408,6.762 4.481 C 6.578 4.568,6.362 4.760,6.270 4.917 C 6.236 4.975,6.188 5.093,6.164 5.181 C 6.055 5.574,6.164 5.952,6.470 6.238 C 6.645 6.402,6.773 6.469,7.004 6.517 C 7.297 6.578,7.654 6.486,7.873 6.294 L 7.957 6.221 8.374 6.267 C 8.604 6.292,8.795 6.315,8.799 6.319 C 8.822 6.342,8.571 6.663,8.416 6.808 C 7.802 7.381,6.894 7.449,6.184 6.974 C 5.824 6.733,5.554 6.353,5.448 5.940 C 5.422 5.840,5.395 5.747,5.387 5.735 C 5.379 5.721,5.067 5.712,4.613 5.712 L 3.852 5.712 5.496 7.356 C 6.797 8.657,7.152 9.000,7.200 9.000 C 7.248 9.000,7.603 8.657,8.904 7.356 L 10.548 5.712 9.726 5.712 L 8.904 5.712 8.904 5.472 L 8.904 5.232 9.720 5.232 C 10.169 5.232,10.536 5.224,10.536 5.214 C 10.536 5.204,9.799 4.459,8.898 3.558 C 7.615 2.276,7.246 1.920,7.200 1.920 C 7.154 1.920,6.785 2.276,5.502 3.558 M1.339 5.876 C 0.631 5.963,0.054 6.038,0.058 6.042 C 0.062 6.046,0.642 6.125,1.347 6.217 L 2.627 6.384 4.884 8.640 C 6.673 10.429,7.153 10.896,7.200 10.896 C 7.248 10.896,7.795 10.362,9.852 8.304 L 12.444 5.712 12.024 5.712 L 11.604 5.712 9.420 7.896 C 8.218 9.097,7.219 10.080,7.200 10.080 C 7.181 10.080,6.182 9.097,4.980 7.896 C 2.892 5.809,2.792 5.712,2.712 5.715 C 2.666 5.716,2.048 5.788,1.339 5.876 " stroke="none" fill-rule="evenodd" fill="black"></path></svg>