<svg id="Layer_2" data-name="Layer 2" xmlns="http://www.w3.org/2000/svg" viewBox="0 0 12.09922265 12.6315833"><path d="M6.044 0.111 C 6.037 0.155,5.997 0.523,5.957 0.928 L 5.884 1.664 5.727 1.966 C 5.641 2.132,4.960 3.487,4.214 4.977 C 2.987 7.427,2.860 7.689,2.880 7.734 L 2.903 7.784 4.262 7.784 C 5.336 7.784,5.626 7.778,5.642 7.758 C 5.654 7.744,5.800 7.495,5.966 7.204 L 6.269 6.675 5.412 6.675 C 4.860 6.675,4.541 6.667,4.516 6.654 C 4.494 6.642,4.477 6.615,4.477 6.593 C 4.477 6.556,5.653 4.182,5.934 3.653 L 6.055 3.425 7.212 5.726 C 7.848 6.991,8.369 8.031,8.369 8.036 C 8.369 8.042,8.058 8.046,7.678 8.046 C 7.298 8.046,6.977 8.053,6.965 8.061 C 6.953 8.070,6.810 8.308,6.649 8.590 L 6.355 9.105 8.089 9.110 C 9.261 9.113,9.835 9.108,9.862 9.094 C 9.885 9.082,9.901 9.052,9.901 9.022 C 9.901 8.994,9.075 7.327,8.065 5.317 L 6.228 1.664 6.150 0.907 C 6.107 0.492,6.069 0.124,6.065 0.091 C 6.059 0.034,6.057 0.035,6.044 0.111 M1.899 9.584 C 1.689 9.997,1.326 10.716,1.093 11.182 L 0.669 12.029 0.355 12.308 C 0.182 12.461,0.040 12.591,0.040 12.596 C 0.040 12.601,0.298 12.473,0.612 12.312 L 1.184 12.019 6.050 12.019 L 10.915 12.019 11.487 12.312 C 11.802 12.473,12.059 12.601,12.059 12.596 C 12.059 12.591,11.917 12.461,11.744 12.308 L 11.430 12.029 10.958 11.086 L 10.486 10.143 9.962 10.143 C 9.673 10.143,9.437 10.148,9.437 10.153 C 9.437 10.159,9.537 10.363,9.659 10.607 C 9.781 10.851,9.881 11.055,9.881 11.061 C 9.881 11.066,8.157 11.071,6.050 11.071 C 3.942 11.071,2.218 11.066,2.218 11.061 C 2.218 11.055,2.468 10.551,2.773 9.941 L 3.327 8.832 2.805 8.832 L 2.282 8.832 1.899 9.584 " stroke="none" fill-rule="evenodd" fill="black"></path></svg>