<svg id="Layer_2" data-name="Layer 2" xmlns="http://www.w3.org/2000/svg" viewBox="0 0 14.4 14.4"><path d="M7.073 2.166 C 7.010 3.265,6.954 4.199,6.949 4.243 L 6.939 4.322 7.195 4.315 L 7.452 4.308 7.447 4.236 C 7.445 4.196,7.391 3.265,7.328 2.166 C 7.265 1.067,7.207 0.168,7.200 0.168 C 7.193 0.168,7.136 1.067,7.073 2.166 M8.317 5.411 L 4.576 7.460 4.207 8.101 C 4.004 8.453,3.841 8.744,3.845 8.747 C 3.856 8.755,11.516 4.552,11.540 4.524 C 11.572 4.488,12.077 3.381,12.066 3.370 C 12.061 3.365,10.374 4.283,8.317 5.411 M6.905 7.737 L 3.479 9.615 3.117 10.244 C 2.917 10.591,2.759 10.879,2.764 10.884 C 2.776 10.896,9.839 7.019,9.881 6.977 C 9.910 6.948,10.350 5.878,10.337 5.865 C 10.334 5.862,8.790 6.704,6.905 7.737 M2.071 7.078 C 1.039 7.140,0.189 7.195,0.182 7.202 C 0.176 7.208,1.075 7.265,2.179 7.328 C 3.284 7.391,4.218 7.447,4.254 7.452 L 4.320 7.463 4.320 7.211 L 4.320 6.960 4.134 6.963 C 4.032 6.965,3.103 7.017,2.071 7.078 M10.080 7.211 L 10.080 7.463 10.146 7.452 C 10.182 7.447,11.118 7.390,12.226 7.327 C 13.334 7.264,14.209 7.205,14.170 7.196 C 14.108 7.181,10.314 6.958,10.146 6.959 L 10.080 6.960 10.080 7.211 M6.949 10.157 C 6.954 10.201,7.010 11.135,7.073 12.234 C 7.136 13.333,7.193 14.232,7.200 14.232 C 7.207 14.232,7.265 13.333,7.328 12.234 C 7.391 11.135,7.445 10.204,7.447 10.164 L 7.452 10.092 7.195 10.085 L 6.939 10.078 6.949 10.157 " stroke="none" fill-rule="evenodd" fill="black"></path></svg>