<svg id="Layer_2" data-name="Layer 2" xmlns="http://www.w3.org/2000/svg" viewBox="0 0 14.30002441 14.30002441"><path d="M7.018 0.037 C 6.978 0.057,6.926 0.106,6.902 0.146 C 6.861 0.216,6.859 0.296,6.876 1.742 C 6.886 2.580,6.900 3.265,6.908 3.265 C 6.916 3.265,6.973 3.215,7.036 3.153 L 7.150 3.041 7.264 3.153 C 7.327 3.215,7.384 3.265,7.392 3.265 C 7.400 3.265,7.414 2.580,7.424 1.742 C 7.440 0.316,7.439 0.215,7.400 0.149 C 7.318 0.010,7.164 -0.035,7.018 0.037 M4.816 2.681 C 4.815 2.694,4.735 3.091,4.638 3.562 C 4.518 4.143,4.450 4.427,4.425 4.445 C 4.405 4.460,4.026 4.545,3.583 4.635 C 3.139 4.725,2.756 4.805,2.732 4.814 C 2.703 4.824,3.135 4.980,3.971 5.262 C 5.530 5.786,5.864 5.894,5.879 5.879 C 5.885 5.872,5.649 5.145,5.355 4.262 C 5.060 3.380,4.817 2.668,4.816 2.681 M8.938 4.278 C 8.647 5.152,8.414 5.872,8.421 5.879 C 8.436 5.894,8.755 5.791,10.329 5.262 C 11.165 4.980,11.597 4.824,11.568 4.814 C 11.544 4.805,11.161 4.725,10.717 4.635 C 10.274 4.545,9.895 4.460,9.875 4.445 C 9.850 4.427,9.782 4.144,9.663 3.565 C 9.566 3.095,9.483 2.706,9.477 2.701 C 9.471 2.695,9.229 3.405,8.938 4.278 M6.574 4.189 L 6.035 4.731 6.166 5.121 L 6.298 5.511 6.724 5.086 L 7.150 4.660 7.574 5.083 L 7.997 5.506 8.127 5.112 L 8.257 4.718 7.722 4.182 C 7.427 3.888,7.170 3.647,7.150 3.647 C 7.130 3.647,6.871 3.891,6.574 4.189 M9.179 6.166 L 8.789 6.298 9.215 6.724 L 9.640 7.150 9.215 7.576 L 8.789 8.002 9.182 8.133 L 9.575 8.265 10.114 7.725 C 10.411 7.428,10.654 7.169,10.654 7.150 C 10.654 7.130,10.410 6.871,10.111 6.574 L 9.569 6.035 9.179 6.166 M4.177 6.584 C 3.885 6.876,3.647 7.131,3.647 7.150 C 3.647 7.170,3.888 7.427,4.182 7.722 L 4.718 8.257 5.112 8.127 L 5.506 7.997 5.083 7.574 L 4.660 7.150 5.083 6.726 L 5.506 6.303 5.130 6.178 C 4.923 6.110,4.743 6.054,4.730 6.054 C 4.717 6.054,4.468 6.292,4.177 6.584 M0.140 6.903 C -0.029 7.011,-0.044 7.222,0.108 7.361 L 0.196 7.442 1.725 7.424 C 2.565 7.415,3.258 7.402,3.264 7.397 C 3.269 7.392,3.222 7.334,3.157 7.269 L 3.041 7.150 3.156 7.033 L 3.271 6.917 3.047 6.903 C 2.925 6.895,2.234 6.883,1.513 6.876 C 0.318 6.865,0.197 6.867,0.140 6.903 M12.048 6.889 C 11.497 6.898,11.042 6.906,11.036 6.908 C 11.030 6.910,11.078 6.965,11.142 7.031 L 11.259 7.150 11.143 7.269 C 11.078 7.334,11.031 7.392,11.036 7.397 C 11.042 7.402,11.735 7.415,12.575 7.424 L 14.104 7.442 14.196 7.357 C 14.280 7.280,14.288 7.262,14.288 7.150 C 14.288 7.039,14.280 7.020,14.199 6.946 L 14.110 6.864 13.579 6.869 C 13.288 6.871,12.598 6.880,12.048 6.889 M4.259 8.942 C 3.396 9.231,2.695 9.471,2.700 9.477 C 2.706 9.483,3.094 9.566,3.562 9.662 C 4.030 9.758,4.424 9.848,4.438 9.862 C 4.452 9.876,4.542 10.270,4.638 10.739 C 4.734 11.207,4.816 11.599,4.819 11.610 C 4.826 11.630,5.890 8.465,5.888 8.431 C 5.887 8.421,5.873 8.414,5.857 8.415 C 5.841 8.416,5.121 8.653,4.259 8.942 M8.413 8.429 C 8.413 8.483,9.464 11.612,9.478 11.598 C 9.483 11.593,9.566 11.206,9.662 10.738 C 9.758 10.270,9.848 9.876,9.862 9.862 C 9.876 9.848,10.270 9.758,10.738 9.662 C 11.206 9.566,11.594 9.483,11.600 9.477 C 11.609 9.468,8.467 8.413,8.429 8.413 C 8.420 8.413,8.413 8.420,8.413 8.429 M6.167 9.182 L 6.035 9.575 6.575 10.114 C 6.872 10.411,7.131 10.654,7.150 10.654 C 7.170 10.654,7.427 10.412,7.722 10.118 L 8.257 9.582 8.127 9.188 L 7.997 8.794 7.574 9.217 L 7.150 9.640 6.724 9.215 L 6.298 8.789 6.167 9.182 M6.888 11.446 C 6.888 11.672,6.881 12.362,6.872 12.979 L 6.856 14.102 6.942 14.195 C 7.020 14.280,7.038 14.288,7.150 14.288 C 7.262 14.288,7.280 14.280,7.357 14.196 L 7.442 14.104 7.424 12.575 C 7.415 11.735,7.402 11.042,7.397 11.036 C 7.392 11.031,7.334 11.078,7.269 11.143 L 7.150 11.259 7.036 11.147 C 6.973 11.085,6.914 11.035,6.905 11.035 C 6.896 11.035,6.888 11.220,6.888 11.446 " stroke="none" fill-rule="evenodd" fill="black"></path></svg>