<svg id="Layer_2" data-name="Layer 2" xmlns="http://www.w3.org/2000/svg" viewBox="0 0 13.24855439 13.00160396"><path d="M6.649 0.072 C 6.648 0.081,6.581 0.990,6.502 2.092 C 6.422 3.193,6.355 4.096,6.353 4.099 C 6.345 4.106,2.643 6.053,2.494 6.128 L 2.350 6.201 1.357 6.269 C 0.811 6.307,0.325 6.346,0.276 6.355 C 0.216 6.366,0.514 6.392,1.189 6.436 C 1.855 6.479,2.194 6.509,2.200 6.526 C 2.206 6.540,2.125 6.747,2.020 6.988 C 1.916 7.228,1.835 7.429,1.841 7.435 C 1.853 7.447,7.927 4.248,7.963 4.210 C 7.995 4.178,8.479 3.072,8.479 3.032 C 8.479 3.016,8.469 3.003,8.456 3.003 C 8.444 3.003,8.114 3.172,7.723 3.378 C 7.332 3.585,7.000 3.754,6.985 3.754 C 6.970 3.754,6.952 3.721,6.946 3.682 C 6.939 3.643,6.874 2.825,6.801 1.866 C 6.681 0.294,6.657 0.016,6.649 0.072 M6.712 6.009 C 3.318 7.796,0.533 9.264,0.523 9.273 C 0.501 9.294,0.000 10.437,0.000 10.468 C -0.000 10.481,0.018 10.488,0.040 10.484 C 0.098 10.474,12.347 4.021,12.390 3.977 C 12.447 3.921,12.926 2.804,12.903 2.781 C 12.891 2.769,10.397 4.069,6.712 6.009 M8.104 7.177 L 5.047 8.788 4.852 9.235 C 4.512 10.013,4.525 9.981,4.557 9.994 C 4.574 10.000,4.976 9.800,5.452 9.549 C 5.930 9.298,6.332 9.099,6.349 9.106 C 6.367 9.112,6.381 9.146,6.381 9.180 C 6.381 9.310,6.647 12.926,6.658 12.936 C 6.664 12.942,6.668 12.928,6.668 12.904 C 6.668 12.830,6.980 8.778,6.987 8.755 C 6.992 8.743,7.817 8.301,8.822 7.772 L 10.649 6.812 10.716 6.662 C 10.762 6.558,10.796 6.510,10.829 6.504 C 10.854 6.499,11.384 6.467,12.005 6.433 C 12.627 6.399,13.132 6.368,13.128 6.364 C 13.124 6.360,12.635 6.326,12.042 6.290 C 11.449 6.254,10.955 6.216,10.945 6.206 C 10.935 6.196,10.983 6.060,11.052 5.904 C 11.120 5.747,11.182 5.607,11.188 5.592 C 11.195 5.577,11.191 5.565,11.181 5.565 C 11.170 5.566,9.786 6.291,8.104 7.177 " stroke="none" fill-rule="evenodd" fill="black"></path></svg>