<svg id="Layer_2" data-name="Layer 2" xmlns="http://www.w3.org/2000/svg" viewBox="0 0 13.44000244 14.35870802"><path d="M6.023 0.030 C 5.890 0.079,5.809 0.150,5.748 0.273 L 5.690 0.390 5.689 1.399 C 5.689 1.954,5.681 2.421,5.671 2.436 C 5.661 2.451,5.544 2.495,5.409 2.532 C 5.081 2.625,4.671 2.796,4.391 2.958 C 4.264 3.031,4.143 3.091,4.124 3.091 C 4.104 3.091,3.770 2.773,3.382 2.384 C 2.994 1.995,2.639 1.657,2.594 1.634 C 2.491 1.580,2.295 1.576,2.178 1.625 C 2.125 1.647,1.934 1.821,1.653 2.101 C 1.196 2.559,1.121 2.660,1.121 2.822 C 1.120 3.029,1.126 3.037,1.895 3.809 C 2.294 4.210,2.621 4.556,2.621 4.577 C 2.621 4.598,2.594 4.658,2.561 4.710 C 2.436 4.907,2.216 5.395,2.126 5.671 C 2.075 5.829,2.021 5.967,2.008 5.978 C 1.994 5.989,1.574 6.050,1.075 6.114 C 0.576 6.177,0.130 6.235,0.084 6.242 L 0.000 6.255 0.000 6.734 L 0.000 7.213 1.230 7.213 L 2.460 7.213 2.473 7.039 C 2.524 6.364,2.636 5.915,2.880 5.401 C 3.102 4.935,3.318 4.619,3.661 4.261 C 4.790 3.079,6.509 2.653,8.060 3.170 C 9.450 3.634,10.501 4.785,10.852 6.231 C 10.904 6.443,10.939 6.689,10.966 7.039 L 10.980 7.213 12.210 7.213 L 13.440 7.213 13.440 6.734 L 13.440 6.255 13.356 6.242 C 13.310 6.235,12.864 6.177,12.365 6.114 C 11.866 6.050,11.446 5.989,11.432 5.978 C 11.419 5.967,11.365 5.829,11.314 5.671 C 11.224 5.395,11.004 4.907,10.879 4.710 C 10.846 4.658,10.819 4.598,10.819 4.577 C 10.819 4.556,11.146 4.210,11.545 3.809 C 12.314 3.037,12.320 3.029,12.319 2.822 C 12.319 2.660,12.244 2.559,11.787 2.101 C 11.506 1.821,11.315 1.647,11.262 1.625 C 11.145 1.576,10.949 1.580,10.846 1.634 C 10.801 1.657,10.446 1.995,10.058 2.384 C 9.670 2.773,9.336 3.091,9.316 3.091 C 9.297 3.091,9.176 3.031,9.049 2.958 C 8.769 2.796,8.359 2.625,8.031 2.533 C 7.897 2.495,7.782 2.458,7.775 2.451 C 7.768 2.444,7.757 1.968,7.750 1.393 C 7.738 0.249,7.743 0.290,7.602 0.149 C 7.465 0.012,7.462 0.012,6.754 0.006 C 6.260 0.002,6.085 0.008,6.023 0.030 M6.186 3.642 C 5.657 3.719,5.178 3.905,4.704 4.220 C 4.389 4.429,3.943 4.874,3.735 5.187 C 3.373 5.730,3.149 6.403,3.131 7.000 L 3.125 7.202 3.620 7.208 L 4.115 7.214 4.130 7.021 C 4.207 6.012,4.838 5.159,5.789 4.779 C 6.346 4.556,7.094 4.556,7.651 4.779 C 8.602 5.159,9.233 6.012,9.310 7.020 L 9.325 7.213 9.815 7.213 C 10.229 7.213,10.307 7.208,10.318 7.179 C 10.336 7.133,10.287 6.654,10.245 6.463 C 10.151 6.030,9.950 5.554,9.705 5.187 C 9.512 4.896,9.053 4.433,8.765 4.238 C 8.132 3.809,7.458 3.604,6.698 3.609 C 6.531 3.610,6.301 3.625,6.186 3.642 M6.662 5.998 C 6.643 6.010,5.890 7.390,5.647 7.857 C 5.623 7.903,5.633 7.900,5.739 7.832 C 5.804 7.790,6.048 7.634,6.281 7.484 C 6.514 7.335,6.711 7.213,6.720 7.213 C 6.729 7.213,6.926 7.335,7.159 7.484 C 7.392 7.634,7.636 7.790,7.701 7.832 C 7.807 7.900,7.817 7.903,7.793 7.857 C 7.550 7.390,6.797 6.010,6.778 5.998 C 6.765 5.989,6.738 5.981,6.720 5.981 C 6.702 5.981,6.675 5.989,6.662 5.998 M3.338 11.022 C 5.179 12.857,6.702 14.358,6.720 14.358 C 6.738 14.358,8.261 12.857,10.102 11.022 L 13.451 7.686 12.399 7.684 L 11.346 7.683 9.061 9.968 C 7.259 11.769,6.764 12.253,6.720 12.253 C 6.676 12.253,6.181 11.770,4.379 9.968 L 2.094 7.683 1.041 7.684 L -0.011 7.686 3.338 11.022 M6.462 8.184 C 6.317 8.232,6.240 8.279,6.154 8.375 C 6.070 8.468,6.003 8.643,6.003 8.771 C 6.003 8.858,6.186 9.309,6.357 9.642 C 6.479 9.881,6.653 10.102,6.720 10.102 C 6.787 10.102,6.961 9.881,7.083 9.642 C 7.254 9.309,7.437 8.858,7.437 8.771 C 7.437 8.542,7.285 8.313,7.072 8.219 C 6.929 8.156,6.603 8.137,6.462 8.184 " stroke="none" fill-rule="evenodd" fill="black"></path></svg>