<svg id="Layer_2" data-name="Layer 2" xmlns="http://www.w3.org/2000/svg" viewBox="0 0 14.51399504 12.97778092"><path d="M9.076 0.029 C 9.054 0.051,9.047 0.914,9.047 3.765 L 9.047 7.473 7.620 9.149 C 6.661 10.275,6.193 10.842,6.193 10.878 C 6.193 10.908,6.212 10.942,6.235 10.954 C 6.287 10.982,9.969 10.329,10.025 10.282 C 10.059 10.254,10.064 9.824,10.069 6.196 L 10.075 2.141 10.148 2.141 C 10.207 2.141,10.392 2.281,11.168 2.915 C 11.714 3.360,12.104 3.695,12.088 3.703 C 12.072 3.712,11.885 3.731,11.672 3.747 C 11.459 3.763,11.233 3.782,11.170 3.790 L 11.055 3.804 11.055 4.305 L 11.055 4.807 11.170 4.796 C 11.233 4.790,11.994 4.723,12.862 4.646 C 13.925 4.552,14.452 4.497,14.477 4.476 C 14.497 4.459,14.514 4.426,14.514 4.402 C 14.514 4.353,9.204 0.000,9.143 0.000 C 9.122 0.000,9.092 0.013,9.076 0.029 M6.307 2.334 C 5.326 2.511,4.506 2.669,4.487 2.685 C 4.456 2.711,4.450 3.230,4.445 6.770 L 4.439 10.825 4.366 10.825 C 4.306 10.825,4.123 10.686,3.345 10.051 C 2.468 9.336,2.401 9.276,2.462 9.261 C 2.498 9.253,2.697 9.233,2.903 9.218 C 3.109 9.203,3.319 9.185,3.368 9.177 L 3.459 9.164 3.459 8.670 L 3.459 8.176 3.381 8.176 C 3.145 8.177,0.064 8.468,0.034 8.492 C 0.015 8.508,-0.000 8.540,-0.000 8.564 C -0.000 8.614,5.308 12.966,5.370 12.966 C 5.391 12.966,5.422 12.953,5.438 12.937 C 5.460 12.914,5.467 12.052,5.467 9.200 L 5.467 5.493 6.895 3.817 C 8.450 1.991,8.427 2.024,8.200 2.016 C 8.141 2.014,7.289 2.157,6.307 2.334 " stroke="none" fill-rule="evenodd" fill="black"></path></svg>