<svg id="Layer_2" data-name="Layer 2" xmlns="http://www.w3.org/2000/svg" viewBox="0 0 9.5800174 14.30446487"><path d="M4.737 0.020 C 4.722 0.031,4.291 0.557,3.779 1.190 L 2.849 2.339 1.453 2.347 C 0.684 2.352,0.055 2.357,0.053 2.359 C 0.051 2.361,0.039 2.374,0.025 2.388 C 0.002 2.411,0.000 2.734,0.000 5.703 C 0.000 8.828,0.001 8.993,0.028 8.986 C 0.043 8.982,0.313 8.915,0.627 8.836 L 1.198 8.694 1.198 6.163 C 1.198 3.898,1.200 3.628,1.222 3.596 L 1.247 3.561 2.433 3.561 C 3.220 3.561,3.635 3.555,3.666 3.544 C 3.699 3.532,3.856 3.349,4.215 2.904 C 4.492 2.561,4.731 2.273,4.748 2.264 C 4.764 2.256,4.794 2.253,4.814 2.258 C 4.839 2.264,5.025 2.482,5.357 2.894 C 5.648 3.254,5.881 3.529,5.905 3.540 C 5.961 3.565,7.906 3.569,7.978 3.544 C 8.018 3.530,8.077 3.441,8.372 2.941 L 8.718 2.355 7.724 2.347 L 6.730 2.339 5.800 1.190 C 5.289 0.557,4.858 0.031,4.843 0.020 C 4.808 -0.005,4.772 -0.005,4.737 0.020 M9.319 2.631 C 8.911 3.055,6.756 5.357,6.761 5.361 C 6.766 5.366,8.163 5.108,8.266 5.083 C 8.290 5.077,8.314 5.087,8.342 5.115 L 8.383 5.156 8.383 6.982 C 8.383 8.418,8.387 8.813,8.402 8.833 C 8.418 8.854,9.552 9.468,9.574 9.468 C 9.577 9.468,9.580 7.916,9.580 6.019 C 9.580 2.592,9.580 2.570,9.548 2.539 C 9.489 2.480,9.447 2.497,9.319 2.631 M3.450 7.101 C 3.559 7.213,3.896 7.562,4.198 7.876 C 4.656 8.353,4.754 8.446,4.790 8.446 C 4.826 8.446,4.924 8.353,5.382 7.876 C 5.684 7.562,6.021 7.213,6.130 7.101 L 6.328 6.898 4.790 6.898 L 3.252 6.898 3.450 7.101 M1.448 8.979 C 0.034 9.871,0.037 9.870,0.074 9.946 C 0.082 9.962,1.133 10.946,2.411 12.133 C 4.588 14.155,4.737 14.290,4.790 14.290 C 4.843 14.290,4.951 14.192,6.483 12.766 C 7.383 11.928,8.128 11.226,8.139 11.206 C 8.154 11.177,8.159 10.914,8.159 10.087 C 8.159 9.492,8.154 9.005,8.147 9.005 C 8.140 9.005,7.393 9.695,6.485 10.538 C 5.103 11.822,4.828 12.071,4.790 12.071 C 4.752 12.071,4.531 11.872,3.446 10.865 C 2.732 10.201,2.138 9.640,2.125 9.617 C 2.104 9.576,2.119 9.543,2.465 8.849 C 2.665 8.450,2.825 8.121,2.823 8.119 C 2.820 8.117,2.202 8.504,1.448 8.979 " stroke="none" fill-rule="evenodd" fill="black"></path></svg>