<svg id="Layer_2" data-name="Layer 2" xmlns="http://www.w3.org/2000/svg" viewBox="0 0 14.00282286 13.97904766"><path d="M0.268 0.280 L -0.011 0.560 0.304 0.881 C 0.477 1.058,0.886 1.472,1.213 1.803 L 1.809 2.404 1.820 3.705 L 1.832 5.006 2.229 5.006 L 2.626 5.006 2.632 3.853 C 2.636 3.054,2.646 2.690,2.663 2.669 C 2.684 2.644,2.917 2.636,3.848 2.632 L 5.006 2.626 5.006 2.229 L 5.006 1.832 3.709 1.820 L 2.412 1.809 1.497 0.910 C 0.994 0.416,0.575 0.009,0.565 0.006 C 0.556 0.002,0.422 0.126,0.268 0.280 M7.203 1.594 C 7.115 1.994,7.038 2.348,7.031 2.380 C 7.024 2.417,6.751 2.708,6.316 3.145 L 5.614 3.851 5.963 4.201 L 6.312 4.550 6.792 4.072 C 7.087 3.778,7.290 3.594,7.318 3.594 C 7.376 3.594,11.062 7.276,11.062 7.334 C 11.062 7.356,10.847 7.593,10.585 7.860 L 10.108 8.346 10.457 8.695 L 10.806 9.043 11.478 8.371 L 12.151 7.698 12.988 7.517 C 13.448 7.417,13.815 7.330,13.803 7.323 C 13.791 7.317,13.412 7.229,12.961 7.130 L 12.141 6.948 9.945 4.752 L 7.750 2.556 7.562 1.717 C 7.459 1.256,7.371 0.876,7.368 0.872 C 7.365 0.869,7.290 1.194,7.203 1.594 M6.538 6.272 C 8.254 7.989,9.674 9.426,9.693 9.465 C 9.728 9.536,9.743 9.612,9.736 9.691 C 9.731 9.745,9.611 9.745,9.492 9.691 C 9.434 9.664,8.358 8.610,6.279 6.540 C 4.561 4.830,3.151 3.431,3.146 3.431 C 3.142 3.431,3.152 3.612,3.170 3.833 L 3.202 4.236 7.003 8.040 L 10.805 11.844 10.867 12.159 C 10.901 12.332,10.940 12.487,10.955 12.502 C 11.001 12.553,13.889 13.956,13.947 13.956 C 13.978 13.956,14.003 13.950,14.003 13.941 C 14.003 13.922,12.555 10.962,12.535 10.940 C 12.526 10.930,12.368 10.892,12.184 10.855 L 11.849 10.787 8.066 7.005 C 5.564 4.504,4.263 3.219,4.224 3.212 C 4.159 3.199,3.569 3.150,3.477 3.151 C 3.430 3.151,4.026 3.758,6.538 6.272 M7.153 5.065 L 6.990 5.228 8.209 6.447 L 9.428 7.666 9.598 7.497 L 9.767 7.328 8.553 6.115 C 7.886 5.447,7.334 4.901,7.328 4.901 C 7.321 4.901,7.242 4.975,7.153 5.065 M3.197 6.269 C 2.831 6.636,2.501 6.949,2.462 6.965 C 2.424 6.981,2.064 7.066,1.663 7.155 C 1.262 7.244,0.934 7.322,0.934 7.328 C 0.934 7.335,1.283 7.416,1.710 7.510 L 2.486 7.679 4.751 9.944 L 7.017 12.210 7.190 13.000 C 7.284 13.434,7.365 13.787,7.369 13.783 C 7.372 13.780,7.459 13.400,7.562 12.939 L 7.749 12.101 8.402 11.447 L 9.055 10.793 8.707 10.432 L 8.359 10.070 7.861 10.566 C 7.587 10.839,7.347 11.062,7.328 11.062 C 7.274 11.062,3.594 7.372,3.594 7.318 C 3.594 7.290,3.781 7.085,4.078 6.786 L 4.562 6.301 4.212 5.951 L 3.862 5.601 3.197 6.269 M5.064 7.153 L 4.890 7.329 6.109 8.548 L 7.328 9.767 7.503 9.592 L 7.678 9.417 6.458 8.197 L 5.239 6.978 5.064 7.153 " stroke="none" fill-rule="evenodd" fill="black"></path></svg>