<svg id="Layer_2" data-name="Layer 2" xmlns="http://www.w3.org/2000/svg" viewBox="0 0 14.39511481 14.39492699"><path d="M0.559 0.557 C 0.201 0.914,-0.000 1.132,-0.000 1.162 C -0.000 1.194,0.367 1.578,1.056 2.267 L 2.111 3.323 1.769 3.665 L 1.428 4.007 3.059 5.638 L 4.690 7.269 4.863 7.097 C 5.035 6.926,5.037 6.925,5.127 6.947 L 5.218 6.970 5.225 7.324 L 5.232 7.677 5.579 7.677 L 5.926 7.677 5.926 8.025 L 5.926 8.372 6.280 8.379 L 6.634 8.385 6.625 8.726 L 6.616 9.068 6.973 9.074 L 7.330 9.081 7.330 9.429 L 7.330 9.777 7.683 9.783 L 8.037 9.790 8.037 10.137 L 8.037 10.484 8.385 10.484 L 8.733 10.484 8.733 10.832 L 8.733 11.180 9.081 11.180 L 9.429 11.180 9.429 11.528 L 9.429 11.876 9.777 11.876 L 10.125 11.876 10.125 12.224 L 10.125 12.572 10.472 12.572 L 10.819 12.572 10.826 12.925 L 10.832 13.278 11.180 13.279 L 11.528 13.279 11.543 13.627 C 11.551 13.819,11.559 13.982,11.561 13.990 C 11.563 13.999,11.706 13.953,11.879 13.888 C 12.052 13.824,12.207 13.771,12.222 13.771 C 12.238 13.771,12.306 13.903,12.373 14.065 C 12.441 14.226,12.505 14.361,12.516 14.365 C 12.527 14.368,12.632 14.263,12.749 14.130 C 12.949 13.903,12.964 13.891,13.012 13.922 C 13.173 14.025,13.510 14.208,13.520 14.199 C 13.526 14.192,13.538 14.056,13.547 13.895 C 13.556 13.731,13.574 13.594,13.589 13.583 C 13.604 13.571,13.744 13.555,13.902 13.546 C 14.059 13.538,14.193 13.526,14.199 13.520 C 14.208 13.510,14.023 13.171,13.922 13.012 C 13.891 12.964,13.904 12.948,14.142 12.738 L 14.395 12.515 14.083 12.382 C 13.912 12.308,13.772 12.234,13.772 12.218 C 13.771 12.202,13.824 12.048,13.889 11.876 L 14.006 11.564 13.931 11.561 C 13.889 11.559,13.726 11.551,13.567 11.543 L 13.279 11.528 13.273 11.174 L 13.266 10.820 12.919 10.820 L 12.572 10.820 12.572 10.472 L 12.572 10.125 12.224 10.125 L 11.876 10.125 11.876 9.777 L 11.876 9.430 11.522 9.423 L 11.168 9.417 11.162 9.068 L 11.155 8.719 10.814 8.720 L 10.472 8.721 10.466 8.365 L 10.459 8.008 10.118 8.017 L 9.777 8.025 9.770 7.671 L 9.763 7.318 9.416 7.318 L 9.069 7.318 9.069 6.970 L 9.069 6.622 8.721 6.622 L 8.373 6.622 8.373 6.274 L 8.373 5.926 8.025 5.926 L 7.677 5.926 7.677 5.578 L 7.677 5.230 7.320 5.230 L 6.962 5.230 6.945 5.131 C 6.929 5.034,6.930 5.031,7.099 4.861 L 7.269 4.690 5.638 3.059 L 4.007 1.428 3.665 1.769 L 3.323 2.111 2.267 1.056 C 1.606 0.396,1.193 0.000,1.164 0.000 C 1.136 0.000,0.900 0.217,0.559 0.557 M4.648 2.837 C 4.893 3.082,5.038 3.244,5.038 3.274 C 5.038 3.341,3.341 5.038,3.275 5.038 C 3.244 5.038,3.082 4.894,2.834 4.645 C 2.386 4.197,2.393 4.214,2.585 4.025 L 2.700 3.911 2.939 4.151 L 3.178 4.391 3.784 3.785 L 4.390 3.180 4.149 2.938 L 3.909 2.696 4.040 2.572 C 4.112 2.503,4.191 2.447,4.215 2.447 C 4.239 2.447,4.433 2.622,4.648 2.837 M10.031 8.751 C 13.207 11.931,13.359 12.087,13.424 12.236 C 13.514 12.441,13.534 12.743,13.471 12.935 C 13.328 13.369,12.901 13.603,12.446 13.498 C 12.102 13.418,12.290 13.593,8.727 10.033 C 6.821 8.128,5.422 6.712,5.422 6.688 C 5.422 6.664,5.459 6.605,5.505 6.555 L 5.588 6.466 8.870 9.744 C 12.425 13.294,12.258 13.138,12.545 13.166 C 12.861 13.196,13.201 12.851,13.166 12.536 C 13.134 12.254,13.279 12.410,9.744 8.870 L 6.466 5.588 6.555 5.505 C 6.605 5.459,6.659 5.422,6.676 5.422 C 6.692 5.422,8.202 6.920,10.031 8.751 " stroke="none" fill-rule="evenodd" fill="black"></path></svg>