<svg id="Layer_2" data-name="Layer 2" xmlns="http://www.w3.org/2000/svg" viewBox="0 0 14.20210228 14.21181995"><path d="M0.272 0.284 L -0.011 0.568 0.906 1.486 L 1.823 2.403 1.823 3.696 C 1.823 4.854,1.827 4.991,1.860 5.004 C 1.933 5.032,2.593 5.020,2.623 4.990 C 2.644 4.968,2.651 4.670,2.651 3.795 L 2.651 2.628 3.829 2.622 L 5.006 2.616 5.006 2.225 L 5.006 1.834 3.704 1.828 L 2.402 1.822 1.491 0.911 C 0.990 0.410,0.575 0.000,0.568 0.000 C 0.561 0.000,0.428 0.128,0.272 0.284 M4.179 3.722 C 4.388 3.934,5.709 5.268,7.115 6.687 C 8.520 8.106,9.705 9.307,9.747 9.356 C 9.819 9.441,9.823 9.456,9.823 9.635 L 9.823 9.823 9.620 9.823 L 9.417 9.823 6.383 6.806 C 3.666 4.104,3.349 3.796,3.342 3.853 C 3.334 3.927,3.403 5.991,3.413 6.000 C 3.417 6.004,5.347 7.839,7.702 10.079 C 11.479 13.672,11.994 14.153,12.069 14.164 C 12.116 14.171,12.616 14.183,13.181 14.192 L 14.207 14.208 14.190 13.134 C 14.180 12.543,14.164 12.039,14.155 12.013 C 14.140 11.974,6.675 4.092,6.144 3.554 L 5.996 3.405 5.075 3.372 C 4.569 3.354,4.074 3.339,3.977 3.338 L 3.800 3.337 4.179 3.722 " stroke="none" fill-rule="evenodd" fill="black"></path></svg>