<svg id="Layer_2" data-name="Layer 2" xmlns="http://www.w3.org/2000/svg" viewBox="0 0 13.60792855 13.60809506"><path d="M0.266 0.267 C 0.120 0.414,0.000 0.544,0.000 0.556 C 0.000 0.568,0.398 0.976,0.884 1.463 L 1.769 2.347 1.775 3.606 L 1.780 4.865 2.183 4.871 L 2.586 4.877 2.586 3.759 C 2.586 2.919,2.592 2.633,2.613 2.613 C 2.633 2.592,2.915 2.586,3.742 2.586 C 4.569 2.586,4.851 2.579,4.872 2.558 C 4.900 2.530,4.912 1.875,4.885 1.805 C 4.873 1.773,4.739 1.769,3.610 1.769 L 2.349 1.769 1.463 0.885 C 0.976 0.398,0.567 0.000,0.555 0.000 C 0.542 0.000,0.413 0.120,0.266 0.267 M8.864 0.703 C 8.856 0.734,8.704 2.044,8.525 3.613 L 8.200 6.466 9.186 7.450 L 10.172 8.434 10.328 8.405 C 10.414 8.388,11.054 8.269,11.750 8.139 C 12.447 8.010,13.009 7.898,13.000 7.890 C 12.991 7.882,12.265 7.731,11.385 7.553 C 9.821 7.238,9.730 7.215,9.730 7.138 C 9.730 7.123,8.923 0.973,8.886 0.703 L 8.878 0.646 8.864 0.703 M6.186 5.900 C 8.888 8.604,9.163 8.886,9.163 8.951 C 9.163 9.093,8.993 9.216,8.879 9.158 C 8.854 9.145,7.504 7.806,5.880 6.184 L 2.926 3.233 2.926 3.652 L 2.926 4.071 6.552 7.700 L 10.177 11.329 10.216 11.657 C 10.237 11.838,10.262 11.993,10.270 12.001 C 10.296 12.025,13.131 13.245,13.162 13.245 C 13.203 13.245,13.245 13.197,13.245 13.150 C 13.245 13.109,12.033 10.300,12.003 10.271 C 11.994 10.262,11.838 10.238,11.657 10.217 L 11.329 10.179 7.710 6.564 L 4.092 2.948 3.707 2.948 C 3.496 2.948,3.297 2.942,3.266 2.934 C 3.230 2.925,4.286 3.998,6.186 5.900 M11.737 5.818 C 10.751 6.185,9.936 6.488,9.924 6.492 C 9.911 6.497,9.916 6.604,9.935 6.759 L 9.968 7.017 10.512 7.127 C 10.833 7.191,11.072 7.229,11.095 7.218 C 11.134 7.200,13.563 5.171,13.563 5.157 C 13.563 5.140,13.497 5.164,11.737 5.818 M3.513 8.539 C 1.971 8.717,0.697 8.866,0.683 8.871 C 0.669 8.875,2.119 9.072,3.906 9.307 C 5.692 9.542,7.166 9.740,7.182 9.746 C 7.223 9.761,7.215 9.726,7.566 11.459 C 7.739 12.316,7.886 13.018,7.893 13.018 C 7.899 13.018,8.010 12.448,8.139 11.751 C 8.269 11.054,8.388 10.414,8.405 10.328 L 8.434 10.172 7.455 9.191 C 6.523 8.257,6.472 8.210,6.396 8.213 C 6.352 8.214,5.055 8.361,3.513 8.539 M5.821 11.729 C 5.451 12.729,5.152 13.551,5.156 13.555 C 5.167 13.566,7.195 11.145,7.218 11.095 C 7.229 11.072,7.191 10.833,7.127 10.512 L 7.017 9.968 6.814 9.941 C 6.703 9.927,6.585 9.914,6.553 9.913 C 6.496 9.911,6.477 9.957,5.821 11.729 " stroke="none" fill-rule="evenodd" fill="black"></path></svg>