<svg id="Layer_2" data-name="Layer 2" xmlns="http://www.w3.org/2000/svg" viewBox="0 0 13.98859418 13.98704297"><path d="M0.268 0.280 L -0.011 0.560 0.245 0.822 C 0.386 0.966,0.795 1.381,1.154 1.743 L 1.807 2.402 1.819 3.701 L 1.830 5.001 2.232 5.007 L 2.635 5.014 2.635 3.861 C 2.635 2.844,2.639 2.703,2.671 2.671 C 2.703 2.639,2.844 2.635,3.861 2.635 L 5.014 2.635 5.007 2.232 L 5.001 1.830 3.705 1.819 L 2.409 1.807 1.491 0.903 C 0.986 0.407,0.567 0.000,0.560 0.000 C 0.553 0.000,0.422 0.126,0.268 0.280 M8.710 0.904 C 8.672 0.964,8.481 1.258,8.284 1.556 L 7.927 2.098 7.927 3.918 C 7.927 5.128,7.919 5.754,7.903 5.783 C 7.879 5.827,7.834 5.829,6.035 5.829 L 4.192 5.829 3.847 6.058 C 3.658 6.185,3.323 6.379,3.103 6.490 L 2.704 6.691 4.266 6.691 L 5.828 6.691 5.834 7.300 L 5.840 7.909 6.246 7.329 C 6.469 7.010,6.668 6.736,6.688 6.720 C 6.716 6.697,7.311 6.691,9.490 6.691 L 12.256 6.691 12.441 6.559 C 12.542 6.486,12.823 6.292,13.066 6.127 L 13.507 5.829 11.174 5.829 C 9.247 5.829,8.837 5.823,8.816 5.797 C 8.797 5.775,8.788 5.070,8.784 3.279 L 8.778 0.793 8.710 0.904 M6.638 2.883 C 6.582 3.098,6.417 3.437,6.238 3.707 C 6.091 3.926,5.775 4.318,5.656 4.429 L 5.594 4.486 4.965 3.858 L 4.336 3.229 3.876 3.190 C 3.623 3.168,3.414 3.153,3.411 3.156 C 3.408 3.159,3.846 3.601,4.384 4.139 L 5.362 5.117 6.015 5.124 C 6.533 5.130,6.671 5.125,6.680 5.101 C 6.686 5.084,6.689 4.542,6.686 3.897 L 6.680 2.723 6.638 2.883 M3.124 3.456 C 3.125 3.472,3.140 3.659,3.159 3.870 L 3.193 4.255 3.632 4.692 L 4.071 5.129 4.454 5.129 L 4.837 5.129 3.987 4.278 C 3.519 3.810,3.133 3.427,3.130 3.427 C 3.127 3.427,3.124 3.440,3.124 3.456 M8.347 7.495 L 7.916 7.927 5.012 7.927 L 2.108 7.927 1.835 8.115 C 1.685 8.219,1.387 8.413,1.173 8.546 L 0.785 8.790 3.279 8.790 C 5.187 8.790,5.779 8.796,5.801 8.817 C 5.822 8.839,5.829 9.395,5.829 11.176 L 5.829 13.507 6.138 13.043 C 6.309 12.787,6.503 12.503,6.570 12.412 L 6.691 12.245 6.691 10.517 L 6.691 8.790 8.427 8.790 L 10.163 8.790 10.391 8.624 C 10.678 8.416,10.968 8.237,11.296 8.063 L 11.552 7.928 10.171 7.927 L 8.791 7.927 8.784 7.495 L 8.778 7.064 8.347 7.495 M7.951 9.557 C 7.935 9.586,7.927 9.949,7.928 10.577 L 7.928 11.552 8.085 11.249 C 8.172 11.082,8.310 10.846,8.393 10.725 C 8.571 10.465,8.920 10.095,8.987 10.095 C 9.016 10.095,9.350 10.412,9.913 10.975 L 10.793 11.855 10.856 12.170 C 10.890 12.343,10.930 12.497,10.944 12.513 C 10.989 12.563,13.875 13.965,13.933 13.965 C 13.963 13.965,13.989 13.959,13.989 13.950 C 13.989 13.929,12.541 10.973,12.519 10.949 C 12.509 10.938,12.350 10.898,12.166 10.861 L 11.832 10.794 11.191 10.153 L 10.549 9.512 9.262 9.512 C 8.014 9.512,7.974 9.514,7.951 9.557 " stroke="none" fill-rule="evenodd" fill="black"></path></svg>