<svg id="Layer_2" data-name="Layer 2" xmlns="http://www.w3.org/2000/svg" viewBox="0 0 13.40074035 13.37768809"><path d="M0.257 0.268 L -0.010 0.536 0.855 1.402 L 1.720 2.268 1.720 3.502 L 1.720 4.736 2.105 4.730 L 2.490 4.724 2.496 3.638 C 2.501 2.766,2.508 2.546,2.532 2.527 C 2.552 2.510,2.894 2.500,3.643 2.496 L 4.724 2.490 4.724 2.111 L 4.724 1.731 3.490 1.720 L 2.256 1.709 1.401 0.854 C 0.932 0.384,0.542 0.000,0.536 0.000 C 0.529 0.000,0.404 0.121,0.257 0.268 M6.256 6.002 C 8.134 7.882,9.273 9.038,9.290 9.082 C 9.305 9.120,9.314 9.186,9.310 9.227 C 9.303 9.292,9.294 9.303,9.235 9.309 C 9.197 9.313,9.127 9.294,9.072 9.264 C 9.011 9.231,7.899 8.140,5.983 6.233 L 2.989 3.253 3.002 3.374 C 3.009 3.441,3.026 3.621,3.039 3.775 L 3.062 4.054 6.701 7.694 L 10.341 11.335 10.400 11.636 C 10.432 11.802,10.470 11.950,10.484 11.965 C 10.528 12.013,13.292 13.356,13.347 13.356 C 13.377 13.356,13.401 13.350,13.401 13.342 C 13.401 13.322,12.014 10.490,11.993 10.467 C 11.983 10.456,11.831 10.418,11.655 10.383 L 11.335 10.318 7.705 6.689 C 4.825 3.809,4.064 3.060,4.020 3.060 C 3.958 3.060,3.506 3.022,3.350 3.004 L 3.250 2.992 6.256 6.002 M7.002 3.018 C 6.854 3.028,6.674 3.046,6.600 3.057 C 6.466 3.077,6.466 3.077,6.682 3.079 C 7.799 3.093,8.954 3.593,9.835 4.444 C 10.428 5.017,10.828 5.682,11.002 6.388 L 11.044 6.555 11.061 6.287 C 11.082 5.950,11.049 5.494,10.990 5.322 L 10.946 5.193 11.005 4.516 C 11.055 3.932,11.059 3.836,11.032 3.809 C 11.009 3.788,10.796 3.761,10.330 3.720 L 9.660 3.661 9.492 3.549 C 8.838 3.111,8.056 2.944,7.002 3.018 M6.913 3.388 C 6.508 3.423,5.806 3.572,5.530 3.680 L 5.427 3.720 5.536 3.827 L 5.645 3.934 5.832 3.834 C 6.183 3.645,6.713 3.456,7.080 3.389 C 7.128 3.380,7.126 3.379,7.069 3.379 C 7.032 3.380,6.962 3.384,6.913 3.388 M6.717 3.941 C 6.482 3.975,6.170 4.058,5.995 4.133 L 5.888 4.179 6.406 4.697 L 6.923 5.215 7.197 5.217 C 7.366 5.219,7.529 5.234,7.621 5.256 C 8.263 5.411,8.748 5.805,9.024 6.396 C 9.152 6.671,9.182 6.806,9.195 7.169 L 9.206 7.493 9.722 8.011 C 10.005 8.296,10.245 8.524,10.255 8.519 C 10.283 8.501,10.402 8.111,10.455 7.859 C 10.526 7.531,10.526 6.945,10.457 6.621 C 10.385 6.283,10.310 6.072,10.151 5.751 C 9.836 5.114,9.325 4.600,8.686 4.273 C 8.417 4.136,8.060 4.014,7.783 3.964 C 7.504 3.913,6.987 3.903,6.717 3.941 M3.454 5.319 C 3.281 5.614,3.139 6.007,3.043 6.453 C 2.986 6.720,2.982 6.766,2.982 7.353 C 2.982 7.782,2.989 7.979,3.007 7.996 C 3.025 8.015,3.036 7.988,3.048 7.891 C 3.128 7.251,3.451 6.352,3.817 5.755 L 3.904 5.612 3.708 5.417 L 3.512 5.221 3.454 5.319 M4.125 5.913 C 4.118 5.935,4.078 6.054,4.035 6.178 C 3.898 6.576,3.876 6.725,3.875 7.236 C 3.875 7.746,3.897 7.897,4.031 8.301 C 4.512 9.747,5.962 10.706,7.454 10.565 C 7.776 10.535,8.153 10.446,8.408 10.340 L 8.585 10.266 8.062 9.756 C 7.619 9.326,7.530 9.249,7.486 9.259 C 7.457 9.265,7.319 9.271,7.179 9.271 C 6.268 9.271,5.507 8.697,5.235 7.805 C 5.180 7.625,5.174 7.568,5.170 7.241 L 5.167 6.876 4.666 6.375 C 4.391 6.099,4.159 5.874,4.151 5.874 C 4.144 5.874,4.132 5.892,4.125 5.913 M11.381 6.502 C 11.375 6.531,11.349 6.669,11.324 6.808 C 11.208 7.433,10.939 8.152,10.631 8.655 C 10.582 8.735,10.542 8.808,10.542 8.817 C 10.542 8.827,10.628 8.920,10.733 9.024 L 10.923 9.213 10.967 9.157 C 11.029 9.076,11.199 8.681,11.265 8.463 C 11.416 7.962,11.475 7.400,11.435 6.829 C 11.421 6.630,11.406 6.463,11.401 6.458 C 11.397 6.453,11.388 6.473,11.381 6.502 M3.355 8.490 C 3.364 8.959,3.370 9.027,3.415 9.159 L 3.466 9.307 3.407 9.960 C 3.375 10.320,3.354 10.632,3.361 10.654 C 3.368 10.676,3.391 10.700,3.411 10.708 C 3.431 10.716,3.740 10.748,4.097 10.779 L 4.746 10.836 4.953 10.970 C 5.407 11.263,5.894 11.421,6.522 11.482 C 6.830 11.511,7.393 11.496,7.750 11.448 L 7.962 11.419 7.708 11.416 C 5.905 11.394,4.019 10.034,3.487 8.370 C 3.451 8.256,3.414 8.125,3.405 8.079 C 3.397 8.033,3.380 7.989,3.368 7.982 C 3.353 7.973,3.349 8.147,3.355 8.490 M8.722 10.579 C 8.445 10.751,7.971 10.943,7.538 11.058 L 7.292 11.124 7.471 11.111 C 7.715 11.093,8.163 11.018,8.420 10.952 C 8.622 10.900,9.023 10.771,9.044 10.751 C 9.055 10.741,8.841 10.518,8.823 10.522 C 8.816 10.523,8.771 10.549,8.722 10.579 " stroke="none" fill-rule="evenodd" fill="black"></path></svg>