<svg id="Layer_2" data-name="Layer 2" xmlns="http://www.w3.org/2000/svg" viewBox="0 0 14.15896226 13.10568726"><path d="M0.452 0.457 L -0.002 0.911 2.396 3.291 L 4.794 5.672 4.391 6.075 L 3.988 6.478 4.313 6.802 L 4.637 7.126 5.894 5.870 L 7.150 4.613 6.826 4.289 L 6.502 3.965 6.097 4.369 L 5.692 4.773 3.299 2.388 L 0.906 0.002 0.452 0.457 M1.793 1.380 L 1.793 1.793 2.195 1.793 L 2.596 1.793 2.596 2.206 L 2.596 2.619 2.195 2.619 L 1.793 2.619 1.793 2.206 L 1.793 1.793 1.380 1.793 L 0.968 1.793 0.968 1.380 L 0.968 0.968 1.380 0.968 L 1.793 0.968 1.793 1.380 M3.422 3.021 L 3.422 3.422 3.835 3.422 L 4.248 3.422 4.248 3.835 L 4.248 4.248 4.661 4.248 L 5.074 4.248 5.074 4.661 L 5.074 5.074 4.661 5.074 L 4.248 5.074 4.248 4.661 L 4.248 4.248 3.835 4.248 L 3.422 4.248 3.422 3.835 L 3.422 3.422 3.021 3.422 L 2.619 3.422 2.619 3.021 L 2.619 2.619 3.021 2.619 L 3.422 2.619 3.422 3.021 M6.116 6.119 C 5.735 6.501,5.637 6.611,5.644 6.653 C 5.649 6.687,6.841 7.895,8.849 9.901 L 12.047 13.096 12.578 13.097 L 13.109 13.097 10.124 10.112 L 7.140 7.128 7.232 7.033 L 7.324 6.939 10.410 10.018 L 13.496 13.097 13.823 13.097 L 14.150 13.097 10.426 9.374 C 8.028 6.978,6.682 5.649,6.648 5.645 C 6.607 5.640,6.489 5.746,6.116 6.119 M5.123 8.631 C 4.899 9.394,4.633 10.064,4.426 10.383 L 4.315 10.556 4.782 11.024 L 5.250 11.493 5.710 11.032 C 6.155 10.588,6.169 10.570,6.136 10.519 C 6.017 10.332,5.884 10.075,5.781 9.833 C 5.671 9.571,5.420 8.839,5.310 8.454 C 5.283 8.360,5.252 8.283,5.243 8.283 C 5.233 8.283,5.179 8.440,5.123 8.631 " stroke="none" fill-rule="evenodd" fill="black"></path></svg>