<svg id="Layer_2" data-name="Layer 2" xmlns="http://www.w3.org/2000/svg" viewBox="0 0 14.36932912 11.57533456"><path d="M2.826 0.016 C 2.826 0.050,3.341 1.239,3.368 1.269 C 3.395 1.298,3.523 1.305,4.101 1.311 C 4.487 1.316,4.826 1.324,4.856 1.331 L 4.910 1.342 4.910 2.084 L 4.910 2.826 4.784 2.826 L 4.658 2.826 7.568 5.736 L 10.478 8.646 10.835 8.646 L 11.193 8.646 8.734 6.182 C 6.585 4.029,6.275 3.709,6.275 3.647 C 6.275 3.570,6.346 3.489,6.439 3.461 C 6.491 3.445,6.743 3.690,8.972 5.919 L 11.448 8.394 11.448 8.035 L 11.448 7.676 8.445 4.673 L 5.443 1.671 5.412 1.388 L 5.382 1.104 5.295 1.069 C 5.248 1.049,4.673 0.802,4.017 0.519 C 3.362 0.237,2.826 0.010,2.826 0.016 M0.247 0.316 L 0.003 0.559 0.828 1.395 L 1.652 2.232 1.653 3.169 C 1.653 3.685,1.660 4.213,1.668 4.341 L 1.684 4.575 2.033 4.569 L 2.383 4.562 2.389 3.535 C 2.393 2.825,2.404 2.497,2.422 2.475 C 2.443 2.449,2.607 2.443,3.232 2.443 C 3.663 2.443,4.131 2.436,4.271 2.427 L 4.526 2.412 4.526 2.072 L 4.526 1.732 3.898 1.716 C 3.552 1.708,3.024 1.700,2.724 1.700 L 2.180 1.700 1.352 0.886 C 0.897 0.438,0.517 0.072,0.508 0.072 C 0.498 0.072,0.381 0.182,0.247 0.316 M5.646 5.442 C 7.006 6.802,8.119 7.929,8.119 7.946 C 8.119 8.068,7.961 8.187,7.865 8.137 C 7.840 8.124,6.717 7.012,5.371 5.667 L 2.922 3.221 2.922 3.580 L 2.922 3.940 5.926 6.945 L 8.931 9.951 8.966 10.222 C 8.985 10.371,9.005 10.498,9.011 10.503 C 9.016 10.509,9.551 10.740,10.199 11.017 C 11.440 11.546,11.472 11.556,11.472 11.416 C 11.472 11.386,11.247 10.840,10.972 10.201 L 10.472 9.041 10.191 9.007 L 9.911 8.974 6.913 5.987 L 3.916 3.001 3.544 2.985 L 3.173 2.970 5.646 5.442 M11.998 7.348 C 11.998 7.517,11.991 7.997,11.983 8.414 L 11.967 9.172 11.468 9.172 C 11.193 9.172,10.969 9.175,10.969 9.178 C 10.969 9.182,11.037 9.346,11.121 9.544 L 11.274 9.903 11.731 9.909 L 12.188 9.916 13.026 10.742 C 13.486 11.196,13.867 11.567,13.871 11.567 C 13.876 11.567,13.992 11.455,14.129 11.317 L 14.379 11.066 13.865 10.544 C 13.583 10.257,13.212 9.880,13.041 9.705 L 12.729 9.387 12.717 8.220 L 12.705 7.053 12.352 7.046 L 11.998 7.040 11.998 7.348 " stroke="none" fill-rule="evenodd" fill="black"></path></svg>