<svg id="Layer_2" data-name="Layer 2" xmlns="http://www.w3.org/2000/svg" viewBox="0 0 12.95873642 12.97998047"><path d="M5.644 0.035 C 5.606 0.053,5.567 0.085,5.558 0.105 C 5.548 0.124,5.535 1.447,5.529 3.044 L 5.518 5.948 3.035 7.378 C 0.394 8.899,0.435 8.873,0.463 9.016 C 0.476 9.081,1.128 10.233,1.226 10.364 C 1.292 10.452,1.390 10.498,1.467 10.475 C 1.498 10.466,2.633 9.816,3.991 9.031 C 5.348 8.245,6.468 7.602,6.479 7.602 C 6.490 7.602,7.610 8.245,8.968 9.031 C 10.325 9.816,11.461 10.466,11.492 10.475 C 11.568 10.498,11.667 10.452,11.733 10.364 C 11.831 10.233,12.483 9.081,12.496 9.016 C 12.524 8.873,12.565 8.899,9.924 7.378 L 7.440 5.948 7.430 3.044 C 7.424 1.447,7.411 0.124,7.401 0.104 C 7.391 0.084,7.351 0.053,7.311 0.034 C 7.205 -0.017,5.747 -0.016,5.644 0.035 M7.192 3.152 L 7.192 6.045 7.241 6.099 C 7.267 6.128,8.400 6.792,9.757 7.573 C 11.114 8.355,12.224 9.001,12.224 9.009 C 12.224 9.030,11.577 10.156,11.545 10.190 C 11.525 10.212,11.030 9.934,9.048 8.786 C 6.776 7.469,6.569 7.354,6.479 7.354 C 6.390 7.354,6.183 7.469,3.911 8.786 C 1.927 9.935,1.434 10.212,1.413 10.190 C 1.382 10.156,0.734 9.031,0.734 9.009 C 0.734 9.001,1.845 8.355,3.202 7.573 C 4.559 6.792,5.691 6.128,5.718 6.099 L 5.767 6.045 5.767 3.152 L 5.767 0.259 6.479 0.259 L 7.192 0.259 7.192 3.152 M2.745 0.606 L 2.678 0.673 2.678 1.665 L 2.678 2.657 3.078 2.657 L 3.477 2.657 3.477 1.998 L 3.477 1.340 4.163 1.334 L 4.849 1.328 4.855 0.934 L 4.861 0.540 3.836 0.540 L 2.811 0.540 2.745 0.606 M8.104 0.934 L 8.110 1.328 8.796 1.334 L 9.481 1.340 9.481 1.998 L 9.481 2.657 9.882 2.657 L 10.282 2.657 10.276 1.664 L 10.270 0.672 10.206 0.606 L 10.143 0.540 9.121 0.540 L 8.098 0.540 8.104 0.934 M4.600 0.929 L 4.600 1.080 3.920 1.080 L 3.240 1.080 3.235 1.744 L 3.229 2.408 3.083 2.415 L 2.937 2.421 2.937 1.599 L 2.937 0.778 3.769 0.778 L 4.600 0.778 4.600 0.929 M10.021 1.599 L 10.021 2.421 9.876 2.415 L 9.730 2.408 9.724 1.744 L 9.718 1.080 9.038 1.080 L 8.358 1.080 8.358 0.929 L 8.358 0.778 9.190 0.778 L 10.021 0.778 10.021 1.599 M1.266 2.576 C 1.228 2.614,1.032 2.932,0.832 3.282 C 0.443 3.958,0.425 4.005,0.509 4.116 C 0.533 4.148,1.191 4.540,2.089 5.056 L 3.628 5.940 4.104 5.668 L 4.579 5.396 4.574 4.843 L 4.568 4.291 3.035 3.399 C 1.336 2.412,1.398 2.441,1.266 2.576 M9.924 3.399 L 8.391 4.291 8.385 4.843 L 8.379 5.396 8.855 5.668 L 9.331 5.940 10.869 5.056 C 11.767 4.540,12.426 4.148,12.450 4.116 C 12.534 4.005,12.515 3.958,12.127 3.282 C 11.926 2.932,11.731 2.614,11.693 2.576 C 11.561 2.441,11.623 2.412,9.924 3.399 M2.889 3.607 L 4.320 4.435 4.319 4.847 L 4.319 5.259 3.987 5.448 C 3.805 5.552,3.644 5.637,3.629 5.637 C 3.594 5.637,0.734 3.993,0.734 3.972 C 0.734 3.957,1.321 2.928,1.396 2.812 C 1.413 2.785,1.434 2.767,1.443 2.771 C 1.451 2.775,2.102 3.152,2.889 3.607 M11.898 3.389 C 12.078 3.703,12.223 3.967,12.220 3.977 C 12.213 3.998,9.402 5.616,9.348 5.631 C 9.327 5.637,9.164 5.558,8.975 5.450 L 8.640 5.259 8.639 4.847 L 8.639 4.435 10.080 3.600 C 11.211 2.944,11.526 2.770,11.546 2.792 C 11.560 2.806,11.718 3.075,11.898 3.389 M0.730 5.675 C 0.267 6.139,0.019 6.403,0.010 6.442 C 0.002 6.474,0.002 6.526,0.009 6.557 C 0.018 6.593,0.288 6.876,0.730 7.312 L 1.436 8.010 1.722 7.725 L 2.009 7.441 1.534 6.965 L 1.058 6.490 1.534 6.015 L 2.009 5.539 1.722 5.253 L 1.436 4.967 0.730 5.675 M11.236 5.254 L 10.950 5.540 11.425 6.015 L 11.900 6.490 11.425 6.965 L 10.950 7.441 11.236 7.726 L 11.522 8.010 12.229 7.311 C 12.665 6.880,12.941 6.591,12.949 6.557 C 12.957 6.526,12.957 6.474,12.949 6.442 C 12.939 6.403,12.692 6.139,12.228 5.675 L 11.522 4.967 11.236 5.254 M1.545 5.443 L 1.651 5.551 1.182 6.021 L 0.713 6.491 1.188 6.965 L 1.663 7.440 1.550 7.554 L 1.437 7.668 0.848 7.079 L 0.259 6.490 0.837 5.913 C 1.154 5.595,1.420 5.335,1.426 5.335 C 1.433 5.335,1.486 5.383,1.545 5.443 M12.122 5.913 L 12.700 6.490 12.111 7.079 L 11.522 7.668 11.409 7.554 L 11.296 7.440 11.771 6.965 L 12.246 6.491 11.777 6.021 L 11.307 5.551 11.414 5.443 C 11.473 5.383,11.526 5.335,11.533 5.335 C 11.539 5.335,11.804 5.595,12.122 5.913 M5.993 8.971 L 5.540 9.236 5.534 11.006 C 5.531 11.979,5.533 12.797,5.540 12.823 C 5.546 12.850,5.572 12.891,5.598 12.915 C 5.644 12.957,5.671 12.959,6.479 12.959 C 7.287 12.959,7.315 12.957,7.361 12.915 C 7.386 12.891,7.413 12.850,7.419 12.823 C 7.426 12.797,7.428 11.979,7.425 11.006 L 7.419 9.236 6.965 8.971 C 6.716 8.826,6.497 8.707,6.479 8.707 C 6.462 8.707,6.243 8.826,5.993 8.971 M6.836 9.186 L 7.181 9.387 7.181 11.060 L 7.181 12.732 6.479 12.732 L 5.777 12.732 5.777 11.060 L 5.777 9.387 6.123 9.186 C 6.313 9.076,6.473 8.986,6.479 8.986 C 6.485 8.986,6.646 9.076,6.836 9.186 M2.678 11.315 L 2.678 12.306 2.739 12.371 C 2.782 12.417,2.828 12.441,2.896 12.450 C 2.948 12.458,3.409 12.461,3.920 12.458 L 4.849 12.451 4.855 12.057 L 4.860 11.663 4.174 11.658 L 3.488 11.652 3.482 10.988 L 3.477 10.324 3.077 10.324 L 2.678 10.324 2.678 11.315 M9.476 10.988 L 9.471 11.652 8.784 11.658 L 8.098 11.663 8.104 12.057 L 8.110 12.451 9.119 12.451 L 10.129 12.451 10.199 12.381 L 10.270 12.310 10.276 11.317 L 10.282 10.324 9.882 10.324 L 9.482 10.324 9.476 10.988 M3.240 11.242 L 3.240 11.900 3.920 11.900 L 4.600 11.900 4.600 12.052 L 4.600 12.203 3.769 12.203 L 2.937 12.203 2.937 11.393 L 2.937 10.583 3.088 10.583 L 3.240 10.583 3.240 11.242 M10.021 11.393 L 10.021 12.203 9.190 12.203 L 8.358 12.203 8.358 12.052 L 8.358 11.900 9.039 11.900 L 9.719 11.900 9.719 11.242 L 9.719 10.583 9.870 10.583 L 10.021 10.583 10.021 11.393 " stroke="none" fill-rule="evenodd" fill="black"></path></svg>