<svg id="Layer_2" data-name="Layer 2" xmlns="http://www.w3.org/2000/svg" viewBox="0 0 13.40186301 14.98401164"><path d="M6.588 0.033 C 6.557 0.050,6.518 0.092,6.502 0.127 C 6.379 0.396,4.333 5.710,4.333 5.761 C 4.333 5.798,4.355 5.852,4.384 5.883 C 4.425 5.930,5.690 6.674,5.797 6.716 C 5.826 6.726,5.830 6.598,5.830 5.744 L 5.830 4.759 6.125 4.753 L 6.420 4.746 6.555 4.283 C 6.629 4.028,6.695 3.820,6.701 3.820 C 6.707 3.820,6.773 4.028,6.847 4.283 L 6.982 4.746 7.277 4.753 L 7.572 4.759 7.572 5.744 C 7.572 6.598,7.576 6.726,7.605 6.716 C 7.712 6.674,8.977 5.930,9.018 5.883 C 9.046 5.852,9.069 5.798,9.069 5.762 C 9.069 5.711,7.022 0.393,6.900 0.127 C 6.848 0.014,6.703 -0.030,6.588 0.033 M7.761 3.023 C 8.333 4.495,8.800 5.711,8.800 5.725 C 8.800 5.745,7.939 6.254,7.836 6.295 C 7.826 6.299,7.818 5.900,7.818 5.407 L 7.818 4.512 7.496 4.512 L 7.173 4.512 7.142 4.406 C 7.125 4.348,7.022 3.991,6.912 3.613 C 6.802 3.235,6.707 2.926,6.701 2.926 C 6.695 2.926,6.600 3.235,6.490 3.613 C 6.380 3.991,6.277 4.348,6.259 4.406 L 6.229 4.512 5.906 4.512 L 5.584 4.512 5.584 5.407 C 5.584 5.918,5.576 6.299,5.564 6.295 C 5.553 6.291,5.332 6.167,5.072 6.020 C 4.680 5.797,4.602 5.744,4.608 5.707 C 4.623 5.615,6.690 0.317,6.705 0.331 C 6.714 0.340,7.189 1.551,7.761 3.023 M0.258 4.537 C 0.116 4.785,0.001 4.989,0.005 4.992 C 0.008 4.994,1.263 5.718,2.792 6.600 C 4.322 7.483,5.590 8.216,5.610 8.230 C 5.641 8.250,5.489 8.346,4.720 8.790 C 4.210 9.085,3.788 9.336,3.783 9.349 C 3.771 9.379,4.275 10.243,4.302 10.237 C 4.313 10.235,4.724 10.000,5.216 9.715 C 5.707 9.430,6.122 9.192,6.137 9.186 C 6.159 9.178,6.165 9.764,6.165 12.070 L 6.165 14.965 6.701 14.965 L 7.237 14.965 7.237 12.073 C 7.237 10.482,7.245 9.181,7.254 9.181 C 7.263 9.182,7.683 9.422,8.186 9.715 C 8.873 10.114,9.108 10.241,9.127 10.222 C 9.141 10.208,9.262 10.007,9.395 9.775 C 9.606 9.407,9.632 9.351,9.601 9.328 C 9.581 9.314,9.158 9.067,8.660 8.778 C 7.908 8.344,7.761 8.251,7.792 8.230 C 7.812 8.216,9.080 7.483,10.610 6.600 C 12.139 5.718,13.394 4.994,13.397 4.991 C 13.404 4.986,12.915 4.132,12.888 4.102 C 12.878 4.092,11.608 4.813,10.065 5.705 C 8.521 6.597,7.254 7.326,7.248 7.326 C 7.242 7.326,7.237 6.829,7.237 6.221 L 7.237 5.115 6.701 5.115 L 6.165 5.115 6.165 6.221 C 6.165 6.829,6.160 7.326,6.154 7.326 C 6.148 7.326,4.882 6.598,3.340 5.707 C 1.799 4.816,0.534 4.088,0.528 4.088 C 0.523 4.088,0.401 4.290,0.258 4.537 M3.308 5.977 C 4.787 6.832,6.036 7.552,6.084 7.576 C 6.191 7.631,6.292 7.617,6.368 7.536 L 6.422 7.479 6.428 6.420 L 6.434 5.361 6.701 5.361 L 6.968 5.361 6.974 6.420 L 6.980 7.479 7.034 7.536 C 7.110 7.617,7.211 7.631,7.318 7.576 C 7.366 7.552,8.615 6.832,10.094 5.977 C 11.574 5.122,12.786 4.425,12.788 4.428 C 12.825 4.481,13.044 4.872,13.044 4.886 C 13.044 4.896,11.818 5.613,10.318 6.478 C 8.819 7.344,7.567 8.076,7.537 8.106 C 7.468 8.173,7.464 8.301,7.527 8.382 C 7.551 8.413,7.951 8.657,8.415 8.924 C 8.879 9.192,9.267 9.418,9.277 9.427 C 9.307 9.453,9.041 9.898,9.002 9.888 C 8.983 9.883,8.591 9.661,8.130 9.393 C 7.606 9.089,7.263 8.903,7.212 8.896 C 7.145 8.887,7.119 8.896,7.056 8.953 L 6.980 9.020 6.974 11.881 L 6.968 14.742 6.701 14.742 L 6.433 14.742 6.428 11.881 L 6.422 9.020 6.346 8.953 C 6.283 8.896,6.257 8.887,6.190 8.896 C 6.139 8.903,5.796 9.089,5.271 9.393 C 4.811 9.661,4.419 9.883,4.400 9.888 C 4.361 9.898,4.094 9.453,4.124 9.427 C 4.135 9.418,4.523 9.192,4.987 8.924 C 5.451 8.657,5.851 8.413,5.875 8.382 C 5.938 8.301,5.933 8.173,5.864 8.106 C 5.834 8.076,4.583 7.344,3.084 6.478 C 1.584 5.613,0.357 4.896,0.357 4.886 C 0.357 4.873,0.607 4.425,0.616 4.423 C 0.617 4.423,1.828 5.122,3.308 5.977 M3.373 8.168 C 3.232 8.532,3.105 8.841,3.092 8.855 C 3.058 8.889,2.914 9.393,2.866 9.649 C 2.834 9.815,2.826 9.972,2.826 10.364 C 2.827 10.895,2.842 11.020,2.959 11.425 C 3.177 12.181,3.650 12.887,4.277 13.395 C 4.578 13.639,5.043 13.890,5.420 14.014 C 5.590 14.070,5.608 14.072,5.681 14.041 C 5.838 13.976,5.830 14.101,5.830 11.826 C 5.830 9.929,5.827 9.780,5.793 9.793 C 5.772 9.801,5.399 10.013,4.963 10.265 C 4.324 10.635,4.164 10.718,4.143 10.695 C 4.105 10.653,3.278 9.223,3.287 9.214 C 3.291 9.210,3.665 8.993,4.117 8.733 C 4.569 8.472,4.931 8.251,4.921 8.241 C 4.892 8.213,3.665 7.505,3.647 7.505 C 3.637 7.505,3.514 7.803,3.373 8.168 M9.140 7.851 C 8.817 8.039,8.532 8.207,8.506 8.225 C 8.461 8.254,8.509 8.285,9.283 8.731 C 9.736 8.993,10.111 9.210,10.115 9.214 C 10.124 9.223,9.297 10.653,9.259 10.695 C 9.237 10.719,9.081 10.637,8.439 10.266 C 8.003 10.013,7.630 9.801,7.609 9.793 C 7.575 9.780,7.572 9.926,7.572 11.826 C 7.572 14.101,7.564 13.976,7.721 14.041 C 7.794 14.072,7.812 14.070,7.982 14.014 C 8.933 13.701,9.752 12.971,10.207 12.030 C 10.400 11.633,10.491 11.333,10.556 10.892 C 10.602 10.580,10.590 9.914,10.533 9.627 C 10.484 9.381,10.342 8.887,10.310 8.855 C 10.297 8.841,10.170 8.532,10.029 8.168 C 9.888 7.803,9.762 7.506,9.750 7.506 C 9.738 7.507,9.463 7.662,9.140 7.851 M4.113 8.056 C 4.296 8.162,4.443 8.252,4.439 8.256 C 4.421 8.273,3.385 8.864,3.380 8.860 C 3.371 8.851,3.758 7.862,3.770 7.862 C 3.776 7.862,3.930 7.949,4.113 8.056 M9.835 8.358 C 9.941 8.631,10.025 8.857,10.022 8.860 C 10.017 8.865,8.980 8.273,8.962 8.254 C 8.954 8.247,9.607 7.864,9.629 7.863 C 9.636 7.863,9.729 8.086,9.835 8.358 M3.562 10.208 C 3.779 10.582,3.975 10.907,3.997 10.930 C 4.018 10.952,4.076 10.975,4.123 10.981 C 4.204 10.991,4.262 10.962,4.869 10.609 C 5.232 10.398,5.541 10.220,5.556 10.214 C 5.578 10.205,5.584 10.572,5.584 12.005 L 5.584 13.807 5.534 13.792 C 5.389 13.749,4.991 13.567,4.825 13.468 C 3.950 12.947,3.296 12.004,3.114 11.001 C 3.056 10.680,3.055 10.007,3.113 9.721 C 3.136 9.607,3.158 9.517,3.161 9.520 C 3.164 9.524,3.344 9.833,3.562 10.208 M10.308 9.864 C 10.365 10.247,10.348 10.695,10.261 11.120 C 10.068 12.059,9.416 12.969,8.577 13.468 C 8.411 13.567,8.013 13.749,7.868 13.792 L 7.818 13.807 7.818 12.005 C 7.818 10.572,7.823 10.205,7.846 10.214 C 7.861 10.220,8.170 10.398,8.533 10.609 C 9.146 10.966,9.198 10.991,9.281 10.981 C 9.337 10.974,9.386 10.951,9.415 10.917 C 9.439 10.889,9.635 10.562,9.850 10.191 C 10.291 9.431,10.248 9.462,10.308 9.864 " stroke="none" fill-rule="evenodd" fill="black"></path></svg>