<svg id="Layer_2" data-name="Layer 2" xmlns="http://www.w3.org/2000/svg" viewBox="0 0 14.53997803 13.44000244"><path d="M6.640 1.135 C 6.640 2.186,6.637 2.273,6.598 2.307 C 6.574 2.328,6.247 2.522,5.871 2.739 C 5.494 2.956,5.186 3.142,5.186 3.153 C 5.186 3.177,5.619 3.928,5.655 3.967 C 5.676 3.990,5.848 3.901,6.397 3.585 C 6.791 3.359,7.121 3.175,7.131 3.175 C 7.141 3.175,7.858 3.584,8.725 4.085 L 10.301 4.995 10.549 4.851 L 10.796 4.706 10.803 4.418 L 10.809 4.130 9.264 3.237 C 8.414 2.747,7.699 2.328,7.676 2.308 C 7.637 2.273,7.633 2.186,7.633 1.135 L 7.633 0.000 7.137 0.000 L 6.640 0.000 6.640 1.135 M4.708 1.169 C 4.527 1.480,4.471 1.594,4.492 1.614 C 4.536 1.656,5.719 2.326,5.749 2.326 C 5.764 2.326,5.884 2.266,6.014 2.192 L 6.252 2.057 6.252 1.773 L 6.252 1.489 5.614 1.120 C 5.263 0.917,4.971 0.751,4.964 0.751 C 4.957 0.751,4.842 0.939,4.708 1.169 M8.656 1.119 L 8.021 1.487 8.021 1.772 L 8.021 2.057 8.259 2.192 C 8.390 2.266,8.509 2.326,8.523 2.326 C 8.543 2.326,9.754 1.642,9.783 1.614 C 9.786 1.611,9.685 1.430,9.557 1.210 C 9.430 0.991,9.318 0.798,9.309 0.782 C 9.297 0.760,9.106 0.858,8.656 1.119 M11.196 3.500 L 11.196 4.916 11.139 4.960 C 11.108 4.984,9.608 5.855,7.807 6.894 L 4.531 8.785 4.537 9.074 L 4.544 9.364 4.785 9.506 C 5.015 9.642,5.030 9.647,5.088 9.613 C 8.494 7.639,11.662 5.816,11.690 5.816 C 11.710 5.816,12.142 6.056,12.651 6.349 C 13.160 6.642,13.583 6.882,13.593 6.882 C 13.602 6.882,13.716 6.695,13.846 6.466 C 14.037 6.130,14.076 6.045,14.051 6.021 C 14.033 6.005,13.626 5.765,13.147 5.489 C 12.667 5.212,12.255 4.969,12.232 4.949 C 12.192 4.914,12.189 4.814,12.189 3.498 L 12.189 2.084 11.693 2.084 L 11.196 2.084 11.196 3.500 M13.298 3.714 L 12.577 4.131 12.577 4.414 L 12.577 4.697 12.833 4.846 L 13.088 4.996 13.808 4.579 C 14.204 4.350,14.531 4.160,14.535 4.157 C 14.545 4.147,14.050 3.296,14.034 3.296 C 14.026 3.296,13.695 3.484,13.298 3.714 M6.876 3.770 L 6.640 3.905 6.640 4.448 L 6.640 4.992 7.137 4.992 L 7.633 4.992 7.633 4.453 L 7.633 3.914 7.391 3.774 C 7.258 3.698,7.141 3.635,7.131 3.635 C 7.121 3.635,7.006 3.696,6.876 3.770 M3.126 7.773 C 3.126 8.756,3.117 9.572,3.108 9.586 C 3.098 9.601,2.414 10.003,1.587 10.480 C 0.761 10.958,0.066 11.361,0.043 11.377 C 0.006 11.402,0.025 11.446,0.245 11.828 C 0.379 12.060,0.493 12.254,0.497 12.258 C 0.502 12.263,1.202 11.862,2.052 11.366 C 3.053 10.784,3.616 10.469,3.647 10.475 C 3.674 10.481,4.381 10.885,5.220 11.373 C 6.058 11.861,6.752 12.256,6.761 12.250 C 6.771 12.244,6.886 12.052,7.017 11.823 C 7.255 11.408,7.256 11.406,7.203 11.371 C 7.174 11.352,6.476 10.946,5.653 10.469 L 4.156 9.603 4.150 7.794 L 4.144 5.986 3.635 5.986 L 3.126 5.986 3.126 7.773 M11.450 6.394 L 11.208 6.533 11.201 7.180 L 11.195 7.827 11.692 7.827 L 12.189 7.827 12.189 7.186 L 12.189 6.545 12.014 6.444 C 11.917 6.388,11.805 6.323,11.765 6.299 L 11.692 6.255 11.450 6.394 M0.742 8.218 C 0.548 8.558,0.511 8.639,0.537 8.663 C 0.555 8.679,0.943 8.907,1.400 9.170 L 2.231 9.649 2.478 9.504 L 2.726 9.359 2.726 9.072 L 2.726 8.786 1.878 8.296 C 1.412 8.026,1.019 7.805,1.005 7.804 C 0.991 7.804,0.873 7.990,0.742 8.218 M3.374 11.055 L 3.126 11.201 3.126 12.313 L 3.126 13.425 3.635 13.425 L 4.144 13.425 4.144 12.316 L 4.144 11.206 3.980 11.112 C 3.890 11.060,3.773 10.993,3.720 10.963 L 3.623 10.909 3.374 11.055 " stroke="none" fill-rule="evenodd" fill="black"></path></svg>