<svg id="Layer_2" data-name="Layer 2" xmlns="http://www.w3.org/2000/svg" viewBox="0 0 13.46620117 14.40002441"><path d="M5.705 0.027 C 5.685 0.048,5.678 0.585,5.678 2.310 L 5.678 4.566 6.179 4.067 C 6.552 3.695,6.693 3.569,6.733 3.569 C 6.773 3.569,6.914 3.695,7.287 4.067 L 7.788 4.566 7.788 2.310 C 7.788 0.585,7.782 0.048,7.761 0.027 C 7.722 -0.012,5.744 -0.012,5.705 0.027 M3.916 2.279 C 3.521 2.508,3.180 2.716,3.158 2.742 C 3.125 2.782,3.123 2.796,3.147 2.833 C 3.181 2.884,4.618 3.724,4.672 3.725 C 4.693 3.725,4.726 3.710,4.745 3.690 C 4.776 3.660,4.781 3.548,4.781 2.802 C 4.781 2.257,4.772 1.934,4.757 1.906 C 4.744 1.882,4.712 1.863,4.684 1.863 C 4.657 1.863,4.311 2.050,3.916 2.279 M8.709 1.906 C 8.694 1.934,8.686 2.257,8.686 2.802 C 8.686 3.548,8.690 3.660,8.721 3.690 C 8.740 3.710,8.772 3.726,8.791 3.726 C 8.820 3.726,9.950 3.084,10.240 2.902 C 10.328 2.847,10.353 2.767,10.296 2.720 C 10.206 2.646,8.823 1.863,8.782 1.863 C 8.755 1.863,8.722 1.882,8.709 1.906 M1.018 2.732 C 0.982 2.756,0.016 4.422,0.005 4.479 C 0.000 4.504,0.012 4.538,0.032 4.555 C 0.052 4.571,0.862 5.042,1.832 5.602 C 3.540 6.586,3.598 6.618,3.655 6.588 C 3.688 6.571,3.954 6.309,4.247 6.007 L 4.781 5.457 4.780 5.147 L 4.780 4.837 4.292 4.559 C 4.024 4.406,3.200 3.933,2.462 3.507 C 1.724 3.082,1.103 2.729,1.082 2.724 C 1.061 2.719,1.032 2.723,1.018 2.732 M11.064 3.473 C 10.342 3.890,9.512 4.367,9.219 4.534 L 8.686 4.837 8.686 5.151 L 8.687 5.465 9.216 6.010 C 9.508 6.310,9.774 6.570,9.808 6.587 C 9.868 6.619,9.906 6.598,11.634 5.602 C 12.604 5.042,13.414 4.571,13.434 4.555 C 13.454 4.538,13.466 4.504,13.461 4.479 C 13.450 4.422,12.484 2.756,12.448 2.733 C 12.434 2.724,12.412 2.716,12.400 2.716 C 12.388 2.716,11.786 3.057,11.064 3.473 M5.460 5.930 C 4.496 6.894,4.242 7.160,4.242 7.204 C 4.242 7.287,6.651 9.696,6.733 9.696 C 6.815 9.696,9.224 7.286,9.224 7.204 C 9.224 7.123,6.814 4.713,6.733 4.713 C 6.690 4.713,6.411 4.980,5.460 5.930 M7.300 6.638 C 7.697 7.035,7.810 7.161,7.810 7.205 C 7.810 7.249,7.695 7.377,7.287 7.783 C 7.000 8.070,6.750 8.304,6.733 8.304 C 6.716 8.304,6.466 8.070,6.179 7.783 C 5.773 7.378,5.656 7.249,5.656 7.205 C 5.656 7.123,6.651 6.127,6.733 6.127 C 6.776 6.127,6.906 6.244,7.300 6.638 M1.100 7.204 C 1.100 7.735,1.107 8.169,1.115 8.169 C 1.139 8.169,2.783 7.219,2.783 7.206 C 2.783 7.192,1.137 6.239,1.114 6.239 C 1.106 6.239,1.100 6.674,1.100 7.204 M11.508 6.717 C 11.055 6.979,10.683 7.199,10.683 7.205 C 10.683 7.218,12.264 8.135,12.329 8.160 C 12.364 8.173,12.366 8.100,12.366 7.207 C 12.366 6.675,12.359 6.240,12.350 6.240 C 12.340 6.240,11.962 6.455,11.508 6.717 M1.808 8.822 C 0.846 9.378,0.045 9.843,0.029 9.857 C 0.013 9.870,0.000 9.896,0.000 9.916 C 0.000 9.973,0.995 11.670,1.037 11.683 C 1.058 11.690,1.108 11.678,1.148 11.658 C 1.327 11.565,5.043 9.417,5.079 9.386 C 5.101 9.366,5.116 9.333,5.113 9.313 C 5.109 9.292,4.782 8.946,4.386 8.543 C 3.827 7.973,3.655 7.811,3.612 7.811 C 3.582 7.811,2.784 8.258,1.808 8.822 M9.074 8.545 C 8.676 8.949,8.350 9.297,8.350 9.316 C 8.349 9.336,8.367 9.368,8.388 9.387 C 8.424 9.418,12.144 11.568,12.317 11.657 C 12.358 11.678,12.408 11.690,12.429 11.683 C 12.471 11.670,13.466 9.973,13.466 9.914 C 13.466 9.895,13.438 9.859,13.404 9.835 C 13.208 9.699,9.894 7.810,9.850 7.810 C 9.809 7.809,9.624 7.985,9.074 8.545 M5.684 12.109 L 5.689 14.375 6.733 14.375 L 7.777 14.375 7.782 12.109 L 7.788 9.843 7.288 10.341 C 6.914 10.714,6.773 10.840,6.733 10.840 C 6.693 10.840,6.552 10.714,6.179 10.341 L 5.678 9.843 5.684 12.109 M3.905 11.110 C 3.504 11.343,3.163 11.554,3.147 11.577 C 3.123 11.612,3.125 11.627,3.158 11.667 C 3.215 11.736,4.620 12.546,4.682 12.546 C 4.711 12.546,4.744 12.526,4.757 12.503 C 4.772 12.475,4.781 12.151,4.781 11.606 C 4.781 10.861,4.776 10.749,4.745 10.718 C 4.726 10.699,4.693 10.684,4.672 10.684 C 4.652 10.685,4.306 10.876,3.905 11.110 M8.721 10.718 C 8.690 10.749,8.686 10.861,8.686 11.606 C 8.686 12.151,8.694 12.475,8.709 12.503 C 8.722 12.526,8.755 12.546,8.784 12.546 C 8.828 12.546,10.197 11.771,10.292 11.692 C 10.311 11.676,10.323 11.637,10.320 11.606 C 10.314 11.556,10.215 11.491,9.572 11.117 C 9.165 10.879,8.815 10.685,8.794 10.684 C 8.773 10.684,8.740 10.699,8.721 10.718 " stroke="none" fill-rule="evenodd" fill="black"></path></svg>