<svg id="Layer_2" data-name="Layer 2" xmlns="http://www.w3.org/2000/svg" viewBox="0 0 14.65002444 14.65002441"><path d="M0.119 0.036 C 0.001 0.101,-0.002 0.132,0.005 1.291 L 0.012 2.373 0.081 2.432 L 0.149 2.491 1.255 2.491 L 2.362 2.491 2.426 2.426 L 2.491 2.362 2.491 1.255 L 2.491 0.149 2.432 0.081 L 2.373 0.012 1.278 0.007 C 0.365 0.002,0.173 0.007,0.119 0.036 M3.304 0.036 C 3.262 0.054,3.207 0.100,3.182 0.137 C 3.141 0.201,3.137 0.305,3.125 1.671 L 3.113 3.138 1.618 3.150 L 0.123 3.162 0.068 3.218 L 0.012 3.273 0.005 8.846 C 0.002 11.910,0.005 14.443,0.012 14.474 C 0.020 14.504,0.047 14.551,0.074 14.577 C 0.121 14.624,0.161 14.626,1.657 14.626 L 3.191 14.626 3.256 14.566 C 3.292 14.532,3.332 14.477,3.345 14.442 C 3.385 14.337,3.376 13.224,3.335 13.125 C 3.265 12.958,3.247 12.954,2.443 12.941 L 1.721 12.929 1.715 8.894 L 1.709 4.859 2.643 4.859 L 3.577 4.859 7.600 8.882 C 9.812 11.094,11.622 12.912,11.622 12.923 C 11.622 12.933,10.517 12.941,9.166 12.941 L 6.709 12.941 6.614 13.036 L 6.519 13.130 6.519 13.769 C 6.519 14.453,6.527 14.504,6.647 14.588 C 6.695 14.622,7.106 14.626,10.600 14.626 C 12.745 14.626,14.517 14.619,14.539 14.610 C 14.656 14.566,14.650 14.954,14.650 7.325 C 14.650 -0.438,14.660 0.094,14.516 0.029 C 14.468 0.007,13.886 0.000,12.164 0.000 C 9.995 0.000,9.871 0.002,9.793 0.045 C 9.631 0.131,9.620 0.183,9.620 0.849 C 9.620 1.498,9.632 1.570,9.757 1.652 C 9.821 1.694,9.927 1.698,11.377 1.709 L 12.929 1.721 12.935 6.654 L 12.941 11.586 8.888 7.533 L 4.835 3.479 4.834 1.880 C 4.834 0.097,4.841 0.173,4.666 0.055 C 4.585 0.001,4.567 0.000,3.982 0.001 C 3.527 0.002,3.363 0.010,3.304 0.036 M2.246 1.245 L 2.246 2.246 1.245 2.246 L 0.244 2.246 0.244 1.245 L 0.244 0.244 1.245 0.244 L 2.246 0.244 2.246 1.245 M4.561 0.273 C 4.583 0.296,4.590 0.702,4.590 1.952 L 4.590 3.601 8.723 7.734 C 13.241 12.252,12.898 11.930,13.080 11.819 C 13.142 11.781,13.160 11.750,13.172 11.666 C 13.180 11.609,13.184 9.323,13.180 6.587 L 13.173 1.613 13.105 1.545 L 13.037 1.477 11.457 1.465 L 9.877 1.453 9.870 0.882 C 9.865 0.482,9.872 0.301,9.891 0.278 C 9.915 0.250,10.289 0.244,12.163 0.244 L 14.406 0.244 14.406 7.325 L 14.406 14.406 10.591 14.400 L 6.776 14.394 6.776 13.795 L 6.776 13.197 9.282 13.185 L 11.789 13.173 11.850 13.116 C 11.925 13.046,11.942 12.966,11.902 12.876 C 11.885 12.838,10.027 10.963,7.773 8.711 L 3.674 4.615 2.635 4.615 L 1.596 4.615 1.536 4.678 L 1.477 4.741 1.477 8.889 L 1.477 13.037 1.545 13.105 L 1.613 13.173 2.363 13.185 L 3.113 13.197 3.120 13.768 C 3.124 14.168,3.118 14.349,3.098 14.372 C 3.075 14.400,2.827 14.406,1.657 14.406 L 0.244 14.406 0.244 8.900 L 0.244 3.394 1.693 3.394 C 2.691 3.394,3.167 3.385,3.220 3.367 C 3.373 3.314,3.370 3.350,3.370 1.737 C 3.370 0.588,3.376 0.270,3.400 0.260 C 3.417 0.254,3.678 0.247,3.981 0.246 C 4.379 0.245,4.540 0.252,4.561 0.273 " stroke="none" fill-rule="evenodd" fill="black"></path></svg>