<svg id="Layer_2" data-name="Layer 2" xmlns="http://www.w3.org/2000/svg" viewBox="0 0 13.69239578 14.6068604"><path d="M6.098 0.043 C 5.899 0.112,5.755 0.280,5.708 0.498 C 5.691 0.577,5.682 0.943,5.682 1.552 L 5.682 2.486 5.551 2.522 C 5.178 2.625,4.724 2.815,4.423 2.993 L 4.264 3.088 3.564 2.390 C 3.120 1.947,2.828 1.673,2.765 1.641 C 2.692 1.604,2.626 1.591,2.513 1.591 C 2.255 1.591,2.198 1.629,1.677 2.151 C 1.264 2.564,1.211 2.627,1.167 2.745 C 1.106 2.910,1.105 3.024,1.164 3.177 C 1.204 3.282,1.297 3.385,1.909 3.998 L 2.610 4.698 2.428 5.059 C 2.327 5.259,2.206 5.542,2.157 5.694 C 2.108 5.844,2.061 5.976,2.052 5.987 C 2.043 5.997,1.581 6.064,1.024 6.135 L 0.011 6.264 0.005 6.863 L -0.001 7.462 1.357 7.462 L 2.716 7.462 2.716 7.388 C 2.717 7.209,2.763 6.735,2.797 6.556 C 2.885 6.089,3.127 5.481,3.381 5.089 C 3.979 4.168,4.954 3.499,6.002 3.289 C 6.531 3.183,7.161 3.183,7.691 3.289 C 8.916 3.534,10.028 4.408,10.562 5.545 C 10.690 5.819,10.847 6.295,10.896 6.559 C 10.927 6.727,10.973 7.211,10.976 7.411 L 10.977 7.462 12.335 7.462 L 13.693 7.462 13.687 6.863 L 13.681 6.264 12.674 6.136 C 12.119 6.065,11.656 6.001,11.643 5.993 C 11.630 5.985,11.612 5.945,11.604 5.905 C 11.557 5.685,11.293 5.068,11.146 4.834 C 11.115 4.787,11.091 4.735,11.091 4.718 C 11.091 4.702,11.404 4.376,11.787 3.993 C 12.401 3.380,12.489 3.283,12.529 3.177 C 12.586 3.024,12.586 2.909,12.529 2.756 C 12.490 2.651,12.418 2.570,11.987 2.142 C 11.443 1.602,11.424 1.589,11.166 1.591 C 11.067 1.591,10.995 1.607,10.926 1.642 C 10.865 1.673,10.568 1.951,10.129 2.390 L 9.430 3.087 9.228 2.972 C 8.904 2.787,8.504 2.622,8.141 2.522 L 8.010 2.486 8.010 1.552 C 8.010 0.943,8.001 0.577,7.984 0.498 C 7.953 0.351,7.882 0.235,7.766 0.139 C 7.614 0.013,7.524 -0.000,6.836 0.001 C 6.298 0.001,6.203 0.007,6.098 0.043 M7.557 0.302 C 7.607 0.329,7.670 0.388,7.697 0.433 C 7.747 0.512,7.748 0.531,7.759 1.570 L 7.770 2.627 7.827 2.670 C 7.859 2.694,7.967 2.736,8.067 2.763 C 8.458 2.868,8.820 3.022,9.205 3.246 C 9.479 3.405,9.412 3.446,10.255 2.606 C 10.907 1.957,10.999 1.872,11.090 1.848 C 11.284 1.797,11.324 1.823,11.836 2.335 C 12.254 2.754,12.297 2.804,12.311 2.892 C 12.343 3.085,12.326 3.107,11.555 3.881 C 10.751 4.688,10.764 4.670,10.874 4.861 C 11.031 5.133,11.232 5.576,11.319 5.837 C 11.438 6.197,11.439 6.198,11.530 6.227 C 11.589 6.246,13.338 6.481,13.420 6.481 C 13.432 6.481,13.441 6.636,13.441 6.846 L 13.441 7.211 12.336 7.211 L 11.231 7.211 11.219 7.114 C 11.212 7.061,11.200 6.945,11.193 6.858 C 11.144 6.297,10.873 5.508,10.560 5.021 C 9.995 4.139,9.163 3.482,8.219 3.172 C 7.192 2.835,6.007 2.898,5.034 3.342 C 4.170 3.736,3.385 4.489,2.957 5.336 C 2.718 5.809,2.542 6.382,2.500 6.829 C 2.493 6.901,2.482 7.017,2.474 7.086 L 2.461 7.211 1.356 7.211 L 0.251 7.211 0.251 6.846 C 0.251 6.636,0.260 6.481,0.272 6.481 C 0.352 6.481,2.103 6.247,2.160 6.228 C 2.244 6.201,2.263 6.165,2.386 5.796 C 2.434 5.652,2.565 5.354,2.676 5.135 C 2.839 4.813,2.876 4.722,2.865 4.667 C 2.856 4.615,2.683 4.429,2.155 3.902 C 1.771 3.519,1.438 3.168,1.413 3.122 C 1.360 3.020,1.357 2.919,1.404 2.821 C 1.423 2.780,1.636 2.551,1.877 2.312 C 2.366 1.826,2.411 1.797,2.602 1.848 C 2.693 1.872,2.786 1.957,3.438 2.606 C 4.281 3.446,4.214 3.405,4.488 3.246 C 4.874 3.021,5.235 2.868,5.630 2.762 C 5.751 2.729,5.838 2.691,5.874 2.654 L 5.931 2.597 5.938 1.555 L 5.945 0.513 5.998 0.427 C 6.102 0.261,6.138 0.253,6.843 0.252 C 7.446 0.251,7.471 0.253,7.557 0.302 M6.447 3.619 C 5.757 3.717,5.292 3.890,4.767 4.241 C 4.205 4.618,3.805 5.074,3.513 5.671 C 3.273 6.164,3.155 6.617,3.133 7.138 L 3.120 7.463 3.745 7.457 L 4.370 7.451 4.385 7.200 C 4.407 6.810,4.476 6.542,4.638 6.219 C 4.974 5.550,5.618 5.057,6.356 4.904 C 6.614 4.850,7.043 4.847,7.304 4.897 C 8.164 5.060,8.879 5.677,9.181 6.517 C 9.260 6.738,9.291 6.904,9.308 7.200 L 9.322 7.451 9.947 7.457 L 10.573 7.463 10.559 7.138 C 10.531 6.467,10.315 5.813,9.932 5.237 C 9.411 4.454,8.526 3.865,7.580 3.671 C 7.367 3.628,6.626 3.594,6.447 3.619 M7.608 3.935 C 9.021 4.258,10.074 5.400,10.281 6.835 C 10.299 6.960,10.314 7.096,10.315 7.137 L 10.315 7.211 9.938 7.211 L 9.562 7.211 9.562 7.124 C 9.562 6.897,9.441 6.450,9.298 6.150 C 8.930 5.374,8.164 4.793,7.315 4.645 C 7.058 4.600,6.635 4.600,6.377 4.645 C 5.499 4.798,4.723 5.405,4.361 6.221 C 4.253 6.464,4.157 6.817,4.138 7.046 L 4.124 7.211 3.747 7.211 L 3.371 7.211 3.386 7.023 C 3.428 6.528,3.621 5.936,3.885 5.500 C 4.343 4.745,5.166 4.148,6.025 3.949 C 6.362 3.870,6.485 3.859,6.926 3.867 C 7.274 3.872,7.378 3.883,7.608 3.935 M6.702 6.030 C 6.674 6.059,6.375 6.595,6.038 7.223 C 5.701 7.850,5.420 8.372,5.415 8.382 C 5.404 8.402,5.415 8.395,6.249 7.857 C 6.567 7.653,6.836 7.485,6.847 7.485 C 6.857 7.485,7.147 7.666,7.489 7.888 C 7.832 8.109,8.152 8.315,8.201 8.346 L 8.289 8.402 8.174 8.189 C 8.111 8.072,7.827 7.545,7.544 7.017 C 7.260 6.490,7.007 6.041,6.980 6.019 C 6.910 5.961,6.765 5.967,6.702 6.030 M7.226 6.960 C 7.429 7.337,7.590 7.645,7.584 7.645 C 7.579 7.645,7.448 7.564,7.294 7.465 C 6.939 7.237,6.876 7.205,6.814 7.220 C 6.786 7.227,6.618 7.326,6.440 7.439 C 6.262 7.552,6.112 7.645,6.107 7.645 C 6.102 7.645,6.263 7.337,6.466 6.960 C 6.669 6.584,6.840 6.276,6.846 6.276 C 6.852 6.276,7.023 6.584,7.226 6.960 M11.308 7.699 C 11.270 7.716,10.261 8.735,9.049 9.981 C 7.844 11.219,6.852 12.232,6.845 12.232 C 6.838 12.232,5.864 11.243,4.682 10.035 C 3.499 8.827,2.498 7.811,2.457 7.776 L 2.383 7.713 1.196 7.719 L 0.008 7.725 3.340 11.125 C 5.172 12.995,6.698 14.543,6.730 14.565 C 6.763 14.587,6.815 14.605,6.846 14.605 C 6.878 14.605,6.929 14.587,6.961 14.565 C 7.006 14.534,13.321 8.053,13.611 7.740 L 13.678 7.668 12.527 7.669 C 11.629 7.669,11.361 7.676,11.308 7.699 M12.959 8.054 C 12.774 8.259,6.860 14.331,6.846 14.331 C 6.830 14.331,0.686 8.069,0.642 8.008 C 0.611 7.965,0.631 7.964,1.454 7.964 L 2.298 7.964 4.460 10.172 C 5.649 11.387,6.659 12.408,6.703 12.443 C 6.797 12.515,6.878 12.522,6.961 12.466 C 6.993 12.444,8.005 11.412,9.209 10.173 L 11.399 7.921 12.240 7.920 L 13.081 7.919 12.959 8.054 M6.623 8.172 C 6.307 8.225,6.088 8.443,6.019 8.773 C 5.985 8.934,6.002 8.998,6.186 9.429 C 6.455 10.057,6.660 10.338,6.851 10.338 C 7.042 10.338,7.303 9.948,7.588 9.233 C 7.687 8.986,7.695 8.951,7.681 8.835 C 7.623 8.338,7.204 8.076,6.623 8.172 M7.178 8.467 C 7.302 8.527,7.383 8.638,7.419 8.798 C 7.444 8.909,7.441 8.925,7.359 9.130 C 7.174 9.596,6.911 10.087,6.846 10.087 C 6.782 10.087,6.519 9.596,6.334 9.132 C 6.264 8.957,6.252 8.903,6.265 8.824 C 6.298 8.620,6.433 8.472,6.631 8.422 C 6.776 8.386,7.058 8.409,7.178 8.467 " stroke="none" fill-rule="evenodd" fill="black"></path></svg>