<svg id="Layer_2" data-name="Layer 2" xmlns="http://www.w3.org/2000/svg" viewBox="0 0 14.76399504 13.22778092"><path d="M9.166 0.030 C 9.052 0.095,9.057 -0.066,9.056 3.845 L 9.055 7.555 7.627 9.234 C 6.842 10.158,6.193 10.939,6.184 10.971 C 6.163 11.053,6.237 11.192,6.318 11.223 C 6.373 11.244,6.733 11.187,8.267 10.913 C 9.302 10.728,10.167 10.567,10.189 10.556 C 10.303 10.494,10.297 10.705,10.310 6.432 L 10.322 2.414 11.127 3.070 C 11.569 3.431,11.928 3.730,11.925 3.733 C 11.920 3.738,11.129 3.813,11.067 3.814 C 11.057 3.814,11.048 4.096,11.048 4.442 C 11.048 5.023,11.052 5.069,11.091 5.069 C 11.115 5.069,11.904 5.002,12.845 4.919 C 14.140 4.805,14.576 4.759,14.641 4.728 C 14.734 4.684,14.782 4.577,14.756 4.473 C 14.746 4.433,13.923 3.744,12.189 2.324 C 10.786 1.174,9.572 0.181,9.492 0.117 C 9.343 -0.004,9.262 -0.025,9.166 0.030 M11.931 2.436 C 13.327 3.580,14.461 4.518,14.450 4.521 C 14.432 4.527,11.389 4.798,11.344 4.798 C 11.328 4.798,11.319 4.654,11.319 4.417 L 11.319 4.035 11.387 4.035 C 11.485 4.034,12.554 3.941,12.562 3.932 C 12.572 3.920,10.437 2.181,10.368 2.145 C 10.292 2.105,10.196 2.125,10.119 2.196 L 10.064 2.248 10.064 6.291 L 10.064 10.334 10.009 10.347 C 9.834 10.387,6.510 10.972,6.502 10.964 C 6.497 10.959,6.934 10.436,7.474 9.802 C 8.013 9.168,8.645 8.425,8.878 8.150 L 9.301 7.652 9.301 3.972 C 9.301 0.392,9.303 0.293,9.347 0.325 C 9.372 0.342,10.535 1.292,11.931 2.436 M7.739 2.103 C 7.428 2.160,6.592 2.311,5.882 2.438 C 4.792 2.633,4.581 2.677,4.529 2.723 L 4.466 2.776 4.454 6.802 L 4.442 10.827 3.637 10.169 C 3.195 9.807,2.835 9.509,2.838 9.507 C 2.840 9.505,2.992 9.491,3.174 9.476 C 3.357 9.461,3.554 9.442,3.611 9.435 L 3.716 9.421 3.716 8.795 C 3.716 8.215,3.712 8.169,3.673 8.170 C 3.649 8.171,2.847 8.241,1.890 8.326 C 0.506 8.450,0.138 8.490,0.089 8.522 C 0.023 8.565,-0.016 8.695,0.011 8.779 C 0.019 8.806,1.227 9.812,2.696 11.014 C 5.358 13.196,5.366 13.201,5.486 13.209 C 5.584 13.215,5.615 13.206,5.657 13.161 L 5.709 13.106 5.709 9.394 L 5.709 5.682 7.137 4.004 C 7.922 3.081,8.571 2.300,8.579 2.269 C 8.610 2.147,8.477 1.988,8.349 1.996 C 8.325 1.998,8.050 2.046,7.739 2.103 M8.268 2.276 C 8.268 2.285,6.208 4.716,5.600 5.424 L 5.475 5.570 5.463 9.259 L 5.450 12.948 2.871 10.835 C 1.231 9.491,0.309 8.721,0.337 8.717 C 0.361 8.714,1.013 8.656,1.784 8.588 C 2.555 8.521,3.245 8.459,3.316 8.451 L 3.445 8.437 3.445 8.820 C 3.445 9.124,3.438 9.203,3.412 9.203 C 3.356 9.203,2.204 9.303,2.199 9.309 C 2.189 9.319,4.331 11.059,4.393 11.092 C 4.478 11.136,4.588 11.110,4.650 11.031 C 4.700 10.968,4.700 10.939,4.700 6.936 C 4.700 4.718,4.703 2.903,4.706 2.903 C 4.709 2.903,5.504 2.760,6.472 2.585 C 8.439 2.230,8.268 2.260,8.268 2.276 " stroke="none" fill-rule="evenodd" fill="black"></path></svg>