<svg id="Layer_2" data-name="Layer 2" xmlns="http://www.w3.org/2000/svg" viewBox="0 0 9.83001739 14.55441059"><path d="M4.808 0.031 C 4.780 0.048,4.339 0.578,3.827 1.210 L 2.897 2.359 1.521 2.359 L 0.144 2.359 0.095 2.394 C -0.006 2.467,0.000 2.227,0.000 5.907 C 0.000 9.107,0.001 9.275,0.029 9.267 C 0.044 9.262,0.356 9.184,0.721 9.093 C 1.086 9.003,1.401 8.921,1.421 8.913 L 1.458 8.897 1.458 6.349 L 1.458 3.801 2.630 3.801 C 3.594 3.801,3.812 3.797,3.857 3.778 C 3.897 3.761,4.035 3.602,4.406 3.143 C 4.678 2.807,4.907 2.531,4.914 2.531 C 4.922 2.531,5.151 2.807,5.424 3.143 C 5.793 3.600,5.933 3.761,5.974 3.778 C 6.018 3.797,6.220 3.801,7.081 3.801 C 8.096 3.801,8.136 3.800,8.187 3.769 C 8.251 3.729,8.217 3.783,8.673 3.012 L 9.055 2.367 7.993 2.363 L 6.932 2.359 6.002 1.210 C 5.491 0.578,5.050 0.048,5.023 0.031 C 4.959 -0.008,4.872 -0.008,4.808 0.031 M5.848 1.417 C 6.355 2.044,6.785 2.565,6.805 2.577 C 6.831 2.592,7.067 2.599,7.728 2.605 L 8.617 2.613 8.341 3.080 L 8.065 3.547 7.072 3.551 L 6.080 3.555 5.572 2.928 C 5.293 2.583,5.046 2.290,5.023 2.278 C 4.971 2.250,4.859 2.250,4.807 2.278 C 4.784 2.290,4.537 2.583,4.258 2.928 L 3.750 3.555 2.548 3.555 L 1.346 3.555 1.293 3.599 C 1.190 3.687,1.196 3.518,1.196 6.233 L 1.196 8.715 1.135 8.731 C 0.938 8.783,0.277 8.945,0.263 8.945 C 0.251 8.945,0.246 7.941,0.246 5.775 L 0.246 2.605 1.598 2.605 C 2.709 2.605,2.960 2.601,3.004 2.582 C 3.045 2.565,3.279 2.286,3.981 1.419 C 4.488 0.792,4.909 0.279,4.915 0.279 C 4.921 0.279,5.340 0.791,5.848 1.417 M9.419 2.601 C 9.281 2.737,6.521 5.675,6.527 5.680 C 6.529 5.683,6.940 5.608,7.439 5.513 C 7.939 5.419,8.353 5.341,8.360 5.341 C 8.366 5.341,8.372 6.124,8.372 7.082 C 8.373 8.064,8.379 8.850,8.388 8.887 C 8.396 8.922,8.423 8.971,8.449 8.995 C 8.487 9.032,9.787 9.715,9.819 9.715 C 9.825 9.715,9.830 8.130,9.830 6.192 C 9.830 3.043,9.827 2.664,9.805 2.620 C 9.768 2.549,9.689 2.507,9.595 2.507 C 9.520 2.507,9.510 2.512,9.419 2.601 M9.577 9.302 C 9.573 9.306,9.361 9.202,9.106 9.071 L 8.642 8.833 8.634 7.034 C 8.628 5.642,8.621 5.226,8.605 5.199 C 8.577 5.149,8.510 5.099,8.453 5.087 C 8.423 5.080,8.195 5.116,7.830 5.185 C 7.513 5.245,7.251 5.290,7.247 5.286 C 7.242 5.282,7.765 4.719,8.407 4.037 L 9.576 2.795 9.580 6.045 C 9.582 7.832,9.581 9.298,9.577 9.302 M3.197 7.008 C 3.257 7.069,3.627 7.454,4.021 7.864 C 4.414 8.274,4.758 8.627,4.786 8.649 C 4.856 8.705,4.974 8.705,5.044 8.649 C 5.072 8.627,5.416 8.274,5.809 7.864 C 6.203 7.454,6.573 7.069,6.633 7.008 L 6.741 6.897 4.915 6.897 L 3.089 6.897 3.197 7.008 M6.085 7.213 C 5.954 7.358,4.925 8.421,4.915 8.421 C 4.904 8.421,3.839 7.321,3.737 7.205 L 3.683 7.143 4.915 7.143 L 6.148 7.143 6.085 7.213 M1.714 8.863 C 0.859 9.402,0.141 9.861,0.119 9.884 C 0.072 9.931,0.053 10.042,0.080 10.112 C 0.097 10.157,4.716 14.460,4.809 14.518 C 4.871 14.557,4.959 14.557,5.022 14.518 C 5.091 14.475,8.112 11.654,8.147 11.600 C 8.174 11.558,8.175 11.473,8.171 10.296 L 8.167 9.037 6.547 10.544 C 5.656 11.372,4.921 12.050,4.915 12.050 C 4.902 12.050,2.387 9.717,2.379 9.698 C 2.376 9.691,2.577 9.280,2.825 8.783 C 3.074 8.287,3.275 7.881,3.273 7.881 C 3.270 7.882,2.569 8.323,1.714 8.863 M2.638 8.593 C 2.638 8.598,2.520 8.837,2.376 9.126 C 2.231 9.414,2.113 9.668,2.113 9.691 C 2.113 9.714,2.124 9.757,2.136 9.787 C 2.169 9.867,4.760 12.271,4.847 12.303 C 4.899 12.322,4.924 12.323,4.975 12.307 C 5.035 12.289,5.496 11.867,7.614 9.892 L 7.930 9.598 7.930 10.538 L 7.930 11.478 6.428 12.878 C 5.602 13.648,4.921 14.278,4.915 14.278 C 4.895 14.278,0.350 10.053,0.350 10.035 C 0.350 10.020,2.596 8.590,2.625 8.586 C 2.632 8.586,2.638 8.589,2.638 8.593 " stroke="none" fill-rule="evenodd" fill="black"></path></svg>