<svg id="Layer_2" data-name="Layer 2" xmlns="http://www.w3.org/2000/svg" viewBox="0 0 14.56384099 14.56384099"><path d="M7.197 0.023 C 7.170 0.035,6.701 0.493,6.153 1.042 L 5.158 2.039 5.528 2.409 L 5.898 2.779 6.590 2.088 L 7.282 1.396 7.974 2.088 L 8.666 2.779 9.036 2.409 L 9.406 2.039 8.398 1.032 C 7.356 -0.010,7.326 -0.035,7.197 0.023 M8.174 1.147 L 9.054 2.027 8.860 2.221 L 8.666 2.414 8.027 1.777 L 7.387 1.141 7.282 1.141 L 7.177 1.141 6.537 1.777 L 5.898 2.414 5.704 2.221 L 5.510 2.027 6.390 1.147 C 6.874 0.663,7.275 0.267,7.282 0.267 C 7.289 0.267,7.690 0.663,8.174 1.147 M3.489 3.489 L 2.937 4.042 4.454 5.559 L 5.971 7.075 6.523 6.523 L 7.076 5.971 5.558 4.454 L 4.041 2.937 3.489 3.489 M8.981 4.454 L 7.464 5.971 8.022 6.529 L 8.581 7.087 10.095 5.556 L 11.610 4.025 11.067 3.481 C 10.767 3.182,10.517 2.937,10.510 2.937 C 10.504 2.937,9.815 3.620,8.981 4.454 M5.401 4.636 L 6.736 5.971 6.353 6.353 L 5.971 6.736 4.636 5.401 C 3.902 4.667,3.301 4.055,3.301 4.042 C 3.301 4.010,4.009 3.301,4.041 3.301 C 4.055 3.301,4.667 3.902,5.401 4.636 M10.893 3.671 L 11.263 4.042 9.921 5.383 L 8.580 6.724 8.204 6.347 L 7.828 5.971 9.163 4.636 C 9.897 3.902,10.504 3.301,10.510 3.301 C 10.517 3.301,10.689 3.468,10.893 3.671 M1.013 6.184 C 0.070 7.128,-0.000 7.204,0.000 7.282 C 0.000 7.360,0.071 7.436,1.019 8.386 L 2.039 9.406 2.409 9.036 L 2.779 8.666 2.088 7.974 L 1.396 7.282 2.087 6.590 L 2.779 5.898 2.415 5.534 C 2.215 5.334,2.046 5.170,2.039 5.170 C 2.032 5.170,1.570 5.626,1.013 6.184 M12.149 5.534 L 11.785 5.898 12.476 6.590 L 13.168 7.282 12.476 7.974 L 11.785 8.666 12.155 9.036 L 12.525 9.406 13.545 8.386 C 14.493 7.436,14.564 7.360,14.564 7.282 C 14.564 7.204,14.493 7.128,13.551 6.184 C 12.994 5.626,12.532 5.170,12.525 5.170 C 12.518 5.170,12.349 5.334,12.149 5.534 M1.777 6.537 L 1.141 7.177 1.141 7.282 L 1.141 7.387 1.777 8.027 L 2.414 8.666 2.220 8.860 L 2.026 9.054 1.141 8.168 L 0.255 7.282 1.141 6.396 L 2.026 5.510 2.220 5.704 L 2.414 5.898 1.777 6.537 M13.423 8.168 L 12.537 9.054 12.344 8.860 L 12.150 8.666 12.786 8.027 L 13.423 7.387 13.423 7.282 L 13.423 7.177 12.787 6.537 L 12.150 5.898 12.343 5.704 L 12.536 5.509 13.423 6.396 L 14.309 7.282 13.423 8.168 M6.724 6.736 L 6.178 7.282 6.730 7.834 L 7.282 8.386 7.834 7.834 L 8.386 7.282 7.840 6.736 C 7.540 6.435,7.289 6.190,7.282 6.190 C 7.275 6.190,7.024 6.435,6.724 6.736 M7.652 6.911 C 7.849 7.108,8.010 7.280,8.010 7.294 C 8.010 7.308,7.849 7.480,7.652 7.677 L 7.293 8.034 6.924 7.664 C 6.720 7.460,6.554 7.283,6.554 7.270 C 6.554 7.238,7.238 6.554,7.269 6.554 C 7.283 6.554,7.455 6.715,7.652 6.911 M4.448 9.012 L 2.937 10.523 3.489 11.075 L 4.042 11.627 5.559 10.110 L 7.075 8.593 6.530 8.047 C 6.229 7.746,5.978 7.500,5.971 7.500 C 5.964 7.500,5.279 8.180,4.448 9.012 M8.034 8.047 L 7.489 8.593 9.005 10.110 L 10.522 11.627 11.075 11.075 L 11.627 10.523 10.116 9.012 C 9.285 8.180,8.599 7.500,8.593 7.500 C 8.586 7.500,8.335 7.746,8.034 8.047 M6.360 8.217 L 6.735 8.593 5.401 9.928 C 4.667 10.662,4.055 11.263,4.041 11.263 C 4.010 11.263,3.301 10.554,3.301 10.522 C 3.301 10.498,5.948 7.840,5.971 7.840 C 5.978 7.840,6.153 8.010,6.360 8.217 M9.934 9.169 C 10.665 9.900,11.263 10.509,11.263 10.522 C 11.263 10.554,10.554 11.263,10.523 11.263 C 10.509 11.263,9.897 10.662,9.163 9.928 L 7.828 8.593 8.204 8.217 C 8.411 8.010,8.585 7.840,8.592 7.840 C 8.599 7.840,9.203 8.438,9.934 9.169 M5.522 12.161 L 5.158 12.525 6.178 13.545 C 7.128 14.493,7.204 14.564,7.282 14.564 C 7.360 14.564,7.436 14.493,8.386 13.545 L 9.406 12.525 9.036 12.155 L 8.666 11.785 7.974 12.476 L 7.282 13.168 6.596 12.482 C 6.219 12.105,5.905 11.797,5.898 11.797 C 5.891 11.797,5.722 11.961,5.522 12.161 M6.543 12.792 C 7.176 13.423,7.177 13.423,7.282 13.423 L 7.387 13.423 8.027 12.786 L 8.666 12.150 8.860 12.344 L 9.054 12.537 8.168 13.423 L 7.282 14.309 6.396 13.423 L 5.510 12.538 5.698 12.349 C 5.801 12.246,5.890 12.161,5.897 12.161 C 5.903 12.161,6.194 12.445,6.543 12.792 " stroke="none" fill-rule="evenodd" fill="black"></path></svg>