<svg id="Layer_2" data-name="Layer 2" xmlns="http://www.w3.org/2000/svg" viewBox="0 0 13.17160938 13.17545313"><path d="M0.140 0.022 C 0.115 0.032,0.073 0.067,0.047 0.100 L 0.000 0.160 0.000 6.591 L 0.000 13.022 0.075 13.097 L 0.149 13.172 3.081 13.172 C 4.891 13.172,6.033 13.164,6.067 13.151 C 6.098 13.139,6.140 13.102,6.162 13.069 C 6.199 13.012,6.202 12.876,6.213 10.671 L 6.224 8.334 6.591 8.662 L 6.959 8.990 6.959 9.875 C 6.959 10.828,6.962 10.858,7.074 10.933 C 7.149 10.982,9.707 10.994,9.824 10.945 C 9.926 10.902,9.980 10.786,9.946 10.684 C 9.930 10.636,8.986 9.665,6.955 7.607 C 5.322 5.952,3.967 4.584,3.942 4.566 C 3.904 4.539,3.778 4.532,3.212 4.527 C 2.442 4.519,2.372 4.528,2.304 4.639 C 2.262 4.707,2.261 4.773,2.261 7.756 C 2.261 11.109,2.252 10.902,2.395 10.952 C 2.439 10.967,2.656 10.976,2.967 10.976 L 3.469 10.976 3.469 11.393 L 3.469 11.811 2.459 11.811 L 1.449 11.811 1.449 7.761 L 1.449 3.712 2.513 3.705 L 3.577 3.699 3.649 3.627 L 3.721 3.556 3.727 2.458 L 3.734 1.361 4.139 1.361 L 4.544 1.361 4.545 2.574 C 4.546 3.484,4.552 3.799,4.572 3.834 C 4.595 3.873,9.867 9.228,10.423 9.777 C 10.571 9.923,10.609 9.949,10.674 9.951 C 10.767 9.954,10.861 9.897,10.890 9.821 C 10.903 9.787,10.910 8.369,10.910 6.078 C 10.910 2.101,10.916 2.301,10.802 2.240 C 10.775 2.225,10.362 2.217,9.628 2.217 L 8.496 2.217 8.496 1.789 L 8.496 1.361 10.109 1.361 L 11.723 1.361 11.723 6.586 L 11.723 11.811 9.341 11.811 L 6.959 11.811 6.959 12.491 L 6.959 13.172 9.991 13.172 L 13.022 13.172 13.097 13.097 L 13.172 13.022 13.172 6.588 L 13.172 0.154 13.108 0.083 L 13.043 0.011 10.099 0.005 C 6.832 -0.001,7.055 -0.011,6.990 0.143 C 6.964 0.206,6.959 0.579,6.959 2.514 L 6.959 4.810 6.586 4.476 L 6.213 4.142 6.213 2.180 C 6.213 0.534,6.208 0.206,6.181 0.143 C 6.117 -0.010,6.335 -0.000,3.102 0.001 C 1.498 0.002,0.166 0.011,0.140 0.022 M5.950 2.223 C 5.950 3.749,5.956 4.194,5.977 4.236 C 6.004 4.289,7.172 5.353,7.206 5.355 C 7.215 5.356,7.222 4.211,7.222 2.810 L 7.222 0.263 10.065 0.263 L 12.908 0.263 12.908 6.597 L 12.908 12.930 10.065 12.930 L 7.222 12.930 7.222 12.491 L 7.222 12.052 9.533 12.052 C 11.689 12.051,11.847 12.049,11.890 12.013 C 11.916 11.992,11.948 11.954,11.962 11.927 C 11.980 11.892,11.986 10.441,11.986 6.586 C 11.986 0.826,11.995 1.204,11.866 1.146 C 11.823 1.126,11.374 1.120,10.085 1.120 L 8.361 1.120 8.296 1.184 L 8.232 1.248 8.232 1.767 C 8.232 2.330,8.242 2.382,8.352 2.432 C 8.395 2.452,8.708 2.459,9.528 2.459 L 10.647 2.459 10.647 6.053 L 10.647 9.648 10.296 9.297 C 10.103 9.104,8.785 7.770,7.367 6.333 L 4.788 3.721 4.787 2.478 L 4.786 1.235 4.728 1.177 L 4.670 1.120 4.136 1.120 C 3.604 1.120,3.603 1.120,3.541 1.173 L 3.480 1.226 3.473 2.335 L 3.467 3.445 2.393 3.451 L 1.318 3.458 1.257 3.518 L 1.196 3.579 1.190 7.711 C 1.187 9.984,1.190 11.867,1.197 11.895 C 1.204 11.923,1.235 11.970,1.266 11.999 L 1.324 12.052 2.463 12.052 L 3.602 12.052 3.655 12.000 C 3.729 11.926,3.736 11.858,3.728 11.322 L 3.721 10.846 3.660 10.785 L 3.599 10.724 3.062 10.717 L 2.525 10.711 2.525 7.748 L 2.525 4.786 3.170 4.786 L 3.816 4.786 6.270 7.272 C 7.619 8.639,8.936 9.973,9.196 10.235 L 9.669 10.713 8.446 10.713 L 7.222 10.713 7.222 9.840 C 7.222 9.360,7.216 8.944,7.208 8.916 C 7.200 8.885,6.942 8.640,6.577 8.315 L 5.960 7.766 5.955 10.348 L 5.949 12.930 3.106 12.930 L 0.263 12.930 0.263 6.597 L 0.263 0.263 3.106 0.263 L 5.949 0.263 5.950 2.223 M1.281 1.158 C 1.188 1.234,1.185 1.262,1.185 2.064 C 1.185 2.904,1.189 2.928,1.311 2.984 C 1.345 2.999,1.631 3.008,2.149 3.008 C 2.909 3.008,2.938 3.006,2.993 2.962 C 3.091 2.885,3.099 2.811,3.091 2.001 L 3.084 1.248 3.013 1.184 L 2.941 1.120 2.135 1.120 C 1.404 1.121,1.324 1.124,1.281 1.158 M2.832 2.064 L 2.832 2.766 2.140 2.766 L 1.449 2.766 1.449 2.064 L 1.449 1.361 2.140 1.361 L 2.832 1.361 2.832 2.064 " stroke="none" fill-rule="evenodd" fill="black"></path></svg>