<svg id="Layer_2" xmlns="http://www.w3.org/2000/svg" viewBox="0 0 14.2585 14.2585"><path d="M3.571 3.571 C 0.413 6.729,0.000 7.149,0.000 7.212 C 0.000 7.276,0.403 7.687,3.487 10.771 C 6.574 13.857,6.983 14.258,7.046 14.258 C 7.108 14.258,7.219 14.157,7.896 13.480 L 8.674 12.701 5.965 9.994 C 3.554 7.584,3.256 7.278,3.256 7.213 C 3.256 7.149,3.474 6.923,5.198 5.198 C 6.909 3.488,7.150 3.256,7.213 3.256 C 7.275 3.256,7.601 3.573,9.993 5.965 L 12.702 8.674 13.480 7.896 C 14.157 7.219,14.258 7.108,14.258 7.046 C 14.258 6.983,13.859 6.575,10.771 3.487 C 7.687 0.403,7.275 0.000,7.212 0.000 C 7.149 0.000,6.729 0.413,3.571 3.571 M8.727 8.727 C 7.421 10.034,7.248 10.215,7.248 10.279 C 7.248 10.342,7.421 10.526,8.704 11.819 C 9.504 12.626,10.175 13.286,10.195 13.285 C 10.241 13.284,13.284 10.241,13.285 10.195 C 13.286 10.175,12.626 9.504,11.818 8.704 C 10.527 7.424,10.342 7.248,10.278 7.248 C 10.215 7.248,10.031 7.424,8.727 8.727 M11.032 9.452 C 11.624 10.043,11.716 10.145,11.716 10.206 C 11.716 10.268,11.620 10.373,10.997 10.997 C 10.374 11.620,10.269 11.716,10.207 11.716 C 10.145 11.716,10.044 11.624,9.452 11.033 C 8.861 10.441,8.769 10.340,8.769 10.278 C 8.769 10.216,8.865 10.111,9.488 9.488 C 10.111 8.865,10.216 8.769,10.278 8.769 C 10.339 8.769,10.441 8.861,11.032 9.452 " stroke="none" fill-rule="evenodd" fill="black"></path></svg>