<svg id="Layer_2" xmlns="http://www.w3.org/2000/svg" viewBox="0 0 13.4403 13.4403"><path d="M5.723 0.045 C 4.991 0.158,4.362 0.357,3.718 0.679 C 1.726 1.677,0.349 3.577,0.040 5.754 L -0.009 6.099 0.043 6.141 C 0.091 6.180,0.144 6.183,0.843 6.183 C 1.706 6.183,1.654 6.196,1.701 5.957 C 1.740 5.760,1.838 5.499,1.958 5.274 C 2.454 4.341,3.605 3.655,5.130 3.384 C 5.338 3.347,5.915 3.270,5.986 3.270 C 5.996 3.270,6.003 3.119,6.003 2.934 L 6.003 2.598 5.942 2.599 C 5.832 2.599,5.304 2.683,5.040 2.743 C 4.464 2.873,3.758 3.160,3.272 3.461 C 2.990 3.636,2.713 3.846,2.463 4.076 L 2.257 4.265 2.374 4.076 C 2.896 3.231,3.617 2.575,4.490 2.149 C 4.951 1.924,5.538 1.741,5.963 1.690 C 6.186 1.664,6.170 1.723,6.178 0.862 C 6.183 0.208,6.180 0.100,6.149 0.053 C 6.108 -0.010,6.087 -0.011,5.723 0.045 M7.294 0.048 C 7.262 0.093,7.258 0.193,7.258 0.845 C 7.258 1.706,7.244 1.654,7.483 1.701 C 7.680 1.740,7.941 1.838,8.166 1.958 C 9.100 2.454,9.786 3.605,10.057 5.130 C 10.094 5.338,10.170 5.915,10.170 5.986 C 10.170 5.996,10.321 6.003,10.506 6.003 L 10.842 6.003 10.842 5.923 C 10.842 5.775,10.749 5.233,10.674 4.939 C 10.417 3.945,9.975 3.116,9.328 2.421 L 9.173 2.255 9.364 2.373 C 10.209 2.896,10.853 3.603,11.287 4.483 C 11.515 4.945,11.698 5.533,11.750 5.963 C 11.777 6.186,11.717 6.170,12.579 6.178 C 13.488 6.186,13.454 6.194,13.430 5.962 C 13.402 5.697,13.307 5.215,13.224 4.917 C 12.824 3.487,11.964 2.226,10.782 1.336 C 9.797 0.594,8.685 0.151,7.457 0.010 C 7.342 -0.003,7.327 0.000,7.294 0.048 M6.646 2.267 C 6.628 2.296,6.479 3.110,6.309 4.110 C 6.030 5.745,5.999 5.906,5.951 5.954 C 5.903 6.002,5.740 6.034,4.092 6.316 C 3.098 6.486,2.269 6.638,2.250 6.654 C 2.201 6.694,2.219 6.769,2.285 6.803 C 2.316 6.819,3.142 6.968,4.121 7.134 C 5.729 7.407,5.906 7.441,5.952 7.488 C 5.999 7.534,6.033 7.711,6.306 9.319 C 6.472 10.298,6.621 11.125,6.637 11.155 C 6.656 11.192,6.685 11.211,6.720 11.211 C 6.755 11.211,6.784 11.192,6.803 11.155 C 6.819 11.125,6.968 10.298,7.134 9.319 C 7.408 7.709,7.441 7.534,7.488 7.488 C 7.534 7.441,7.709 7.408,9.319 7.134 C 10.298 6.968,11.125 6.819,11.155 6.803 C 11.222 6.769,11.239 6.694,11.190 6.654 C 11.171 6.638,10.342 6.486,9.349 6.316 C 7.696 6.033,7.538 6.002,7.489 5.954 C 7.441 5.905,7.411 5.751,7.134 4.121 C 6.968 3.142,6.819 2.316,6.803 2.285 C 6.765 2.209,6.687 2.200,6.646 2.267 M0.023 7.313 C -0.032 7.379,0.085 8.083,0.238 8.601 C 0.586 9.783,1.259 10.867,2.154 11.686 C 3.179 12.624,4.442 13.219,5.808 13.408 C 6.078 13.446,6.097 13.446,6.133 13.410 C 6.167 13.375,6.172 13.294,6.178 12.616 C 6.183 12.027,6.178 11.852,6.155 11.822 C 6.138 11.799,6.038 11.761,5.912 11.729 C 5.794 11.699,5.618 11.643,5.521 11.604 C 4.466 11.182,3.678 9.968,3.384 8.311 C 3.350 8.120,3.270 7.527,3.270 7.465 C 3.270 7.462,3.119 7.459,2.934 7.459 L 2.598 7.459 2.598 7.528 C 2.598 7.667,2.694 8.218,2.767 8.501 C 3.021 9.488,3.445 10.292,4.074 10.976 L 4.261 11.179 4.141 11.109 C 2.942 10.403,2.058 9.192,1.760 7.849 C 1.731 7.715,1.699 7.550,1.691 7.482 C 1.663 7.262,1.741 7.280,0.842 7.280 C 0.168 7.280,0.046 7.285,0.023 7.313 M11.786 7.319 C 11.775 7.341,11.753 7.419,11.738 7.493 C 11.552 8.398,10.797 9.204,9.714 9.653 C 9.103 9.906,8.347 10.086,7.588 10.160 L 7.437 10.175 7.437 10.508 L 7.437 10.842 7.517 10.842 C 7.666 10.842,8.208 10.749,8.501 10.674 C 9.496 10.417,10.324 9.975,11.019 9.328 L 11.185 9.173 11.067 9.364 C 10.306 10.594,9.079 11.450,7.709 11.707 C 7.541 11.739,7.380 11.769,7.352 11.774 C 7.323 11.780,7.292 11.809,7.279 11.841 C 7.267 11.873,7.258 12.210,7.258 12.619 C 7.258 13.486,7.249 13.453,7.479 13.430 C 7.744 13.402,8.225 13.307,8.523 13.224 C 9.734 12.885,10.848 12.203,11.686 11.286 C 12.552 10.340,13.138 9.164,13.360 7.930 C 13.437 7.498,13.451 7.353,13.417 7.313 C 13.394 7.285,13.269 7.280,12.598 7.280 C 11.867 7.280,11.805 7.283,11.786 7.319 " stroke="none" fill-rule="evenodd" fill="black"></path></svg>