<svg id="Layer_2" data-name="Layer 2" xmlns="http://www.w3.org/2000/svg" viewBox="0 0 14.8299949 14.84699091"><path d="M0.686 0.686 L 0.000 1.372 1.081 2.453 L 2.161 3.533 1.822 3.876 C 1.636 4.064,1.483 4.228,1.483 4.241 C 1.483 4.271,4.875 7.662,4.906 7.662 C 4.919 7.662,5.005 7.587,5.097 7.496 L 5.265 7.330 5.265 7.644 L 5.265 7.959 5.611 7.959 L 5.957 7.959 5.957 8.317 L 5.957 8.676 6.315 8.676 L 6.673 8.676 6.673 9.018 L 6.673 9.361 6.788 9.377 C 6.851 9.385,7.013 9.392,7.147 9.392 L 7.390 9.392 7.390 9.738 L 7.390 10.084 7.736 10.084 L 8.082 10.084 8.082 10.443 L 8.082 10.801 8.435 10.801 L 8.787 10.801 8.779 11.147 L 8.772 11.493 9.132 11.493 L 9.491 11.493 9.491 11.852 L 9.491 12.210 9.837 12.210 L 10.183 12.210 10.183 12.556 L 10.183 12.902 10.542 12.902 L 10.900 12.902 10.900 13.260 L 10.900 13.618 11.252 13.624 L 11.604 13.631 11.619 13.996 C 11.627 14.196,11.640 14.367,11.649 14.376 C 11.661 14.388,11.985 14.282,12.346 14.147 C 12.360 14.142,12.437 14.293,12.518 14.484 C 12.600 14.674,12.674 14.830,12.684 14.830 C 12.694 14.830,12.810 14.708,12.941 14.558 L 13.181 14.286 13.319 14.365 C 13.396 14.409,13.540 14.492,13.639 14.550 C 13.739 14.609,13.824 14.657,13.829 14.657 C 13.833 14.657,13.844 14.560,13.852 14.441 C 13.860 14.322,13.873 14.156,13.881 14.072 L 13.894 13.919 14.078 13.905 C 14.179 13.897,14.344 13.884,14.444 13.877 L 14.626 13.862 14.456 13.569 C 14.362 13.408,14.280 13.260,14.272 13.240 C 14.263 13.217,14.355 13.120,14.542 12.957 L 14.826 12.709 14.470 12.555 C 14.274 12.471,14.113 12.396,14.113 12.389 C 14.113 12.381,14.170 12.220,14.239 12.031 C 14.308 11.842,14.360 11.683,14.355 11.677 C 14.350 11.672,14.179 11.659,13.976 11.649 L 13.607 11.629 13.600 11.277 L 13.593 10.925 13.235 10.925 L 12.877 10.925 12.877 10.566 L 12.877 10.208 12.532 10.208 L 12.187 10.208 12.180 9.856 L 12.173 9.504 11.821 9.497 L 11.469 9.490 11.469 9.144 L 11.469 8.799 11.123 8.799 L 10.778 8.799 10.771 8.447 L 10.764 8.095 10.413 8.088 L 10.061 8.081 10.054 7.730 L 10.047 7.380 9.707 7.387 L 9.368 7.395 9.368 7.034 L 9.368 6.673 9.009 6.673 L 8.651 6.673 8.651 6.315 L 8.651 5.957 8.305 5.957 L 7.959 5.957 7.959 5.611 L 7.959 5.265 7.644 5.265 L 7.330 5.265 7.502 5.091 L 7.674 4.918 5.950 3.194 L 4.227 1.471 3.881 1.817 L 3.534 2.162 2.453 1.081 L 1.372 0.000 0.686 0.686 M2.464 1.438 L 3.531 2.505 3.885 2.168 L 4.239 1.831 5.777 3.369 L 7.316 4.906 6.896 5.327 C 6.665 5.558,6.476 5.758,6.476 5.771 C 6.476 5.785,7.976 7.297,9.810 9.133 C 12.104 11.428,13.161 12.502,13.196 12.574 C 13.257 12.696,13.265 12.897,13.213 12.996 C 13.136 13.144,12.936 13.273,12.785 13.273 C 12.748 13.272,12.656 13.244,12.581 13.210 C 12.463 13.155,12.008 12.710,9.102 9.805 L 5.759 6.464 5.332 6.890 L 4.906 7.316 3.366 5.776 C 2.023 4.433,1.831 4.231,1.865 4.203 C 1.886 4.185,2.039 4.027,2.204 3.851 L 2.505 3.531 1.432 2.458 L 0.359 1.384 0.865 0.878 C 1.143 0.599,1.377 0.371,1.384 0.371 C 1.391 0.371,1.877 0.851,2.464 1.438 M4.313 2.576 C 4.286 2.591,4.195 2.677,4.111 2.766 L 3.958 2.929 4.197 3.170 L 4.436 3.411 3.924 3.924 L 3.411 4.436 3.170 4.196 L 2.929 3.956 2.737 4.142 C 2.559 4.316,2.546 4.336,2.546 4.431 C 2.546 4.531,2.557 4.545,2.973 4.961 C 3.382 5.370,3.404 5.388,3.498 5.388 C 3.593 5.388,3.616 5.368,4.492 4.492 C 5.366 3.618,5.388 3.593,5.388 3.499 C 5.388 3.406,5.369 3.382,4.960 2.974 C 4.570 2.584,4.525 2.546,4.448 2.547 C 4.401 2.547,4.340 2.560,4.313 2.576 M5.116 3.497 C 5.116 3.529,3.530 5.116,3.498 5.116 C 3.484 5.116,3.320 4.964,3.134 4.777 L 2.794 4.438 2.860 4.369 L 2.927 4.300 3.169 4.541 L 3.411 4.782 4.097 4.097 L 4.782 3.411 4.541 3.170 L 4.301 2.928 4.368 2.860 L 4.436 2.793 4.776 3.132 C 4.963 3.319,5.116 3.483,5.116 3.497 M7.692 5.864 L 7.699 6.216 8.051 6.223 L 8.404 6.230 8.404 6.575 L 8.404 6.921 8.750 6.921 L 9.096 6.921 9.096 7.273 L 9.096 7.625 8.067 6.596 C 7.458 5.987,7.045 5.556,7.055 5.539 C 7.066 5.521,7.179 5.512,7.379 5.512 L 7.686 5.512 7.692 5.864 M10.137 9.040 C 13.681 12.588,13.509 12.403,13.570 12.733 C 13.600 12.894,13.572 13.124,13.507 13.249 C 13.439 13.382,13.259 13.537,13.121 13.583 C 12.939 13.643,12.664 13.624,12.468 13.536 C 12.331 13.474,12.053 13.203,9.023 10.173 C 6.841 7.991,5.734 6.867,5.747 6.847 C 5.759 6.826,6.865 7.915,9.043 10.091 C 12.623 13.667,12.425 13.484,12.746 13.512 C 12.944 13.530,13.127 13.458,13.284 13.304 C 13.529 13.062,13.576 12.782,13.424 12.469 C 13.345 12.306,13.170 12.126,10.076 9.028 C 8.280 7.230,6.821 5.759,6.835 5.759 C 6.848 5.759,8.334 7.235,10.137 9.040 M5.870 7.390 L 6.191 7.712 5.851 7.712 L 5.512 7.712 5.512 7.390 C 5.512 7.214,5.520 7.069,5.531 7.069 C 5.541 7.069,5.694 7.214,5.870 7.390 M9.813 7.983 L 9.813 8.330 10.159 8.330 L 10.505 8.330 10.505 8.688 L 10.505 9.046 10.851 9.046 L 11.197 9.046 11.197 9.398 L 11.197 9.750 10.676 9.231 C 10.390 8.946,9.921 8.471,9.635 8.175 L 9.115 7.637 9.464 7.637 L 9.813 7.637 9.813 7.983 M6.896 8.422 C 6.896 8.425,6.746 8.428,6.562 8.428 L 6.229 8.428 6.229 8.089 L 6.229 7.749 6.562 8.082 C 6.746 8.265,6.896 8.418,6.896 8.422 M7.397 9.141 C 7.278 9.145,7.122 9.141,7.050 9.133 L 6.921 9.117 6.921 8.949 C 6.921 8.857,6.928 8.712,6.937 8.628 L 6.953 8.474 7.283 8.803 L 7.614 9.133 7.397 9.141 M8.305 9.831 C 8.305 9.834,8.155 9.837,7.971 9.837 L 7.637 9.837 7.637 9.498 L 7.637 9.158 7.971 9.491 C 8.155 9.674,8.305 9.827,8.305 9.831 M11.913 10.097 L 11.913 10.455 12.272 10.455 L 12.630 10.455 12.630 10.801 C 12.630 10.991,12.622 11.147,12.612 11.147 C 12.588 11.147,11.221 9.781,11.221 9.757 C 11.221 9.747,11.377 9.738,11.567 9.738 L 11.913 9.738 11.913 10.097 M8.688 10.208 L 9.033 10.554 8.681 10.554 L 8.330 10.554 8.330 10.208 C 8.330 10.018,8.332 9.862,8.336 9.862 C 8.340 9.862,8.498 10.018,8.688 10.208 M9.714 11.240 C 9.714 11.243,9.563 11.246,9.380 11.246 L 9.046 11.246 9.046 10.907 L 9.046 10.567 9.380 10.900 C 9.563 11.083,9.714 11.236,9.714 11.240 M13.322 11.514 L 13.322 11.857 13.511 11.873 C 13.615 11.882,13.771 11.889,13.857 11.889 C 13.944 11.889,14.014 11.897,14.014 11.907 C 14.014 11.930,13.859 12.346,13.815 12.439 L 13.784 12.507 13.708 12.352 C 13.647 12.227,13.538 12.102,13.127 11.685 L 12.621 11.172 12.972 11.172 L 13.322 11.172 13.322 11.514 M10.097 11.617 L 10.442 11.963 10.090 11.963 L 9.738 11.963 9.738 11.617 C 9.738 11.427,9.741 11.271,9.745 11.271 C 9.748 11.271,9.907 11.427,10.097 11.617 M11.122 12.648 C 11.122 12.652,10.972 12.655,10.789 12.655 L 10.455 12.655 10.455 12.315 L 10.455 11.976 10.789 12.309 C 10.972 12.492,11.122 12.645,11.122 12.648 M14.306 12.756 C 14.360 12.777,14.352 12.789,14.154 12.958 C 14.038 13.056,13.943 13.148,13.942 13.162 C 13.941 13.175,14.000 13.288,14.073 13.412 L 14.205 13.637 14.057 13.653 C 13.975 13.661,13.850 13.668,13.780 13.668 L 13.651 13.668 13.635 13.857 C 13.626 13.961,13.619 14.089,13.619 14.142 C 13.619 14.194,13.614 14.237,13.608 14.237 C 13.601 14.237,13.493 14.176,13.367 14.101 L 13.137 13.965 13.050 14.058 C 13.003 14.109,12.917 14.204,12.861 14.269 C 12.769 14.375,12.755 14.383,12.733 14.343 C 12.680 14.243,12.529 13.860,12.539 13.850 C 12.545 13.844,12.615 13.849,12.695 13.862 C 13.341 13.963,13.887 13.459,13.832 12.816 C 13.824 12.720,13.810 12.618,13.802 12.588 C 13.787 12.536,13.799 12.538,14.018 12.633 C 14.145 12.689,14.275 12.744,14.306 12.756 M11.506 13.026 L 11.851 13.372 11.499 13.372 L 11.147 13.372 11.147 13.026 C 11.147 12.835,11.150 12.680,11.154 12.680 C 11.157 12.680,11.316 12.835,11.506 13.026 M12.315 13.739 C 12.451 13.811,12.453 13.814,12.400 13.848 C 12.344 13.884,11.928 14.039,11.887 14.039 C 11.874 14.039,11.864 13.903,11.864 13.716 L 11.864 13.392 12.020 13.529 C 12.106 13.604,12.238 13.699,12.315 13.739 " stroke="none" fill-rule="evenodd" fill="black"></path></svg>