<svg id="Layer_2" data-name="Layer 2" xmlns="http://www.w3.org/2000/svg" viewBox="0 0 14.45277331 14.46251689"><path d="M0.308 0.308 C 0.054 0.563,-0.000 0.629,-0.000 0.687 C -0.000 0.747,0.127 0.884,0.903 1.662 L 1.807 2.566 1.807 3.850 L 1.807 5.133 1.866 5.192 C 1.924 5.250,1.930 5.251,2.360 5.251 C 2.762 5.251,2.798 5.248,2.842 5.203 C 2.889 5.156,2.891 5.123,2.891 4.023 L 2.891 2.891 4.023 2.891 C 5.123 2.891,5.156 2.889,5.203 2.842 C 5.248 2.798,5.251 2.762,5.251 2.352 C 5.251 1.955,5.247 1.906,5.207 1.871 C 5.167 1.835,5.040 1.831,3.877 1.831 L 2.592 1.831 1.674 0.915 C 0.887 0.130,0.747 0.000,0.687 0.000 C 0.629 0.000,0.562 0.054,0.308 0.308 M3.755 2.072 L 5.010 2.072 5.010 2.361 L 5.010 2.650 3.818 2.650 L 2.626 2.650 2.626 3.830 L 2.626 5.010 2.349 5.010 L 2.072 5.010 2.072 3.750 L 2.072 2.490 1.182 1.586 L 0.293 0.682 0.488 0.487 L 0.683 0.292 1.591 1.182 L 2.499 2.072 3.755 2.072 M5.492 5.226 C 6.532 6.275,7.933 7.691,8.605 8.371 L 9.828 9.607 9.828 9.719 L 9.828 9.830 9.708 9.823 L 9.588 9.816 6.452 6.697 L 3.316 3.577 3.332 3.926 C 3.340 4.118,3.360 4.702,3.376 5.223 L 3.405 6.170 7.714 10.269 C 10.984 13.380,12.042 14.373,12.100 14.386 C 12.142 14.396,12.666 14.417,13.265 14.433 C 14.332 14.462,14.355 14.461,14.407 14.415 L 14.459 14.368 14.442 13.501 C 14.432 13.024,14.416 12.500,14.406 12.337 L 14.387 12.039 14.242 11.891 C 14.163 11.810,12.345 9.895,10.202 7.636 C 8.058 5.377,6.277 3.500,6.242 3.466 L 6.179 3.402 5.287 3.375 C 4.797 3.360,4.217 3.340,3.999 3.332 L 3.601 3.317 5.492 5.226 M5.535 3.634 L 6.072 3.652 6.153 3.735 C 6.197 3.781,8.016 5.695,10.195 7.990 L 14.156 12.161 14.172 12.636 C 14.181 12.898,14.188 13.357,14.188 13.658 L 14.188 14.204 13.568 14.196 C 13.226 14.191,12.771 14.181,12.556 14.173 L 12.165 14.159 8.100 10.293 C 5.864 8.167,3.950 6.344,3.847 6.241 L 3.659 6.056 3.628 5.142 C 3.611 4.639,3.598 4.225,3.600 4.223 C 3.601 4.220,4.915 5.524,6.520 7.119 C 8.125 8.715,9.464 10.030,9.496 10.042 C 9.529 10.054,9.652 10.072,9.770 10.081 L 9.984 10.097 10.104 9.974 C 10.219 9.857,10.221 9.852,10.161 9.852 C 10.087 9.852,10.069 9.815,10.069 9.671 C 10.069 9.613,10.058 9.537,10.044 9.501 C 10.030 9.465,8.847 8.253,7.414 6.807 C 5.981 5.362,4.678 4.046,4.518 3.883 L 4.227 3.587 4.613 3.602 C 4.825 3.610,5.240 3.625,5.535 3.634 " stroke="none" fill-rule="evenodd" fill="black"></path></svg>