<svg id="Layer_2" data-name="Layer 2" xmlns="http://www.w3.org/2000/svg" viewBox="0 0 14.65517981 14.64579893"><path d="M1.087 0.028 C 1.011 0.069,0.074 1.006,0.035 1.080 C -0.050 1.240,-0.102 1.178,1.422 2.704 L 2.845 4.128 3.126 3.847 L 3.407 3.566 2.788 2.947 C 2.231 2.389,2.171 2.321,2.178 2.257 C 2.185 2.199,2.199 2.185,2.257 2.178 C 2.321 2.171,2.389 2.231,2.947 2.788 L 3.566 3.407 3.847 3.126 L 4.128 2.846 2.742 1.458 C 1.979 0.695,1.326 0.054,1.290 0.035 C 1.212 -0.006,1.154 -0.008,1.087 0.028 M3.676 2.955 L 3.580 3.054 3.054 2.531 C 2.765 2.244,2.493 1.991,2.450 1.969 C 2.353 1.920,2.169 1.918,2.079 1.965 C 1.943 2.035,1.883 2.202,1.933 2.374 C 1.958 2.462,2.049 2.566,2.508 3.030 L 3.053 3.580 2.948 3.683 L 2.844 3.786 1.558 2.483 L 0.273 1.181 0.729 0.725 L 1.185 0.269 2.479 1.563 L 3.773 2.857 3.676 2.955 M3.688 3.700 L 3.212 4.177 5.618 6.583 L 8.024 8.988 8.500 8.512 L 8.976 8.036 6.570 5.630 L 4.164 3.224 3.688 3.700 M6.412 5.813 L 8.634 8.036 8.335 8.335 L 8.036 8.634 5.807 6.406 L 3.579 4.177 3.871 3.884 C 4.032 3.722,4.169 3.591,4.176 3.591 C 4.183 3.591,5.189 4.591,6.412 5.813 M12.071 6.065 L 11.795 6.341 12.923 7.509 L 14.051 8.676 14.328 8.400 L 14.605 8.123 14.539 8.051 C 14.389 7.888,12.373 5.801,12.360 5.795 C 12.353 5.791,12.222 5.913,12.071 6.065 M13.323 7.144 L 14.263 8.121 14.162 8.224 L 14.061 8.327 13.643 7.894 C 12.583 6.799,12.175 6.372,12.167 6.348 C 12.155 6.313,12.314 6.152,12.352 6.161 C 12.369 6.164,12.806 6.607,13.323 7.144 M10.846 7.436 L 10.173 8.105 9.725 8.153 L 9.276 8.201 8.732 8.744 L 8.188 9.288 8.145 9.731 L 8.102 10.173 7.434 10.846 C 6.788 11.497,6.766 11.523,6.766 11.615 C 6.766 11.708,6.790 11.734,7.783 12.729 C 8.469 13.416,8.821 13.751,8.864 13.759 C 8.899 13.766,8.960 13.756,9.001 13.737 C 9.041 13.718,10.126 12.642,11.413 11.347 C 13.685 9.059,13.751 8.990,13.751 8.900 C 13.751 8.811,13.715 8.771,12.768 7.822 C 12.228 7.279,11.756 6.820,11.719 6.801 C 11.565 6.719,11.565 6.720,10.846 7.436 M12.555 7.975 L 13.495 8.915 11.199 11.211 L 8.903 13.507 7.963 12.567 L 7.022 11.627 7.679 10.969 L 8.336 10.312 8.386 9.847 L 8.435 9.382 8.913 8.908 L 9.392 8.434 9.834 8.391 L 10.277 8.348 10.933 7.691 C 11.294 7.330,11.595 7.034,11.602 7.034 C 11.609 7.034,12.038 7.458,12.555 7.975 M11.681 11.682 L 9.208 14.155 9.447 14.393 C 9.578 14.524,9.696 14.631,9.710 14.631 C 9.723 14.631,10.841 13.523,12.195 12.170 L 14.656 9.709 14.405 9.459 L 14.154 9.209 11.681 11.682 M11.999 11.998 L 9.698 14.299 9.624 14.228 L 9.549 14.156 11.851 11.853 L 14.154 9.551 14.227 9.624 L 14.301 9.697 11.999 11.998 M6.082 12.054 L 5.801 12.335 6.955 13.489 L 8.109 14.643 8.382 14.370 L 8.655 14.097 8.188 13.613 C 7.932 13.346,7.416 12.824,7.042 12.451 L 6.362 11.773 6.082 12.054 M7.334 13.111 L 8.306 14.082 8.207 14.179 L 8.108 14.275 7.132 13.300 L 6.156 12.324 6.246 12.232 C 6.296 12.181,6.342 12.139,6.350 12.139 C 6.357 12.139,6.800 12.577,7.334 13.111 " stroke="none" fill-rule="evenodd" fill="black"></path></svg>