<svg id="Layer_2" data-name="Layer 2" xmlns="http://www.w3.org/2000/svg" viewBox="0 0 14.60763219 14.70363796"><path d="M0.146 0.017 C 0.016 0.065,-0.033 0.220,0.042 0.347 C 0.107 0.457,3.771 5.799,3.807 5.837 C 3.830 5.861,3.846 5.661,3.879 4.901 C 3.902 4.370,3.924 3.932,3.927 3.928 C 3.931 3.925,4.369 3.903,4.901 3.879 C 5.643 3.846,5.861 3.830,5.837 3.808 C 5.797 3.771,0.388 0.063,0.322 0.027 C 0.268 -0.002,0.207 -0.005,0.146 0.017 M2.861 2.064 C 4.079 2.900,5.081 3.588,5.086 3.594 C 5.110 3.617,5.044 3.623,4.458 3.649 C 4.118 3.665,3.820 3.689,3.795 3.702 C 3.682 3.763,3.670 3.819,3.642 4.455 C 3.627 4.788,3.610 5.066,3.603 5.073 C 3.592 5.083,2.053 2.855,0.623 0.759 L 0.333 0.334 0.489 0.440 C 0.575 0.498,1.642 1.229,2.861 2.064 M6.332 3.962 C 6.319 4.013,6.294 4.124,6.277 4.209 L 6.246 4.364 6.459 4.568 C 6.634 4.734,6.687 4.772,6.749 4.772 C 6.834 4.772,8.272 4.677,8.321 4.668 C 8.338 4.665,8.188 4.499,7.988 4.300 L 7.625 3.937 7.093 3.905 C 6.308 3.857,6.361 3.854,6.332 3.962 M7.203 4.162 L 7.529 4.183 7.659 4.312 C 7.731 4.382,7.786 4.444,7.782 4.448 C 7.778 4.452,7.551 4.471,7.278 4.490 L 6.781 4.525 6.656 4.411 C 6.532 4.299,6.510 4.254,6.540 4.177 C 6.557 4.132,6.693 4.129,7.203 4.162 M5.485 4.621 L 5.091 5.076 5.854 5.841 L 6.617 6.605 6.827 6.439 C 6.942 6.348,7.036 6.272,7.036 6.270 C 7.036 6.226,6.786 5.098,6.770 5.069 C 6.757 5.046,6.552 4.834,6.313 4.597 L 5.880 4.166 5.485 4.621 M6.650 5.658 C 6.754 6.154,6.755 6.185,6.663 6.243 C 6.629 6.265,6.528 6.174,6.025 5.671 L 5.427 5.074 5.664 4.800 L 5.901 4.525 6.225 4.849 L 6.549 5.174 6.650 5.658 M7.888 4.975 C 7.278 5.020,7.169 5.033,7.163 5.066 C 7.157 5.098,7.272 5.842,7.318 6.068 L 7.332 6.135 7.856 6.135 C 8.291 6.135,8.378 6.141,8.367 6.169 C 8.360 6.187,8.143 6.550,7.884 6.974 L 7.413 7.747 7.395 7.580 C 7.386 7.488,7.371 7.230,7.362 7.006 L 7.347 6.599 7.205 6.702 C 7.126 6.758,6.520 7.205,5.858 7.693 L 4.654 8.582 5.267 9.197 L 5.879 9.811 6.275 9.811 L 6.671 9.811 7.042 10.185 C 7.584 10.730,7.980 11.008,8.594 11.278 C 8.883 11.405,9.513 11.628,9.531 11.610 C 9.535 11.605,9.277 11.217,8.957 10.749 C 8.637 10.280,8.375 9.893,8.375 9.888 C 8.375 9.883,8.389 9.889,8.405 9.903 C 8.470 9.953,14.524 14.640,14.559 14.665 C 14.589 14.688,14.591 14.686,14.569 14.656 C 14.554 14.636,13.483 13.203,12.189 11.472 L 9.836 8.323 9.833 7.747 C 9.832 7.429,9.824 6.877,9.815 6.519 L 9.799 5.868 9.333 5.401 L 8.866 4.934 8.736 4.928 C 8.665 4.925,8.283 4.946,7.888 4.975 M4.570 5.642 L 4.162 6.122 4.838 6.798 C 5.210 7.170,5.523 7.474,5.533 7.474 C 5.558 7.474,6.500 6.719,6.500 6.699 C 6.500 6.690,6.158 6.340,5.739 5.922 L 4.978 5.161 4.570 5.642 M9.151 5.560 L 9.548 5.958 9.570 7.136 C 9.582 7.784,9.597 8.344,9.603 8.380 C 9.610 8.417,10.406 9.505,11.421 10.864 C 12.414 12.193,13.239 13.297,13.254 13.317 C 13.293 13.370,13.301 13.377,10.761 11.407 L 8.436 9.605 8.156 9.591 C 8.002 9.583,7.872 9.580,7.868 9.583 C 7.863 9.586,8.096 9.934,8.385 10.357 C 8.674 10.780,8.911 11.131,8.911 11.137 C 8.911 11.158,8.425 10.934,8.251 10.832 C 7.816 10.578,7.388 10.225,7.043 9.835 L 6.807 9.568 6.392 9.568 L 5.976 9.568 5.502 9.093 C 5.054 8.645,5.031 8.617,5.077 8.585 C 5.103 8.566,5.569 8.222,6.111 7.820 L 7.097 7.090 7.112 7.208 C 7.121 7.274,7.136 7.571,7.146 7.869 C 7.155 8.168,7.170 8.451,7.179 8.500 C 7.194 8.586,7.219 8.548,8.013 7.246 L 8.833 5.904 8.191 5.897 C 7.607 5.892,7.549 5.887,7.538 5.849 C 7.512 5.758,7.443 5.282,7.454 5.270 C 7.461 5.264,7.750 5.238,8.097 5.213 C 8.444 5.188,8.734 5.166,8.741 5.164 C 8.747 5.163,8.932 5.341,9.151 5.560 M5.570 6.117 L 6.136 6.684 5.840 6.924 L 5.545 7.164 5.021 6.640 L 4.497 6.116 4.736 5.833 C 4.867 5.678,4.981 5.551,4.989 5.551 C 4.997 5.551,5.258 5.806,5.570 6.117 M3.663 6.661 L 3.304 7.089 3.910 7.696 C 4.243 8.029,4.525 8.302,4.537 8.302 C 4.549 8.302,4.754 8.146,4.993 7.955 L 5.428 7.608 4.741 6.920 C 4.363 6.542,4.047 6.233,4.038 6.233 C 4.030 6.233,3.861 6.425,3.663 6.661 M4.559 7.078 C 4.823 7.343,5.040 7.567,5.040 7.576 C 5.040 7.586,4.932 7.681,4.800 7.788 L 4.560 7.982 4.104 7.525 L 3.648 7.068 3.846 6.833 C 3.955 6.704,4.051 6.598,4.061 6.598 C 4.070 6.598,4.294 6.814,4.559 7.078 M7.266 12.048 C 7.815 12.598,8.258 13.052,8.252 13.057 C 8.246 13.061,7.866 13.201,7.408 13.367 C 6.950 13.533,6.579 13.672,6.584 13.676 C 6.594 13.687,11.935 14.098,11.959 14.090 C 11.974 14.085,7.876 11.892,6.587 11.215 L 6.269 11.048 7.266 12.048 M9.549 13.074 C 10.241 13.442,10.803 13.746,10.799 13.750 C 10.787 13.762,7.766 13.526,7.766 13.512 C 7.766 13.505,7.980 13.423,8.241 13.329 L 8.715 13.159 8.161 12.602 L 7.608 12.045 7.950 12.225 C 8.139 12.324,8.858 12.705,9.549 13.074 " stroke="none" fill-rule="evenodd" fill="black"></path></svg>