<svg id="Layer_2" data-name="Layer 2" xmlns="http://www.w3.org/2000/svg" viewBox="0 0 14.42363792 14.4"><path d="M0.306 0.307 C 0.053 0.560,-0.000 0.626,-0.001 0.685 C -0.002 0.748,0.107 0.864,0.888 1.637 L 1.779 2.516 1.779 3.768 C 1.779 4.964,1.781 5.021,1.825 5.076 C 1.869 5.130,1.886 5.133,2.239 5.141 C 2.657 5.150,2.778 5.128,2.814 5.033 C 2.827 4.998,2.837 4.525,2.837 3.906 L 2.837 2.838 3.942 2.831 C 4.964 2.825,5.050 2.821,5.090 2.782 C 5.127 2.745,5.133 2.684,5.140 2.324 C 5.147 1.931,5.145 1.906,5.096 1.844 L 5.045 1.779 3.791 1.779 L 2.537 1.779 1.646 0.889 C 0.873 0.117,0.746 0.000,0.684 0.000 C 0.624 0.000,0.562 0.051,0.306 0.307 M1.551 1.154 L 2.416 2.019 3.648 2.019 L 4.880 2.019 4.880 2.296 L 4.880 2.572 3.811 2.572 C 3.079 2.572,2.724 2.581,2.684 2.599 C 2.652 2.614,2.614 2.652,2.599 2.684 C 2.581 2.724,2.572 3.079,2.572 3.811 L 2.572 4.880 2.296 4.880 L 2.019 4.880 2.019 3.647 L 2.019 2.415 1.148 1.544 L 0.277 0.674 0.468 0.481 C 0.574 0.375,0.666 0.288,0.673 0.288 C 0.680 0.288,1.075 0.678,1.551 1.154 M6.479 6.346 C 9.141 9.009,9.552 9.429,9.529 9.465 C 9.514 9.489,9.483 9.511,9.459 9.516 C 9.429 9.522,8.515 8.624,6.341 6.451 L 3.266 3.378 3.274 3.985 L 3.282 4.592 6.920 8.230 L 10.558 11.868 10.599 12.197 C 10.632 12.455,10.651 12.536,10.687 12.571 C 10.725 12.608,13.486 13.822,13.709 13.900 C 13.760 13.918,13.790 13.915,13.836 13.884 C 13.981 13.789,14.003 13.859,13.291 12.223 C 12.930 11.393,12.618 10.694,12.597 10.670 C 12.569 10.635,12.488 10.617,12.224 10.586 L 11.887 10.547 8.265 6.928 L 4.642 3.308 4.503 3.291 C 4.426 3.281,4.147 3.273,3.882 3.271 L 3.402 3.269 6.479 6.346 M8.101 7.129 C 10.078 9.107,11.722 10.739,11.755 10.756 C 11.788 10.774,11.934 10.802,12.080 10.819 C 12.225 10.835,12.364 10.856,12.388 10.865 C 12.418 10.875,12.614 11.298,13.017 12.225 C 13.340 12.964,13.600 13.572,13.597 13.576 C 13.587 13.585,10.928 12.427,10.902 12.402 C 10.889 12.389,10.860 12.236,10.838 12.063 L 10.799 11.748 7.166 8.116 L 3.534 4.483 3.534 4.246 L 3.534 4.008 6.416 6.881 C 8.644 9.103,9.315 9.759,9.373 9.771 C 9.599 9.821,9.828 9.596,9.792 9.360 C 9.783 9.307,9.140 8.653,6.892 6.413 L 4.003 3.535 4.255 3.534 L 4.507 3.534 8.101 7.129 M13.923 7.038 C 13.786 8.158,13.669 9.095,13.662 9.120 C 13.652 9.155,13.503 9.018,12.948 8.465 C 12.320 7.838,12.238 7.765,12.169 7.765 C 12.086 7.765,11.996 7.835,11.996 7.899 C 11.996 7.956,14.109 13.034,14.153 13.083 C 14.204 13.140,14.316 13.137,14.376 13.077 C 14.423 13.030,14.424 12.997,14.424 9.015 L 14.424 5.000 14.297 5.000 L 14.171 5.000 13.923 7.038 M14.153 11.158 L 14.147 12.464 13.319 10.469 C 12.864 9.372,12.477 8.436,12.458 8.390 C 12.432 8.326,12.573 8.453,13.046 8.925 C 13.463 9.339,13.685 9.544,13.719 9.544 C 13.747 9.544,13.794 9.524,13.824 9.499 C 13.876 9.457,13.887 9.390,14.013 8.368 L 14.147 7.281 14.153 8.567 C 14.157 9.274,14.157 10.440,14.153 11.158 M7.868 11.996 C 7.810 12.019,7.765 12.090,7.765 12.156 C 7.765 12.181,8.069 12.504,8.479 12.914 C 8.945 13.381,9.181 13.632,9.158 13.640 C 9.139 13.646,8.220 13.760,7.116 13.894 C 6.012 14.027,5.084 14.142,5.054 14.148 C 5.007 14.159,5.000 14.175,5.000 14.280 L 5.000 14.400 9.027 14.400 C 13.021 14.400,13.054 14.399,13.101 14.352 C 13.161 14.292,13.164 14.179,13.107 14.130 C 13.073 14.099,7.955 11.968,7.929 11.973 C 7.924 11.974,7.897 11.984,7.868 11.996 M10.421 13.269 C 11.545 13.734,12.475 14.125,12.487 14.137 C 12.501 14.151,11.473 14.158,9.831 14.157 C 8.357 14.156,7.163 14.151,7.176 14.146 C 7.189 14.140,7.687 14.076,8.282 14.003 C 8.877 13.930,9.394 13.864,9.432 13.856 C 9.506 13.841,9.570 13.730,9.550 13.651 C 9.543 13.627,9.261 13.334,8.922 13.001 C 8.584 12.668,8.323 12.401,8.342 12.409 C 8.362 12.417,9.297 12.804,10.421 13.269 " stroke="none" fill-rule="evenodd" fill="black"></path></svg>