<svg id="Layer_2" data-name="Layer 2" xmlns="http://www.w3.org/2000/svg" viewBox="0 0 16.16457475 13.41865133"><path d="M2.630 0.114 C 2.655 0.163,2.905 0.645,3.185 1.185 L 3.694 2.169 6.016 4.494 C 7.293 5.772,8.431 6.892,8.543 6.981 C 9.680 7.881,11.214 7.947,12.417 7.147 C 13.180 6.639,13.702 5.823,13.849 4.907 C 13.891 4.647,13.884 4.119,13.834 3.839 C 13.593 2.480,12.518 1.408,11.158 1.171 C 10.863 1.120,10.308 1.121,10.007 1.173 C 8.896 1.367,7.925 2.172,7.518 3.236 L 7.433 3.459 8.115 4.141 L 8.796 4.823 8.812 4.425 C 8.830 3.973,8.874 3.802,9.056 3.494 C 9.456 2.816,10.254 2.485,11.043 2.671 C 11.111 2.687,11.270 2.750,11.396 2.810 C 11.812 3.011,12.169 3.433,12.312 3.893 C 12.389 4.140,12.396 4.617,12.327 4.876 C 12.162 5.497,11.621 6.020,11.003 6.157 C 10.721 6.220,10.266 6.201,10.022 6.116 C 9.636 5.982,9.684 6.026,7.153 3.502 L 4.755 1.111 3.687 0.569 C 3.100 0.271,2.612 0.027,2.602 0.027 C 2.593 0.027,2.605 0.066,2.630 0.114 M7.018 3.717 C 9.360 6.051,9.421 6.110,9.637 6.220 C 9.964 6.387,10.211 6.444,10.601 6.445 C 11.111 6.445,11.484 6.314,11.874 6.000 C 12.333 5.629,12.598 5.112,12.628 4.525 C 12.660 3.896,12.449 3.363,11.997 2.933 C 11.572 2.528,11.071 2.346,10.481 2.380 C 10.045 2.405,9.736 2.513,9.389 2.761 C 8.982 3.051,8.637 3.604,8.579 4.061 C 8.569 4.139,8.553 4.203,8.544 4.203 C 8.534 4.203,8.345 4.022,8.125 3.801 L 7.723 3.399 7.772 3.269 C 7.891 2.955,8.130 2.591,8.404 2.308 C 8.756 1.943,9.152 1.690,9.605 1.538 C 11.043 1.058,12.573 1.663,13.277 2.992 C 14.071 4.490,13.486 6.340,11.973 7.118 C 10.993 7.622,9.837 7.553,8.894 6.933 C 8.698 6.805,8.289 6.408,6.288 4.412 L 3.914 2.044 3.547 1.334 C 3.344 0.944,3.179 0.617,3.179 0.607 C 3.179 0.598,3.503 0.756,3.900 0.959 L 4.620 1.327 7.018 3.717 M3.877 2.723 C 3.875 2.729,3.865 3.011,3.854 3.348 C 3.842 3.686,3.828 3.966,3.823 3.971 C 3.817 3.976,2.971 4.012,1.943 4.051 C 0.914 4.089,0.070 4.124,0.066 4.128 C 0.062 4.132,1.356 4.418,2.942 4.763 C 4.528 5.108,5.831 5.385,5.837 5.379 C 5.843 5.373,5.458 4.842,4.982 4.200 C 4.505 3.557,4.062 2.959,3.998 2.871 C 3.933 2.783,3.878 2.716,3.877 2.723 M4.699 4.240 C 5.005 4.653,5.252 4.994,5.248 4.999 C 5.237 5.009,2.076 4.321,2.060 4.305 C 2.053 4.299,2.500 4.277,3.051 4.258 C 3.603 4.239,4.064 4.218,4.075 4.212 C 4.086 4.205,4.095 4.028,4.095 3.819 C 4.095 3.595,4.105 3.448,4.119 3.463 C 4.132 3.477,4.393 3.827,4.699 4.240 M5.159 5.742 C 4.062 5.863,3.015 6.639,2.564 7.668 C 2.372 8.105,2.286 8.525,2.286 9.026 C 2.287 9.903,2.620 10.701,3.247 11.328 C 3.806 11.888,4.489 12.208,5.279 12.282 C 6.079 12.358,6.900 12.122,7.570 11.626 C 7.729 11.509,8.079 11.150,8.220 10.961 C 8.392 10.728,8.540 10.458,8.646 10.180 L 8.731 9.957 8.043 9.269 L 7.355 8.581 7.354 8.918 C 7.354 9.300,7.315 9.504,7.192 9.764 C 6.906 10.370,6.348 10.752,5.684 10.795 C 4.864 10.849,4.102 10.320,3.852 9.524 C 3.775 9.277,3.768 8.801,3.837 8.540 C 4.002 7.925,4.556 7.388,5.159 7.261 C 5.394 7.211,5.752 7.210,5.978 7.259 C 6.073 7.279,6.254 7.347,6.382 7.409 L 6.614 7.523 9.003 9.908 L 11.391 12.293 12.478 12.850 C 13.076 13.156,13.569 13.404,13.574 13.401 C 13.578 13.397,13.332 12.911,13.027 12.321 L 12.471 11.248 10.148 8.923 C 8.871 7.644,7.734 6.525,7.621 6.436 C 6.914 5.875,6.081 5.641,5.159 5.742 M5.954 5.995 C 6.199 6.018,6.438 6.080,6.731 6.199 C 7.055 6.331,7.319 6.497,7.600 6.746 C 7.725 6.856,8.823 7.944,10.041 9.164 L 12.256 11.383 12.621 12.087 C 12.821 12.475,12.986 12.800,12.986 12.810 C 12.986 12.820,12.661 12.663,12.265 12.460 L 11.544 12.091 9.146 9.701 L 6.749 7.310 6.493 7.183 C 6.181 7.029,5.952 6.979,5.563 6.979 C 4.964 6.978,4.515 7.169,4.095 7.600 C 3.544 8.166,3.380 9.002,3.668 9.772 C 3.798 10.119,4.194 10.570,4.556 10.784 C 5.066 11.085,5.783 11.129,6.359 10.895 C 6.797 10.717,7.171 10.366,7.393 9.923 C 7.488 9.734,7.597 9.387,7.597 9.275 C 7.597 9.241,7.607 9.214,7.618 9.214 C 7.629 9.214,7.818 9.394,8.038 9.614 C 8.493 10.070,8.470 10.003,8.291 10.359 C 7.927 11.082,7.305 11.629,6.557 11.882 C 5.593 12.209,4.539 12.038,3.731 11.425 C 2.616 10.577,2.226 9.062,2.792 7.773 C 3.227 6.783,4.207 6.080,5.285 5.984 C 5.532 5.962,5.602 5.963,5.954 5.995 M10.335 8.063 C 10.348 8.086,10.789 8.686,11.315 9.396 C 12.167 10.546,12.273 10.680,12.289 10.617 C 12.298 10.579,12.307 10.359,12.309 10.130 C 12.311 9.900,12.320 9.651,12.329 9.576 L 12.345 9.440 14.113 9.377 C 15.086 9.343,15.928 9.307,15.986 9.298 C 16.068 9.285,15.494 9.152,13.251 8.663 C 11.690 8.324,10.390 8.040,10.362 8.033 C 10.322 8.023,10.316 8.029,10.335 8.063 M12.501 8.755 C 13.323 8.934,14.026 9.091,14.063 9.104 C 14.126 9.127,14.125 9.129,14.036 9.131 C 13.630 9.138,12.227 9.192,12.158 9.203 L 12.071 9.216 12.064 9.594 L 12.056 9.972 11.501 9.222 C 10.865 8.362,10.887 8.394,10.955 8.415 C 10.983 8.424,11.678 8.577,12.501 8.755 " stroke="none" fill-rule="evenodd" fill="black"></path></svg>