<svg id="Layer_2" data-name="Layer 2" xmlns="http://www.w3.org/2000/svg" viewBox="0 0 14.23859418 14.23704297"><path d="M0.314 0.315 C 0.074 0.555,0.000 0.644,0.000 0.690 C 0.000 0.739,0.187 0.941,0.902 1.667 L 1.804 2.582 1.804 3.827 C 1.804 4.666,1.812 5.096,1.830 5.146 C 1.867 5.255,1.959 5.273,2.414 5.264 C 2.745 5.257,2.805 5.251,2.841 5.214 C 2.880 5.175,2.884 5.089,2.890 4.034 L 2.897 2.897 4.034 2.890 C 5.089 2.884,5.175 2.880,5.214 2.841 C 5.252 2.803,5.256 2.749,5.256 2.363 C 5.256 1.968,5.252 1.923,5.211 1.877 C 5.166 1.828,5.157 1.827,3.882 1.827 L 2.598 1.827 2.207 1.434 C 1.361 0.583,0.741 0.000,0.684 0.000 C 0.644 0.000,0.539 0.090,0.314 0.315 M1.584 1.169 L 2.468 2.053 3.738 2.059 L 5.007 2.066 5.007 2.350 L 5.007 2.634 3.925 2.634 C 2.748 2.634,2.720 2.637,2.661 2.767 C 2.642 2.809,2.634 3.152,2.634 3.917 L 2.634 5.007 2.350 5.007 L 2.066 5.007 2.059 3.738 L 2.053 2.468 1.163 1.578 L 0.274 0.689 0.474 0.487 C 0.585 0.376,0.681 0.285,0.688 0.285 C 0.694 0.285,1.098 0.683,1.584 1.169 M8.834 0.792 C 8.726 0.967,8.477 1.353,8.282 1.649 L 7.926 2.188 7.926 4.013 L 7.926 5.838 6.091 5.838 L 4.256 5.838 4.068 5.970 C 3.640 6.271,3.175 6.522,2.553 6.789 L 2.200 6.941 4.019 6.947 L 5.838 6.953 5.838 7.440 L 5.838 7.926 4.028 7.927 C 2.365 7.928,2.213 7.931,2.148 7.969 C 2.108 7.991,1.874 8.144,1.626 8.308 C 1.378 8.472,1.015 8.702,0.820 8.818 L 0.465 9.030 3.151 9.036 L 5.838 9.042 5.844 11.538 L 5.850 14.034 6.123 13.610 C 6.273 13.376,6.512 13.019,6.654 12.816 C 6.795 12.613,6.921 12.415,6.932 12.376 C 6.944 12.337,6.953 11.571,6.953 10.673 L 6.953 9.042 8.635 9.042 L 10.318 9.042 10.433 8.959 C 10.946 8.595,11.147 8.473,11.735 8.171 L 12.210 7.928 10.626 7.927 L 9.042 7.926 9.042 7.440 L 9.042 6.954 10.732 6.948 L 12.423 6.941 12.827 6.657 C 13.048 6.500,13.410 6.254,13.630 6.111 L 14.031 5.850 11.536 5.844 L 9.042 5.838 9.036 3.155 L 9.030 0.473 8.834 0.792 M8.823 5.974 C 8.839 6.003,8.873 6.038,8.898 6.051 C 8.928 6.067,9.670 6.076,11.075 6.076 C 13.173 6.078,13.205 6.078,13.147 6.123 C 13.114 6.148,12.918 6.286,12.711 6.430 L 12.335 6.692 9.586 6.692 C 7.975 6.692,6.814 6.701,6.780 6.714 C 6.749 6.726,6.580 6.899,6.405 7.098 L 6.087 7.461 6.080 7.077 L 6.074 6.693 4.728 6.686 L 3.382 6.680 3.572 6.577 C 3.676 6.521,3.896 6.384,4.060 6.275 L 4.358 6.075 6.198 6.075 L 8.038 6.075 8.101 6.013 L 8.163 5.950 8.163 4.116 L 8.163 2.283 8.466 1.830 L 8.769 1.376 8.780 3.649 C 8.790 5.427,8.799 5.932,8.823 5.974 M6.803 2.237 C 6.663 2.911,6.599 3.130,6.464 3.401 C 6.308 3.714,5.973 4.186,5.781 4.365 L 5.718 4.423 5.118 3.825 C 4.667 3.377,4.503 3.227,4.459 3.227 C 4.428 3.227,4.173 3.206,3.892 3.180 C 3.611 3.154,3.339 3.133,3.287 3.133 L 3.192 3.132 4.272 4.214 C 4.865 4.809,5.380 5.310,5.415 5.329 C 5.467 5.357,5.620 5.363,6.204 5.363 L 6.929 5.363 6.929 3.524 C 6.929 2.513,6.927 1.685,6.923 1.685 C 6.920 1.685,6.866 1.933,6.803 2.237 M3.145 3.818 C 3.181 4.246,3.204 4.423,3.231 4.465 C 3.252 4.496,3.466 4.711,3.708 4.942 L 4.147 5.363 4.701 5.363 L 5.256 5.363 4.189 4.295 C 3.601 3.708,3.115 3.227,3.108 3.227 C 3.101 3.227,3.117 3.493,3.145 3.818 M4.243 3.461 L 4.416 3.479 5.002 4.064 C 5.325 4.386,5.619 4.660,5.656 4.674 C 5.692 4.688,5.747 4.693,5.777 4.685 C 5.894 4.656,6.344 4.121,6.563 3.749 L 6.680 3.551 6.687 4.309 C 6.690 4.725,6.688 5.080,6.681 5.096 C 6.673 5.119,6.537 5.126,6.106 5.126 L 5.543 5.126 4.699 4.284 L 3.856 3.441 3.963 3.443 C 4.022 3.443,4.148 3.452,4.243 3.461 M4.628 5.108 C 4.628 5.118,4.543 5.126,4.439 5.126 L 4.250 5.126 3.845 4.728 L 3.439 4.331 3.426 4.105 L 3.412 3.880 4.020 4.485 C 4.354 4.818,4.628 5.098,4.628 5.108 M8.472 7.440 L 7.985 7.927 7.003 7.920 L 6.021 7.914 6.444 7.434 L 6.867 6.953 7.912 6.953 L 8.958 6.953 8.472 7.440 M9.964 8.187 L 11.136 8.199 10.872 8.362 C 10.728 8.451,10.532 8.582,10.438 8.653 L 10.267 8.780 8.480 8.780 L 6.692 8.780 6.692 10.549 L 6.692 12.318 6.425 12.704 C 6.278 12.916,6.140 13.116,6.118 13.148 C 6.080 13.203,6.078 13.087,6.076 11.068 L 6.075 8.929 6.015 8.870 C 5.983 8.837,5.923 8.803,5.882 8.795 C 5.841 8.787,4.809 8.780,3.588 8.780 L 1.368 8.780 1.805 8.490 L 2.243 8.199 5.167 8.187 L 8.092 8.175 8.430 7.837 L 8.769 7.499 8.780 7.837 L 8.792 8.175 9.964 8.187 M8.010 9.573 C 7.979 9.604,7.947 9.665,7.939 9.709 C 7.931 9.753,7.927 10.349,7.931 11.033 L 7.938 12.276 8.054 12.006 C 8.238 11.578,8.484 11.112,8.647 10.885 C 8.790 10.685,9.074 10.369,9.108 10.372 C 9.117 10.372,9.501 10.743,9.961 11.196 L 10.798 12.020 10.866 12.360 C 10.904 12.547,10.949 12.714,10.967 12.731 C 10.985 12.748,11.668 13.089,12.486 13.488 C 13.673 14.069,13.991 14.215,14.066 14.215 C 14.170 14.215,14.239 14.161,14.239 14.079 C 14.239 14.020,12.782 11.040,12.724 10.982 C 12.698 10.955,12.569 10.918,12.363 10.877 L 12.043 10.815 11.389 10.165 L 10.735 9.516 9.401 9.516 L 8.066 9.516 8.010 9.573 M11.261 10.394 L 11.902 11.035 12.227 11.099 L 12.551 11.163 13.215 12.517 C 13.580 13.261,13.876 13.874,13.872 13.877 C 13.869 13.881,13.258 13.587,12.516 13.223 L 11.165 12.563 11.094 12.231 L 11.023 11.899 10.132 11.017 C 9.641 10.532,9.212 10.124,9.177 10.111 C 9.133 10.095,9.092 10.095,9.047 10.111 C 8.907 10.164,8.498 10.624,8.295 10.958 C 8.245 11.039,8.200 11.106,8.196 11.106 C 8.191 11.106,8.187 10.802,8.187 10.430 L 8.187 9.753 9.403 9.753 L 10.619 9.753 11.261 10.394 " stroke="none" fill-rule="evenodd" fill="black"></path></svg>