<svg id="Layer_2" data-name="Layer 2" xmlns="http://www.w3.org/2000/svg" viewBox="0 0 13.65074035 13.62768809"><path d="M0.293 0.290 C 0.046 0.535,-0.000 0.592,-0.000 0.649 C -0.000 0.709,0.111 0.831,0.853 1.585 L 1.705 2.452 1.711 3.674 L 1.718 4.896 1.771 4.939 C 1.820 4.978,1.865 4.983,2.240 4.983 C 2.633 4.983,2.657 4.980,2.698 4.935 C 2.739 4.889,2.742 4.832,2.748 3.820 L 2.754 2.754 3.820 2.748 C 4.832 2.742,4.889 2.739,4.935 2.698 C 4.980 2.657,4.983 2.633,4.983 2.243 C 4.983 1.906,4.976 1.821,4.947 1.780 L 4.912 1.729 3.690 1.729 L 2.468 1.729 2.150 1.409 C 1.975 1.233,1.579 0.844,1.270 0.544 C 0.817 0.104,0.697 0.000,0.647 0.000 C 0.598 0.000,0.524 0.061,0.293 0.290 M1.501 1.123 C 2.181 1.800,2.346 1.953,2.409 1.965 C 2.451 1.973,2.991 1.979,3.609 1.979 L 4.732 1.979 4.732 2.241 L 4.732 2.503 3.686 2.503 L 2.640 2.503 2.566 2.569 L 2.491 2.635 2.485 3.684 L 2.478 4.732 2.229 4.732 L 1.979 4.732 1.979 3.609 C 1.979 2.991,1.973 2.451,1.965 2.409 C 1.953 2.346,1.799 2.180,1.118 1.496 L 0.286 0.660 0.466 0.478 C 0.566 0.378,0.652 0.296,0.659 0.296 C 0.665 0.296,1.044 0.668,1.501 1.123 M6.955 2.843 C 6.807 2.853,6.682 2.866,6.677 2.871 C 6.672 2.876,6.819 2.924,7.003 2.979 C 7.691 3.184,8.432 3.519,8.953 3.862 C 9.887 4.476,10.549 5.321,10.818 6.245 C 10.870 6.422,10.948 6.883,11.001 7.333 C 11.010 7.405,11.021 7.460,11.026 7.455 C 11.032 7.450,11.077 7.222,11.128 6.948 C 11.204 6.538,11.222 6.382,11.233 6.063 C 11.244 5.715,11.240 5.657,11.195 5.478 L 11.145 5.279 11.320 4.515 C 11.416 4.095,11.491 3.748,11.486 3.744 C 11.482 3.740,11.145 3.694,10.739 3.641 L 9.999 3.545 9.834 3.432 C 9.290 3.059,8.534 2.854,7.633 2.834 C 7.408 2.829,7.103 2.833,6.955 2.843 M6.161 6.081 C 7.867 7.785,9.272 9.195,9.283 9.214 C 9.327 9.284,9.310 9.309,9.243 9.274 C 9.208 9.255,7.786 7.853,6.082 6.156 C 4.378 4.460,2.981 3.071,2.976 3.071 C 2.971 3.071,2.990 3.334,3.017 3.655 L 3.067 4.239 6.709 7.881 L 10.352 11.523 10.412 11.827 C 10.446 11.994,10.489 12.150,10.509 12.173 C 10.529 12.196,11.184 12.528,11.966 12.910 C 13.152 13.491,13.402 13.605,13.483 13.605 C 13.585 13.605,13.651 13.550,13.651 13.464 C 13.651 13.442,13.329 12.767,12.935 11.963 C 12.410 10.891,12.206 10.495,12.167 10.475 C 12.139 10.460,11.982 10.421,11.819 10.388 L 11.523 10.328 8.122 6.933 C 6.251 5.065,4.613 3.433,4.482 3.305 L 4.243 3.072 3.720 3.026 C 3.433 3.001,3.166 2.981,3.129 2.981 C 3.067 2.981,3.378 3.298,6.161 6.081 M8.498 3.174 C 9.022 3.280,9.420 3.438,9.730 3.664 C 9.813 3.725,9.908 3.780,9.940 3.786 C 9.973 3.793,10.250 3.829,10.557 3.868 C 10.863 3.907,11.130 3.946,11.150 3.954 C 11.183 3.968,11.179 4.006,11.111 4.300 C 11.070 4.481,11.000 4.787,10.957 4.979 L 10.878 5.328 10.923 5.443 C 10.948 5.507,10.973 5.640,10.980 5.742 L 10.992 5.927 10.915 5.754 C 10.424 4.659,9.589 3.840,8.340 3.228 C 8.082 3.101,8.103 3.093,8.498 3.174 M4.015 3.299 L 4.129 3.299 7.758 6.926 C 9.754 8.920,11.407 10.558,11.432 10.564 C 11.458 10.571,11.596 10.599,11.740 10.627 C 11.884 10.654,12.010 10.685,12.021 10.695 C 12.050 10.720,13.288 13.248,13.277 13.259 C 13.272 13.264,12.691 12.985,11.985 12.639 L 10.702 12.010 10.641 11.699 L 10.580 11.387 6.942 7.747 L 3.304 4.107 3.290 3.914 L 3.277 3.721 3.601 4.039 C 3.779 4.214,5.076 5.505,6.484 6.909 C 8.649 9.069,9.061 9.469,9.156 9.510 C 9.347 9.591,9.487 9.574,9.544 9.464 C 9.592 9.371,9.586 9.289,9.520 9.146 C 9.470 9.037,9.085 8.643,6.591 6.146 C 3.868 3.420,3.725 3.272,3.811 3.285 C 3.861 3.292,3.953 3.299,4.015 3.299 M6.220 3.356 C 5.938 3.393,5.575 3.479,5.341 3.565 L 5.165 3.630 5.457 3.921 L 5.748 4.212 6.077 4.044 C 6.569 3.794,6.900 3.693,7.627 3.572 C 8.055 3.501,8.052 3.504,7.747 3.445 C 7.074 3.316,6.704 3.294,6.220 3.356 M6.291 3.657 C 6.216 3.690,6.070 3.760,5.968 3.812 L 5.782 3.907 5.698 3.821 L 5.614 3.735 5.702 3.711 C 5.787 3.688,6.071 3.629,6.188 3.610 C 6.220 3.605,6.286 3.600,6.336 3.599 L 6.427 3.598 6.291 3.657 M6.811 3.947 C 6.482 3.997,6.108 4.109,5.882 4.226 L 5.802 4.267 6.404 4.868 L 7.006 5.470 7.319 5.472 C 7.653 5.474,7.801 5.502,8.065 5.613 C 8.346 5.730,8.704 6.025,8.878 6.282 C 9.107 6.620,9.195 6.910,9.204 7.358 L 9.211 7.675 9.810 8.274 C 10.139 8.603,10.414 8.873,10.421 8.873 C 10.442 8.873,10.595 8.443,10.648 8.235 C 10.728 7.921,10.761 7.673,10.761 7.371 C 10.760 5.729,9.617 4.326,7.997 3.981 C 7.701 3.918,7.110 3.901,6.811 3.947 M7.776 4.197 C 8.345 4.282,8.872 4.516,9.328 4.886 C 10.170 5.568,10.618 6.671,10.487 7.736 C 10.463 7.938,10.396 8.246,10.352 8.360 L 10.327 8.427 9.899 7.999 L 9.471 7.572 9.458 7.295 C 9.431 6.712,9.228 6.245,8.829 5.846 C 8.426 5.443,7.961 5.243,7.368 5.216 L 7.080 5.204 6.655 4.778 L 6.230 4.353 6.294 4.328 C 6.676 4.181,7.302 4.126,7.776 4.197 M3.404 5.511 C 3.054 6.214,2.914 6.962,2.977 7.790 C 3.011 8.230,3.128 9.103,3.146 9.055 C 3.154 9.036,3.187 8.816,3.220 8.566 C 3.374 7.404,3.574 6.768,4.025 6.007 L 4.158 5.784 3.870 5.497 C 3.712 5.339,3.576 5.210,3.569 5.210 C 3.561 5.210,3.487 5.346,3.404 5.511 M3.746 5.714 L 3.842 5.808 3.740 5.993 C 3.589 6.263,3.466 6.530,3.356 6.825 C 3.303 6.969,3.253 7.102,3.245 7.121 C 3.217 7.187,3.257 6.789,3.300 6.562 C 3.325 6.436,3.375 6.243,3.412 6.133 C 3.484 5.920,3.616 5.620,3.637 5.620 C 3.644 5.620,3.693 5.662,3.746 5.714 M11.515 5.657 C 11.492 5.885,11.337 6.880,11.293 7.076 C 11.151 7.714,10.894 8.333,10.530 8.917 C 10.502 8.960,10.522 8.986,10.784 9.248 C 10.940 9.405,11.075 9.533,11.083 9.533 C 11.106 9.533,11.299 9.171,11.379 8.980 C 11.696 8.218,11.766 7.427,11.616 6.291 C 11.557 5.839,11.520 5.607,11.515 5.657 M4.212 5.826 C 4.200 5.856,4.158 5.958,4.119 6.052 C 4.028 6.268,3.949 6.549,3.901 6.825 C 3.857 7.079,3.851 7.623,3.890 7.861 C 4.013 8.613,4.338 9.266,4.846 9.781 C 5.375 10.318,6.024 10.656,6.780 10.787 C 7.031 10.831,7.653 10.825,7.915 10.776 C 8.246 10.714,8.896 10.479,8.896 10.421 C 8.896 10.412,8.630 10.141,8.304 9.820 C 7.749 9.271,7.709 9.237,7.650 9.253 C 7.616 9.263,7.454 9.270,7.292 9.269 C 7.068 9.267,6.953 9.255,6.821 9.219 C 6.195 9.049,5.665 8.534,5.480 7.917 C 5.437 7.772,5.429 7.689,5.426 7.353 L 5.423 6.959 4.828 6.364 C 4.261 5.797,4.233 5.772,4.212 5.826 M5.170 7.403 C 5.179 7.713,5.190 7.800,5.241 7.970 C 5.469 8.727,6.040 9.271,6.814 9.469 C 6.949 9.503,7.080 9.516,7.322 9.520 L 7.647 9.524 8.060 9.937 L 8.473 10.350 8.390 10.385 C 8.220 10.456,7.853 10.536,7.581 10.562 C 5.998 10.711,4.523 9.615,4.175 8.031 C 4.124 7.801,4.104 7.181,4.139 6.935 C 4.170 6.718,4.240 6.431,4.293 6.298 L 4.329 6.207 4.744 6.621 L 5.159 7.036 5.170 7.403 M3.543 7.743 C 3.398 8.528,3.377 9.019,3.476 9.313 L 3.520 9.444 3.342 10.221 C 3.245 10.649,3.167 11.001,3.170 11.004 C 3.173 11.007,3.507 11.052,3.914 11.104 L 4.653 11.200 4.818 11.312 C 5.361 11.681,6.255 11.922,7.085 11.922 C 7.447 11.922,7.986 11.896,7.986 11.878 C 7.986 11.871,7.824 11.815,7.627 11.755 C 7.093 11.591,6.881 11.508,6.404 11.274 C 5.579 10.869,5.001 10.416,4.518 9.798 C 4.240 9.441,4.038 9.079,3.904 8.694 C 3.807 8.415,3.770 8.238,3.698 7.705 C 3.668 7.481,3.640 7.295,3.636 7.291 C 3.631 7.287,3.590 7.490,3.543 7.743 M11.420 7.794 C 11.368 8.238,11.265 8.629,11.111 8.963 L 11.033 9.133 10.929 9.029 L 10.825 8.925 10.954 8.689 C 11.119 8.385,11.234 8.127,11.342 7.820 C 11.389 7.685,11.431 7.579,11.435 7.583 C 11.440 7.587,11.433 7.682,11.420 7.794 M4.011 9.506 C 4.200 9.815,4.391 10.055,4.686 10.360 C 5.117 10.803,5.566 11.130,6.193 11.453 C 6.389 11.555,6.505 11.626,6.474 11.626 C 6.396 11.626,5.974 11.540,5.790 11.486 C 5.451 11.387,5.082 11.208,4.877 11.043 L 4.783 10.968 4.132 10.883 C 3.685 10.824,3.481 10.789,3.481 10.770 C 3.481 10.755,3.549 10.448,3.631 10.087 L 3.782 9.432 3.734 9.283 C 3.707 9.201,3.680 9.058,3.672 8.964 L 3.659 8.793 3.770 9.044 C 3.831 9.181,3.940 9.389,4.011 9.506 M8.725 10.630 C 8.246 10.905,7.782 11.053,6.999 11.181 C 6.814 11.211,6.658 11.240,6.653 11.245 C 6.648 11.250,6.826 11.288,7.048 11.329 C 7.857 11.482,8.519 11.444,9.243 11.203 C 9.377 11.158,9.487 11.115,9.487 11.106 C 9.487 11.080,8.931 10.534,8.907 10.536 C 8.894 10.537,8.813 10.579,8.725 10.630 M8.963 10.930 L 9.038 11.009 8.916 11.043 C 8.780 11.082,8.469 11.138,8.293 11.157 L 8.179 11.169 8.270 11.131 C 8.320 11.110,8.469 11.039,8.600 10.974 C 8.731 10.909,8.850 10.855,8.863 10.854 C 8.876 10.853,8.921 10.887,8.963 10.930 " stroke="none" fill-rule="evenodd" fill="black"></path></svg>