<svg id="Layer_2" data-name="Layer 2" xmlns="http://www.w3.org/2000/svg" viewBox="0 0 14.72120501 11.98947578"><path d="M2.772 0.034 C 2.772 0.040,2.916 0.385,3.092 0.801 C 3.306 1.308,3.432 1.576,3.474 1.613 C 3.535 1.668,3.546 1.668,4.203 1.669 C 4.570 1.669,4.895 1.676,4.925 1.684 L 4.981 1.699 4.981 2.320 L 4.981 2.942 4.769 2.949 L 4.557 2.957 7.572 5.981 L 10.587 9.005 11.121 9.021 C 11.433 9.030,11.654 9.027,11.654 9.014 C 11.654 9.002,10.510 7.848,9.111 6.449 C 6.669 4.007,6.499 3.828,6.619 3.828 C 6.630 3.828,7.786 4.976,9.187 6.379 C 10.588 7.783,11.739 8.931,11.744 8.931 C 11.759 8.931,11.753 8.160,11.737 8.003 L 11.721 7.852 8.732 4.850 L 5.744 1.847 5.706 1.558 C 5.685 1.398,5.664 1.264,5.659 1.259 C 5.644 1.244,2.812 0.025,2.792 0.025 C 2.781 0.025,2.772 0.029,2.772 0.034 M0.339 0.458 L 0.004 0.794 0.842 1.650 L 1.681 2.507 1.696 3.051 C 1.704 3.350,1.713 3.895,1.714 4.263 L 1.717 4.932 2.192 4.932 L 2.667 4.932 2.683 4.582 C 2.692 4.390,2.699 3.909,2.699 3.515 L 2.699 2.797 3.766 2.797 L 4.833 2.797 4.833 2.323 L 4.833 1.848 4.093 1.832 C 3.686 1.823,3.140 1.816,2.880 1.816 L 2.406 1.816 1.550 0.969 C 1.079 0.504,0.689 0.123,0.684 0.123 C 0.679 0.123,0.524 0.274,0.339 0.458 M1.877 1.644 C 2.066 1.835,2.248 2.006,2.283 2.024 C 2.331 2.049,2.599 2.061,3.454 2.075 L 4.564 2.093 4.564 2.321 L 4.564 2.550 3.570 2.557 L 2.577 2.564 2.509 2.632 L 2.441 2.700 2.434 3.693 L 2.426 4.686 2.195 4.686 L 1.963 4.686 1.963 3.622 C 1.963 3.037,1.956 2.521,1.947 2.475 C 1.934 2.408,1.782 2.242,1.149 1.606 C 0.720 1.173,0.368 0.809,0.368 0.797 C 0.368 0.784,0.436 0.705,0.519 0.621 L 0.671 0.469 1.102 0.883 C 1.339 1.111,1.688 1.453,1.877 1.644 M4.348 0.959 C 4.919 1.205,5.398 1.415,5.413 1.427 C 5.428 1.438,5.453 1.564,5.470 1.705 L 5.501 1.963 8.493 4.967 L 11.485 7.971 11.478 8.147 L 11.470 8.324 9.107 5.950 L 6.743 3.576 6.622 3.588 C 6.425 3.607,6.282 3.783,6.330 3.948 C 6.346 4.004,6.996 4.673,8.699 6.386 L 11.047 8.747 10.869 8.754 L 10.692 8.761 7.926 5.982 C 6.404 4.453,5.174 3.198,5.192 3.194 C 5.220 3.187,5.226 3.045,5.226 2.401 C 5.226 1.574,5.218 1.509,5.110 1.457 C 5.086 1.445,4.742 1.430,4.345 1.423 L 3.624 1.411 3.432 0.957 C 3.326 0.707,3.239 0.499,3.239 0.494 C 3.239 0.482,3.210 0.470,4.348 0.959 M5.610 5.649 C 7.035 7.075,8.160 8.221,8.153 8.238 C 8.147 8.255,8.129 8.268,8.113 8.268 C 8.097 8.268,6.932 7.117,5.524 5.711 L 2.964 3.153 2.974 3.700 L 2.985 4.248 5.985 7.248 L 8.985 10.248 9.025 10.547 L 9.066 10.846 10.302 11.375 C 11.226 11.770,11.553 11.900,11.598 11.888 C 11.692 11.865,11.777 11.765,11.777 11.679 C 11.777 11.635,11.560 11.096,11.261 10.397 C 10.977 9.733,10.742 9.188,10.739 9.185 C 10.736 9.183,10.602 9.162,10.441 9.140 L 10.148 9.100 7.151 6.112 L 4.155 3.124 3.948 3.108 C 3.835 3.099,3.587 3.092,3.398 3.092 L 3.055 3.091 5.610 5.649 M7.021 6.347 L 10.007 9.332 10.285 9.371 L 10.562 9.409 11.031 10.501 C 11.288 11.102,11.496 11.596,11.493 11.601 C 11.486 11.611,9.341 10.698,9.315 10.673 C 9.304 10.663,9.280 10.537,9.261 10.393 L 9.226 10.131 6.232 7.148 L 3.239 4.165 3.239 3.978 L 3.239 3.791 4.962 5.508 C 8.174 8.708,7.978 8.520,8.093 8.520 C 8.264 8.520,8.384 8.406,8.409 8.218 L 8.423 8.117 6.046 5.739 L 3.668 3.361 3.852 3.361 L 4.036 3.361 7.021 6.347 M12.047 7.786 C 12.047 8.128,12.040 8.608,12.031 8.853 L 12.015 9.299 11.491 9.299 C 11.203 9.299,10.967 9.307,10.967 9.318 C 10.967 9.328,11.059 9.552,11.170 9.815 L 11.374 10.293 11.853 10.305 L 12.333 10.317 13.172 11.139 C 13.633 11.591,14.024 11.964,14.041 11.968 C 14.057 11.971,14.217 11.828,14.396 11.649 L 14.721 11.323 13.875 10.452 L 13.029 9.581 13.029 8.833 C 13.028 8.421,13.021 7.877,13.012 7.624 L 12.996 7.164 12.521 7.164 L 12.047 7.164 12.047 7.786 M12.766 8.527 C 12.777 9.287,12.791 9.661,12.810 9.698 C 12.826 9.728,13.055 9.974,13.319 10.244 C 13.584 10.513,13.928 10.864,14.083 11.023 L 14.365 11.311 14.201 11.474 L 14.038 11.638 13.233 10.849 L 12.427 10.060 12.255 10.059 C 12.161 10.059,11.960 10.052,11.809 10.043 L 11.534 10.028 11.438 9.804 C 11.385 9.682,11.346 9.573,11.352 9.563 C 11.358 9.553,11.572 9.544,11.827 9.544 L 12.292 9.544 12.292 8.477 L 12.292 7.410 12.521 7.410 L 12.750 7.410 12.766 8.527 " stroke="none" fill-rule="evenodd" fill="black"></path></svg>