<svg id="Layer_2" data-name="Layer 2" xmlns="http://www.w3.org/2000/svg" viewBox="0 0 14.41166186 14.41163597"><path d="M0.510 0.511 C 0.230 0.791,-0.000 1.037,-0.000 1.057 C -0.000 1.077,0.614 1.707,1.363 2.456 L 2.727 3.820 2.913 3.633 L 3.098 3.446 2.579 2.930 C 2.294 2.646,2.029 2.372,1.991 2.320 C 1.791 2.051,2.051 1.791,2.320 1.991 C 2.372 2.029,2.646 2.294,2.930 2.579 L 3.446 3.098 3.633 2.913 L 3.820 2.727 2.456 1.363 C 1.707 0.614,1.077 -0.000,1.057 -0.000 C 1.037 -0.000,0.791 0.230,0.510 0.511 M3.657 3.657 L 3.267 4.048 5.585 6.365 L 7.902 8.683 8.293 8.293 L 8.683 7.902 6.365 5.584 L 4.047 3.266 3.657 3.657 M12.003 6.047 L 11.818 6.234 12.922 7.338 L 14.027 8.442 14.220 8.251 L 14.412 8.059 13.313 6.960 C 12.709 6.355,12.208 5.861,12.201 5.861 C 12.194 5.861,12.105 5.945,12.003 6.047 M10.758 7.292 L 10.072 7.979 9.583 8.023 L 9.095 8.066 8.574 8.591 L 8.054 9.115 8.014 9.596 L 7.975 10.076 7.290 10.761 C 6.850 11.201,6.605 11.463,6.605 11.494 C 6.605 11.560,8.713 13.667,8.779 13.667 C 8.846 13.667,13.667 8.845,13.667 8.779 C 13.667 8.713,11.559 6.605,11.493 6.605 C 11.462 6.605,11.200 6.851,10.758 7.292 M11.547 11.548 L 9.079 14.016 9.211 14.147 L 9.344 14.279 11.812 11.811 L 14.279 9.344 14.147 9.212 L 14.015 9.080 11.547 11.548 M6.041 12.010 L 5.849 12.202 6.942 13.295 C 7.543 13.896,8.045 14.388,8.059 14.388 C 8.073 14.388,8.164 14.306,8.263 14.207 L 8.442 14.027 7.337 12.922 L 6.232 11.817 6.041 12.010 " stroke="none" fill-rule="evenodd" fill="black"></path></svg>