<svg id="Layer_2" data-name="Layer 2" xmlns="http://www.w3.org/2000/svg" viewBox="0 0 13.83050252 13.91532531"><path d="M0.035 0.031 C -0.002 0.059,-0.006 0.075,0.012 0.125 C 0.024 0.158,0.833 1.350,1.809 2.774 C 3.536 5.291,3.585 5.360,3.599 5.280 C 3.607 5.235,3.626 4.872,3.643 4.474 C 3.668 3.851,3.678 3.745,3.711 3.711 C 3.745 3.678,3.853 3.668,4.509 3.642 C 4.926 3.626,5.286 3.606,5.308 3.598 C 5.339 3.587,4.669 3.115,2.752 1.800 C 1.323 0.819,0.138 0.013,0.117 0.007 C 0.097 0.002,0.060 0.013,0.035 0.031 M6.289 4.034 L 6.255 4.195 6.425 4.360 L 6.595 4.525 6.853 4.510 C 7.496 4.473,7.929 4.440,7.929 4.427 C 7.929 4.420,7.822 4.306,7.690 4.175 L 7.451 3.937 6.935 3.905 C 6.652 3.888,6.398 3.874,6.372 3.873 C 6.331 3.873,6.319 3.896,6.289 4.034 M5.480 4.558 L 5.141 4.944 5.825 5.629 L 6.508 6.313 6.637 6.206 C 6.708 6.147,6.774 6.093,6.784 6.084 C 6.794 6.076,6.760 5.817,6.708 5.507 L 6.614 4.944 6.229 4.558 C 6.017 4.346,5.838 4.172,5.831 4.172 C 5.824 4.172,5.666 4.346,5.480 4.558 M7.749 4.979 C 7.441 5.002,7.184 5.025,7.178 5.031 C 7.164 5.045,7.300 5.855,7.319 5.875 C 7.327 5.883,7.591 5.895,7.906 5.901 L 8.478 5.913 7.829 6.978 L 7.180 8.042 7.166 7.945 C 7.158 7.891,7.143 7.607,7.134 7.314 C 7.125 7.022,7.110 6.770,7.101 6.756 C 7.091 6.740,6.650 7.052,5.911 7.598 C 5.265 8.075,4.732 8.470,4.726 8.475 C 4.721 8.480,4.959 8.728,5.256 9.025 L 5.797 9.566 6.212 9.567 L 6.627 9.568 6.731 9.696 C 6.892 9.893,7.319 10.300,7.560 10.486 C 7.940 10.778,8.399 11.025,8.870 11.189 C 8.999 11.234,9.105 11.266,9.105 11.261 C 9.105 11.255,8.905 10.957,8.660 10.599 C 8.415 10.240,8.161 9.866,8.094 9.768 L 7.974 9.589 8.107 9.589 L 8.241 9.590 11.007 11.735 C 12.528 12.915,13.783 13.886,13.796 13.894 C 13.809 13.902,13.808 13.894,13.794 13.875 C 13.780 13.857,12.830 12.585,11.682 11.050 L 9.597 8.257 9.581 7.387 C 9.573 6.908,9.566 6.366,9.566 6.184 C 9.566 5.987,9.556 5.831,9.541 5.802 C 9.527 5.774,9.332 5.567,9.109 5.342 L 8.702 4.933 8.506 4.936 C 8.398 4.937,8.058 4.957,7.749 4.979 M4.622 5.514 C 4.444 5.719,4.282 5.909,4.260 5.936 C 4.222 5.984,4.233 5.996,4.825 6.588 L 5.428 7.190 5.660 7.001 C 5.787 6.897,5.981 6.738,6.090 6.648 L 6.289 6.485 5.617 5.813 L 4.944 5.141 4.622 5.514 M3.693 6.558 C 3.513 6.768,3.365 6.947,3.365 6.956 C 3.365 6.966,3.603 7.211,3.893 7.501 L 4.421 8.028 4.814 7.708 C 5.030 7.532,5.207 7.383,5.208 7.376 C 5.209 7.370,4.942 7.097,4.616 6.771 L 4.022 6.177 3.693 6.558 M7.589 12.209 L 8.366 12.989 7.699 13.230 C 7.332 13.362,7.035 13.474,7.039 13.478 C 7.048 13.487,11.232 13.809,11.253 13.802 C 11.267 13.797,7.558 11.811,7.008 11.529 L 6.812 11.428 7.589 12.209 " stroke="none" fill-rule="evenodd" fill="black"></path></svg>