<svg id="Layer_2" data-name="Layer 2" xmlns="http://www.w3.org/2000/svg" viewBox="0 0 14.27363792 14.25"><path d="M0.279 0.280 C 0.126 0.434,0.000 0.576,0.000 0.595 C 0.000 0.615,0.401 1.032,0.892 1.522 L 1.784 2.414 1.790 3.687 L 1.796 4.960 2.223 4.967 C 2.548 4.972,2.654 4.966,2.668 4.943 C 2.679 4.926,2.688 4.412,2.688 3.801 L 2.688 2.690 3.819 2.683 C 4.794 2.677,4.953 2.671,4.972 2.641 C 5.007 2.586,5.002 1.848,4.967 1.813 C 4.946 1.791,4.629 1.784,3.689 1.784 L 2.439 1.784 1.546 0.892 C 0.971 0.318,0.636 0.000,0.606 0.000 C 0.577 0.000,0.448 0.110,0.279 0.280 M6.512 6.284 C 8.716 8.483,9.539 9.319,9.539 9.357 C 9.538 9.435,9.434 9.540,9.357 9.540 C 9.347 9.540,8.540 8.745,7.565 7.773 C 6.590 6.802,5.223 5.440,4.527 4.747 L 3.261 3.487 3.275 3.986 L 3.288 4.484 6.923 8.124 L 10.557 11.764 10.596 12.078 C 10.617 12.250,10.640 12.407,10.647 12.425 C 10.666 12.475,13.579 13.736,13.679 13.737 C 13.750 13.738,13.763 13.730,13.769 13.679 C 13.775 13.625,12.564 10.797,12.479 10.669 C 12.452 10.628,12.397 10.614,12.106 10.579 L 11.764 10.538 8.136 6.913 L 4.508 3.288 3.997 3.275 L 3.485 3.263 6.512 6.284 M14.168 4.978 C 14.161 5.007,14.042 5.968,13.904 7.113 C 13.765 8.258,13.647 9.210,13.640 9.229 C 13.633 9.252,13.365 8.999,12.872 8.507 C 12.246 7.881,12.107 7.753,12.067 7.766 C 12.040 7.774,12.013 7.795,12.006 7.812 C 11.989 7.855,14.096 12.922,14.145 12.958 C 14.173 12.978,14.198 12.980,14.229 12.963 C 14.272 12.940,14.274 12.816,14.274 8.932 C 14.274 4.953,14.273 4.924,14.227 4.924 C 14.197 4.924,14.175 4.944,14.168 4.978 M7.777 12.042 C 7.750 12.091,7.800 12.145,8.516 12.853 C 8.937 13.270,9.279 13.614,9.274 13.617 C 9.270 13.621,8.319 13.739,7.161 13.880 C 6.003 14.021,5.026 14.141,4.990 14.148 C 4.946 14.157,4.924 14.175,4.924 14.205 C 4.924 14.249,5.025 14.250,8.951 14.244 L 12.977 14.238 12.977 14.167 L 12.977 14.095 10.444 13.044 C 9.050 12.466,7.886 11.993,7.857 11.992 C 7.826 11.991,7.793 12.011,7.777 12.042 " stroke="none" fill-rule="evenodd" fill="black"></path></svg>