<svg id="Layer_2" data-name="Layer 2" xmlns="http://www.w3.org/2000/svg" viewBox="0 0 14.18398192 12.84083071"><path d="M1.895 0.043 C 1.899 0.053,2.103 0.449,2.348 0.923 L 2.794 1.785 5.150 4.145 C 6.652 5.650,7.578 6.559,7.707 6.657 C 8.089 6.947,8.605 7.166,9.098 7.247 C 9.462 7.307,10.019 7.285,10.352 7.199 C 10.951 7.043,11.421 6.777,11.841 6.357 C 12.323 5.875,12.621 5.292,12.733 4.615 C 12.792 4.254,12.767 3.710,12.676 3.357 C 12.281 1.829,10.885 0.836,9.325 0.971 C 8.117 1.076,7.059 1.873,6.640 2.994 L 6.590 3.126 7.131 3.667 L 7.671 4.209 7.688 4.026 C 7.737 3.505,7.909 3.113,8.235 2.782 C 9.163 1.841,10.725 2.090,11.319 3.275 C 11.464 3.565,11.501 3.735,11.501 4.113 C 11.501 4.400,11.492 4.487,11.446 4.645 C 11.343 5.003,11.111 5.359,10.828 5.594 C 10.168 6.142,9.189 6.183,8.504 5.691 C 8.442 5.647,7.325 4.553,6.022 3.260 L 3.652 0.908 2.785 0.466 C 2.307 0.223,1.910 0.024,1.902 0.024 C 1.894 0.024,1.891 0.032,1.895 0.043 M2.994 2.902 C 2.986 2.951,2.979 3.161,2.979 3.369 C 2.978 3.577,2.969 3.761,2.958 3.778 C 2.943 3.803,2.625 3.822,1.515 3.864 C 0.733 3.894,0.089 3.922,0.084 3.927 C 0.073 3.938,4.547 4.915,4.559 4.904 C 4.567 4.897,3.028 2.813,3.015 2.813 C 3.011 2.813,3.002 2.853,2.994 2.902 M4.196 5.570 C 3.783 5.633,3.487 5.725,3.143 5.901 C 2.228 6.366,1.612 7.216,1.451 8.233 C 1.392 8.605,1.415 9.125,1.508 9.480 C 1.822 10.689,2.730 11.555,3.966 11.825 C 4.294 11.896,4.855 11.896,5.193 11.824 C 5.468 11.765,5.785 11.658,5.993 11.554 C 6.690 11.205,7.277 10.558,7.544 9.843 L 7.594 9.710 7.053 9.169 L 6.513 8.628 6.496 8.810 C 6.472 9.069,6.436 9.230,6.358 9.426 C 6.136 9.985,5.667 10.403,5.076 10.570 C 4.787 10.651,4.349 10.646,4.059 10.559 C 3.402 10.360,2.947 9.906,2.739 9.242 C 2.691 9.091,2.683 9.017,2.683 8.723 C 2.684 8.325,2.715 8.178,2.862 7.878 C 3.096 7.399,3.511 7.045,4.031 6.879 C 4.284 6.798,4.741 6.787,5.023 6.854 C 5.253 6.909,5.504 7.020,5.678 7.144 C 5.739 7.188,6.856 8.283,8.160 9.577 L 10.532 11.930 11.402 12.374 C 11.881 12.618,12.277 12.813,12.282 12.808 C 12.287 12.803,12.089 12.405,11.841 11.925 L 11.390 11.052 9.034 8.692 C 7.543 7.198,6.606 6.277,6.481 6.183 C 6.136 5.922,5.685 5.716,5.234 5.614 C 5.074 5.578,4.349 5.547,4.196 5.570 M9.621 7.936 C 9.621 7.942,9.970 8.416,10.396 8.990 C 11.288 10.193,11.198 10.137,11.203 9.491 C 11.205 9.270,11.214 9.076,11.225 9.060 C 11.238 9.039,11.610 9.018,12.666 8.978 C 13.449 8.950,14.089 8.920,14.089 8.912 C 14.089 8.901,12.610 8.574,9.864 7.978 C 9.731 7.949,9.621 7.930,9.621 7.936 " stroke="none" fill-rule="evenodd" fill="black"></path></svg>