<svg id="Layer_2" data-name="Layer 2" xmlns="http://www.w3.org/2000/svg" viewBox="0 0 13.53740383 13.53926422"><path d="M0.272 0.280 L -0.007 0.561 0.899 1.481 L 1.805 2.402 1.805 3.670 C 1.805 4.367,1.811 4.954,1.819 4.973 C 1.830 5.004,1.889 5.009,2.236 5.009 L 2.640 5.009 2.640 3.850 C 2.640 2.908,2.645 2.686,2.670 2.665 C 2.691 2.648,3.046 2.638,3.849 2.634 L 4.998 2.629 5.004 2.228 L 5.010 1.828 3.721 1.828 L 2.433 1.828 1.763 1.175 C 1.395 0.816,0.978 0.405,0.835 0.261 C 0.693 0.118,0.571 0.000,0.564 0.000 C 0.557 0.000,0.426 0.126,0.272 0.280 M6.503 6.231 C 9.549 9.268,9.611 9.332,9.644 9.450 C 9.702 9.655,9.622 9.709,9.413 9.608 C 9.339 9.573,8.491 8.740,6.221 6.478 L 3.129 3.396 3.143 3.508 C 3.151 3.570,3.169 3.761,3.184 3.933 L 3.211 4.244 6.865 7.885 L 10.518 11.527 10.590 11.849 L 10.661 12.172 12.026 12.853 C 12.776 13.227,13.412 13.534,13.437 13.535 C 13.491 13.538,13.537 13.498,13.538 13.448 C 13.538 13.429,13.233 12.793,12.858 12.034 L 12.178 10.655 11.859 10.591 L 11.541 10.527 7.886 6.865 L 4.230 3.204 3.937 3.181 C 3.776 3.168,3.588 3.152,3.520 3.145 L 3.396 3.132 6.503 6.231 M10.674 3.795 C 10.873 3.935,11.214 4.259,11.393 4.479 C 11.943 5.154,12.299 6.055,12.408 7.044 C 12.421 7.165,12.432 7.639,12.432 8.098 L 12.432 8.934 12.365 8.968 C 12.232 9.037,12.135 9.000,11.967 8.816 C 11.816 8.650,11.607 8.271,11.326 7.653 C 11.196 7.366,11.086 7.140,11.083 7.151 C 11.079 7.161,11.112 7.335,11.157 7.539 C 11.366 8.499,11.584 9.112,11.862 9.524 C 11.985 9.706,12.219 9.939,12.358 10.017 C 12.435 10.060,12.489 10.143,12.839 10.764 C 13.055 11.147,13.241 11.461,13.251 11.462 C 13.261 11.462,13.266 10.596,13.261 9.538 C 13.253 7.889,13.246 7.581,13.214 7.378 C 13.046 6.317,12.592 5.420,11.834 4.657 C 11.470 4.290,11.118 4.017,10.676 3.760 C 10.479 3.645,10.478 3.657,10.674 3.795 M3.733 10.638 C 3.768 10.700,3.860 10.847,3.938 10.965 C 4.819 12.301,6.176 13.124,7.693 13.243 C 8.038 13.270,11.462 13.276,11.461 13.250 C 11.461 13.240,11.147 13.056,10.764 12.841 C 10.138 12.489,10.063 12.440,10.018 12.360 C 9.827 12.019,9.335 11.690,8.682 11.465 C 8.325 11.342,7.167 11.056,7.139 11.083 C 7.136 11.087,7.267 11.150,7.430 11.223 C 8.240 11.587,8.629 11.798,8.829 11.981 C 8.993 12.131,9.029 12.231,8.964 12.357 L 8.919 12.443 8.075 12.441 C 7.411 12.440,7.171 12.432,6.949 12.401 C 6.045 12.277,5.257 11.978,4.643 11.525 C 4.399 11.345,4.049 11.003,3.863 10.762 C 3.673 10.517,3.656 10.501,3.733 10.638 " stroke="none" fill-rule="evenodd" fill="black"></path></svg>