<svg id="Layer_2" data-name="Layer 2" xmlns="http://www.w3.org/2000/svg" viewBox="0 0 14.63504203 13.11081326"><path d="M0.323 0.325 L 0.003 0.646 0.454 1.146 C 1.059 1.817,0.987 1.752,1.055 1.689 L 1.111 1.636 5.435 5.959 L 9.759 10.283 9.491 10.764 C 9.344 11.028,9.230 11.245,9.238 11.245 C 9.260 11.245,11.049 10.136,11.048 10.123 C 11.048 10.116,10.798 9.946,10.493 9.744 L 9.938 9.379 5.799 5.231 C 1.682 1.105,1.660 1.083,1.708 1.035 C 1.756 0.987,1.754 0.985,1.301 0.585 C 1.051 0.364,0.800 0.142,0.744 0.093 L 0.643 0.003 0.323 0.325 M1.234 3.903 C 1.227 3.923,1.165 4.126,1.097 4.354 C 0.876 5.092,0.608 5.749,0.409 6.041 L 0.324 6.166 0.790 6.632 L 1.257 7.098 1.714 6.640 C 1.965 6.389,2.171 6.175,2.171 6.166 C 2.171 6.157,2.137 6.099,2.096 6.038 C 1.905 5.755,1.649 5.123,1.412 4.350 C 1.343 4.124,1.278 3.923,1.267 3.903 C 1.249 3.870,1.246 3.870,1.234 3.903 M11.636 5.783 C 11.637 5.872,12.902 10.863,12.927 10.878 C 12.957 10.897,13.324 10.916,14.144 10.943 L 14.641 10.960 14.604 10.901 C 14.583 10.869,13.911 9.701,13.110 8.305 C 12.309 6.910,11.649 5.764,11.644 5.758 C 11.639 5.753,11.635 5.764,11.636 5.783 M12.318 10.362 C 12.208 10.569,12.013 10.745,11.838 10.796 C 11.624 10.858,11.429 10.800,11.339 10.646 L 11.289 10.563 11.111 10.719 C 10.781 11.006,10.477 11.214,9.779 11.629 C 9.180 11.984,8.908 12.100,8.391 12.217 C 7.478 12.424,6.565 12.433,5.567 12.243 C 5.047 12.144,4.223 11.908,3.671 11.699 C 3.451 11.616,3.505 11.661,3.927 11.912 C 4.988 12.543,6.047 12.914,7.212 13.062 C 7.699 13.124,9.153 13.104,9.684 13.028 C 10.424 12.923,11.413 12.703,12.374 12.431 C 12.771 12.318,12.830 12.291,12.830 12.224 C 12.830 12.192,12.430 10.310,12.407 10.233 C 12.403 10.220,12.363 10.278,12.318 10.362 " stroke="none" fill-rule="evenodd" fill="black"></path></svg>