<svg id="Layer_2" data-name="Layer 2" xmlns="http://www.w3.org/2000/svg" viewBox="0 0 14.32475357 14.32475357"><path d="M6.117 1.678 C 6.140 2.587,6.153 3.353,6.147 3.382 C 6.141 3.410,6.120 3.439,6.101 3.446 C 6.081 3.454,5.698 3.347,5.249 3.210 C 4.800 3.073,4.429 2.964,4.424 2.969 C 4.419 2.974,4.755 3.245,5.170 3.571 C 5.586 3.898,5.916 4.167,5.905 4.171 C 5.894 4.175,5.074 4.360,4.083 4.584 C 3.091 4.807,2.269 4.994,2.256 5.000 C 2.243 5.005,2.307 5.011,2.399 5.013 C 2.491 5.014,3.426 5.041,4.476 5.072 C 5.527 5.103,6.402 5.120,6.421 5.109 C 6.456 5.090,7.182 3.082,7.185 2.996 C 7.187 2.953,6.122 0.082,6.090 0.043 C 6.082 0.034,6.095 0.770,6.117 1.678 M7.848 2.166 C 7.667 2.702,7.520 3.147,7.520 3.156 C 7.521 3.177,7.998 3.565,8.009 3.554 C 8.021 3.541,8.194 1.244,8.185 1.217 C 8.180 1.204,8.029 1.631,7.848 2.166 M8.380 4.562 C 8.169 4.603,7.952 4.735,7.736 4.953 L 7.533 5.157 8.350 5.975 L 9.167 6.792 9.370 6.591 C 9.486 6.475,9.602 6.332,9.644 6.255 C 10.113 5.374,9.364 4.371,8.380 4.562 M6.828 5.531 C 6.658 5.688,6.603 5.780,6.625 5.870 C 6.642 5.941,8.301 7.620,8.412 7.679 C 8.511 7.731,8.581 7.704,8.744 7.549 C 8.895 7.407,8.963 7.290,8.938 7.217 C 8.930 7.194,8.524 6.774,8.037 6.285 C 7.002 5.246,7.082 5.296,6.828 5.531 M11.866 6.226 C 11.268 6.272,10.776 6.313,10.771 6.317 C 10.757 6.328,11.150 6.804,11.173 6.804 C 11.190 6.804,12.999 6.196,13.107 6.154 C 13.170 6.129,12.976 6.140,11.866 6.226 M5.378 7.287 C 4.823 7.842,4.369 8.304,4.369 8.314 C 4.369 8.324,4.732 8.334,5.175 8.338 L 5.981 8.344 5.987 9.150 C 5.990 9.593,6.001 9.956,6.011 9.956 C 6.021 9.956,6.483 9.501,7.037 8.946 C 7.691 8.292,8.046 7.920,8.046 7.889 C 8.046 7.825,6.498 6.279,6.434 6.279 C 6.405 6.279,6.013 6.653,5.378 7.287 M10.314 7.486 C 9.202 7.882,9.223 7.874,9.208 7.911 C 9.202 7.927,9.223 8.799,9.253 9.849 C 9.284 10.899,9.310 11.833,9.310 11.923 C 9.311 12.014,9.316 12.084,9.321 12.078 C 9.327 12.073,9.515 11.252,9.740 10.254 C 9.964 9.256,10.151 8.431,10.154 8.419 C 10.157 8.408,10.427 8.739,10.753 9.154 C 11.080 9.570,11.351 9.906,11.356 9.901 C 11.361 9.896,11.257 9.540,11.126 9.110 C 10.994 8.680,10.887 8.298,10.887 8.261 C 10.887 8.224,10.903 8.188,10.923 8.180 C 10.942 8.173,11.563 8.182,12.301 8.201 C 13.040 8.220,13.789 8.236,13.967 8.235 L 14.289 8.235 12.835 7.687 C 12.035 7.385,11.358 7.139,11.331 7.140 C 11.303 7.140,10.846 7.296,10.314 7.486 M3.699 8.330 C 3.650 8.379,3.629 8.424,3.629 8.479 C 3.629 8.552,3.719 8.648,4.698 9.627 C 5.677 10.606,5.773 10.696,5.845 10.696 C 5.901 10.696,5.945 10.675,5.994 10.626 C 6.123 10.498,6.088 10.417,5.767 10.099 L 5.539 9.873 5.539 9.365 L 5.539 8.857 5.031 8.857 L 4.523 8.857 4.261 8.593 C 3.905 8.234,3.830 8.199,3.699 8.330 M3.522 10.771 C 2.409 11.791,0.962 12.778,0.204 13.033 L 0.004 13.100 0.617 13.712 L 1.230 14.324 1.273 14.175 C 1.483 13.460,2.503 11.955,3.578 10.773 C 3.712 10.626,3.819 10.506,3.815 10.507 C 3.811 10.507,3.679 10.626,3.522 10.771 " stroke="none" fill-rule="evenodd" fill="black"></path></svg>