<svg id="Layer_2" data-name="Layer 2" xmlns="http://www.w3.org/2000/svg" viewBox="0 0 14.21690328 12.78859573"><path d="M5.810 0.028 C 5.788 0.050,5.782 0.436,5.782 1.621 L 5.782 3.186 6.428 2.541 C 6.784 2.186,7.090 1.896,7.108 1.896 C 7.127 1.896,7.433 2.186,7.789 2.541 L 8.435 3.186 8.435 1.621 C 8.435 0.436,8.428 0.050,8.407 0.028 C 8.366 -0.013,5.851 -0.013,5.810 0.028 M0.419 2.480 L -0.003 2.778 0.042 2.828 C 0.067 2.856,1.210 4.286,2.582 6.007 C 3.955 7.727,5.093 9.150,5.112 9.170 C 5.143 9.201,5.144 9.200,5.122 9.158 C 5.037 8.996,0.878 2.192,0.861 2.188 C 0.850 2.185,0.651 2.316,0.419 2.480 M13.239 2.352 C 13.182 2.446,12.225 4.016,11.114 5.841 C 8.929 9.428,9.057 9.216,9.093 9.182 C 9.115 9.160,12.171 5.339,13.616 3.525 L 14.215 2.774 13.791 2.477 C 13.559 2.314,13.363 2.180,13.356 2.180 C 13.349 2.180,13.297 2.257,13.239 2.352 M5.782 7.060 L 5.782 9.890 5.379 10.294 L 4.977 10.699 6.013 11.735 C 6.824 12.547,7.062 12.772,7.108 12.772 C 7.155 12.772,7.392 12.547,8.204 11.735 L 9.240 10.699 8.838 10.294 L 8.435 9.890 8.435 7.060 L 8.435 4.230 7.790 4.875 C 7.434 5.230,7.128 5.521,7.108 5.521 C 7.089 5.521,6.783 5.230,6.427 4.875 L 5.782 4.230 5.782 7.060 M0.416 7.037 C 0.427 7.057,1.026 8.015,1.748 9.165 C 2.736 10.742,3.058 11.273,3.052 11.318 C 3.045 11.372,2.984 11.404,2.374 11.663 C 2.005 11.819,1.708 11.952,1.712 11.957 C 1.717 11.961,2.540 12.014,3.541 12.073 C 4.926 12.155,5.368 12.174,5.393 12.153 C 5.411 12.138,5.426 12.103,5.426 12.076 C 5.426 12.040,4.675 11.275,2.911 9.513 C 1.528 8.132,0.406 7.018,0.416 7.037 M11.296 9.519 C 9.543 11.273,8.791 12.040,8.791 12.076 C 8.791 12.103,8.806 12.138,8.824 12.153 C 8.849 12.174,9.291 12.155,10.676 12.073 C 11.677 12.014,12.500 11.961,12.504 11.957 C 12.509 11.952,12.212 11.819,11.843 11.663 C 11.232 11.403,11.171 11.372,11.165 11.318 C 11.159 11.272,11.477 10.748,12.454 9.189 C 13.167 8.051,13.766 7.096,13.785 7.067 C 13.804 7.038,13.816 7.014,13.811 7.014 C 13.806 7.014,12.675 8.141,11.296 9.519 " stroke="none" fill-rule="evenodd" fill="black"></path></svg>