<svg id="Layer_2" data-name="Layer 2" xmlns="http://www.w3.org/2000/svg" viewBox="0 0 13.28044441 14.1841299"><path d="M11.094 1.496 L 8.941 2.970 8.624 3.357 L 8.306 3.744 7.423 4.153 L 6.541 4.563 5.987 5.115 L 5.434 5.666 6.480 5.666 C 7.496 5.666,7.527 5.668,7.570 5.711 C 7.613 5.754,7.614 5.784,7.614 6.812 L 7.614 7.869 8.164 7.315 L 8.713 6.762 9.128 5.866 L 9.543 4.969 9.901 4.677 C 10.098 4.517,10.281 4.363,10.307 4.334 C 10.344 4.294,13.176 0.163,13.244 0.050 C 13.253 0.035,13.258 0.022,13.254 0.022 C 13.250 0.022,12.278 0.686,11.094 1.496 M4.133 0.814 L 3.719 1.229 4.161 1.671 C 4.405 1.914,4.604 2.121,4.604 2.130 C 4.604 2.139,3.774 2.147,2.760 2.147 C 1.356 2.147,0.910 2.153,0.890 2.174 C 0.869 2.194,0.863 3.050,0.863 5.892 C 0.863 7.923,0.871 9.584,0.880 9.584 C 0.889 9.584,1.118 9.363,1.389 9.092 L 1.881 8.599 1.881 5.907 C 1.881 3.739,1.887 3.210,1.910 3.191 C 1.929 3.175,2.749 3.163,4.538 3.152 C 6.196 3.143,7.148 3.129,7.166 3.115 C 7.181 3.103,7.194 3.072,7.194 3.046 C 7.194 3.013,6.799 2.604,5.893 1.699 C 5.178 0.984,4.583 0.398,4.570 0.398 C 4.558 0.398,4.361 0.585,4.133 0.814 M10.641 5.462 L 10.137 5.967 10.137 8.671 C 10.137 11.322,10.137 11.376,10.095 11.398 C 10.066 11.414,9.209 11.421,7.475 11.421 C 5.007 11.421,4.897 11.423,4.862 11.462 C 4.842 11.484,4.825 11.516,4.825 11.533 C 4.825 11.568,7.413 14.166,7.448 14.166 C 7.460 14.166,7.657 13.979,7.885 13.751 L 8.300 13.336 7.852 12.888 L 7.404 12.439 9.242 12.439 C 10.678 12.439,11.089 12.433,11.118 12.412 C 11.153 12.386,11.156 12.142,11.150 8.670 L 11.145 4.957 10.641 5.462 M4.974 6.694 C 4.939 6.728,4.936 6.802,4.936 7.512 C 4.936 8.089,4.943 8.298,4.962 8.318 C 4.982 8.338,5.194 8.345,5.781 8.345 C 6.541 8.345,6.573 8.343,6.595 8.302 C 6.632 8.233,6.626 6.741,6.589 6.710 C 6.569 6.694,6.294 6.680,5.786 6.670 C 5.071 6.657,5.010 6.658,4.974 6.694 M1.964 9.136 C 0.884 10.216,-0.000 11.115,0.000 11.134 C 0.000 11.186,2.106 13.280,2.158 13.280 C 2.187 13.280,2.871 12.612,4.161 11.322 L 6.119 9.364 5.053 9.358 C 4.467 9.354,3.979 9.343,3.969 9.333 C 3.959 9.323,3.946 8.833,3.940 8.243 L 3.929 7.171 1.964 9.136 " stroke="none" fill-rule="evenodd" fill="black"></path></svg>