<svg id="Layer_2" data-name="Layer 2" xmlns="http://www.w3.org/2000/svg" viewBox="0 0 13.35352559 13.88000488"><path d="M1.585 0.027 C 1.544 0.068,1.547 1.499,1.588 1.533 C 1.609 1.550,1.942 1.559,2.684 1.563 L 3.750 1.569 3.617 1.644 C 2.988 1.999,2.304 2.584,1.853 3.154 C 1.072 4.139,0.595 5.381,0.541 6.570 C 0.531 6.802,0.534 6.884,0.556 6.910 C 0.581 6.940,0.730 6.944,1.758 6.944 L 2.931 6.944 2.944 6.682 C 3.019 5.161,4.151 3.779,5.654 3.375 C 5.909 3.306,6.285 3.249,6.485 3.249 L 6.632 3.249 6.632 1.662 C 6.632 0.151,6.630 0.072,6.592 0.037 C 6.554 0.003,6.348 0.000,4.081 0.000 C 2.190 0.000,1.605 0.006,1.585 0.027 M10.869 2.274 C 10.026 3.341,9.328 4.227,9.318 4.244 C 9.308 4.261,9.744 3.943,10.286 3.538 C 10.829 3.134,11.740 2.455,12.311 2.030 L 13.350 1.257 12.890 0.796 C 12.637 0.542,12.424 0.334,12.416 0.334 C 12.408 0.334,11.712 1.207,10.869 2.274 M6.256 4.096 C 5.636 4.174,5.063 4.458,4.605 4.917 C 4.256 5.265,4.058 5.583,3.906 6.039 C 3.803 6.346,3.761 6.607,3.761 6.944 C 3.761 7.533,3.928 8.080,4.258 8.568 C 4.384 8.755,4.686 9.077,4.862 9.213 C 5.605 9.786,6.603 9.964,7.491 9.680 C 8.511 9.353,9.242 8.527,9.451 7.463 C 9.503 7.197,9.503 6.690,9.451 6.424 C 9.248 5.388,8.550 4.579,7.563 4.232 C 7.457 4.195,7.286 4.148,7.185 4.128 C 6.959 4.085,6.480 4.068,6.256 4.096 M6.952 5.688 C 7.639 5.866,8.056 6.575,7.879 7.266 C 7.718 7.896,7.131 8.302,6.482 8.232 C 6.173 8.199,5.910 8.067,5.690 7.834 C 5.443 7.573,5.339 7.307,5.339 6.944 C 5.339 6.562,5.446 6.305,5.719 6.029 C 5.898 5.849,6.087 5.738,6.304 5.685 C 6.470 5.645,6.790 5.646,6.952 5.688 M10.309 7.232 C 10.276 7.596,10.235 7.801,10.127 8.126 C 9.869 8.903,9.329 9.598,8.624 10.059 C 8.128 10.383,7.474 10.600,6.894 10.631 L 6.632 10.645 6.638 12.250 L 6.643 13.854 9.147 13.860 C 11.481 13.865,11.653 13.863,11.679 13.828 C 11.700 13.800,11.707 13.619,11.707 13.109 C 11.707 12.529,11.701 12.421,11.672 12.379 L 11.637 12.330 10.565 12.330 L 9.493 12.330 9.745 12.180 C 10.124 11.954,10.525 11.643,10.869 11.307 C 11.406 10.784,11.776 10.276,12.097 9.626 C 12.461 8.888,12.662 8.128,12.721 7.260 C 12.744 6.910,12.877 6.944,11.496 6.944 L 10.334 6.944 10.309 7.232 M1.962 11.189 L -0.001 12.741 0.466 13.207 C 0.723 13.464,0.937 13.670,0.942 13.664 C 0.948 13.659,1.615 12.763,2.427 11.673 C 3.238 10.584,3.911 9.680,3.923 9.665 C 3.935 9.649,3.940 9.637,3.935 9.637 C 3.929 9.637,3.042 10.335,1.962 11.189 " stroke="none" fill-rule="evenodd" fill="black"></path></svg>