<svg id="Layer_2" data-name="Layer 2" xmlns="http://www.w3.org/2000/svg" viewBox="0 0 13.10998535 13.10998535"><path d="M9.024 0.016 C 9.066 0.021,9.911 0.097,10.901 0.186 C 12.261 0.308,12.709 0.355,12.733 0.378 C 12.756 0.401,12.806 0.852,12.931 2.166 L 13.099 3.922 13.105 1.988 C 13.110 0.190,13.108 0.053,13.073 0.027 C 13.044 0.006,12.597 0.001,10.992 0.003 C 9.867 0.005,8.982 0.011,9.024 0.016 M5.009 1.133 C 4.453 1.419,3.992 1.660,3.985 1.667 C 3.977 1.675,4.116 1.633,4.295 1.573 C 4.474 1.513,4.622 1.464,4.626 1.464 C 4.629 1.464,4.632 2.828,4.632 4.496 L 4.632 7.528 3.999 8.161 L 3.365 8.794 3.365 8.210 L 3.365 7.626 2.811 7.626 L 2.257 7.626 2.245 8.776 L 2.233 9.926 1.117 11.043 L 0.000 12.160 0.475 12.635 L 0.950 13.110 2.067 11.993 L 3.185 10.876 4.334 10.865 L 5.484 10.853 5.484 10.299 L 5.484 9.745 4.900 9.745 L 4.316 9.745 4.949 9.111 L 5.582 8.478 8.614 8.478 C 10.282 8.478,11.646 8.481,11.646 8.484 C 11.646 8.488,11.597 8.637,11.537 8.816 C 11.477 8.995,11.430 9.143,11.433 9.146 C 11.445 9.156,12.488 7.114,12.494 7.069 C 12.497 7.042,12.303 6.087,12.061 4.947 L 11.622 2.873 11.492 2.742 L 11.362 2.610 11.362 2.190 L 11.362 1.770 10.942 1.770 L 10.522 1.770 10.379 1.630 L 10.237 1.489 8.164 1.051 C 7.025 0.809,6.076 0.612,6.056 0.612 C 6.036 0.612,5.565 0.847,5.009 1.133 M7.579 1.386 C 8.436 1.584,9.141 1.749,9.145 1.752 C 9.149 1.756,9.158 2.034,9.166 2.371 L 9.181 2.983 8.579 3.583 L 7.976 4.183 8.057 4.266 L 8.138 4.349 6.680 5.807 L 5.222 7.265 5.222 7.364 C 5.222 7.418,5.229 7.558,5.236 7.675 L 5.251 7.888 5.548 7.888 L 5.845 7.888 7.303 6.430 L 8.761 4.972 8.844 5.053 L 8.927 5.134 9.527 4.531 L 10.127 3.929 10.739 3.944 C 11.076 3.952,11.354 3.961,11.358 3.965 C 11.361 3.969,11.530 4.687,11.732 5.562 L 12.099 7.151 11.936 7.640 L 11.773 8.128 8.481 8.128 L 5.190 8.128 4.201 9.117 L 3.212 10.105 3.108 10.002 L 3.005 9.898 3.993 8.909 L 4.982 7.920 4.982 4.628 L 4.982 1.336 5.468 1.173 C 5.735 1.083,5.969 1.013,5.987 1.017 C 6.005 1.022,6.721 1.188,7.579 1.386 M3.906 3.496 C 3.896 3.524,3.667 6.753,3.670 6.834 C 3.671 6.854,3.734 6.861,3.911 6.861 L 4.151 6.861 4.150 6.746 C 4.147 6.516,3.918 3.464,3.906 3.496 M6.249 9.199 L 6.249 9.439 6.331 9.438 C 6.536 9.436,9.621 9.204,9.592 9.194 C 9.566 9.184,6.326 8.954,6.265 8.958 C 6.256 8.958,6.249 9.067,6.249 9.199 " stroke="none" fill-rule="evenodd" fill="black"></path></svg>