<svg id="Layer_2" data-name="Layer 2" xmlns="http://www.w3.org/2000/svg" viewBox="0 0 14.03297471 14.11800938"><path d="M8.128 2.065 C 7.795 3.200,7.518 4.144,7.512 4.163 C 7.506 4.182,8.007 3.414,8.624 2.456 C 9.242 1.497,9.743 0.706,9.738 0.697 C 9.730 0.683,9.035 0.201,8.794 0.042 L 8.734 0.002 8.128 2.065 M5.816 1.152 C 5.807 1.721,5.795 2.750,5.788 3.438 L 5.776 4.689 6.221 2.467 C 6.466 1.245,6.663 0.230,6.660 0.210 C 6.655 0.183,6.584 0.170,6.326 0.148 C 6.146 0.133,5.961 0.120,5.915 0.119 L 5.831 0.117 5.816 1.152 M10.928 2.458 C 10.453 3.055,9.926 3.717,9.757 3.929 L 9.450 4.315 9.653 4.519 L 9.855 4.723 9.974 4.622 C 10.039 4.567,10.681 4.035,11.402 3.439 C 12.122 2.844,12.719 2.349,12.729 2.341 C 12.738 2.333,12.531 2.111,12.269 1.850 L 11.793 1.374 10.928 2.458 M3.466 1.593 C 3.282 1.615,3.123 1.638,3.113 1.642 C 3.102 1.646,3.500 2.404,3.996 3.326 C 4.491 4.249,4.900 5.001,4.904 4.997 C 4.915 4.986,3.835 1.582,3.816 1.565 C 3.808 1.557,3.650 1.570,3.466 1.593 M5.596 6.882 L 2.690 9.788 2.690 10.185 L 2.690 10.582 2.431 10.842 L 2.171 11.102 2.366 11.117 C 2.473 11.126,2.658 11.133,2.777 11.133 L 2.994 11.133 2.995 11.443 C 2.996 11.613,3.004 11.798,3.013 11.853 L 3.029 11.953 3.286 11.695 L 3.543 11.437 3.925 11.437 C 4.135 11.437,4.324 11.427,4.346 11.416 C 4.368 11.404,5.679 10.093,7.260 8.502 L 10.135 5.610 9.815 5.290 L 9.496 4.970 6.596 7.870 L 3.696 10.770 3.526 10.601 L 3.356 10.431 6.256 7.531 L 9.156 4.631 8.829 4.304 L 8.502 3.976 5.596 6.882 M11.596 5.398 C 10.648 6.011,9.875 6.515,9.878 6.518 C 9.884 6.523,14.015 5.311,14.025 5.301 C 14.033 5.294,13.343 4.282,13.331 4.283 C 13.325 4.284,12.544 4.786,11.596 5.398 M11.589 7.809 C 10.380 8.050,9.375 8.254,9.355 8.261 C 9.336 8.268,9.499 8.270,9.718 8.265 C 9.937 8.260,10.968 8.244,12.010 8.231 C 13.051 8.217,13.908 8.202,13.913 8.197 C 13.918 8.191,13.909 8.003,13.893 7.777 C 13.867 7.426,13.857 7.368,13.825 7.369 C 13.804 7.370,12.798 7.568,11.589 7.809 M9.033 9.133 C 9.060 9.163,12.382 10.944,12.392 10.934 C 12.411 10.915,12.485 10.232,12.470 10.219 C 12.461 10.211,11.699 9.966,10.776 9.674 C 9.852 9.382,9.079 9.136,9.057 9.128 C 9.034 9.120,9.024 9.122,9.033 9.133 M1.053 12.088 C 0.406 12.534,0.009 12.822,0.004 12.850 C -0.002 12.881,0.164 13.062,0.600 13.498 C 1.090 13.988,1.216 14.103,1.267 14.103 C 1.323 14.103,1.402 13.998,2.047 13.059 L 2.764 12.014 2.440 11.690 C 2.263 11.512,2.112 11.367,2.105 11.368 C 2.099 11.369,1.625 11.693,1.053 12.088 " stroke="none" fill-rule="evenodd" fill="black"></path></svg>