<svg id="Layer_2" data-name="Layer 2" xmlns="http://www.w3.org/2000/svg" viewBox="0 0 14.4 14.4"><path d="M7.073 2.166 C 7.010 3.265,6.954 4.199,6.949 4.243 L 6.939 4.322 7.195 4.315 L 7.452 4.308 7.447 4.236 C 7.445 4.196,7.391 3.265,7.328 2.166 C 7.265 1.067,7.207 0.168,7.200 0.168 C 7.193 0.168,7.136 1.067,7.073 2.166 M12.024 2.331 C 11.708 2.599,10.706 3.401,10.344 3.677 C 9.349 4.434,8.403 5.049,7.632 5.439 L 7.284 5.616 8.005 5.616 C 8.534 5.616,8.734 5.624,8.755 5.645 C 8.776 5.666,8.784 5.867,8.785 6.395 L 8.785 7.116 8.996 6.708 C 9.450 5.828,10.076 4.887,10.993 3.708 C 11.320 3.288,11.906 2.564,12.163 2.262 C 12.222 2.193,12.266 2.136,12.261 2.137 C 12.256 2.138,12.149 2.225,12.024 2.331 M5.532 6.429 L 6.060 6.960 5.430 6.960 L 4.800 6.960 4.800 7.196 L 4.800 7.433 4.984 7.448 C 5.085 7.457,5.300 7.464,5.461 7.464 L 5.756 7.464 5.773 7.695 L 5.790 7.926 4.749 8.967 L 3.708 10.008 4.050 10.350 L 4.392 10.692 5.433 9.651 L 6.474 8.610 6.705 8.627 L 6.936 8.644 6.936 8.975 C 6.936 9.156,6.943 9.371,6.951 9.452 L 6.967 9.600 7.200 9.600 L 7.433 9.600 7.448 9.380 C 7.457 9.259,7.464 8.981,7.464 8.763 L 7.464 8.364 7.983 8.880 L 8.501 9.396 8.487 8.958 C 8.479 8.717,8.465 8.323,8.457 8.082 L 8.443 7.644 7.599 6.801 L 6.756 5.957 6.192 5.942 C 5.882 5.934,5.488 5.921,5.316 5.913 L 5.004 5.899 5.532 6.429 M2.071 7.078 C 1.039 7.140,0.189 7.195,0.182 7.202 C 0.176 7.208,1.075 7.265,2.179 7.328 C 3.284 7.391,4.218 7.447,4.254 7.452 L 4.320 7.463 4.320 7.211 L 4.320 6.960 4.134 6.963 C 4.032 6.965,3.103 7.017,2.071 7.078 M10.080 7.211 L 10.080 7.463 10.146 7.452 C 10.182 7.447,11.118 7.390,12.226 7.327 C 13.334 7.264,14.209 7.205,14.170 7.196 C 14.108 7.181,10.314 6.958,10.146 6.959 L 10.080 6.960 10.080 7.211 M6.949 10.157 C 6.954 10.201,7.010 11.135,7.073 12.234 C 7.136 13.333,7.193 14.232,7.200 14.232 C 7.207 14.232,7.265 13.333,7.328 12.234 C 7.391 11.135,7.445 10.204,7.447 10.164 L 7.452 10.092 7.195 10.085 L 6.939 10.078 6.949 10.157 " stroke="none" fill-rule="evenodd" fill="black"></path></svg>