<svg id="Layer_2" data-name="Layer 2" xmlns="http://www.w3.org/2000/svg" viewBox="0 0 14.4 14.4"><path d="M7.084 1.938 C 7.027 2.912,6.974 3.792,6.966 3.894 L 6.953 4.080 6.800 4.080 L 6.647 4.080 5.039 5.238 C 3.521 6.331,3.434 6.397,3.497 6.417 C 3.534 6.429,4.142 6.439,4.848 6.441 C 5.893 6.443,6.223 6.436,6.624 6.401 C 7.111 6.359,7.794 6.269,8.080 6.211 L 8.229 6.180 9.539 4.887 C 10.260 4.176,10.846 3.590,10.841 3.585 C 10.836 3.580,10.779 3.592,10.714 3.612 C 10.318 3.733,9.360 3.898,8.640 3.970 C 8.241 4.010,7.462 4.062,7.449 4.049 C 7.445 4.045,7.390 3.170,7.327 2.105 C 7.264 1.040,7.207 0.168,7.200 0.168 C 7.193 0.168,7.141 0.965,7.084 1.938 M9.633 5.307 L 7.590 7.350 7.414 7.311 L 7.238 7.271 6.913 7.595 L 6.588 7.919 6.120 7.926 L 5.652 7.932 5.645 8.250 L 5.639 8.568 6.159 8.568 L 6.680 8.568 6.665 9.071 C 6.655 9.382,6.658 9.579,6.672 9.588 C 6.685 9.596,6.830 9.595,6.996 9.586 L 7.296 9.569 7.296 9.171 L 7.296 8.773 7.657 8.410 L 8.019 8.048 7.973 7.858 L 7.927 7.668 9.969 5.622 L 12.011 3.577 11.856 3.420 C 11.771 3.334,11.696 3.264,11.689 3.264 C 11.682 3.264,10.757 4.183,9.633 5.307 M2.071 7.078 C 1.039 7.140,0.189 7.195,0.182 7.202 C 0.176 7.208,1.075 7.265,2.179 7.328 C 3.284 7.391,4.218 7.447,4.254 7.452 L 4.320 7.463 4.320 7.211 L 4.320 6.960 4.134 6.963 C 4.032 6.965,3.103 7.017,2.071 7.078 M10.080 7.211 L 10.080 7.463 10.146 7.452 C 10.182 7.447,11.118 7.390,12.226 7.327 C 13.334 7.264,14.209 7.205,14.170 7.196 C 14.108 7.181,10.314 6.958,10.146 6.959 L 10.080 6.960 10.080 7.211 M4.602 9.882 L 3.552 10.932 3.924 11.304 L 4.296 11.676 5.352 10.620 L 6.408 9.564 6.408 9.198 L 6.408 8.832 6.030 8.832 L 5.652 8.832 4.602 9.882 M6.949 10.157 C 6.954 10.201,7.010 11.135,7.073 12.234 C 7.136 13.333,7.193 14.232,7.200 14.232 C 7.207 14.232,7.265 13.333,7.328 12.234 C 7.391 11.135,7.445 10.204,7.447 10.164 L 7.452 10.092 7.195 10.085 L 6.939 10.078 6.949 10.157 " stroke="none" fill-rule="evenodd" fill="black"></path></svg>