<svg id="Layer_2" data-name="Layer 2" xmlns="http://www.w3.org/2000/svg" viewBox="0 0 11.7855 15.3537"><path d="M5.755 0.638 L 5.628 1.237 4.809 1.699 L 3.990 2.161 3.213 2.161 L 2.436 2.161 2.436 2.598 L 2.436 3.035 1.834 3.373 L 1.233 3.711 0.671 3.821 C 0.361 3.881,0.087 3.937,0.062 3.945 C 0.026 3.956,0.111 3.988,0.435 4.084 C 0.666 4.152,0.863 4.216,0.874 4.226 C 0.886 4.238,0.909 5.344,0.937 7.251 L 0.981 10.257 0.700 10.702 C 0.546 10.947,0.412 11.160,0.403 11.176 C 0.393 11.191,0.434 11.177,0.492 11.144 C 0.892 10.920,1.204 10.762,1.227 10.771 C 1.257 10.783,5.601 14.218,5.619 14.244 C 5.625 14.253,5.682 14.499,5.746 14.791 C 5.811 15.082,5.868 15.321,5.874 15.321 C 5.880 15.321,5.941 15.083,6.010 14.791 C 6.079 14.500,6.140 14.254,6.147 14.245 C 6.165 14.218,10.510 10.782,10.540 10.770 C 10.563 10.762,10.980 10.974,11.293 11.154 C 11.346 11.184,11.374 11.193,11.363 11.176 C 11.354 11.160,11.220 10.947,11.066 10.702 L 10.786 10.257 10.830 7.250 C 10.857 5.421,10.881 4.236,10.893 4.226 C 10.903 4.216,11.103 4.152,11.338 4.084 C 11.573 4.016,11.762 3.957,11.758 3.954 C 11.755 3.950,11.479 3.894,11.145 3.830 L 10.538 3.712 10.263 3.558 C 10.112 3.473,9.840 3.321,9.659 3.219 L 9.330 3.035 9.330 2.598 L 9.330 2.161 8.553 2.161 L 7.776 2.161 6.967 1.705 C 6.522 1.454,6.153 1.243,6.148 1.235 C 6.142 1.227,6.085 0.955,6.021 0.630 C 5.956 0.305,5.899 0.039,5.893 0.039 C 5.887 0.039,5.825 0.309,5.755 0.638 M6.423 1.685 C 6.699 1.840,7.105 2.069,7.325 2.192 L 7.727 2.416 8.401 2.416 L 9.075 2.416 9.075 2.797 L 9.075 3.178 9.762 3.564 C 10.336 3.886,10.470 3.954,10.572 3.973 C 10.640 3.985,10.680 3.998,10.661 4.002 C 10.642 4.007,10.626 4.012,10.626 4.013 C 10.625 4.015,10.604 5.435,10.577 7.169 L 10.530 10.320 10.588 10.414 C 10.651 10.517,10.650 10.522,10.572 10.482 C 10.519 10.456,10.494 10.475,8.221 12.276 C 6.251 13.837,5.920 14.107,5.904 14.162 L 5.885 14.227 5.863 14.161 C 5.844 14.105,5.476 13.806,3.544 12.275 C 1.269 10.473,1.247 10.455,1.194 10.482 C 1.116 10.522,1.115 10.517,1.178 10.414 L 1.237 10.319 1.198 7.512 C 1.152 4.248,1.146 4.027,1.108 4.027 C 1.093 4.027,1.080 4.019,1.080 4.011 C 1.080 4.002,1.134 3.984,1.200 3.972 C 1.298 3.954,1.443 3.880,2.005 3.564 L 2.691 3.177 2.691 2.797 L 2.691 2.417 3.383 2.412 L 4.076 2.406 4.960 1.904 C 5.836 1.407,5.844 1.402,5.862 1.328 L 5.881 1.253 5.902 1.327 C 5.922 1.399,5.940 1.411,6.423 1.685 M5.637 1.793 C 5.535 1.850,5.145 2.071,4.772 2.284 L 4.093 2.671 3.520 2.671 L 2.946 2.671 2.946 2.993 L 2.946 3.315 2.215 3.728 C 1.772 3.978,1.467 4.161,1.444 4.193 C 1.398 4.255,1.397 3.925,1.454 7.726 C 1.483 9.645,1.498 10.249,1.517 10.289 C 1.537 10.330,4.991 13.097,5.644 13.594 C 5.912 13.798,5.633 13.977,8.096 12.026 C 9.415 10.981,10.234 10.321,10.250 10.287 C 10.289 10.205,10.378 4.319,10.341 4.229 C 10.310 4.153,10.327 4.164,9.492 3.694 L 8.819 3.315 8.819 2.993 L 8.819 2.671 8.247 2.671 L 7.675 2.671 6.807 2.180 C 6.218 1.847,5.921 1.689,5.882 1.689 C 5.849 1.689,5.744 1.734,5.637 1.793 M6.718 2.421 L 7.553 2.897 8.058 2.903 L 8.563 2.909 8.569 3.185 L 8.574 3.462 9.330 3.891 C 9.746 4.127,10.092 4.322,10.099 4.325 C 10.105 4.329,10.091 5.647,10.066 7.255 C 10.030 9.648,10.017 10.184,9.995 10.203 C 9.889 10.301,5.902 13.441,5.883 13.443 C 5.869 13.444,4.945 12.720,3.829 11.835 C 2.712 10.949,1.787 10.215,1.772 10.204 C 1.750 10.187,1.738 9.674,1.701 7.257 C 1.676 5.648,1.662 4.329,1.668 4.326 C 1.674 4.322,2.020 4.127,2.436 3.891 L 3.192 3.463 3.197 3.186 L 3.203 2.909 3.708 2.903 L 4.213 2.897 5.038 2.422 C 5.492 2.161,5.868 1.947,5.873 1.946 C 5.879 1.945,6.259 2.159,6.718 2.421 M5.688 3.245 C 5.583 3.605,5.307 4.538,5.075 5.318 L 4.653 6.738 4.751 6.910 C 4.805 7.004,4.872 7.112,4.900 7.149 L 4.950 7.216 4.950 9.765 L 4.950 12.313 5.367 12.689 L 5.785 13.065 5.790 11.371 C 5.793 10.160,5.801 9.670,5.817 9.651 C 5.848 9.614,5.920 9.619,5.958 9.661 C 5.988 9.693,5.991 9.848,5.996 11.378 L 6.001 13.060 6.418 12.677 L 6.834 12.295 6.840 9.747 L 6.845 7.199 6.952 7.027 C 7.038 6.887,7.067 6.855,7.106 6.855 C 7.149 6.855,7.153 6.849,7.141 6.801 C 7.124 6.734,6.333 4.053,6.088 3.231 C 5.988 2.896,5.900 2.615,5.893 2.607 C 5.886 2.599,5.794 2.886,5.688 3.245 M4.223 3.411 C 3.580 3.848,3.037 4.218,3.015 4.234 C 2.980 4.261,3.024 4.263,3.433 4.252 L 3.889 4.240 3.889 4.360 C 3.889 4.426,3.867 5.206,3.839 6.094 C 3.812 6.981,3.792 7.719,3.795 7.734 C 3.798 7.749,4.162 6.607,4.604 5.196 C 5.046 3.785,5.404 2.628,5.399 2.624 C 5.395 2.621,4.866 2.975,4.223 3.411 M6.371 2.640 C 6.378 2.659,6.738 3.807,7.172 5.192 C 7.605 6.577,7.967 7.723,7.976 7.739 C 7.986 7.756,7.989 7.688,7.983 7.582 C 7.978 7.479,7.957 6.777,7.936 6.020 C 7.914 5.264,7.892 4.554,7.886 4.443 L 7.875 4.240 8.342 4.254 C 8.599 4.261,8.805 4.263,8.800 4.258 C 8.789 4.247,6.428 2.648,6.385 2.623 C 6.364 2.610,6.361 2.614,6.371 2.640 M4.536 4.575 C 4.306 5.310,4.113 5.907,4.109 5.903 C 4.099 5.893,4.140 4.292,4.155 4.111 L 4.165 3.989 4.000 3.983 L 3.835 3.978 4.387 3.602 C 4.691 3.395,4.943 3.229,4.947 3.232 C 4.951 3.236,4.766 3.840,4.536 4.575 M7.403 3.613 L 7.941 3.978 7.781 3.983 L 7.621 3.989 7.621 4.062 C 7.622 4.102,7.635 4.541,7.651 5.037 C 7.667 5.533,7.678 5.941,7.675 5.943 C 7.673 5.946,7.481 5.341,7.250 4.599 C 7.018 3.858,6.825 3.243,6.819 3.233 C 6.806 3.208,6.808 3.209,7.403 3.613 M6.364 5.048 C 6.614 5.896,6.826 6.615,6.836 6.646 C 6.856 6.707,6.827 6.770,6.670 7.003 L 6.590 7.120 6.584 9.657 L 6.577 12.194 6.413 12.343 C 6.323 12.425,6.244 12.493,6.238 12.493 C 6.232 12.493,6.227 11.847,6.227 11.057 C 6.227 10.035,6.220 9.610,6.205 9.579 C 6.066 9.309,5.725 9.297,5.582 9.556 C 5.552 9.609,5.548 9.764,5.539 11.058 L 5.529 12.500 5.367 12.354 L 5.206 12.208 5.205 9.678 L 5.205 7.149 5.110 7.007 C 5.057 6.929,4.994 6.829,4.969 6.785 L 4.924 6.705 5.358 5.243 C 5.597 4.439,5.813 3.713,5.837 3.629 C 5.861 3.545,5.887 3.483,5.895 3.491 C 5.903 3.500,6.114 4.200,6.364 5.048 M2.307 4.198 L 1.893 4.444 1.899 4.712 C 1.903 4.859,1.924 6.093,1.946 7.454 C 1.968 8.816,1.994 9.960,2.004 9.999 C 2.014 10.037,2.056 10.100,2.096 10.140 C 2.137 10.180,2.723 10.667,3.398 11.222 L 4.626 12.231 4.631 11.231 C 4.636 10.325,4.633 10.224,4.603 10.160 C 4.579 10.111,4.424 9.969,4.072 9.678 L 3.575 9.266 3.575 8.908 C 3.575 8.712,3.569 8.364,3.562 8.136 L 3.549 7.721 3.361 7.715 L 3.172 7.710 3.167 6.320 L 3.162 4.930 2.947 4.930 L 2.731 4.930 2.726 4.442 L 2.720 3.953 2.307 4.198 M9.055 4.441 L 9.055 4.930 8.829 4.930 L 8.603 4.930 8.603 6.325 L 8.603 7.720 8.407 7.720 L 8.211 7.720 8.211 8.325 C 8.211 8.659,8.205 9.010,8.198 9.106 L 8.185 9.281 7.745 9.644 C 7.251 10.052,7.181 10.120,7.151 10.227 C 7.124 10.324,7.122 12.218,7.149 12.218 C 7.159 12.218,7.740 11.747,8.440 11.172 C 9.454 10.338,9.721 10.110,9.752 10.047 C 9.789 9.972,9.792 9.867,9.835 7.376 C 9.860 5.950,9.878 4.705,9.875 4.610 L 9.870 4.436 9.463 4.193 L 9.055 3.951 9.055 4.441 M2.475 4.793 L 2.475 5.186 2.691 5.186 L 2.907 5.186 2.907 6.570 L 2.907 7.955 3.101 7.955 L 3.294 7.955 3.307 8.147 C 3.314 8.252,3.320 8.564,3.321 8.839 C 3.322 9.115,3.328 9.354,3.336 9.372 C 3.343 9.390,3.581 9.596,3.865 9.831 L 4.380 10.258 4.380 10.973 C 4.380 11.366,4.375 11.687,4.369 11.687 C 4.355 11.687,2.316 10.011,2.274 9.964 C 2.245 9.932,2.237 9.685,2.200 7.493 C 2.177 6.154,2.161 4.948,2.165 4.814 L 2.170 4.570 2.308 4.487 C 2.384 4.441,2.452 4.403,2.460 4.402 C 2.468 4.401,2.475 4.577,2.475 4.793 M9.485 4.499 L 9.631 4.585 9.619 5.106 C 9.612 5.393,9.592 6.587,9.574 7.759 C 9.551 9.215,9.534 9.904,9.519 9.935 C 9.507 9.960,9.024 10.369,8.446 10.843 L 7.395 11.706 7.390 10.994 L 7.385 10.283 7.469 10.204 C 7.515 10.161,7.753 9.961,7.997 9.759 L 8.440 9.393 8.453 9.111 C 8.460 8.956,8.466 8.633,8.466 8.392 L 8.466 7.955 8.662 7.955 L 8.859 7.955 8.859 6.570 L 8.859 5.186 9.085 5.186 L 9.311 5.186 9.311 4.792 C 9.311 4.575,9.317 4.401,9.325 4.406 C 9.333 4.410,9.405 4.452,9.485 4.499 " stroke="none" fill-rule="evenodd" fill="black"></path></svg>