<svg id="Layer_2" data-name="Layer 2" xmlns="http://www.w3.org/2000/svg" viewBox="0 0 12.3134 14.3374"><path d="M6.031 0.041 C 5.989 0.063,5.538 0.317,5.028 0.605 L 4.101 1.129 3.272 1.129 L 2.443 1.129 2.437 1.602 L 2.432 2.075 1.652 2.517 C 1.223 2.759,0.854 2.976,0.831 2.998 C 0.791 3.038,0.790 3.069,0.785 5.701 C 0.780 8.282,0.781 8.361,0.817 8.301 C 0.838 8.267,1.015 7.953,1.212 7.604 L 1.570 6.967 1.575 5.222 L 1.581 3.476 2.412 3.005 L 3.242 2.535 3.243 2.232 L 3.243 1.929 3.767 1.929 C 4.257 1.929,4.296 1.926,4.375 1.886 C 4.421 1.863,4.840 1.628,5.308 1.364 L 6.157 0.885 7.006 1.364 C 7.473 1.628,7.893 1.863,7.939 1.886 C 8.017 1.926,8.056 1.929,8.547 1.929 L 9.071 1.929 9.071 2.232 L 9.071 2.536 9.905 3.007 L 10.739 3.479 10.724 5.340 C 10.713 6.713,10.715 7.221,10.732 7.273 C 10.754 7.338,11.456 8.608,11.492 8.646 C 11.517 8.673,11.541 3.119,11.516 3.054 C 11.489 2.984,11.523 3.005,10.634 2.502 L 9.882 2.075 9.876 1.602 L 9.870 1.129 9.042 1.129 L 8.213 1.129 7.284 0.604 C 6.773 0.316,6.320 0.062,6.277 0.040 C 6.181 -0.010,6.126 -0.009,6.031 0.041 M7.159 0.821 L 8.140 1.375 8.882 1.375 L 9.624 1.375 9.630 1.799 L 9.635 2.223 10.453 2.686 L 11.271 3.150 11.268 5.428 C 11.266 6.680,11.262 7.707,11.259 7.710 C 11.256 7.713,11.192 7.606,11.116 7.472 L 10.979 7.228 10.979 5.307 L 10.979 3.387 10.923 3.325 C 10.892 3.291,10.539 3.078,10.138 2.851 C 9.737 2.625,9.389 2.426,9.363 2.410 C 9.318 2.380,9.317 2.370,9.317 2.031 L 9.317 1.683 8.698 1.683 L 8.079 1.683 7.152 1.160 C 6.454 0.765,6.209 0.636,6.157 0.636 C 6.105 0.636,5.859 0.765,5.161 1.160 L 4.233 1.683 3.615 1.683 L 2.996 1.683 2.996 2.029 C 2.996 2.282,2.989 2.381,2.971 2.396 C 2.956 2.407,2.631 2.594,2.247 2.811 C 1.392 3.294,1.380 3.302,1.357 3.365 C 1.345 3.395,1.332 4.158,1.325 5.165 L 1.312 6.913 1.174 7.155 L 1.036 7.398 1.031 5.286 C 1.028 4.124,1.033 3.166,1.041 3.157 C 1.050 3.149,1.422 2.935,1.868 2.682 L 2.678 2.223 2.684 1.799 L 2.689 1.375 3.433 1.375 L 4.176 1.374 5.151 0.822 C 5.687 0.518,6.138 0.269,6.152 0.268 C 6.166 0.267,6.619 0.516,7.159 0.821 M5.336 2.606 L 5.336 3.222 5.100 3.222 L 4.864 3.222 4.864 2.894 L 4.864 2.565 4.310 2.565 L 3.756 2.565 3.756 3.838 L 3.756 5.110 4.052 5.110 C 4.316 5.110,4.349 5.114,4.358 5.146 C 4.364 5.166,4.420 5.404,4.482 5.674 L 4.596 6.167 4.565 6.290 C 4.547 6.358,4.260 7.228,3.926 8.225 C 3.392 9.820,3.321 10.044,3.338 10.103 C 3.353 10.156,3.620 10.397,4.690 11.323 C 5.501 12.025,6.047 12.485,6.085 12.495 C 6.157 12.515,6.241 12.495,6.306 12.443 C 6.332 12.423,6.935 11.905,7.647 11.293 C 8.580 10.492,8.950 10.162,8.970 10.114 C 8.996 10.050,8.975 9.981,8.387 8.230 C 8.051 7.230,7.763 6.356,7.747 6.286 C 7.718 6.160,7.718 6.157,7.830 5.643 C 7.892 5.359,7.942 5.122,7.942 5.118 C 7.942 5.114,8.076 5.110,8.240 5.110 L 8.537 5.110 8.537 3.838 L 8.537 2.565 7.983 2.565 L 7.429 2.565 7.429 2.894 L 7.429 3.222 7.193 3.222 L 6.957 3.222 6.957 2.606 L 6.957 1.991 6.146 1.991 L 5.336 1.991 5.336 2.606 M6.711 2.853 L 6.711 3.468 7.203 3.468 L 7.696 3.468 7.696 3.140 L 7.696 2.812 7.993 2.812 L 8.291 2.812 8.291 3.827 L 8.291 4.843 8.018 4.843 L 7.744 4.843 7.605 5.492 C 7.495 6.000,7.468 6.162,7.478 6.236 C 7.485 6.288,7.769 7.165,8.109 8.185 L 8.727 10.039 8.658 10.097 C 8.620 10.128,8.040 10.626,7.368 11.202 C 6.312 12.110,6.144 12.247,6.117 12.223 C 6.032 12.151,3.620 10.069,3.605 10.055 C 3.595 10.046,3.865 9.205,4.205 8.185 C 4.544 7.165,4.828 6.289,4.835 6.237 C 4.845 6.161,4.818 6.012,4.698 5.493 L 4.547 4.843 4.275 4.843 L 4.002 4.843 4.002 3.827 L 4.002 2.812 4.299 2.812 L 4.597 2.812 4.597 3.140 L 4.597 3.468 5.100 3.468 L 5.603 3.468 5.603 2.853 L 5.603 2.237 6.157 2.237 L 6.711 2.237 6.711 2.853 M2.032 5.500 L 2.032 6.649 2.134 6.649 C 2.191 6.649,2.237 6.654,2.237 6.660 C 2.237 6.687,1.265 8.675,1.235 8.710 C 1.216 8.731,1.099 8.825,0.975 8.918 C 0.753 9.084,0.517 9.311,0.356 9.512 C 0.242 9.655,0.021 9.964,0.021 9.981 C 0.021 9.988,0.559 9.994,1.217 9.994 C 2.524 9.994,2.469 9.999,2.532 9.875 C 2.547 9.845,2.761 9.150,3.007 8.330 L 3.454 6.841 3.574 6.763 L 3.694 6.686 3.694 6.083 L 3.694 5.479 3.366 5.479 L 3.037 5.479 3.037 4.915 L 3.037 4.351 2.535 4.351 L 2.032 4.351 2.032 5.500 M9.276 4.915 L 9.276 5.479 8.948 5.479 L 8.619 5.479 8.619 6.083 L 8.619 6.686 8.739 6.763 L 8.859 6.841 9.306 8.330 C 9.552 9.150,9.766 9.845,9.782 9.875 C 9.844 9.999,9.789 9.994,11.097 9.994 C 11.755 9.994,12.293 9.988,12.293 9.981 C 12.293 9.964,12.071 9.655,11.957 9.512 C 11.796 9.311,11.561 9.084,11.339 8.918 C 11.214 8.825,11.097 8.731,11.079 8.710 C 11.048 8.675,10.076 6.687,10.076 6.660 C 10.076 6.654,10.123 6.649,10.179 6.649 L 10.282 6.649 10.282 5.500 L 10.282 4.351 9.779 4.351 L 9.276 4.351 9.276 4.915 M2.775 5.156 L 2.781 5.715 3.114 5.721 L 3.448 5.727 3.448 6.137 L 3.448 6.546 3.345 6.613 C 3.262 6.667,3.237 6.698,3.214 6.772 C 3.198 6.823,3.018 7.423,2.813 8.106 C 2.607 8.789,2.412 9.438,2.378 9.548 L 2.317 9.748 1.403 9.748 L 0.489 9.748 0.558 9.661 C 0.707 9.472,0.900 9.287,1.118 9.124 C 1.245 9.029,1.382 8.912,1.424 8.863 C 1.475 8.804,1.694 8.374,2.071 7.593 L 2.642 6.413 2.460 6.407 L 2.278 6.401 2.278 5.499 L 2.278 4.597 2.524 4.597 L 2.770 4.597 2.775 5.156 M10.035 5.499 L 10.035 6.401 9.853 6.407 L 9.671 6.413 10.251 7.610 C 10.649 8.431,10.853 8.831,10.900 8.880 C 10.938 8.920,11.072 9.030,11.197 9.124 C 11.414 9.287,11.608 9.473,11.756 9.661 L 11.824 9.748 10.910 9.748 L 9.996 9.748 9.944 9.579 C 9.623 8.521,9.091 6.738,9.091 6.720 C 9.091 6.707,9.041 6.662,8.979 6.621 L 8.866 6.546 8.866 6.136 L 8.866 5.727 9.199 5.721 L 9.533 5.715 9.538 5.156 L 9.544 4.597 9.789 4.597 L 10.035 4.597 10.035 5.499 M6.032 7.340 C 6.001 7.359,5.733 7.761,5.370 8.332 C 5.035 8.860,4.761 9.298,4.761 9.305 C 4.761 9.312,4.778 9.317,4.798 9.317 C 4.819 9.317,4.856 9.344,4.880 9.378 C 4.908 9.415,4.957 9.447,5.007 9.461 C 5.062 9.475,5.454 9.481,6.193 9.477 C 7.223 9.471,7.301 9.469,7.355 9.434 C 7.433 9.382,7.479 9.269,7.452 9.193 C 7.411 9.074,6.315 7.373,6.258 7.339 C 6.187 7.297,6.100 7.298,6.032 7.340 M6.677 8.414 L 7.179 9.204 6.656 9.210 C 6.369 9.213,5.904 9.213,5.624 9.210 L 5.115 9.204 5.545 8.527 C 5.781 8.155,6.012 7.791,6.057 7.719 C 6.105 7.644,6.147 7.596,6.158 7.607 C 6.168 7.617,6.401 7.980,6.677 8.414 M1.130 10.400 C 1.131 10.412,5.572 13.953,5.944 14.237 C 6.041 14.312,6.072 14.325,6.156 14.325 C 6.225 14.325,6.271 14.311,6.313 14.279 C 6.555 14.094,11.165 10.420,11.175 10.404 C 11.183 10.391,10.960 10.384,10.554 10.384 L 9.921 10.384 8.044 11.882 C 7.012 12.706,6.162 13.380,6.157 13.380 C 6.151 13.380,5.301 12.706,4.269 11.882 L 2.391 10.384 1.760 10.384 C 1.413 10.384,1.129 10.391,1.130 10.400 M4.156 12.112 C 5.160 12.914,6.010 13.588,6.044 13.609 C 6.122 13.658,6.192 13.657,6.270 13.609 C 6.303 13.588,7.153 12.914,8.158 12.111 L 9.984 10.652 10.229 10.652 C 10.363 10.651,10.469 10.655,10.465 10.659 C 10.357 10.763,6.161 14.077,6.145 14.070 C 6.126 14.063,1.924 10.729,1.858 10.669 C 1.847 10.659,1.945 10.651,2.084 10.652 L 2.329 10.653 4.156 12.112 " stroke="none" fill-rule="evenodd" fill="black"></path></svg>