<svg id="Layer_2" data-name="Layer 2" xmlns="http://www.w3.org/2000/svg" viewBox="0 0 11.3219 14.2676"><path d="M5.588 0.012 C 5.574 0.019,5.120 0.273,4.579 0.578 L 3.596 1.132 2.723 1.132 L 1.849 1.132 1.849 1.741 L 1.849 2.349 0.995 2.640 C 0.526 2.800,0.119 2.946,0.092 2.965 C -0.015 3.039,-0.020 2.827,0.189 6.590 C 0.321 8.969,0.389 10.086,0.406 10.126 C 0.424 10.170,1.062 10.685,2.994 12.215 C 4.440 13.361,5.580 14.251,5.609 14.257 C 5.638 14.263,5.684 14.263,5.713 14.257 C 5.742 14.251,6.878 13.364,8.328 12.215 C 10.260 10.685,10.898 10.170,10.916 10.126 C 10.933 10.086,11.001 8.969,11.133 6.590 C 11.342 2.827,11.336 3.039,11.230 2.965 C 11.203 2.946,10.796 2.800,10.327 2.640 L 9.473 2.349 9.473 1.741 L 9.473 1.132 8.599 1.132 L 7.725 1.132 6.736 0.573 C 5.781 0.035,5.666 -0.022,5.588 0.012 M6.656 0.816 L 7.633 1.368 8.430 1.373 L 9.227 1.379 9.227 1.944 L 9.227 2.509 9.270 2.535 C 9.293 2.549,9.708 2.695,10.192 2.859 L 11.072 3.158 11.065 3.225 C 11.061 3.262,10.977 4.783,10.878 6.604 C 10.779 8.426,10.692 9.944,10.685 9.979 C 10.672 10.035,10.397 10.258,8.171 12.021 C 6.796 13.110,5.666 14.001,5.661 14.001 C 5.655 14.001,4.526 13.110,3.151 12.021 C 0.925 10.258,0.650 10.035,0.637 9.979 C 0.630 9.944,0.543 8.426,0.444 6.604 C 0.345 4.783,0.261 3.262,0.257 3.225 L 0.250 3.158 1.167 2.845 L 2.085 2.533 2.090 1.956 L 2.095 1.379 2.892 1.373 L 3.689 1.368 4.661 0.817 C 5.195 0.514,5.643 0.266,5.656 0.265 C 5.668 0.265,6.118 0.513,6.656 0.816 M5.548 0.693 C 5.511 0.712,5.100 0.944,4.633 1.208 L 3.783 1.689 3.095 1.698 L 2.406 1.708 2.396 2.208 L 2.387 2.708 1.529 3.003 C 0.639 3.309,0.620 3.318,0.591 3.432 C 0.584 3.459,0.657 4.908,0.754 6.652 C 0.899 9.274,0.935 9.833,0.960 9.888 C 0.984 9.939,1.461 10.327,3.114 11.639 C 5.788 13.761,5.559 13.586,5.661 13.586 C 5.763 13.586,5.532 13.763,8.208 11.639 C 9.861 10.327,10.338 9.939,10.362 9.888 C 10.387 9.833,10.423 9.274,10.568 6.652 C 10.665 4.908,10.738 3.459,10.731 3.432 C 10.702 3.318,10.683 3.309,9.793 3.003 L 8.935 2.708 8.925 2.208 L 8.916 1.708 8.227 1.698 L 7.538 1.689 6.642 1.182 C 6.088 0.868,5.721 0.672,5.680 0.666 C 5.638 0.661,5.590 0.671,5.548 0.693 M6.590 1.439 L 7.501 1.953 8.081 1.959 L 8.661 1.964 8.661 2.421 L 8.661 2.878 9.562 3.187 C 10.058 3.357,10.469 3.501,10.476 3.508 C 10.483 3.514,10.410 4.928,10.313 6.649 C 10.150 9.553,10.135 9.781,10.102 9.812 C 10.083 9.831,9.076 10.632,7.864 11.593 L 5.661 13.339 3.458 11.593 C 2.246 10.632,1.239 9.831,1.219 9.812 C 1.187 9.781,1.171 9.553,1.009 6.649 C 0.912 4.928,0.839 3.514,0.846 3.508 C 0.853 3.501,1.264 3.357,1.760 3.187 L 2.661 2.878 2.661 2.421 L 2.661 1.964 3.241 1.959 L 3.821 1.953 4.727 1.440 C 5.225 1.158,5.643 0.927,5.656 0.926 C 5.668 0.925,6.089 1.156,6.590 1.439 M5.500 1.102 C 5.424 1.135,5.346 1.229,5.322 1.317 C 5.309 1.363,5.303 1.950,5.303 3.005 L 5.302 4.623 5.680 4.623 L 6.058 4.623 6.053 3.014 C 6.048 1.707,6.042 1.393,6.021 1.336 C 5.984 1.237,5.896 1.136,5.817 1.103 C 5.735 1.069,5.577 1.069,5.500 1.102 M5.754 1.371 C 5.793 1.420,5.793 1.432,5.793 2.899 L 5.793 4.378 5.670 4.378 L 5.548 4.378 5.548 2.891 C 5.548 1.576,5.551 1.400,5.577 1.363 C 5.619 1.303,5.704 1.307,5.754 1.371 M4.831 2.611 C 4.488 2.718,4.261 2.830,3.972 3.034 C 3.574 3.315,3.245 3.744,3.086 4.189 C 3.037 4.325,2.963 4.607,2.963 4.656 C 2.963 4.674,3.044 4.680,3.307 4.680 L 3.652 4.680 3.687 4.545 C 3.760 4.261,3.982 3.909,4.209 3.715 C 4.420 3.537,4.687 3.387,4.963 3.293 L 5.085 3.252 5.091 2.900 C 5.095 2.573,5.093 2.547,5.062 2.548 C 5.044 2.549,4.940 2.577,4.831 2.611 M6.231 2.897 L 6.236 3.250 6.369 3.294 C 6.724 3.413,7.088 3.653,7.301 3.910 C 7.438 4.075,7.586 4.357,7.634 4.543 L 7.670 4.680 8.016 4.680 L 8.363 4.680 8.349 4.600 C 8.342 4.555,8.315 4.447,8.290 4.359 C 8.093 3.671,7.630 3.136,6.928 2.784 C 6.752 2.696,6.432 2.580,6.297 2.556 L 6.226 2.543 6.231 2.897 M4.850 2.972 C 4.850 3.042,4.842 3.076,4.826 3.076 C 4.783 3.076,4.383 3.278,4.261 3.361 C 4.080 3.484,3.821 3.745,3.700 3.926 C 3.610 4.061,3.523 4.236,3.466 4.401 C 3.457 4.427,3.433 4.434,3.361 4.434 L 3.267 4.434 3.310 4.307 C 3.480 3.808,3.875 3.348,4.368 3.076 C 4.501 3.003,4.801 2.869,4.835 2.869 C 4.843 2.868,4.850 2.915,4.850 2.972 M6.827 3.012 C 7.370 3.276,7.806 3.747,8.001 4.281 L 8.057 4.434 7.962 4.434 C 7.889 4.434,7.865 4.427,7.856 4.401 C 7.703 3.962,7.422 3.602,7.024 3.340 C 6.918 3.269,6.754 3.179,6.661 3.140 L 6.491 3.068 6.491 2.968 L 6.491 2.869 6.590 2.907 C 6.645 2.928,6.751 2.975,6.827 3.012 M1.972 3.617 C 1.609 3.799,1.308 3.951,1.305 3.954 C 1.297 3.962,1.358 4.771,1.369 4.807 C 1.374 4.823,1.434 4.800,1.553 4.736 L 1.730 4.642 2.186 4.642 L 2.642 4.642 2.642 3.963 C 2.642 3.589,2.640 3.284,2.637 3.284 C 2.634 3.285,2.335 3.434,1.972 3.617 M8.680 3.963 L 8.680 4.642 9.136 4.642 L 9.592 4.642 9.768 4.736 C 9.939 4.827,9.944 4.829,9.953 4.788 C 9.966 4.725,10.025 3.961,10.017 3.954 C 10.013 3.951,9.711 3.798,9.345 3.616 L 8.680 3.283 8.680 3.963 M2.396 4.037 L 2.396 4.395 1.995 4.400 C 1.775 4.404,1.593 4.406,1.592 4.406 C 1.590 4.406,1.584 4.338,1.577 4.255 L 1.564 4.104 1.976 3.894 C 2.202 3.778,2.389 3.682,2.392 3.681 C 2.394 3.680,2.396 3.840,2.396 4.037 M9.745 4.255 C 9.738 4.338,9.731 4.406,9.730 4.406 C 9.729 4.406,9.547 4.404,9.326 4.400 L 8.925 4.395 8.925 4.039 L 8.925 3.683 9.341 3.894 L 9.758 4.104 9.745 4.255 M5.302 5.208 L 5.302 5.585 5.680 5.585 L 6.058 5.585 6.053 5.213 L 6.048 4.840 5.675 4.835 L 5.302 4.830 5.302 5.208 M1.884 4.886 C 1.752 4.904,1.609 4.973,1.558 5.044 C 1.502 5.120,1.503 5.316,1.559 5.391 C 1.613 5.463,1.740 5.524,1.887 5.547 C 1.963 5.559,2.587 5.566,3.533 5.566 L 5.057 5.567 5.057 5.227 L 5.057 4.887 3.578 4.887 C 2.765 4.887,2.075 4.884,2.045 4.880 C 2.015 4.875,1.943 4.879,1.884 4.886 M7.770 4.883 L 6.265 4.888 6.265 5.227 L 6.265 5.567 7.779 5.566 C 8.680 5.566,9.347 5.558,9.425 5.547 C 9.653 5.515,9.782 5.424,9.806 5.279 C 9.843 5.051,9.688 4.905,9.388 4.885 C 9.325 4.881,8.597 4.880,7.770 4.883 M5.793 5.218 L 5.793 5.340 5.670 5.340 L 5.548 5.340 5.548 5.218 L 5.548 5.095 5.670 5.095 L 5.793 5.095 5.793 5.218 M4.812 5.218 L 4.812 5.302 3.349 5.302 C 2.114 5.302,1.876 5.298,1.820 5.275 C 1.738 5.241,1.737 5.195,1.816 5.161 C 1.867 5.139,2.124 5.134,3.345 5.133 L 4.812 5.133 4.812 5.218 M9.502 5.160 C 9.538 5.175,9.567 5.201,9.567 5.218 C 9.567 5.234,9.538 5.260,9.502 5.275 C 9.446 5.298,9.208 5.302,7.973 5.302 L 6.510 5.302 6.510 5.218 L 6.510 5.133 7.973 5.133 C 9.208 5.133,9.446 5.137,9.502 5.160 M1.377 5.634 C 1.377 5.651,1.454 6.541,1.548 7.612 C 1.661 8.897,1.727 9.565,1.742 9.579 C 1.798 9.633,3.667 11.114,3.672 11.109 C 3.676 11.105,3.573 9.317,3.568 9.310 C 3.567 9.309,3.414 9.188,3.227 9.040 C 2.916 8.795,2.887 8.767,2.886 8.712 C 2.885 8.679,2.836 8.023,2.777 7.255 L 2.670 5.859 2.198 5.850 L 1.726 5.840 1.575 5.735 C 1.374 5.595,1.377 5.597,1.377 5.634 M9.765 5.721 L 9.595 5.840 9.124 5.850 L 8.652 5.859 8.545 7.255 C 8.486 8.023,8.437 8.679,8.436 8.711 C 8.435 8.766,8.404 8.795,8.095 9.040 C 7.908 9.187,7.755 9.309,7.754 9.310 C 7.749 9.316,7.646 11.105,7.650 11.109 C 7.655 11.114,9.524 9.632,9.580 9.579 C 9.601 9.559,9.954 5.692,9.940 5.627 C 9.937 5.611,9.875 5.644,9.765 5.721 M2.963 5.760 C 2.963 5.773,2.979 5.852,2.999 5.935 C 3.150 6.566,3.500 7.048,4.097 7.446 L 4.278 7.567 4.432 7.567 L 4.587 7.567 4.843 7.369 C 4.993 7.253,5.088 7.167,5.073 7.162 C 5.059 7.157,4.992 7.135,4.925 7.113 C 4.334 6.917,3.872 6.475,3.707 5.947 C 3.679 5.857,3.654 5.773,3.650 5.760 C 3.645 5.742,3.559 5.736,3.303 5.736 C 3.043 5.736,2.963 5.742,2.963 5.760 M7.661 5.785 C 7.651 5.811,7.642 5.848,7.642 5.865 C 7.641 5.883,7.617 5.959,7.587 6.034 C 7.389 6.536,6.937 6.942,6.378 7.123 C 6.321 7.141,6.268 7.162,6.260 7.169 C 6.252 7.176,6.356 7.269,6.491 7.374 L 6.737 7.567 6.889 7.567 C 7.042 7.567,7.042 7.567,7.196 7.466 C 7.510 7.262,7.808 6.976,7.997 6.697 C 8.080 6.574,8.215 6.296,8.262 6.152 C 8.303 6.024,8.359 5.801,8.359 5.760 C 8.359 5.742,8.279 5.736,8.019 5.736 L 7.679 5.736 7.661 5.785 M5.302 6.522 C 5.302 7.042,5.307 7.171,5.326 7.157 C 5.492 7.030,5.661 6.906,5.670 6.906 C 5.676 6.906,5.760 6.966,5.856 7.038 C 5.953 7.111,6.038 7.171,6.045 7.171 C 6.052 7.171,6.057 6.878,6.057 6.520 L 6.057 5.869 5.680 5.869 L 5.302 5.869 5.302 6.522 M3.466 6.034 C 3.636 6.522,3.980 6.924,4.439 7.171 L 4.586 7.250 4.540 7.286 C 4.455 7.352,4.374 7.334,4.183 7.204 C 3.770 6.922,3.385 6.425,3.292 6.052 C 3.279 6.001,3.281 6.001,3.367 6.001 C 3.433 6.001,3.457 6.009,3.466 6.034 M8.030 6.052 C 7.999 6.174,7.897 6.387,7.789 6.551 C 7.567 6.889,7.064 7.321,6.892 7.321 C 6.843 7.321,6.807 7.309,6.785 7.285 C 6.754 7.251,6.757 7.247,6.879 7.179 C 7.348 6.917,7.690 6.516,7.856 6.034 C 7.865 6.009,7.889 6.001,7.955 6.001 C 8.041 6.001,8.042 6.001,8.030 6.052 M2.434 6.109 C 2.434 6.117,2.481 6.730,2.538 7.471 C 2.595 8.213,2.642 8.837,2.642 8.858 C 2.642 8.886,2.733 8.969,2.962 9.150 C 3.139 9.288,3.292 9.414,3.304 9.428 C 3.323 9.451,3.402 10.546,3.386 10.564 C 3.383 10.567,3.063 10.315,2.674 10.004 L 1.966 9.438 1.954 9.328 C 1.931 9.111,1.679 6.210,1.679 6.153 L 1.679 6.095 2.057 6.095 C 2.264 6.095,2.434 6.101,2.434 6.109 M9.642 6.150 C 9.642 6.204,9.390 9.118,9.367 9.328 L 9.355 9.438 8.648 10.004 C 8.259 10.315,7.939 10.567,7.935 10.564 C 7.920 10.546,7.999 9.451,8.018 9.428 C 8.030 9.414,8.183 9.288,8.360 9.150 C 8.583 8.973,8.680 8.886,8.680 8.859 C 8.680 8.839,8.727 8.214,8.784 7.472 C 8.841 6.730,8.887 6.117,8.888 6.109 C 8.888 6.101,9.058 6.095,9.265 6.095 L 9.642 6.095 9.642 6.150 M5.793 6.387 C 5.793 6.637,5.781 6.700,5.746 6.642 C 5.716 6.594,5.665 6.586,5.618 6.624 C 5.591 6.644,5.565 6.661,5.559 6.661 C 5.553 6.661,5.548 6.538,5.548 6.387 L 5.548 6.114 5.670 6.114 L 5.793 6.114 5.793 6.387 M5.019 7.595 L 4.576 7.866 4.146 7.867 L 3.716 7.869 3.727 7.987 C 3.733 8.052,3.788 8.829,3.850 9.714 C 3.911 10.599,3.968 11.334,3.976 11.349 C 3.994 11.379,5.574 12.711,5.626 12.739 C 5.649 12.751,5.673 12.751,5.696 12.739 C 5.748 12.711,7.328 11.379,7.346 11.349 C 7.354 11.334,7.411 10.599,7.472 9.714 C 7.534 8.829,7.589 8.052,7.595 7.987 L 7.606 7.869 7.180 7.869 L 6.754 7.869 6.307 7.605 L 5.859 7.341 5.850 8.817 C 5.840 10.387,5.843 10.327,5.750 10.430 C 5.671 10.516,5.558 10.457,5.513 10.306 C 5.497 10.253,5.491 9.833,5.491 8.777 C 5.491 7.976,5.485 7.322,5.477 7.323 C 5.469 7.324,5.263 7.446,5.019 7.595 M5.298 10.456 C 5.385 10.630,5.511 10.718,5.671 10.718 C 5.832 10.718,5.980 10.601,6.052 10.417 C 6.082 10.339,6.086 10.217,6.095 9.053 L 6.104 7.775 6.391 7.945 L 6.678 8.114 7.000 8.114 L 7.321 8.114 7.321 8.184 C 7.321 8.264,7.114 11.234,7.108 11.238 C 7.106 11.239,6.784 11.509,6.393 11.838 C 6.002 12.166,5.673 12.435,5.661 12.435 C 5.650 12.435,5.320 12.166,4.929 11.838 C 4.538 11.509,4.216 11.239,4.214 11.238 C 4.208 11.234,4.000 8.260,4.000 8.181 L 4.000 8.114 4.326 8.113 L 4.651 8.113 4.944 7.936 L 5.236 7.759 5.246 9.064 L 5.255 10.369 5.298 10.456 " stroke="none" fill-rule="evenodd" fill="black"></path></svg>