<svg id="Layer_2" data-name="Layer 2" xmlns="http://www.w3.org/2000/svg" viewBox="0 0 14.40002444 14.40002441"><path d="M0.029 0.029 C -0.013 0.070,-0.013 2.570,0.029 2.611 C 0.070 2.653,2.570 2.653,2.611 2.611 C 2.653 2.570,2.653 0.070,2.611 0.029 C 2.570 -0.013,0.070 -0.013,0.029 0.029 M3.149 0.029 C 3.127 0.051,3.120 0.424,3.120 1.563 C 3.120 2.900,3.116 3.073,3.082 3.106 C 3.049 3.140,2.877 3.144,1.549 3.144 C 0.320 3.144,0.049 3.150,0.027 3.177 C 0.007 3.200,0.001 4.684,0.006 8.787 L 0.012 14.364 1.560 14.364 L 3.108 14.364 3.114 13.683 C 3.119 13.200,3.113 12.992,3.093 12.969 C 3.071 12.942,2.920 12.936,2.303 12.936 C 1.641 12.936,1.534 12.931,1.502 12.898 C 1.468 12.864,1.464 12.458,1.464 8.781 C 1.464 6.014,1.472 4.686,1.489 4.654 C 1.513 4.610,1.549 4.608,2.503 4.608 L 3.492 4.608 7.578 8.694 C 10.351 11.467,11.664 12.796,11.664 12.829 C 11.664 12.856,11.651 12.891,11.635 12.907 C 11.613 12.929,11.013 12.936,9.080 12.936 C 6.607 12.936,6.553 12.937,6.529 12.982 C 6.499 13.037,6.495 14.300,6.524 14.346 C 6.539 14.370,7.343 14.375,10.465 14.370 L 14.388 14.364 14.394 7.215 C 14.399 1.949,14.393 0.056,14.373 0.033 C 14.336 -0.013,9.698 -0.016,9.653 0.029 C 9.612 0.070,9.612 1.394,9.653 1.435 C 9.675 1.457,10.066 1.464,11.269 1.464 C 12.777 1.464,12.859 1.466,12.896 1.508 C 12.933 1.548,12.936 1.932,12.936 6.537 C 12.936 9.928,12.928 11.538,12.911 11.570 C 12.898 11.595,12.862 11.616,12.833 11.616 C 12.794 11.616,11.667 10.503,8.682 7.518 L 4.584 3.420 4.584 1.748 C 4.584 0.259,4.580 0.071,4.546 0.038 C 4.514 0.005,4.416 0.000,3.843 0.000 C 3.357 0.000,3.170 0.008,3.149 0.029 " stroke="none" fill-rule="evenodd" fill="black"></path></svg>