<svg id="Layer_2" data-name="Layer 2" xmlns="http://www.w3.org/2000/svg" viewBox="0 0 14.40002441 10.13989258"><path d="M5.534 0.038 C 5.500 0.072,5.496 0.411,5.496 3.416 L 5.496 6.756 6.348 5.904 L 7.200 5.052 7.200 3.407 C 7.200 2.159,7.207 1.755,7.229 1.733 C 7.251 1.711,8.073 1.704,10.782 1.704 C 13.166 1.704,14.322 1.696,14.354 1.679 C 14.398 1.655,14.400 1.621,14.400 0.856 C 14.400 0.267,14.392 0.050,14.371 0.029 C 14.349 0.007,13.336 -0.000,9.957 -0.000 C 6.002 -0.000,5.568 0.004,5.534 0.038 M12.388 3.376 C 11.287 4.291,10.402 5.040,10.420 5.040 C 10.460 5.040,14.373 3.923,14.389 3.907 C 14.395 3.901,14.398 3.404,14.394 2.803 L 14.388 1.711 12.388 3.376 M8.046 4.228 L 7.200 5.069 7.200 6.717 C 7.200 7.968,7.193 8.373,7.171 8.395 C 7.149 8.417,6.327 8.424,3.618 8.424 C 1.234 8.424,0.078 8.432,0.046 8.449 C 0.002 8.473,-0.000 8.507,-0.000 9.272 C -0.000 9.861,0.008 10.078,0.029 10.099 C 0.051 10.121,1.067 10.128,4.456 10.128 C 8.785 10.128,8.855 10.127,8.879 10.081 C 8.896 10.050,8.902 8.975,8.898 6.711 L 8.892 3.387 8.046 4.228 M1.974 5.651 C 0.901 5.957,0.018 6.214,0.012 6.220 C 0.005 6.227,0.002 6.725,0.006 7.327 L 0.012 8.422 2.012 6.755 C 3.113 5.838,3.993 5.089,3.968 5.090 C 3.944 5.092,3.046 5.344,1.974 5.651 " stroke="none" fill-rule="evenodd" fill="black"></path></svg>