<svg id="Layer_2" data-name="Layer 2" xmlns="http://www.w3.org/2000/svg" viewBox="0 0 9.3173207 14.01713341"><path d="M2.310 2.313 C 0.362 4.264,-0.000 4.633,-0.001 4.670 C -0.001 4.707,0.321 5.035,2.307 7.015 C 4.203 8.907,4.623 9.317,4.656 9.317 C 4.689 9.317,4.823 9.191,5.365 8.650 C 5.991 8.025,6.037 7.982,6.088 7.982 C 6.139 7.982,6.185 8.025,6.806 8.646 C 7.424 9.265,7.469 9.314,7.469 9.364 C 7.469 9.415,7.388 9.499,6.107 10.782 C 5.357 11.532,4.725 12.156,4.701 12.168 C 4.664 12.188,4.653 12.188,4.616 12.168 C 4.592 12.156,3.950 11.521,3.188 10.759 L 1.803 9.372 2.159 9.007 L 2.514 8.642 2.057 8.184 L 1.599 7.726 0.800 8.526 C 0.102 9.224,-0.000 9.332,-0.000 9.372 C -0.000 9.413,0.269 9.687,2.301 11.709 C 4.429 13.827,4.605 14.000,4.657 14.004 C 4.712 14.008,4.746 13.975,7.015 11.705 C 8.838 9.882,9.317 9.394,9.317 9.364 C 9.317 9.334,9.076 9.084,8.184 8.191 C 7.192 7.199,7.050 7.052,7.050 7.011 C 7.050 6.971,7.192 6.823,8.184 5.831 C 9.077 4.938,9.317 4.689,9.317 4.659 C 9.317 4.602,4.716 0.000,4.659 -0.000 C 4.628 -0.001,4.161 0.459,2.310 2.313 M6.091 3.226 C 7.388 4.523,7.469 4.608,7.469 4.658 C 7.469 4.709,7.425 4.757,6.813 5.370 C 6.452 5.732,6.141 6.034,6.121 6.042 C 6.096 6.052,6.073 6.049,6.044 6.034 C 6.021 6.022,5.708 5.718,5.350 5.358 C 4.837 4.845,4.689 4.705,4.659 4.705 C 4.628 4.705,4.480 4.845,3.968 5.358 C 3.609 5.718,3.297 6.022,3.274 6.034 C 3.244 6.049,3.221 6.052,3.196 6.042 C 3.176 6.034,2.864 5.731,2.503 5.369 C 1.894 4.759,1.846 4.707,1.851 4.663 C 1.855 4.623,2.084 4.386,3.233 3.232 C 4.503 1.956,4.614 1.848,4.662 1.848 C 4.709 1.848,4.822 1.957,6.091 3.226 M4.919 6.759 L 5.171 7.012 4.915 7.268 L 4.659 7.523 4.402 7.268 L 4.146 7.012 4.398 6.759 C 4.537 6.620,4.654 6.507,4.659 6.507 C 4.663 6.507,4.780 6.620,4.919 6.759 " stroke="none" fill-rule="evenodd" fill="black"></path></svg>