<svg id="Layer_2" data-name="Layer 2" xmlns="http://www.w3.org/2000/svg" viewBox="0 0 14.31384099 14.31384099"><path d="M6.167 0.954 L 5.213 1.908 5.493 2.189 L 5.773 2.469 6.435 1.807 C 6.947 1.295,7.111 1.145,7.157 1.145 C 7.203 1.145,7.367 1.295,7.878 1.807 L 8.541 2.469 8.821 2.189 L 9.101 1.908 8.147 0.954 C 7.622 0.429,7.177 -0.000,7.157 -0.000 C 7.137 -0.000,6.692 0.429,6.167 0.954 M3.435 3.447 L 2.970 3.913 4.592 5.535 L 6.214 7.157 4.592 8.779 L 2.970 10.401 3.441 10.872 L 3.912 11.344 5.535 9.721 L 7.157 8.099 8.779 9.721 L 10.401 11.344 10.872 10.872 L 11.344 10.401 9.721 8.779 L 8.099 7.157 9.721 5.535 L 11.344 3.912 10.872 3.441 L 10.401 2.970 8.779 4.592 L 7.157 6.214 5.541 4.598 C 4.652 3.709,3.919 2.982,3.912 2.982 C 3.906 2.982,3.691 3.191,3.435 3.447 M0.948 6.173 C 0.427 6.695,0.000 7.137,0.000 7.157 C 0.000 7.177,0.429 7.622,0.954 8.147 L 1.908 9.101 2.189 8.821 L 2.469 8.541 1.807 7.878 C 1.295 7.367,1.145 7.203,1.145 7.157 C 1.145 7.111,1.295 6.947,1.807 6.436 L 2.469 5.773 2.195 5.499 C 2.044 5.348,1.916 5.225,1.909 5.225 C 1.902 5.225,1.470 5.651,0.948 6.173 M12.119 5.499 L 11.845 5.773 12.507 6.436 C 13.019 6.947,13.169 7.111,13.169 7.157 C 13.169 7.203,13.019 7.367,12.507 7.878 L 11.845 8.541 12.125 8.821 L 12.405 9.101 13.360 8.147 C 13.884 7.622,14.314 7.177,14.314 7.157 C 14.314 7.125,12.436 5.225,12.405 5.225 C 12.398 5.225,12.269 5.348,12.119 5.499 M7.634 6.692 L 8.099 7.157 7.628 7.628 L 7.157 8.099 6.686 7.628 L 6.215 7.157 6.680 6.692 C 6.935 6.436,7.150 6.227,7.157 6.227 C 7.164 6.227,7.378 6.436,7.634 6.692 M5.487 12.131 L 5.213 12.406 6.167 13.360 C 6.692 13.884,7.137 14.314,7.157 14.314 C 7.177 14.314,7.622 13.884,8.147 13.360 L 9.101 12.405 8.821 12.125 L 8.541 11.845 7.866 12.519 C 7.495 12.889,7.176 13.193,7.157 13.193 C 7.138 13.193,6.822 12.892,6.454 12.525 C 6.085 12.157,5.779 11.857,5.772 11.857 C 5.766 11.857,5.637 11.980,5.487 12.131 " stroke="none" fill-rule="evenodd" fill="black"></path></svg>