<svg id="Layer_2" data-name="Layer 2" xmlns="http://www.w3.org/2000/svg" viewBox="0 0 12.92160938 12.92545313"><path d="M0.038 0.023 C 0.002 0.044,-0.000 0.373,-0.000 6.458 C -0.000 11.416,0.006 12.876,0.026 12.896 C 0.046 12.916,0.730 12.922,2.975 12.922 L 5.898 12.922 5.932 12.874 C 5.962 12.831,5.965 12.525,5.966 10.026 L 5.966 7.225 6.461 7.722 L 6.956 8.218 6.956 9.428 C 6.956 10.610,6.957 10.640,6.999 10.682 C 7.041 10.724,7.071 10.725,8.330 10.725 C 9.460 10.725,9.623 10.721,9.665 10.691 C 9.691 10.673,9.713 10.642,9.713 10.622 C 9.713 10.603,9.594 10.465,9.448 10.317 C 9.206 10.069,4.673 5.472,4.017 4.808 L 3.735 4.523 3.046 4.523 C 2.457 4.523,2.350 4.527,2.309 4.556 L 2.261 4.590 2.261 7.633 C 2.261 10.142,2.266 10.681,2.290 10.700 C 2.309 10.716,2.512 10.726,2.888 10.730 L 3.457 10.736 3.457 11.263 L 3.457 11.791 2.347 11.797 C 1.324 11.802,1.236 11.799,1.211 11.766 C 1.190 11.737,1.184 10.873,1.184 7.621 C 1.184 3.916,1.188 3.510,1.218 3.480 C 1.248 3.450,1.379 3.446,2.334 3.446 C 3.147 3.446,3.422 3.439,3.441 3.420 C 3.461 3.400,3.467 3.118,3.467 2.283 C 3.467 1.447,3.474 1.165,3.493 1.146 C 3.512 1.127,3.659 1.120,4.018 1.120 C 4.454 1.120,4.520 1.124,4.531 1.154 C 4.538 1.173,4.544 1.742,4.544 2.419 L 4.544 3.649 5.036 4.145 C 5.306 4.418,6.639 5.770,7.998 7.150 C 9.358 8.530,10.488 9.672,10.511 9.688 C 10.547 9.714,10.560 9.713,10.606 9.682 L 10.660 9.647 10.660 5.955 L 10.660 2.264 10.612 2.230 C 10.571 2.201,10.421 2.197,9.422 2.197 C 8.561 2.197,8.272 2.190,8.253 2.171 C 8.216 2.134,8.216 1.182,8.253 1.146 C 8.272 1.126,8.687 1.120,9.985 1.120 C 11.651 1.120,11.693 1.121,11.715 1.162 C 11.750 1.228,11.746 11.717,11.710 11.765 C 11.685 11.799,11.512 11.802,9.325 11.807 L 6.967 11.813 6.961 12.367 L 6.955 12.922 9.913 12.922 C 12.184 12.922,12.876 12.916,12.896 12.896 C 12.916 12.876,12.922 11.416,12.922 6.457 C 12.922 0.139,12.921 0.044,12.880 0.022 C 12.852 0.007,11.894 -0.000,9.931 -0.000 L 7.023 0.000 6.990 0.048 C 6.960 0.091,6.956 0.395,6.956 2.874 L 6.956 5.653 6.461 5.156 L 5.965 4.659 5.965 2.377 C 5.965 0.347,5.962 0.090,5.932 0.048 L 5.898 -0.000 2.987 0.001 C 1.049 0.001,0.063 0.009,0.038 0.023 M3.097 1.146 C 3.116 1.165,3.123 1.404,3.123 2.086 C 3.123 2.907,3.119 3.005,3.087 3.040 C 3.054 3.077,2.996 3.080,2.157 3.080 C 1.356 3.080,1.259 3.076,1.224 3.044 C 1.187 3.011,1.184 2.953,1.184 2.106 C 1.184 1.525,1.192 1.188,1.207 1.162 C 1.228 1.121,1.262 1.120,2.150 1.120 C 2.838 1.120,3.078 1.126,3.097 1.146 " stroke="none" fill-rule="evenodd" fill="black"></path></svg>