<svg id="Layer_2" xmlns="http://www.w3.org/2000/svg" viewBox="0 0 10.4983 14.0874"><path d="M4.231 0.560 L 3.240 1.120 2.451 1.120 L 1.663 1.120 1.658 1.569 L 1.653 2.019 0.836 2.482 C 0.387 2.736,0.014 2.957,0.008 2.973 C -0.003 3.003,0.084 9.831,0.098 9.949 L 0.106 10.020 2.610 12.013 C 3.987 13.110,5.141 14.026,5.173 14.049 C 5.221 14.083,5.241 14.088,5.276 14.075 C 5.300 14.066,6.460 13.150,7.856 12.039 L 10.392 10.020 10.400 9.948 C 10.414 9.831,10.502 3.003,10.490 2.973 C 10.484 2.957,10.111 2.736,9.662 2.482 L 8.845 2.019 8.840 1.569 L 8.835 1.120 8.047 1.120 L 7.258 1.120 6.266 0.560 C 5.720 0.252,5.262 0.000,5.248 0.000 C 5.234 0.000,4.777 0.252,4.231 0.560 M6.205 1.155 L 7.136 1.680 7.715 1.680 L 8.294 1.680 8.294 2.009 L 8.294 2.338 9.109 2.800 C 9.558 3.054,9.929 3.273,9.935 3.288 C 9.941 3.303,9.924 4.757,9.897 6.518 C 9.861 8.870,9.843 9.728,9.828 9.750 C 9.809 9.777,5.396 13.304,5.305 13.364 C 5.275 13.384,5.252 13.387,5.222 13.375 C 5.171 13.356,0.670 9.768,0.659 9.738 C 0.646 9.704,0.551 3.319,0.563 3.288 C 0.569 3.273,0.941 3.054,1.389 2.800 L 2.205 2.338 2.205 2.009 L 2.205 1.680 2.783 1.680 L 3.362 1.680 4.293 1.155 C 4.804 0.866,5.234 0.630,5.248 0.630 C 5.262 0.630,5.692 0.866,6.205 1.155 M2.966 3.021 C 2.071 3.516,1.324 3.935,1.306 3.953 C 1.275 3.983,1.275 4.017,1.289 4.705 L 1.304 5.424 2.957 3.771 C 3.866 2.861,4.607 2.118,4.602 2.119 C 4.597 2.120,3.861 2.525,2.966 3.021 M7.532 3.761 C 8.437 4.666,9.182 5.407,9.188 5.407 C 9.194 5.407,9.204 5.087,9.211 4.696 C 9.223 4.020,9.222 3.983,9.192 3.953 C 9.167 3.928,7.472 2.985,6.054 2.207 L 5.888 2.116 7.532 3.761 M5.139 2.673 L 5.038 3.106 3.655 4.490 L 2.272 5.873 1.858 5.967 C 1.630 6.018,1.429 6.065,1.412 6.071 C 1.394 6.077,1.542 6.123,1.771 6.182 L 2.161 6.283 3.600 7.721 L 5.038 9.160 5.139 9.540 C 5.195 9.750,5.244 9.921,5.249 9.921 C 5.254 9.921,5.303 9.750,5.359 9.540 L 5.460 9.160 6.899 7.721 L 8.337 6.283 8.727 6.182 C 8.956 6.123,9.104 6.077,9.086 6.071 C 9.069 6.065,8.868 6.018,8.641 5.967 L 8.227 5.873 6.843 4.490 L 5.460 3.106 5.360 2.673 C 5.304 2.435,5.255 2.240,5.249 2.240 C 5.244 2.240,5.194 2.435,5.139 2.673 M6.165 5.225 C 6.662 5.716,7.069 6.126,7.069 6.135 C 7.069 6.143,6.660 6.559,6.160 7.059 L 5.251 7.968 4.342 7.050 L 3.432 6.133 4.336 5.227 C 4.833 4.729,5.245 4.324,5.251 4.326 C 5.257 4.329,5.669 4.733,6.165 5.225 M1.324 7.353 C 1.329 7.615,1.338 8.198,1.345 8.648 L 1.356 9.465 1.400 9.508 C 1.452 9.558,5.017 12.318,5.030 12.318 C 5.035 12.318,5.039 11.972,5.039 11.550 L 5.039 10.781 4.990 10.740 C 4.964 10.718,4.349 10.259,3.626 9.722 L 2.310 8.744 2.310 8.296 L 2.310 7.847 1.824 7.362 C 1.557 7.095,1.333 6.876,1.326 6.876 C 1.320 6.876,1.319 7.091,1.324 7.353 M8.674 7.363 L 8.189 7.849 8.189 8.296 L 8.189 8.743 6.873 9.721 C 6.149 10.259,5.535 10.718,5.508 10.740 L 5.459 10.781 5.459 11.550 C 5.459 11.972,5.463 12.318,5.468 12.318 C 5.482 12.318,9.046 9.559,9.099 9.508 L 9.142 9.465 9.154 8.648 C 9.160 8.198,9.169 7.615,9.174 7.353 C 9.180 7.091,9.178 6.876,9.171 6.876 C 9.164 6.876,8.941 7.095,8.674 7.363 " stroke="none" fill-rule="evenodd" fill="black"></path></svg>