<svg id="Layer_2" data-name="Layer 2" xmlns="http://www.w3.org/2000/svg" viewBox="0 0 10.54 13.9583"><path d="M4.251 0.549 L 3.259 1.098 2.473 1.103 L 1.687 1.108 1.682 1.548 L 1.678 1.988 1.239 2.154 C 0.998 2.245,0.798 2.323,0.794 2.327 C 0.786 2.335,1.187 2.910,1.210 2.923 C 1.217 2.928,1.448 2.846,1.723 2.741 L 2.222 2.550 2.227 2.092 L 2.232 1.634 2.806 1.634 L 3.380 1.634 4.308 1.124 C 4.819 0.844,5.252 0.615,5.270 0.615 C 5.287 0.615,5.720 0.844,6.231 1.124 L 7.161 1.634 7.735 1.634 L 8.308 1.634 8.313 2.092 L 8.318 2.550 8.818 2.742 C 9.094 2.847,9.321 2.933,9.323 2.933 C 9.333 2.934,9.753 2.334,9.747 2.328 C 9.743 2.324,9.542 2.246,9.301 2.154 L 8.862 1.988 8.858 1.548 L 8.853 1.108 8.067 1.103 L 7.281 1.098 6.298 0.555 C 5.757 0.256,5.299 0.008,5.279 0.005 C 5.258 0.002,4.856 0.214,4.251 0.549 M4.262 2.187 L 3.596 2.635 3.023 2.639 L 2.451 2.644 2.442 3.065 L 2.433 3.486 1.901 3.734 C 1.608 3.870,1.356 3.995,1.340 4.011 C 1.313 4.037,1.313 4.088,1.332 4.624 C 1.344 4.945,1.353 5.230,1.353 5.257 L 1.353 5.305 2.014 5.305 L 2.674 5.305 3.919 4.400 C 4.604 3.902,5.188 3.481,5.217 3.464 C 5.267 3.436,5.273 3.436,5.323 3.464 C 5.352 3.481,5.936 3.902,6.621 4.400 L 7.866 5.305 8.526 5.305 L 9.187 5.305 9.187 5.257 C 9.187 5.230,9.196 4.945,9.208 4.624 C 9.227 4.088,9.227 4.037,9.200 4.011 C 9.184 3.995,8.932 3.870,8.639 3.734 L 8.107 3.486 8.098 3.065 L 8.089 2.644 7.517 2.639 L 6.944 2.635 6.278 2.186 L 5.613 1.738 5.608 2.406 L 5.603 3.074 5.270 3.074 L 4.937 3.074 4.932 2.406 L 4.927 1.739 4.262 2.187 M0.000 2.661 C 0.000 2.849,0.345 10.363,0.354 10.372 C 0.357 10.376,0.535 10.164,0.748 9.902 L 1.135 9.425 0.991 9.419 L 0.847 9.414 0.836 9.279 C 0.830 9.204,0.766 8.072,0.694 6.763 C 0.622 5.454,0.558 4.314,0.552 4.229 L 0.541 4.075 0.762 4.075 C 0.884 4.075,0.984 4.071,0.984 4.065 C 0.984 4.054,0.044 2.677,0.015 2.645 C 0.006 2.635,0.000 2.641,0.000 2.661 M10.043 3.345 C 9.775 3.735,9.556 4.059,9.556 4.065 C 9.556 4.071,9.655 4.075,9.776 4.075 C 9.897 4.075,9.995 4.078,9.995 4.080 C 9.995 4.118,9.713 9.167,9.705 9.270 L 9.694 9.414 9.549 9.419 L 9.405 9.425 9.801 9.906 C 10.075 10.239,10.199 10.377,10.202 10.354 C 10.206 10.325,10.437 5.108,10.514 3.296 C 10.530 2.940,10.539 2.646,10.536 2.642 C 10.532 2.639,10.310 2.955,10.043 3.345 M4.102 5.379 L 2.960 6.210 2.402 6.215 L 1.844 6.220 1.849 6.716 L 1.853 7.211 2.414 7.216 L 2.974 7.220 4.100 8.041 C 4.873 8.604,5.240 8.861,5.270 8.861 C 5.300 8.861,5.667 8.604,6.440 8.041 L 7.566 7.220 8.126 7.216 L 8.687 7.211 8.691 6.716 L 8.696 6.220 8.138 6.215 L 7.580 6.210 6.447 5.385 C 5.824 4.932,5.298 4.558,5.279 4.554 C 5.254 4.550,4.895 4.802,4.102 5.379 M5.923 5.846 C 6.264 6.095,6.666 6.388,6.816 6.497 C 6.966 6.606,7.088 6.701,7.088 6.709 C 7.088 6.722,6.761 6.963,5.368 7.978 C 5.331 8.005,5.286 8.028,5.270 8.028 C 5.253 8.028,4.856 7.748,4.387 7.406 C 3.919 7.064,3.514 6.771,3.489 6.754 C 3.464 6.738,3.443 6.719,3.443 6.712 C 3.443 6.706,3.568 6.610,3.720 6.500 C 3.872 6.389,4.276 6.095,4.617 5.846 C 4.959 5.597,5.253 5.393,5.270 5.393 C 5.287 5.393,5.581 5.597,5.923 5.846 M1.485 8.559 C 1.492 8.803,1.502 9.052,1.508 9.111 L 1.520 9.219 3.368 10.615 C 4.384 11.383,5.228 12.016,5.243 12.022 C 5.258 12.027,5.282 12.027,5.297 12.022 C 5.312 12.016,6.156 11.383,7.172 10.615 L 9.020 9.219 9.032 9.111 C 9.038 9.051,9.048 8.803,9.055 8.559 L 9.068 8.116 8.465 8.116 L 7.861 8.117 6.582 9.047 C 5.878 9.559,5.288 9.978,5.270 9.978 C 5.252 9.978,4.662 9.559,3.958 9.047 L 2.679 8.117 2.075 8.116 L 1.472 8.116 1.485 8.559 M1.167 10.253 C 1.062 10.385,0.965 10.507,0.954 10.523 C 0.935 10.549,1.185 10.753,3.067 12.246 C 5.069 13.834,5.206 13.939,5.270 13.939 C 5.334 13.939,5.471 13.834,7.473 12.246 C 9.352 10.755,9.605 10.549,9.586 10.523 C 9.459 10.345,9.176 10.014,9.158 10.021 C 9.145 10.025,8.277 10.719,7.227 11.563 C 5.699 12.791,5.310 13.096,5.270 13.096 C 5.230 13.096,4.841 12.791,3.312 11.563 C 2.263 10.719,1.395 10.025,1.382 10.021 C 1.369 10.015,1.282 10.109,1.167 10.253 " stroke="none" fill-rule="evenodd" fill="black"></path></svg>