<svg id="Layer_2" data-name="Layer 2" xmlns="http://www.w3.org/2000/svg" viewBox="0 0 11.0719 14.0176"><path d="M4.513 0.563 L 3.517 1.126 2.681 1.126 L 1.845 1.126 1.845 1.721 L 1.845 2.316 0.964 2.617 C 0.480 2.782,0.064 2.930,0.042 2.945 C 0.011 2.965,0.000 2.989,0.001 3.041 C 0.001 3.078,0.087 4.648,0.192 6.528 C 0.365 9.638,0.386 9.950,0.416 9.984 C 0.434 10.004,1.578 10.915,2.957 12.009 C 5.293 13.860,5.471 13.997,5.536 13.997 C 5.601 13.997,5.779 13.860,8.114 12.009 C 9.494 10.915,10.638 10.004,10.656 9.984 C 10.687 9.950,10.707 9.641,10.880 6.519 C 10.985 4.633,11.071 3.064,11.071 3.031 C 11.072 2.990,11.059 2.964,11.030 2.944 C 11.007 2.929,10.592 2.782,10.107 2.617 L 9.227 2.317 9.227 1.721 L 9.227 1.126 8.391 1.126 L 7.555 1.126 6.568 0.569 C 6.026 0.262,5.565 0.009,5.545 0.006 C 5.523 0.002,5.118 0.220,4.513 0.563 M6.488 1.186 L 7.409 1.707 8.031 1.712 L 8.654 1.718 8.659 2.192 L 8.664 2.666 9.550 2.971 C 10.037 3.139,10.446 3.283,10.458 3.291 C 10.473 3.300,10.481 3.350,10.481 3.429 C 10.480 3.686,10.135 9.703,10.119 9.729 C 10.101 9.760,5.640 13.306,5.576 13.340 C 5.546 13.356,5.526 13.356,5.496 13.340 C 5.431 13.305,0.970 9.760,0.952 9.729 C 0.937 9.702,0.592 3.707,0.591 3.438 C 0.591 3.351,0.599 3.300,0.614 3.291 C 0.626 3.283,1.035 3.139,1.522 2.971 L 2.408 2.666 2.413 2.192 L 2.418 1.718 3.040 1.712 L 3.663 1.707 4.576 1.187 C 5.079 0.902,5.507 0.667,5.529 0.666 C 5.550 0.665,5.982 0.899,6.488 1.186 M5.410 1.107 C 5.291 1.181,5.296 1.107,5.296 2.897 L 5.296 4.521 5.545 4.521 L 5.794 4.521 5.794 2.906 C 5.794 1.160,5.798 1.222,5.696 1.128 C 5.628 1.065,5.492 1.055,5.410 1.107 M4.788 2.463 C 4.322 2.601,3.948 2.823,3.607 3.164 C 3.330 3.441,3.150 3.713,2.999 4.079 C 2.944 4.213,2.842 4.592,2.842 4.661 L 2.842 4.706 3.182 4.706 L 3.523 4.706 3.543 4.627 C 3.722 3.933,4.170 3.423,4.816 3.180 L 4.973 3.121 4.978 2.769 C 4.982 2.494,4.978 2.418,4.960 2.418 C 4.947 2.419,4.869 2.439,4.788 2.463 M6.108 2.773 L 6.108 3.130 6.214 3.164 C 6.360 3.210,6.572 3.319,6.728 3.429 C 7.125 3.709,7.397 4.117,7.529 4.627 L 7.549 4.706 7.889 4.706 L 8.230 4.706 8.230 4.661 C 8.230 4.592,8.127 4.213,8.073 4.079 C 7.809 3.437,7.358 2.951,6.738 2.640 C 6.601 2.571,6.295 2.459,6.159 2.428 L 6.108 2.417 6.108 2.773 M1.855 3.629 C 1.560 3.777,1.316 3.901,1.312 3.905 C 1.300 3.916,1.352 4.835,1.364 4.835 C 1.371 4.835,1.422 4.806,1.477 4.771 L 1.578 4.707 1.988 4.706 L 2.399 4.706 2.399 4.032 C 2.399 3.662,2.397 3.359,2.394 3.359 C 2.392 3.360,2.149 3.481,1.855 3.629 M8.673 4.032 L 8.673 4.706 9.081 4.706 L 9.489 4.706 9.598 4.773 C 9.658 4.810,9.710 4.837,9.714 4.833 C 9.723 4.822,9.768 3.912,9.760 3.904 C 9.756 3.901,9.510 3.776,9.213 3.628 L 8.673 3.358 8.673 4.032 M5.296 5.084 L 5.296 5.333 5.545 5.333 L 5.794 5.333 5.794 5.084 L 5.794 4.835 5.545 4.835 L 5.296 4.835 5.296 5.084 M1.544 4.979 C 1.526 4.999,1.513 5.044,1.513 5.089 C 1.513 5.148,1.523 5.172,1.562 5.202 C 1.610 5.241,1.619 5.241,3.278 5.241 L 4.945 5.241 4.945 5.093 L 4.945 4.945 3.260 4.945 C 1.650 4.945,1.573 4.947,1.544 4.979 M6.126 5.093 L 6.126 5.241 7.794 5.241 C 9.453 5.241,9.462 5.241,9.510 5.202 C 9.567 5.158,9.577 5.053,9.530 4.986 L 9.501 4.945 7.814 4.945 L 6.126 4.945 6.126 5.093 M1.403 5.411 C 1.403 5.444,1.473 6.346,1.558 7.414 C 1.670 8.817,1.719 9.365,1.737 9.387 C 1.772 9.429,3.582 10.873,3.590 10.865 C 3.594 10.861,3.577 10.531,3.552 10.131 C 3.520 9.613,3.500 9.398,3.484 9.383 C 3.471 9.371,3.319 9.251,3.146 9.116 C 2.974 8.980,2.822 8.860,2.809 8.849 C 2.788 8.830,2.565 6.900,2.461 5.827 L 2.427 5.481 2.000 5.481 L 1.574 5.481 1.488 5.415 L 1.402 5.350 1.403 5.411 M9.577 5.418 L 9.494 5.480 9.069 5.480 L 8.644 5.481 8.611 5.817 C 8.547 6.493,8.283 8.830,8.271 8.841 C 8.264 8.848,8.112 8.967,7.935 9.107 C 7.757 9.247,7.601 9.371,7.588 9.383 C 7.571 9.399,7.552 9.610,7.519 10.131 C 7.495 10.531,7.478 10.861,7.482 10.865 C 7.489 10.872,9.224 9.491,9.306 9.412 L 9.359 9.361 9.515 7.407 C 9.600 6.332,9.668 5.431,9.665 5.405 L 9.660 5.357 9.577 5.418 M2.842 5.513 C 2.842 5.531,2.863 5.631,2.888 5.736 C 3.010 6.237,3.248 6.659,3.611 7.015 C 3.806 7.207,3.843 7.238,4.026 7.360 C 4.166 7.454,4.170 7.455,4.309 7.455 L 4.450 7.455 4.702 7.260 C 4.841 7.153,4.955 7.061,4.955 7.055 C 4.955 7.050,4.889 7.021,4.810 6.992 C 4.331 6.818,3.926 6.453,3.695 5.988 C 3.642 5.880,3.584 5.717,3.543 5.559 L 3.523 5.481 3.182 5.481 C 2.870 5.481,2.842 5.483,2.842 5.513 M7.529 5.559 C 7.403 6.058,7.100 6.502,6.701 6.771 C 6.567 6.862,6.271 7.006,6.184 7.024 C 6.153 7.030,6.126 7.042,6.126 7.050 C 6.126 7.058,6.238 7.153,6.374 7.260 L 6.622 7.455 6.762 7.455 C 6.883 7.455,6.913 7.448,6.980 7.405 C 7.282 7.210,7.610 6.894,7.790 6.624 C 7.907 6.449,8.022 6.225,8.093 6.039 C 8.141 5.911,8.230 5.571,8.230 5.513 C 8.230 5.483,8.202 5.481,7.889 5.481 L 7.549 5.481 7.529 5.559 M5.296 6.276 L 5.296 6.813 5.416 6.719 C 5.481 6.667,5.540 6.625,5.547 6.625 C 5.553 6.625,5.612 6.666,5.676 6.717 L 5.794 6.810 5.794 6.274 L 5.794 5.739 5.545 5.739 L 5.296 5.739 5.296 6.276 M4.863 7.475 L 4.439 7.750 4.019 7.750 C 3.631 7.750,3.598 7.753,3.599 7.783 C 3.599 7.800,3.652 8.583,3.718 9.521 C 3.824 11.032,3.841 11.231,3.870 11.258 C 3.888 11.276,4.260 11.590,4.696 11.956 C 5.283 12.449,5.501 12.622,5.536 12.622 C 5.571 12.622,5.788 12.449,6.376 11.956 C 6.812 11.590,7.184 11.276,7.201 11.259 C 7.230 11.231,7.248 11.026,7.354 9.515 C 7.420 8.573,7.474 7.790,7.474 7.776 C 7.474 7.755,7.402 7.750,7.053 7.750 L 6.632 7.750 6.209 7.482 L 5.785 7.213 5.776 8.695 L 5.767 10.177 5.726 10.243 C 5.630 10.396,5.434 10.386,5.352 10.223 C 5.315 10.152,5.315 10.117,5.315 8.674 C 5.315 7.861,5.308 7.197,5.301 7.198 C 5.293 7.199,5.096 7.324,4.863 7.475 " stroke="none" fill-rule="evenodd" fill="black"></path></svg>