<svg id="Layer_2" data-name="Layer 2" xmlns="http://www.w3.org/2000/svg" viewBox="0 0 15.31312351 15.31312351"><path d="M6.196 0.289 C 6.231 1.712,6.279 3.770,6.278 3.894 L 6.278 4.050 5.289 3.747 C 4.030 3.361,4.058 3.370,4.058 3.382 C 4.058 3.387,4.472 3.716,4.978 4.113 C 5.485 4.510,5.889 4.838,5.878 4.842 C 5.867 4.845,4.881 5.067,3.688 5.336 C 2.495 5.604,1.514 5.828,1.508 5.834 C 1.502 5.840,1.559 5.845,1.636 5.845 C 1.712 5.845,2.744 5.873,3.930 5.908 C 6.824 5.992,6.705 5.992,6.776 5.917 C 6.860 5.829,7.591 3.752,7.567 3.671 C 7.537 3.573,6.230 0.103,6.209 0.064 C 6.198 0.045,6.192 0.146,6.196 0.289 M8.626 0.950 C 8.626 0.958,8.402 1.625,8.129 2.431 C 7.855 3.238,7.631 3.910,7.631 3.925 C 7.631 3.955,8.352 4.545,8.369 4.529 C 8.384 4.513,8.652 0.961,8.638 0.947 C 8.632 0.941,8.626 0.942,8.626 0.950 M6.914 2.632 L 7.324 3.721 6.967 4.723 C 6.772 5.273,6.608 5.727,6.604 5.730 C 6.593 5.740,3.546 5.648,3.536 5.637 C 3.530 5.632,4.079 5.503,4.755 5.351 C 5.432 5.200,6.093 5.050,6.226 5.019 L 6.466 4.964 5.865 4.492 C 5.534 4.232,5.266 4.016,5.270 4.012 C 5.274 4.008,5.504 4.074,5.781 4.159 C 6.058 4.244,6.305 4.313,6.331 4.313 C 6.356 4.313,6.414 4.282,6.459 4.244 L 6.541 4.175 6.524 3.395 C 6.515 2.967,6.501 2.369,6.492 2.067 C 6.483 1.765,6.482 1.524,6.490 1.531 C 6.497 1.538,6.688 2.034,6.914 2.632 M8.207 3.425 C 8.185 3.697,8.167 3.952,8.167 3.992 L 8.167 4.064 8.046 3.967 C 7.979 3.914,7.921 3.867,7.916 3.864 C 7.912 3.861,7.981 3.646,8.069 3.386 C 8.158 3.126,8.234 2.917,8.239 2.922 C 8.243 2.926,8.229 3.152,8.207 3.425 M8.467 5.215 C 8.246 5.291,8.077 5.409,7.816 5.672 L 7.606 5.883 8.519 6.797 L 9.433 7.710 9.690 7.446 C 9.892 7.238,9.967 7.141,10.040 6.989 C 10.320 6.406,10.132 5.722,9.593 5.361 C 9.277 5.151,8.828 5.092,8.467 5.215 M9.256 5.466 C 9.518 5.563,9.751 5.799,9.852 6.070 C 9.925 6.264,9.927 6.597,9.856 6.783 C 9.799 6.934,9.673 7.113,9.521 7.260 L 9.416 7.362 8.683 6.627 L 7.950 5.893 8.126 5.725 C 8.227 5.629,8.361 5.530,8.443 5.493 C 8.682 5.384,9.004 5.373,9.256 5.466 M7.159 6.046 C 7.031 6.126,6.790 6.390,6.765 6.477 C 6.716 6.646,6.743 6.679,7.688 7.625 C 8.347 8.284,8.610 8.531,8.671 8.548 C 8.809 8.587,8.905 8.540,9.106 8.338 C 9.301 8.142,9.342 8.050,9.304 7.894 C 9.285 7.815,7.595 6.099,7.473 6.034 C 7.378 5.984,7.250 5.989,7.159 6.046 M8.212 7.101 C 8.678 7.568,9.060 7.967,9.060 7.989 C 9.060 8.011,8.991 8.097,8.907 8.180 L 8.753 8.332 7.867 7.446 L 6.981 6.560 7.133 6.406 C 7.217 6.322,7.302 6.253,7.324 6.253 C 7.345 6.253,7.745 6.635,8.212 7.101 M12.565 6.802 C 11.608 6.876,10.813 6.941,10.799 6.946 C 10.769 6.956,11.349 7.682,11.387 7.682 C 11.407 7.682,14.192 6.746,14.369 6.680 C 14.428 6.657,14.423 6.658,12.565 6.802 M5.571 7.917 C 5.006 8.482,4.543 8.951,4.543 8.959 C 4.543 8.967,4.923 8.992,5.388 9.016 C 5.853 9.039,6.240 9.065,6.248 9.073 C 6.256 9.081,6.280 9.466,6.301 9.929 C 6.321 10.392,6.345 10.770,6.353 10.770 C 6.362 10.770,6.831 10.308,7.395 9.742 C 8.351 8.786,8.422 8.708,8.422 8.626 C 8.422 8.544,8.362 8.478,7.599 7.714 C 6.838 6.954,6.769 6.891,6.688 6.891 C 6.606 6.891,6.526 6.965,5.571 7.917 M11.944 7.236 C 11.685 7.327,11.466 7.400,11.459 7.400 C 11.452 7.399,11.404 7.344,11.352 7.276 L 11.257 7.153 11.709 7.122 C 11.958 7.105,12.173 7.087,12.187 7.082 C 12.201 7.077,12.258 7.073,12.314 7.073 C 12.394 7.072,12.313 7.108,11.944 7.236 M7.369 9.411 L 6.572 10.209 6.542 9.595 C 6.510 8.942,6.496 8.879,6.373 8.833 C 6.327 8.815,5.377 8.754,5.156 8.754 C 5.103 8.754,5.237 8.609,5.896 7.950 L 6.699 7.146 7.433 7.880 L 8.167 8.613 7.369 9.411 M10.515 8.104 C 9.947 8.307,9.453 8.495,9.418 8.521 C 9.357 8.565,9.353 8.583,9.346 8.844 C 9.342 8.996,9.368 10.126,9.404 11.356 C 9.439 12.585,9.469 13.642,9.469 13.704 C 9.469 13.765,9.474 13.811,9.480 13.804 C 9.486 13.798,9.711 12.817,9.979 11.624 C 10.247 10.432,10.469 9.447,10.472 9.435 C 10.475 9.424,10.803 9.828,11.200 10.335 C 11.597 10.841,11.926 11.255,11.931 11.255 C 11.944 11.255,11.938 11.236,11.565 10.019 L 11.263 9.035 11.419 9.035 C 11.543 9.035,13.601 9.082,15.024 9.118 C 15.167 9.121,15.270 9.116,15.254 9.107 C 15.183 9.068,11.674 7.755,11.614 7.745 C 11.573 7.738,11.162 7.873,10.515 8.104 M12.709 8.411 C 13.414 8.675,13.771 8.821,13.730 8.827 C 13.695 8.832,13.099 8.823,12.404 8.806 L 11.142 8.775 11.071 8.854 C 11.032 8.898,11.000 8.955,11.000 8.981 C 11.000 9.007,11.069 9.255,11.154 9.532 C 11.239 9.809,11.305 10.039,11.301 10.043 C 11.297 10.046,11.082 9.779,10.823 9.449 C 10.564 9.118,10.348 8.858,10.344 8.871 C 10.340 8.884,10.189 9.549,10.008 10.349 L 9.680 11.804 9.664 11.408 C 9.635 10.703,9.591 8.923,9.600 8.807 L 9.609 8.694 10.592 8.343 C 11.132 8.150,11.586 7.995,11.600 7.998 C 11.614 8.002,12.113 8.188,12.709 8.411 M3.888 8.946 C 3.789 9.023,3.741 9.157,3.764 9.285 C 3.779 9.367,3.923 9.522,4.857 10.456 C 6.024 11.622,6.003 11.606,6.209 11.538 C 6.342 11.494,6.411 11.404,6.426 11.258 C 6.441 11.097,6.401 11.030,6.127 10.758 L 5.921 10.554 5.921 10.012 L 5.921 9.469 5.378 9.469 L 4.835 9.469 4.619 9.249 C 4.314 8.939,4.230 8.882,4.086 8.882 C 4.000 8.882,3.947 8.899,3.888 8.946 M4.416 9.407 L 4.715 9.702 5.190 9.717 L 5.666 9.732 5.666 10.194 L 5.666 10.656 5.922 10.911 C 6.127 11.115,6.177 11.178,6.171 11.229 C 6.153 11.386,6.090 11.333,5.050 10.294 C 4.490 9.735,4.025 9.255,4.016 9.228 C 4.003 9.186,4.059 9.111,4.105 9.111 C 4.112 9.111,4.252 9.244,4.416 9.407 M3.934 11.186 C 3.486 11.619,2.986 12.038,2.399 12.472 C 1.423 13.194,0.674 13.615,0.203 13.708 C 0.112 13.726,0.033 13.745,0.027 13.749 C 0.014 13.759,1.536 15.288,1.559 15.288 C 1.567 15.288,1.588 15.211,1.605 15.116 C 1.667 14.782,1.904 14.298,2.310 13.677 C 2.842 12.863,3.529 11.996,4.139 11.367 C 4.277 11.225,4.390 11.098,4.390 11.085 C 4.390 11.056,4.256 10.923,4.226 10.923 C 4.215 10.923,4.083 11.041,3.934 11.186 M2.835 12.499 C 2.219 13.311,1.693 14.147,1.492 14.632 L 1.420 14.806 0.964 14.351 L 0.508 13.897 0.656 13.834 C 0.902 13.730,1.271 13.531,1.595 13.329 C 1.887 13.146,2.593 12.654,2.781 12.501 C 2.892 12.411,2.902 12.411,2.835 12.499 " stroke="none" fill-rule="evenodd" fill="black"></path></svg>