<svg id="Layer_2" data-name="Layer 2" xmlns="http://www.w3.org/2000/svg" viewBox="0 0 14.65002441 14.64996338"><path d="M6.940 3.119 L 6.947 6.238 7.325 6.238 L 7.703 6.238 7.710 3.119 L 7.716 0.000 7.325 0.000 L 6.934 -0.000 6.940 3.119 M7.447 3.113 L 7.447 5.982 7.325 5.982 L 7.203 5.982 7.203 3.113 L 7.203 0.244 7.325 0.244 L 7.447 0.244 7.447 3.113 M1.947 1.776 C 1.695 2.028,1.489 2.242,1.489 2.250 C 1.489 2.259,2.006 2.693,2.637 3.214 C 3.268 3.735,3.785 4.168,3.785 4.176 C 3.785 4.184,3.709 4.285,3.617 4.399 C 3.161 4.968,2.836 5.673,2.675 6.440 C 2.641 6.605,2.613 6.756,2.613 6.776 C 2.613 6.807,2.729 6.812,3.473 6.812 L 4.334 6.812 4.388 6.607 C 4.674 5.497,5.511 4.679,6.635 4.408 L 6.812 4.365 6.812 3.499 L 6.812 2.633 6.708 2.649 C 5.839 2.787,5.115 3.088,4.450 3.588 C 4.401 3.625,4.362 3.639,4.348 3.624 C 4.336 3.612,3.901 3.091,3.381 2.466 C 2.862 1.842,2.429 1.328,2.421 1.325 C 2.412 1.321,2.199 1.525,1.947 1.776 M11.293 2.432 C 10.782 3.044,10.346 3.568,10.324 3.597 L 10.283 3.650 10.202 3.589 C 9.525 3.082,8.818 2.788,7.942 2.649 L 7.838 2.633 7.838 3.499 L 7.838 4.365 8.015 4.408 C 9.164 4.685,10.007 5.532,10.304 6.708 L 10.330 6.812 11.186 6.812 L 12.042 6.812 12.025 6.708 C 11.890 5.845,11.541 5.032,11.033 4.399 C 10.941 4.285,10.865 4.184,10.865 4.175 C 10.865 4.167,11.382 3.734,12.013 3.213 C 12.644 2.693,13.161 2.259,13.161 2.250 C 13.161 2.231,12.250 1.318,12.233 1.319 C 12.226 1.320,11.803 1.821,11.293 2.432 M3.357 2.826 C 4.038 3.643,4.313 3.956,4.349 3.956 C 4.377 3.956,4.456 3.907,4.525 3.849 C 5.018 3.431,5.810 3.064,6.477 2.944 L 6.568 2.928 6.568 3.546 L 6.568 4.164 6.359 4.222 C 6.107 4.291,5.638 4.519,5.421 4.678 C 4.819 5.117,4.426 5.654,4.202 6.343 L 4.132 6.556 3.519 6.562 C 3.182 6.566,2.906 6.561,2.906 6.550 C 2.906 6.540,2.938 6.404,2.977 6.249 C 3.157 5.536,3.490 4.915,4.015 4.310 C 4.111 4.199,4.131 4.163,4.111 4.130 C 4.097 4.108,3.600 3.687,3.005 3.195 C 2.411 2.704,1.908 2.285,1.889 2.266 C 1.858 2.235,1.887 2.195,2.114 1.957 C 2.258 1.806,2.384 1.686,2.395 1.690 C 2.405 1.694,2.838 2.205,3.357 2.826 M12.536 1.957 C 12.720 2.150,12.788 2.238,12.770 2.257 C 12.756 2.271,12.254 2.690,11.654 3.186 C 11.055 3.683,10.553 4.108,10.539 4.130 C 10.519 4.163,10.539 4.199,10.635 4.310 C 11.211 4.974,11.583 5.714,11.728 6.489 L 11.743 6.568 11.138 6.568 L 10.533 6.568 10.452 6.330 C 10.221 5.646,9.825 5.112,9.230 4.678 C 9.011 4.519,8.542 4.291,8.291 4.222 L 8.082 4.164 8.082 3.546 L 8.082 2.928 8.173 2.944 C 8.841 3.064,9.579 3.405,10.114 3.841 C 10.191 3.904,10.276 3.956,10.302 3.956 C 10.336 3.956,10.638 3.610,11.298 2.820 C 11.819 2.196,12.252 1.685,12.261 1.685 C 12.270 1.685,12.394 1.807,12.536 1.957 M7.055 6.806 C 6.704 6.984,6.618 7.430,6.879 7.718 C 7.011 7.865,7.135 7.921,7.325 7.921 C 7.515 7.921,7.639 7.865,7.771 7.718 C 8.111 7.342,7.837 6.739,7.325 6.739 C 7.223 6.739,7.153 6.756,7.055 6.806 M0.000 7.325 L 0.000 7.716 3.101 7.716 L 6.202 7.716 6.202 7.325 L 6.202 6.934 3.101 6.934 L 0.000 6.934 0.000 7.325 M8.448 7.325 L 8.448 7.716 11.549 7.716 L 14.650 7.716 14.650 7.325 L 14.650 6.934 11.549 6.934 L 8.448 6.934 8.448 7.325 M7.467 7.017 C 7.593 7.083,7.650 7.169,7.660 7.307 C 7.667 7.405,7.658 7.453,7.620 7.513 C 7.488 7.724,7.162 7.724,7.030 7.513 C 6.967 7.413,6.976 7.206,7.046 7.127 C 7.167 6.991,7.333 6.948,7.467 7.017 M5.958 7.337 L 5.958 7.472 3.101 7.472 L 0.244 7.472 0.244 7.337 L 0.244 7.203 3.101 7.203 L 5.958 7.203 5.958 7.337 M14.406 7.337 L 14.406 7.472 11.549 7.472 L 8.692 7.472 8.692 7.337 L 8.692 7.203 11.549 7.203 L 14.406 7.203 14.406 7.337 M2.588 7.848 C 2.588 7.854,2.616 8.008,2.649 8.190 C 2.794 8.972,3.123 9.696,3.632 10.349 C 3.787 10.548,3.790 10.554,3.745 10.598 C 3.720 10.622,3.205 11.050,2.600 11.549 C 1.996 12.047,1.502 12.463,1.502 12.474 C 1.502 12.484,1.705 12.704,1.954 12.962 L 2.407 13.430 3.371 12.279 C 3.900 11.645,4.341 11.117,4.349 11.104 C 4.357 11.092,4.450 11.144,4.556 11.220 C 5.128 11.631,5.708 11.882,6.410 12.024 C 6.584 12.060,6.746 12.092,6.770 12.097 C 6.810 12.106,6.812 12.052,6.812 11.236 L 6.812 10.365 6.622 10.320 C 5.492 10.054,4.610 9.160,4.359 8.027 L 4.317 7.838 3.453 7.838 C 2.977 7.838,2.588 7.843,2.588 7.848 M10.291 8.027 C 10.202 8.428,10.008 8.854,9.766 9.179 C 9.483 9.558,9.031 9.927,8.612 10.120 C 8.431 10.204,7.965 10.353,7.883 10.353 C 7.840 10.353,7.838 10.389,7.838 11.229 C 7.838 12.051,7.840 12.106,7.880 12.097 C 7.904 12.092,8.066 12.060,8.241 12.024 C 8.939 11.883,9.525 11.629,10.095 11.220 C 10.254 11.106,10.294 11.087,10.315 11.115 C 10.329 11.134,10.768 11.663,11.291 12.290 L 12.242 13.430 12.695 12.962 C 12.944 12.704,13.148 12.484,13.148 12.474 C 13.148 12.463,12.635 12.030,12.007 11.512 C 11.379 10.994,10.866 10.562,10.866 10.553 C 10.866 10.544,10.928 10.459,11.004 10.365 C 11.499 9.752,11.856 8.974,12.001 8.190 C 12.034 8.008,12.062 7.854,12.062 7.848 C 12.062 7.843,11.673 7.838,11.198 7.838 L 10.333 7.838 10.291 8.027 M4.152 8.235 C 4.300 8.858,4.745 9.531,5.286 9.949 C 5.629 10.214,5.861 10.338,6.271 10.475 L 6.556 10.571 6.562 11.182 C 6.570 11.896,6.615 11.830,6.197 11.722 C 5.591 11.565,4.995 11.264,4.505 10.867 C 4.438 10.813,4.365 10.768,4.344 10.768 C 4.323 10.768,3.879 11.279,3.357 11.903 C 2.835 12.528,2.402 13.039,2.394 13.039 C 2.386 13.039,2.259 12.918,2.112 12.770 C 1.880 12.537,1.849 12.497,1.881 12.468 C 1.901 12.449,2.400 12.036,2.991 11.549 C 4.014 10.707,4.126 10.610,4.126 10.571 C 4.126 10.561,4.037 10.445,3.927 10.313 C 3.401 9.677,3.043 8.944,2.909 8.222 L 2.887 8.106 3.505 8.106 L 4.122 8.106 4.152 8.235 M11.715 8.332 C 11.565 9.025,11.221 9.711,10.723 10.313 C 10.613 10.445,10.524 10.561,10.524 10.571 C 10.524 10.610,10.636 10.707,11.659 11.549 C 12.250 12.036,12.750 12.449,12.769 12.468 C 12.801 12.497,12.770 12.537,12.538 12.770 C 12.391 12.918,12.264 13.039,12.256 13.039 C 12.248 13.039,11.815 12.528,11.293 11.903 C 10.771 11.279,10.327 10.768,10.306 10.768 C 10.285 10.768,10.212 10.813,10.145 10.867 C 9.658 11.262,9.056 11.566,8.453 11.722 C 8.035 11.830,8.080 11.896,8.088 11.182 L 8.094 10.571 8.379 10.476 C 8.719 10.361,8.880 10.283,9.175 10.085 C 9.617 9.790,9.982 9.383,10.229 8.911 C 10.348 8.683,10.474 8.359,10.511 8.186 L 10.527 8.106 11.146 8.106 L 11.764 8.106 11.715 8.332 M6.934 11.561 L 6.934 14.626 7.325 14.626 L 7.716 14.626 7.716 11.561 L 7.716 8.497 7.325 8.497 L 6.934 8.497 6.934 11.561 M7.447 11.574 L 7.447 14.406 7.325 14.406 L 7.203 14.406 7.203 11.574 L 7.203 8.741 7.325 8.741 L 7.447 8.741 7.447 11.574 " stroke="none" fill-rule="evenodd" fill="black"></path></svg>