<svg id="Layer_2" data-name="Layer 2" xmlns="http://www.w3.org/2000/svg" viewBox="0 0 14.02480684 14.02492523"><path d="M8.415 0.008 C 8.415 0.017,8.968 2.448,8.990 2.536 C 8.998 2.569,9.008 2.593,9.013 2.589 C 9.017 2.585,9.148 2.019,9.303 1.331 C 9.459 0.644,9.591 0.063,9.598 0.041 C 9.609 0.003,9.571 0.000,9.013 0.000 C 8.684 0.000,8.415 0.003,8.415 0.008 M9.280 0.275 C 9.281 0.305,9.015 1.473,9.008 1.466 C 8.998 1.456,8.742 0.324,8.742 0.289 C 8.742 0.264,8.799 0.257,9.011 0.257 C 9.159 0.257,9.280 0.265,9.280 0.275 M2.633 3.372 C 2.683 3.440,2.923 3.767,3.167 4.098 C 3.412 4.429,3.614 4.707,3.617 4.717 C 3.621 4.727,2.832 4.938,1.864 5.188 C 0.897 5.437,0.089 5.649,0.070 5.659 C 0.051 5.669,0.076 5.673,0.129 5.667 C 0.180 5.662,1.897 5.587,3.944 5.500 C 5.990 5.413,7.658 5.335,7.648 5.328 C 7.639 5.320,6.522 4.863,5.166 4.313 C 3.809 3.762,2.665 3.297,2.622 3.279 L 2.544 3.247 2.633 3.372 M8.783 4.108 C 7.873 4.553,7.137 4.925,7.146 4.934 C 7.156 4.943,7.394 4.990,7.674 5.039 L 8.184 5.128 5.564 7.747 C 4.124 9.188,2.945 10.375,2.945 10.384 C 2.945 10.394,3.098 10.402,3.284 10.402 L 3.623 10.402 3.623 10.741 C 3.623 10.927,3.631 11.080,3.641 11.080 C 3.650 11.080,4.837 9.901,6.277 8.460 L 8.897 5.841 8.986 6.351 C 9.035 6.631,9.082 6.869,9.091 6.879 C 9.105 6.894,10.694 3.678,10.737 3.547 C 10.773 3.440,10.648 3.295,10.520 3.297 C 10.459 3.298,9.989 3.517,8.783 4.108 M10.407 3.664 C 9.442 5.647,9.219 6.099,9.209 6.100 C 9.202 6.100,9.166 5.927,9.129 5.714 L 9.061 5.326 6.471 7.917 L 3.880 10.507 3.880 10.326 L 3.880 10.145 3.699 10.145 L 3.518 10.145 6.108 7.555 L 8.697 4.965 8.300 4.897 C 8.082 4.859,7.908 4.823,7.914 4.817 C 7.924 4.807,10.431 3.577,10.443 3.577 C 10.447 3.576,10.430 3.616,10.407 3.664 M4.938 4.492 C 5.797 4.841,6.496 5.129,6.492 5.133 C 6.479 5.146,2.666 5.309,2.556 5.301 C 2.470 5.296,2.594 5.258,3.226 5.096 C 3.652 4.986,4.011 4.890,4.024 4.882 C 4.038 4.874,3.894 4.658,3.689 4.380 C 3.262 3.802,3.274 3.820,3.333 3.842 C 3.358 3.851,4.080 4.144,4.938 4.492 M13.207 4.603 C 12.776 4.703,12.200 4.835,11.927 4.897 C 11.654 4.959,11.434 5.014,11.439 5.019 C 11.447 5.027,13.993 5.610,14.018 5.610 C 14.022 5.610,14.025 5.342,14.025 5.014 C 14.025 4.686,14.017 4.419,14.007 4.420 C 13.998 4.422,13.637 4.504,13.207 4.603 M13.768 5.022 L 13.768 5.300 13.423 5.221 C 12.673 5.049,12.542 5.016,12.576 5.008 C 12.961 4.915,13.696 4.748,13.727 4.747 C 13.764 4.745,13.768 4.773,13.768 5.022 M4.909 5.704 C 4.131 5.740,3.469 5.772,3.438 5.777 C 3.405 5.782,3.612 5.853,3.929 5.946 C 4.230 6.035,4.637 6.155,4.833 6.213 C 5.029 6.270,5.189 6.325,5.189 6.335 C 5.189 6.344,4.894 6.876,4.532 7.518 C 4.171 8.159,3.807 8.805,3.724 8.953 L 3.573 9.221 3.799 8.999 C 3.923 8.877,4.656 8.138,5.428 7.357 L 6.831 5.936 6.818 5.837 C 6.809 5.771,6.785 5.721,6.744 5.686 C 6.668 5.621,6.747 5.620,4.909 5.704 M5.631 6.798 C 5.137 7.297,4.730 7.703,4.727 7.701 C 4.723 7.699,4.911 7.358,5.145 6.944 C 5.378 6.530,5.560 6.183,5.549 6.173 C 5.537 6.163,5.389 6.114,5.218 6.065 C 5.048 6.016,4.913 5.972,4.919 5.966 C 4.929 5.956,6.036 5.899,6.344 5.894 L 6.528 5.890 5.631 6.798 M8.525 10.081 C 8.438 12.128,8.362 13.845,8.356 13.896 C 8.349 13.954,8.352 13.976,8.365 13.955 C 8.376 13.935,8.589 13.128,8.838 12.161 C 9.087 11.193,9.299 10.404,9.308 10.408 C 9.318 10.411,9.596 10.613,9.927 10.858 C 10.258 11.102,10.585 11.342,10.653 11.391 L 10.778 11.481 10.746 11.403 C 10.728 11.360,10.263 10.215,9.713 8.859 C 9.162 7.503,8.705 6.385,8.697 6.376 C 8.689 6.367,8.612 8.034,8.525 10.081 M6.603 8.662 L 4.803 10.448 6.238 9.642 C 7.026 9.198,7.681 8.836,7.692 8.836 C 7.703 8.836,7.743 8.938,7.782 9.064 C 7.821 9.189,7.941 9.570,8.050 9.911 L 8.246 10.530 8.260 10.378 C 8.281 10.148,8.420 6.975,8.411 6.922 C 8.405 6.887,7.970 7.306,6.603 8.662 M8.113 8.104 C 8.099 8.423,8.081 8.778,8.073 8.894 L 8.058 9.104 7.958 8.793 C 7.904 8.622,7.853 8.477,7.847 8.470 C 7.840 8.463,7.496 8.648,7.084 8.880 C 6.671 9.113,6.328 9.303,6.322 9.303 C 6.315 9.303,6.718 8.899,7.216 8.406 C 7.715 7.912,8.126 7.511,8.131 7.516 C 8.136 7.520,8.128 7.785,8.113 8.104 M9.559 9.148 C 9.908 10.008,10.190 10.715,10.185 10.720 C 10.179 10.725,9.946 10.560,9.666 10.353 C 9.386 10.146,9.150 9.988,9.142 10.000 C 9.134 10.013,9.038 10.373,8.929 10.800 C 8.820 11.226,8.727 11.550,8.724 11.520 C 8.720 11.490,8.754 10.617,8.800 9.581 C 8.845 8.544,8.883 7.656,8.883 7.606 C 8.884 7.543,8.890 7.526,8.904 7.550 C 8.915 7.569,9.210 8.288,9.559 9.148 M2.431 11.115 L 2.431 11.594 2.910 11.594 L 3.389 11.594 3.389 11.115 L 3.389 10.635 2.910 10.635 L 2.431 10.635 2.431 11.115 M3.132 11.126 L 3.132 11.360 2.910 11.360 L 2.688 11.360 2.688 11.126 L 2.688 10.893 2.910 10.893 L 3.132 10.893 3.132 11.126 M1.391 11.921 L 0.620 12.692 0.976 13.049 L 1.332 13.405 2.110 12.628 L 2.887 11.851 2.531 11.851 L 2.175 11.851 2.169 11.500 L 2.162 11.149 1.391 11.921 M2.099 12.108 L 2.279 12.108 1.806 12.581 L 1.332 13.054 1.151 12.873 L 0.970 12.692 1.438 12.225 L 1.905 11.757 1.912 11.932 L 1.919 12.108 2.099 12.108 " stroke="none" fill-rule="evenodd" fill="black"></path></svg>