<svg id="Layer_2" data-name="Layer 2" xmlns="http://www.w3.org/2000/svg" viewBox="0 0 13.73687654 14.13000488"><path d="M1.751 0.027 C 1.625 0.096,1.627 0.088,1.627 0.904 C 1.627 1.586,1.630 1.665,1.666 1.709 C 1.745 1.806,1.772 1.809,2.647 1.809 L 3.488 1.809 3.327 1.920 C 2.837 2.257,2.237 2.815,1.920 3.228 C 1.326 4.003,0.942 4.804,0.746 5.682 C 0.625 6.226,0.560 6.912,0.618 7.051 C 0.676 7.191,0.654 7.189,2.010 7.189 L 3.245 7.189 3.258 6.874 C 3.291 6.079,3.591 5.334,4.123 4.718 C 4.770 3.971,5.765 3.503,6.707 3.503 L 6.937 3.503 6.937 1.826 C 6.936 0.271,6.933 0.145,6.897 0.100 C 6.875 0.073,6.834 0.040,6.807 0.026 C 6.737 -0.010,1.817 -0.009,1.751 0.027 M6.685 1.748 L 6.685 3.244 6.496 3.258 C 5.474 3.330,4.429 3.897,3.797 4.723 C 3.343 5.315,3.055 6.052,3.006 6.748 L 2.992 6.937 1.917 6.937 L 0.841 6.937 0.857 6.691 C 0.909 5.890,1.098 5.171,1.441 4.476 C 1.650 4.050,1.806 3.796,2.071 3.446 C 2.566 2.792,3.201 2.250,3.961 1.831 C 4.106 1.751,4.276 1.657,4.339 1.621 L 4.453 1.557 3.165 1.557 L 1.877 1.557 1.877 0.904 L 1.877 0.252 4.281 0.252 L 6.685 0.252 6.685 1.748 M12.149 0.839 C 10.020 3.653,9.485 4.363,9.491 4.369 C 9.498 4.377,13.649 1.463,13.708 1.410 C 13.730 1.390,13.604 1.252,13.167 0.815 L 12.598 0.246 12.149 0.839 M13.341 1.364 C 13.315 1.386,10.755 3.185,10.703 3.218 C 10.658 3.247,10.643 3.250,10.660 3.228 C 11.196 2.515,12.365 0.968,12.473 0.828 L 12.621 0.636 12.984 0.998 C 13.183 1.197,13.344 1.362,13.341 1.364 M6.342 4.109 C 5.957 4.174,5.572 4.316,5.253 4.511 C 4.769 4.807,4.362 5.257,4.122 5.758 C 3.906 6.211,3.835 6.535,3.835 7.063 C 3.835 7.353,3.846 7.502,3.877 7.647 C 4.002 8.231,4.260 8.720,4.663 9.137 C 5.226 9.717,5.894 10.015,6.697 10.044 C 7.112 10.059,7.402 10.020,7.757 9.901 C 8.405 9.684,8.932 9.283,9.308 8.720 C 9.894 7.843,9.967 6.692,9.498 5.738 C 9.069 4.865,8.241 4.260,7.269 4.108 C 7.019 4.069,6.575 4.070,6.342 4.109 M7.212 4.350 C 7.783 4.439,8.298 4.691,8.709 5.082 C 9.264 5.612,9.547 6.281,9.547 7.063 C 9.547 7.692,9.355 8.269,8.986 8.746 C 8.758 9.040,8.369 9.358,8.025 9.530 C 7.425 9.830,6.644 9.883,5.966 9.669 C 4.848 9.316,4.075 8.251,4.075 7.063 C 4.075 5.734,5.026 4.601,6.340 4.363 C 6.548 4.325,7.005 4.319,7.212 4.350 M6.617 5.656 C 6.300 5.694,6.012 5.845,5.774 6.100 C 5.506 6.387,5.399 6.662,5.398 7.063 C 5.398 7.499,5.537 7.811,5.866 8.116 C 6.411 8.621,7.261 8.611,7.794 8.095 C 7.974 7.921,8.086 7.747,8.166 7.517 C 8.221 7.361,8.228 7.303,8.228 7.063 C 8.228 6.824,8.221 6.765,8.167 6.610 C 8.039 6.242,7.788 5.957,7.435 5.778 C 7.224 5.671,6.898 5.622,6.617 5.656 M7.190 5.951 C 7.371 6.008,7.527 6.111,7.679 6.275 C 7.925 6.541,8.028 6.883,7.972 7.250 C 7.908 7.668,7.600 8.035,7.199 8.174 C 6.637 8.368,6.020 8.107,5.754 7.562 L 5.666 7.384 5.666 7.063 L 5.666 6.743 5.754 6.564 C 5.917 6.230,6.255 5.966,6.594 5.908 C 6.760 5.880,7.021 5.899,7.190 5.951 M10.384 7.183 C 10.324 8.186,9.974 8.969,9.292 9.628 C 8.641 10.257,7.896 10.575,6.931 10.635 L 6.684 10.651 6.691 12.322 L 6.697 13.992 6.771 14.059 L 6.846 14.126 9.353 14.126 L 11.859 14.126 11.934 14.059 L 12.008 13.992 12.008 13.224 L 12.008 12.456 11.945 12.392 L 11.881 12.329 11.020 12.317 L 10.158 12.306 10.316 12.201 C 10.763 11.904,11.311 11.398,11.655 10.967 C 12.230 10.246,12.603 9.512,12.842 8.631 C 12.986 8.101,13.082 7.194,13.008 7.058 C 12.942 6.937,12.943 6.937,11.622 6.937 L 10.399 6.937 10.384 7.183 M12.775 7.356 C 12.775 8.029,12.526 8.996,12.168 9.707 C 11.858 10.325,11.540 10.762,11.025 11.277 C 10.559 11.745,10.190 12.017,9.580 12.349 C 9.404 12.444,9.245 12.532,9.227 12.544 C 9.204 12.559,9.631 12.567,10.480 12.568 L 11.768 12.569 11.768 13.222 L 11.768 13.874 9.353 13.874 L 6.937 13.874 6.937 12.375 L 6.937 10.875 7.057 10.875 C 7.123 10.874,7.270 10.860,7.384 10.843 C 9.031 10.589,10.321 9.313,10.590 7.671 C 10.608 7.563,10.623 7.427,10.623 7.368 C 10.624 7.172,10.522 7.189,11.713 7.189 L 12.775 7.189 12.775 7.356 M2.073 11.275 C 0.953 12.121,0.034 12.823,0.030 12.834 C 0.022 12.858,1.137 13.981,1.153 13.965 C 1.192 13.923,4.124 9.748,4.118 9.743 C 4.113 9.739,3.193 10.428,2.073 11.275 M2.908 11.041 C 2.844 11.132,2.413 11.745,1.951 12.402 L 1.110 13.596 0.744 13.232 C 0.397 12.886,0.381 12.866,0.424 12.835 C 0.449 12.817,1.041 12.369,1.740 11.840 C 2.439 11.310,3.014 10.877,3.018 10.876 C 3.022 10.876,2.973 10.950,2.908 11.041 " stroke="none" fill-rule="evenodd" fill="black"></path></svg>