<svg id="Layer_2" data-name="Layer 2" xmlns="http://www.w3.org/2000/svg" viewBox="0 0 14.21781231 14.80963846"><path d="M12.288 0.817 C 11.379 1.266,10.519 1.689,10.377 1.757 C 10.234 1.824,10.122 1.884,10.128 1.889 C 10.133 1.895,10.416 1.950,10.755 2.011 L 11.373 2.123 8.968 4.527 C 7.646 5.849,6.564 6.939,6.564 6.949 C 6.564 6.959,6.719 6.967,6.907 6.967 L 7.251 6.967 7.251 7.310 C 7.251 7.499,7.259 7.654,7.269 7.654 C 7.279 7.654,8.369 6.572,9.691 5.250 L 12.095 2.845 12.207 3.463 C 12.268 3.802,12.322 4.084,12.327 4.089 C 12.347 4.109,14.206 0.297,14.213 0.222 C 14.223 0.118,14.115 -0.000,14.010 -0.000 C 13.966 -0.000,13.323 0.305,12.288 0.817 M13.579 1.001 C 12.684 2.827,12.443 3.303,12.432 3.270 C 12.426 3.251,12.386 3.037,12.343 2.796 C 12.301 2.555,12.263 2.353,12.258 2.347 C 12.253 2.341,11.183 3.402,9.880 4.705 L 7.512 7.073 7.512 6.890 L 7.512 6.706 7.328 6.706 L 7.145 6.706 9.511 4.340 C 10.813 3.038,11.868 1.968,11.857 1.961 C 11.846 1.954,11.631 1.913,11.380 1.870 C 11.129 1.826,10.924 1.785,10.924 1.778 C 10.925 1.769,13.873 0.304,13.926 0.286 C 13.928 0.285,13.772 0.607,13.579 1.001 M8.715 1.859 C 8.480 1.940,5.383 3.259,5.397 3.272 C 5.407 3.281,5.665 3.354,5.971 3.435 C 6.278 3.516,6.533 3.588,6.539 3.593 C 6.545 3.599,5.646 4.508,4.541 5.612 L 2.533 7.621 2.846 7.648 C 3.033 7.664,3.166 7.686,3.176 7.703 C 3.186 7.718,3.201 7.838,3.210 7.971 C 3.219 8.103,3.232 8.236,3.239 8.267 C 3.251 8.316,3.489 8.087,5.262 6.314 L 7.271 4.305 7.295 4.398 C 7.405 4.817,7.586 5.485,7.591 5.490 C 7.603 5.502,9.009 2.143,9.021 2.072 C 9.030 2.017,9.018 1.982,8.972 1.927 C 8.900 1.841,8.825 1.821,8.715 1.859 M8.207 3.403 C 7.912 4.105,7.663 4.688,7.654 4.699 C 7.645 4.709,7.587 4.522,7.524 4.284 C 7.461 4.046,7.405 3.846,7.400 3.840 C 7.395 3.834,6.501 4.719,5.414 5.807 L 3.436 7.784 3.436 7.686 C 3.436 7.502,3.413 7.441,3.344 7.440 C 3.310 7.440,3.241 7.433,3.191 7.425 L 3.099 7.410 5.073 5.437 L 7.046 3.464 6.953 3.439 C 6.427 3.299,6.154 3.224,6.147 3.217 C 6.138 3.208,8.728 2.112,8.738 2.120 C 8.742 2.123,8.503 2.700,8.207 3.403 M9.107 7.058 C 8.271 7.366,7.580 7.624,7.573 7.632 C 7.566 7.639,7.817 7.728,8.132 7.830 L 8.704 8.014 6.933 9.785 L 5.162 11.555 5.466 11.599 C 5.633 11.622,5.772 11.643,5.775 11.645 C 5.777 11.647,5.796 11.760,5.817 11.896 C 5.838 12.033,5.860 12.170,5.867 12.202 C 5.878 12.253,6.075 12.065,7.643 10.497 C 8.612 9.527,9.410 8.739,9.415 8.745 C 9.421 8.751,9.508 9.012,9.609 9.325 C 9.710 9.637,9.799 9.877,9.806 9.858 C 9.813 9.838,10.072 9.130,10.383 8.283 C 10.694 7.436,10.948 6.720,10.948 6.691 C 10.948 6.662,10.920 6.606,10.886 6.566 C 10.835 6.505,10.809 6.493,10.726 6.495 C 10.660 6.496,10.133 6.679,9.107 7.058 M10.247 7.927 C 10.018 8.552,9.822 9.072,9.813 9.082 C 9.803 9.092,9.738 8.921,9.669 8.703 C 9.599 8.484,9.537 8.296,9.531 8.285 C 9.525 8.274,8.739 9.045,7.784 10.000 L 6.049 11.735 6.032 11.620 C 6.005 11.424,6.006 11.425,5.852 11.408 C 5.774 11.399,5.711 11.385,5.711 11.377 C 5.711 11.369,6.484 10.589,7.429 9.644 C 8.374 8.700,9.147 7.919,9.147 7.910 C 9.147 7.902,8.958 7.834,8.726 7.759 C 8.399 7.654,8.316 7.620,8.353 7.604 C 8.545 7.520,10.653 6.762,10.658 6.774 C 10.661 6.783,10.476 7.302,10.247 7.927 M6.090 7.618 L 6.090 8.128 6.599 8.128 L 7.109 8.128 7.109 7.618 L 7.109 7.109 6.599 7.109 L 6.090 7.109 6.090 7.618 M6.848 7.618 L 6.848 7.867 6.599 7.867 L 6.351 7.867 6.351 7.618 L 6.351 7.370 6.599 7.370 L 6.848 7.370 6.848 7.618 M4.976 8.519 L 4.040 9.455 4.402 9.816 L 4.763 10.177 5.699 9.242 C 6.214 8.727,6.635 8.298,6.635 8.288 C 6.635 8.278,6.480 8.270,6.291 8.270 L 5.948 8.270 5.948 7.926 C 5.948 7.737,5.940 7.583,5.930 7.583 C 5.920 7.583,5.491 8.004,4.976 8.519 M2.062 8.306 L 2.062 8.816 2.565 8.810 L 3.069 8.803 3.075 8.300 L 3.081 7.796 2.572 7.796 L 2.062 7.796 2.062 8.306 M2.820 8.306 L 2.820 8.554 2.559 8.554 L 2.299 8.554 2.299 8.306 L 2.299 8.057 2.559 8.057 L 2.820 8.057 2.820 8.306 M5.872 8.531 L 6.054 8.531 5.409 9.176 L 4.763 9.822 4.580 9.638 L 4.396 9.455 5.036 8.815 L 5.675 8.175 5.682 8.353 L 5.689 8.531 5.872 8.531 M0.942 9.212 L -0.000 10.154 0.355 10.509 L 0.711 10.864 1.665 9.911 L 2.618 8.957 2.258 8.957 L 1.897 8.957 1.890 8.613 L 1.884 8.270 0.942 9.212 M1.819 9.218 L 1.991 9.230 1.351 9.869 L 0.711 10.509 0.533 10.332 L 0.355 10.155 0.989 9.520 L 1.623 8.885 1.635 9.046 L 1.647 9.206 1.819 9.218 M4.668 12.251 L 4.668 12.749 5.178 12.749 L 5.687 12.749 5.687 12.251 L 5.687 11.753 5.178 11.753 L 4.668 11.753 4.668 12.251 M5.426 12.251 L 5.426 12.512 5.178 12.512 L 4.929 12.512 4.929 12.251 L 4.929 11.990 5.178 11.990 L 5.426 11.990 5.426 12.251 M3.567 13.151 L 2.619 14.099 2.962 14.443 C 3.151 14.632,3.316 14.787,3.329 14.787 C 3.342 14.787,3.774 14.365,4.289 13.851 L 5.225 12.915 4.876 12.915 L 4.527 12.915 4.521 12.559 L 4.514 12.203 3.567 13.151 M4.450 13.151 L 4.632 13.151 3.981 13.803 L 3.330 14.455 3.152 14.277 L 2.974 14.099 3.614 13.459 L 4.253 12.819 4.260 12.985 L 4.267 13.151 4.450 13.151 " stroke="none" fill-rule="evenodd" fill="black"></path></svg>