<svg id="Layer_2" data-name="Layer 2" xmlns="http://www.w3.org/2000/svg" viewBox="0 0 13.41479579 13.41479579"><path d="M9.917 0.298 L 12.825 0.591 13.110 3.264 C 13.267 4.733,13.398 5.951,13.402 5.970 C 13.406 5.988,13.411 4.688,13.412 3.080 L 13.415 0.157 13.350 0.084 L 13.284 0.011 10.147 0.008 L 7.009 0.005 9.917 0.298 M13.169 0.764 C 13.169 1.049,13.165 1.278,13.160 1.273 C 13.155 1.267,13.134 1.097,13.112 0.894 C 13.091 0.691,13.059 0.497,13.042 0.462 C 12.994 0.369,12.909 0.345,12.465 0.302 C 12.243 0.281,12.058 0.259,12.053 0.255 C 12.048 0.250,12.297 0.246,12.606 0.246 L 13.169 0.246 13.169 0.764 M4.412 1.515 C 3.438 2.016,2.644 2.428,2.647 2.431 C 2.650 2.434,3.104 2.285,3.657 2.101 C 4.209 1.917,4.664 1.766,4.667 1.766 C 4.670 1.766,4.673 3.087,4.673 4.701 L 4.673 7.636 4.170 8.138 L 3.667 8.641 3.667 8.147 L 3.667 7.653 3.529 7.638 C 3.454 7.631,3.147 7.624,2.849 7.624 L 2.306 7.624 2.299 8.820 L 2.292 10.016 1.146 11.162 L 0.000 12.308 0.553 12.861 L 1.107 13.415 2.253 12.269 L 3.399 11.123 4.595 11.116 L 5.791 11.109 5.791 10.429 L 5.791 9.748 5.282 9.748 L 4.774 9.748 5.276 9.245 L 5.779 8.742 8.714 8.742 C 10.328 8.742,11.649 8.745,11.649 8.748 C 11.649 8.751,11.498 9.206,11.314 9.758 C 11.129 10.310,10.981 10.765,10.984 10.768 C 10.996 10.780,12.778 7.307,12.797 7.236 C 12.812 7.180,12.725 6.735,12.368 5.055 L 11.921 2.945 11.796 2.819 L 11.671 2.693 11.671 2.230 L 11.671 1.766 11.211 1.766 L 10.750 1.766 10.610 1.631 L 10.469 1.496 8.365 1.050 C 7.208 0.804,6.244 0.604,6.222 0.604 C 6.200 0.604,5.385 1.014,4.412 1.515 M8.552 1.344 L 10.363 1.727 10.509 1.869 L 10.655 2.012 11.029 2.012 L 11.403 2.012 11.403 2.386 L 11.403 2.760 11.542 2.901 L 11.682 3.042 12.120 5.104 L 12.559 7.166 12.416 7.451 C 12.338 7.608,12.270 7.736,12.266 7.736 C 12.261 7.736,12.293 7.633,12.336 7.507 L 12.414 7.278 12.029 5.623 C 11.818 4.713,11.642 3.966,11.638 3.962 C 11.635 3.958,11.323 3.949,10.946 3.942 L 10.260 3.928 9.685 4.501 L 9.110 5.075 9.031 4.996 L 8.953 4.918 7.614 6.226 L 6.276 7.535 6.067 7.535 L 5.858 7.535 5.858 7.317 L 5.858 7.099 7.177 5.779 L 8.497 4.459 8.418 4.382 L 8.339 4.306 8.911 3.732 L 9.483 3.159 9.476 2.475 C 9.472 2.100,9.464 1.788,9.457 1.782 C 9.451 1.776,8.699 1.598,7.785 1.386 L 6.123 1.002 5.901 1.078 C 5.779 1.121,5.679 1.152,5.679 1.148 C 5.679 1.144,5.807 1.077,5.963 0.998 L 6.246 0.856 6.494 0.909 C 6.630 0.937,7.556 1.133,8.552 1.344 M7.696 1.623 C 8.523 1.814,9.202 1.973,9.204 1.975 C 9.206 1.977,9.216 2.224,9.224 2.523 L 9.241 3.067 8.610 3.698 L 7.979 4.330 8.061 4.393 L 8.143 4.455 6.866 5.732 L 5.589 7.009 5.590 7.356 C 5.590 7.546,5.596 7.725,5.604 7.753 C 5.617 7.802,5.622 7.803,5.989 7.803 L 6.361 7.803 7.655 6.535 L 8.950 5.268 9.019 5.350 L 9.089 5.433 9.715 4.805 L 10.341 4.176 10.888 4.191 C 11.188 4.199,11.437 4.208,11.439 4.210 C 11.442 4.213,11.603 4.901,11.797 5.741 L 12.150 7.267 12.006 7.703 L 11.862 8.138 8.702 8.138 C 6.440 8.138,5.528 8.145,5.493 8.163 C 5.466 8.177,5.017 8.613,4.494 9.134 L 3.544 10.080 3.427 10.095 L 3.311 10.110 3.324 9.990 L 3.337 9.871 4.307 8.897 L 5.276 7.924 5.282 4.739 L 5.288 1.554 5.690 1.416 C 5.911 1.340,6.115 1.277,6.142 1.276 C 6.170 1.275,6.869 1.431,7.696 1.623 M4.060 8.787 L 3.090 9.759 3.062 10.056 C 3.046 10.219,3.040 10.358,3.048 10.366 C 3.056 10.374,3.197 10.368,3.362 10.352 L 3.662 10.323 4.631 9.354 L 5.600 8.384 8.771 8.384 C 11.934 8.384,11.941 8.384,11.917 8.429 C 11.893 8.473,11.870 8.474,8.841 8.474 C 6.275 8.474,5.778 8.479,5.717 8.505 C 5.678 8.522,5.319 8.863,4.919 9.265 L 4.192 9.994 4.857 9.994 L 5.522 9.994 5.522 10.225 C 5.522 10.353,5.529 10.548,5.537 10.661 L 5.551 10.864 4.430 10.871 L 3.309 10.877 2.214 11.973 L 1.118 13.068 0.732 12.682 L 0.347 12.297 1.442 11.201 L 2.538 10.106 2.544 8.985 L 2.550 7.863 2.767 7.878 C 2.887 7.886,3.083 7.892,3.203 7.892 L 3.421 7.892 3.421 8.557 L 3.421 9.223 4.175 8.468 L 4.930 7.713 4.936 4.622 C 4.941 1.712,4.944 1.530,4.980 1.503 C 5.017 1.475,5.020 1.633,5.025 4.644 L 5.031 7.814 4.060 8.787 M4.086 2.884 C 4.076 2.910,3.709 7.021,3.711 7.093 C 3.711 7.102,3.882 7.110,4.092 7.110 C 4.425 7.110,4.472 7.105,4.472 7.074 C 4.472 7.037,4.119 3.005,4.107 2.907 C 4.102 2.868,4.096 2.861,4.086 2.884 M4.190 6.735 L 4.203 6.864 4.104 6.864 C 4.049 6.864,4.000 6.856,3.995 6.847 C 3.986 6.832,4.079 5.772,4.091 5.746 C 4.094 5.740,4.115 5.931,4.137 6.171 C 4.159 6.411,4.183 6.665,4.190 6.735 M6.305 9.323 L 6.305 9.710 6.422 9.698 C 6.487 9.691,7.437 9.607,8.535 9.511 C 9.632 9.415,10.522 9.330,10.513 9.322 C 10.504 9.314,9.602 9.230,8.507 9.135 C 7.413 9.039,6.470 8.956,6.411 8.949 L 6.305 8.937 6.305 9.323 M7.188 9.269 C 7.446 9.290,7.665 9.314,7.675 9.322 C 7.684 9.330,7.478 9.355,7.216 9.376 C 6.955 9.398,6.703 9.421,6.657 9.428 L 6.573 9.441 6.573 9.324 L 6.573 9.207 6.646 9.219 C 6.686 9.226,6.930 9.249,7.188 9.269 " stroke="none" fill-rule="evenodd" fill="black"></path></svg>