<svg id="Layer_2" data-name="Layer 2" xmlns="http://www.w3.org/2000/svg" viewBox="0 0 14.44532336 14.44332351"><path d="M8.730 0.199 C 8.475 1.044,7.535 4.269,7.542 4.275 C 7.553 4.287,10.040 0.901,10.039 0.875 C 10.039 0.864,9.901 0.761,9.732 0.646 C 9.564 0.531,9.283 0.340,9.108 0.220 L 8.790 0.002 8.730 0.199 M5.828 2.751 C 5.829 4.171,5.835 5.321,5.841 5.307 C 5.856 5.271,6.955 0.278,6.949 0.272 C 6.946 0.269,6.739 0.251,6.488 0.230 C 6.236 0.210,5.985 0.188,5.929 0.181 L 5.826 0.169 5.828 2.751 M9.341 0.682 C 9.533 0.814,9.693 0.923,9.696 0.926 C 9.702 0.930,8.223 2.953,8.181 2.997 C 8.167 3.013,8.163 3.009,8.171 2.985 C 8.178 2.966,8.347 2.391,8.547 1.709 C 8.746 1.027,8.914 0.455,8.920 0.438 C 8.934 0.400,8.907 0.384,9.341 0.682 M6.639 0.492 C 6.646 0.499,6.122 2.904,6.104 2.949 C 6.099 2.962,6.094 2.406,6.093 1.712 L 6.091 0.451 6.362 0.469 C 6.511 0.478,6.636 0.489,6.639 0.492 M10.676 2.931 C 10.004 3.775,9.446 4.477,9.435 4.491 C 9.423 4.507,9.524 4.626,9.698 4.798 L 9.980 5.080 11.496 3.826 C 12.330 3.136,13.023 2.561,13.036 2.549 C 13.051 2.535,12.850 2.317,12.495 1.962 C 12.184 1.651,11.923 1.396,11.914 1.396 C 11.905 1.396,11.348 2.087,10.676 2.931 M3.503 1.675 C 3.265 1.707,3.057 1.735,3.042 1.739 C 3.026 1.742,3.540 2.631,4.183 3.714 C 4.826 4.797,5.355 5.680,5.359 5.676 C 5.363 5.672,5.066 4.756,4.700 3.641 C 4.102 1.819,4.029 1.613,3.985 1.616 C 3.958 1.617,3.741 1.644,3.503 1.675 M12.669 2.530 C 12.660 2.539,12.077 3.020,11.376 3.600 C 10.674 4.179,10.075 4.676,10.045 4.703 L 9.990 4.753 9.866 4.629 L 9.743 4.506 10.018 4.160 C 10.169 3.969,10.661 3.351,11.111 2.786 L 11.929 1.758 12.308 2.136 C 12.516 2.344,12.679 2.521,12.669 2.530 M4.138 2.731 C 4.285 3.181,4.401 3.552,4.396 3.557 C 4.386 3.567,3.443 1.981,3.443 1.953 C 3.443 1.930,3.831 1.881,3.856 1.901 C 3.865 1.908,3.992 2.282,4.138 2.731 M5.664 6.964 L 2.696 9.931 2.696 10.317 L 2.696 10.702 2.347 11.051 C 2.155 11.242,1.998 11.407,1.998 11.416 C 1.998 11.425,2.038 11.436,2.087 11.440 C 2.172 11.448,2.130 11.480,1.107 12.183 C 0.177 12.822,0.035 12.928,0.015 12.995 C 0.001 13.046,0.003 13.094,0.022 13.140 C 0.038 13.178,0.325 13.482,0.660 13.817 L 1.269 14.424 1.399 14.417 L 1.528 14.409 2.263 13.340 C 2.962 12.322,2.998 12.275,3.005 12.359 C 3.009 12.407,3.020 12.447,3.029 12.447 C 3.039 12.447,3.203 12.290,3.395 12.098 L 3.743 11.749 4.129 11.749 L 4.514 11.749 7.482 8.781 L 10.449 5.814 10.045 5.411 C 9.823 5.189,9.631 5.008,9.618 5.008 C 9.605 5.008,8.294 6.308,6.706 7.896 L 3.817 10.785 3.738 10.708 L 3.658 10.631 6.548 7.741 C 8.137 6.152,9.438 4.840,9.438 4.827 C 9.438 4.813,9.256 4.621,9.034 4.400 L 8.631 3.997 5.664 6.964 M6.199 7.728 L 3.298 10.630 3.557 10.888 L 3.816 11.147 6.717 8.246 L 9.618 5.345 9.853 5.579 L 10.088 5.814 7.253 8.649 L 4.418 11.484 4.033 11.484 L 3.648 11.484 3.449 11.682 L 3.250 11.880 3.250 11.553 C 3.250 11.164,3.285 11.196,2.853 11.195 L 2.565 11.195 2.763 10.996 L 2.961 10.797 2.961 10.412 L 2.961 10.028 5.796 7.193 L 8.631 4.358 8.866 4.592 L 9.101 4.827 6.199 7.728 M11.853 5.653 C 10.923 6.337,10.167 6.900,10.171 6.905 C 10.180 6.914,14.370 5.686,14.412 5.661 C 14.442 5.644,13.607 4.405,13.567 4.408 C 13.553 4.408,12.782 4.969,11.853 5.653 M13.768 5.110 C 13.902 5.306,14.015 5.478,14.018 5.493 C 14.022 5.509,13.511 5.671,12.736 5.900 C 12.028 6.109,11.446 6.277,11.443 6.275 C 11.440 6.272,11.906 5.927,12.477 5.507 C 13.048 5.088,13.518 4.747,13.520 4.750 C 13.522 4.753,13.634 4.915,13.768 5.110 M11.642 8.050 L 9.117 8.607 11.689 8.613 C 13.103 8.617,14.264 8.616,14.269 8.611 C 14.278 8.602,14.186 7.509,14.176 7.500 C 14.172 7.497,13.032 7.744,11.642 8.050 M13.972 7.999 C 13.981 8.108,13.988 8.238,13.988 8.288 L 13.988 8.378 12.694 8.376 C 11.982 8.375,11.416 8.368,11.436 8.360 C 11.474 8.345,13.884 7.806,13.930 7.803 C 13.946 7.801,13.963 7.878,13.972 7.999 M8.770 9.089 C 8.792 9.114,12.698 11.434,12.705 11.427 C 12.715 11.417,12.836 10.421,12.828 10.414 C 12.824 10.410,11.926 10.114,10.832 9.755 C 9.739 9.396,8.823 9.095,8.798 9.085 C 8.772 9.076,8.760 9.078,8.770 9.089 M12.523 10.575 C 12.551 10.586,12.553 10.624,12.534 10.795 C 12.522 10.909,12.501 11.003,12.489 11.003 C 12.467 11.003,10.890 10.075,10.849 10.038 C 10.833 10.024,12.372 10.517,12.523 10.575 M2.857 11.451 L 2.982 11.466 2.997 11.662 C 3.006 11.769,3.010 11.920,3.005 11.996 L 2.997 12.135 2.649 11.785 L 2.300 11.436 2.516 11.436 C 2.635 11.436,2.789 11.443,2.857 11.451 M2.477 11.974 L 2.725 12.224 2.055 13.201 L 1.384 14.178 0.826 13.621 L 0.267 13.064 0.417 12.960 C 1.171 12.437,2.205 11.728,2.215 11.726 C 2.222 11.726,2.340 11.837,2.477 11.974 " stroke="none" fill-rule="evenodd" fill="black"></path></svg>