<svg id="Layer_2" data-name="Layer 2" xmlns="http://www.w3.org/2000/svg" viewBox="0 0 14.56766345 14.51305687"><path d="M0.312 0.308 C 0.049 0.568,-0.000 0.628,-0.000 0.690 C -0.000 0.754,0.115 0.879,0.910 1.675 L 1.821 2.587 1.821 3.877 L 1.821 5.168 1.885 5.218 C 1.944 5.265,1.981 5.269,2.355 5.269 C 2.729 5.269,2.766 5.265,2.825 5.218 L 2.889 5.168 2.889 4.029 L 2.889 2.889 4.027 2.889 C 5.152 2.889,5.164 2.889,5.210 2.838 C 5.252 2.792,5.256 2.746,5.256 2.355 C 5.256 1.964,5.252 1.918,5.210 1.872 C 5.164 1.821,5.155 1.821,3.875 1.821 L 2.587 1.821 1.675 0.910 C 0.897 0.134,0.753 0.000,0.693 0.000 C 0.636 0.000,0.566 0.057,0.312 0.308 M2.469 2.037 C 2.505 2.055,2.905 2.064,3.762 2.064 L 5.002 2.064 5.002 2.355 L 5.002 2.646 3.888 2.646 L 2.774 2.646 2.710 2.710 L 2.646 2.774 2.646 3.888 L 2.646 5.002 2.355 5.002 L 2.064 5.002 2.064 3.750 L 2.064 2.498 1.750 2.166 C 1.578 1.983,1.179 1.577,0.864 1.263 L 0.292 0.693 0.491 0.492 L 0.691 0.291 1.554 1.151 C 2.028 1.623,2.440 2.022,2.469 2.037 M7.312 1.208 C 7.216 1.645,7.113 2.115,7.083 2.252 L 7.030 2.500 6.295 3.235 L 5.560 3.969 6.003 4.413 L 6.446 4.856 6.950 4.352 L 7.454 3.849 9.257 5.651 L 11.059 7.454 10.555 7.958 L 10.052 8.462 10.495 8.905 L 10.938 9.348 11.642 8.643 L 12.347 7.939 13.433 7.704 C 14.030 7.575,14.512 7.463,14.505 7.456 C 14.497 7.448,14.002 7.333,13.405 7.199 L 12.318 6.956 10.152 4.779 L 7.986 2.602 7.742 1.514 C 7.608 0.915,7.496 0.423,7.493 0.419 C 7.489 0.416,7.408 0.771,7.312 1.208 M7.636 2.197 L 7.752 2.731 9.977 4.960 L 12.201 7.188 12.759 7.312 C 13.066 7.380,13.325 7.443,13.335 7.452 C 13.345 7.460,13.099 7.521,12.789 7.586 L 12.225 7.704 11.581 8.344 L 10.937 8.983 10.676 8.722 L 10.416 8.461 10.830 8.048 C 11.058 7.821,11.260 7.606,11.279 7.570 C 11.365 7.409,11.453 7.508,9.439 5.493 C 8.407 4.461,7.538 3.610,7.508 3.602 C 7.391 3.572,7.319 3.624,6.877 4.062 L 6.433 4.502 6.173 4.242 L 5.913 3.983 6.583 3.308 L 7.254 2.634 7.303 2.416 C 7.330 2.296,7.383 2.057,7.420 1.886 C 7.462 1.694,7.494 1.592,7.504 1.619 C 7.513 1.643,7.572 1.904,7.636 2.197 M3.229 3.131 C 3.229 3.143,4.676 4.592,6.443 6.353 C 9.232 9.130,9.736 9.646,9.736 9.723 C 9.736 9.800,9.136 9.217,6.341 6.426 L 3.104 3.193 3.118 3.338 C 3.126 3.419,3.149 3.686,3.169 3.933 C 3.190 4.180,3.212 4.401,3.219 4.424 C 3.226 4.447,4.937 6.164,7.020 8.239 L 10.808 12.012 10.878 12.347 C 10.924 12.565,10.963 12.698,10.992 12.725 C 11.062 12.793,14.012 14.228,14.082 14.228 C 14.155 14.228,14.252 14.138,14.252 14.071 C 14.252 14.012,12.804 11.051,12.743 10.984 C 12.707 10.944,12.616 10.916,12.363 10.867 L 12.030 10.801 8.243 7.016 C 5.783 4.558,4.434 3.227,4.395 3.219 C 4.361 3.212,4.121 3.189,3.860 3.169 C 3.600 3.149,3.351 3.127,3.308 3.121 C 3.265 3.116,3.229 3.120,3.229 3.131 M5.524 4.658 C 6.191 5.321,7.907 7.029,9.335 8.453 L 11.933 11.042 12.233 11.098 C 12.398 11.129,12.547 11.166,12.563 11.180 C 12.596 11.208,13.898 13.862,13.885 13.873 C 13.880 13.877,13.269 13.583,12.528 13.220 L 11.181 12.560 11.113 12.234 L 11.046 11.909 7.249 8.109 L 3.452 4.310 3.435 4.093 L 3.418 3.876 6.432 6.873 C 9.609 10.033,9.552 9.980,9.771 9.986 C 9.961 9.991,10.035 9.852,9.965 9.620 C 9.924 9.483,9.890 9.448,6.898 6.451 L 3.873 3.421 4.091 3.437 L 4.310 3.453 5.524 4.658 M7.193 5.105 L 6.944 5.354 8.249 6.659 L 9.554 7.964 9.809 7.709 L 10.063 7.453 8.765 6.155 C 8.050 5.440,7.460 4.856,7.453 4.856 C 7.446 4.856,7.329 4.968,7.193 5.105 M8.585 6.333 L 9.695 7.457 9.621 7.532 L 9.546 7.607 8.427 6.494 C 7.812 5.883,7.308 5.371,7.308 5.357 C 7.308 5.325,7.434 5.193,7.457 5.201 C 7.466 5.205,7.974 5.714,8.585 6.333 M3.258 6.272 L 2.547 6.983 1.595 7.196 C 1.072 7.313,0.600 7.421,0.546 7.435 C 0.456 7.458,0.518 7.475,1.493 7.689 L 2.537 7.918 4.783 10.163 L 7.030 12.407 7.083 12.656 C 7.328 13.783,7.487 14.494,7.493 14.488 C 7.497 14.484,7.609 13.991,7.742 13.391 L 7.984 12.301 8.672 11.614 L 9.359 10.926 9.177 10.738 C 9.077 10.634,8.881 10.432,8.741 10.288 L 8.486 10.027 7.970 10.543 L 7.454 11.059 5.651 9.257 L 3.849 7.454 4.358 6.944 L 4.868 6.434 4.431 5.997 C 4.191 5.757,3.989 5.560,3.982 5.560 C 3.975 5.560,3.649 5.880,3.258 6.272 M4.254 6.185 L 4.516 6.445 4.054 6.908 C 3.563 7.403,3.550 7.422,3.628 7.570 C 3.647 7.606,4.492 8.464,5.504 9.475 L 7.346 11.314 7.452 11.314 C 7.557 11.314,7.562 11.310,8.023 10.853 L 8.487 10.393 8.747 10.653 L 9.007 10.913 8.380 11.545 L 7.753 12.176 7.636 12.710 C 7.572 13.004,7.513 13.264,7.504 13.289 C 7.494 13.315,7.445 13.135,7.382 12.840 C 7.324 12.568,7.263 12.319,7.245 12.285 C 7.220 12.235,3.514 8.523,2.848 7.880 L 2.649 7.689 2.132 7.574 C 1.847 7.511,1.631 7.453,1.651 7.445 C 1.671 7.438,1.890 7.387,2.137 7.332 C 2.384 7.278,2.614 7.222,2.647 7.209 C 2.681 7.196,2.993 6.901,3.339 6.555 C 3.686 6.208,3.975 5.924,3.981 5.924 C 3.988 5.924,4.111 6.041,4.254 6.185 M5.098 7.199 L 4.844 7.454 6.149 8.759 L 7.454 10.064 7.715 9.803 L 7.976 9.542 6.677 8.243 C 5.963 7.528,5.372 6.944,5.365 6.944 C 5.358 6.944,5.238 7.059,5.098 7.199 M6.890 8.794 L 7.625 9.531 7.541 9.612 L 7.457 9.693 7.389 9.643 C 7.351 9.616,6.840 9.112,6.253 8.524 L 5.185 7.455 5.267 7.370 L 5.349 7.286 5.752 7.672 C 5.974 7.884,6.486 8.389,6.890 8.794 " stroke="none" fill-rule="evenodd" fill="black"></path></svg>