<svg id="Layer_2" data-name="Layer 2" xmlns="http://www.w3.org/2000/svg" viewBox="0 0 15.20260686 15.20260741"><path d="M9.267 0.101 C 9.259 0.122,9.081 1.654,8.871 3.504 C 8.526 6.540,8.492 6.876,8.524 6.937 C 8.585 7.052,10.495 8.939,10.566 8.955 C 10.642 8.971,14.117 8.323,14.062 8.302 C 14.042 8.295,13.183 8.118,12.154 7.910 C 11.126 7.701,10.280 7.527,10.276 7.522 C 10.271 7.517,10.049 5.854,9.782 3.826 C 9.516 1.798,9.294 0.122,9.290 0.101 C 9.282 0.068,9.280 0.068,9.267 0.101 M0.899 0.303 C 0.872 0.315,0.719 0.456,0.561 0.617 C 0.299 0.884,0.274 0.917,0.290 0.981 C 0.301 1.028,0.595 1.341,1.179 1.926 L 2.051 2.800 2.058 4.063 L 2.065 5.325 2.125 5.374 C 2.178 5.417,2.229 5.422,2.600 5.422 C 2.981 5.422,3.019 5.418,3.066 5.372 C 3.115 5.322,3.117 5.287,3.117 4.219 L 3.117 3.117 4.219 3.117 C 5.287 3.117,5.322 3.115,5.372 3.066 C 5.418 3.019,5.422 2.981,5.422 2.588 C 5.422 2.207,5.417 2.157,5.376 2.120 C 5.334 2.082,5.207 2.078,4.078 2.078 L 2.827 2.078 1.939 1.193 C 1.451 0.707,1.029 0.303,1.001 0.296 C 0.973 0.288,0.927 0.292,0.899 0.303 M1.831 1.438 L 2.686 2.293 3.927 2.300 L 5.169 2.307 5.169 2.585 L 5.169 2.863 4.116 2.863 C 2.970 2.863,2.940 2.867,2.887 3.005 C 2.873 3.042,2.863 3.512,2.863 4.119 L 2.863 5.169 2.597 5.169 L 2.331 5.169 2.331 3.992 C 2.331 3.235,2.322 2.790,2.305 2.744 C 2.290 2.705,1.894 2.288,1.424 1.818 L 0.571 0.963 0.760 0.773 C 0.864 0.668,0.955 0.583,0.962 0.583 C 0.969 0.583,1.360 0.968,1.831 1.438 M9.666 4.890 C 9.854 6.333,10.020 7.555,10.034 7.607 C 10.052 7.670,10.085 7.714,10.130 7.737 C 10.167 7.756,10.782 7.889,11.496 8.033 C 12.210 8.178,12.790 8.299,12.786 8.303 C 12.782 8.307,12.295 8.401,11.704 8.512 L 10.629 8.713 9.688 7.771 L 8.747 6.829 9.016 4.475 C 9.192 2.940,9.293 2.147,9.305 2.195 C 9.315 2.235,9.478 3.448,9.666 4.890 M6.391 6.275 C 8.074 7.959,9.451 9.356,9.451 9.380 C 9.451 9.404,9.431 9.434,9.407 9.448 C 9.371 9.468,8.856 8.966,6.289 6.406 C 4.597 4.720,3.211 3.344,3.208 3.349 C 3.205 3.354,3.209 3.628,3.217 3.959 L 3.231 4.561 6.849 8.180 L 10.468 11.799 10.506 12.113 C 10.527 12.286,10.558 12.449,10.575 12.476 C 10.610 12.529,13.483 13.783,13.573 13.783 C 13.663 13.784,13.784 13.665,13.784 13.575 C 13.784 13.493,12.566 10.656,12.503 10.592 C 12.481 10.570,12.340 10.539,12.133 10.512 L 11.798 10.468 10.188 8.864 C 9.302 7.981,7.670 6.356,6.562 5.253 L 4.548 3.246 3.940 3.230 L 3.332 3.213 6.391 6.275 M6.068 5.114 C 6.960 6.001,8.591 7.624,9.692 8.720 L 11.693 10.712 11.820 10.727 C 11.890 10.735,12.021 10.749,12.111 10.758 C 12.202 10.767,12.291 10.783,12.310 10.793 C 12.339 10.809,13.515 13.479,13.499 13.494 C 13.495 13.497,12.886 13.237,12.144 12.916 C 10.903 12.380,10.796 12.328,10.784 12.267 C 10.776 12.230,10.758 12.086,10.742 11.947 L 10.712 11.693 7.092 8.070 L 3.471 4.447 3.471 4.193 L 3.471 3.940 6.354 6.822 C 9.220 9.689,9.237 9.704,9.338 9.704 C 9.547 9.704,9.704 9.547,9.704 9.338 C 9.704 9.237,9.688 9.220,6.822 6.351 L 3.940 3.467 4.193 3.483 L 4.447 3.500 6.068 5.114 M12.783 5.630 C 11.473 6.176,10.397 6.625,10.392 6.629 C 10.379 6.639,10.426 7.344,10.441 7.357 C 10.447 7.363,10.735 7.411,11.081 7.462 C 11.563 7.534,11.725 7.550,11.770 7.530 C 11.802 7.515,12.574 6.868,13.484 6.092 C 15.308 4.537,15.192 4.637,15.176 4.638 C 15.170 4.638,14.093 5.085,12.783 5.630 M13.783 5.507 C 13.762 5.526,13.281 5.937,12.714 6.421 L 11.682 7.299 11.244 7.235 C 10.608 7.141,10.676 7.172,10.660 6.973 C 10.653 6.880,10.650 6.799,10.655 6.795 C 10.664 6.785,13.788 5.478,13.808 5.475 C 13.815 5.474,13.803 5.488,13.783 5.507 M3.451 8.880 C 1.608 9.093,0.095 9.272,0.089 9.277 C 0.083 9.283,1.751 9.508,3.796 9.777 C 5.840 10.046,7.516 10.270,7.521 10.275 C 7.525 10.279,7.699 11.124,7.908 12.153 C 8.116 13.182,8.293 14.042,8.301 14.062 C 8.323 14.116,8.972 10.643,8.955 10.566 C 8.946 10.526,8.575 10.135,7.973 9.531 C 7.119 8.672,6.905 8.479,6.823 8.491 C 6.812 8.493,5.295 8.668,3.451 8.880 M7.770 9.685 L 8.711 10.629 8.512 11.690 C 8.403 12.273,8.309 12.761,8.305 12.775 C 8.300 12.788,8.179 12.214,8.034 11.499 C 7.889 10.784,7.756 10.167,7.737 10.130 C 7.714 10.084,7.670 10.052,7.607 10.035 C 7.555 10.021,6.321 9.855,4.865 9.665 C 3.409 9.476,2.197 9.313,2.171 9.304 C 2.146 9.294,3.178 9.164,4.464 9.016 C 5.751 8.868,6.809 8.746,6.816 8.744 C 6.823 8.743,7.252 9.166,7.770 9.685 M5.632 12.776 C 5.086 14.088,4.641 15.165,4.644 15.167 C 4.654 15.177,7.461 11.882,7.510 11.804 C 7.558 11.727,7.558 11.723,7.463 11.089 C 7.411 10.739,7.366 10.449,7.362 10.445 C 7.355 10.438,6.762 10.390,6.676 10.389 C 6.633 10.389,6.482 10.735,5.632 12.776 M7.139 10.679 C 7.142 10.682,7.179 10.909,7.221 11.184 L 7.298 11.684 6.419 12.715 C 5.368 13.948,5.461 13.845,5.507 13.733 C 5.653 13.380,6.704 10.858,6.745 10.763 L 6.796 10.644 6.964 10.659 C 7.057 10.667,7.135 10.676,7.139 10.679 " stroke="none" fill-rule="evenodd" fill="black"></path></svg>