<svg id="Layer_2" data-name="Layer 2" xmlns="http://www.w3.org/2000/svg" viewBox="0 0 13.78740383 13.78926422"><path d="M0.307 0.305 C 0.041 0.569,-0.000 0.619,-0.000 0.683 C -0.000 0.748,0.095 0.852,0.908 1.673 L 1.815 2.591 1.815 3.870 L 1.815 5.149 1.872 5.206 C 1.928 5.262,1.933 5.262,2.352 5.262 C 2.735 5.262,2.781 5.258,2.830 5.218 L 2.884 5.174 2.890 4.035 L 2.897 2.897 4.033 2.890 C 5.087 2.884,5.172 2.881,5.210 2.843 C 5.246 2.807,5.252 2.748,5.258 2.366 L 5.265 1.931 5.207 1.873 L 5.149 1.815 3.867 1.815 L 2.585 1.815 1.976 1.205 C 1.073 0.299,0.751 -0.000,0.676 -0.000 C 0.627 -0.000,0.548 0.065,0.307 0.305 M1.517 1.117 C 1.965 1.567,2.373 1.965,2.422 2.002 L 2.512 2.068 3.761 2.068 L 5.009 2.068 5.009 2.355 L 5.009 2.643 3.893 2.643 L 2.777 2.643 2.710 2.710 L 2.643 2.777 2.643 3.893 L 2.643 5.009 2.355 5.009 L 2.068 5.009 2.068 3.762 C 2.068 2.646,2.064 2.509,2.031 2.458 C 2.010 2.427,1.609 2.016,1.140 1.546 L 0.288 0.690 0.482 0.494 C 0.589 0.387,0.682 0.299,0.689 0.299 C 0.696 0.299,1.068 0.667,1.517 1.117 M7.985 2.315 C 7.998 2.328,8.561 2.677,9.238 3.091 C 9.914 3.505,10.529 3.886,10.605 3.937 C 11.591 4.598,12.225 5.724,12.399 7.123 C 12.443 7.476,12.446 8.974,12.403 8.991 C 12.309 9.026,12.140 8.846,11.949 8.507 C 11.876 8.377,11.611 7.825,11.361 7.281 C 11.110 6.737,10.902 6.302,10.898 6.314 C 10.885 6.351,11.168 7.739,11.274 8.162 C 11.506 9.088,11.759 9.639,12.118 10.003 C 12.196 10.081,12.308 10.177,12.369 10.214 C 12.472 10.280,12.504 10.329,12.989 11.186 L 13.500 12.089 13.507 10.118 C 13.511 8.835,13.505 8.026,13.488 7.801 C 13.401 6.615,12.900 5.544,12.019 4.664 C 11.738 4.383,11.365 4.085,11.044 3.885 C 10.798 3.732,7.930 2.260,7.985 2.315 M6.398 6.298 C 8.151 8.047,9.601 9.506,9.619 9.540 C 9.669 9.638,9.659 9.656,9.577 9.615 C 9.535 9.594,8.067 8.144,6.314 6.392 C 4.561 4.641,3.122 3.213,3.117 3.218 C 3.112 3.224,3.132 3.497,3.161 3.826 L 3.214 4.423 6.879 8.077 L 10.543 11.731 10.605 12.044 C 10.640 12.217,10.674 12.367,10.682 12.379 C 10.707 12.416,13.507 13.787,13.558 13.787 C 13.679 13.787,13.789 13.673,13.786 13.551 C 13.786 13.523,13.472 12.864,13.089 12.087 L 12.394 10.674 12.054 10.603 L 11.715 10.532 8.086 6.887 C 6.090 4.883,4.439 3.237,4.417 3.231 C 4.363 3.214,3.768 3.154,3.460 3.134 L 3.209 3.118 6.398 6.298 M7.949 7.108 L 11.601 10.766 11.905 10.828 C 12.072 10.863,12.212 10.894,12.216 10.898 C 12.237 10.920,13.488 13.474,13.481 13.481 C 13.476 13.486,12.893 13.204,12.185 12.855 L 10.897 12.220 10.834 11.918 L 10.771 11.616 7.111 7.951 L 3.452 4.286 3.437 4.079 L 3.422 3.872 4.233 4.676 C 4.679 5.119,6.016 6.449,7.204 7.634 C 9.527 9.950,9.476 9.903,9.710 9.904 C 9.905 9.904,9.976 9.698,9.860 9.467 C 9.822 9.393,8.982 8.537,6.840 6.392 L 3.872 3.419 4.084 3.435 L 4.297 3.450 7.949 7.108 M12.230 5.268 C 12.598 5.727,12.931 6.369,13.085 6.917 C 13.239 7.464,13.263 7.857,13.254 9.686 L 13.247 11.133 12.955 10.616 C 12.674 10.121,12.657 10.096,12.544 10.030 C 12.289 9.881,12.000 9.495,11.825 9.073 C 11.741 8.869,11.604 8.465,11.605 8.423 C 11.605 8.410,11.651 8.485,11.708 8.590 C 11.923 8.990,12.102 9.186,12.302 9.240 C 12.415 9.270,12.553 9.224,12.650 9.123 L 12.714 9.055 12.700 8.199 C 12.683 7.224,12.651 6.900,12.520 6.377 C 12.400 5.895,12.151 5.303,11.911 4.924 C 11.859 4.842,12.079 5.080,12.230 5.268 M2.275 7.930 C 2.275 7.970,3.765 10.858,3.878 11.037 C 4.686 12.321,5.884 13.160,7.292 13.430 C 7.670 13.502,8.104 13.514,10.103 13.507 L 12.084 13.500 11.189 12.995 C 10.324 12.506,10.291 12.485,10.214 12.369 C 9.893 11.888,9.258 11.550,8.148 11.271 C 7.745 11.170,6.322 10.882,6.305 10.898 C 6.300 10.903,6.563 11.030,6.888 11.180 C 7.213 11.329,7.645 11.529,7.847 11.622 C 8.669 12.004,8.999 12.225,8.980 12.383 L 8.973 12.443 8.422 12.450 C 7.086 12.467,6.323 12.333,5.503 11.937 C 5.008 11.698,4.649 11.436,4.296 11.056 C 4.048 10.790,3.925 10.604,3.045 9.169 C 2.289 7.935,2.275 7.911,2.275 7.930 M8.756 11.709 C 9.407 11.932,9.794 12.186,10.028 12.545 C 10.105 12.664,10.135 12.685,10.606 12.951 C 10.880 13.106,11.110 13.239,11.118 13.247 C 11.126 13.255,10.352 13.258,9.398 13.253 C 7.521 13.244,7.542 13.245,7.009 13.109 C 6.288 12.926,5.587 12.539,4.996 11.997 C 4.921 11.928,4.891 11.892,4.929 11.915 C 5.314 12.157,5.873 12.393,6.342 12.512 C 6.915 12.657,7.456 12.706,8.483 12.707 L 9.072 12.707 9.143 12.627 C 9.182 12.582,9.220 12.517,9.228 12.483 C 9.235 12.448,9.245 12.408,9.250 12.392 C 9.255 12.377,9.243 12.318,9.223 12.261 C 9.173 12.114,8.952 11.915,8.646 11.744 C 8.510 11.667,8.410 11.604,8.425 11.604 C 8.439 11.604,8.588 11.652,8.756 11.709 " stroke="none" fill-rule="evenodd" fill="black"></path></svg>