<svg id="Layer_2" data-name="Layer 2" xmlns="http://www.w3.org/2000/svg" viewBox="0 0 15.02865893 13.40744838"><path d="M0.407 0.408 L 0.003 0.814 0.471 1.331 C 0.729 1.615,0.988 1.900,1.048 1.965 L 1.157 2.083 1.218 2.026 L 1.279 1.968 5.527 6.216 L 9.774 10.463 9.435 11.074 C 9.248 11.410,9.088 11.704,9.079 11.728 C 9.070 11.752,9.595 11.442,10.246 11.039 C 10.897 10.637,11.429 10.296,11.428 10.282 C 11.427 10.268,11.146 10.073,10.803 9.849 L 10.179 9.441 6.086 5.347 L 1.992 1.253 2.045 1.200 L 2.099 1.146 1.632 0.731 C 1.375 0.503,1.085 0.245,0.988 0.159 L 0.811 0.002 0.407 0.408 M1.273 0.743 C 1.516 0.959,1.720 1.140,1.726 1.144 C 1.732 1.148,1.715 1.175,1.690 1.203 C 1.643 1.254,1.674 1.286,5.825 5.439 L 10.007 9.622 10.502 9.949 C 10.775 10.129,10.995 10.279,10.991 10.283 C 10.963 10.309,9.760 11.046,9.754 11.040 C 9.750 11.036,9.819 10.903,9.907 10.745 C 9.996 10.587,10.068 10.446,10.069 10.432 C 10.069 10.419,8.091 8.430,5.674 6.012 L 1.279 1.618 1.222 1.671 L 1.165 1.724 0.756 1.272 L 0.346 0.819 0.580 0.585 C 0.708 0.456,0.817 0.351,0.821 0.351 C 0.826 0.351,1.029 0.527,1.273 0.743 M1.348 3.871 C 1.312 3.967,1.225 4.237,1.153 4.471 C 0.905 5.282,0.639 5.916,0.425 6.202 L 0.330 6.329 0.860 6.859 C 1.152 7.151,1.407 7.389,1.428 7.389 C 1.481 7.389,2.480 6.384,2.480 6.330 C 2.480 6.306,2.439 6.227,2.390 6.155 C 2.196 5.873,1.939 5.245,1.701 4.471 C 1.629 4.237,1.535 3.967,1.491 3.871 L 1.413 3.696 1.348 3.871 M1.562 4.853 C 1.733 5.374,1.886 5.757,2.045 6.060 L 2.182 6.321 1.805 6.698 L 1.428 7.076 1.047 6.695 L 0.666 6.314 0.723 6.219 C 0.899 5.927,1.142 5.335,1.343 4.703 C 1.382 4.582,1.419 4.484,1.427 4.484 C 1.435 4.484,1.496 4.650,1.562 4.853 M12.202 8.058 C 12.826 10.555,12.962 11.068,13.010 11.117 C 13.066 11.174,13.083 11.176,13.954 11.212 C 14.442 11.232,14.881 11.245,14.931 11.241 L 15.021 11.234 13.252 8.161 C 12.279 6.470,11.476 5.080,11.468 5.072 C 11.459 5.064,11.790 6.407,12.202 8.058 M13.394 8.913 C 14.047 10.048,14.578 10.978,14.573 10.981 C 14.551 10.994,13.202 10.931,13.187 10.916 C 13.167 10.896,12.150 6.846,12.150 6.788 C 12.150 6.762,12.158 6.766,12.178 6.800 C 12.194 6.828,12.741 7.779,13.394 8.913 M12.594 9.958 C 12.586 9.971,12.533 10.102,12.476 10.248 C 12.320 10.649,12.120 10.844,11.865 10.845 C 11.713 10.846,11.635 10.790,11.571 10.635 L 11.514 10.497 11.370 10.630 C 11.000 10.973,10.720 11.175,10.082 11.559 C 9.259 12.055,8.881 12.203,8.131 12.324 C 6.703 12.555,5.412 12.334,3.226 11.484 C 2.962 11.381,2.743 11.301,2.739 11.305 C 2.727 11.317,3.739 11.997,4.020 12.166 C 5.452 13.027,7.030 13.442,8.692 13.393 C 9.852 13.358,10.975 13.158,12.636 12.688 C 13.066 12.567,13.123 12.531,13.124 12.388 C 13.125 12.334,12.659 10.114,12.615 9.958 C 12.611 9.943,12.603 9.943,12.594 9.958 M12.700 11.547 C 12.797 11.992,12.873 12.359,12.869 12.362 C 12.865 12.366,12.654 12.426,12.399 12.495 C 10.564 12.997,9.391 13.177,8.191 13.142 C 7.305 13.116,6.600 12.990,5.786 12.711 C 5.424 12.587,4.850 12.349,4.869 12.331 C 4.875 12.325,4.963 12.343,5.064 12.370 C 5.305 12.437,5.918 12.561,6.187 12.598 C 7.194 12.735,8.447 12.612,9.235 12.299 C 9.713 12.109,10.848 11.410,11.278 11.041 L 11.422 10.917 11.497 10.979 C 11.736 11.181,12.168 11.112,12.418 10.833 C 12.469 10.776,12.514 10.732,12.518 10.734 C 12.522 10.737,12.604 11.102,12.700 11.547 " stroke="none" fill-rule="evenodd" fill="black"></path></svg>