<svg id="Layer_2" data-name="Layer 2" xmlns="http://www.w3.org/2000/svg" viewBox="0 0 14.63755927 13.42138963"><path d="M0.541 0.543 L -0.003 1.086 2.395 3.469 L 4.794 5.852 4.391 6.256 L 3.989 6.660 4.398 7.069 L 4.806 7.477 6.154 6.129 L 7.502 4.782 7.093 4.373 L 6.685 3.965 6.288 4.361 C 6.070 4.579,5.880 4.757,5.867 4.757 C 5.854 4.757,4.773 3.687,3.464 2.379 L 1.086 -0.000 0.541 0.543 M1.415 0.695 L 1.744 1.025 1.384 1.025 L 1.025 1.025 1.025 1.384 L 1.025 1.744 0.689 1.409 L 0.354 1.074 0.707 0.720 C 0.902 0.525,1.066 0.366,1.073 0.366 C 1.081 0.366,1.234 0.514,1.415 0.695 M1.830 1.561 L 1.830 1.854 1.549 1.854 L 1.269 1.854 1.269 1.561 L 1.269 1.269 1.549 1.269 L 1.830 1.269 1.830 1.561 M2.562 1.835 C 2.562 1.846,2.457 1.854,2.330 1.854 L 2.098 1.854 2.098 1.605 L 2.098 1.355 2.330 1.586 C 2.457 1.713,2.562 1.825,2.562 1.835 M1.830 2.318 C 1.830 2.438,1.827 2.537,1.823 2.537 C 1.819 2.537,1.718 2.438,1.598 2.318 L 1.379 2.098 1.605 2.098 L 1.830 2.098 1.830 2.318 M2.659 2.379 L 2.659 2.659 2.379 2.659 L 2.098 2.659 2.098 2.379 L 2.098 2.098 2.379 2.098 L 2.659 2.098 2.659 2.379 M3.171 2.427 L 3.402 2.659 3.153 2.659 L 2.903 2.659 2.903 2.427 C 2.903 2.300,2.912 2.196,2.922 2.196 C 2.932 2.196,3.045 2.300,3.171 2.427 M2.659 3.135 C 2.659 3.262,2.656 3.367,2.653 3.367 C 2.649 3.367,2.542 3.262,2.415 3.135 L 2.184 2.903 2.422 2.903 L 2.659 2.903 2.659 3.135 M3.489 3.196 L 3.489 3.489 3.196 3.489 L 2.903 3.489 2.903 3.196 L 2.903 2.903 3.196 2.903 L 3.489 2.903 3.489 3.196 M3.989 3.245 L 4.232 3.489 3.982 3.489 L 3.733 3.489 3.733 3.245 C 3.733 3.110,3.736 3.001,3.739 3.001 C 3.743 3.001,3.855 3.110,3.989 3.245 M3.489 3.964 C 3.489 4.092,3.486 4.196,3.482 4.196 C 3.478 4.196,3.372 4.092,3.245 3.964 L 3.014 3.733 3.251 3.733 L 3.489 3.733 3.489 3.964 M4.294 4.013 L 4.294 4.294 4.013 4.294 L 3.733 4.294 3.733 4.013 L 3.733 3.733 4.013 3.733 L 4.294 3.733 4.294 4.013 M4.806 4.062 L 5.037 4.294 4.799 4.294 L 4.562 4.294 4.562 4.062 C 4.562 3.934,4.565 3.830,4.569 3.830 C 4.572 3.830,4.679 3.934,4.806 4.062 M5.977 5.964 L 4.806 7.136 4.568 6.898 L 4.331 6.660 4.733 6.258 L 5.135 5.855 4.891 5.611 L 4.648 5.367 5.008 5.367 L 5.367 5.367 5.367 4.996 L 5.367 4.624 5.618 4.873 L 5.868 5.123 6.270 4.721 L 6.672 4.318 6.910 4.556 L 7.148 4.793 5.977 5.964 M4.294 4.782 C 4.294 4.902,4.291 5.001,4.287 5.001 C 4.283 5.001,4.182 4.902,4.062 4.782 L 3.843 4.562 4.069 4.562 L 4.294 4.562 4.294 4.782 M5.123 4.843 L 5.123 5.123 4.843 5.123 L 4.562 5.123 4.562 4.843 L 4.562 4.562 4.843 4.562 L 5.123 4.562 5.123 4.843 M6.745 5.708 C 6.719 5.719,6.469 5.958,6.190 6.238 C 5.729 6.703,5.684 6.756,5.684 6.832 C 5.684 6.911,5.878 7.110,8.935 10.167 L 12.186 13.418 12.808 13.418 L 13.430 13.418 10.418 10.406 C 7.451 7.439,7.407 7.394,7.451 7.345 C 7.495 7.297,7.539 7.340,10.573 10.357 L 13.650 13.417 14.131 13.418 C 14.396 13.418,14.613 13.410,14.613 13.399 C 14.613 13.370,6.971 5.741,6.912 5.711 C 6.850 5.680,6.813 5.679,6.745 5.708 M10.441 9.551 L 14.040 13.149 13.881 13.149 L 13.723 13.149 10.619 10.045 L 7.514 6.941 7.282 7.172 L 7.050 7.404 9.934 10.287 L 12.817 13.171 12.538 13.158 L 12.259 13.144 9.100 9.988 L 5.941 6.831 6.379 6.392 C 6.621 6.150,6.824 5.953,6.831 5.953 C 6.838 5.953,8.462 7.572,10.441 9.551 M5.310 8.374 C 5.263 8.511,5.162 8.822,5.086 9.063 C 4.854 9.800,4.653 10.270,4.432 10.592 L 4.323 10.752 4.839 11.268 C 5.236 11.664,5.369 11.783,5.416 11.783 C 5.508 11.783,6.465 10.822,6.465 10.729 C 6.465 10.693,6.454 10.657,6.441 10.649 C 6.395 10.621,6.216 10.291,6.100 10.019 C 5.968 9.711,5.782 9.183,5.650 8.741 C 5.575 8.490,5.429 8.124,5.404 8.124 C 5.400 8.124,5.358 8.236,5.310 8.374 M5.840 10.051 C 5.904 10.205,6.004 10.418,6.064 10.524 C 6.123 10.630,6.172 10.723,6.172 10.732 C 6.172 10.740,6.005 10.914,5.800 11.119 L 5.428 11.490 5.043 11.105 L 4.658 10.720 4.769 10.526 C 4.919 10.262,5.092 9.847,5.255 9.354 C 5.331 9.127,5.399 8.925,5.407 8.905 C 5.415 8.884,5.489 9.071,5.573 9.319 C 5.657 9.567,5.777 9.897,5.840 10.051 " stroke="none" fill-rule="evenodd" fill="black"></path></svg>