<svg id="Layer_2" data-name="Layer 2" xmlns="http://www.w3.org/2000/svg" viewBox="0 0 12.71348607 13.91516457"><path d="M3.962 0.519 L 3.962 1.038 6.357 1.038 L 8.751 1.038 8.751 0.519 L 8.751 0.000 6.357 0.000 L 3.962 0.000 3.962 0.519 M4.948 1.738 C 4.898 1.789,4.869 1.801,4.795 1.801 C 4.537 1.801,4.348 2.055,4.427 2.295 C 4.458 2.390,4.571 2.490,4.682 2.524 C 4.763 2.548,4.769 2.556,4.821 2.710 C 4.851 2.799,4.904 2.904,4.938 2.944 L 5.001 3.018 5.001 3.764 L 5.001 4.510 4.185 5.822 L 3.369 7.134 3.369 7.938 L 3.369 8.743 3.101 9.171 C 2.953 9.406,2.828 9.595,2.824 9.590 C 2.819 9.586,2.750 8.665,2.670 7.543 C 2.590 6.422,2.521 5.501,2.517 5.497 C 2.513 5.494,2.452 6.265,2.381 7.211 L 2.253 8.931 1.133 10.732 C 0.517 11.723,0.009 12.554,0.005 12.579 C -0.001 12.610,0.012 12.635,0.046 12.657 C 0.091 12.687,0.109 12.686,0.244 12.648 C 0.665 12.530,0.908 12.494,1.293 12.493 C 1.596 12.493,1.702 12.501,1.878 12.540 C 1.996 12.565,3.033 12.882,4.183 13.243 C 5.466 13.647,6.305 13.900,6.357 13.900 C 6.409 13.900,7.247 13.647,8.531 13.243 C 9.680 12.882,10.717 12.565,10.835 12.540 C 11.011 12.501,11.117 12.493,11.421 12.493 C 11.806 12.494,12.048 12.530,12.470 12.648 C 12.604 12.686,12.623 12.687,12.668 12.657 C 12.702 12.635,12.715 12.610,12.709 12.579 C 12.704 12.554,12.035 11.462,11.223 10.153 L 9.746 7.773 9.396 5.556 C 9.203 4.336,9.041 3.334,9.036 3.329 C 9.031 3.324,9.027 3.340,9.027 3.366 C 9.027 3.442,8.730 7.741,8.725 7.746 C 8.722 7.749,8.626 7.598,8.513 7.411 L 8.306 7.071 8.306 6.264 L 8.306 5.456 8.009 4.983 L 7.713 4.510 7.713 3.755 L 7.713 3.000 7.773 2.936 C 7.809 2.897,7.852 2.807,7.882 2.708 C 7.931 2.546,7.932 2.545,8.016 2.531 C 8.127 2.512,8.276 2.367,8.297 2.257 C 8.342 2.016,8.162 1.803,7.913 1.802 C 7.845 1.801,7.814 1.787,7.766 1.738 L 7.705 1.674 6.357 1.674 L 5.009 1.674 4.948 1.738 M7.014 4.222 L 7.014 5.563 7.158 5.796 C 7.237 5.924,8.029 7.199,8.917 8.630 C 9.806 10.061,10.538 11.246,10.545 11.263 C 10.555 11.289,10.489 11.294,10.070 11.294 L 9.583 11.294 8.302 9.265 L 7.022 7.236 6.357 7.236 L 5.691 7.236 4.411 9.265 L 3.130 11.294 2.643 11.294 C 2.214 11.294,2.158 11.290,2.169 11.261 C 2.184 11.222,2.505 10.701,3.285 9.450 C 3.608 8.932,4.284 7.845,4.786 7.036 L 5.700 5.565 5.700 4.223 L 5.700 2.882 6.357 2.882 L 7.014 2.882 7.014 4.222 M7.115 10.007 C 7.499 10.615,7.825 11.136,7.840 11.164 C 7.861 11.206,7.859 11.222,7.826 11.264 C 7.805 11.292,7.477 11.582,7.098 11.908 C 6.593 12.344,6.396 12.501,6.357 12.501 C 6.317 12.502,6.120 12.343,5.604 11.899 C 5.220 11.567,4.892 11.273,4.876 11.246 C 4.847 11.198,4.881 11.141,5.571 10.048 C 6.249 8.975,6.301 8.899,6.356 8.899 C 6.412 8.899,6.462 8.973,7.115 10.007 " stroke="none" fill-rule="evenodd" fill="black"></path></svg>