<svg id="Layer_2" data-name="Layer 2" xmlns="http://www.w3.org/2000/svg" viewBox="0 0 14.26778228 7.08696844"><path d="M3.681 0.042 C 3.625 0.108,-0.000 6.955,0.000 6.996 C 0.000 7.085,0.029 7.087,1.463 7.081 L 2.861 7.074 2.942 6.926 L 3.024 6.778 2.921 6.716 C 1.730 5.998,1.700 5.980,1.693 5.926 C 1.684 5.869,3.730 2.040,3.759 2.058 C 3.767 2.063,3.971 2.432,4.211 2.877 C 4.451 3.321,4.654 3.678,4.663 3.668 C 4.685 3.645,5.169 2.737,5.192 2.679 C 5.204 2.647,5.018 2.275,4.528 1.347 C 4.154 0.639,3.836 0.046,3.823 0.030 C 3.789 -0.013,3.723 -0.007,3.681 0.042 M7.030 0.089 C 6.999 0.138,6.163 1.707,5.173 3.576 C 3.567 6.607,3.375 6.980,3.398 7.030 L 3.423 7.086 5.166 7.085 L 6.908 7.084 6.813 7.027 C 6.761 6.995,6.349 6.747,5.897 6.475 C 5.194 6.051,5.076 5.972,5.072 5.921 C 5.065 5.852,7.029 2.195,7.094 2.154 C 7.122 2.136,7.146 2.136,7.174 2.154 C 7.239 2.195,9.202 5.852,9.196 5.921 C 9.192 5.972,9.074 6.051,8.370 6.475 C 7.919 6.747,7.507 6.995,7.455 7.027 L 7.360 7.084 9.102 7.085 L 10.845 7.086 10.870 7.030 C 10.893 6.980,10.702 6.608,9.094 3.576 C 8.102 1.707,7.267 0.138,7.236 0.089 C 7.203 0.035,7.162 -0.000,7.134 -0.000 C 7.106 -0.000,7.064 0.035,7.030 0.089 M10.445 0.030 C 10.376 0.113,9.058 2.624,9.065 2.659 C 9.077 2.727,9.594 3.685,9.615 3.679 C 9.625 3.676,9.825 3.316,10.058 2.881 C 10.291 2.445,10.491 2.079,10.502 2.068 C 10.533 2.037,12.585 5.857,12.575 5.926 C 12.568 5.980,12.537 5.999,11.349 6.715 L 11.248 6.776 11.324 6.931 L 11.401 7.086 12.808 7.086 C 14.316 7.086,14.292 7.088,14.262 6.970 C 14.245 6.908,10.630 0.093,10.586 0.042 C 10.545 -0.007,10.479 -0.013,10.445 0.030 " stroke="none" fill-rule="evenodd" fill="black"></path></svg>