<svg id="Layer_2" data-name="Layer 2" xmlns="http://www.w3.org/2000/svg" viewBox="0 0 13.84997559 13.53999512"><path d="M9.917 0.294 C 9.830 0.443,9.478 1.054,9.135 1.650 C 8.792 2.247,8.311 3.084,8.066 3.509 C 7.821 3.935,7.613 4.301,7.605 4.323 C 7.590 4.360,7.634 4.363,8.247 4.363 L 8.905 4.363 9.420 3.468 C 9.703 2.976,9.970 2.513,10.013 2.440 L 10.091 2.305 10.968 3.833 C 11.450 4.673,11.841 5.364,11.836 5.369 C 11.830 5.374,10.507 5.376,8.894 5.373 L 5.961 5.367 6.173 4.998 C 6.289 4.794,6.419 4.567,6.462 4.492 C 6.505 4.418,6.524 4.366,6.505 4.377 C 6.486 4.388,5.704 4.875,4.767 5.459 L 3.063 6.521 5.769 6.527 C 7.258 6.530,9.683 6.530,11.159 6.527 L 13.843 6.521 11.977 3.278 C 10.951 1.494,10.104 0.032,10.093 0.029 C 10.083 0.026,10.004 0.145,9.917 0.294 M0.028 7.069 C 0.046 7.098,0.890 8.562,1.903 10.324 C 2.916 12.086,3.752 13.527,3.760 13.527 C 3.778 13.527,3.886 13.343,4.807 11.738 C 5.201 11.052,5.676 10.226,5.863 9.903 C 6.050 9.579,6.215 9.291,6.230 9.262 L 6.257 9.210 5.593 9.211 L 4.928 9.211 4.409 10.115 C 4.123 10.613,3.860 11.070,3.824 11.133 L 3.759 11.246 2.882 9.718 C 2.400 8.878,2.009 8.186,2.014 8.181 C 2.020 8.176,3.343 8.174,4.956 8.177 L 7.889 8.183 7.677 8.552 C 7.561 8.755,7.430 8.983,7.388 9.058 C 7.345 9.133,7.324 9.186,7.342 9.175 C 7.606 9.015,10.751 7.053,10.767 7.038 C 10.780 7.026,8.539 7.017,5.392 7.017 L -0.005 7.017 0.028 7.069 " stroke="none" fill="black" fill-rule="evenodd"></path></svg>