<svg id="Layer_2" data-name="Layer 2" xmlns="http://www.w3.org/2000/svg" viewBox="0 0 14.39996338 11.03997803"><path d="M3.374 0.038 C 3.353 0.058,3.336 0.087,3.336 0.101 C 3.336 0.138,6.138 4.203,6.207 4.266 C 6.266 4.319,6.277 4.320,6.894 4.320 L 7.522 4.320 8.057 3.787 L 8.592 3.253 8.891 3.551 C 9.056 3.715,9.194 3.845,9.199 3.839 C 9.273 3.749,11.747 0.144,11.755 0.114 C 11.761 0.091,11.752 0.056,11.736 0.036 C 11.710 0.004,11.209 0.000,7.559 0.000 C 3.820 0.000,3.408 0.004,3.374 0.038 M9.551 1.198 C 9.565 1.224,9.570 1.259,9.563 1.276 C 9.557 1.294,9.115 1.940,8.583 2.712 C 7.789 3.862,7.604 4.117,7.555 4.123 C 7.502 4.130,7.400 3.991,6.520 2.715 C 5.570 1.338,5.488 1.203,5.574 1.168 C 5.590 1.161,6.487 1.155,7.565 1.154 C 9.478 1.152,9.527 1.153,9.551 1.198 M8.147 4.392 L 7.713 4.824 3.866 4.824 L 0.018 4.824 0.855 5.428 C 1.315 5.760,1.760 6.079,1.844 6.136 L 1.995 6.240 4.867 6.240 L 7.739 6.240 8.160 6.660 L 8.581 7.080 8.844 6.816 L 9.107 6.552 8.592 6.036 L 8.076 5.520 8.592 5.004 L 9.108 4.488 8.844 4.224 L 8.580 3.961 8.147 4.392 M9.120 5.172 L 8.772 5.521 9.134 5.880 L 9.495 6.240 11.096 6.240 C 11.976 6.240,12.696 6.232,12.696 6.222 C 12.696 6.213,12.542 6.051,12.354 5.862 L 12.013 5.520 12.360 5.172 L 12.707 4.824 11.087 4.824 L 9.467 4.824 9.120 5.172 M13.110 5.526 L 13.116 6.228 13.758 6.234 L 14.400 6.241 14.400 5.532 L 14.400 4.824 13.752 4.824 L 13.103 4.824 13.110 5.526 M6.125 6.870 C 6.075 6.939,5.425 7.880,4.682 8.960 C 3.432 10.775,3.332 10.928,3.356 10.982 L 3.383 11.040 7.545 11.040 C 11.208 11.040,11.710 11.036,11.736 11.004 C 11.752 10.984,11.761 10.949,11.755 10.926 C 11.747 10.896,9.273 7.291,9.199 7.201 C 9.194 7.195,9.056 7.325,8.891 7.489 L 8.592 7.787 8.070 7.266 L 7.548 6.744 6.883 6.744 L 6.217 6.744 6.125 6.870 " stroke="none" fill-rule="evenodd" fill="black"></path></svg>