<svg id="Layer_2" data-name="Layer 2" xmlns="http://www.w3.org/2000/svg" viewBox="0 0 14.46633254 8.64001465"><path d="M5.618 4.316 L 5.618 8.632 6.112 8.632 L 6.606 8.632 6.606 4.316 L 6.606 0.000 6.112 0.000 L 5.618 0.000 5.618 4.316 M7.392 0.110 C 7.358 0.144,7.354 0.299,7.354 1.454 C 7.354 2.548,7.359 2.752,7.386 2.712 C 7.403 2.686,7.541 2.447,7.691 2.182 C 7.841 1.917,7.971 1.691,7.980 1.681 C 8.001 1.657,12.269 4.215,12.306 4.274 C 12.325 4.304,12.325 4.327,12.306 4.358 C 12.286 4.390,8.027 6.968,7.994 6.968 C 7.990 6.968,7.847 6.723,7.676 6.423 L 7.366 5.879 7.359 7.153 C 7.355 7.853,7.358 8.450,7.365 8.479 C 7.372 8.508,7.401 8.539,7.428 8.548 C 7.467 8.560,8.270 8.089,10.966 6.470 C 14.112 4.581,14.454 4.370,14.454 4.316 C 14.454 4.261,14.113 4.051,10.970 2.165 C 9.054 1.015,7.474 0.074,7.458 0.073 C 7.442 0.073,7.412 0.089,7.392 0.110 M3.053 0.907 C 2.883 1.206,2.752 1.459,2.764 1.469 C 2.807 1.508,5.092 2.869,5.113 2.869 C 5.139 2.869,5.141 1.506,5.115 1.440 C 5.103 1.409,3.395 0.356,3.368 0.363 C 3.365 0.363,3.224 0.608,3.053 0.907 M0.569 1.910 C 0.536 1.967,0.395 2.213,0.256 2.458 C 0.028 2.857,0.006 2.905,0.043 2.930 C 0.066 2.945,0.570 3.249,1.163 3.604 C 2.162 4.202,2.242 4.255,2.242 4.316 C 2.242 4.376,2.162 4.429,1.163 5.027 C 0.570 5.383,0.066 5.686,0.043 5.702 C 0.006 5.727,0.034 5.785,0.311 6.270 C 0.481 6.568,0.627 6.811,0.635 6.811 C 0.644 6.811,1.475 6.318,2.482 5.714 L 4.314 4.617 4.314 4.316 L 4.314 4.014 2.563 2.966 C 1.600 2.389,0.771 1.892,0.721 1.862 L 0.630 1.807 0.569 1.910 M7.381 2.878 C 7.361 2.902,7.355 3.301,7.360 4.328 C 7.366 5.737,7.366 5.745,7.416 5.778 C 7.463 5.809,7.552 5.761,8.644 5.106 C 9.291 4.718,9.832 4.381,9.847 4.358 C 9.866 4.327,9.866 4.304,9.847 4.274 C 9.810 4.215,7.523 2.848,7.459 2.846 C 7.431 2.846,7.396 2.860,7.381 2.878 M3.923 6.461 C 3.289 6.842,2.765 7.161,2.757 7.168 C 2.747 7.178,3.302 8.177,3.366 8.266 C 3.369 8.271,3.762 8.040,4.239 7.754 C 4.884 7.367,5.109 7.220,5.120 7.179 C 5.128 7.149,5.135 6.818,5.135 6.444 C 5.135 5.913,5.129 5.763,5.105 5.764 C 5.089 5.766,4.557 6.079,3.923 6.461 " stroke="none" fill-rule="evenodd" fill="black"></path></svg>