<svg id="Layer_2" data-name="Layer 2" xmlns="http://www.w3.org/2000/svg" viewBox="0 0 13.94777797 13.41996582"><path d="M2.306 0.042 C 2.368 0.129,4.960 3.091,4.968 3.083 C 4.972 3.079,4.855 2.724,4.708 2.295 C 4.560 1.866,4.440 1.504,4.440 1.490 C 4.440 1.472,5.263 1.465,7.304 1.465 L 10.169 1.465 10.023 1.612 C 9.942 1.693,9.387 2.234,8.788 2.815 C 7.902 3.675,7.708 3.874,7.743 3.887 C 7.767 3.896,8.160 3.999,8.616 4.115 L 9.446 4.327 11.592 2.181 L 13.739 0.035 12.919 0.021 C 12.468 0.013,9.889 0.005,7.188 0.003 C 2.440 0.000,2.277 0.001,2.306 0.042 M0.000 5.750 C 0.000 8.648,0.008 11.018,0.017 11.018 C 0.027 11.017,0.652 10.405,1.406 9.658 L 2.778 8.299 2.139 8.557 C 1.787 8.699,1.486 8.820,1.470 8.827 C 1.447 8.836,1.441 8.322,1.441 6.302 C 1.441 4.907,1.447 3.766,1.453 3.766 C 1.485 3.766,5.650 7.749,5.633 7.763 C 5.623 7.772,5.295 7.825,4.905 7.880 C 4.515 7.935,4.188 7.988,4.178 7.996 C 4.168 8.005,5.317 8.302,6.731 8.657 C 8.146 9.012,9.307 9.298,9.312 9.293 C 9.321 9.284,0.196 0.641,0.068 0.537 L 0.000 0.482 0.000 5.750 M12.541 3.755 L 11.170 5.113 11.832 4.849 L 12.495 4.584 12.501 7.108 C 12.504 8.496,12.502 9.636,12.497 9.642 C 12.491 9.647,11.543 8.755,10.390 7.658 C 8.968 6.306,8.304 5.660,8.326 5.649 C 8.343 5.640,8.679 5.587,9.072 5.531 C 9.465 5.475,9.787 5.423,9.787 5.416 C 9.787 5.401,4.648 4.108,4.636 4.120 C 4.627 4.129,13.754 12.774,13.879 12.876 L 13.948 12.931 13.948 7.663 C 13.948 4.765,13.940 2.395,13.930 2.396 C 13.921 2.396,13.296 3.008,12.541 3.755 M2.349 11.239 C 1.167 12.421,0.205 13.394,0.212 13.401 C 0.219 13.408,2.801 13.411,5.949 13.407 L 11.674 13.401 10.331 11.862 C 9.592 11.015,8.984 10.326,8.980 10.330 C 8.975 10.334,9.093 10.689,9.240 11.118 C 9.387 11.548,9.508 11.910,9.508 11.924 C 9.508 11.941,8.668 11.949,6.643 11.949 L 3.779 11.949 3.925 11.801 C 4.005 11.720,4.561 11.179,5.160 10.598 C 5.758 10.018,6.246 9.540,6.243 9.537 C 6.238 9.532,4.524 9.089,4.507 9.089 C 4.502 9.089,3.531 10.057,2.349 11.239 " stroke="none" fill="black" fill-rule="evenodd"></path></svg>