<svg id="Layer_2" data-name="Layer 2" xmlns="http://www.w3.org/2000/svg" viewBox="0 0 14.15334594 12.7488796"><path d="M6.492 0.020 C 6.462 0.039,3.642 9.507,3.617 9.672 C 3.591 9.840,3.483 9.845,5.632 9.566 C 6.706 9.427,7.588 9.309,7.594 9.304 C 7.599 9.298,7.598 9.294,7.592 9.294 C 7.575 9.294,5.138 8.848,5.079 8.834 C 5.051 8.828,5.021 8.801,5.013 8.776 C 5.000 8.735,6.865 3.055,6.935 2.926 C 6.949 2.900,6.984 2.878,7.012 2.878 C 7.048 2.878,7.355 3.168,8.055 3.863 C 9.368 5.168,9.543 5.335,9.498 5.249 C 9.478 5.210,8.821 4.015,8.038 2.595 C 6.589 -0.036,6.586 -0.042,6.492 0.020 M7.093 4.582 C 7.060 4.607,5.532 8.232,5.550 8.245 C 5.553 8.248,5.932 7.805,6.393 7.263 C 6.853 6.720,7.245 6.270,7.264 6.262 C 7.283 6.255,7.323 6.268,7.353 6.291 C 7.382 6.315,8.309 7.347,9.412 8.586 C 10.745 10.084,11.417 10.855,11.417 10.889 C 11.417 10.917,11.404 10.950,11.388 10.963 C 11.371 10.976,10.610 11.192,9.695 11.444 L 8.032 11.901 8.339 11.916 C 8.507 11.925,9.868 11.956,11.362 11.985 C 14.235 12.042,14.153 12.043,14.153 11.937 C 14.153 11.905,7.431 4.789,7.227 4.606 C 7.159 4.544,7.147 4.542,7.093 4.582 M7.553 7.147 C 7.560 7.167,7.758 7.722,7.994 8.380 C 8.336 9.335,8.418 9.586,8.399 9.622 C 8.383 9.651,8.329 9.677,8.250 9.694 C 7.657 9.823,2.392 10.898,2.358 10.898 C 2.241 10.898,2.246 10.874,2.701 9.148 C 2.941 8.236,3.144 7.474,3.151 7.454 C 3.159 7.432,3.156 7.427,3.142 7.442 C 3.066 7.525,0.013 12.595,0.013 12.641 C 0.012 12.671,0.029 12.707,0.049 12.721 C 0.077 12.738,1.361 12.440,4.991 11.571 C 7.689 10.925,9.909 10.386,9.925 10.373 C 9.941 10.360,9.955 10.330,9.955 10.306 C 9.955 10.271,7.665 7.233,7.566 7.136 C 7.549 7.120,7.545 7.124,7.553 7.147 " stroke="none" fill-rule="evenodd" fill="black"></path></svg>