<svg id="Layer_2" data-name="Layer 2" xmlns="http://www.w3.org/2000/svg" viewBox="0 0 12.70873642 12.72998047"><path d="M5.565 0.023 C 5.530 0.043,5.528 0.205,5.528 2.956 C 5.528 5.722,5.526 5.869,5.491 5.900 C 5.470 5.918,4.333 6.578,2.965 7.367 C 0.914 8.549,0.475 8.809,0.470 8.849 C 0.465 8.881,0.588 9.115,0.837 9.548 C 1.043 9.906,1.222 10.206,1.236 10.215 C 1.249 10.224,1.280 10.228,1.304 10.224 C 1.329 10.220,2.467 9.570,3.834 8.779 C 5.201 7.988,6.335 7.341,6.354 7.341 C 6.373 7.341,7.507 7.988,8.874 8.779 C 10.241 9.570,11.380 10.220,11.404 10.224 C 11.429 10.228,11.459 10.224,11.472 10.215 C 11.486 10.206,11.665 9.906,11.871 9.548 C 12.122 9.113,12.244 8.882,12.239 8.850 C 12.233 8.809,11.803 8.554,9.744 7.367 C 8.375 6.578,7.239 5.918,7.218 5.900 C 7.182 5.869,7.180 5.720,7.180 2.956 C 7.180 0.099,7.180 0.043,7.139 0.022 C 7.084 -0.008,5.616 -0.007,5.565 0.023 M2.704 0.568 C 2.672 0.603,2.669 0.700,2.669 1.511 L 2.669 2.415 2.955 2.415 L 3.241 2.415 3.241 1.747 L 3.241 1.080 3.929 1.080 L 4.618 1.080 4.618 0.805 L 4.618 0.530 3.678 0.530 C 2.795 0.530,2.737 0.532,2.704 0.568 M8.091 0.805 L 8.091 1.080 8.780 1.080 L 9.468 1.080 9.468 1.747 L 9.468 2.415 9.743 2.415 L 10.019 2.415 10.019 1.494 C 10.019 0.605,10.017 0.573,9.978 0.551 C 9.951 0.537,9.610 0.530,9.014 0.530 L 8.091 0.530 8.091 0.805 M1.236 2.516 C 1.195 2.542,0.466 3.824,0.466 3.870 C 0.466 3.894,0.478 3.923,0.492 3.935 C 0.523 3.959,3.473 5.656,3.496 5.662 C 3.505 5.664,3.694 5.562,3.917 5.435 L 4.322 5.203 4.316 4.718 L 4.310 4.233 2.817 3.367 C 1.996 2.890,1.310 2.500,1.292 2.500 C 1.275 2.500,1.249 2.507,1.236 2.516 M9.892 3.367 L 8.398 4.233 8.393 4.719 L 8.387 5.205 8.793 5.436 C 9.016 5.562,9.205 5.664,9.213 5.662 C 9.236 5.656,12.187 3.958,12.216 3.935 C 12.231 3.923,12.243 3.894,12.243 3.870 C 12.243 3.824,11.514 2.542,11.472 2.516 C 11.459 2.507,11.434 2.500,11.417 2.500 C 11.399 2.500,10.713 2.890,9.892 3.367 M0.651 5.672 C 0.238 6.085,0.000 6.339,0.000 6.366 C -0.000 6.392,0.240 6.647,0.657 7.064 L 1.313 7.720 1.514 7.519 L 1.716 7.318 1.239 6.842 L 0.763 6.365 1.234 5.894 L 1.705 5.422 1.503 5.221 L 1.302 5.020 0.651 5.672 M11.205 5.221 L 11.004 5.423 11.475 5.894 L 11.946 6.365 11.470 6.842 L 10.993 7.318 11.194 7.519 L 11.396 7.720 12.052 7.064 C 12.470 6.646,12.709 6.392,12.709 6.366 C 12.709 6.339,12.471 6.086,12.057 5.672 L 11.406 5.019 11.205 5.221 M5.931 8.955 L 5.539 9.183 5.533 10.928 C 5.530 12.199,5.535 12.680,5.552 12.701 C 5.571 12.724,5.724 12.730,6.354 12.730 C 6.985 12.730,7.137 12.724,7.157 12.701 C 7.174 12.680,7.179 12.199,7.175 10.928 L 7.170 9.183 6.778 8.955 C 6.562 8.830,6.372 8.727,6.354 8.727 C 6.337 8.727,6.146 8.830,5.931 8.955 M2.669 11.223 C 2.669 12.075,2.671 12.132,2.708 12.165 C 2.742 12.197,2.841 12.200,3.682 12.200 L 4.618 12.200 4.618 11.925 L 4.618 11.650 3.929 11.650 L 3.241 11.650 3.241 10.982 L 3.241 10.315 2.955 10.315 L 2.669 10.315 2.669 11.223 M9.468 10.982 L 9.468 11.650 8.780 11.650 L 8.091 11.650 8.091 11.925 L 8.091 12.200 9.030 12.200 C 9.731 12.200,9.974 12.194,9.993 12.175 C 10.012 12.156,10.019 11.917,10.019 11.232 L 10.019 10.315 9.743 10.315 L 9.468 10.315 9.468 10.982 " stroke="none" fill-rule="evenodd" fill="black"></path></svg>