<svg id="Layer_2" data-name="Layer 2" xmlns="http://www.w3.org/2000/svg" viewBox="0 0 12.81994629 14.26000977"><path d="M8.953 1.663 C 8.953 2.961,8.947 3.332,8.926 3.358 C 8.911 3.376,7.858 3.991,6.586 4.723 L 4.273 6.056 4.274 6.345 L 4.274 6.634 4.508 6.765 L 4.741 6.897 7.066 5.553 C 8.344 4.815,9.408 4.210,9.429 4.210 C 9.450 4.209,10.106 4.579,10.887 5.032 C 11.668 5.484,12.315 5.854,12.323 5.854 C 12.332 5.854,12.421 5.713,12.521 5.541 C 12.621 5.369,12.729 5.183,12.761 5.128 L 12.820 5.027 11.398 4.210 C 10.616 3.760,9.962 3.378,9.945 3.361 C 9.919 3.335,9.914 3.085,9.914 1.665 L 9.914 0.000 9.433 0.000 L 8.953 0.000 8.953 1.663 M6.296 1.796 C 6.169 2.019,6.068 2.212,6.072 2.224 C 6.077 2.237,6.530 2.506,7.079 2.823 L 8.079 3.399 8.313 3.266 L 8.547 3.132 8.546 2.843 L 8.545 2.553 7.657 2.041 C 7.168 1.758,6.714 1.497,6.648 1.459 L 6.527 1.391 6.296 1.796 M11.320 1.974 L 10.322 2.553 10.321 2.842 L 10.321 3.130 10.555 3.265 L 10.789 3.400 11.799 2.819 C 12.355 2.499,12.812 2.236,12.815 2.233 C 12.822 2.227,12.356 1.429,12.335 1.410 C 12.325 1.402,11.869 1.656,11.320 1.974 M2.906 5.165 C 2.905 6.079,2.898 6.838,2.889 6.852 C 2.880 6.867,2.233 7.245,1.452 7.693 C 0.671 8.141,0.026 8.514,0.018 8.522 C 0.007 8.533,0.437 9.311,0.476 9.350 C 0.482 9.356,1.125 8.993,1.904 8.544 C 2.683 8.094,3.346 7.722,3.376 7.718 C 3.417 7.712,3.988 8.031,5.755 9.047 L 8.080 10.385 8.314 10.252 L 8.548 10.118 8.542 9.833 L 8.536 9.547 6.239 8.223 C 4.976 7.495,3.926 6.884,3.905 6.865 C 3.870 6.833,3.867 6.730,3.867 5.167 L 3.867 3.504 3.387 3.504 L 2.906 3.504 2.906 5.165 M9.177 4.792 L 8.942 4.926 8.949 7.618 C 8.956 9.852,8.952 10.315,8.928 10.343 C 8.912 10.362,8.262 10.745,7.484 11.195 C 6.705 11.645,6.068 12.023,6.068 12.035 C 6.068 12.051,6.499 12.824,6.527 12.857 C 6.529 12.860,7.179 12.487,7.972 12.029 C 8.764 11.570,9.427 11.198,9.444 11.203 C 9.462 11.207,10.111 11.578,10.887 12.028 C 11.662 12.477,12.305 12.846,12.315 12.848 C 12.332 12.852,12.829 12.028,12.815 12.019 C 12.812 12.017,12.171 11.647,11.392 11.196 C 10.612 10.746,9.961 10.363,9.944 10.347 C 9.919 10.322,9.914 9.905,9.913 7.621 L 9.913 4.925 9.679 4.791 C 9.551 4.718,9.438 4.658,9.429 4.658 C 9.420 4.658,9.306 4.719,9.177 4.792 M0.240 5.304 C 0.110 5.530,0.011 5.723,0.019 5.731 C 0.045 5.759,2.018 6.886,2.041 6.886 C 2.052 6.886,2.166 6.826,2.292 6.753 L 2.522 6.619 2.517 6.339 L 2.511 6.058 1.506 5.477 C 0.954 5.158,0.496 4.896,0.489 4.895 C 0.482 4.894,0.370 5.078,0.240 5.304 M3.146 8.284 L 2.906 8.422 2.906 9.585 L 2.906 10.747 3.387 10.747 L 3.867 10.747 3.867 9.585 L 3.867 8.422 3.638 8.289 C 3.511 8.216,3.403 8.153,3.397 8.151 C 3.391 8.148,3.278 8.208,3.146 8.284 M11.308 8.978 L 10.320 9.555 10.320 9.836 L 10.321 10.117 10.555 10.251 L 10.790 10.385 11.800 9.804 C 12.355 9.485,12.812 9.222,12.815 9.219 C 12.829 9.209,12.337 8.397,12.318 8.399 C 12.306 8.400,11.852 8.661,11.308 8.978 M9.172 11.788 L 8.931 11.927 8.931 13.089 L 8.931 14.252 9.423 14.252 L 9.914 14.252 9.914 13.089 L 9.914 11.926 9.672 11.785 C 9.539 11.708,9.426 11.646,9.421 11.647 C 9.416 11.648,9.304 11.712,9.172 11.788 " stroke="none" fill-rule="evenodd" fill="black"></path></svg>