<svg id="Layer_2" data-name="Layer 2" xmlns="http://www.w3.org/2000/svg" viewBox="0 0 13.36780665 14.40002441"><path d="M5.743 0.024 C 5.706 0.046,5.704 0.227,5.704 3.328 C 5.704 6.426,5.701 6.612,5.665 6.643 C 5.643 6.661,4.377 7.396,2.852 8.277 C 1.326 9.157,0.060 9.892,0.039 9.910 C 0.018 9.929,0.000 9.958,0.000 9.976 C 0.000 9.994,0.203 10.363,0.450 10.797 C 0.777 11.371,0.913 11.590,0.947 11.599 C 0.981 11.607,1.763 11.166,3.800 9.990 C 5.343 9.099,6.633 8.365,6.665 8.360 C 6.712 8.352,7.311 8.689,9.549 9.980 C 11.577 11.151,12.387 11.607,12.420 11.599 C 12.453 11.590,12.593 11.365,12.917 10.798 C 13.165 10.364,13.368 9.994,13.368 9.976 C 13.368 9.958,13.350 9.929,13.329 9.910 C 13.307 9.892,12.042 9.157,10.516 8.277 C 8.990 7.396,7.725 6.661,7.703 6.643 C 7.666 6.612,7.664 6.426,7.664 3.328 C 7.664 0.106,7.663 0.046,7.621 0.023 C 7.563 -0.008,5.796 -0.007,5.743 0.024 M0.911 2.813 C 0.866 2.850,-0.000 4.375,0.000 4.416 C 0.000 4.434,0.018 4.464,0.039 4.483 C 0.060 4.502,0.896 4.990,1.896 5.568 L 3.714 6.618 4.208 6.334 L 4.702 6.049 4.696 5.485 L 4.690 4.920 2.842 3.853 C 1.825 3.265,0.983 2.785,0.969 2.785 C 0.955 2.785,0.929 2.797,0.911 2.813 M10.526 3.853 L 8.678 4.920 8.672 5.485 L 8.666 6.049 9.160 6.334 L 9.653 6.618 11.472 5.568 C 12.472 4.990,13.307 4.502,13.329 4.483 C 13.350 4.464,13.368 4.434,13.368 4.416 C 13.368 4.380,12.507 2.863,12.459 2.815 C 12.443 2.799,12.416 2.785,12.401 2.785 C 12.386 2.785,11.542 3.265,10.526 3.853 M6.183 9.766 L 5.715 10.039 5.709 12.186 C 5.705 13.753,5.710 14.340,5.728 14.362 C 5.749 14.387,5.927 14.393,6.684 14.393 C 7.441 14.393,7.619 14.387,7.639 14.362 C 7.658 14.340,7.663 13.753,7.659 12.186 L 7.653 10.039 7.185 9.766 C 6.928 9.616,6.702 9.493,6.684 9.493 C 6.666 9.493,6.440 9.616,6.183 9.766 " stroke="none" fill-rule="evenodd" fill="black"></path></svg>