<svg id="Layer_2" data-name="Layer 2" xmlns="http://www.w3.org/2000/svg" viewBox="0 0 13.05999756 14.73401164"><path d="M6.461 0.038 C 6.411 0.097,4.285 5.592,4.292 5.643 C 4.297 5.677,4.452 5.776,4.914 6.042 L 5.529 6.395 5.529 5.462 L 5.529 4.529 5.839 4.523 L 6.149 4.517 6.334 3.880 C 6.436 3.530,6.524 3.244,6.530 3.244 C 6.536 3.244,6.618 3.510,6.712 3.837 C 6.807 4.163,6.892 4.452,6.902 4.478 C 6.920 4.526,6.929 4.527,7.226 4.527 L 7.531 4.527 7.531 5.461 L 7.531 6.395 8.146 6.041 C 8.603 5.779,8.763 5.676,8.768 5.643 C 8.775 5.592,6.649 0.097,6.599 0.038 C 6.581 0.017,6.550 0.000,6.530 0.000 C 6.510 0.000,6.479 0.017,6.461 0.038 M0.353 4.205 C 0.229 4.410,-0.001 4.816,0.004 4.820 C 0.008 4.823,1.271 5.552,2.811 6.441 C 4.700 7.532,5.615 8.072,5.623 8.099 C 5.629 8.122,5.617 8.160,5.597 8.183 C 5.578 8.206,5.160 8.457,4.669 8.741 C 4.178 9.024,3.773 9.259,3.769 9.263 C 3.759 9.272,4.134 9.922,4.158 9.937 C 4.168 9.943,4.571 9.719,5.054 9.440 C 6.131 8.816,6.020 8.874,6.073 8.903 C 6.116 8.926,6.116 8.948,6.116 11.820 L 6.116 14.714 6.530 14.714 L 6.944 14.714 6.944 11.820 C 6.944 8.948,6.944 8.926,6.987 8.903 C 7.040 8.874,6.929 8.816,8.006 9.440 C 8.489 9.719,8.892 9.943,8.901 9.938 C 8.923 9.924,9.301 9.272,9.291 9.263 C 9.287 9.259,8.882 9.024,8.391 8.741 C 7.900 8.457,7.482 8.206,7.463 8.183 C 7.443 8.160,7.431 8.122,7.437 8.099 C 7.445 8.072,8.360 7.532,10.249 6.441 C 11.789 5.552,13.052 4.823,13.055 4.820 C 13.063 4.815,12.695 4.177,12.669 4.150 C 12.659 4.139,11.398 4.854,9.868 5.739 C 7.868 6.894,7.067 7.346,7.020 7.346 L 6.954 7.346 6.949 6.231 L 6.943 5.115 6.530 5.115 L 6.117 5.115 6.111 6.231 L 6.106 7.346 6.051 7.353 C 6.012 7.357,5.222 6.912,3.221 5.756 C 1.695 4.874,0.435 4.148,0.422 4.143 C 0.408 4.137,0.377 4.165,0.353 4.205 M3.507 7.600 C 3.443 7.768,3.062 8.741,3.015 8.856 C 2.984 8.932,2.961 9.001,2.965 9.010 C 2.968 9.018,3.265 8.855,3.624 8.648 C 3.983 8.440,4.335 8.238,4.405 8.198 L 4.532 8.126 4.047 7.845 C 3.780 7.690,3.553 7.561,3.544 7.557 C 3.534 7.553,3.518 7.572,3.507 7.600 M9.015 7.842 L 8.528 8.126 8.655 8.198 C 8.726 8.238,9.077 8.440,9.436 8.648 C 9.795 8.855,10.092 9.019,10.095 9.011 C 10.098 9.003,10.024 8.801,9.929 8.563 C 9.835 8.325,9.708 8.003,9.648 7.848 C 9.588 7.693,9.530 7.564,9.520 7.562 C 9.510 7.560,9.282 7.686,9.015 7.842 M2.930 9.101 C 2.896 9.206,2.870 9.311,2.826 9.523 C 2.782 9.730,2.775 9.825,2.776 10.219 C 2.776 10.709,2.797 10.874,2.910 11.264 C 3.241 12.412,4.137 13.367,5.247 13.756 C 5.550 13.862,5.517 14.092,5.523 11.809 L 5.529 9.856 5.425 9.917 C 4.496 10.463,4.009 10.732,3.962 10.726 C 3.917 10.721,3.839 10.600,3.437 9.908 C 3.177 9.461,2.959 9.090,2.952 9.083 C 2.945 9.076,2.935 9.084,2.930 9.101 M9.629 9.898 C 9.221 10.599,9.143 10.721,9.098 10.726 C 9.051 10.732,8.565 10.463,7.635 9.917 L 7.531 9.856 7.537 11.809 C 7.543 14.092,7.510 13.862,7.813 13.756 C 8.066 13.667,8.354 13.524,8.587 13.371 C 9.464 12.794,10.032 11.939,10.245 10.872 C 10.301 10.591,10.301 9.839,10.245 9.577 C 10.179 9.269,10.139 9.110,10.123 9.092 C 10.114 9.083,9.892 9.445,9.629 9.898 " stroke="none" fill-rule="evenodd" fill="black"></path></svg>