<svg id="Layer_2" data-name="Layer 2" xmlns="http://www.w3.org/2000/svg" viewBox="0 0 14.16712245 14.36004639"><path d="M6.635 0.014 C 5.805 0.090,5.170 0.232,4.528 0.486 C 3.852 0.754,3.314 1.061,2.743 1.506 C 2.499 1.696,1.983 2.162,1.983 2.192 C 1.983 2.201,2.132 2.291,2.314 2.393 L 2.644 2.578 2.827 2.408 C 3.732 1.570,4.944 1.000,6.222 0.811 C 6.619 0.752,7.548 0.752,7.945 0.811 C 9.225 1.000,10.428 1.566,11.340 2.409 L 11.523 2.578 11.853 2.393 C 12.035 2.291,12.184 2.201,12.184 2.192 C 12.184 2.183,12.068 2.068,11.926 1.936 C 10.790 0.878,9.467 0.253,7.945 0.058 C 7.670 0.022,6.849 -0.005,6.635 0.014 M6.741 1.761 C 5.934 1.841,5.447 1.969,4.840 2.259 C 4.457 2.442,4.253 2.565,3.902 2.827 C 3.505 3.123,3.451 3.051,4.535 3.680 L 5.435 4.201 5.522 4.146 C 5.571 4.115,5.665 4.067,5.733 4.038 L 5.855 3.985 5.861 3.192 L 5.868 2.400 5.986 2.370 C 6.461 2.248,7.706 2.248,8.182 2.370 L 8.300 2.400 8.306 3.192 L 8.312 3.985 8.434 4.038 C 8.502 4.067,8.596 4.115,8.645 4.146 L 8.732 4.201 9.632 3.680 C 10.689 3.067,10.641 3.119,10.352 2.891 C 10.038 2.645,9.774 2.481,9.386 2.290 C 8.856 2.031,8.392 1.886,7.836 1.806 C 7.591 1.771,6.918 1.744,6.741 1.761 M0.656 2.119 C 0.574 2.213,-0.001 3.250,0.005 3.292 C 0.010 3.326,0.728 3.751,2.704 4.890 C 4.184 5.743,5.420 6.459,5.450 6.481 C 5.487 6.509,5.502 6.540,5.497 6.581 C 5.491 6.633,5.371 6.710,4.604 7.156 C 4.117 7.440,3.710 7.675,3.700 7.679 C 3.689 7.683,3.764 7.830,3.866 8.005 C 3.968 8.180,4.131 8.464,4.227 8.636 C 4.324 8.808,4.410 8.949,4.417 8.949 C 4.425 8.949,4.828 8.719,5.314 8.438 C 5.800 8.157,6.217 7.922,6.240 7.916 C 6.357 7.884,6.352 7.728,6.352 11.131 C 6.352 13.564,6.358 14.306,6.380 14.328 C 6.420 14.368,7.747 14.368,7.787 14.328 C 7.809 14.306,7.816 13.564,7.816 11.131 C 7.816 7.728,7.810 7.884,7.928 7.916 C 7.950 7.922,8.366 8.157,8.852 8.438 C 9.338 8.719,9.742 8.949,9.749 8.949 C 9.757 8.949,9.843 8.808,9.940 8.636 C 10.037 8.464,10.199 8.180,10.301 8.005 C 10.403 7.830,10.478 7.683,10.468 7.679 C 10.457 7.675,10.050 7.440,9.563 7.156 C 8.745 6.680,8.677 6.636,8.671 6.573 C 8.664 6.506,8.709 6.479,11.410 4.922 C 13.226 3.874,14.158 3.324,14.163 3.296 C 14.171 3.257,13.591 2.212,13.511 2.119 C 13.491 2.096,13.460 2.078,13.442 2.078 C 13.424 2.078,12.206 2.772,10.736 3.621 C 8.185 5.094,7.927 5.242,7.901 5.242 C 7.895 5.242,7.873 5.225,7.853 5.205 C 7.820 5.172,7.816 5.053,7.816 4.253 C 7.816 3.573,7.808 3.331,7.787 3.310 C 7.747 3.270,6.420 3.270,6.380 3.310 C 6.359 3.331,6.352 3.573,6.352 4.253 C 6.352 5.053,6.347 5.172,6.314 5.205 C 6.294 5.225,6.272 5.242,6.266 5.242 C 6.240 5.242,5.982 5.094,3.431 3.621 C 1.961 2.772,0.743 2.078,0.725 2.078 C 0.707 2.078,0.676 2.096,0.656 2.119 M0.583 4.292 C 0.577 4.314,0.528 4.450,0.475 4.593 C 0.177 5.394,0.042 6.164,0.041 7.060 C 0.041 7.586,0.076 7.953,0.168 8.406 C 0.582 10.442,1.809 12.134,3.624 13.177 C 4.181 13.496,4.969 13.797,5.572 13.919 C 5.670 13.938,5.774 13.960,5.803 13.967 L 5.857 13.979 5.850 13.599 L 5.844 13.218 5.537 13.140 C 4.432 12.859,3.489 12.324,2.672 11.517 C 1.666 10.523,1.051 9.306,0.846 7.898 C 0.789 7.509,0.778 6.721,0.824 6.340 C 0.884 5.830,1.022 5.254,1.184 4.835 C 1.223 4.734,1.248 4.642,1.241 4.630 C 1.233 4.618,1.108 4.540,0.962 4.456 C 0.575 4.235,0.598 4.245,0.583 4.292 M13.240 4.434 C 13.062 4.534,12.917 4.628,12.916 4.642 C 12.916 4.656,12.942 4.731,12.974 4.810 C 13.128 5.189,13.283 5.832,13.343 6.340 C 13.386 6.695,13.379 7.463,13.330 7.827 C 13.139 9.257,12.517 10.508,11.495 11.517 C 10.679 12.324,9.735 12.859,8.630 13.140 L 8.323 13.218 8.317 13.599 L 8.310 13.979 8.364 13.967 C 8.393 13.960,8.523 13.933,8.651 13.906 C 9.755 13.672,10.958 13.043,11.818 12.248 C 13.111 11.054,13.865 9.592,14.086 7.851 C 14.138 7.448,14.138 6.660,14.088 6.245 C 14.010 5.603,13.820 4.863,13.595 4.327 L 13.563 4.253 13.240 4.434 M2.117 5.212 C 2.078 5.277,1.927 5.819,1.878 6.069 C 1.768 6.633,1.758 7.348,1.853 7.898 C 2.193 9.861,3.544 11.435,5.431 12.066 C 5.749 12.172,5.767 12.175,5.819 12.123 C 5.851 12.090,5.856 11.966,5.855 11.114 C 5.855 10.579,5.847 10.129,5.838 10.115 C 5.828 10.100,5.730 10.043,5.621 9.988 C 5.355 9.855,5.143 9.713,4.914 9.515 L 4.725 9.352 4.251 9.626 C 3.990 9.776,3.773 9.895,3.769 9.890 C 3.766 9.886,3.494 9.415,3.165 8.844 C 2.707 8.050,2.573 7.798,2.590 7.770 C 2.603 7.750,2.862 7.587,3.166 7.410 C 3.470 7.232,3.732 7.078,3.748 7.067 C 3.766 7.056,3.787 6.944,3.801 6.777 C 3.814 6.627,3.844 6.427,3.868 6.333 L 3.912 6.160 3.756 6.070 C 2.333 5.242,2.155 5.149,2.117 5.212 M11.086 5.678 C 10.562 5.983,10.262 6.171,10.268 6.190 C 10.311 6.349,10.365 6.670,10.366 6.765 C 10.367 7.059,10.326 7.017,10.971 7.390 C 11.287 7.574,11.557 7.745,11.571 7.770 C 11.591 7.808,11.498 7.984,11.000 8.848 C 10.672 9.417,10.401 9.886,10.398 9.890 C 10.394 9.895,10.178 9.776,9.917 9.626 L 9.442 9.352 9.253 9.515 C 9.024 9.713,8.812 9.855,8.546 9.988 C 8.437 10.043,8.339 10.100,8.329 10.115 C 8.320 10.129,8.312 10.579,8.312 11.114 C 8.311 11.966,8.316 12.090,8.348 12.123 C 8.400 12.174,8.411 12.172,8.735 12.065 C 9.875 11.688,10.842 10.950,11.503 9.953 C 12.377 8.635,12.614 6.974,12.141 5.486 C 12.055 5.215,12.050 5.206,11.982 5.202 C 11.929 5.198,11.712 5.314,11.086 5.678 " stroke="none" fill-rule="evenodd" fill="black"></path></svg>