<svg id="Layer_2" data-name="Layer 2" xmlns="http://www.w3.org/2000/svg" viewBox="0 0 15.25103008 15.19225196"><path d="M3.557 0.074 L 3.482 0.149 3.482 1.038 L 3.482 1.928 3.362 1.964 C 3.295 1.984,2.537 2.216,1.678 2.480 C 0.525 2.834,0.099 2.975,0.057 3.017 C -0.021 3.095,-0.019 3.228,0.062 3.307 C 0.129 3.373,9.532 9.541,9.545 9.527 C 9.560 9.512,3.943 0.164,3.869 0.083 C 3.770 -0.027,3.661 -0.030,3.557 0.074 M8.759 8.712 C 8.748 8.723,0.307 3.195,0.306 3.176 C 0.305 3.169,1.051 2.934,1.964 2.655 C 3.173 2.285,3.638 2.133,3.679 2.092 C 3.736 2.036,3.737 2.034,3.737 1.177 L 3.737 0.318 6.252 4.510 C 7.636 6.816,8.764 8.707,8.759 8.712 M8.937 3.507 C 8.418 3.831,8.363 3.885,8.406 4.027 C 8.442 4.141,11.372 10.226,11.380 10.201 C 11.383 10.190,11.010 8.631,10.551 6.737 C 9.636 2.969,9.704 3.201,9.510 3.204 C 9.437 3.205,9.315 3.270,8.937 3.507 M10.051 5.744 C 10.350 6.982,10.593 7.996,10.591 7.999 C 10.580 8.010,8.680 4.036,8.680 4.001 C 8.680 3.961,9.489 3.442,9.500 3.476 C 9.503 3.486,9.751 4.507,10.051 5.744 M11.632 6.179 L 11.565 6.231 11.569 7.468 C 11.571 8.149,11.579 9.035,11.588 9.438 L 11.603 10.170 11.992 8.269 C 12.205 7.223,12.380 6.339,12.379 6.304 C 12.377 6.161,12.295 6.126,11.964 6.126 C 11.735 6.126,11.690 6.133,11.632 6.179 M12.115 6.424 C 12.108 6.449,12.043 6.761,11.970 7.117 C 11.898 7.474,11.835 7.770,11.829 7.776 C 11.824 7.782,11.820 7.470,11.820 7.083 L 11.820 6.380 11.974 6.380 C 12.109 6.380,12.126 6.386,12.115 6.424 M3.900 8.410 C 3.858 8.436,3.782 8.525,3.733 8.607 C 3.683 8.689,3.549 8.910,3.435 9.097 C 3.321 9.284,3.228 9.464,3.228 9.497 C 3.228 9.530,3.260 9.590,3.298 9.631 C 3.365 9.703,3.507 9.739,6.824 10.533 C 8.725 10.987,10.282 11.357,10.285 11.354 C 10.295 11.344,4.102 8.391,4.040 8.376 C 4.001 8.367,3.949 8.380,3.900 8.410 M6.027 9.589 C 7.117 10.109,8.000 10.538,7.989 10.542 C 7.966 10.550,3.534 9.490,3.516 9.473 C 3.501 9.457,3.999 8.645,4.025 8.643 C 4.036 8.643,4.938 9.068,6.027 9.589 M12.544 10.019 C 12.516 10.034,12.299 10.238,12.061 10.472 L 11.629 10.898 10.855 10.458 C 10.429 10.216,10.076 10.022,10.071 10.027 C 10.066 10.032,10.256 10.389,10.494 10.820 L 10.927 11.603 10.498 12.036 C 10.054 12.483,10.010 12.549,10.064 12.679 C 10.080 12.718,10.639 13.296,11.306 13.962 L 12.520 15.175 12.646 15.175 L 12.772 15.175 13.985 13.962 C 14.652 13.296,15.211 12.718,15.227 12.679 C 15.244 12.640,15.249 12.577,15.240 12.538 C 15.221 12.461,12.876 10.090,12.755 10.026 C 12.674 9.983,12.614 9.981,12.544 10.019 M14.971 12.595 C 14.971 12.609,14.448 13.143,13.809 13.783 L 12.646 14.946 11.483 13.783 C 10.843 13.144,10.320 12.609,10.320 12.596 C 10.320 12.582,10.514 12.376,10.752 12.137 C 11.115 11.772,11.184 11.690,11.184 11.627 C 11.184 11.581,11.094 11.389,10.946 11.121 C 10.815 10.883,10.712 10.684,10.717 10.679 C 10.721 10.673,10.919 10.779,11.155 10.914 C 11.417 11.063,11.613 11.159,11.656 11.159 C 11.715 11.159,11.810 11.076,12.187 10.701 L 12.646 10.244 13.809 11.407 C 14.448 12.046,14.971 12.581,14.971 12.595 M6.228 11.591 C 6.182 11.636,6.177 11.676,6.177 11.947 C 6.177 12.218,6.182 12.257,6.228 12.302 C 6.255 12.330,6.304 12.354,6.336 12.355 C 6.367 12.355,7.238 12.181,8.271 11.967 L 10.150 11.578 9.860 11.562 C 9.701 11.554,8.829 11.545,7.924 11.543 C 6.310 11.540,6.277 11.541,6.228 11.591 M12.144 11.991 C 11.694 12.437,11.630 12.521,11.653 12.628 C 11.671 12.711,12.510 13.558,12.601 13.585 C 12.703 13.615,12.821 13.527,13.238 13.107 C 13.789 12.553,13.792 12.637,13.198 12.043 C 12.604 11.449,12.686 11.453,12.144 11.991 M7.193 11.935 C 6.837 12.010,6.519 12.078,6.488 12.086 C 6.433 12.099,6.431 12.093,6.431 11.947 L 6.431 11.794 7.136 11.796 L 7.842 11.798 7.193 11.935 M13.034 12.957 C 12.835 13.156,12.660 13.319,12.646 13.319 C 12.613 13.319,11.921 12.629,11.921 12.595 C 11.921 12.581,12.084 12.407,12.283 12.207 L 12.645 11.845 13.020 12.220 L 13.395 12.594 13.034 12.957 " stroke="none" fill-rule="evenodd" fill="black"></path></svg>