<svg id="Layer_2" xmlns="http://www.w3.org/2000/svg" viewBox="0 0 14.57 14.57"><path d="M7.260 0.040 C 7.162 0.105,0.073 7.194,0.035 7.266 C -0.052 7.429,-0.268 7.198,3.552 11.018 C 7.372 14.838,7.141 14.622,7.304 14.535 C 7.340 14.516,7.739 14.130,8.191 13.678 L 9.012 12.855 6.263 10.116 L 3.515 7.376 5.445 5.446 L 7.376 3.515 10.116 6.263 L 12.855 9.012 13.678 8.191 C 14.130 7.739,14.516 7.340,14.535 7.304 C 14.622 7.141,14.834 7.368,11.055 3.587 C 9.122 1.652,7.510 0.054,7.474 0.035 C 7.389 -0.010,7.334 -0.009,7.260 0.040 M13.581 7.922 L 12.858 8.645 10.162 5.949 C 7.265 3.052,7.428 3.202,7.266 3.289 C 7.230 3.308,6.312 4.212,5.227 5.299 C 3.277 7.251,3.254 7.275,3.254 7.370 C 3.254 7.466,3.279 7.491,5.949 10.162 L 8.645 12.858 7.922 13.581 L 7.200 14.303 3.734 10.836 L 0.267 7.370 3.819 3.819 L 7.370 0.267 10.836 3.733 L 14.303 7.200 13.581 7.922 M8.943 8.943 L 7.576 10.309 7.576 10.429 L 7.576 10.550 8.894 11.870 C 9.642 12.621,10.245 13.205,10.289 13.225 C 10.347 13.250,10.384 13.252,10.435 13.233 C 10.526 13.199,13.181 10.549,13.225 10.448 C 13.255 10.380,13.255 10.358,13.225 10.290 C 13.205 10.244,12.636 9.657,11.870 8.894 L 10.550 7.576 10.429 7.576 L 10.309 7.576 8.943 8.943 M11.735 9.100 L 12.992 10.357 11.674 11.674 L 10.357 12.992 9.100 11.735 C 8.409 11.044,7.844 10.462,7.844 10.442 C 7.844 10.394,10.394 7.844,10.442 7.844 C 10.462 7.844,11.044 8.409,11.735 9.100 M9.635 9.635 L 8.961 10.309 8.961 10.430 L 8.961 10.550 9.611 11.200 L 10.261 11.850 10.369 11.850 L 10.477 11.850 11.164 11.164 L 11.850 10.477 11.850 10.369 L 11.850 10.261 11.200 9.611 L 10.550 8.961 10.430 8.961 L 10.309 8.961 9.635 9.635 M11.018 9.792 C 11.329 10.102,11.583 10.367,11.583 10.381 C 11.583 10.412,10.413 11.583,10.382 11.583 C 10.350 11.583,9.228 10.462,9.228 10.430 C 9.228 10.398,10.398 9.228,10.429 9.228 C 10.443 9.228,10.708 9.482,11.018 9.792 " stroke="none" fill-rule="evenodd" fill="black"></path></svg>