<svg id="Layer_2" xmlns="http://www.w3.org/2000/svg" viewBox="0 0 15.0036 11.77"><path d="M2.851 2.863 C 4.425 4.438,5.749 5.743,5.793 5.764 C 5.854 5.793,5.889 5.796,5.943 5.775 C 5.982 5.761,6.349 5.415,6.758 5.007 L 7.501 4.264 8.271 5.033 C 8.984 5.744,9.048 5.801,9.128 5.801 C 9.209 5.801,9.379 5.636,12.021 2.995 C 14.751 0.265,14.829 0.185,14.829 0.094 L 14.829 0.000 13.835 -0.000 L 12.841 -0.000 10.890 1.951 L 8.939 3.902 8.766 3.728 L 8.594 3.554 10.142 2.016 L 11.690 0.477 10.957 0.476 C 10.470 0.476,10.206 0.484,10.170 0.503 C 10.140 0.518,9.527 1.117,8.808 1.834 L 7.502 3.138 6.195 1.834 C 5.477 1.117,4.864 0.518,4.834 0.503 C 4.798 0.484,4.534 0.476,4.046 0.476 L 3.313 0.477 4.861 2.016 L 6.409 3.554 6.237 3.728 L 6.065 3.902 4.114 1.951 L 2.163 0.000 1.075 0.000 L -0.012 0.000 2.851 2.863 M4.045 2.257 L 6.051 4.263 6.408 3.906 L 6.764 3.549 5.339 2.138 L 3.913 0.728 4.313 0.726 L 4.713 0.725 6.052 2.063 L 7.391 3.401 7.502 3.401 L 7.612 3.401 8.952 2.063 L 10.291 0.725 10.691 0.726 L 11.090 0.728 9.665 2.138 L 8.239 3.549 8.596 3.906 L 8.952 4.263 10.959 2.256 L 12.967 0.249 13.677 0.256 L 14.388 0.263 11.759 2.901 L 9.131 5.539 8.385 4.798 C 7.975 4.390,7.613 4.043,7.581 4.026 C 7.549 4.010,7.492 4.004,7.456 4.013 C 7.414 4.023,7.110 4.308,6.633 4.784 L 5.876 5.538 5.756 5.413 C 5.690 5.345,4.506 4.155,3.126 2.769 L 0.616 0.250 1.327 0.250 L 2.038 0.250 4.045 2.257 M6.970 5.370 L 6.452 5.889 6.977 6.414 L 7.502 6.939 8.027 6.414 L 8.552 5.889 8.033 5.370 C 7.748 5.085,7.509 4.851,7.502 4.851 C 7.495 4.851,7.255 5.085,6.970 5.370 M7.858 5.545 L 8.202 5.890 7.852 6.239 L 7.502 6.588 7.152 6.239 L 6.802 5.890 7.145 5.545 C 7.334 5.356,7.495 5.201,7.502 5.201 C 7.509 5.201,7.670 5.356,7.858 5.545 M5.826 5.996 C 5.783 6.002,4.897 6.871,2.888 8.879 L 0.013 11.753 1.100 11.753 L 2.187 11.753 4.126 9.815 L 6.064 7.877 6.246 8.058 L 6.427 8.239 4.895 9.771 L 3.363 11.303 4.100 11.303 L 4.837 11.303 6.169 9.972 L 7.502 8.641 8.834 9.972 L 10.167 11.303 10.904 11.303 L 11.640 11.303 10.109 9.771 L 8.577 8.239 8.758 8.058 L 8.939 7.877 10.878 9.815 L 12.816 11.753 13.891 11.747 L 14.966 11.740 12.087 8.855 L 9.208 5.969 9.112 5.984 C 9.027 5.998,8.931 6.085,8.259 6.757 L 7.502 7.514 6.758 6.771 C 6.349 6.363,5.986 6.019,5.951 6.008 C 5.917 5.996,5.861 5.991,5.826 5.996 M6.645 7.007 C 7.386 7.749,7.403 7.763,7.502 7.763 C 7.601 7.763,7.618 7.748,8.367 7.001 L 9.131 6.239 11.759 8.877 L 14.388 11.515 13.677 11.522 L 12.967 11.529 10.959 9.522 L 8.952 7.515 8.590 7.877 L 8.227 8.239 9.633 9.646 L 11.040 11.053 10.666 11.053 L 10.291 11.053 8.952 9.715 L 7.612 8.377 7.502 8.377 L 7.391 8.377 6.052 9.715 L 4.713 11.053 4.338 11.053 L 3.964 11.053 5.370 9.646 L 6.777 8.239 6.414 7.877 L 6.051 7.515 4.045 9.521 L 2.038 11.528 1.327 11.528 L 0.616 11.528 3.240 8.893 C 4.683 7.443,5.869 6.256,5.876 6.254 C 5.883 6.253,6.229 6.592,6.645 7.007 " stroke="none" fill-rule="evenodd" fill="black"></path></svg>