<svg id="Layer_2" data-name="Layer 2" xmlns="http://www.w3.org/2000/svg" viewBox="0 0 14.51778228 7.33696844"><path d="M3.741 0.054 C 3.658 0.130,0.024 6.981,0.007 7.094 C -0.004 7.171,0.005 7.195,0.068 7.258 L 0.141 7.331 1.592 7.331 C 2.724 7.331,3.048 7.325,3.066 7.301 C 3.080 7.285,3.141 7.177,3.203 7.061 L 3.317 6.851 2.625 6.436 L 1.933 6.021 2.003 5.896 C 2.042 5.827,2.479 5.015,2.976 4.092 L 3.879 2.413 3.922 2.495 C 4.174 2.978,4.766 4.053,4.779 4.053 C 4.816 4.053,5.443 2.843,5.444 2.771 C 5.444 2.723,5.213 2.262,4.749 1.384 C 4.022 0.010,4.016 0.000,3.862 0.000 C 3.829 0.000,3.774 0.024,3.741 0.054 M7.117 0.067 C 7.010 0.168,3.387 7.012,3.387 7.112 C 3.387 7.166,3.409 7.212,3.458 7.261 L 3.529 7.331 7.259 7.331 L 10.989 7.331 11.060 7.261 C 11.108 7.212,11.130 7.166,11.130 7.112 C 11.130 7.012,7.507 0.167,7.401 0.067 C 7.357 0.025,7.304 -0.000,7.259 -0.000 C 7.214 -0.000,7.161 0.025,7.117 0.067 M10.525 0.035 C 10.481 0.059,10.272 0.430,9.755 1.402 C 9.155 2.527,9.047 2.745,9.061 2.801 C 9.070 2.837,9.225 3.142,9.406 3.478 C 9.686 3.998,9.739 4.083,9.763 4.047 C 9.778 4.023,9.979 3.651,10.210 3.218 C 10.441 2.786,10.632 2.429,10.634 2.425 C 10.637 2.421,11.046 3.173,11.542 4.095 C 12.039 5.017,12.476 5.827,12.515 5.896 L 12.584 6.021 11.894 6.435 L 11.204 6.850 11.324 7.091 L 11.445 7.331 12.911 7.331 L 14.376 7.331 14.450 7.258 C 14.513 7.195,14.522 7.171,14.511 7.094 C 14.494 6.981,10.860 0.130,10.776 0.054 C 10.709 -0.007,10.615 -0.014,10.525 0.035 M4.538 1.524 C 4.894 2.196,5.185 2.757,5.185 2.770 C 5.185 2.814,4.799 3.513,4.776 3.509 C 4.764 3.507,4.677 3.362,4.582 3.186 C 4.487 3.011,4.290 2.646,4.144 2.376 L 3.878 1.885 2.780 3.924 C 1.933 5.496,1.682 5.982,1.684 6.044 C 1.685 6.096,1.706 6.144,1.744 6.180 C 1.776 6.210,2.026 6.369,2.299 6.533 C 3.060 6.991,2.983 6.933,2.940 7.017 L 2.902 7.090 1.583 7.090 C 0.335 7.090,0.266 7.087,0.287 7.047 C 0.299 7.024,1.101 5.513,2.069 3.690 C 3.037 1.867,3.839 0.355,3.852 0.331 C 3.865 0.306,3.879 0.290,3.883 0.294 C 3.887 0.299,4.182 0.852,4.538 1.524 M12.449 3.690 C 13.430 5.540,14.238 7.061,14.244 7.071 C 14.250 7.081,13.661 7.090,12.935 7.090 L 11.615 7.090 11.578 7.017 C 11.534 6.933,11.463 6.987,12.219 6.533 C 12.492 6.369,12.742 6.211,12.774 6.180 C 12.812 6.144,12.833 6.096,12.834 6.044 C 12.836 5.982,12.585 5.497,11.738 3.924 C 11.134 2.803,10.637 1.889,10.635 1.893 C 10.632 1.896,10.452 2.232,10.235 2.637 C 10.018 3.043,9.817 3.416,9.788 3.466 L 9.735 3.557 9.524 3.164 C 9.325 2.795,9.314 2.768,9.344 2.707 C 9.562 2.272,10.637 0.296,10.649 0.309 C 10.658 0.319,11.468 1.840,12.449 3.690 M9.074 3.700 C 10.059 5.555,10.861 7.077,10.856 7.081 C 10.851 7.086,10.193 7.087,9.393 7.084 L 7.938 7.077 8.621 6.667 C 8.996 6.441,9.340 6.220,9.385 6.176 C 9.455 6.108,9.465 6.084,9.454 6.014 C 9.439 5.924,7.478 2.267,7.405 2.193 C 7.375 2.162,7.326 2.147,7.259 2.147 C 7.192 2.147,7.143 2.162,7.113 2.193 C 7.040 2.266,5.079 5.924,5.064 6.014 C 5.053 6.084,5.063 6.108,5.133 6.176 C 5.178 6.220,5.522 6.441,5.897 6.667 L 6.580 7.077 5.125 7.084 C 4.325 7.087,3.666 7.086,3.662 7.081 C 3.645 7.065,7.242 0.313,7.262 0.320 C 7.274 0.324,8.089 1.845,9.074 3.700 M8.233 4.225 C 8.762 5.205,9.189 6.014,9.183 6.023 C 9.178 6.033,8.742 6.300,8.216 6.617 L 7.259 7.195 6.302 6.618 C 5.776 6.301,5.341 6.033,5.335 6.024 C 5.323 6.005,7.235 2.444,7.258 2.444 C 7.266 2.444,7.705 3.245,8.233 4.225 " stroke="none" fill-rule="evenodd" fill="black"></path></svg>