<svg id="Layer_2" data-name="Layer 2" xmlns="http://www.w3.org/2000/svg" viewBox="0 0 16.4026427 11.16715776"><path d="M8.078 0.052 C 8.033 0.081,6.791 1.311,5.317 2.786 L 2.638 5.468 3.240 5.468 L 3.841 5.468 6.021 3.287 L 8.201 1.107 10.354 3.259 C 11.538 4.442,12.538 5.422,12.576 5.436 C 12.625 5.454,13.165 5.398,14.469 5.239 C 15.472 5.117,16.293 5.011,16.293 5.003 C 16.293 4.995,15.516 4.888,14.566 4.765 L 12.838 4.541 10.595 2.301 C 9.361 1.069,8.325 0.047,8.292 0.030 C 8.209 -0.012,8.173 -0.008,8.078 0.052 M10.471 2.529 C 11.711 3.769,12.745 4.785,12.767 4.785 C 12.789 4.786,13.158 4.833,13.587 4.890 C 14.132 4.962,14.337 4.998,14.270 5.010 C 14.218 5.019,13.833 5.067,13.415 5.116 L 12.656 5.206 10.490 3.042 C 9.075 1.629,8.299 0.872,8.252 0.861 C 8.208 0.850,8.149 0.859,8.102 0.884 C 8.059 0.907,7.058 1.892,5.878 3.074 L 3.732 5.222 3.486 5.222 L 3.240 5.222 5.714 2.747 C 7.074 1.387,8.194 0.273,8.201 0.273 C 8.208 0.273,9.230 1.288,10.471 2.529 M6.329 3.691 L 4.552 5.467 5.446 5.467 C 6.043 5.468,6.362 5.457,6.406 5.437 C 6.488 5.400,6.518 5.341,6.574 5.116 C 6.711 4.556,7.220 4.059,7.794 3.924 C 8.412 3.778,9.109 4.008,9.508 4.487 C 9.627 4.631,9.622 4.635,9.307 4.670 C 9.017 4.702,9.015 4.701,8.937 4.636 C 8.810 4.529,8.577 4.428,8.383 4.396 C 7.803 4.300,7.232 4.662,7.054 5.240 C 6.822 5.989,7.412 6.778,8.205 6.779 C 8.408 6.780,8.681 6.693,8.862 6.572 L 9.008 6.474 9.234 6.493 C 9.358 6.503,9.493 6.521,9.535 6.532 C 9.609 6.553,9.609 6.553,9.388 6.772 C 9.145 7.013,8.899 7.155,8.586 7.233 C 8.339 7.295,7.895 7.276,7.655 7.192 C 7.267 7.057,6.896 6.745,6.717 6.404 C 6.626 6.229,6.600 6.156,6.533 5.885 C 6.484 5.688,6.476 5.686,5.448 5.686 L 4.552 5.686 6.329 7.463 C 7.997 9.131,8.112 9.240,8.201 9.240 C 8.290 9.240,8.405 9.131,10.074 7.463 L 11.851 5.686 10.942 5.686 L 10.033 5.686 10.033 5.577 L 10.033 5.468 10.942 5.467 L 11.851 5.467 10.074 3.691 C 8.405 2.023,8.290 1.914,8.201 1.914 C 8.112 1.914,7.997 2.023,6.329 3.691 M9.732 3.704 L 11.249 5.222 10.504 5.222 L 9.760 5.222 9.760 5.577 L 9.760 5.932 10.504 5.932 L 11.249 5.932 9.725 7.456 L 8.201 8.980 6.677 7.456 L 5.153 5.932 5.719 5.932 L 6.286 5.932 6.315 6.048 C 6.429 6.501,6.631 6.815,7.001 7.112 C 7.339 7.384,7.739 7.521,8.198 7.520 C 8.529 7.519,8.810 7.450,9.111 7.294 C 9.402 7.145,9.752 6.800,9.903 6.516 L 10.005 6.324 9.467 6.266 L 8.930 6.208 8.769 6.329 C 8.594 6.461,8.488 6.501,8.254 6.525 C 7.838 6.567,7.416 6.261,7.288 5.825 C 7.231 5.632,7.233 5.509,7.295 5.310 C 7.363 5.092,7.484 4.923,7.660 4.803 C 8.026 4.552,8.467 4.578,8.832 4.871 L 8.937 4.955 9.444 4.905 C 9.723 4.878,9.966 4.847,9.983 4.836 C 10.040 4.801,9.793 4.430,9.557 4.196 C 9.188 3.831,8.818 3.667,8.307 3.643 C 7.699 3.614,7.235 3.789,6.817 4.205 C 6.561 4.460,6.410 4.731,6.315 5.105 L 6.286 5.222 5.719 5.222 L 5.153 5.222 6.670 3.704 C 7.505 2.870,8.194 2.187,8.201 2.187 C 8.209 2.187,8.898 2.870,9.732 3.704 M10.382 7.866 L 8.202 10.046 6.035 7.880 L 3.867 5.714 3.745 5.714 C 3.595 5.713,0.197 6.120,0.129 6.146 C 0.102 6.157,0.864 6.267,1.824 6.391 L 3.568 6.617 5.837 8.885 C 7.974 11.021,8.112 11.154,8.201 11.154 C 8.291 11.154,8.452 10.998,11.030 8.420 L 13.765 5.686 13.163 5.686 L 12.562 5.686 10.382 7.866 M10.682 8.413 L 8.202 10.894 5.939 8.635 L 3.677 6.377 3.335 6.333 C 2.241 6.194,2.051 6.168,2.058 6.162 C 2.061 6.158,2.443 6.109,2.907 6.053 L 3.749 5.950 5.928 8.128 C 7.972 10.172,8.113 10.306,8.201 10.306 C 8.290 10.306,8.431 10.171,10.483 8.119 L 12.671 5.932 12.917 5.932 L 13.163 5.932 10.682 8.413 " stroke="none" fill-rule="evenodd" fill="black"></path></svg>