<svg id="Layer_2" data-name="Layer 2" xmlns="http://www.w3.org/2000/svg" viewBox="0 0 14.7606808 8.89001465"><path d="M5.658 4.441 L 5.658 8.881 6.286 8.881 L 6.913 8.881 6.913 4.441 L 6.913 0.000 6.286 0.000 L 5.658 0.000 5.658 4.441 M7.537 0.097 C 7.508 0.109,7.466 0.145,7.444 0.176 C 7.409 0.227,7.405 0.616,7.405 4.448 L 7.405 8.663 7.479 8.738 C 7.538 8.797,7.571 8.810,7.633 8.803 C 7.732 8.791,14.698 4.622,14.735 4.553 C 14.774 4.480,14.766 4.366,14.718 4.310 C 14.654 4.237,7.723 0.090,7.651 0.082 C 7.617 0.078,7.566 0.085,7.537 0.097 M6.642 4.441 L 6.642 8.635 6.286 8.635 L 5.929 8.635 5.929 4.441 L 5.929 0.246 6.286 0.246 L 6.642 0.246 6.642 4.441 M3.460 0.374 C 3.363 0.528,2.755 1.599,2.755 1.616 C 2.755 1.627,3.350 1.993,4.078 2.429 L 5.400 3.223 5.406 2.373 C 5.410 1.869,5.403 1.505,5.389 1.479 C 5.373 1.449,3.811 0.490,3.513 0.328 C 3.503 0.323,3.480 0.344,3.460 0.374 M11.083 2.401 C 13.858 4.066,14.464 4.439,14.437 4.465 C 14.391 4.508,7.699 8.512,7.672 8.512 C 7.661 8.512,7.651 8.058,7.651 7.503 C 7.651 6.949,7.655 6.495,7.660 6.495 C 7.666 6.495,7.767 6.666,7.887 6.876 C 8.006 7.086,8.111 7.257,8.121 7.257 C 8.160 7.257,12.537 4.619,12.577 4.572 C 12.633 4.507,12.633 4.374,12.577 4.309 C 12.537 4.262,8.160 1.624,8.121 1.624 C 8.111 1.624,8.006 1.795,7.887 2.005 C 7.767 2.215,7.666 2.386,7.660 2.386 C 7.655 2.386,7.651 1.932,7.651 1.378 C 7.651 0.780,7.660 0.369,7.674 0.369 C 7.686 0.369,9.220 1.284,11.083 2.401 M4.381 1.135 L 5.166 1.606 5.166 2.195 C 5.166 2.519,5.157 2.780,5.145 2.776 C 5.133 2.771,4.664 2.492,4.102 2.154 L 3.079 1.541 3.151 1.416 C 3.191 1.348,3.303 1.150,3.401 0.978 C 3.499 0.806,3.583 0.664,3.588 0.664 C 3.592 0.664,3.949 0.876,4.381 1.135 M0.375 2.416 C 0.098 2.900,0.012 3.070,0.033 3.090 C 0.049 3.105,0.549 3.409,1.144 3.764 C 1.739 4.120,2.236 4.419,2.247 4.429 C 2.258 4.439,1.757 4.754,1.132 5.129 C 0.028 5.792,-0.002 5.812,0.031 5.863 C 0.050 5.893,0.218 6.186,0.405 6.514 C 0.650 6.944,0.756 7.108,0.781 7.099 C 0.800 7.091,1.667 6.574,2.708 5.950 L 4.600 4.815 4.600 4.441 L 4.600 4.066 2.708 2.931 C 1.667 2.307,0.800 1.790,0.781 1.782 C 0.756 1.773,0.641 1.952,0.375 2.416 M10.276 3.201 C 11.954 4.208,12.324 4.439,12.297 4.465 C 12.241 4.516,8.262 6.895,8.226 6.898 C 8.207 6.899,8.086 6.714,7.948 6.472 L 7.703 6.043 8.889 5.333 C 9.541 4.942,10.094 4.600,10.117 4.572 C 10.165 4.515,10.174 4.401,10.135 4.328 C 10.121 4.302,9.587 3.969,8.948 3.588 C 8.309 3.207,7.767 2.883,7.745 2.867 C 7.707 2.842,7.728 2.794,7.950 2.403 C 8.086 2.164,8.203 1.968,8.209 1.968 C 8.216 1.968,9.146 2.523,10.276 3.201 M2.616 3.170 L 4.354 4.213 4.354 4.442 L 4.354 4.672 2.605 5.721 C 1.644 6.298,0.848 6.761,0.837 6.750 C 0.804 6.713,0.341 5.899,0.349 5.892 C 0.353 5.888,0.822 5.606,1.390 5.266 C 1.958 4.926,2.454 4.615,2.491 4.574 C 2.564 4.495,2.574 4.440,2.531 4.345 C 2.511 4.301,2.200 4.103,1.442 3.651 C 0.859 3.303,0.372 3.010,0.361 3.001 C 0.338 2.981,0.833 2.110,0.861 2.121 C 0.870 2.125,1.661 2.597,2.616 3.170 M8.800 3.792 C 9.673 4.316,9.864 4.439,9.837 4.465 C 9.788 4.510,7.701 5.757,7.674 5.757 C 7.660 5.757,7.651 5.230,7.651 4.438 C 7.651 3.238,7.655 3.120,7.690 3.134 C 7.712 3.143,8.211 3.438,8.800 3.792 M4.078 6.452 C 3.350 6.888,2.755 7.254,2.755 7.265 C 2.755 7.290,3.442 8.489,3.481 8.532 C 3.504 8.558,3.690 8.456,4.436 8.008 C 4.946 7.702,5.374 7.431,5.388 7.405 C 5.404 7.375,5.411 7.052,5.406 6.508 L 5.400 5.658 4.078 6.452 M5.166 6.690 L 5.166 7.278 4.377 7.750 C 3.943 8.009,3.584 8.217,3.580 8.213 C 3.577 8.208,3.463 8.011,3.327 7.774 C 3.163 7.488,3.090 7.338,3.109 7.326 C 3.448 7.116,5.135 6.105,5.148 6.103 C 5.158 6.102,5.166 6.366,5.166 6.690 " stroke="none" fill-rule="evenodd" fill="black"></path></svg>