<svg id="Layer_2" data-name="Layer 2" xmlns="http://www.w3.org/2000/svg" viewBox="0 0 13.70575809 14.40997585"><path d="M6.855 0.046 C 6.853 0.052,6.786 0.684,6.707 1.451 L 6.563 2.844 5.050 5.869 C 3.399 9.169,3.483 8.979,3.625 9.090 C 3.683 9.136,3.709 9.137,5.073 9.137 L 6.462 9.137 6.519 9.086 C 6.550 9.058,6.735 8.754,6.930 8.412 L 7.284 7.789 6.360 7.789 C 5.709 7.789,5.437 7.782,5.437 7.765 C 5.437 7.751,5.723 7.173,6.073 6.480 C 6.424 5.787,6.744 5.153,6.785 5.072 L 6.859 4.923 7.905 7.013 C 8.481 8.163,8.952 9.116,8.953 9.131 C 8.954 9.154,8.817 9.160,8.342 9.160 L 7.729 9.160 7.672 9.223 C 7.640 9.257,7.482 9.517,7.322 9.800 C 7.162 10.082,7.010 10.347,6.985 10.388 L 6.941 10.462 8.828 10.462 L 10.716 10.462 10.770 10.403 C 10.833 10.336,10.849 10.270,10.822 10.188 C 10.812 10.157,9.982 8.492,8.978 6.489 L 7.152 2.848 7.013 1.487 C 6.877 0.150,6.863 0.023,6.855 0.046 M8.728 6.553 C 9.733 8.555,10.552 10.197,10.547 10.202 C 10.542 10.207,9.828 10.208,8.961 10.205 L 7.384 10.199 7.607 9.811 L 7.830 9.423 8.598 9.417 C 9.086 9.413,9.366 9.402,9.366 9.388 C 9.366 9.354,6.873 4.386,6.856 4.386 C 6.836 4.387,5.139 7.770,5.139 7.808 C 5.140 7.824,5.156 7.869,5.175 7.907 C 5.241 8.034,5.291 8.041,6.108 8.041 L 6.850 8.041 6.605 8.469 L 6.360 8.897 5.087 8.903 C 4.387 8.906,3.815 8.905,3.815 8.900 C 3.815 8.895,4.488 7.550,5.312 5.910 L 6.809 2.928 6.831 2.737 C 6.843 2.633,6.854 2.542,6.856 2.536 C 6.858 2.529,6.869 2.612,6.880 2.718 L 6.901 2.912 8.728 6.553 M2.188 11.564 L 1.372 13.192 0.730 13.763 C 0.030 14.386,-0.003 14.417,0.103 14.363 C 0.140 14.344,0.585 14.116,1.090 13.857 L 2.008 13.386 6.853 13.386 L 11.698 13.386 12.616 13.857 C 13.121 14.116,13.564 14.343,13.600 14.361 C 13.636 14.380,13.660 14.386,13.653 14.375 C 13.646 14.364,13.344 14.090,12.980 13.765 L 12.320 13.174 11.843 12.218 L 11.365 11.262 10.708 11.262 C 10.347 11.262,10.051 11.269,10.051 11.279 C 10.051 11.288,10.149 11.495,10.268 11.738 C 10.387 11.981,10.485 12.184,10.485 12.189 C 10.485 12.194,8.850 12.198,6.853 12.198 C 4.855 12.198,3.221 12.193,3.221 12.187 C 3.221 12.180,3.473 11.671,3.781 11.056 L 4.340 9.937 3.672 9.937 L 3.004 9.937 2.188 11.564 M3.369 11.307 C 3.062 11.923,2.810 12.432,2.810 12.438 C 2.810 12.444,4.629 12.449,6.853 12.449 C 9.077 12.449,10.896 12.444,10.896 12.438 C 10.896 12.431,10.793 12.221,10.668 11.969 L 10.439 11.513 10.827 11.513 L 11.216 11.513 11.661 12.404 C 11.906 12.894,12.107 13.300,12.107 13.306 C 12.107 13.313,12.025 13.277,11.925 13.226 L 11.742 13.135 6.853 13.135 L 1.963 13.135 1.781 13.226 C 1.681 13.277,1.599 13.311,1.599 13.304 C 1.599 13.296,1.951 12.592,2.381 11.739 L 3.164 10.189 3.546 10.188 L 3.929 10.188 3.369 11.307 " stroke="none" fill-rule="evenodd" fill="black"></path></svg>